<svg width="900.5px" height="251.77px" xmlns="http://www.w3.org/2000/svg" xmlns:xlink="http://www.w3.org/1999/xlink" viewBox="0 0 900.5 251.77"><title>logo-5</title><g style="isolation:isolate"><g id="e3f19912-99b6-4736-b6d4-924c2d36871a" data-name="Layer 2"><g id="e3e77e46-2535-4f0c-8238-7e04dc476271" data-name="Шар 1"><g id="a770537d-b79a-4aa4-9c21-da204013635e" data-name="Content 2"><path d="M232.18,189.51c-3.91-13.85-14.45-22.29-31.61-22.29-8.19,0-17.57-4.92-25.26-10.37-.62-.44-1.23-.89-1.83-1.33a54.77,54.77,0,0,1-13.39-13.38c-2.7-3.63-6.93-12.24-9.45-19.09-.95-2.68-4.43-12-5.82-19.6-1.66-9.07-2.23-20.68-2-31.59a61.93,61.93,0,0,1,2.76-15.25A93.87,93.87,0,0,1,150.91,44c4.25-8.34,4.39-22.74-3.62-32.46C131.91-7.15,111.06,1.18,103.57,6.83a25.41,25.41,0,0,0-9.41,21.3C94.78,42,101.53,50,104.94,55.07s4.93,12.48,5.36,15.19c1,6,1.23,10.59.24,22.59-2,24.52-19.49,40.2-26,44.58-4.77,3.65-22.48,10.17-26.38,10.4-5.13.4-10.38,0-18-1.21-6-1-7.31-1.27-11.62-1-19,1.77-33.44,16.76-27,40.64,7.67,28.6,42.37,27.76,53.81,12.7,5.47-7.19,9.91-12,13-16.12,3.42-4.54,11-10.69,22.28-14.45,3.4-1.14,10.66-2.25,17.56-2.45,10-.28,20.36.92,27.6,3.05a67.12,67.12,0,0,1,19.25,9.36A69.74,69.74,0,0,1,165.66,188c3,3.82,5.7,6,8.41,14.13s15.66,28,35.23,24.39S236.1,203.36,232.18,189.51Z" style="fill:#c7da44"/><path d="M158.12,128a70.52,70.52,0,0,0,14.46,19.89,107.55,107.55,0,0,0,13,10.18,40.72,40.72,0,0,0,3-3.29c3.86-4.56,8-13.93,6.81-21.3-1.45-9.13-11-22-22.25-24.4S152.91,114,152.91,114A95.73,95.73,0,0,0,158.12,128Z" style="fill:#fce746"/><path d="M268.11,67.12q0,8.47-5.14,13.67T248.58,86H234.86v26.94h-15.5v-89l26.39-.13a22.74,22.74,0,0,1,15.8,5.92,18.58,18.58,0,0,1,6.56,14.28ZM253.2,63.48V47q0-6.6-1.77-8.75-2.37-2.7-9.76-2.7h-6.81V74.66l9.25.13c3.67,0,6.21-1.12,7.6-3.36Q253.2,69,253.2,63.48Z" style="fill:#fcfbfb;stroke:#fff;stroke-miterlimit:10;stroke-width:1.28410760610759px"/><path d="M323,112.92H308.07V91.5q0-7.81-5.91-10.1-3.41-1.22-13.47-1.22v32.74H273.18V25.08L299.57,25a22.74,22.74,0,0,1,15.81,5.94,18.62,18.62,0,0,1,6.56,14.3V60.3a16.85,16.85,0,0,1-2.76,8.63A13.63,13.63,0,0,1,312.55,75a18.31,18.31,0,0,1,7.15,5.39c2.19,2.7,3.28,5.36,3.28,8ZM307,56.69V48.31q0-6.63-2.22-9.07t-9.46-2.43h-6.66V67.92l9.32.14Q307,68.06,307,56.69Z" style="fill:#fcfbfb;stroke:#fff;stroke-miterlimit:10;stroke-width:1.28410760610759px"/><path d="M378,94a18.52,18.52,0,0,1-6.57,14.26,22.74,22.74,0,0,1-15.8,5.92h-3.88a22.74,22.74,0,0,1-15.8-5.92A18.51,18.51,0,0,1,329.4,94v-50A18.5,18.5,0,0,1,336,29.66a22.74,22.74,0,0,1,15.8-5.92h3.88a22.74,22.74,0,0,1,15.8,5.92A18.51,18.51,0,0,1,378,43.91Zm-14.92-3.62V47.13c0-3.49-.39-6-1.19-7.65q-1.93-3.61-7-3.62-10.59,0-10.58,11.27v43.2q0,11.28,9.69,11.27Q363.09,101.6,363.09,90.33Z" style="fill:#fcfbfb;stroke:#fff;stroke-miterlimit:10;stroke-width:1.28410760610759px"/><path d="M428.25,36.54H413.19v76.38h-15.5V36.54H382.77l-.14-11.19H428.1Z" style="fill:#fcfbfb;stroke:#fff;stroke-miterlimit:10;stroke-width:1.28410760610759px"/><path d="M476.41,100.39v12.53H431.23V25.49l45.18-.14V37.88H446.74V61.46h29.67V74H446.74v26.4Z" style="fill:#fcfbfb;stroke:#fff;stroke-miterlimit:10;stroke-width:1.28410760610759px"/><path d="M497.29,112.92H481.78V25.35l15.51.14Z" style="fill:#fcfbfb;stroke:#fff;stroke-miterlimit:10;stroke-width:1.28410760610759px"/><path d="M550.82,112.92H535L519.35,65.23v47.69H505l-.45-87.43h15.87l16,48.86V25.49h14.32Z" style="fill:#fcfbfb;stroke:#fff;stroke-miterlimit:10;stroke-width:1.28410760610759px"/><path d="M575.27,112.92H559.76V98l15.51.14Z" style="fill:#fcfbfb;stroke:#fff;stroke-miterlimit:10;stroke-width:1.28410760610759px"/><path d="M630.73,93.92a18.55,18.55,0,0,1-6.56,14.28,22.7,22.7,0,0,1-15.8,5.93h-3.88a22.74,22.74,0,0,1-15.8-5.92A18.52,18.52,0,0,1,582.12,94v-50a18.51,18.51,0,0,1,6.57-14.25,22.74,22.74,0,0,1,15.8-5.92h3.88a22.74,22.74,0,0,1,15.8,5.92,18.58,18.58,0,0,1,6.56,14.28V57.82H616.12v-8q0-13.93-10-13.93-9.09,0-9.1,11.27v43.2q0,11.28,9.85,11.27,9.24,0,9.24-11.31V78.57h14.61Z" style="fill:#fcfbfb;stroke:#fff;stroke-miterlimit:10;stroke-width:1.28410760610759px"/><path d="M684.11,94a18.51,18.51,0,0,1-6.56,14.26,22.74,22.74,0,0,1-15.8,5.92h-3.88a22.74,22.74,0,0,1-15.8-5.92A18.52,18.52,0,0,1,635.5,94v-50a18.51,18.51,0,0,1,6.57-14.25,22.74,22.74,0,0,1,15.8-5.92h3.88a22.74,22.74,0,0,1,15.8,5.92,18.5,18.5,0,0,1,6.56,14.25ZM669.2,90.33V47.13q0-5.24-1.19-7.65-1.93-3.61-7-3.62-10.59,0-10.59,11.27v43.2q0,11.28,9.7,11.27Q669.2,101.6,669.2,90.33Z" style="fill:#fcfbfb;stroke:#fff;stroke-miterlimit:10;stroke-width:1.28410760610759px"/><path d="M763.14,112.92H747.63V68.33l-13.42,44.59H718.7L706.48,67.38v45.54H691V25.49h16.54l19.82,62,18.83-62h17Z" style="fill:#fcfbfb;stroke:#fff;stroke-miterlimit:10;stroke-width:1.28410760610759px"/><path d="M787.89,112.92H772.38V98l15.51.14Z" style="fill:#fcfbfb;stroke:#fff;stroke-miterlimit:10;stroke-width:1.28410760610759px"/><path d="M844.4,94a18.54,18.54,0,0,1-6.56,14.26,22.76,22.76,0,0,1-15.8,5.92h-3.88a22.76,22.76,0,0,1-15.81-5.92A18.54,18.54,0,0,1,795.79,94V24.54H810.7V90.3q0,11.31,9.69,11.3,9.11,0,9.1-11.3V24.54H844.4Z" style="fill:#fcfbfb;stroke:#fff;stroke-miterlimit:10;stroke-width:1.28410760610759px"/><path d="M899.72,112.92H884.29L880.66,93H869.27l-3.76,19.94H850.06l17.15-87.57,16,.14ZM878.25,79l-3.14-21.28L872,79Z" style="fill:#fcfbfb;stroke:#fff;stroke-miterlimit:10;stroke-width:1.28410760610759px"/><path d="M221.7,150.92a14.73,14.73,0,0,0,6.55,1.87c2.29,0,3.24-.81,3.24-2.07s-.74-1.87-3.59-2.82c-5.05-1.72-7-4.49-7-7.41,0-4.59,3.9-8.07,10-8.07a16.37,16.37,0,0,1,6.89,1.41l-1.35,5.3a11.85,11.85,0,0,0-5.29-1.41c-1.85,0-2.9.75-2.9,2s.95,1.77,3.94,2.82c4.65,1.62,6.6,4,6.65,7.61,0,4.59-3.6,8-10.59,8a17.17,17.17,0,0,1-7.9-1.72Z" style="fill:#fff226"/><path d="M255,141.25c0-3.23-.1-6-.2-8.27h6.59l.35,3.43h.1a9.36,9.36,0,0,1,8.14-4c5.35,0,10.14,4.69,10.14,12.55,0,9-5.64,13.21-11.09,13.21a7.53,7.53,0,0,1-6.34-2.83h-.1V167.6H255Zm7.59,5.79a7.67,7.67,0,0,0,.15,1.61,4.6,4.6,0,0,0,4.44,3.63c3.3,0,5.25-2.77,5.25-6.95,0-3.94-1.75-6.91-5.14-6.91a4.79,4.79,0,0,0-4.55,3.88,6,6,0,0,0-.15,1.36Z" style="fill:#fff226"/><path d="M320.65,145c0,9-6.35,13.15-12.89,13.15-7.14,0-12.64-4.74-12.64-12.7s5.2-13.06,13-13.06C315.65,132.42,320.65,137.61,320.65,145Zm-17.69.25c0,4.23,1.75,7.4,5,7.4,3,0,4.84-3,4.84-7.4,0-3.68-1.4-7.41-4.84-7.41C304.31,137.87,303,141.65,303,145.28Z" style="fill:#fff226"/><path d="M336.87,141.09c0-3.62-.1-6-.19-8.11h6.54l.25,4.54h.2a7.21,7.21,0,0,1,8.19-5v7.2a10.89,10.89,0,0,0-2.05-.2c-2.79,0-4.69,1.51-5.19,3.88a9.15,9.15,0,0,0-.15,1.71v12.5h-7.6Z" style="fill:#fff226"/><path d="M376.93,125.92V133h5.45v5.64h-5.45v8.93c0,3,.7,4.33,3,4.33a12.41,12.41,0,0,0,2.25-.2l.05,5.79a14.86,14.86,0,0,1-5,.66,7.85,7.85,0,0,1-5.69-2.12c-1.4-1.46-2.1-3.83-2.1-7.31V138.62h-3.25V133h3.25v-5.34Z" style="fill:#fff226"/><path d="M419.93,140.84c0-3.07-.1-5.69-.2-7.86h6.6l.35,3.37h.14a8.94,8.94,0,0,1,7.55-3.93c5,0,8.74,3.33,8.74,10.59v14.61h-7.59V144c0-3.18-1.1-5.35-3.85-5.35a4.06,4.06,0,0,0-3.85,2.88,5.51,5.51,0,0,0-.3,1.91v14.21h-7.59Z" style="fill:#fff226"/><path d="M483.76,149.71c0,3.23.1,5.85.2,7.91h-6.59l-.35-3.47h-.15a8.7,8.7,0,0,1-7.64,4c-5,0-8.6-3.12-8.6-10.74V133h7.65v13.25c0,3.58,1.14,5.75,3.79,5.75a4.09,4.09,0,0,0,3.8-2.67,4.35,4.35,0,0,0,.25-1.67V133h7.64Z" style="fill:#fff226"/><path d="M509.88,125.92V133h5.45v5.64h-5.45v8.93c0,3,.7,4.33,3,4.33a12.41,12.41,0,0,0,2.25-.2l0,5.79a14.86,14.86,0,0,1-4.95.66,7.85,7.85,0,0,1-5.69-2.12c-1.4-1.46-2.1-3.83-2.1-7.31V138.62h-3.25V133h3.25v-5.34Z" style="fill:#fff226"/><path d="M531.26,141.09c0-3.62-.1-6-.2-8.11h6.54l.25,4.54h.2a7.2,7.2,0,0,1,6.6-5.1,7,7,0,0,1,1.59.11v7.2a10.78,10.78,0,0,0-2-.2c-2.8,0-4.7,1.51-5.2,3.88a9.15,9.15,0,0,0-.15,1.71v12.5h-7.59Z" style="fill:#fff226"/><path d="M569.62,126.12a3.84,3.84,0,0,1-4.1,3.84,3.86,3.86,0,1,1,.05-7.71A3.82,3.82,0,0,1,569.62,126.12Zm-7.85,31.5V133h7.6v24.64Z" style="fill:#fff226"/><path d="M595.49,125.92V133h5.44v5.64h-5.44v8.93c0,3,.69,4.33,3,4.33a12.41,12.41,0,0,0,2.25-.2l0,5.79a14.84,14.84,0,0,1-4.94.66,7.87,7.87,0,0,1-5.7-2.12c-1.4-1.46-2.1-3.83-2.1-7.31V138.62H584.8V133H588v-5.34Z" style="fill:#fff226"/><path d="M624.7,126.12a3.83,3.83,0,0,1-4.09,3.84,3.86,3.86,0,1,1,0-7.71A3.81,3.81,0,0,1,624.7,126.12Zm-7.84,31.5V133h7.6v24.64Z" style="fill:#fff226"/><path d="M666.21,145c0,9-6.34,13.15-12.89,13.15-7.14,0-12.63-4.74-12.63-12.7s5.19-13.06,13-13.06C661.21,132.42,666.21,137.61,666.21,145Zm-17.68.25c0,4.23,1.75,7.4,5,7.4,3,0,4.85-3,4.85-7.4,0-3.68-1.4-7.41-4.85-7.41C649.87,137.87,648.53,141.65,648.53,145.28Z" style="fill:#fff226"/><path d="M682.43,140.84c0-3.07-.09-5.69-.19-7.86h6.59l.35,3.37h.15a8.93,8.93,0,0,1,7.54-3.93c5,0,8.74,3.33,8.74,10.59v14.61H698V144c0-3.18-1.1-5.35-3.84-5.35a4.06,4.06,0,0,0-3.85,2.88,5.28,5.28,0,0,0-.3,1.91v14.21h-7.6Z" style="fill:#fff226"/><path d="M744.82,150.92a14.68,14.68,0,0,0,6.54,1.87c2.3,0,3.25-.81,3.25-2.07s-.75-1.87-3.6-2.82c-5-1.72-7-4.49-6.94-7.41,0-4.59,3.89-8.07,9.94-8.07a16.3,16.3,0,0,1,6.89,1.41l-1.35,5.3a11.81,11.81,0,0,0-5.29-1.41c-1.85,0-2.9.75-2.9,2s.95,1.77,3.95,2.82c4.64,1.62,6.59,4,6.64,7.61,0,4.59-3.59,8-10.59,8a17.15,17.15,0,0,1-7.89-1.72Z" style="fill:#fff226"/><path d="M786.57,125.92V133H792v5.64h-5.45v8.93c0,3,.7,4.33,3,4.33a12.41,12.41,0,0,0,2.25-.2l0,5.79a14.86,14.86,0,0,1-5,.66,7.83,7.83,0,0,1-5.69-2.12c-1.4-1.46-2.1-3.83-2.1-7.31V138.62h-3.25V133h3.25v-5.34Z" style="fill:#fff226"/><path d="M831.82,145c0,9-6.34,13.15-12.88,13.15-7.14,0-12.64-4.74-12.64-12.7s5.2-13.06,13-13.06C826.83,132.42,831.82,137.61,831.82,145Zm-17.68.25c0,4.23,1.75,7.4,5,7.4,2.94,0,4.84-3,4.84-7.4,0-3.68-1.39-7.41-4.84-7.41C815.49,137.87,814.14,141.65,814.14,145.28Z" style="fill:#fff226"/><path d="M848.05,141.09c0-3.62-.09-6-.19-8.11h6.54l.25,4.54h.2a7.21,7.21,0,0,1,8.19-5v7.2a10.89,10.89,0,0,0-2-.2c-2.8,0-4.69,1.51-5.19,3.88a9.15,9.15,0,0,0-.15,1.71v12.5h-7.6Z" style="fill:#fff226"/><path d="M884,147.75c.24,3.17,3.34,4.68,6.89,4.68a21.22,21.22,0,0,0,6.74-1l1,5.19a23.86,23.86,0,0,1-8.84,1.52c-8.29,0-13-4.84-13-12.55,0-6.25,3.85-13.16,12.34-13.16,7.89,0,10.89,6.2,10.89,12.3a18.5,18.5,0,0,1-.25,3Zm8.93-5.24c0-1.87-.79-5-4.29-5-3.2,0-4.5,2.92-4.7,5Z" style="fill:#fff226"/></g></g></g></g></svg>