<svg width="690.18px" height="131.95px" xmlns="http://www.w3.org/2000/svg" viewBox="0 0 690.18 131.95"><title>logo-4</title><g id="a3eae283-92c9-47fe-9c1f-07a8e47b3e80" data-name="Layer 2"><g id="bd8d0182-8a35-4b6d-90d9-0954ed8af968" data-name="Шар 1"><g id="e1e92f3c-f128-4fd8-b79e-0841662a915e" data-name="Content 2"><path d="M66.85,46.63c-.45-6.89-1.1-13.5-5.09-19.78C55.28,16.68,59.43,4.23,69.67,1,76.53-1.21,82.55.25,87.44,5.59,92.8,11.44,93,18,90,24.93c-8.83,20.51-4.42,39.82,6.82,57.76,5.52,8.8,14.65,13.44,25.6,14.4,13.72,1.21,20.85,14.12,14.78,25.94a16.31,16.31,0,0,1-23.92,6,21.87,21.87,0,0,1-8.45-10.19c-5.71-14.47-17.47-20.6-32.09-22.45a42.38,42.38,0,0,0-16.46.91c-8.55,2.31-14.36,7.68-19,15-6.85,10.87-21.65,13.32-30.63,5.57a20.52,20.52,0,0,1-5.4-22.21c2.85-7.36,9.36-11.55,18.05-11.57a20.4,20.4,0,0,1,4.5.28C50.92,90.62,67.82,65.56,66.85,46.63Z"/><path d="M570.74,99c1.83-8.8,3.64-17.6,5.51-26.4,3.35-15.81,6.91-31.59,10-47.46.79-4.09,3.26-3.21,5.81-3.41,3.58-.28,2.47,2.38,2.58,4q3,44.78,5.88,89.57c.11,1.84,1.74,4.77-2.67,4.77-3.58,0-5.25-.54-5.44-4.68-.79-17.18-2-34.33-3.07-51.49-.12-2,0-4-1.52-6.5-4.24,19.85-8.34,39.06-12.45,58.27-.58,2.67-.6,5.37-4.94,5.2-3.44-.13-4.51-1.37-5.15-4.38-4.34-20.3-8.83-40.57-13.89-60.86-.69,9.68-1.42,19.36-2.07,29.05-.71,10.55-1.66,21.11-1.89,31.68-.11,4.7-2.83,3.6-5.52,3.86-3.68.36-3-1.93-2.88-4q3.06-45.76,6.09-91.54c.12-1.89.31-3.35,2.71-2.9,2.11.39,4.78-1.38,5.64,2.77,3.68,17.77,7.81,35.44,11.74,53.16,1.57,7.08,3,14.19,4.53,21.29Z"/><path d="M285,37.11c-11.82-20.22-34.59-20.51-46.87-.51-9.19,15-11,31.23-7.89,48.15,2,11,6.19,20.91,14.71,28.54,11,9.82,25.26,8.92,35.08-2C290.41,99.8,293.66,85.94,294,74.51,294,58,291.37,47.92,285,37.11Zm-8.88,67.39c-8.31,10.8-21.27,10.6-29.42-.4-7.3-9.87-9.48-21.22-9.79-33.15.29-11.52,2.18-22.61,9.11-32.31C255.11,26,268,26,277.14,38.64,289.62,55.9,289.14,87.69,276.15,104.5Z"/><path d="M527.33,36.38c-11-16.41-28.74-17.8-42-3.17-17.82,19.63-17,61.44,1.72,80.08,4.28,4.28,9.28,7.42,15.65,8,9.84.91,17-3.7,22.83-10.86,8.94-11.06,11.85-24.1,11.91-42.07C537.54,59.49,534.71,47.32,527.33,36.38Zm-6.39,67.83c-8.69,12.76-22.8,12.87-31.46.09-6.62-9.82-9-20.79-8.77-32.45.14-13.15,2.57-25.6,12.19-35.53,8-8.2,18.22-7.7,25.6,1,9.4,11,11.63,24.19,11.18,38C529.34,85.6,526.91,95.44,520.94,104.21Z"/><path d="M211.14,79.66c-1-2.75-.51-3.65,2.07-4.7,4.95-2,8.71-5.34,10.52-10.61,1.67-4.89,1.13-9.84.77-14.71C223.22,31.71,212.73,21.69,196,21.55c-4-.05-4.58,1.3-4.53,4.78.17,14.88.06,29.76.06,44.62s.08,29.76-.06,44.64c0,3,.14,4.78,4.13,4.72,3.62-.06,4.73-1.1,4.22-4.47a26.09,26.09,0,0,1-.11-4c0-10.07,0-20.17,0-30.24,0-1.16-.2-2.6,1.19-2.94,1.69-.43,1.52,1.38,2,2.29a45,45,0,0,1,1.81,4.61c3.79,10.72,7.61,21.41,11.28,32.16,1.53,4.47,5.21,2.47,7.5,2.1,2.83-.46.54-2.83.08-4.22C219.49,103.62,215.47,91.6,211.14,79.66Zm-8.88-9.82c-2.71.51-2.15-1.33-2.15-2.66-.06-5.8,0-11.57,0-17.37,0-5.46.23-10.92-.08-16.38-.23-4.07,1.67-4.1,4.47-2.85,6.08,2.71,9.53,7.55,11,13.83.85,3.56.82,7.21,1.08,10.84C217.37,65.71,211.77,68.12,202.26,69.84Z"/><path d="M421.06,96.51V82.72q0-28.28,0-56.55c0-2.17-.82-4.59,3.19-4.52,3.81.07,2.84,2.43,2.84,4.35q0,44.88,0,89.78c0,1.59,1.43,4.23-2.1,4.48-2.94.2-4.71-.19-5.68-3.73-6.12-22.25-12.59-44.41-19-66.58a14.17,14.17,0,0,0-2.73-5.12q0,35.63,0,71.24c0,2,.84,4.41-2.92,4.16-2.31-.15-3.17-.58-3.16-3,.08-30.76,0-61.51.07-92.27,0-1.29-.72-3.28,1.85-3.12,2.12.14,4.33-.88,5.33,2.68,4.29,15.4,9,30.66,13.59,46q3.87,13,7.69,26Z"/><path d="M330.1,71c0-14.88.18-29.76-.11-44.64-.09-4.1,1.3-4.79,5-4.7,9,.23,18.08.18,27.12-.06,3.18-.09,3.52,1.25,3.38,3.78-.12,2.37.35,4.49-3.44,4.33-6.85-.3-13.73,0-20.59-.16-2.93-.09-3.59.9-3.55,3.63.15,10.57.23,21.16,0,31.73-.08,3.52,1.26,4.1,4.3,3.92,3.67-.22,7.38.12,11.05-.1S356,71,356.18,73c.15,2.16.12,3.86-3,3.66-3.83-.25-7.7.05-11.55-.1-2.4-.1-3.61.28-3.56,3.14.17,10.08.14,20.17,0,30.25,0,2.49.92,3,3.22,3,6.69-.12,13.4.14,20.09-.11,3.29-.13,4.11.85,4.19,4.07.08,3.57-1.4,4-4.42,3.95-8.87-.15-17.75-.3-26.61.06-4.05.16-4.58-1.29-4.54-4.77C330.21,101.06,330.1,86,330.1,71Z"/><path d="M185.49,43.25c-3.06-13.83-12.71-21.44-27-21.67-3.65-.08-4.81.68-4.75,4.53.28,14.85.11,29.73.11,44.58,0,15.22.11,30.41-.08,45.6-.06,3.48,1.21,4,4.27,4s4.1-.71,4-3.85c-.26-8.91-.23-17.85-.26-26.76,0-10.16,0-10.16,9.87-13.27,10.5-3.31,15.08-9,15.2-19.43A63.37,63.37,0,0,0,185.49,43.25ZM164.35,70c-2.74.56-2.09-1.25-2.09-2.55-.06-5.77,0-11.54,0-17.31s.14-11.55,0-17.32c-.09-3,1.13-3.31,3.56-2.4,8.43,3.14,11.32,10.07,12.53,18.08.31,1.95.17,4,.34,5.91C179.57,65.66,174.45,68,164.35,70Z"/><path d="M640.45,58.68q0-16.36,0-32.72c0-2.21-.31-4.08,3.17-4.1s3.2,1.78,3.19,4c0,19.5.21,39-.17,58.49-.2,10-1,20.17-6.43,29.16-4,6.61-9.9,9-16,6.41-3.72-1.57-6-4.62-7.65-8.15-3.85-8.29-4.74-17.22-4.89-26.1-.34-20-.15-40-.17-60,0-1.95-.48-3.81,2.83-3.86s3.36,1.45,3.36,3.89q-.11,28,0,56c0,7.78,1,15.47,4,22.77,1.33,3.26,3.4,5.74,7.34,5.74s6.09-2.31,7.56-5.52c3.11-6.77,3.59-14,3.76-21.29.19-8.26,0-16.52,0-24.78Z"/><path d="M689.45,116.18c-2.12-13.38-4.41-26.71-6.62-40.06q-4.11-25.15-8.2-50.35c-.37-2.38-.85-4.78-4.3-3.68-3.2-.82-4,.74-4.47,3.57-1,7.18-2.43,14.31-3.65,21.47q-5.78,34.66-11.43,69.33c-.22,1.39-1.64,3.91,1.84,3.79,2.07-.08,4.25.68,4.56-2.8.51-5.4,1.69-10.75,2.46-16.15,1.81-13.07,1.75-13.07,15.16-12.62h.48c2.66-.34,3.37,1,3.71,3.4,1.16,8.31,2.85,16.6,3.76,25,.45,4.07,3,3.25,5.29,3.17C691.63,120.06,689.65,117.51,689.45,116.18ZM672.93,81c-10.77-.08-10.58.11-8.68-10.44C666.09,60.34,667.47,50,669,39.8c.57,0,1.1,0,1.67,0,1.89,12.19,3.65,24.41,5.74,36.58C677,79.69,676.92,81,672.93,81Z"/><path d="M434.79,70.73c.12-14.46,2.68-28.18,12.66-39.57,7.84-8.94,19-12,28.78-7.76,1.43.62,4.4,1.12,3,3.3-1.16,1.86-2.32,4.92-5.95,4.09-11-2.51-17-.16-23,9.66-9.48,15.51-12.12,44.79,1,62.58a29.31,29.31,0,0,0,7.45,7.24c4.75,3.14,9.8,3.64,14.63.82,5-2.91,5.27,2,6.67,3.87,1.8,2.46-1.59,2.56-2.81,3.17-9.34,4.63-21.51,1.68-29.06-6.6-9.2-10.08-12.53-22.25-13.39-35.36C434.68,74.36,434.79,72.54,434.79,70.73Z"/><path d="M304,74.89c0-13.39-.14-26.79.09-40.18.06-3.67-.79-5.28-4.65-4.61-1,.16-2-.09-3,0-3.22.44-4.73-.31-4.67-4.09,0-3.49.93-4.43,4.45-4.32,8.2.28,16.43.32,24.62,0,3.73-.15,3.46,1.71,3.5,4.17s0,4.21-3.56,4.15c-7.79-.13-7.8.12-7.8,7.68,0,26-.07,51.93.09,77.9,0,3.59-.7,4.7-4.56,4.69s-4.65-1.12-4.59-4.73C304.17,102,304,88.46,304,74.89Z"/><path d="M380.32,70.89c0,15.18-.12,30.37.08,45.55.05,3.39-1.09,4-4.22,4-3.47.11-4-1.16-4-4.2q.17-45.32,0-90.62c0-3.37,1.06-4,4.18-4,3.41-.08,4.08,1.06,4.05,4.18C380.23,40.85,380.32,55.87,380.32,70.89Z"/><path d="M100.54,62.3c7.4.29,11.75,4.66,14.72,10.83,2.88,6,.82,11.16-2.58,16.17-1.17,1.71-2.38,1.86-4.1.68-8.11-5.55-13.33-13.19-16.67-22.23-.73-2,.1-3.08,1.82-3.91A15.33,15.33,0,0,1,100.54,62.3Z"/><path d="M435.88,111.09c2.65.5,4.71,1.42,4.77,4.34.06,2.75-1.35,4.36-4.16,4.57s-4.42-1.68-4.67-4.14C431.56,113.16,433.59,111.83,435.88,111.09Z"/><path d="M611.37,116.16a4.12,4.12,0,0,1-4.54,4c-2.85,0-4.32-1.66-4.37-4.33,0-2.85,2-4.32,4.49-4.26A4.21,4.21,0,0,1,611.37,116.16Z"/><path d="M670.7,39.77c-.57,0-1.1,0-1.67,0C669.6,39.09,670.13,39.12,670.7,39.77Z"/><path d="M670.7,34.51v5.26c-.57,0-1.1,0-1.67,0C668.6,38.22,669.23,36.94,670.7,34.51Z"/></g></g></g></svg>