<svg xmlns="http://www.w3.org/2000/svg" width="102" height="99.45" viewBox="0 0 102 99.45"><title>ai</title><g id="b5fc68df-0c9d-47c1-8386-18ea7b9ea1b4" data-name="Layer 2"><g id="a2956263-f3b5-4497-8ff6-9b894c524e08" data-name="Services"><g id="bafce53d-f5b0-4942-949d-1a086529e72e" data-name="Content1"><g id="eb525d5e-b83c-4d31-a2bf-9d18e81a9f1c" data-name="Ai logo normal"><g id="a3ff8c9d-e3d2-4e90-9ba2-c7ab32f4eec7" data-name="Ai logo on hover"><path d="M4.25,4.25h93.5v91H4.25Z" fill="#373537"/><path d="M0,0V99.45H102V0ZM4.25,4.25h93.5v91H4.25Z" fill="#9b9a9b"/><path d="M35.62,56.52,32.37,68.86c-.08.33-.2.41-.61.41H25.19c-.42,0-.51-.12-.42-.63L36.82,26.47A14.12,14.12,0,0,0,37.24,23c0-.3.13-.43.34-.43h8.91c.29,0,.42.09.51.43L60.49,68.72c.08.34,0,.55-.34.55H52.77c-.32,0-.53-.08-.61-.37L48.74,56.52Zm11.6-7.22c-1.19-4.72-4-15-5.06-20h-.08c-.9,5-3.15,13.38-4.93,20ZM66.34,25.8a4.34,4.34,0,1,1,8.67,0,4.06,4.06,0,0,1-4.42,4.33,4,4,0,0,1-4.25-4.33Zm.51,9.47c0-.17.51-.42.51-.42h6.51c.34,0,.51.13.51.51V68.77c0,.34-.09.5-.51.5H67.28c-.43,0-.55-.21-.55-.55V35.27Z" fill="#9b9a9b"/></g></g></g></g></g></svg>