<svg xmlns="http://www.w3.org/2000/svg" width="94.03" height="101" viewBox="0 0 94.03 101"><title>angular</title><g id="a1d035b1-a8ef-4b25-9934-b48236598ff0" data-name="Layer 2"><g id="e1a8a303-cf1a-41a9-ab7b-3cf4ac1d3091" data-name="Services"><g id="b9acae00-c6a6-47e7-b371-98f6ee445d54" data-name="Content 3"><g id="b1fd6c12-f27d-46c7-be91-2704afcb5874" data-name="Angular"><polygon points="94.03 16.77 86.86 78.93 86.83 78.95 47.02 101 46.99 100.99 46.97 100.97 7.17 78.93 0 16.77 33 5 46.97 0.02 46.99 0.01 47.02 0 61.04 5 86.83 14.2 94.03 16.77" fill="#666"/><polygon points="46.97 0 46.97 11.21 46.97 11.16 46.97 62.32 46.97 62.32 46.97 101 46.97 101 86.81 78.93 93.98 16.77 46.97 0" fill="#373537"/><path d="M47,11.81l-.05.11L17.83,77.26H28.71l5.87-14.64H59.36l5.86,14.64H76.11ZM38.43,53,47,32.49l.05-.12L55.6,53Z" fill="#9b9a9b"/></g></g></g></g></svg>