<svg xmlns="http://www.w3.org/2000/svg" width="97.55" height="97.55" viewBox="0 0 97.55 97.55"><title>balsamiq</title><g id="aa9ace28-cbb9-43cf-a8dd-a27a738def28" data-name="Layer 2"><g id="b1988551-1920-4171-ae4c-98ad6d27385d" data-name="Services"><g id="b1330725-511b-4c9f-abd2-3a1d1839ac46" data-name="Content 2"><g id="f95ee336-4a84-42e2-9196-0691b3e923ab" data-name="Balsamiq"><g id="b44672a0-852e-49fa-910f-8c2bfbb027a2" data-name="Balsamiq logo"><path d="M48.77,97.54H.37c-.3,0-.37-.07-.37-.38Q0,48.78,0,.37C0,.07.07,0,.37,0h96.8c.31,0,.38.07.38.37q0,48.41,0,96.8c0,.31-.07.38-.38.38Zm2-87.45-.27,0q-4.48.21-8.95.6C38,11,34.44,11.41,30.93,12a18.81,18.81,0,0,0-5.69,1.81A21.93,21.93,0,0,0,19,19.1a40.9,40.9,0,0,0-6.81,12A64.93,64.93,0,0,0,8,52.13,53.3,53.3,0,0,0,9.36,66.59a33.06,33.06,0,0,0,3.93,9.77A27.33,27.33,0,0,0,25,86.57a40.66,40.66,0,0,0,15.24,3.81A52.09,52.09,0,0,0,50.48,90a53.68,53.68,0,0,0,12-3,44.84,44.84,0,0,0,18-12A33,33,0,0,0,86.66,65a44.18,44.18,0,0,0,2.85-12.36,39.45,39.45,0,0,0-1.13-13.56A38.86,38.86,0,0,0,76.71,20c-1.78-1.63-3.79-3-5.7-4.43a36.48,36.48,0,0,0-7.34-4.11,90.79,90.79,0,0,1-8.62-4.12,1.7,1.7,0,0,0-.86-.2,8,8,0,0,0-3.82,1.08,2.7,2.7,0,0,0-.81.61c-.21.25-.2.46.11.63Z" fill="#9b9a9b"/><path d="M50.74,10.09l-1.07-.61c-.31-.17-.32-.38-.11-.63a2.7,2.7,0,0,1,.81-.61,8,8,0,0,1,3.82-1.08,1.7,1.7,0,0,1,.86.2,90.79,90.79,0,0,0,8.62,4.12A36.48,36.48,0,0,1,71,15.59c1.91,1.47,3.92,2.8,5.7,4.43A38.86,38.86,0,0,1,88.38,39.09a39.45,39.45,0,0,1,1.13,13.56A44.18,44.18,0,0,1,86.66,65,33,33,0,0,1,80.49,75a44.84,44.84,0,0,1-18,12,53.68,53.68,0,0,1-12,3,52.09,52.09,0,0,1-10.29.39A40.66,40.66,0,0,1,25,86.57,27.33,27.33,0,0,1,13.29,76.36a33.06,33.06,0,0,1-3.93-9.77A53.3,53.3,0,0,1,8,52.13a64.93,64.93,0,0,1,4.15-21A40.9,40.9,0,0,1,19,19.1a21.93,21.93,0,0,1,6.29-5.25A18.81,18.81,0,0,1,30.93,12c3.51-.63,7-1,10.59-1.32q4.47-.39,8.95-.6ZM47,84.77a50.59,50.59,0,0,0,9.37-1,29.85,29.85,0,0,0,15.12-8,38.91,38.91,0,0,0,8.67-12.58A39.73,39.73,0,0,0,83.59,48a32.73,32.73,0,0,0-.92-8.65A28.89,28.89,0,0,0,73.9,24.54a30.42,30.42,0,0,0-5.12-3.45c-1.21-.72-2.47-1.34-3.73-1.95a.5.5,0,0,0-.49,0,11.5,11.5,0,0,1-2.06.74,3.32,3.32,0,0,1-2.5-.26c-2.08-1.1-4.15-2.21-6.31-3.15a18.4,18.4,0,0,0-6.21-1.58,31.34,31.34,0,0,0-6.56.43A52.84,52.84,0,0,0,30,18.3a18.34,18.34,0,0,0-6.77,4.27,28,28,0,0,0-5.45,8.2,53.17,53.17,0,0,0-4.38,19.92,53.55,53.55,0,0,0,.38,9A40.32,40.32,0,0,0,16,68.76a19.55,19.55,0,0,0,5.87,8.52,30,30,0,0,0,9.69,5.14A48.46,48.46,0,0,0,47,84.77Z" fill="#cccbcc"/><path d="M47,84.77a48.46,48.46,0,0,1-15.43-2.35,30,30,0,0,1-9.69-5.14A19.55,19.55,0,0,1,16,68.76a40.32,40.32,0,0,1-2.2-9.12,53.55,53.55,0,0,1-.38-9,53.17,53.17,0,0,1,4.38-19.92,28,28,0,0,1,5.45-8.2A18.34,18.34,0,0,1,30,18.3a52.84,52.84,0,0,1,10.88-3,31.34,31.34,0,0,1,6.56-.43,18.4,18.4,0,0,1,6.21,1.58c2.16.94,4.23,2.05,6.31,3.15a3.32,3.32,0,0,0,2.5.26,11.5,11.5,0,0,0,2.06-.74.5.5,0,0,1,.49,0c1.26.61,2.52,1.23,3.73,1.95a30.42,30.42,0,0,1,5.12,3.45,28.89,28.89,0,0,1,8.77,14.77A32.73,32.73,0,0,1,83.59,48a39.73,39.73,0,0,1-3.42,15.25A38.91,38.91,0,0,1,71.5,75.79a29.85,29.85,0,0,1-15.12,8A50.59,50.59,0,0,1,47,84.77Zm1.73-15.3c.92,0,1.84,0,2.76-.12a26.46,26.46,0,0,0,8.7-2.14,16,16,0,0,0,8.46-8,11.88,11.88,0,0,0,1.17-4.57c0-.54-.18-.72-.71-.75a.93.93,0,0,0-.91.5,6.3,6.3,0,0,1-.48.84,20.46,20.46,0,0,1-3.06,3.18A24.09,24.09,0,0,1,49.46,64a29.6,29.6,0,0,1-8.83-1.05A25,25,0,0,1,30.1,57.48a10.54,10.54,0,0,1-3.28-5,4,4,0,0,0-.34-.83.86.86,0,0,0-1.26-.41,1,1,0,0,0-.54,1,13.49,13.49,0,0,0,.8,4.62,15.72,15.72,0,0,0,5.87,7.42,27.7,27.7,0,0,0,11.38,4.59A33.58,33.58,0,0,0,48.74,69.47Zm9.07-28.08a5.34,5.34,0,0,0,.81,2.81,2.8,2.8,0,0,0,2.2,1.41A4.19,4.19,0,0,0,65,42.43a3.12,3.12,0,0,0,0-2.31,3.75,3.75,0,0,0-4.65-2c-1.21.39-2.24,1-2.46,2.39C57.87,40.77,57.85,41.08,57.81,41.39ZM30.62,41.1a4.82,4.82,0,0,0,.16,1.2C31.3,44.14,32.87,45.1,35,45a2.72,2.72,0,0,0,2.66-2A4.42,4.42,0,0,0,37,38.8a3.59,3.59,0,0,0-3.87-1.32,3,3,0,0,0-2.33,2.42A4.81,4.81,0,0,0,30.62,41.1Z" fill="#9b9a9b"/><path d="M48.74,69.47a33.58,33.58,0,0,1-6-.54,27.7,27.7,0,0,1-11.38-4.59,15.72,15.72,0,0,1-5.87-7.42,13.49,13.49,0,0,1-.8-4.62,1,1,0,0,1,.54-1,.86.86,0,0,1,1.26.41,4,4,0,0,1,.34.83,10.54,10.54,0,0,0,3.28,5A25,25,0,0,0,40.63,62.9,29.6,29.6,0,0,0,49.46,64,24.09,24.09,0,0,0,64.67,58.4a20.46,20.46,0,0,0,3.06-3.18,6.3,6.3,0,0,0,.48-.84.93.93,0,0,1,.91-.5c.53,0,.73.21.71.75a11.88,11.88,0,0,1-1.17,4.57,16,16,0,0,1-8.46,8,26.46,26.46,0,0,1-8.7,2.14C50.58,69.43,49.66,69.45,48.74,69.47Z" fill="#cccbcc"/><path d="M57.81,41.39c0-.31.06-.62.1-.92.22-1.42,1.25-2,2.46-2.39a3.75,3.75,0,0,1,4.65,2,3.12,3.12,0,0,1,0,2.31,4.19,4.19,0,0,1-4.2,3.18,2.8,2.8,0,0,1-2.2-1.41A5.34,5.34,0,0,1,57.81,41.39Z" fill="#cccbcc"/><path d="M30.62,41.1a4.81,4.81,0,0,1,.15-1.2,3,3,0,0,1,2.33-2.42A3.59,3.59,0,0,1,37,38.8,4.42,4.42,0,0,1,37.68,43,2.72,2.72,0,0,1,35,45c-2.15.09-3.72-.87-4.24-2.71A4.82,4.82,0,0,1,30.62,41.1Z" fill="#cccbcc"/></g></g></g></g></g></svg>