<svg xmlns="http://www.w3.org/2000/svg" width="88.31" height="124.5" viewBox="0 0 88.31 124.5"><title>css</title><g id="fbf295a9-53be-4ec9-a3ba-30950f1c4ecc" data-name="Layer 2"><g id="e9eaa104-1162-45f7-a310-d259649a2e6a" data-name="Services"><g id="aeec9b81-23d0-4cbd-9705-b0db7e084389" data-name="Content 3"><g id="b4b36bb4-2117-4daa-8e67-6f85d9f3fb77" data-name="Css 3"><g id="a5ba7c18-58fd-4f6e-a067-5f11bd4139f1" data-name="layer1"><g id="bb77e484-eb07-4f18-be43-cc6c3f3cc357" data-name="g3013"><polygon id="b4f69737-b60e-4cad-8eff-6e58cdeb59c1" data-name="polygon2989" points="88.31 24.35 80.27 114.47 44.1 124.5 8.04 114.49 0 24.35 88.31 24.35" fill="gray"/><polygon id="b7c67d43-762a-4115-b63f-fa4f4a793be0" data-name="polygon2991" points="73.34 108.97 80.22 31.95 44.12 31.95 44.12 117.07 73.34 108.97" fill="#9b9a9b"/><polygon id="ae8d9922-a84d-45b3-a4d1-df8ec93d4467" data-name="polygon2993" points="18.62 65.43 19.61 76.38 44.12 76.38 44.12 65.43 18.62 65.43" fill="#ebebeb"/><polygon id="a22c99b1-0ee9-4536-9cbb-fd2a138958c9" data-name="polygon2995" points="44.12 42.91 44.08 42.91 16.65 42.91 17.65 53.87 44.12 53.87 44.12 42.91" fill="#ebebeb"/><polygon id="fd8a3b38-93dd-44f8-a3b5-9e689fb8aeab" data-name="polygon2997" points="44.12 105.49 44.12 93.99 44.07 94 31.76 90.68 30.97 81.86 24.99 81.86 19.88 81.86 21.42 99.22 44.07 105.51 44.12 105.49" fill="#ebebeb"/><path id="b6f24707-ee76-4527-9ab3-c42889b2f725" data-name="path2999" d="M20.69,0H34.38V5.78H26.47v5.48h7.91v5.48H20.69Z" fill="#373537"/><path id="f8a9e3f0-54f3-4c44-9461-fd276d81d9f4" data-name="path3001" d="M36.82,0H50.21V4.87H42.3v.91h7.91V17H36.82V11.87h7.91V11H36.82Z" fill="#373537"/><path id="a242b9bc-ed6b-43f1-9e45-c9aea8264729" data-name="path3003" d="M53,0H66.34V4.87H58.42v.91h7.92V17H53V11.87h7.91V11H53Z" fill="#373537"/><polygon id="becf5232-9243-4a0e-a0e5-0956de613c76" data-name="polygon3005" points="57.75 76.38 56.47 90.74 44.12 94.07 44.12 105.59 66.81 99.3 66.98 97.43 69.58 68.29 69.85 65.31 71.85 42.91 44.12 42.91 44.12 53.87 59.62 53.87 58.62 65.13 44.12 65.13 44.12 76.38 57.75 76.38" fill="#fff"/></g></g></g></g></g></g></svg>