<svg xmlns="http://www.w3.org/2000/svg" width="69.88" height="104.86" viewBox="0 0 69.88 104.86"><title>figma</title><g id="f6c24a6a-b195-4b02-b097-5908f0d25f28" data-name="Layer 2"><g id="f04f59d2-bd0f-4fc5-affc-da2b3a8129b1" data-name="Services"><g id="b1a4777e-9089-4529-a8d2-1f15b38367b1" data-name="Content 2"><g id="be6a89b5-5ae3-4f7d-8cd2-6c3e3003365f" data-name="Figma"><g id="e9d94d83-d8b8-4343-b37e-7a2be8bf36a0" data-name="Figma logo"><path d="M35,54.4q0,7.2,0,14.39c0,.38,0,.76,0,1.13a1.6,1.6,0,0,1-1.16.27H17a1.58,1.58,0,0,1-1.16-.27,32.84,32.84,0,0,1-4.78-1.22,17.46,17.46,0,0,1,4.29-33.58,2.54,2.54,0,0,0,.49-.16,1.4,1.4,0,0,1,1.07-.26q8.5,0,17,0a2.27,2.27,0,0,1,.86.12.64.64,0,0,1,.26.23,3.44,3.44,0,0,1,.15,1.46c0,4.66,0,9.33,0,14,0,1,0,2,0,2.93A1.3,1.3,0,0,1,35,54.4Z" fill="#666"/><path d="M34.93,34.94,17.17,35H15.86a23,23,0,0,1-5.6-1.55A17.47,17.47,0,0,1,15.59.15a19,19,0,0,1,2-.1L35,.07a1.49,1.49,0,0,1,.29,1.15q0,16.29,0,32.58C35.23,34.2,35.28,34.63,34.93,34.94Z" fill="gray"/><path d="M66,28.5a17.76,17.76,0,0,1-10.66,6.24,3.45,3.45,0,0,0-1.27.24c-.5.4-1.09.24-1.65.25s-1.2,0-1.8,0h-2.2q-6,0-12,0a2.47,2.47,0,0,1-1.29-.16L35,35l0-.07v0c0-.77,0-1.54,0-2.31q0-14.5,0-29V.07c6.16,0,12.33-.17,18.49,0A17.45,17.45,0,0,1,66,28.5Z" fill="#9b9a9b"/><path d="M15.87,69.92H34.92c0,6.2,0,12.4,0,18.59a13,13,0,0,1-.42,2.84,17.46,17.46,0,1,1-19.3-21.28C15.42,70,15.64,70,15.87,69.92Z" fill="gray"/><path d="M69.82,53.74A17.87,17.87,0,0,1,66,63.45a17,17,0,0,1-10.31,6.13A17.43,17.43,0,0,1,35.11,54.81,3.17,3.17,0,0,0,35,54.4V50.48a11.64,11.64,0,0,1,.23-2.11A17.61,17.61,0,0,1,48.41,35.24,12.42,12.42,0,0,1,50.69,35l3.37,0a26.4,26.4,0,0,1,4.71,1.18A17.68,17.68,0,0,1,66,41.43,17.14,17.14,0,0,1,69.82,53.74Z" fill="#b3b3b3"/></g></g></g></g></g></svg>