<svg xmlns="http://www.w3.org/2000/svg" width="87.63" height="123.77" viewBox="0 0 87.63 123.77"><title>html</title><g id="aa111f82-b7d8-4990-8ecc-7d836f992124" data-name="Layer 2"><g id="a05120ea-52e0-4954-9d78-7083651e523e" data-name="Services"><g id="b5b6d210-dac6-4c26-a457-6aafb81be1c4" data-name="Content 3"><g id="b5836351-6372-43a5-a3c9-2edc7c74a945" data-name="HTML 5"><g id="f6b76b72-b4a8-4124-928c-dd07244b8b85" data-name="HTML 5"><path d="M8.21,0h5.56V5.56h5.07V0H24.4V16.67H18.84V11.11H13.77v5.56H8.21M31.64,5.56H26.81V0H42.27V5.56H37.44V16.67h-5.8M44.68,0h5.87l3.58,5.87L57.7,0h5.83V16.67H58V8.41l-3.87,6-3.86-6v8.26H44.68M66.18,0h5.56V11.11h8v5.56H66.18" fill="#373537"/><path d="M8,113.86,0,24.4H87.63l-8,89.41-35.92,10" fill="gray"/><path d="M43.72,116.18V31.64H79.54L72.7,108" fill="#9b9a9b"/><path d="M16.18,42.51H43.72V53.38H28.05l1,11.35H43.72V75.6H19.32m.24,5.56H30.68l.77,8.77,12.27,3.28v11.45L21.21,98.38" fill="#d8d6d8"/><path d="M71,42.75H43.72V53.62H70.05m-1,11.11H43.72V75.6H57.13L55.86,89.73,43.72,93v11.3L66,98.11" fill="#fff"/></g></g></g></g></g></svg>