<svg xmlns="http://www.w3.org/2000/svg" width="101.54" height="99" viewBox="0 0 101.54 99"><title>id</title><g id="a000bcc3-6186-4fdc-b1f7-9cdd64d052a8" data-name="Layer 2"><g id="e9059f45-c8d9-4af7-a6ef-16007faba9a5" data-name="Services"><g id="eb5d450a-26f0-4825-90d9-aa83ce205328" data-name="Content1"><g id="b33b2252-168e-42e9-9439-2a8af35690b7" data-name="Id logo normal"><g id="b2285897-4fad-4f53-8e63-ba614ace6a57" data-name="Id logo on hover"><path d="M4.23,4.23H97.31V94.77H4.23Z" fill="#373537"/><path d="M0,0V99H101.54V0ZM4.23,4.23H97.31V94.77H4.23Zm33,64.6c0,.41-.07.55-.56.55h-6.5c-.41,0-.55-.2-.55-.55V23.4c0-.41.2-.55.55-.55h6.57a.48.48,0,0,1,.49.48ZM45,52.44c0-10.12,6.59-18,17.12-18,.9,0,1.38,0,2.21.07V23.27a.4.4,0,0,1,.41-.42h6.79c.34,0,.41.14.41.35V62.77A31.85,31.85,0,0,0,72.13,67c0,.28-.09.35-.36.49A25,25,0,0,1,60.82,70C51.59,70,45,64.24,45,52.44ZM64.31,41.13a6.29,6.29,0,0,0-2.52-.42c-5.44,0-9.26,4.19-9.26,11.17,0,8,3.89,11.17,8.78,11.17a8.22,8.22,0,0,0,3-.49V41.13Z" fill="#9b9a9b"/></g></g></g></g></g></svg>