<svg xmlns="http://www.w3.org/2000/svg" width="99" height="99" viewBox="0 0 99 99"><title>js</title><g id="aa66beee-647b-4d28-a086-49dfd0a329e6" data-name="Layer 2"><g id="a665e983-11a7-4ee3-b789-f515c384d45f" data-name="Services"><g id="fd3a296f-40fd-4af9-aa67-4de0332d8d10" data-name="Content 3"><g id="ac0f3933-0b04-4baa-8fb4-b56a1258ae65" data-name="Java Script"><rect width="99" height="99" fill="#9b9a9b"/><path d="M66.52,77.34c2,3.26,4.59,5.65,9.18,5.65C79.55,83,82,81.07,82,78.4c0-3.19-2.53-4.31-6.78-6.17l-2.32-1c-6.72-2.86-11.17-6.44-11.17-14,0-7,5.31-12.28,13.62-12.28,5.91,0,10.17,2,13.23,7.44L81.36,57c-1.6-2.86-3.32-4-6-4s-4.45,1.73-4.45,4c0,2.79,1.73,3.92,5.72,5.64l2.32,1c7.91,3.39,12.37,6.85,12.37,14.62,0,8.37-6.58,13-15.42,13-8.63,0-14.22-4.12-16.95-9.51Zm-32.83.77c1.46,2.59,2.79,4.78,6,4.78s5-1.19,5-5.84V45.41H53.9V77.17c0,9.64-5.63,14-13.84,14-7.43,0-11.73-3.85-13.91-8.5Z" fill="#373537"/></g></g></g></g></svg>