<svg xmlns="http://www.w3.org/2000/svg" width="99" height="99" viewBox="0 0 99 99"><title>laravel</title><g id="e5e0e280-9b78-4e6c-b21c-67d699c69334" data-name="Layer 2"><g id="f0c62e25-ffa1-4885-bec5-fbf44d3ca88c" data-name="Services"><g id="a4738eb9-0579-4ce1-a34e-4be396fc35f6" data-name="Content 3"><g id="fe311a63-4359-4dd4-a6ee-28ad8b53c8b4" data-name="Laravel"><path d="M62,80.44c.78,1.11,1.25,1,1.85.77s31.54-10.7,32.49-11,.64-.65.34-1.12S86.1,54.57,85.58,53.75s-.77-.64-1.59-.38L51.2,61.9S61.26,79.32,62,80.44ZM99,66.17V49.78L88.8,52.49C91.58,56.21,95.93,62,99,66.17ZM88.77,32.3c-.51.11-11.7,2.14-12.39,2.23s-.46.48-.18.87l9.85,13.51s12-3,12.78-3.14l.17-.05V43.94c-2.19-2.78-8.15-10.34-8.67-11s-1-.72-1.56-.6Z" fill="#373537"/><path d="M18.35,11.09c2.43-.11,2.65.44,3.71,2L48.81,57.89l33.64-8.07C80.58,47.18,72.12,35.17,71.3,34s0-1.89,1.52-2.14,14.36-2.41,15.47-2.58,2-.55,3.77,1.62c.91,1.1,4,5,6.94,8.61V18.59A17.94,17.94,0,0,0,93.55,5.45,17.88,17.88,0,0,0,80.44,0H18.56A17.88,17.88,0,0,0,5.45,5.45a18.28,18.28,0,0,0-4.46,7c6.07-.5,15.67-1.27,17.36-1.35Z" fill="#373537"/><path d="M65.08,86.46c-2.84.86-4.11,1.28-5.95-1.3-1.39-1.93-8.87-15.4-12.54-22-6.94,1.82-19.65,5.14-23.32,6s-5.1-1.29-5.69-2.61C17.17,65.59,6.69,43,0,28.48v52A17.88,17.88,0,0,0,5.45,93.55,17.88,17.88,0,0,0,18.56,99H80.44A18.61,18.61,0,0,0,99,80.44V74.33C91.4,77.11,67,85.88,65.08,86.46Z" fill="#373537"/><path d="M23.35,63.92c1-.23,19.84-4.74,20.25-4.82s.66-.32.23-1.07S18.71,14.69,18.71,14.69c-.22-.4-.16-.53-.78-.49S3.42,15.47.18,15.74C.09,16.43,0,17.11,0,17.8c3.29,6.72,22.12,45.57,22.23,45.89s.12.46,1.12.23Z" fill="#373537"/></g></g></g></g></svg>