<svg xmlns="http://www.w3.org/2000/svg" width="87.21" height="105.5" viewBox="0 0 87.21 105.5"><title>mongo</title><g id="b8e44b8a-2a23-4797-9ca6-33a8daf5516b" data-name="Layer 2"><g id="b24b09a9-a6eb-4b23-8927-fa2920e92a76" data-name="Services"><g id="b37c0723-536b-4cd6-8ec3-18bc7c40e0c0" data-name="Content 3"><g id="b99f78f4-94cd-41c4-a84f-83799e456d0b" data-name="MongoDB"><path d="M43,81.7c-11.4-.26-27-21.62-31.45-33.06C8,39.52,3,16.59,9.73,9.5c11.51-12,56.59-13.28,66.65,0C82.81,18,79.28,42.85,73.88,52S53.67,81.94,43,81.7Z" fill="#9b9a9b"/><path d="M43,76.14c-9.85-.22-23.31-18.68-27.17-28.56-3.08-7.88-7.39-27.69-1.54-33.81,9.94-10.41,48.89-11.48,57.59,0,5.55,7.33,2.5,28.81-2.17,36.74S52.24,76.36,43,76.14Z" fill="#373537"/><path d="M56,35C52.85,21.16,46.3,17.46,44.63,14.85a30,30,0,0,1-1.83-3.57,3.63,3.63,0,0,1-1.3,2.94c-2.1,1.87-11,9.15-11.78,24.91C29,53.82,40.52,62.87,42,63.81a3.37,3.37,0,0,0,3.28-.51C50.86,59.49,58.44,49.35,56,35" fill="#9b9a9b"/><path d="M43.27,55.94c-.29,3.64-.49,5.75-1.23,7.83,0,0,.49,3.46.82,7.12h1.2a68.64,68.64,0,0,1,1.31-7.67C43.82,62.45,43.33,59.13,43.27,55.94Z" fill="#f2f2f2"/><path d="M45.37,63.27h0c-1.57-.73-2-4.12-2.09-7.28a151.91,151.91,0,0,0,.34-15.68c-.09-2.74,0-25.4-.68-28.72a27.21,27.21,0,0,0,1.69,3.26C46.3,17.46,52.85,21.16,56,35,58.44,49.32,50.91,59.44,45.37,63.27Z" fill="gray"/><path d="M65.89,98.82a3.81,3.81,0,0,0,2.12.5,4.12,4.12,0,0,0,3-1.07,5.7,5.7,0,0,0,1.68-4.5,5.36,5.36,0,0,0-2.46-4.85,6.6,6.6,0,0,0-3.53-.82,2.83,2.83,0,0,0-1,.13.56.56,0,0,0-.19.3c0,.38,0,3.25,0,4.95s0,4.18,0,4.48a1.28,1.28,0,0,0,.43.88M61.65,87.15c.36,0,1.73.06,2.37.06,1.19,0,2-.06,4.24-.06a6.85,6.85,0,0,1,4.57,1.47,6.11,6.11,0,0,1,2.09,4.81,6.26,6.26,0,0,1-2.59,5.4A8.65,8.65,0,0,1,67,100.34c-1.28,0-3.46,0-5.29-.06h0c-.08-.17.16-.83.31-.84a3,3,0,0,0,.85-.17c.39-.16.48-.36.52-1,.07-1.31,0-2.86,0-4.62,0-1.26,0-3.72,0-4.5s-.33-.82-.89-.94A9.51,9.51,0,0,0,61.25,88c0-.13.28-.7.39-.82" fill="#9b9a9b"/><path d="M80.18,88.2a.5.5,0,0,0-.19.34c0,.76,0,2.73,0,4.1a.13.13,0,0,0,.11.1c.27,0,1,0,1.52,0a3.56,3.56,0,0,0,1.53-.23,2,2,0,0,0,1-1.87c0-1.82-1.28-2.52-3.17-2.52a6.45,6.45,0,0,0-.76,0M85,96.61c0-1.85-1.36-2.9-3.85-2.9a10.11,10.11,0,0,0-1.08,0c-.06,0-.13.06-.13.1,0,1.33,0,3.45,0,4.29a1.45,1.45,0,0,0,.61,1,4.48,4.48,0,0,0,1.64.23A2.55,2.55,0,0,0,85,96.61m-8.66-9.42c.2,0,.76.06,2.21.06s2.46,0,3.77,0c1.64,0,3.89.59,3.89,3a3,3,0,0,1-1.95,2.63c-.07,0-.07.06,0,.08,1.57.4,2.95,1.37,2.95,3.22s-1.13,2.94-2.76,3.65a8.81,8.81,0,0,1-3.48.59c-1,0-3.52-.1-4.94-.09-.15-.06.13-.73.26-.84a3.85,3.85,0,0,0,1-.15c.51-.12.57-.29.64-1s0-3,0-4.64c0-2.27,0-3.8,0-4.56,0-.59-.23-.78-.64-.88S76.44,88.07,76,88c-.11-.11.22-.74.33-.82" fill="#9b9a9b"/><path d="M.2,100.32a.91.91,0,0,1-.07-.43.58.58,0,0,1,.07-.28A5.55,5.55,0,0,0,1,99.44c.38-.09.52-.29.54-.77.06-1.14.07-3.26.05-4.75v-.06a.61.61,0,0,0-.2-.54,4.58,4.58,0,0,0-1.13-.5c-.18,0-.27-.14-.27-.25s.12-.24.35-.28a14,14,0,0,0,2.86-.74.34.34,0,0,1,.08.29c0,.07,0,.14,0,.21s0,.45,0,.69a.15.15,0,0,0,.18.13.18.18,0,0,0,.09,0,5.19,5.19,0,0,1,2.84-1.28,2.43,2.43,0,0,1,2.17,1.33.14.14,0,0,0,.12.07.14.14,0,0,0,.12-.06,5.67,5.67,0,0,1,2.94-1.34c1.74,0,2.78,1.3,2.78,3.48,0,.62,0,1.42,0,2.16s0,1.26,0,1.68a.57.57,0,0,0,.35.44,4.1,4.1,0,0,0,1.08.27h0a1.56,1.56,0,0,1-.11.71l-.47,0c-.36,0-.86,0-1.43,0-1.16,0-1.76,0-2.34.06a1.88,1.88,0,0,1,0-.71c.24,0,.47-.09.71-.15s.47-.29.49-.78.08-3.4,0-4.13a1.85,1.85,0,0,0-1.92-1.63,3.36,3.36,0,0,0-1.91.73.36.36,0,0,0-.07.18h0a7.26,7.26,0,0,1,.09,1.54c0,.4,0,.81,0,1.23,0,.84,0,1.64,0,2.24a.56.56,0,0,0,.45.58l.28.07a6,6,0,0,0,.59.12,1.06,1.06,0,0,1,0,.53.36.36,0,0,1-.07.18c-.64,0-1.3,0-2.25,0l-1.18,0-.83,0a.89.89,0,0,1-.07-.36.71.71,0,0,1,.07-.35l.25,0,.6-.12c.31-.1.43-.27.46-.67a30.66,30.66,0,0,0,0-4.31,1.76,1.76,0,0,0-1.83-1.63,3.44,3.44,0,0,0-1.91.73.57.57,0,0,0-.17.43v1.13c0,1.36,0,3,0,3.77a.6.6,0,0,0,.52.59l.44.08.34.06a1.43,1.43,0,0,1-.06.71l-.67,0c-.4,0-.89,0-1.46,0s-1.12,0-1.49,0l-.68,0" fill="#373537"/><path d="M21.49,92.46a1.92,1.92,0,0,0-1,.29,2.87,2.87,0,0,0-1.11,2.66c0,2.46,1.23,4.18,3,4.18a1.85,1.85,0,0,0,1.29-.45,3.32,3.32,0,0,0,.83-2.62c0-2.43-1.2-4.06-3-4.06m.34,8.05c-3.19,0-4.32-2.34-4.32-4.53a4,4,0,0,1,1.86-3.56,5.59,5.59,0,0,1,2.87-.85,4,4,0,0,1,4.13,4.26,4.42,4.42,0,0,1-2,3.89,5.56,5.56,0,0,1-2.58.79" fill="#373537"/><path d="M54,92.46a1.83,1.83,0,0,0-1,.29,2.87,2.87,0,0,0-1.11,2.66c0,2.46,1.23,4.18,3,4.18a1.88,1.88,0,0,0,1.3-.45A3.36,3.36,0,0,0,57,96.52c0-2.43-1.21-4.06-3-4.06m.34,8.05c-3.2,0-4.33-2.34-4.33-4.53a4,4,0,0,1,1.86-3.56,5.59,5.59,0,0,1,2.87-.85,4,4,0,0,1,4.14,4.26,4.4,4.4,0,0,1-2,3.89,5.56,5.56,0,0,1-2.57.79" fill="#373537"/><path d="M43.23,92.38c-1,0-1.62.78-1.62,2S42.16,97,43.7,97a1.52,1.52,0,0,0,1-.38,2.45,2.45,0,0,0,.6-1.73c0-1.56-.77-2.5-2-2.5m-.13,8.3a1.6,1.6,0,0,0-.8.19c-.78.5-1.14,1-1.14,1.58a1.66,1.66,0,0,0,.67,1.35,3.35,3.35,0,0,0,2.25.69c1.91,0,2.76-1,2.76-2A1.43,1.43,0,0,0,45.77,101a8.46,8.46,0,0,0-2.66-.32m.13,4.82a4.1,4.1,0,0,1-2.67-.78,2.5,2.5,0,0,1-1-1.86,1.43,1.43,0,0,1,.38-.94,9.58,9.58,0,0,1,1.73-1.38.11.11,0,0,0,0-.09.1.1,0,0,0-.07-.09,1.79,1.79,0,0,1-1.22-1.19.11.11,0,0,0,0,0,.28.28,0,0,1,.11-.34c.12-.09.32-.2.53-.33a7.82,7.82,0,0,0,.86-.55.14.14,0,0,0,0-.2l0,0a2.75,2.75,0,0,1-2-2.88,2.86,2.86,0,0,1,1.2-2.36,5.46,5.46,0,0,1,2.69-.91h0a5.62,5.62,0,0,1,2.06.45,3.34,3.34,0,0,0,1.21.2,1.65,1.65,0,0,0,1.32-.5,1.21,1.21,0,0,1,.06.38,1.4,1.4,0,0,1-.23.86,1.1,1.1,0,0,1-.82.35h-.1a2.11,2.11,0,0,1-.49-.09l-.09,0s0,.08,0,.14,0,0,0,0a5.32,5.32,0,0,1,.12.8,3,3,0,0,1-1.27,2.72,4.35,4.35,0,0,1-2.19.85h0l-.25,0-.25,0h0c-.14,0-.51.22-.51.55s.16.61,1,.68l.52,0a16.77,16.77,0,0,1,3,.38,2.08,2.08,0,0,1,1.39,2,4.09,4.09,0,0,1-2.63,3.49,5.81,5.81,0,0,1-2.49.56" fill="#373537"/><path d="M38.35,99.63a3.8,3.8,0,0,1-1.21-.32A.54.54,0,0,1,37,99c0-.65,0-2.54,0-3.77a4.49,4.49,0,0,0-.6-2.52,2.54,2.54,0,0,0-2.16-1.14,5.05,5.05,0,0,0-2.85,1.35s-.16.15-.16-.06,0-.62.06-.89a.47.47,0,0,0-.14-.39,12.59,12.59,0,0,1-2.89.76c-.45.08-.57.52-.08.67h0a4,4,0,0,1,1.1.48.58.58,0,0,1,.17.52c0,1.41,0,3.57,0,4.75,0,.46-.14.63-.48.71h0a5.24,5.24,0,0,1-.79.15,1.11,1.11,0,0,0,0,.84c.21,0,1.29-.06,2.19-.06,1.23,0,1.87.06,2.18.06a1.19,1.19,0,0,0,.09-.84,3.66,3.66,0,0,1-.87-.13c-.34-.08-.43-.25-.45-.62,0-1,0-3.09,0-4.52a.88.88,0,0,1,.23-.7A2.87,2.87,0,0,1,33.19,93a1.92,1.92,0,0,1,1.29.44,1.84,1.84,0,0,1,.61,1.19c.08.8.06,2.4.06,3.78,0,.76-.06.95-.34,1a3.5,3.5,0,0,1-.87.17,1.11,1.11,0,0,0,0,.84c.55,0,1.19-.07,2.12-.07,1.17,0,1.91.07,2.21.07a1.18,1.18,0,0,0,.09-.84" fill="#373537"/></g></g></g></g></svg>