<svg xmlns="http://www.w3.org/2000/svg" width="128.11" height="87.05" viewBox="0 0 128.11 87.05"><title>mysql</title><g id="b64bce56-84b5-4982-ace0-a46c8d997684" data-name="Layer 2"><g id="b70da45f-31a0-4303-9902-965ac3f45051" data-name="Services"><g id="e15245e1-fc33-443c-bc61-b29a141efcf2" data-name="Content 3"><g id="a00bdf4c-099e-4b81-a314-6281b1c2fefe" data-name="MySQL"><path d="M28.53,49.76H22.66l-7.17,21.7h-.05L8.31,49.76H2.18Q.71,61.3.18,74.24q-.1,2.49-.18,5H4.51q.23-13,1-23.53h0l7.48,23.53h3.76l7.52-23.53h.05q1.18,11,1.44,23.53h4.94l0,0Q30.45,65.91,28.53,49.76Zm19,7.82A82.78,82.78,0,0,1,43.1,76.11c.15-1.14-.22-3.13-1.09-6L38.11,57.5H33.26l5.42,16.86a21.48,21.48,0,0,1,1.23,5,4.31,4.31,0,0,1-1.58,3.23,5,5,0,0,1-3.46,1.19,13.33,13.33,0,0,1-2-.14v2.64a8.14,8.14,0,0,0,3,.73q4.59,0,8.44-5.72,4.94-7.41,8-23.75Zm4.69,0h0v-.07S52.26,57.56,52.26,57.58Z" fill="#373537"/><path d="M108.75,75.7V49.76H104V79.35h14.1V75.7ZM94.92,77.34A9.94,9.94,0,0,0,96.28,76Q99.75,72,99.74,64q0-14.67-11.51-14.67a10.88,10.88,0,0,0-8.8,3.73Q76,57.11,76,65T79,76.46q2.81,3.29,8.45,3.28a13.84,13.84,0,0,0,3.87-.51l7.07,4.11L100.35,80Zm-7-1.27a5.69,5.69,0,0,1-5.21-2.67Q81,70.51,81,64.12,81,53,87.75,53A5.67,5.67,0,0,1,93,55.63c1.2,1.92,1.8,5,1.8,9.19Q94.75,76.07,88,76.07ZM70.46,64.88s-4.24-2.42-6.34-3.56c-2.31-1.28-3.56-2.8-3.56-4.55A3.67,3.67,0,0,1,61.89,54a5.05,5.05,0,0,1,3.49-1.1,14.42,14.42,0,0,1,5.69,1.23l1.14-2.54a13.45,13.45,0,0,0-7.48-2.19,9.5,9.5,0,0,0-6.5,2.21,7.34,7.34,0,0,0-2.52,5.8,7.1,7.1,0,0,0,3.37,6.29s4.14,2.37,6.21,3.51c2.25,1.26,3.47,2.76,3.47,4.51A4,4,0,0,1,67.15,75,6.62,6.62,0,0,1,63,76.15a14.36,14.36,0,0,1-6.34-1.75l-1.27,2.54a14.84,14.84,0,0,0,8.4,2.76,10.89,10.89,0,0,0,7.4-2.41,7.85,7.85,0,0,0,2.75-6.17C73.91,68.25,72.76,66.51,70.46,64.88Z" fill="#9b9a9b"/><path d="M127.55,50.22l-1.06-1a16,16,0,0,0-2.31-2.48,16.69,16.69,0,0,0-1.33-1.06c-1.13-.77-3.58-1.83-4-3.12l-.07-.07a13.31,13.31,0,0,0,2.42-.57c1-.27,2-.25,3-.45a4.26,4.26,0,0,0,.49-.1c.56-.15,1.12-.32,1.68-.5v-.39c-.64-.65-1.1-1.5-1.78-2.11l-.39-.33A45.73,45.73,0,0,0,118.67,34c-1.11-.72-2.54-1.18-3.72-1.79-.42-.22-1.14-.32-1.39-.68a15,15,0,0,1-1.47-2.75c-1-2-2-4.14-2.93-6.22a37.31,37.31,0,0,0-1.82-4.07c-3.68-6.08-7.68-9.75-13.83-13.37L93.35,5a17.27,17.27,0,0,0-4.41-1.38l-2.68-.14a13.46,13.46,0,0,1-1.64-1.26c-2-1.28-7.29-4.07-8.79-.39A3.62,3.62,0,0,0,76.19,5a25.79,25.79,0,0,0,1.89,2.62A16.64,16.64,0,0,1,79.9,10.3c.25.61.32,1.25.57,1.9A43.18,43.18,0,0,0,82.33,17a17.67,17.67,0,0,0,1.32,2.21c.29.39.79.57.9,1.21a10.5,10.5,0,0,0-.83,2.68c-1.28,4-.78,9,1,12,.57.89,1.93,2.86,3.75,2.1,1.61-.64,1.26-2.67,1.72-4.46.1-.43,0-.71.25-1v.05c.5,1,1,2,1.47,3a20.63,20.63,0,0,0,4.68,4.78c.86.64,1.54,1.75,2.62,2.14v-.11h-.07a4,4,0,0,0-.83-.71,17.8,17.8,0,0,1-1.87-2.14,45.92,45.92,0,0,1-4-6.5c-.58-1.11-1.08-2.32-1.55-3.43-.21-.42-.21-1.07-.57-1.28a13.05,13.05,0,0,0-1.73,2.42,20.5,20.5,0,0,0-1,5.4l-.14.07c-1.14-.29-1.54-1.46-2-2.46a15.46,15.46,0,0,1-.32-9.54c.25-.75,1.33-3.1.9-3.82-.22-.68-.94-1.07-1.33-1.61a15.08,15.08,0,0,1-1.3-2.28c-.86-2-1.29-4.21-2.22-6.21a18.56,18.56,0,0,0-1.8-2.75C79,6.1,78.5,5.59,78.07,5a6.77,6.77,0,0,1-.64-1.06c-.18-.39-.43-1-.14-1.46a.58.58,0,0,1,.5-.47c.47-.39,1.8.11,2.27.33a18.22,18.22,0,0,1,3.56,1.78c.32.23.66.6,1,.88a1.89,1.89,0,0,0,.64.34h.84c1.14.24,2.42.06,3.5.39a23.26,23.26,0,0,1,5.14,2.46A31.66,31.66,0,0,1,105.91,20.4c.43.82.61,1.57,1,2.43.75,1.75,1.68,3.53,2.43,5.24a23.26,23.26,0,0,0,2.54,4.79c.53.75,2.68,1.14,3.64,1.53a25.79,25.79,0,0,1,2.46,1c1.21.75,2.42,1.61,3.57,2.43.57.43,2.35,1.32,2.46,2l-.05,0a16.44,16.44,0,0,0-6.92,1c-.54.21-1.39.21-1.47.89.29.29.33.75.58,1.14A8.25,8.25,0,0,0,118,45.08c.75.57,1.5,1.14,2.29,1.64,1.25.77,2.64,1.25,3.89,2l.43.26c.78.49,1.57,1.14,2.36,1.67.38.29.63.75,1.14.93v-.2C127.86,51,127.79,50.57,127.55,50.22Zm-39-40.59c-.21-.36-.67-.53-1-.82A6,6,0,0,0,86.17,9v.07h.07a11.76,11.76,0,0,0,1.14,1.47c.29.57.54,1.14.82,1.71l.07-.07A2,2,0,0,0,89,10.38C88.81,10.13,88.77,9.88,88.59,9.63Z" fill="#373537"/></g></g></g></g></svg>