<svg xmlns="http://www.w3.org/2000/svg" width="92.04" height="101.41" viewBox="0 0 92.04 101.41"><title>node</title><g id="f80c6ebe-7535-40a4-8a6e-094187ac1414" data-name="Layer 2"><g id="ae548924-526a-4918-9aa7-cb096ca3af7a" data-name="Services"><g id="ad8adee4-2134-4ed4-ad55-fce46dc1ff58" data-name="Content 3"><g id="bf51f283-8beb-4525-b2c5-9c61ddd85808" data-name="Node.js"><path d="M92,29.23v43a7.91,7.91,0,0,1-4.24,6.87l-2.44,1.38Q67.67,90.41,50,100.39a8.27,8.27,0,0,1-8.39-.24L30.28,93.6A6.75,6.75,0,0,1,28.09,92c.48-.65,1.34-.73,2-1a26.45,26.45,0,0,0,4.48-2.09,1,1,0,0,1,1.16.07c3.23,1.85,6.43,3.76,9.67,5.59.69.4,1.39-.13,2-.46Q66,83.65,84.53,73.19A1.22,1.22,0,0,0,85.2,72q0-21.27,0-42.53a1.35,1.35,0,0,0-.79-1.33L46.76,6.9a1.29,1.29,0,0,0-1.48,0L7.63,28.13a1.32,1.32,0,0,0-.8,1.32V72a1.21,1.21,0,0,0,.68,1.19l10.06,5.68a7.76,7.76,0,0,0,6.29.84A4.79,4.79,0,0,0,27,75.21q0-21.13,0-42.28a1.06,1.06,0,0,1,1.15-1.08c1.61,0,3.23,0,4.84,0a1.12,1.12,0,0,1,1,1.29q0,21.27,0,42.55c0,3.78-1.55,7.89-5.05,9.74-4.31,2.23-9.63,1.76-13.88-.38-3.69-1.84-7.2-4-10.82-6A7.88,7.88,0,0,1,0,72.2v-43a7.84,7.84,0,0,1,4.08-6.81q15.06-8.49,30.1-17l7.69-4.34a8.54,8.54,0,0,1,8.3,0l7.68,4.34L85.36,21l2.73,1.54A7.83,7.83,0,0,1,92,29.23Z" fill="#373537"/><path d="M52.84,30.85c5.5-.35,11.38-.21,16.32,2.5,3.83,2.07,6,6.42,6,10.67a1.16,1.16,0,0,1-1.26.85c-1.59,0-3.18,0-4.78,0A1.22,1.22,0,0,1,68,43.67a7.28,7.28,0,0,0-3.48-5c-2.94-1.47-6.35-1.4-9.56-1.37-2.34.13-4.85.33-6.84,1.7a4.36,4.36,0,0,0-1.44,4.85c.51,1.21,1.92,1.6,3.07,2,6.62,1.73,13.63,1.56,20.13,3.83,2.69.93,5.32,2.74,6.24,5.55a11.89,11.89,0,0,1-2,11.32,15.9,15.9,0,0,1-8.51,4.58,41,41,0,0,1-12.84.55c-4-.46-8.2-1.52-11.3-4.25A11.87,11.87,0,0,1,37.63,58a1.07,1.07,0,0,1,1.17-.94c1.61,0,3.21,0,4.82,0a1.14,1.14,0,0,1,1.15,1.11,7.28,7.28,0,0,0,2.71,5.13c3.26,2.1,7.36,2,11.09,2,3.1-.13,6.57-.17,9.1-2.22A5,5,0,0,0,69,58.3c-.39-1.41-1.87-2.07-3.14-2.51-6.54-2.06-13.63-1.31-20.11-3.65-2.62-.93-5.16-2.69-6.17-5.39-1.41-3.82-.77-8.54,2.2-11.47s7.06-4,11-4.43Z" fill="#373537"/></g></g></g></g></svg>