<svg xmlns="http://www.w3.org/2000/svg" width="118.2" height="80.49" viewBox="0 0 118.2 80.49"><title>opencart</title><g id="ad6d6844-964f-4e06-bce1-9f534538865c" data-name="Layer 2"><g id="f6edd1f5-c4bd-4ace-b9ef-f9bac80e550b" data-name="Services"><g id="ecf08eeb-83ac-45de-bebc-652fc2cc8ca0" data-name="Content 3"><g id="a501dad6-c983-42f9-86af-3abda71fef46" data-name="Open Cart"><g id="a19dc017-2e4a-4e03-897d-269c7c67806b" data-name="Opencart"><path d="M13.28,60.24a7.1,7.1,0,0,0-5.6-2.45,7.16,7.16,0,0,0-5.61,2.45,9.27,9.27,0,0,0,0,11.68A7.11,7.11,0,0,0,7.68,74.4a7.09,7.09,0,0,0,5.6-2.48,9.27,9.27,0,0,0,0-11.68ZM10,68.75A2.67,2.67,0,0,1,7.68,70a2.69,2.69,0,0,1-2.36-1.22,4.59,4.59,0,0,1-.76-2.67,4.46,4.46,0,0,1,.76-2.65,2.71,2.71,0,0,1,2.36-1.22A2.7,2.7,0,0,1,10,63.43a4.46,4.46,0,0,1,.76,2.65A4.59,4.59,0,0,1,10,68.75Z" fill="#373537"/><path d="M30,60.41a6.22,6.22,0,0,0-5.16-2.62,4.76,4.76,0,0,0-3.91,1.75,2.23,2.23,0,0,0-2.13-1.45,2.14,2.14,0,0,0-1.62.69,2.37,2.37,0,0,0-.66,1.67V78.1a2.45,2.45,0,0,0,.64,1.69,2.14,2.14,0,0,0,1.63.7q2.43,0,2.43-4.06c0-.5,0-1.12-.07-1.88s-.07-1.24-.07-1.43a5.71,5.71,0,0,0,3.76,1.28A6.21,6.21,0,0,0,30,71.74a9,9,0,0,0,1.87-5.66A9.07,9.07,0,0,0,30,60.41Zm-3.47,8.34a2.88,2.88,0,0,1-4.71,0,4.66,4.66,0,0,1-.75-2.67,4.52,4.52,0,0,1,.75-2.65,2.88,2.88,0,0,1,4.71,0,4.53,4.53,0,0,1,.76,2.65A4.66,4.66,0,0,1,26.52,68.75Z" fill="#373537"/><path d="M46.31,68.69a6.93,6.93,0,0,0-2,.74,6.64,6.64,0,0,1-2.67.73,5,5,0,0,1-2.43-.55,2.22,2.22,0,0,1-1.23-2h8.24a2.66,2.66,0,0,0,1.68-.44,2,2,0,0,0,.54-1.58,7.87,7.87,0,0,0-2.12-5.5,6.84,6.84,0,0,0-5.26-2.31,7.47,7.47,0,0,0-5.68,2.44,8.25,8.25,0,0,0-2.29,5.86,8.39,8.39,0,0,0,2.21,6,7.47,7.47,0,0,0,5.76,2.37,12.57,12.57,0,0,0,4.35-.79c1.87-.7,2.8-1.68,2.8-2.92a2,2,0,0,0-.55-1.4A1.8,1.8,0,0,0,46.31,68.69Zm-7.39-6.16a2.93,2.93,0,0,1,2-.86,2.9,2.9,0,0,1,2,.86,2.66,2.66,0,0,1,1,1.9H38A2.55,2.55,0,0,1,38.92,62.53Z" fill="#373537"/><path d="M63.8,71.71a2.41,2.41,0,0,1-.64,1.7,2.14,2.14,0,0,1-1.63.7q-2.4,0-2.4-3.8c0-.48,0-1.25.1-2.3s.11-1.82.11-2.31q0-4-2.6-4t-2.6,4c0,.49,0,1.26.08,2.31s.08,1.82.08,2.3q0,3.8-2.36,3.8a2.14,2.14,0,0,1-1.63-.7,2.41,2.41,0,0,1-.64-1.7V60.44a2.33,2.33,0,0,1,.64-1.67A2.15,2.15,0,0,1,52,58.08a2.27,2.27,0,0,1,2.27,1.45c.74-1.17,2.05-1.75,3.91-1.75a5.92,5.92,0,0,1,4.12,1.37,5.26,5.26,0,0,1,1.55,4v8.53Z" fill="#373537"/><path d="M78.08,71.22c0,1-.67,1.85-2,2.45a8.27,8.27,0,0,1-3.39.73,7.1,7.1,0,0,1-5.61-2.48,9.24,9.24,0,0,1,.05-11.72,7,7,0,0,1,5.56-2.41,9,9,0,0,1,3.41.58,2.61,2.61,0,0,1,2,2.46,2.28,2.28,0,0,1-.53,1.48,1.63,1.63,0,0,1-1.34.65,5.5,5.5,0,0,1-1.6-.37A5.3,5.3,0,0,0,73,62.22a3,3,0,0,0-2.54,1.16,4.17,4.17,0,0,0-.85,2.7,4.43,4.43,0,0,0,.76,2.64A2.67,2.67,0,0,0,72.68,70a6,6,0,0,0,1.84-.4,6.28,6.28,0,0,1,1.69-.4,1.69,1.69,0,0,1,1.32.65,2.14,2.14,0,0,1,.55,1.4Z" fill="#373537"/><path d="M94,58.78a2.27,2.27,0,0,0-3.75.76,4.77,4.77,0,0,0-3.91-1.75,6.33,6.33,0,0,0-5.2,2.62,9.64,9.64,0,0,0,0,11.33,6.25,6.25,0,0,0,5.2,2.66,4.77,4.77,0,0,0,3.91-1.75,2.18,2.18,0,0,0,2.12,1.45A2.11,2.11,0,0,0,94,73.4a2.41,2.41,0,0,0,.64-1.7V60.45A2.4,2.4,0,0,0,94,58.78Zm-4.66,10A2.7,2.7,0,0,1,87,70a2.74,2.74,0,0,1-2.38-1.22,4.73,4.73,0,0,1-.74-2.67,4.46,4.46,0,0,1,.76-2.65A2.71,2.71,0,0,1,87,62.21a2.77,2.77,0,0,1,2.36,1.22,4.52,4.52,0,0,1,.75,2.65A4.66,4.66,0,0,1,89.35,68.75Z" fill="#373537"/><path d="M106.37,60.12a2,2,0,0,1-1.43,2c-.89.3-1.77.6-2.64.91a3.21,3.21,0,0,0-1.44,3v5.64a2.42,2.42,0,0,1-.65,1.7,2.26,2.26,0,0,1-3.29,0,2.42,2.42,0,0,1-.65-1.7V60.42a2.42,2.42,0,0,1,.64-1.69A2.19,2.19,0,0,1,98.56,58a2.31,2.31,0,0,1,2.29,1.46A4.16,4.16,0,0,1,104,57.74a2.27,2.27,0,0,1,1.66.7,2.32,2.32,0,0,1,.69,1.68Z" fill="#373537"/><path d="M118.2,60.34A1.82,1.82,0,0,1,117,62.28a9.52,9.52,0,0,1-2.45.2v9.27a2.46,2.46,0,0,1-.65,1.71,2.27,2.27,0,0,1-3.28,0,2.43,2.43,0,0,1-.66-1.71V62.48a4.59,4.59,0,0,1-2.06-.35,1.86,1.86,0,0,1-.89-1.79,1.79,1.79,0,0,1,.91-1.76,4.44,4.44,0,0,1,2-.35v-2c0-2.31.76-3.46,2.29-3.46s2.3,1.15,2.3,3.46v2a9.52,9.52,0,0,1,2.45.2,1.81,1.81,0,0,1,1.19,1.91Z" fill="#373537"/><path d="M92.31,13.48c0-2.62-4.87-3.81-17.42-3.81C45.45,9.67,38,8.41,30,0c3.37,5.05,5.21,14.52,36.33,14.05,32.47-.5,12.66,8.38,6.9,18.4,10.39-9.28,19.07-15.39,19.1-18.93Z" fill="#373537"/><path d="M51,40.4A4.45,4.45,0,1,1,46.5,36h0A4.45,4.45,0,0,1,51,40.4Z" fill="#373537"/><path d="M71.23,40.4A4.45,4.45,0,1,1,66.78,36h0A4.45,4.45,0,0,1,71.23,40.4Z" fill="#373537"/></g></g></g></g></g></svg>