<svg xmlns="http://www.w3.org/2000/svg" width="145.39" height="75.68" viewBox="0 0 145.39 75.68"><title>php</title><g id="bad51aee-a8a6-46bd-8433-fa6dda32d0a5" data-name="Layer 2"><g id="a0d7cfa9-b712-4d59-8b9b-26bc6350d6af" data-name="Services"><g id="efa6a3af-95b1-4053-b338-a1a0e71d0e7a" data-name="Content 3"><g id="ede63d4e-7730-4ad8-aa47-fb595ea15540" data-name="PHP"><ellipse cx="72.7" cy="37.84" rx="72.7" ry="37.84" fill="#9b9a9b"/><path d="M46.8,19.94H28.38l-8,40.29h9.46l2-10.4h9c8.46.49,17.93-6.48,17.93-18.43C58.76,24.42,54.78,20.44,46.8,19.94Zm-7,22.39h-6l2.48-14.95h6.48c3.49,0,6,1.49,6,4.49C48.3,40.33,44.32,41.83,39.83,42.33ZM81.3,19.94h-9l2-10.47H64.87l-8,40.36h9.45l4.49-22.45h7.48c3.49,0,3.49,1.5,3,4L77.82,49.83h10L91.26,29.4C92.26,24.42,89.27,20.44,81.3,19.94Zm32.22,0H95.1l-8,40.29H96.6l2-10.4h9c8.46.49,17.93-6.48,17.93-18.43C125.48,24.42,121.5,20.44,113.52,19.94Zm-7,22.39h-6l2.48-14.95h6.48c3.49,0,6,1.49,6,4.49C115,40.33,111,41.83,106.55,42.33Z" fill="#373537"/></g></g></g></g></svg>