<svg xmlns="http://www.w3.org/2000/svg" width="100.07" height="103.18" viewBox="0 0 100.07 103.18"><title>postgre</title><g id="ac662485-e5fc-4099-8e64-98a848ae94e1" data-name="Layer 2"><g id="aa7a28bd-86a1-4ec8-bbf2-51d3bfbaff13" data-name="Services"><g id="b2e33539-50bc-4c6f-8f9a-e04c3cc0d444" data-name="Content 3"><g id="bd541b27-bcb4-4990-a20b-ba2781a431d4" data-name="PostgreSQL"><g id="b2bd1d6b-2a99-4557-8dbb-1edcbf40cdc7" data-name="Layer_3"><path d="M74.75,75.11c.66-5.47.46-6.27,4.54-5.39l1,.09A23.37,23.37,0,0,0,90,68.19c5.18-2.4,8.26-6.41,3.15-5.36-11.65,2.4-12.45-1.54-12.45-1.54C93,43,98.09,19.86,93.65,14.19,81.54-1.28,60.58,6,60.23,6.22l-.11,0a42.45,42.45,0,0,0-7.77-.81A19.27,19.27,0,0,0,40,9.12S2.65-6.29,4.39,28.49c.37,7.4,10.61,56,22.81,41.31C31.66,64.43,36,59.89,36,59.89a11.31,11.31,0,0,0,7.4,1.89l.2-.18a8.33,8.33,0,0,0,.09,2.09c-3.15,3.52-2.22,4.13-8.51,5.43s-2.62,3.64-.18,4.25c3,.74,9.8,1.79,14.42-4.68l-.18.74c1.23,1,1.15,7.09,1.32,11.45s.47,8.43,1.36,10.84,1.94,8.58,10.2,6.81c6.9-1.48,12.18-3.61,12.66-23.42"/><path d="M59.31,103.18c-5.46,0-9.24-3.12-11.27-9.31-.07-.24-.14-.46-.21-.65-1.06-2.85-1.42-6.92-1.63-12.16,0-.78-.05-1.61-.07-2.46,0-.52,0-1.12-.06-1.75a18.67,18.67,0,0,1-12.16.72,10.18,10.18,0,0,1-5.32-3,8.85,8.85,0,0,1-8.76,1.89C6.64,72,.23,32.09.06,28.71-.48,17.76,2.48,9.91,8.87,5.4c10-7,25-3,30.59-1.11a24.12,24.12,0,0,1,13-3.19,47.62,47.62,0,0,1,7.38.67c6.1-2,25.46-5.34,37.26,9.75,6.2,7.92-.09,30.86-10,47.75a30.65,30.65,0,0,0,5.19-.68c5.66-1.17,7.23,2.16,7.58,3.21,1.75,5.31-5.7,9.24-8,10.32a28,28,0,0,1-11.66,2l-.88-.07-.06.53-.1.81C78.55,95.61,73,100.61,63,102.76A17.7,17.7,0,0,1,59.31,103.18ZM51.91,66c2.47,2,2.69,5.59,2.87,12.32,0,.81,0,1.61.08,2.35.09,2.2.29,7.36,1.09,9.5.1.28.21.61.33,1,.9,2.75,1.27,3.89,4.9,3.11C66.3,93.19,70,92.4,70.42,75l0-.41.12-1c.38-3.23.67-5.78,3-7.43a6.5,6.5,0,0,1,4.51-1,6,6,0,0,1-1.66-3L76,60.37l1-1.5C89.31,40.69,92.63,20,90.24,16.86,80.61,4.56,63.85,9.58,62,10.18l-.33.18-1.62.3-.83-.18a38,38,0,0,0-7-.72,14.93,14.93,0,0,0-9.62,2.81l-2,1.5-2.29-1c-4.48-1.83-17.64-5.52-24.54-.63-3.79,2.69-5.52,8-5.13,15.78.13,2.7,2,12.82,5,22.54,4.2,13.56,7.91,17.19,8.89,17.4A5.09,5.09,0,0,0,23.87,67c4.5-5.42,8.78-9.93,9-10.12l2.51-2.64,3,2a7.17,7.17,0,0,0,3.37,1.19l7.18-6.13L47.89,62a3.44,3.44,0,0,0,0,1l.31,2-1.36,1.53,0,0,3.36,1.55ZM62.29,10l-.11.07Z" fill="#373537"/><path d="M93.1,62.78c-11.65,2.4-12.45-1.55-12.45-1.55C93,43,98.09,19.81,93.65,14.13,81.55-1.34,60.58,6,60.24,6.17l-.12,0a41.59,41.59,0,0,0-7.77-.81A19.21,19.21,0,0,0,40,9.06S2.65-6.34,4.39,28.44c.37,7.39,10.6,56,22.81,41.3,4.46-5.36,8.77-9.9,8.77-9.9a11.34,11.34,0,0,0,7.39,1.89l.21-.18a8.33,8.33,0,0,0,.09,2.09c-3.15,3.51-2.22,4.13-8.51,5.42s-2.62,3.65-.18,4.26c3,.74,9.8,1.79,14.42-4.69l-.19.74c1.24,1,2.1,6.42,2,11.35s-.24,8.3.73,10.94,1.93,8.58,10.2,6.81c6.9-1.48,10.48-5.31,11-11.71.35-4.54,1.15-3.87,1.2-7.94l.64-1.92c.74-6.17.12-8.16,4.38-7.23l1,.09A23.53,23.53,0,0,0,90,68.14c5.18-2.41,8.26-6.42,3.15-5.36Z" fill="#9b9a9b"/><path d="M39.85,32.82c-.07.48.86,1.74,2.08,1.9a2.22,2.22,0,0,0,2.31-1.28c.07-.48-.86-1-2.08-1.16s-2.25.07-2.31.54Z" fill="#fff"/><path d="M42.2,35.22a1.94,1.94,0,0,1-.34,0,3.3,3.3,0,0,1-2.06-1.28,1.77,1.77,0,0,1-.43-1.16h0a.91.91,0,0,1,.38-.61,3.61,3.61,0,0,1,2.48-.35,3.58,3.58,0,0,1,2.29,1,.89.89,0,0,1,.2.68,2.09,2.09,0,0,1-.94,1.22A2.79,2.79,0,0,1,42.2,35.22Zm-1.87-2.3A2.36,2.36,0,0,0,42,34.25a1.88,1.88,0,0,0,1.78-.88,3.25,3.25,0,0,0-1.67-.62A2.82,2.82,0,0,0,40.33,32.92Zm0,0Z" fill="#f2f2f2"/><path d="M76.78,31.86c.06.47-.87,1.73-2.08,1.9a2.24,2.24,0,0,1-2.32-1.29c-.06-.47.87-1,2.08-1.16s2.25.08,2.32.55Z" fill="#fff"/><path d="M74.43,34a2.46,2.46,0,0,1-2.29-1.51c-.09-.72,1.08-1.27,2.29-1.44a4.89,4.89,0,0,1,1.68,0c.54.13.86.38.91.72a1.56,1.56,0,0,1-.39,1A3,3,0,0,1,74.73,34Zm.78-2.52a6.09,6.09,0,0,0-.72.05c-1.26.18-1.9.68-1.87.89a2.07,2.07,0,0,0,2,1.08,2.55,2.55,0,0,0,1.58-1,1.2,1.2,0,0,0,.29-.63h0c0-.09-.19-.22-.55-.31A3.6,3.6,0,0,0,75.21,31.5Z" fill="#f2f2f2"/><path d="M97,62.56c-.45-1.35-1.88-1.78-4.25-1.29-7.08,1.46-9.59.45-10.41-.17C93.68,43.77,99.93,19.82,94.71,13.15,83-1.78,63.53,3.49,60,4.65l-.2,0v0l-.22.08a32.19,32.19,0,0,0-7.26-1A21,21,0,0,0,39.88,7.27C36.42,6,20.38.56,10.46,7.59c-5.54,3.92-8.09,10.93-7.6,20.83C3.1,33,9.92,70,20.66,73.54a5.62,5.62,0,0,0,1.81.3c1.64,0,3.66-.74,5.76-3.27,3.49-4.2,6.75-7.72,7.94-9a12.94,12.94,0,0,0,5.71,1.55.77.77,0,0,0,0,.15c-.4.47-.74.89-1,1.25-1.38,1.75-1.67,2.11-6.11,3-1.27.26-4.62,1-4.67,3.3-.06,2.57,4,3.65,4.42,3.77a19,19,0,0,0,4.6.59,13.35,13.35,0,0,0,9.22-3.45c-.08,9.17.3,18.2,1.4,21,.9,2.25,3.1,7.75,10.06,7.75a16.49,16.49,0,0,0,3.38-.38c7.25-1.56,10.4-4.76,11.62-11.84.65-3.77,1.78-12.8,2.3-17.64a14.1,14.1,0,0,0,4.09.51,24.36,24.36,0,0,0,9.28-1.77C93.1,68.14,97.83,65.15,97,62.56ZM79.69,29.85a30,30,0,0,1-.42,4.07,37.13,37.13,0,0,0-.52,4.8,36.45,36.45,0,0,0,.38,5.41c.43,3.62.88,7.33-.84,11a14.36,14.36,0,0,1-.77-1.57c-.21-.51-.68-1.35-1.32-2.5-2.51-4.5-8.38-15-5.38-19.33C72.37,29.52,76.28,29.43,79.69,29.85ZM92.44,14.93C96,19.52,92.07,40.4,80.62,58.41L80.28,58l-.15-.18c3-4.89,2.38-9.72,1.87-14a33.94,33.94,0,0,1-.36-5,35.49,35.49,0,0,1,.48-4.45,27.66,27.66,0,0,0,.44-5.51,2,2,0,0,0,.06-.76C82.41,25.86,77.4,12.2,64.34,6.42,70.66,5.09,83.85,4,92.44,14.93ZM26,68.73C23.7,71.51,22.1,71,21.57,70.8,18.15,69.66,14.19,62.43,10.69,51c-3-9.93-4.8-19.9-4.94-22.7-.44-8.84,1.7-15,6.37-18.32,7.61-5.4,20.12-2.16,25.14-.53L37,9.63C28.83,17.91,29,32,29,33h0c0,.31,0,.82.07,1.49a59.34,59.34,0,0,1-.3,11.88,15,15,0,0,0,4,12.58,11.72,11.72,0,0,0,1,1C32.35,61.45,29.28,64.79,26,68.73ZM34.82,57a12.17,12.17,0,0,1-3.19-10.19A61.58,61.58,0,0,0,32,34.34c0-.36,0-.66-.05-.9,1.2-1.06,6.78-4.06,10.76-3.14,1.82.41,2.93,1.65,3.39,3.78,2.38,11,.31,15.6-1.35,19.28-.34.76-.66,1.48-.94,2.23l-.22.58a37.16,37.16,0,0,0-1.35,4.07A10.26,10.26,0,0,1,34.82,57Zm.41,14.85A6.58,6.58,0,0,1,33.31,71a9,9,0,0,1,2-.61c5.22-1.08,6-1.84,7.79-4.08.41-.51.87-1.09,1.5-1.8h0c1-1.06,1.38-.88,2.16-.55a3,3,0,0,1,1.51,1.93,2.17,2.17,0,0,1-.19,1.81C44.45,72.86,39.08,72.79,35.23,71.83ZM62.58,97.27c-6.4,1.37-8.65-1.89-10.15-5.62-1-2.4-1.43-13.26-1.1-25.25a1.17,1.17,0,0,0-.07-.46,6.25,6.25,0,0,0-.17-.84,5.82,5.82,0,0,0-3.17-3.81A4.51,4.51,0,0,0,45,60.93a35.81,35.81,0,0,1,1.25-3.76l.22-.58c.24-.65.54-1.33.86-2,1.74-3.86,4.12-9.14,1.54-21.08-1-4.48-4.2-6.66-9.09-6.15A22.65,22.65,0,0,0,32,29.92c.37-4.5,1.78-12.93,7.07-18.27,3.32-3.35,7.73-5,13.15-4.92C69.93,7,77.63,21.91,79.36,26.9c-5.38-.54-9,.52-10.9,3.18-4,5.78,2.21,17,5.22,22.38.55,1,1,1.84,1.17,2.21A20.29,20.29,0,0,0,78,59.78c.29.35.56.7.77,1-1.63.47-4.55,1.56-4.29,7-.22,2.76-1.73,15.39-2.53,20C70.94,93.73,68.75,96,62.58,97.27ZM89.26,66.74c-3.83,1.78-10.8,1.88-11.88.87-.17-3.39,1.09-3.75,2.43-4.12.14,0,.36-.1.6-.19a4.85,4.85,0,0,0,.41.3c2.36,1.55,6.56,1.72,12.49.5h.06A16,16,0,0,1,89.26,66.74Z" fill="#f2f2f2"/></g></g></g></g></g></svg>