<svg xmlns="http://www.w3.org/2000/svg" width="79" height="104" viewBox="0 0 79 104"><title>principle </title><g id="b4ee8bf7-bd16-4464-82a0-89245868644a" data-name="Layer 2"><g id="b4989c86-1aa5-48b4-a771-f9005b614281" data-name="Services"><g id="f4210c1b-1f33-4ac7-851e-cd3b6ee001d2" data-name="Content 2"><g id="fcb9a4c3-bda6-4508-9292-57b2ca0c922d" data-name="Principle"><path d="M69.83,14.22a40,40,0,0,0-7.28-6.78A39.51,39.51,0,0,0,0,39.5V85.78a7,7,0,0,1,2-.28,7.5,7.5,0,0,1,1.64,14.82A12.5,12.5,0,0,0,25,91.5v-52a14.5,14.5,0,0,1,29,0,11.29,11.29,0,0,1-3.76,8.79A16,16,0,0,1,39.5,52a12.5,12.5,0,0,0,0,25c12.25,0,22.87-4.77,30-12.57A36.52,36.52,0,0,0,79,39.5,39.35,39.35,0,0,0,69.83,14.22ZM39,72.5A7.5,7.5,0,1,1,46.5,65,7.5,7.5,0,0,1,39,72.5Z" fill="#9b9a9b"/></g></g></g></g></svg>