<svg xmlns="http://www.w3.org/2000/svg" width="102.56" height="100" viewBox="0 0 102.56 100"><title>ps</title><g id="b84615d3-35bd-4a22-b7cd-2c8c012ddae3" data-name="Layer 2"><g id="ad51b7aa-c7fb-4668-8027-b43df7c1aee3" data-name="Services"><g id="a7dbb0ce-cb81-41cf-b819-5ea904899c93" data-name="Content1"><g id="b6f4bf72-20fe-4530-9f30-933dad31c2d7" data-name="Ps logo normal"><g id="b922ef95-1972-4427-a699-e52734995a5a" data-name="Ps logo on hover"><path d="M4.27,4.27h94V95.73h-94Z" fill="#373537"/><path d="M0,0V100H102.56V0ZM4.27,4.27h94V95.73h-94ZM24.79,23.63c0-.3.6-.51.95-.51,2.78-.13,6.91-.21,11.21-.21,12,0,16.74,6.49,16.74,14.83,0,10.85-8,15.51-17.82,15.51-1.65,0-2.22-.09-3.39-.09V69.57c0,.34-.13.52-.52.52H25.31c-.35,0-.52-.13-.52-.52V23.63Zm7.69,22.48c1,.09,1.75.09,3.46.09,5,0,9.7-1.76,9.7-8.55,0-5.43-3.38-8.16-9.06-8.16-1.71,0-3.33.08-4.1.13V46.11ZM69.19,40.9c-3.42,0-4.58,1.73-4.58,3.15s.78,2.64,5.35,5c6.79,3.28,8.9,6.43,8.9,11,0,6.91-5.27,10.63-12.39,10.63a18.81,18.81,0,0,1-8.86-1.86c-.3-.13-.35-.34-.35-.69V61.85c0-.43.22-.56.52-.34a16,16,0,0,0,8.69,2.54c3.41,0,4.83-1.42,4.83-3.37,0-1.55-1-2.93-5.35-5.18-6.14-2.94-8.69-5.92-8.69-10.88,0-5.58,4.37-10.2,11.93-10.2a19.84,19.84,0,0,1,7.73,1.21,1,1,0,0,1,.43.87v5.91c0,.35-.22.56-.65.44a14.58,14.58,0,0,0-7.51-2Z" fill="#9b9a9b"/></g></g></g></g></g></svg>