<svg xmlns="http://www.w3.org/2000/svg" width="112.43" height="101.08" viewBox="0 0 112.43 101.08"><title>react</title><g id="ff93c82f-f641-4153-a6cc-67162f6bdb15" data-name="Layer 2"><g id="b7ae63a7-845e-4248-a0a4-fe731e5af9ca" data-name="Services"><g id="b11babcd-a1e1-4333-9a80-3ff18ccb51ff" data-name="Content 3"><g id="a716ad0f-74f1-4743-b7d4-144edd8396ab" data-name="React.js"><path d="M112.43,50.36c0,6-3.72,11.13-10.61,15.2A54.62,54.62,0,0,1,91.2,70.23c2.68,13.55.45,24.86-6.9,29.11-7.15,4.14-17.4.71-27.54-8-10.4,9.1-21.36,12-28.71,7.79-7.16-4.13-9.3-14.72-6.69-27.86C8.29,66.78,0,58.86,0,50.36c0-8.26,8.73-15.59,21.36-20-2.12-10.84-1.18-20,3.08-25.27A12.57,12.57,0,0,1,28,2c5.9-3.42,13.57-2.3,21.84,3.05a54.74,54.74,0,0,1,6.57,5,57.5,57.5,0,0,1,6.66-5C71,0,78.59-1.53,84.22,1.71A15.32,15.32,0,0,1,91,10.44c1.75,5.17,1.84,12,.2,20a53.1,53.1,0,0,1,10.59,4.89C108.49,39.47,112.43,44.65,112.43,50.36Z" fill="#f2f2f2"/><path d="M88.5,34.86c-1.07-.36-2.14-.7-3.22-1,.18-.73.35-1.46.5-2.19,2.43-11.82.84-21.33-4.59-24.46-5.21-3-13.73.13-22.33,7.61q-1.28,1.11-2.49,2.28c-.54-.52-1.09-1-1.65-1.52-9-8-18.06-11.38-23.49-8.24-5.2,3-6.74,12-4.55,23.15.22,1.11.46,2.21.74,3.31-1.28.36-2.52.75-3.7,1.16C13.15,38.63,6.4,44.41,6.4,50.4c0,6.19,7.25,12.4,18.26,16.16.89.3,1.79.59,2.7.84-.3,1.19-.56,2.37-.79,3.57-2.09,11-.46,19.73,4.74,22.73,5.36,3.09,14.35-.09,23.11-7.75.7-.6,1.39-1.25,2.09-1.92q1.31,1.27,2.7,2.46c8.48,7.31,16.86,10.25,22.05,7.25,5.36-3.1,7.1-12.48,4.84-23.89q-.27-1.32-.6-2.67c.63-.19,1.25-.38,1.85-.58,11.45-3.8,18.9-9.93,18.9-16.2,0-6-7-11.83-17.75-15.54Z" fill="#373537"/><path d="M101.82,49.32c-1-3.44-6.36-7.56-14.71-10.43-1-.33-2-.64-3-.94a100.27,100.27,0,0,1-4.86,12.47,100.34,100.34,0,0,1,5.06,12.65c.57-.17,1.13-.35,1.67-.53,9-3,14.8-7.36,15.81-11A4,4,0,0,0,102,50.4,3.77,3.77,0,0,0,101.82,49.32ZM81.91,70.68c-.15-.79-.34-1.6-.54-2.42a98.92,98.92,0,0,1-13.52,2.09A100.84,100.84,0,0,1,59.48,81c.84.81,1.68,1.58,2.51,2.29,7.26,6.25,14,8.62,17.13,6.79,1.48-.85,2.68-3,3.27-6.19A36.15,36.15,0,0,0,81.91,70.68ZM45,70.4a99.09,99.09,0,0,1-13.46-2c-.27,1.1-.51,2.21-.73,3.32C29,81.17,30.29,88.19,33.44,90c1.48.86,3.92.83,7-.26a36.19,36.19,0,0,0,11.18-7c.65-.57,1.28-1.15,1.9-1.75A102.72,102.72,0,0,1,45,70.4ZM28.56,37.9c-1.15.33-2.3.69-3.44,1.08-9,3.15-14.46,7.79-14.46,11.43,0,1.7,1.25,3.81,3.73,5.93A36.3,36.3,0,0,0,26,62.53c.81.27,1.63.53,2.46.77a102.73,102.73,0,0,1,4.93-12.79A102.49,102.49,0,0,1,28.56,37.9ZM51.88,18.76C44.09,11.85,36.7,9.09,33.36,11c-3.13,1.82-4.38,9.05-2.5,18.64.2,1,.43,2.06.68,3.08a102.87,102.87,0,0,1,13.33-2.07,102.53,102.53,0,0,1,8.5-10.53C52.87,19.66,52.37,19.2,51.88,18.76Zm19,16.54c1,1.65,2.06,3.31,3,5s2,3.44,2.87,5.19c1.26-3,2.33-5.84,3.19-8.59C77.14,36.24,74.09,35.71,70.9,35.3ZM56.37,23.19q-3,3.24-5.92,7.09,5.89-.27,11.8,0A91.12,91.12,0,0,0,56.37,23.19ZM32.7,36.85a91.67,91.67,0,0,0,3.18,8.64q1.34-2.61,2.81-5.16c1-1.7,2-3.38,3.07-5C38.59,35.69,35.55,36.21,32.7,36.85Zm6,23.84c-1-1.7-1.93-3.42-2.83-5.17-1.27,3-2.35,6-3.24,8.82a92.5,92.5,0,0,0,9.21,1.48C40.76,64.13,39.72,62.42,38.71,60.69ZM56.32,70.84c-2,0-3.93,0-5.84-.11,2,2.6,4,5,6,7.19a90.8,90.8,0,0,0,5.86-7.21Q59.38,70.85,56.32,70.84ZM76.85,55.37c-.93,1.78-1.89,3.55-2.9,5.29s-2,3.41-3.06,5.08a89.16,89.16,0,0,0,9.31-1.59A91.4,91.4,0,0,0,76.85,55.37Zm-6.6-12.95Q68,38.49,65.44,34.74c-3-.23-6-.35-9.11-.35s-6.12.12-9.09.35q-2.57,3.75-4.84,7.7t-4.25,8.05q2,4.11,4.26,8t4.88,7.74c2.91.19,5.93.28,9,.28s6.18-.1,9.14-.32q2.52-3.78,4.79-7.73h0q2.28-4,4.29-8.08C73.21,47.72,71.77,45,70.25,42.42ZM79.06,10.9c-3.14-1.81-10,.72-17.4,7.13-.79.69-1.55,1.39-2.3,2.11A100.36,100.36,0,0,1,67.8,30.67a104.5,104.5,0,0,1,13.35,2.11q.24-1,.45-2C83.7,20.6,82.4,12.82,79.06,10.9Z" fill="#f2f2f2"/><path d="M56.32,41.49a8.92,8.92,0,1,1-8.91,8.91,8.91,8.91,0,0,1,8.91-8.91Z" fill="#373537"/></g></g></g></g></svg>