<svg xmlns="http://www.w3.org/2000/svg" width="119.36" height="101.91" viewBox="0 0 119.36 101.91"><title>redis</title><g id="f6cbbe76-da77-43fe-b4fb-673854154fe0" data-name="Layer 2"><g id="ac688a41-54ad-43d8-b330-4f8306251ceb" data-name="Services"><g id="a4655153-818c-4e78-a2a2-92bd9a595cc4" data-name="Content 3"><g id="a4014525-d122-4ad0-867a-86986a434119" data-name="Redis"><path d="M114.67,78.5C108.3,81.82,75.31,95.38,68.28,99s-10.92,3.63-16.47,1-40.66-16.84-47-19.86C1.67,78.65,0,77.38,0,76.17V64.11s45.71-10,53.09-12.6,9.94-2.74,16.22-.44,43.83,9.07,50,11.35V74.31c0,1.19-1.43,2.5-4.67,4.19Z" fill="gray"/><path d="M114.68,66.5c-6.37,3.32-39.37,16.89-46.39,20.55s-10.93,3.63-16.48,1-40.66-16.84-47-19.86-6.46-5.11-.25-7.54S45.72,44.5,53.1,41.85s9.94-2.74,16.22-.44S108.4,56.76,114.6,59s6.45,4.15.08,7.46Z" fill="#9b9a9b"/><path d="M114.67,59C108.3,62.3,75.31,75.86,68.28,79.52s-10.92,3.63-16.47,1-40.66-16.84-47-19.86C1.67,59.13,0,57.86,0,56.65V44.59s45.71-10,53.09-12.6,9.94-2.74,16.22-.44,43.83,9.07,50,11.34v11.9c0,1.19-1.43,2.5-4.67,4.19Z" fill="gray"/><path d="M114.68,47c-6.37,3.32-39.37,16.89-46.39,20.55s-10.93,3.63-16.48,1-40.66-16.84-47-19.86-6.46-5.11-.25-7.54S45.72,25,53.1,22.33s9.94-2.75,16.22-.44S108.4,37.24,114.6,39.51s6.45,4.15.08,7.47Z" fill="#9b9a9b"/><path d="M114.67,38.73c-6.37,3.32-39.36,16.89-46.39,20.55s-10.92,3.62-16.47,1S11.15,43.42,4.83,40.4C1.67,38.88,0,37.61,0,36.41V24.34s45.71-9.95,53.09-12.59S63,9,69.31,11.3s43.83,9.08,50,11.35V34.54c0,1.19-1.43,2.5-4.67,4.19Z" fill="gray"/><path d="M119.34,22.65v.23c-.18,1.09-1.72,2.32-4.66,3.86-.93.48-2.42,1.19-4.32,2-2.91,1.32-6.77,3-11,4.82L92,36.75c-5.85,2.52-11.74,5-16.35,7.1-3.29,1.46-5.91,2.67-7.39,3.44a30.53,30.53,0,0,1-5.16,2.2,13.6,13.6,0,0,1-5.55.58,17.72,17.72,0,0,1-5.77-1.81c-1.22-.58-3.86-1.72-7.31-3.18-4.53-1.9-10.44-4.35-16.35-6.8L20.23,35c-7.06-2.94-13.11-5.5-15.4-6.59C1.72,26.92.11,25.66,0,24.48v-.14H0c0-1.18,1.52-2.29,4.56-3.48,4.94-1.93,28-11,41-15.95,3.34-1.28,6-2.29,7.52-2.83C60.48-.57,63-.66,69.32,1.64c1.52.56,4.61,1.75,8.5,3.27,4.75,1.85,10.7,4.19,16.46,6.46,9,3.51,17.46,6.85,20.32,7.9,3.14,1.15,4.73,2.2,4.74,3.38Z" fill="#9b9a9b"/><path d="M34.54,18.07c-8.1,0-14.67,2.55-14.67,5.69s6.53,5.67,14.6,5.68h.07c8.08,0,14.64-2.53,14.67-5.66v0C49.21,20.62,42.64,18.07,34.54,18.07ZM65.25,30.29l-13.1,2L41.94,33.87l1.73.72,14,5.8,3.44,1.43,1.39-2,5.85-8.57,1.06-1.55ZM66.31,12l.63-1.52L68.42,7,60.61,9.51,52.34,6.28,55,11.1l0,.07-8.84,3.19L58,15.42l2.92,4.86.79,1.31.56-1.34L64,16.07,74.27,15Z" fill="#f2f2f2"/><path d="M86.38,16.51l16.24,6.42L86.39,29.34V16.52Z" fill="#373537"/><path d="M68.42,23.62l18-7.11,0,12.83L84.64,30,68.42,23.62Z" fill="gray"/></g></g></g></g></svg>