<svg xmlns="http://www.w3.org/2000/svg" width="110.32" height="99.86" viewBox="0 0 110.32 99.86"><title>sketch</title><g id="e1025231-35f2-44c6-b38e-4e02f2124f65" data-name="Layer 2"><g id="b5da5b43-f20a-430f-af85-bfd824046d32" data-name="Services"><g id="a826307d-58fe-427e-b5e2-9cc22c1055e3" data-name="Content 2"><g id="a33b8858-c1d9-4614-9851-64f98aa9f16b" data-name="Sketch"><g id="fe0d8bc6-39af-4876-af39-3f90ebdacaf4" data-name="Page-1"><g id="e1556c83-d97b-4c53-b3a5-cb0eaf732e1b" data-name="sketch-symbol"><polygon points="110.32 35.6 110.29 35.63 101 46.45 55.2 99.79 55.16 99.83 55.12 99.79 0.03 35.63 0 35.6 23.07 4.63 24.07 3.29 55.16 0 86.25 3.29 87.25 4.63 101 23.09 110.32 35.6" fill="#fdb300"/><g id="ac612fe7-2da5-4a16-8ee3-bf84783767f2" data-name="Group"><polygon id="ae8717c1-a809-477a-a702-2cfcd641dd3f" data-name="Path" points="22.35 35.63 55.16 99.86 0 35.63 22.35 35.63" fill="gray"/><polygon id="b9541b54-19be-4c87-bf21-71d8bb79ecde" data-name="Path" points="87.98 35.63 55.16 99.86 110.32 35.63 87.98 35.63" fill="gray"/><polygon id="aa914da9-46eb-4ef5-9744-6d2db487e649" data-name="Path" points="22.35 35.63 87.98 35.63 55.16 99.86 22.35 35.63" fill="#b3b3b3"/></g><g id="fded4920-815f-458a-ae16-2c3f2a32c0fb" data-name="Group"><polygon id="f6ba22c7-45ea-43d2-bef3-73cd248563b5" data-name="Path" points="55.16 0 24.07 3.29 22.35 35.6 55.16 0" fill="#cccbcc"/><polygon id="a3faaa82-01a8-48c6-a00f-b276a6360513" data-name="Path" points="55.16 0 86.25 3.29 87.98 35.6 55.16 0" fill="#cccbcc"/><polygon id="b6eacb6c-2a62-44dc-a112-d003a6821c26" data-name="Path" points="110.32 35.63 86.25 3.32 87.98 35.63 110.32 35.63" fill="#b3b3b3"/><polygon id="aa2c0aee-254d-47b8-bd94-82b7abb2d614" data-name="Path" points="0 35.63 24.07 3.32 22.35 35.63 0 35.63" fill="#b3b3b3"/><polygon id="b24059fd-e084-464c-b009-fc5e47892243" data-name="Path" points="55.16 0.03 22.35 35.63 87.98 35.63 55.16 0.03" fill="#d8d6d8"/></g></g></g></g></g></g></g></svg>