<svg xmlns="http://www.w3.org/2000/svg" width="98.91" height="98.91" viewBox="0 0 98.91 98.91"><title>symfony</title><g id="b61bdb34-d7b5-4be2-804e-41fcda7952c8" data-name="Layer 2"><g id="a2da6efd-1eaa-44d8-b9f9-a03bfa2386db" data-name="Services"><g id="a7f0341e-3b83-440a-b8c7-5e1a4713a5a3" data-name="Content 3"><g id="fbd8b6ff-73fa-4ebd-9319-0446eb8520a4" data-name="Symfony"><g id="f8682eeb-71c9-4e62-8723-b04c5fba026d" data-name="g10"><g id="b388b198-a695-45e3-bce6-0dcb90f71737" data-name="g12"><path d="M98.91,49.45a49.48,49.48,0,1,1-11-31.07A49.22,49.22,0,0,1,98.91,49.45Z" fill="#373537"/><path id="a024f99f-fb90-43d7-b044-c12c3895a48c" data-name="path16" d="M71.08,18.3c-5,.17-9.41,2.94-12.68,6.77a42.81,42.81,0,0,0-7.75,14.27c-3.1-2.54-5.49-5.83-10.46-7.26A12.78,12.78,0,0,0,28.6,34.2a10.42,10.42,0,0,0-3.55,5.16c-1.49,4.85,1.57,9.17,3,10.72l3,3.26A4.62,4.62,0,0,1,32.45,58a5.61,5.61,0,0,1-7.14,3.29c-1.44-.45-3.5-1.51-3-3a14.3,14.3,0,0,1,.86-1.61,8.13,8.13,0,0,0,.39-1c.59-1.92-.22-4.41-2.27-5s-3.87-.12-4.63,2.34c-.86,2.8.48,7.88,7.66,10.09,8.4,2.59,15.52-2,16.52-8,.64-3.74-1.05-6.52-4.14-10.09l-2.52-2.79a4.6,4.6,0,0,1-.48-6.12C35,34.44,36.91,33.72,40,34.57,44.56,35.8,46.58,39,50,41.49a134.47,134.47,0,0,0-3.13,13.28l-.51,3.07c-2.41,12.66-4.25,19.61-9,23.6a7.72,7.72,0,0,1-4.42,1.78,1.27,1.27,0,0,1-1.46-1c0-.76.62-1.11,1.05-1.46A2.65,2.65,0,0,0,34,77.94a4.2,4.2,0,0,0-4.51-4,5.22,5.22,0,0,0-4.85,5.3c.12,3.5,3.38,6.12,8.29,6,2.63-.09,8.5-1.16,14.28-8,6.73-7.88,8.61-16.91,10-23.52l1.58-8.73a26.72,26.72,0,0,0,2.83.2C70,45.29,74.22,41,74.28,37.79,74.32,35.88,73,34,71.21,34a3.51,3.51,0,0,0-3.32,2.7c-.38,1.76,2.67,3.35.29,4.89-1.7,1.1-4.73,1.87-9,1.24L60,38.58c1.59-8.15,3.55-18.17,11-18.41.54,0,2.52,0,2.56,1.33,0,.44-.09.55-.6,1.55a3.59,3.59,0,0,0-.7,2.21c.08,2.08,1.66,3.44,3.95,3.36,3.06-.1,3.94-3.08,3.89-4.61C79.89,20.41,76.1,18.14,71.08,18.3Z" fill="#fff"/></g></g></g></g></g></g></svg>