<svg xmlns="http://www.w3.org/2000/svg" width="101.42" height="101.42" viewBox="0 0 101.42 101.42"><title>wordpress</title><g id="b9453506-eaa8-40d2-8f9e-739a74f75d87" data-name="Layer 2"><g id="f579f0a6-04ad-4e3b-a740-7a620617d9f9" data-name="Services"><g id="e79ab7e6-a4a0-4619-8b5d-4087e32d3939" data-name="Content 3"><g id="b5b847b6-3da6-4017-b21f-13623d84bcb6" data-name="Word Press"><g id="eb5eee49-91cf-432c-a390-320035e43523" data-name="Layer 2"><path d="M7.21,50.71A43.51,43.51,0,0,0,31.73,89.86L11,33A43.41,43.41,0,0,0,7.21,50.71Z" fill="#373537"/><path d="M80.08,48.51a22.84,22.84,0,0,0-3.59-12c-2.2-3.59-4.27-6.62-4.27-10.21a7.53,7.53,0,0,1,7.3-7.72c.2,0,.38,0,.57,0a43.5,43.5,0,0,0-65.73,8.19c1,0,2,.05,2.8.05,4.55,0,11.6-.55,11.6-.55A1.8,1.8,0,0,1,29,29.9s-2.36.28-5,.41L39.9,77.43l9.52-28.55L42.64,30.31c-2.34-.13-4.56-.41-4.56-.41-2.35-.14-2.07-3.72.27-3.59,0,0,7.19.56,11.46.56,4.55,0,11.6-.56,11.6-.56a1.8,1.8,0,0,1,.27,3.59s-2.36.28-5,.41L72.43,77.08l4.34-14.5C78.65,56.56,80.08,52.24,80.08,48.51Z" fill="#373537"/><path d="M51.47,54.51l-13,37.93a43.62,43.62,0,0,0,26.74-.69,3.41,3.41,0,0,1-.31-.6Z" fill="#373537"/><path d="M88.88,29.84a32.75,32.75,0,0,1,.3,4.47,41.06,41.06,0,0,1-3.31,15.58L72.58,88.31a43.5,43.5,0,0,0,16.3-58.47Z" fill="#373537"/><path d="M50.71,0a50.71,50.71,0,1,0,50.71,50.71A50.77,50.77,0,0,0,50.71,0Zm0,99.1A48.39,48.39,0,1,1,99.09,50.71,48.44,48.44,0,0,1,50.71,99.1Z" fill="#373537"/></g></g></g></g></g></svg>