<svg xmlns="http://www.w3.org/2000/svg" width="101.25" height="99" viewBox="0 0 101.25 99"><title>xd</title><g id="a30d3f4b-bce2-4c00-be9c-6561b4212c5d" data-name="Layer 2"><g id="b3c2e1dc-a3b2-4cb1-a23e-0bd4f4965773" data-name="Services"><g id="b4b5bad2-0fb3-44df-81e3-5746d602444c" data-name="Content 2"><g id="f53cd95e-0528-4864-9533-800d61773110" data-name="Adobe XD"><g id="b67ecc9a-b8a6-4431-94e8-f76987c4fbea" data-name="XD logo on hover"><rect x="4.22" y="4.23" width="92.81" height="90.54" fill="#373537"/><path d="M0,0V99H101.25V0ZM4.22,4.23H97V94.77H4.22Z" fill="#9b9a9b"/><path d="M73.45,41.46A5.89,5.89,0,0,0,71,41c-5.31,0-8.86,4.1-8.86,10.91,0,7.79,3.63,10.92,8.36,10.92a7.94,7.94,0,0,0,2.91-.47V41.46ZM54.61,52.59C54.61,42.73,60.9,35,71.22,35a17.42,17.42,0,0,1,2.19.09v-11a.42.42,0,0,1,.42-.43h6.75c.34,0,.42.13.42.34V62.7a30.46,30.46,0,0,0,.21,4.15c0,.29,0,.33-.25.46a24.89,24.89,0,0,1-10.74,2.46C61.11,69.77,54.61,64.1,54.61,52.59ZM40.25,45.33l11.8,23c.21.33.09.67-.25.67H44.42a.82.82,0,0,1-.88-.54q-4-8.31-8.19-17.23H35.2c-2.52,5.63-5.28,11.76-8,17.31a.8.8,0,0,1-.76.46h-7c-.42,0-.47-.34-.25-.59l11.55-22.3L19.58,23.9a.37.37,0,0,1,.29-.63h7.24c.42,0,.63.08.76.47,2.66,5.64,5.37,11.19,7.91,16.88h.08C38.31,35,41,29.38,43.6,23.82c.21-.34.34-.55.76-.55h6.77c.33,0,.46.25.25.63Z" fill="#9b9a9b"/></g></g></g></g></g></svg>