<svg width="1236.15" height="610.71" xmlns="http://www.w3.org/2000/svg" xmlns:xlink="http://www.w3.org/1999/xlink" viewBox="0 0 1236.15 610.71"><defs><linearGradient id="bcccf9cd-47e0-46e6-a81c-2591942f5428" x1="618.08" y1="604.57" x2="618.08" gradientUnits="userSpaceOnUse"><stop offset="0" stop-color="#92a0da"/><stop offset="1" stop-color="#92a0da" stop-opacity="0.11"/></linearGradient></defs><title>calendar-illustration</title><g id="aef13fa0-c370-4f09-8de1-44840816468a" data-name="Layer 2"><g id="b19aed6f-1ec9-4b24-9aeb-3b6f7d05bec6" data-name="Шар 1"><g id="a7680ba5-5588-47b1-b167-95c8a84d993c" data-name="Content2"><path d="M1236.15,539.94v27.95a36.68,36.68,0,0,1-36.67,36.68H36.67A36.68,36.68,0,0,1,0,567.89v-26a321.5,321.5,0,0,1,1.75-33.75C12.3,406.46,69.83,328.74,139.22,328.74c.95,0,1.9,0,2.85,0a37.17,37.17,0,0,0,35.45-22.31c43.91-101.71,119.25-168.8,204.84-168.8,26.77,0,52.55,6.57,76.67,18.71A36.62,36.62,0,0,0,506.45,143C561.59,54.86,639.23,0,725.23,0,836.3,0,933.41,91.51,986.16,228a36.63,36.63,0,0,0,40.05,23,126.25,126.25,0,0,1,20.16-1.63c97.79,0,178.3,113.25,188.65,258.78Q1236.13,523.81,1236.15,539.94Z" style="fill:url(#bcccf9cd-47e0-46e6-a81c-2591942f5428)"/><path d="M882,262.4c-33.52,78-56.2,188.07-46.23,342.17H798c-2.42-11.3-42.4-198.75-30.37-261.58,5.76-30.06,21.48-73.1,50.43-108.93a199.49,199.49,0,0,1,19.52-21c39.08-36.25,67.18-41.31,91.43-33.81A418.76,418.76,0,0,0,882,262.4Z" style="fill:#3e65fc"/><path d="M985.88,296.77c-1,17.65-4.33,34.39-10.36,46.22-16.24,31.83-54.54,92.71-67.68,126-.24.62-.49,1.25-.74,1.91-7.32,19.38-17.54,59-25.15,90.24-4,16.51-7.31,30.65-9.05,38.19h0c-.59,2.62-1,4.44-1.2,5.28h-36c-10-154.1,12.71-264.21,46.23-342.17A418.76,418.76,0,0,1,929,179.28c1.55.47,3.08,1,4.6,1.57,16.86,6.4,34.67,28.15,41.9,43.51C983.53,241.38,987.37,270.12,985.88,296.77Z" style="fill:#698cf9"/><path d="M907.1,470.85c-5.12,38.64-6.9,83-3.93,133.72H874c-.3-1.51-.68-3.27-1.09-5.28h0c-7.25-35.52-28.31-145.13-20.55-185.67A197,197,0,0,1,882,343,156.62,156.62,0,0,1,904.9,316c29.39-27.24,50.49-31.05,68.72-25.41C945.42,328.91,918.3,386.31,907.1,470.85Z" style="fill:#2f5ff7"/><path d="M1008.55,413.61q-1,1.89-2.07,4c-13.11,24.73-39.43,67-48.78,90.67-2.08,5.24-4.5,12.9-7,21.69-7.36,25.54-15.63,60.73-18.84,74.64H903.17c-3-50.76-1.19-95.08,3.93-133.72,11.2-84.54,38.32-141.94,66.52-180.26,1.16.36,2.31.76,3.45,1.18a37.49,37.49,0,0,1,8.81,5c9.63,7.12,18.5,18.83,22.67,27.7C1018.55,345.72,1019.92,391.32,1008.55,413.61Z" style="fill:#648bed"/><path d="M400.94,507.42c0,.84,0,1.69-.06,2.53s0,1.75-.06,2.61l-.07,2.44c0,1.69-.1,3.36-.15,5,0,.83-.05,1.66-.08,2.49-.14,4.23-.29,8.4-.48,12.49-.06,1.56-.13,3.1-.19,4.64-.09,1.84-.17,3.64-.25,5.43,0,.82-.08,1.63-.13,2.45s-.07,1.62-.12,2.42-.07,1.6-.12,2.39c-.06,1.17-.12,2.31-.18,3.44s-.11,2.07-.17,3.09-.12,2.28-.18,3.38c-.12,2-.24,4-.35,5.9a1.27,1.27,0,0,0,0,.28c-.08,1.31-.17,2.61-.24,3.87v.06c-.08,1.29-.17,2.54-.24,3.76-.17,2.63-.34,5.13-.5,7.47-.06.93-.12,1.82-.18,2.7-.29,4.12-.56,7.69-.78,10.56-.05.56-.08,1.11-.12,1.6,0,.25,0,.48-.06.71,0,.47-.07.92-.1,1.35l0,.38c0,.45-.08.86-.1,1.24-.08,1.12-.16,1.94-.19,2.43h-48.4c-1.65-3.62-11.52-25.36-22.8-52.2v0c-.22-.48-.42-1-.62-1.45-15.11-36-32.51-80.69-36.15-103.33-.67-4.17-1.43-9.08-2.19-14.52-1.19-8.51-2.36-18.3-3.19-28.49-2.41-29.76-1.77-62.9,10.71-77.68,3.58-4.23,11.63-7.74,20.25-9.75,9.62-2.26,20-2.65,25.64-.14.4.18.81.37,1.21.57s.74.39,1.1.59c.89.49,1.77,1,2.66,1.64l1,.66.22.16c.35.26.7.52,1.05.8.79.62,1.58,1.27,2.37,2l1.1,1a.17.17,0,0,1,.06.06l1.17,1.12c.38.37.77.77,1.16,1.17s.72.74,1.07,1.13l.2.23c.36.37.68.74,1,1.13q2.87,3.24,5.61,7c.42.58.85,1.18,1.26,1.77s.92,1.32,1.38,2,1.13,1.67,1.68,2.52l1.21,1.91c.49.77,1,1.53,1.42,2.31s.93,1.55,1.39,2.34,1,1.67,1.46,2.52.85,1.52,1.27,2.28a289.55,289.55,0,0,1,16.13,35.29c.3.8.6,1.6.89,2.39,0,0,0,0,0,.05.3.8.59,1.6.88,2.4s.58,1.58.85,2.36.51,1.42.75,2.12c.82,2.36,1.58,4.65,2.27,6.82.23.7.45,1.39.66,2.08q1.29,4.13,2.22,7.62C400.93,434.38,401.74,471.26,400.94,507.42Z" style="fill:#648bed"/><path d="M400.94,507.42c0,.84,0,1.69-.06,2.53s0,1.75-.06,2.61l-.07,2.44c0,1.69-.1,3.36-.15,5,0,.83-.05,1.66-.08,2.49-.14,4.23-.29,8.4-.48,12.49-.06,1.56-.13,3.1-.19,4.64-.09,1.84-.17,3.64-.25,5.43,0,.82-.08,1.63-.13,2.45s-.07,1.62-.12,2.42-.07,1.6-.12,2.39c-.06,1.17-.12,2.31-.18,3.44s-.11,2.07-.17,3.09-.12,2.28-.18,3.38c-.12,2-.24,4-.35,5.9a1.27,1.27,0,0,0,0,.28c-.08,1.31-.17,2.61-.24,3.87v.06c-.08,1.29-.17,2.54-.24,3.76-.17,2.63-.34,5.13-.5,7.47-.06.93-.12,1.82-.18,2.7-.29,4.12-.56,7.69-.78,10.56-.05.56-.08,1.11-.12,1.6,0,.25,0,.48-.06.71,0,.47-.07.92-.1,1.35l0,.38c0,.45-.08.86-.1,1.24-.08,1.12-.16,1.94-.19,2.43H370.72c-1.55-26.85-4.43-53.39-8.08-78.86C346.08,410.39,313.4,317.13,313.4,317.13c9.62-2.26,20-2.65,25.64-.14.4.18.81.37,1.21.57s.74.39,1.1.59c.89.49,1.77,1,2.66,1.64l1,.66.22.16c.35.26.7.52,1.05.8.79.62,1.58,1.27,2.37,2l1.1,1a.17.17,0,0,1,.06.06l1.17,1.12c.38.37.77.77,1.16,1.17s.72.74,1.07,1.13l.2.23c.36.37.68.74,1,1.13q2.87,3.24,5.61,7c.42.58.85,1.18,1.26,1.77s.92,1.32,1.38,2,1.13,1.67,1.68,2.52l1.21,1.91c.49.77,1,1.53,1.42,2.31s.93,1.55,1.39,2.34,1,1.67,1.46,2.52.85,1.52,1.27,2.28a289.55,289.55,0,0,1,16.13,35.29c.3.8.6,1.6.89,2.39,0,0,0,0,0,.05.3.8.59,1.6.88,2.4s.58,1.58.85,2.36.51,1.42.75,2.12c.82,2.36,1.58,4.65,2.27,6.82.23.7.45,1.39.66,2.08q1.29,4.13,2.22,7.62C400.93,434.38,401.74,471.26,400.94,507.42Z" style="fill:#2f5ff7"/><path d="M350.21,604.57H308.67c-2.52-5.69-5.76-13.12-9.32-21.49v0c-11.7-27.64-26.71-65.37-29.63-83.67-2.3-14.28-6-40.32-4.42-61.56a91.61,91.61,0,0,1,1.41-11c1.33-6.94,3.54-12.82,6.94-16.86,1.76-2.09,5-3.93,8.79-5.37a49.37,49.37,0,0,1,6.14-1.86c7.11-1.67,14.74-2,18.91-.1,19.1,8.5,36.42,52.38,41.83,72.65C356.58,502.4,352.25,576,350.21,604.57Z" style="fill:#698cf9"/><path d="M350.21,604.57H330.12c-1.31-17.33-3.31-34.4-5.74-50.82h0c-.13-1-.28-1.9-.41-2.84a941.43,941.43,0,0,0-22.15-104.21c-7.39-27.22-13.24-44-13.24-44,7.11-1.67,14.74-2,18.91-.1,19.1,8.5,36.42,52.38,41.83,72.65C356.58,502.4,352.25,576,350.21,604.57Z" style="fill:#3e65fc"/><path d="M1015.43,488.91c-4.7,29.26-40.56,108.39-43.88,115.66H935.78c-.67-8.14-8.66-107.23.05-139.68,5.41-20.17,22.72-63.84,41.81-72.31,4.19-1.84,11.82-1.55,18.92.11,6.35,1.48,12.29,4.07,14.93,7.2,3.54,4.19,5.8,10.39,7.12,17.68C1022.66,439.86,1018.09,472.33,1015.43,488.91Z" style="fill:#698cf9"/><path d="M996.56,392.69s-21,60-33.76,137.24a718,718,0,0,0-8.52,74.64h-18.5c-.67-8.14-8.66-107.23.05-139.68,5.41-20.17,22.72-63.84,41.81-72.31C981.83,390.74,989.46,391,996.56,392.69Z" style="fill:#2f5ff7"/><path d="M1017.9,338.87c-5,19.95-14.69,26.15-24.08,23.78s-14.94-12.4-9.91-32.36,28.14-39.89,28.14-39.89S1022.93,318.92,1017.9,338.87Z" style="fill:#2c4baf"/><path d="M980.37,356.26c10.84,17.49,8.58,28.74.35,33.84s-19.3,2.12-30.14-15.37-9.1-48-9.1-48S969.54,338.78,980.37,356.26Z" style="fill:#2c4baf"/><path d="M1007.07,364.36c-17,11.55-19.54,22.75-14.1,30.76s16.77,9.79,33.79-1.77,27.85-40.09,27.85-40.09S1024.09,352.8,1007.07,364.36Z" style="fill:#2c4baf"/><path d="M1006.34,410.73C986.75,417,981.16,427,984.11,436.24s13.31,14.14,32.91,7.87,38.06-30.57,38.06-30.57S1025.94,404.46,1006.34,410.73Z" style="fill:#2c4baf"/><path d="M1002.66,454c-20.28,3.46-27.21,12.6-25.59,22.14s11.2,15.87,31.48,12.41,42-24.93,42-24.93S1023,450.54,1002.66,454Z" style="fill:#2c4baf"/><path d="M1006,496.06c-20.56-.77-29.22,6.76-29.58,16.43s7.71,17.83,28.27,18.6,46.19-15.82,46.19-15.82S1026.6,496.83,1006,496.06Z" style="fill:#2c4baf"/><path d="M959.21,398.11c17.5,10.82,20.49,21.9,15.4,30.13s-16.34,10.5-33.84-.32-29.53-38.87-29.53-38.87S941.71,387.29,959.21,398.11Z" style="fill:#2c4baf"/><path d="M950,449c19.22,7.34,24.24,17.66,20.79,26.7s-14.07,13.39-33.29,6.05-36.32-32.63-36.32-32.63S930.81,441.67,950,449Z" style="fill:#2c4baf"/><path d="M941.8,496.06c20.57-.77,29.22,6.76,29.58,16.43s-7.71,17.83-28.27,18.6-46.18-15.82-46.18-15.82S921.24,496.83,941.8,496.06Z" style="fill:#2c4baf"/><path d="M992,365.05q-3.19,15.4-6.1,30.87c-2,10.3-3.91,20.61-5.66,30.94s-3.43,20.69-4.48,31.09c-.31,2.6-.4,5.2-.55,7.8l-.11,7.86-.11,7.85c0,1.31-.06,2.62,0,3.93l.1,3.92a364.55,364.55,0,0,0,5.6,62.49,216.61,216.61,0,0,0,7.56,30.44l1.21,3.74,1.38,3.68c.46,1.22.9,2.45,1.4,3.67l1.55,3.6a80.31,80.31,0,0,0,7.51,13.78,80.16,80.16,0,0,1-7.86-13.62l-1.65-3.58c-.53-1.2-1-2.43-1.5-3.64l-1.47-3.66-1.3-3.72a216.4,216.4,0,0,1-8-30.46c-4-20.65-5.68-41.69-6-62.69l-.08-3.94c0-1.32,0-2.63.05-3.94l.14-7.88.14-7.88c.17-2.63.28-5.28.6-7.89,1.13-10.47,2.83-20.83,4.72-31.16S983,406,985.14,395.77,989.62,375.26,992,365.05Z" style="fill:#2c4baf"/><path d="M404.71,265.73c-5,19.95-14.69,26.14-24.07,23.78s-14.95-12.41-9.91-32.36,28.14-39.89,28.14-39.89S409.75,245.78,404.71,265.73Z" style="fill:#2c4baf"/><path d="M367.19,283.12c10.84,17.49,8.58,28.74.35,33.84s-19.31,2.11-30.15-15.38-9.1-48-9.1-48S356.35,265.63,367.19,283.12Z" style="fill:#2c4baf"/><path d="M393.89,291.21c-17,11.56-19.54,22.75-14.11,30.76s16.78,9.8,33.8-1.76,27.85-40.1,27.85-40.1S410.91,279.65,393.89,291.21Z" style="fill:#2c4baf"/><path d="M393.16,337.58c-19.6,6.27-25.18,16.29-22.23,25.51s13.31,14.15,32.91,7.88S441.9,340.4,441.9,340.4,412.76,331.32,393.16,337.58Z" style="fill:#2c4baf"/><path d="M389.48,380.86c-20.29,3.45-27.22,12.59-25.59,22.14s11.19,15.86,31.48,12.41,42-24.94,42-24.94S409.76,377.4,389.48,380.86Z" style="fill:#2c4baf"/><path d="M392.85,422.91c-20.56-.76-29.21,6.77-29.58,16.44s7.72,17.82,28.28,18.59,46.18-15.81,46.18-15.81S413.42,423.68,392.85,422.91Z" style="fill:#2c4baf"/><path d="M346,325c17.5,10.83,20.5,21.9,15.4,30.14s-16.33,10.5-33.83-.32-29.54-38.87-29.54-38.87S328.52,314.14,346,325Z" style="fill:#2c4baf"/><path d="M336.84,375.87c19.23,7.34,24.25,17.65,20.79,26.7s-14.07,13.38-33.29,6S288,376,288,376,317.62,368.53,336.84,375.87Z" style="fill:#2c4baf"/><path d="M328.62,422.91c20.56-.76,29.22,6.77,29.58,16.44s-7.71,17.82-28.27,18.59-46.19-15.81-46.19-15.81S308.06,423.68,328.62,422.91Z" style="fill:#2c4baf"/><path d="M378.81,291.9q-3.19,15.42-6.1,30.87c-2,10.3-3.91,20.61-5.65,31s-3.43,20.69-4.48,31.09c-.31,2.6-.4,5.19-.56,7.8l-.11,7.85-.1,7.86c0,1.31-.06,2.61,0,3.92l.1,3.93a364.33,364.33,0,0,0,5.59,62.48A218.17,218.17,0,0,0,375,509.1l1.21,3.74,1.37,3.67c.47,1.22.91,2.46,1.4,3.67l1.56,3.61a81.33,81.33,0,0,0,7.5,13.78A81.52,81.52,0,0,1,380.22,524l-1.65-3.58c-.52-1.2-1-2.43-1.49-3.65l-1.47-3.65-1.31-3.72a217.9,217.9,0,0,1-8-30.47c-4-20.64-5.68-41.69-6-62.69l-.08-3.94c0-1.31,0-2.63.05-3.94l.14-7.88.14-7.87c.18-2.63.28-5.29.61-7.89,1.12-10.47,2.82-20.84,4.71-31.16s3.95-20.62,6.09-30.89S376.43,302.12,378.81,291.9Z" style="fill:#2c4baf"/><path d="M947.89,522.08l12.53.33a49.72,49.72,0,0,0,2.87-6.18,50.7,50.7,0,0,0,2-6.5l-9.51-8.17a5.82,5.82,0,0,1-.21-8.63l9.09-8.63-5.51-12.42-12.49.95a5.82,5.82,0,0,1-6.26-6l.33-12.53a52,52,0,0,0-6.18-2.87,50.16,50.16,0,0,0-6.5-2L919.9,459a5.8,5.8,0,0,1-8.63.21l-8.62-9.08a50.1,50.1,0,0,0-12.43,5.51l.95,12.49a5.81,5.81,0,0,1-5.95,6.25L872.69,474a51.07,51.07,0,0,0-4.89,12.68l9.51,8.17a5.82,5.82,0,0,1,.21,8.63l-9.09,8.62a50.31,50.31,0,0,0,5.51,12.43l12.5-.95a5.83,5.83,0,0,1,6.25,6l-.33,12.53A50.67,50.67,0,0,0,905,547l8.16-9.51a5.82,5.82,0,0,1,8.64-.21l8.62,9.08,12.43-5.51-.95-12.49A5.81,5.81,0,0,1,947.89,522.08Zm-37.47-8a17.06,17.06,0,1,1,22.05-9.77A17,17,0,0,1,910.42,514.12Z" style="fill:#54cef4"/><rect x="362.64" y="234.06" width="519.31" height="370.5" style="fill:#fff"/><rect x="362.82" y="114.97" width="519.31" height="119.1" style="fill:#808ebc"/><circle cx="622.47" cy="152.01" r="15.4" style="fill:#666"/><circle cx="813.53" cy="152.01" r="15.4" style="fill:#666"/><path d="M324.59,552.35v0c-.08.46-.14.91-.21,1.37h0c-3.08,21.3-7.16,41.84-9,50.82H298.64c.11-1.86.19-3.69.28-5.51s.14-3.6.2-5.39v0c.06-1.74.11-3.45.15-5.15a1.5,1.5,0,0,0,0-.3c.05-1.72.07-3.42.08-5.11v0c0-1.44,0-2.85,0-4.27,0-2.37,0-4.7-.06-7s-.1-4.59-.17-6.83c0-1.13-.08-2.25-.12-3.35s-.1-2.22-.16-3.31-.11-2.2-.18-3.28c-.19-3.07-.39-6.08-.65-9,0-.17,0-.34,0-.52-.09-1-.19-2.08-.28-3.11-.15-1.56-.31-3.1-.48-4.63-.08-.83-.18-1.65-.28-2.48,0-.07,0-.14,0-.2-.18-1.6-.38-3.18-.59-4.75-.38-2.92-.81-5.81-1.27-8.62-.14-.95-.3-1.88-.46-2.8s-.31-1.86-.48-2.77q-.5-2.75-1-5.42c-.17-.89-.36-1.77-.55-2.65-.55-2.64-1.13-5.21-1.75-7.75-.2-.84-.4-1.67-.62-2.5-.63-2.5-1.27-4.92-2-7.31-.21-.76-.43-1.51-.64-2.26-.7-2.34-1.41-4.63-2.15-6.87-.22-.66-.44-1.33-.67-2-.07-.22-.14-.42-.22-.63-.21-.64-.43-1.28-.66-1.93s-.51-1.44-.78-2.16-.41-1.14-.62-1.7c-1.58-4.2-3.23-8.23-4.94-12-.21-.5-.43-1-.65-1.47q-3.56-7.77-7.38-14.49l-.83-1.45c-.55-1-1.12-1.92-1.69-2.85-.28-.48-.56-.94-.85-1.4s-.56-.92-.85-1.37-.53-.86-.81-1.27c-.64-1-1.29-2-1.93-2.94-1.29-1.93-2.58-3.77-3.89-5.54a27.66,27.66,0,0,1,8-1.28c5.6,0,11.78,1.75,18.92,6.26a83.4,83.4,0,0,1,11.95,9.41c1.47,1.37,2.89,2.77,4.24,4.23,14.93,16,22.82,36.93,25.53,51.05C329.59,509.4,327.61,531.14,324.59,552.35Z" style="fill:#2f5ff7"/><path d="M299.38,578.78c0,1.42,0,2.83,0,4.27v0c0,1.69,0,3.39-.08,5.11a1.5,1.5,0,0,1,0,.3c0,1.7-.09,3.41-.15,5.15v0c-.06,1.79-.12,3.58-.2,5.39s-.17,3.65-.28,5.51H282c-2.73-11.75-9.94-42.09-14.35-53.22-5.59-14.15-21.89-40.06-28.8-53.61-6.44-12.62-5.67-38.45,0-50.48,3.07-6.54,10.65-15.8,17.83-18.53.64-.24,1.29-.46,2-.66,1.31,1.77,2.6,3.61,3.89,5.54.64,1,1.29,1.94,1.93,2.94.28.41.54.83.81,1.27s.57.91.85,1.37.57.92.85,1.4c.57.93,1.14,1.88,1.69,2.85l.83,1.45q3.83,6.74,7.38,14.49c.22.48.44,1,.65,1.47,1.71,3.82,3.36,7.85,4.94,12,.21.56.41,1.13.62,1.7s.52,1.43.78,2.16.45,1.28.66,1.93c.08.21.15.41.22.63.23.67.45,1.34.67,2,.74,2.24,1.45,4.53,2.15,6.87.21.74.43,1.49.64,2.26.69,2.39,1.33,4.81,2,7.31.21.83.42,1.66.62,2.5.62,2.54,1.2,5.11,1.75,7.75.18.88.36,1.76.55,2.65q.54,2.67,1,5.42c.17.91.32,1.83.48,2.77s.32,1.85.46,2.8c.46,2.81.89,5.7,1.27,8.62.2,1.57.41,3.15.59,4.75,0,.06,0,.13,0,.2.1.83.2,1.65.28,2.48.17,1.53.33,3.07.48,4.63.09,1,.19,2.07.28,3.11,0,.18,0,.35,0,.52.25,3,.46,6,.65,9,.07,1.09.13,2.18.18,3.28s.11,2.2.16,3.31l.12,3.35c.07,2.25.13,4.52.17,6.83S299.38,576.41,299.38,578.78Z" style="fill:#698cf9"/><circle cx="431.42" cy="152.01" r="15.4" style="fill:#64739e"/><path d="M439.86,80.22v67.15a8.59,8.59,0,0,1-8.44,8.6.62.62,0,0,1-.19,0,8.62,8.62,0,0,1-8.61-8.62V80.22a8.63,8.63,0,0,1,8.61-8.62h.19a8.59,8.59,0,0,1,8.44,8.61Z" style="fill:#54cef4"/><path d="M431.42,71.61V156a.62.62,0,0,1-.19,0,8.62,8.62,0,0,1-8.61-8.62V80.22a8.63,8.63,0,0,1,8.61-8.62Z" style="fill:#34a2fb"/><path d="M251.7,422c9.3,12.33,17.78,13.81,23.59,9.44s6.72-12.94-2.57-25.28-31.1-19.4-31.1-19.4S242.41,409.67,251.7,422Z" style="fill:#244189"/><path d="M282.73,423.11c-2.4,15.26,2.44,22.38,9.62,23.51s14-4.16,16.37-19.42-7.67-35.83-7.67-35.83S285.13,407.85,282.73,423.11Z" style="fill:#244189"/><path d="M266.62,436.49c15.14,3,20.14,10.05,18.72,17.17s-8.75,11.66-23.9,8.63-30.95-19.63-30.95-19.63S251.47,433.45,266.62,436.49Z" style="fill:#244189"/><path d="M280.63,468.36c15.39-1.38,22.17,3.93,22.82,11.17s-5.09,13.66-20.48,15-35.24-10.07-35.24-10.07S265.25,469.73,280.63,468.36Z" style="fill:#244189"/><path d="M295.79,497.22c15-3.52,22.5.79,24.15,7.86s-3.12,14.25-18.16,17.76-36.3-5-36.3-5S280.75,500.74,295.79,497.22Z" style="fill:#244189"/><path d="M305.71,527.31c14-6.53,22.18-3.84,25.25,2.75s-.14,14.58-14.14,21.1-36.57,2.51-36.57,2.51S291.7,533.83,305.71,527.31Z" style="fill:#244189"/><path d="M309.57,445.89c-9,12.59-7.8,21.12-1.88,25.34s14.36,2.5,23.32-10.08,9.1-35.5,9.1-35.5S318.52,433.31,309.57,445.89Z" style="fill:#244189"/><path d="M330.75,478.44c-11.16,10.67-11.63,19.28-6.61,24.53s13.64,5.16,24.8-5.52,15.62-33.16,15.62-33.16S341.91,467.76,330.75,478.44Z" style="fill:#244189"/><path d="M350.15,508.59c-14.45,5.46-18.25,13.19-15.68,20s10.53,10.08,25,4.62,27.34-24.4,27.34-24.4S364.6,503.13,350.15,508.59Z" style="fill:#244189"/><path d="M277.25,432.57q6.93,9.57,13.69,19.26t13.22,19.59c4.31,6.59,8.51,13.27,12.34,20.18,1,1.71,1.83,3.52,2.71,5.29l2.4,5.41c1.56,3.62,3.27,7.17,4.66,10.87a264.56,264.56,0,0,1,14.13,45.11,162.25,162.25,0,0,1,3.33,23.42l.18,2.95,0,3c0,1,.05,2,0,3l-.1,3a60.71,60.71,0,0,1-1.47,11.71,60,60,0,0,0,1.18-11.72l0-2.95c0-1-.07-2-.1-3l-.12-2.94-.25-2.94a164.88,164.88,0,0,0-3.64-23.27,274.23,274.23,0,0,0-14.34-44.86c-1.37-3.68-3.06-7.24-4.6-10.85l-2.36-5.41c-.87-1.75-1.69-3.52-2.66-5.23-3.76-6.89-8-13.55-12.16-20.2s-8.55-13.22-12.93-19.77S281.71,439.06,277.25,432.57Z" style="fill:#244189"/><rect x="667.71" y="114.97" width="214.41" height="119.1" style="fill:#92a0da;opacity:0.5"/><circle cx="622.47" cy="152.01" r="15.4" style="fill:#64739e"/><path d="M630.92,80.22v67.15a8.59,8.59,0,0,1-8.45,8.6.55.55,0,0,1-.18,0,8.62,8.62,0,0,1-8.61-8.62V80.22a8.63,8.63,0,0,1,8.61-8.62h.18a8.61,8.61,0,0,1,8.45,8.61Z" style="fill:#54cef4"/><path d="M622.47,71.61V156a.55.55,0,0,1-.18,0,8.62,8.62,0,0,1-8.61-8.62V80.22a8.63,8.63,0,0,1,8.61-8.62Z" style="fill:#34a2fb"/><circle cx="813.53" cy="152.01" r="15.4" style="fill:#64739e"/><path d="M822,80.22v67.15a8.59,8.59,0,0,1-8.44,8.6.55.55,0,0,1-.18,0,8.62,8.62,0,0,1-8.62-8.62V80.22a8.63,8.63,0,0,1,8.62-8.62h.18A8.59,8.59,0,0,1,822,80.22Z" style="fill:#54cef4"/><path d="M813.53,71.61V156a.55.55,0,0,1-.18,0,8.62,8.62,0,0,1-8.62-8.62V80.22a8.63,8.63,0,0,1,8.62-8.62Z" style="fill:#34a2fb"/><rect x="398.57" y="287.54" width="55.44" height="55.44" style="fill:#aebded"/><rect x="475.28" y="287.54" width="55.44" height="55.44" style="fill:#aebded"/><rect x="552" y="287.54" width="55.44" height="55.44" style="fill:#aebded"/><rect x="628.71" y="287.54" width="55.44" height="55.44" style="fill:#92a0da"/><rect x="705.43" y="287.54" width="55.44" height="55.44" style="fill:#aebded"/><rect x="782.14" y="287.54" width="55.44" height="55.44" style="fill:#aebded"/><rect x="398.57" y="364.38" width="55.44" height="55.44" style="fill:#aebded"/><rect x="475.28" y="364.38" width="55.44" height="55.44" style="fill:#92a0da"/><rect x="552" y="364.38" width="55.44" height="55.44" style="fill:#aebded"/><path d="M503.22,201.45l5.87.15a23.81,23.81,0,0,0,1.35-2.89,24.92,24.92,0,0,0,.95-3.05l-4.46-3.83a2.73,2.73,0,0,1-.1-4.05l4.26-4-2.58-5.82-5.86.44a2.73,2.73,0,0,1-2.93-2.79l.15-5.87a23.13,23.13,0,0,0-5.94-2.29l-3.83,4.45a2.71,2.71,0,0,1-4,.1l-4-4.26a23.8,23.8,0,0,0-5.83,2.59l.44,5.85a2.71,2.71,0,0,1-2.79,2.93l-5.87-.15a23.76,23.76,0,0,0-1.34,2.89,23.3,23.3,0,0,0-.95,3.05l4.46,3.83a2.73,2.73,0,0,1,.09,4.05l-4.25,4a23.33,23.33,0,0,0,2.58,5.82l5.85-.44a2.72,2.72,0,0,1,2.93,2.79l-.15,5.87a23.27,23.27,0,0,0,2.9,1.35,22.65,22.65,0,0,0,3,.94l3.83-4.45a2.72,2.72,0,0,1,4.05-.1l4,4.26,5.82-2.59-.44-5.85A2.73,2.73,0,0,1,503.22,201.45Zm-17.56-3.73A8,8,0,1,1,496,193.14,8,8,0,0,1,485.66,197.72Z" style="fill:#6bdff9"/><rect x="628.71" y="364.38" width="55.44" height="55.44" style="fill:#92a0da"/><rect x="705.43" y="364.38" width="55.44" height="55.44" style="fill:#92a0da"/><rect x="782.14" y="364.38" width="55.44" height="55.44" style="fill:#aebded"/><rect x="398.57" y="441.21" width="55.44" height="55.44" style="fill:#aebded"/><rect x="475.28" y="441.21" width="55.44" height="55.44" style="fill:#92a0da"/><rect x="552" y="441.21" width="55.44" height="55.44" style="fill:#aebded"/><rect x="628.71" y="441.21" width="55.44" height="55.44" style="fill:#aebded"/><rect x="705.43" y="441.21" width="55.44" height="55.44" style="fill:#aebded"/><rect x="782.14" y="441.21" width="55.44" height="55.44" style="fill:#92a0da"/><rect x="398.57" y="518.05" width="55.44" height="55.44" style="fill:#aebded"/><rect x="475.28" y="518.05" width="55.44" height="55.44" style="fill:#aebded"/><rect x="552" y="518.05" width="55.44" height="55.44" style="fill:#92a0da"/><rect x="628.71" y="518.05" width="55.44" height="55.44" style="fill:#aebded"/><rect x="705.43" y="518.05" width="55.44" height="55.44" style="fill:#aebded"/><rect x="782.14" y="518.05" width="55.44" height="55.44" style="fill:#aebded"/><path d="M411.33,277.38l14.11,6.71a63.71,63.71,0,0,0,12-12L430.71,258a7.24,7.24,0,0,1,4.12-9.94l14.71-5.24V225.88l-14.71-5.23a7.24,7.24,0,0,1-4.12-9.94l6.7-14.11a63.27,63.27,0,0,0-12-12l-14.11,6.71a7.25,7.25,0,0,1-9.94-4.12l-5.23-14.71a62.48,62.48,0,0,0-17,0L374,187.21a7.26,7.26,0,0,1-10,4.12l-14.1-6.71a62.16,62.16,0,0,0-6.4,5.59A64.29,64.29,0,0,0,338,196.6l6.71,14.11a7.25,7.25,0,0,1-4.13,9.94l-14.71,5.23a63.22,63.22,0,0,0,0,16.94l14.72,5.24a7.24,7.24,0,0,1,4.11,9.94L338,272.11a63,63,0,0,0,5.58,6.39,64.4,64.4,0,0,0,6.39,5.59L364,277.38a7.26,7.26,0,0,1,10,4.12l5.23,14.71h16.94l5.23-14.71A7.26,7.26,0,0,1,411.33,277.38Zm-38.68-28a21.26,21.26,0,1,1,30.06,0A21.26,21.26,0,0,1,372.65,249.39Z" style="fill:#54cef4"/><path d="M537.17,418a93.5,93.5,0,0,0-15.06-15.78c-3.76-3.18-7.66-6.14-11.67-8.92,2.45-4.23,4.72-8.57,6.76-13a93,93,0,0,0,6.91-20.69,93.48,93.48,0,0,0-15.77,15.07c-3.19,3.75-6.15,7.66-8.94,11.67-4.22-2.44-8.56-4.71-13-6.75a93.9,93.9,0,0,0-20.67-6.93,93.79,93.79,0,0,0,15.07,15.76c3.76,3.19,7.66,6.15,11.67,8.94-2.44,4.23-4.71,8.58-6.75,13.06a93.55,93.55,0,0,0-6.93,20.67A93.72,93.72,0,0,0,494.49,416c3.19-3.75,6.16-7.65,8.94-11.66,4.23,2.45,8.57,4.72,13.06,6.76A92.76,92.76,0,0,0,537.17,418Z" style="fill:#2c4baf"/><path d="M845.61,491.62a93.43,93.43,0,0,0-15.06-15.77c-3.76-3.19-7.66-6.15-11.67-8.93q3.68-6.33,6.76-13.05a92.74,92.74,0,0,0,6.91-20.68,92.66,92.66,0,0,0-15.77,15.06q-4.78,5.64-8.94,11.68-6.35-3.68-13.05-6.75a93.55,93.55,0,0,0-20.67-6.93A93.72,93.72,0,0,0,789.19,462c3.76,3.19,7.66,6.16,11.67,8.95-2.45,4.23-4.71,8.57-6.76,13.06a93.9,93.9,0,0,0-6.93,20.67,93.41,93.41,0,0,0,15.76-15.07c3.19-3.76,6.15-7.65,8.94-11.67a146.36,146.36,0,0,0,13,6.77A93,93,0,0,0,845.61,491.62Z" style="fill:#2c4baf"/><circle cx="146.34" cy="423.94" r="34.02" style="fill:#aebded"/><circle cx="1088.01" cy="485.33" r="34.02" style="fill:#aebded"/><circle cx="199.07" cy="481.41" r="24.67" style="fill:#aebded"/><circle cx="69.25" cy="523.69" r="24.67" style="fill:#aebded"/><circle cx="1133.14" cy="404.94" r="24.67" style="fill:#aebded"/><circle cx="1157.81" cy="518.05" r="24.67" style="fill:#aebded"/></g></g></g></svg>