<svg xmlns="http://www.w3.org/2000/svg" width="468.55" height="151.26" viewBox="0 0 468.55 151.26"><title>app-bar</title><g id="f409767c-34ff-4563-9d22-4a3df960db0a" data-name="Layer 2"><g id="b64bd12f-fee5-423f-8ac8-e9e5aeaad985" data-name="Шар 1"><g id="bb168809-51a4-4724-a8da-7c7d02a5d838" data-name="Content 6"><g opacity="0.81"><path d="M468.55,56.5v94.76H0V56.5A56.46,56.46,0,0,1,56.46,0h46.26a7,7,0,0,1,7,7V21.41a18.69,18.69,0,0,0,18.67,18.72H340.08a18.74,18.74,0,0,0,18.73-18.72V7a7,7,0,0,1,7-7h46.21A56.51,56.51,0,0,1,468.55,56.5Z" fill="#fff"/></g><path d="M199.85,114.58h-4.62v-8h-6.84v8h-4.64V95.31h4.64V103h6.84V95.31h4.62Z"/><path d="M209.52,114.85a7.38,7.38,0,0,1-5.34-2,6.77,6.77,0,0,1-2-5.11v-.37a8.82,8.82,0,0,1,.82-3.88,5.92,5.92,0,0,1,2.37-2.6A7.12,7.12,0,0,1,209,100a6.18,6.18,0,0,1,4.76,1.87,7.34,7.34,0,0,1,1.75,5.22v1.73h-8.87a3.22,3.22,0,0,0,1,1.9,3.1,3.1,0,0,0,2.09.69,4,4,0,0,0,3.31-1.49l2,2.41a5.82,5.82,0,0,1-2.36,1.84A8.07,8.07,0,0,1,209.52,114.85ZM209,103.44c-1.3,0-2.08.86-2.33,2.59h4.5v-.34a2.18,2.18,0,0,0-.54-1.66A2.13,2.13,0,0,0,209,103.44Z"/><path d="M225.41,114.58a4.88,4.88,0,0,1-.42-1.28,4.16,4.16,0,0,1-3.44,1.55,5.06,5.06,0,0,1-3.44-1.23,3.87,3.87,0,0,1-1.42-3.07,4,4,0,0,1,1.72-3.53,8.81,8.81,0,0,1,5-1.19h1.38v-.76q0-2-1.71-2a1.4,1.4,0,0,0-1.58,1.57H217a4,4,0,0,1,1.77-3.37,7.46,7.46,0,0,1,4.51-1.29,6.53,6.53,0,0,1,4.33,1.33,4.7,4.7,0,0,1,1.63,3.67v6.34a6.54,6.54,0,0,0,.6,3v.22Zm-2.79-2.91a2.44,2.44,0,0,0,1.38-.36,2.22,2.22,0,0,0,.79-.8v-2.29h-1.3c-1.55,0-2.33.69-2.33,2.09a1.28,1.28,0,0,0,.41,1A1.52,1.52,0,0,0,222.62,111.67Z"/><path d="M231.17,107.32a8.78,8.78,0,0,1,1.47-5.37,4.85,4.85,0,0,1,4.1-2,4.1,4.1,0,0,1,3.23,1.51V94.25h4.48v20.33h-4l-.23-1.53a4.22,4.22,0,0,1-3.49,1.8,4.83,4.83,0,0,1-4.05-2A9,9,0,0,1,231.17,107.32Zm4.46.27q0,3.82,2.23,3.82a2.19,2.19,0,0,0,2.11-1.25v-5.45a2.12,2.12,0,0,0-2.09-1.27c-1.37,0-2.12,1.11-2.24,3.33Z"/><path d="M251.69,114.58h-4.48V94.25h4.48Z"/><path d="M254.4,96.57a2,2,0,0,1,.69-1.56,2.92,2.92,0,0,1,3.57,0,2,2,0,0,1,.69,1.56,2,2,0,0,1-.69,1.56,2.92,2.92,0,0,1-3.57,0A2,2,0,0,1,254.4,96.57Zm4.74,18h-4.47V100.26h4.47Z"/><path d="M266,100.26l.15,1.68a4.87,4.87,0,0,1,4.09-1.94,4.09,4.09,0,0,1,3.34,1.33,6.39,6.39,0,0,1,1.15,4v9.22h-4.48v-9a2.36,2.36,0,0,0-.44-1.59,2,2,0,0,0-1.58-.51,2.13,2.13,0,0,0-1.95,1v10.11H261.8V100.26Z"/><path d="M284.1,114.85a7.37,7.37,0,0,1-5.33-2,6.77,6.77,0,0,1-2-5.11v-.37a8.82,8.82,0,0,1,.81-3.88,6,6,0,0,1,2.38-2.6,7.12,7.12,0,0,1,3.71-.92,6.18,6.18,0,0,1,4.76,1.87,7.34,7.34,0,0,1,1.75,5.22v1.73h-8.87a3.22,3.22,0,0,0,1.05,1.9,3.1,3.1,0,0,0,2.09.69,4,4,0,0,0,3.31-1.49l2,2.41a5.78,5.78,0,0,1-2.37,1.84A8,8,0,0,1,284.1,114.85Zm-.5-11.41c-1.31,0-2.08.86-2.33,2.59h4.5v-.34a2.18,2.18,0,0,0-.54-1.66A2.13,2.13,0,0,0,283.6,103.44Z"/><path d="M42.22,29.88V42H40.79V34.65l.06-3.27h-.07l-1.36,1-1.42,1-.86-1.17,3.54-2.34Z"/><path d="M46.74,40.71l1.89,0h3.62V42h-7L45,40.67c.48-.44,4.06-4.47,4.26-4.76A4.21,4.21,0,0,0,50.53,33a1.82,1.82,0,0,0-2-1.95,1.89,1.89,0,0,0-1.89,1.74l-1.47-.33a3.33,3.33,0,0,1,3.47-2.67C50.77,29.79,52,31,52,32.85A6.09,6.09,0,0,1,50.3,36.8c-.11.13-1.59,1.82-1.74,2s-1.67,1.76-1.82,1.88Z"/><path d="M55.21,32.14a1.15,1.15,0,0,1,1.15,1.17,1.14,1.14,0,0,1-2.28,0A1.14,1.14,0,0,1,55.21,32.14Zm0,7.42a1.14,1.14,0,0,1,1.15,1.17,1.14,1.14,0,1,1-1.15-1.17Z"/><path d="M58.29,36c0-4.23,1.33-6.28,4.06-6.28s3.95,1.94,3.95,6.15S65,42.14,62.22,42.14,58.29,40.19,58.29,36Zm4,4.84c1.87,0,2.5-1.56,2.5-4.84s-.72-5-2.57-5-2.47,1.58-2.47,4.86S60.49,40.84,62.31,40.84Z"/><path d="M73,35.82a2.39,2.39,0,0,1,2.15,2.7c0,2.3-1.41,3.6-3.87,3.6a3.78,3.78,0,0,1-3.43-1.86l1.26-.79a2.59,2.59,0,0,0,2.33,1.37c1.67,0,2.32-.83,2.32-2.24,0-1.56-.91-2.06-2.72-2.06h-.78V35.3h.78c1.67,0,2.33-.78,2.33-2.28a2,2,0,0,0-3.91-.41l-1.43-.26a3.27,3.27,0,0,1,3.41-2.62c2.08,0,3.42,1.12,3.42,3.16A2.69,2.69,0,0,1,73,35.76Z"/><path d="M101.87,88.48A3.48,3.48,0,0,1,98.39,92H56.13a.67.67,0,0,1-.67-.67V85.66a.67.67,0,0,1,.67-.67H98.39A3.48,3.48,0,0,1,101.87,88.48Z" fill="#92a0da"/><path d="M101.87,102.56v5.63a.67.67,0,0,1-.67.67H59a3.49,3.49,0,1,1,0-7H101.2A.67.67,0,0,1,101.87,102.56Z" fill="#92a0da"/><path d="M101.87,122.28a3.48,3.48,0,0,1-3.48,3.48H56.13a.67.67,0,0,1-.67-.67v-5.63a.67.67,0,0,1,.67-.67H98.39A3.49,3.49,0,0,1,101.87,122.28Z" fill="#92a0da"/><rect x="367.52" y="35.93" width="3.63" height="4.64"/><rect x="373.33" y="33.05" width="3.63" height="7.51"/><rect x="379.15" y="30.18" width="3.63" height="10.39"/><rect x="384.96" y="27.31" width="3.63" height="13.26"/><path d="M404.23,30a10.48,10.48,0,0,1,7.45,3.09l2.16-2.16a13.59,13.59,0,0,0-19.22,0l2.16,2.16A10.5,10.5,0,0,1,404.23,30Z"/><path d="M404.23,34.69a5.82,5.82,0,0,1,4.13,1.71l2.27-2.27a9.05,9.05,0,0,0-12.8,0l2.27,2.27A5.82,5.82,0,0,1,404.23,34.69Z"/><path d="M407.41,37.34a4.51,4.51,0,0,0-6.36,0l3.18,3.19Z"/><path d="M442.38,41.27H423.17a3.83,3.83,0,0,1-3.83-3.83V30.06a3.84,3.84,0,0,1,3.83-3.83h19.21a3.84,3.84,0,0,1,3.84,3.83v7.38A3.83,3.83,0,0,1,442.38,41.27ZM423.17,27.65a2.42,2.42,0,0,0-2.42,2.41v7.38a2.43,2.43,0,0,0,2.42,2.42h19.21a2.42,2.42,0,0,0,2.42-2.42V30.06a2.41,2.41,0,0,0-2.42-2.41Z"/><rect x="421.75" y="28.69" width="22.05" height="10.13" rx="1.57"/><path d="M447.19,35.85a2.1,2.1,0,0,0,2.1-2.1h0a2.1,2.1,0,0,0-2.1-2.1Z"/><rect x="343.13" y="84.42" width="102.99" height="41.34" rx="20.67" fill="#3e65fc"/><path d="M366.94,110.83v-14h5a7.11,7.11,0,0,1,4.1,1,3.65,3.65,0,0,1,.9,4.72,3,3,0,0,1-1.46,1.14,3,3,0,0,1,1.68,1.07,3.11,3.11,0,0,1,.58,1.92,3.67,3.67,0,0,1-1.3,3.08,6.14,6.14,0,0,1-3.85,1Zm3.37-8.14h1.75a2.5,2.5,0,0,0,1.58-.41,1.44,1.44,0,0,0,.47-1.16,1.51,1.51,0,0,0-.51-1.28,2.73,2.73,0,0,0-1.64-.39h-1.65Zm0,2.21v3.34h2.2a2.07,2.07,0,0,0,1.4-.41,1.46,1.46,0,0,0,.49-1.18,1.54,1.54,0,0,0-1.73-1.75Z" fill="#fff"/><path d="M385.65,109.71a3.34,3.34,0,0,1-2.77,1.32,3.26,3.26,0,0,1-2.59-1,4.14,4.14,0,0,1-.88-2.85v-6.73h3.24v6.75a1.16,1.16,0,0,0,1.29,1.33,1.7,1.7,0,0,0,1.59-.8v-7.28h3.25v10.38h-3Z" fill="#fff"/><path d="M394.31,97.87v2.58H396v2.25h-1.71v4.75a1.14,1.14,0,0,0,.22.81,1.08,1.08,0,0,0,.83.23,6,6,0,0,0,.81,0v2.31a6.19,6.19,0,0,1-1.83.28,3.4,3.4,0,0,1-2.46-.79,3.22,3.22,0,0,1-.8-2.39V102.7h-1.32v-2.25h1.32V97.87Z" fill="#fff"/><path d="M401.06,97.87v2.58h1.71v2.25h-1.71v4.75a1.19,1.19,0,0,0,.21.81,1.11,1.11,0,0,0,.84.23,6,6,0,0,0,.8,0v2.31a6.13,6.13,0,0,1-1.82.28,3.41,3.41,0,0,1-2.47-.79,3.22,3.22,0,0,1-.79-2.39V102.7H396.5v-2.25h1.33V97.87Z" fill="#fff"/><path d="M403.34,105.55a6,6,0,0,1,.61-2.77,4.35,4.35,0,0,1,1.73-1.87,5.32,5.32,0,0,1,2.66-.65A4.79,4.79,0,0,1,412,101.7a5.59,5.59,0,0,1,1.34,3.93v.12A5.36,5.36,0,0,1,412,109.6a4.78,4.78,0,0,1-3.65,1.43,4.87,4.87,0,0,1-3.56-1.33,5.24,5.24,0,0,1-1.45-3.61Zm3.24.2a3.87,3.87,0,0,0,.45,2.11,1.49,1.49,0,0,0,1.33.67c1.15,0,1.74-.88,1.77-2.66v-.32c0-1.86-.6-2.79-1.79-2.79s-1.66.8-1.75,2.4Z" fill="#fff"/><path d="M417.76,100.45l.1,1.22a3.52,3.52,0,0,1,3-1.41,3,3,0,0,1,2.42,1,4.66,4.66,0,0,1,.83,2.92v6.68h-3.24v-6.55a1.78,1.78,0,0,0-.32-1.16,1.49,1.49,0,0,0-1.15-.36,1.52,1.52,0,0,0-1.41.74v7.33h-3.24V100.45Z" fill="#fff"/></g></g></g></svg>