<svg xmlns="http://www.w3.org/2000/svg" width="221.57" height="46.22" viewBox="0 0 221.57 46.22"><title>body-dropdown-closed</title><g id="b44fa927-6a10-4d0f-9aa2-83b5a334cf9c" data-name="Layer 2"><g id="b550f55a-2e82-49a6-9a2b-2f4fd8f8efd0" data-name="Шар 1"><g id="fcdf5899-5530-4c91-b9c6-9d077bff1d1f" data-name="Content 6"><rect width="221.57" height="46.22" rx="4.13" fill="#d4dae6"/><rect x="4.03" y="4.14" width="170.99" height="37.76" rx="2.41" fill="#fff"/><path d="M199.46,33.57a1,1,0,0,1-1.53,0l-6.49-7.93-5.93-7.24a1,1,0,0,1,.77-1.62h24.83a1,1,0,0,1,.77,1.62L206,25.64Z" fill="#fff"/><path d="M19,29.86V16.08h4.07a5.32,5.32,0,0,1,3.36.91,3.26,3.26,0,0,1,1.14,2.7A3,3,0,0,1,27,21.55a3.26,3.26,0,0,1-1.59,1.13A3.33,3.33,0,0,1,28,26a3.58,3.58,0,0,1-1.17,2.85,4.81,4.81,0,0,1-3.28,1Zm1.16-7.6h3.18a3.58,3.58,0,0,0,2.26-.69,2.36,2.36,0,0,0,.8-1.92,2.32,2.32,0,0,0-.83-2,4.11,4.11,0,0,0-2.5-.63H20.14Zm0,1v5.63h3.49A3.51,3.51,0,0,0,26,28.11,2.66,2.66,0,0,0,26.88,26,2.57,2.57,0,0,0,26,24a3.37,3.37,0,0,0-2.31-.74Z"/><path d="M30,24.59a6,6,0,0,1,.57-2.66,4.31,4.31,0,0,1,4-2.5,4.23,4.23,0,0,1,3.31,1.43,5.56,5.56,0,0,1,1.27,3.8v.24a6,6,0,0,1-.58,2.67,4.23,4.23,0,0,1-1.61,1.83,4.39,4.39,0,0,1-2.37.65,4.21,4.21,0,0,1-3.31-1.44A5.49,5.49,0,0,1,30,24.81Zm1.13.31a4.65,4.65,0,0,0,.95,3,3.06,3.06,0,0,0,2.5,1.18A3,3,0,0,0,37,27.91,4.81,4.81,0,0,0,38,24.8v-.21a5.19,5.19,0,0,0-.43-2.15,3.62,3.62,0,0,0-1.22-1.51,3.13,3.13,0,0,0-1.8-.54,3,3,0,0,0-2.47,1.19,4.79,4.79,0,0,0-1,3.11Z"/><path d="M41,24.64a6.18,6.18,0,0,1,1.06-3.8A3.44,3.44,0,0,1,45,19.43a3.55,3.55,0,0,1,3.16,1.64V15.32h1.12V29.86H48.17l-.05-1.37a3.64,3.64,0,0,1-3.19,1.56,3.44,3.44,0,0,1-2.86-1.43A6.21,6.21,0,0,1,41,24.78Zm1.14.2a5.35,5.35,0,0,0,.79,3.09,2.54,2.54,0,0,0,2.21,1.13,3.05,3.05,0,0,0,3-1.84V22.41a3,3,0,0,0-3-2,2.58,2.58,0,0,0-2.22,1.12A5.71,5.71,0,0,0,42.13,24.84Z"/><path d="M55.46,28.23l3-8.61h1.22l-4.37,12-.23.53A2.75,2.75,0,0,1,52.47,34a3.11,3.11,0,0,1-.87-.13v-.94l.58.06a2.11,2.11,0,0,0,1.35-.41,3.12,3.12,0,0,0,.88-1.42l.5-1.38L51,19.62h1.24Z"/><path d="M74.58,29.86H66V29l4.72-5.36A12.07,12.07,0,0,0,72.3,21.4a3.67,3.67,0,0,0,.46-1.72A2.76,2.76,0,0,0,72,17.62a2.85,2.85,0,0,0-2.11-.77,3,3,0,0,0-2.25.89,3.21,3.21,0,0,0-.85,2.31H65.65a4.46,4.46,0,0,1,.52-2.12,3.93,3.93,0,0,1,1.5-1.5,4.47,4.47,0,0,1,2.21-.54,4.19,4.19,0,0,1,3,1,3.54,3.54,0,0,1,1.06,2.71,4.6,4.6,0,0,1-.6,2.11,15.61,15.61,0,0,1-2.11,2.86L67.34,28.9h7.24Z"/></g></g></g></svg>