<svg xmlns="http://www.w3.org/2000/svg" width="191.5" height="139.62" viewBox="0 0 191.5 139.62"><title>body-buttons</title><g id="a712e695-b657-45ee-9cc1-75cd8d4dbc8f" data-name="Layer 2"><g id="efe5e413-bc7e-4c6a-a77f-858240a5577b" data-name="Шар 1"><g id="b9c3394f-fa89-4e10-b112-fedb03fd5814" data-name="Content 6"><rect y="48.81" width="87.61" height="42" fill="#fff" opacity="0.81"/><rect x="83.39" y="43.9" width="108.1" height="51.82" rx="8.19" fill="#3e65fc" opacity="0.81"/><rect width="87.61" height="42" fill="#fff" opacity="0.81"/><path d="M17.53,26.44V13.2h3.91a5.08,5.08,0,0,1,3.23.88,3.12,3.12,0,0,1,1.1,2.59,3,3,0,0,1-.56,1.79,3.14,3.14,0,0,1-1.54,1.08,3.23,3.23,0,0,1,2.57,3.18,3.47,3.47,0,0,1-1.13,2.74,4.7,4.7,0,0,1-3.16,1Zm1.11-7.3H21.7a3.46,3.46,0,0,0,2.17-.66,2.27,2.27,0,0,0,.77-1.85,2.21,2.21,0,0,0-.8-1.88,4,4,0,0,0-2.4-.61h-2.8Zm0,.94V25.5H22a3.39,3.39,0,0,0,2.28-.73,2.56,2.56,0,0,0,.84-2,2.47,2.47,0,0,0-.8-1.94,3.23,3.23,0,0,0-2.23-.72Z"/><path d="M28.08,21.38a5.76,5.76,0,0,1,.56-2.56,4.12,4.12,0,0,1,1.55-1.77,4.2,4.2,0,0,1,2.28-.63,4,4,0,0,1,3.18,1.38,5.26,5.26,0,0,1,1.22,3.65v.23a5.83,5.83,0,0,1-.55,2.57A4.16,4.16,0,0,1,34.77,26a4.28,4.28,0,0,1-2.28.61,4,4,0,0,1-3.18-1.37,5.3,5.3,0,0,1-1.23-3.66Zm1.1.3a4.44,4.44,0,0,0,.91,2.89,2.93,2.93,0,0,0,2.4,1.14,2.89,2.89,0,0,0,2.38-1.14,4.59,4.59,0,0,0,.92-3v-.21a5,5,0,0,0-.42-2.07,3.4,3.4,0,0,0-1.17-1.45,3,3,0,0,0-1.73-.51,2.9,2.9,0,0,0-2.37,1.14,4.58,4.58,0,0,0-.92,3Z"/><path d="M38.68,21.43a5.88,5.88,0,0,1,1-3.65,3.27,3.27,0,0,1,2.77-1.36,3.42,3.42,0,0,1,3,1.57V12.47h1.09v14h-1l-.05-1.31a3.5,3.5,0,0,1-3.07,1.49,3.29,3.29,0,0,1-2.75-1.36,6,6,0,0,1-1-3.7Zm1.1.19a5.06,5.06,0,0,0,.76,3,2.43,2.43,0,0,0,2.13,1.09,2.91,2.91,0,0,0,2.85-1.78V19.28a2.92,2.92,0,0,0-2.84-1.92,2.46,2.46,0,0,0-2.13,1.08A5.49,5.49,0,0,0,39.78,21.62Z"/><path d="M52.59,24.88l2.87-8.28h1.18l-4.2,11.52-.22.51a2.65,2.65,0,0,1-2.5,1.79,2.87,2.87,0,0,1-.84-.13v-.9l.56.05a2,2,0,0,0,1.3-.39,3.06,3.06,0,0,0,.84-1.36l.48-1.33L48.34,16.6h1.19Z"/><path d="M71,26.44H62.68v-.83l4.54-5.15a11.78,11.78,0,0,0,1.56-2.15,3.58,3.58,0,0,0,.44-1.65,2.68,2.68,0,0,0-.74-2,2.75,2.75,0,0,0-2-.74,2.87,2.87,0,0,0-2.16.86A3.06,3.06,0,0,0,63.47,17H62.39a4.11,4.11,0,0,1,.5-2,3.69,3.69,0,0,1,1.44-1.44A4.24,4.24,0,0,1,66.45,13a4,4,0,0,1,2.84,1,3.38,3.38,0,0,1,1,2.6,4.35,4.35,0,0,1-.58,2,15.15,15.15,0,0,1-2,2.75L64,25.52h7Z"/><rect x="93.64" width="87.61" height="42" fill="#fff" opacity="0.81"/><path d="M111.17,26.44V13.2h3.91a5.08,5.08,0,0,1,3.23.88,3.12,3.12,0,0,1,1.1,2.59,3,3,0,0,1-.56,1.79,3.14,3.14,0,0,1-1.54,1.08,3.23,3.23,0,0,1,2.57,3.18,3.47,3.47,0,0,1-1.13,2.74,4.7,4.7,0,0,1-3.16,1Zm1.11-7.3h3.06a3.46,3.46,0,0,0,2.17-.66,2.27,2.27,0,0,0,.77-1.85,2.21,2.21,0,0,0-.8-1.88,4,4,0,0,0-2.4-.61h-2.8Zm0,.94V25.5h3.36a3.39,3.39,0,0,0,2.28-.73,2.56,2.56,0,0,0,.84-2A2.44,2.44,0,0,0,118,20.8a3.19,3.19,0,0,0-2.22-.72Z"/><path d="M121.72,21.38a5.9,5.9,0,0,1,.55-2.56,4.14,4.14,0,0,1,3.84-2.4,4,4,0,0,1,3.18,1.38,5.31,5.31,0,0,1,1.22,3.65v.23a5.83,5.83,0,0,1-.55,2.57A4.16,4.16,0,0,1,128.41,26a4.28,4.28,0,0,1-2.28.61A4,4,0,0,1,123,25.25a5.3,5.3,0,0,1-1.23-3.66Zm1.1.3a4.44,4.44,0,0,0,.91,2.89,2.93,2.93,0,0,0,2.4,1.14,2.89,2.89,0,0,0,2.38-1.14,4.59,4.59,0,0,0,.92-3v-.21a5,5,0,0,0-.42-2.07,3.4,3.4,0,0,0-1.17-1.45,3,3,0,0,0-1.73-.51,2.9,2.9,0,0,0-2.37,1.14,4.58,4.58,0,0,0-.92,3Z"/><path d="M132.32,21.43a5.94,5.94,0,0,1,1-3.65,3.3,3.3,0,0,1,2.78-1.36,3.42,3.42,0,0,1,3,1.57V12.47h1.09v14h-1l0-1.31a3.5,3.5,0,0,1-3.07,1.49,3.29,3.29,0,0,1-2.75-1.36,6,6,0,0,1-1-3.7Zm1.1.19a5.06,5.06,0,0,0,.76,3,2.43,2.43,0,0,0,2.13,1.09,2.91,2.91,0,0,0,2.85-1.78V19.28a2.92,2.92,0,0,0-2.84-1.92,2.46,2.46,0,0,0-2.13,1.08A5.49,5.49,0,0,0,133.42,21.62Z"/><path d="M146.23,24.88l2.87-8.28h1.18l-4.2,11.52-.22.51a2.65,2.65,0,0,1-2.5,1.79,2.87,2.87,0,0,1-.84-.13v-.9l.56.05a2,2,0,0,0,1.3-.39,3.06,3.06,0,0,0,.84-1.36l.48-1.33L142,16.6h1.19Z"/><path d="M164.61,26.44h-8.29v-.83l4.54-5.15a11.78,11.78,0,0,0,1.56-2.15,3.58,3.58,0,0,0,.44-1.65,2.68,2.68,0,0,0-.74-2,2.75,2.75,0,0,0-2-.74,2.87,2.87,0,0,0-2.16.86,3.06,3.06,0,0,0-.82,2.22H156a4.11,4.11,0,0,1,.5-2A3.69,3.69,0,0,1,158,13.54a4.24,4.24,0,0,1,2.12-.52,4,4,0,0,1,2.84,1,3.38,3.38,0,0,1,1,2.6,4.47,4.47,0,0,1-.58,2,14.68,14.68,0,0,1-2,2.75l-3.7,4.17h7Z"/><path d="M17.53,75.25V62h3.91a5.08,5.08,0,0,1,3.23.88,3.12,3.12,0,0,1,1.1,2.59,3,3,0,0,1-.56,1.79,3.08,3.08,0,0,1-1.54,1.08,3.23,3.23,0,0,1,2.57,3.18,3.46,3.46,0,0,1-1.13,2.74,4.7,4.7,0,0,1-3.16,1ZM18.64,68H21.7a3.46,3.46,0,0,0,2.17-.66,2.27,2.27,0,0,0,.77-1.85,2.22,2.22,0,0,0-.8-1.88,4,4,0,0,0-2.4-.6h-2.8Zm0,1v5.41H22a3.39,3.39,0,0,0,2.28-.73,2.56,2.56,0,0,0,.84-2,2.47,2.47,0,0,0-.8-1.94,3.23,3.23,0,0,0-2.23-.71Z"/><path d="M28.08,70.19a5.76,5.76,0,0,1,.56-2.56,4.12,4.12,0,0,1,1.55-1.77,4.2,4.2,0,0,1,2.28-.63,4,4,0,0,1,3.18,1.38,5.26,5.26,0,0,1,1.22,3.65v.23a5.8,5.8,0,0,1-.55,2.57,4.1,4.1,0,0,1-1.55,1.76,4.28,4.28,0,0,1-2.28.62,4,4,0,0,1-3.18-1.38,5.29,5.29,0,0,1-1.23-3.65Zm1.1.3a4.44,4.44,0,0,0,.91,2.89,2.93,2.93,0,0,0,2.4,1.14,2.89,2.89,0,0,0,2.38-1.14,4.59,4.59,0,0,0,.92-3v-.21a5,5,0,0,0-.42-2.07,3.4,3.4,0,0,0-1.17-1.45,3,3,0,0,0-1.73-.51A2.9,2.9,0,0,0,30.1,67.3a4.58,4.58,0,0,0-.92,3Z"/><path d="M38.68,70.24a5.88,5.88,0,0,1,1-3.65,3.27,3.27,0,0,1,2.77-1.36,3.44,3.44,0,0,1,3,1.57V61.28h1.09v14h-1l-.05-1.31a3.51,3.51,0,0,1-3.07,1.5,3.3,3.3,0,0,1-2.75-1.37,6,6,0,0,1-1-3.7Zm1.1.19a5.06,5.06,0,0,0,.76,3,2.43,2.43,0,0,0,2.13,1.09,2.92,2.92,0,0,0,2.85-1.77V68.1a2.91,2.91,0,0,0-2.84-1.92,2.48,2.48,0,0,0-2.13,1.07A5.49,5.49,0,0,0,39.78,70.43Z"/><path d="M52.59,73.69l2.87-8.28h1.18l-4.2,11.52-.22.51a2.65,2.65,0,0,1-2.5,1.79,2.87,2.87,0,0,1-.84-.13v-.9l.56.06a2,2,0,0,0,1.3-.4,3,3,0,0,0,.84-1.36l.48-1.33-3.71-9.76h1.19Z"/><path d="M71,75.25H62.68v-.83l4.54-5.15a11.78,11.78,0,0,0,1.56-2.15,3.57,3.57,0,0,0,.44-1.64,2.69,2.69,0,0,0-.74-2,2.75,2.75,0,0,0-2-.73,2.86,2.86,0,0,0-2.16.85,3.06,3.06,0,0,0-.82,2.22H62.39a4.17,4.17,0,0,1,.5-2,3.69,3.69,0,0,1,1.44-1.44,4.24,4.24,0,0,1,2.12-.52,4,4,0,0,1,2.84,1,3.38,3.38,0,0,1,1,2.6,4.35,4.35,0,0,1-.58,2,15.15,15.15,0,0,1-2,2.75L64,74.34h7Z"/><path d="M111.17,75.25V62h3.91a5.08,5.08,0,0,1,3.23.88,3.12,3.12,0,0,1,1.1,2.59,3,3,0,0,1-.56,1.79,3.08,3.08,0,0,1-1.54,1.08,3.23,3.23,0,0,1,2.57,3.18,3.46,3.46,0,0,1-1.13,2.74,4.7,4.7,0,0,1-3.16,1Zm1.11-7.3h3.06a3.46,3.46,0,0,0,2.17-.66,2.27,2.27,0,0,0,.77-1.85,2.22,2.22,0,0,0-.8-1.88,4,4,0,0,0-2.4-.6h-2.8Zm0,1v5.41h3.36a3.39,3.39,0,0,0,2.28-.73,2.56,2.56,0,0,0,.84-2,2.44,2.44,0,0,0-.81-1.94,3.19,3.19,0,0,0-2.22-.71Z" fill="#fff"/><path d="M121.72,70.19a5.9,5.9,0,0,1,.55-2.56,4.14,4.14,0,0,1,3.84-2.4,4,4,0,0,1,3.18,1.38,5.31,5.31,0,0,1,1.22,3.65v.23a5.8,5.8,0,0,1-.55,2.57,4.1,4.1,0,0,1-1.55,1.76,4.28,4.28,0,0,1-2.28.62A4,4,0,0,1,123,74.06a5.29,5.29,0,0,1-1.23-3.65Zm1.1.3a4.44,4.44,0,0,0,.91,2.89,2.93,2.93,0,0,0,2.4,1.14,2.89,2.89,0,0,0,2.38-1.14,4.59,4.59,0,0,0,.92-3v-.21a5,5,0,0,0-.42-2.07,3.4,3.4,0,0,0-1.17-1.45,3,3,0,0,0-1.73-.51,2.9,2.9,0,0,0-2.37,1.14,4.58,4.58,0,0,0-.92,3Z" fill="#fff"/><path d="M132.32,70.24a5.94,5.94,0,0,1,1-3.65,3.3,3.3,0,0,1,2.78-1.36,3.44,3.44,0,0,1,3,1.57V61.28h1.09v14h-1l0-1.31a3.51,3.51,0,0,1-3.07,1.5,3.3,3.3,0,0,1-2.75-1.37,6,6,0,0,1-1-3.7Zm1.1.19a5.06,5.06,0,0,0,.76,3,2.43,2.43,0,0,0,2.13,1.09,2.92,2.92,0,0,0,2.85-1.77V68.1a2.91,2.91,0,0,0-2.84-1.92,2.48,2.48,0,0,0-2.13,1.07A5.49,5.49,0,0,0,133.42,70.43Z" fill="#fff"/><path d="M146.23,73.69l2.87-8.28h1.18l-4.2,11.52-.22.51a2.65,2.65,0,0,1-2.5,1.79,2.87,2.87,0,0,1-.84-.13v-.9l.56.06a2,2,0,0,0,1.3-.4,3,3,0,0,0,.84-1.36l.48-1.33L142,65.41h1.19Z" fill="#fff"/><path d="M164.61,75.25h-8.29v-.83l4.54-5.15a11.78,11.78,0,0,0,1.56-2.15,3.57,3.57,0,0,0,.44-1.64,2.69,2.69,0,0,0-.74-2,2.75,2.75,0,0,0-2-.73,2.86,2.86,0,0,0-2.16.85,3.06,3.06,0,0,0-.82,2.22H156a4.17,4.17,0,0,1,.5-2A3.69,3.69,0,0,1,158,62.35a4.24,4.24,0,0,1,2.12-.52,4,4,0,0,1,2.84,1,3.38,3.38,0,0,1,1,2.6,4.47,4.47,0,0,1-.58,2,14.68,14.68,0,0,1-2,2.75l-3.7,4.18h7Z" fill="#fff"/><rect y="97.62" width="87.61" height="42" fill="#d4dae6" opacity="0.81"/><path d="M17.53,124.07V110.82h3.91a5.14,5.14,0,0,1,3.23.88,3.13,3.13,0,0,1,1.1,2.59,3,3,0,0,1-.56,1.79,3.09,3.09,0,0,1-1.54,1.09,3.21,3.21,0,0,1,2.57,3.17,3.46,3.46,0,0,1-1.13,2.74,4.66,4.66,0,0,1-3.16,1Zm1.11-7.31H21.7a3.46,3.46,0,0,0,2.17-.66,2.26,2.26,0,0,0,.77-1.84,2.21,2.21,0,0,0-.8-1.88,3.89,3.89,0,0,0-2.4-.61h-2.8Zm0,.95v5.41H22a3.34,3.34,0,0,0,2.28-.73,2.55,2.55,0,0,0,.84-2,2.48,2.48,0,0,0-.8-1.94,3.28,3.28,0,0,0-2.23-.71Z"/><path d="M28.08,119a5.76,5.76,0,0,1,.56-2.56,4.11,4.11,0,0,1,3.83-2.4,4,4,0,0,1,3.18,1.38,5.28,5.28,0,0,1,1.22,3.65v.23a5.8,5.8,0,0,1-.55,2.57,4.1,4.1,0,0,1-1.55,1.76,4.28,4.28,0,0,1-2.28.62,4,4,0,0,1-3.18-1.38,5.29,5.29,0,0,1-1.23-3.65Zm1.1.3a4.47,4.47,0,0,0,.91,2.9,3,3,0,0,0,2.4,1.13,2.91,2.91,0,0,0,2.38-1.13,4.62,4.62,0,0,0,.92-3V119a5,5,0,0,0-.42-2.06,3.43,3.43,0,0,0-1.17-1.46,3,3,0,0,0-1.73-.51,2.9,2.9,0,0,0-2.37,1.14,4.58,4.58,0,0,0-.92,3Z"/><path d="M38.68,119.05a5.9,5.9,0,0,1,1-3.65A3.29,3.29,0,0,1,42.48,114a3.43,3.43,0,0,1,3,1.58v-5.53h1.09v14h-1l-.05-1.31a3.52,3.52,0,0,1-3.07,1.49,3.3,3.3,0,0,1-2.75-1.37,6,6,0,0,1-1-3.7Zm1.1.2a5.1,5.1,0,0,0,.76,3,2.44,2.44,0,0,0,2.13,1.08,2.92,2.92,0,0,0,2.85-1.77v-4.62A2.91,2.91,0,0,0,42.68,115a2.46,2.46,0,0,0-2.13,1.08A5.46,5.46,0,0,0,39.78,119.25Z"/><path d="M52.59,122.5l2.87-8.28h1.18l-4.2,11.52-.22.51a2.65,2.65,0,0,1-2.5,1.79,2.87,2.87,0,0,1-.84-.13V127l.56.06a2,2,0,0,0,1.3-.4,2.94,2.94,0,0,0,.84-1.36l.48-1.33-3.71-9.76h1.19Z"/><path d="M71,124.07H62.68v-.84l4.54-5.15a11.78,11.78,0,0,0,1.56-2.15,3.57,3.57,0,0,0,.44-1.64,2.69,2.69,0,0,0-.74-2,2.75,2.75,0,0,0-2-.73,2.86,2.86,0,0,0-2.16.85,3.06,3.06,0,0,0-.82,2.22H62.39a4.1,4.1,0,0,1,.5-2,3.65,3.65,0,0,1,1.44-1.45,4.35,4.35,0,0,1,2.12-.52,4,4,0,0,1,2.84,1,3.35,3.35,0,0,1,1,2.6,4.38,4.38,0,0,1-.58,2,15.15,15.15,0,0,1-2,2.74L64,123.15h7Z"/><rect x="93.64" y="97.62" width="87.61" height="42" fill="#d4dae6" opacity="0.81"/><path d="M111.17,124.07V110.82h3.91a5.14,5.14,0,0,1,3.23.88,3.13,3.13,0,0,1,1.1,2.59,3,3,0,0,1-.56,1.79,3.09,3.09,0,0,1-1.54,1.09,3.21,3.21,0,0,1,2.57,3.17,3.46,3.46,0,0,1-1.13,2.74,4.66,4.66,0,0,1-3.16,1Zm1.11-7.31h3.06a3.46,3.46,0,0,0,2.17-.66,2.26,2.26,0,0,0,.77-1.84,2.21,2.21,0,0,0-.8-1.88,3.89,3.89,0,0,0-2.4-.61h-2.8Zm0,.95v5.41h3.36a3.34,3.34,0,0,0,2.28-.73,2.55,2.55,0,0,0,.84-2,2.46,2.46,0,0,0-.81-1.94,3.23,3.23,0,0,0-2.22-.71Z"/><path d="M121.72,119a5.9,5.9,0,0,1,.55-2.56,4.33,4.33,0,0,1,1.56-1.77,4.2,4.2,0,0,1,2.28-.63,4,4,0,0,1,3.18,1.38,5.33,5.33,0,0,1,1.22,3.65v.23a5.8,5.8,0,0,1-.55,2.57,4.1,4.1,0,0,1-1.55,1.76,4.28,4.28,0,0,1-2.28.62,4,4,0,0,1-3.18-1.38,5.29,5.29,0,0,1-1.23-3.65Zm1.1.3a4.47,4.47,0,0,0,.91,2.9,3,3,0,0,0,2.4,1.13,2.91,2.91,0,0,0,2.38-1.13,4.62,4.62,0,0,0,.92-3V119a5,5,0,0,0-.42-2.06,3.43,3.43,0,0,0-1.17-1.46,3,3,0,0,0-1.73-.51,2.9,2.9,0,0,0-2.37,1.14,4.58,4.58,0,0,0-.92,3Z"/><path d="M132.32,119.05a6,6,0,0,1,1-3.65,3.32,3.32,0,0,1,2.78-1.36,3.43,3.43,0,0,1,3,1.58v-5.53h1.09v14h-1l0-1.31a3.52,3.52,0,0,1-3.07,1.49,3.3,3.3,0,0,1-2.75-1.37,6,6,0,0,1-1-3.7Zm1.1.2a5.1,5.1,0,0,0,.76,3,2.44,2.44,0,0,0,2.13,1.08,2.92,2.92,0,0,0,2.85-1.77v-4.62a2.91,2.91,0,0,0-2.84-1.92,2.46,2.46,0,0,0-2.13,1.08A5.46,5.46,0,0,0,133.42,119.25Z"/><path d="M146.23,122.5l2.87-8.28h1.18l-4.2,11.52-.22.51a2.65,2.65,0,0,1-2.5,1.79,2.87,2.87,0,0,1-.84-.13V127l.56.06a2,2,0,0,0,1.3-.4,2.94,2.94,0,0,0,.84-1.36l.48-1.33L142,114.22h1.19Z"/><path d="M164.61,124.07h-8.29v-.84l4.54-5.15a11.78,11.78,0,0,0,1.56-2.15,3.57,3.57,0,0,0,.44-1.64,2.69,2.69,0,0,0-.74-2,2.75,2.75,0,0,0-2-.73,2.86,2.86,0,0,0-2.16.85,3.06,3.06,0,0,0-.82,2.22H156a4.1,4.1,0,0,1,.5-2,3.65,3.65,0,0,1,1.44-1.45,4.35,4.35,0,0,1,2.12-.52,4,4,0,0,1,2.84,1,3.35,3.35,0,0,1,1,2.6,4.51,4.51,0,0,1-.58,2,14.68,14.68,0,0,1-2,2.74l-3.7,4.18h7Z"/></g></g></g></svg>