<svg xmlns="http://www.w3.org/2000/svg" width="116" height="47" viewBox="0 0 116 47"><title>button-1</title><g id="e817637a-093c-4634-a9f0-d50205780bb5" data-name="Layer 2"><g id="b3bafded-b099-4433-921d-277b240ece6a" data-name="Шар 1"><g id="aa30afcd-8c01-479c-a72a-ef160c0e4d87" data-name="Content 6"><rect width="116" height="47" rx="23.39" fill="#3e65fc"/><path d="M25.66,30V14.15h5.65a8,8,0,0,1,4.62,1.12,3.74,3.74,0,0,1,1.58,3.26A3.78,3.78,0,0,1,37,20.64a3.21,3.21,0,0,1-1.65,1.28,3.32,3.32,0,0,1,1.89,1.23,3.55,3.55,0,0,1,.66,2.18,4.21,4.21,0,0,1-1.47,3.5A6.88,6.88,0,0,1,32.05,30Zm3.79-9.26h2a2.78,2.78,0,0,0,1.77-.46A1.65,1.65,0,0,0,33.73,19a1.7,1.7,0,0,0-.57-1.44,3,3,0,0,0-1.85-.45H29.45Zm0,2.51v3.8h2.49a2.35,2.35,0,0,0,1.58-.47,1.7,1.7,0,0,0,.55-1.34,1.75,1.75,0,0,0-2-2Z" fill="#fff"/><path d="M46.73,28.75a3.73,3.73,0,0,1-3.12,1.5,3.67,3.67,0,0,1-2.91-1.13,4.78,4.78,0,0,1-1-3.25V18.23h3.64v7.66c0,1,.49,1.52,1.46,1.52a1.9,1.9,0,0,0,1.78-.9V18.23h3.67V30H46.84Z" fill="#fff"/><path d="M56.49,15.29v2.94h1.92v2.55H56.49v5.4a1.4,1.4,0,0,0,.24.93,1.29,1.29,0,0,0,.94.26,4.74,4.74,0,0,0,.91-.07v2.63a6.72,6.72,0,0,1-2.06.32,3.75,3.75,0,0,1-2.77-.9,3.66,3.66,0,0,1-.9-2.71V20.78H51.36V18.23h1.49V15.29Z" fill="#fff"/><path d="M64.09,15.29v2.94H66v2.55H64.09v5.4a1.4,1.4,0,0,0,.24.93,1.27,1.27,0,0,0,.94.26,4.56,4.56,0,0,0,.9-.07v2.63a6.66,6.66,0,0,1-2,.32,3.79,3.79,0,0,1-2.78-.9,3.7,3.7,0,0,1-.89-2.71V20.78H59V18.23h1.49V15.29Z" fill="#fff"/><path d="M66.66,24a7.08,7.08,0,0,1,.68-3.15,4.91,4.91,0,0,1,2-2.12,5.79,5.79,0,0,1,3-.74,5.37,5.37,0,0,1,4.14,1.64,6.32,6.32,0,0,1,1.51,4.47v.13a6.15,6.15,0,0,1-1.51,4.38,5.39,5.39,0,0,1-4.12,1.62,5.46,5.46,0,0,1-4-1.51,6,6,0,0,1-1.63-4.1Zm3.64.23a4.42,4.42,0,0,0,.51,2.4,1.68,1.68,0,0,0,1.5.76c1.3,0,2-1,2-3V24q0-3.18-2-3.18c-1.22,0-1.88.92-2,2.74Z" fill="#fff"/><path d="M82.89,18.23,83,19.61A4,4,0,0,1,86.35,18a3.3,3.3,0,0,1,2.73,1.1A5.34,5.34,0,0,1,90,22.43V30H86.36V22.58A2.06,2.06,0,0,0,86,21.26a1.65,1.65,0,0,0-1.3-.42,1.74,1.74,0,0,0-1.59.86V30H79.48V18.23Z" fill="#fff"/></g></g></g></svg>