<svg xmlns="http://www.w3.org/2000/svg" width="330" height="250" viewBox="0 0 330 250"><title>confirmation-presentation</title><g id="b900030d-c68b-4397-bdd3-4de94162ba12" data-name="Layer 2"><g id="a03b8581-c090-4c08-8e2a-9b7095ac866e" data-name="Шар 1"><g id="b2799454-2788-4a40-995b-0ffc791cf83f" data-name="Content 6"><rect width="330" height="197.34" fill="#34a2fb"/><path d="M105.77,34.41a5.93,5.93,0,0,1-2.16,4.36,7.82,7.82,0,0,1-5.12,1.59A7,7,0,0,1,93,38.14,8.8,8.8,0,0,1,91,32V31a9.88,9.88,0,0,1,.92-4.36,6.68,6.68,0,0,1,2.63-2.9,8.6,8.6,0,0,1,9,.59,6.38,6.38,0,0,1,2.21,4.47h-3.72a3.55,3.55,0,0,0-1-2.42,3.79,3.79,0,0,0-2.55-.74,3.22,3.22,0,0,0-2.79,1.26,6.76,6.76,0,0,0-1,3.93v1.3a7.22,7.22,0,0,0,.89,4.07,3.17,3.17,0,0,0,2.8,1.28,3.82,3.82,0,0,0,2.58-.75,3.29,3.29,0,0,0,1-2.31Z" fill="#fff"/><path d="M107.42,33.63a7.26,7.26,0,0,1,.77-3.38,5.41,5.41,0,0,1,2.22-2.3,6.74,6.74,0,0,1,3.36-.81,6.33,6.33,0,0,1,4.44,1.57,6.2,6.2,0,0,1,1.92,4.3l0,.87a6.49,6.49,0,0,1-1.73,4.71,7,7,0,0,1-9.28,0,6.59,6.59,0,0,1-1.73-4.81Zm3.59.24a4.58,4.58,0,0,0,.72,2.78,2.68,2.68,0,0,0,4.1,0,5,5,0,0,0,.74-3,4.55,4.55,0,0,0-.74-2.76,2.43,2.43,0,0,0-2.06-1,2.39,2.39,0,0,0-2,1A5.08,5.08,0,0,0,111,33.87Z" fill="#fff"/><path d="M125.67,27.37l.12,1.47a4.77,4.77,0,0,1,3.86-1.7,4,4,0,0,1,3.18,1.19,5.34,5.34,0,0,1,1.07,3.56v8.24h-3.59V32a2.15,2.15,0,0,0-.5-1.58,2.32,2.32,0,0,0-1.65-.49,2.51,2.51,0,0,0-2.28,1.23v9h-3.59V27.37Z" fill="#fff"/><path d="M137.6,40.13V29.87h-2v-2.5h2V26.29A4.27,4.27,0,0,1,138.9,23a5.19,5.19,0,0,1,3.63-1.19,8.67,8.67,0,0,1,1.83.24l0,2.64a4.82,4.82,0,0,0-1.09-.11c-1.35,0-2,.6-2,1.81v1h2.68v2.5H141.2V40.13Z" fill="#fff"/><path d="M145.71,24.07a1.63,1.63,0,0,1,.54-1.26,2.14,2.14,0,0,1,1.48-.5,2.09,2.09,0,0,1,1.46.5,1.73,1.73,0,0,1,0,2.53,2.38,2.38,0,0,1-2.92,0A1.62,1.62,0,0,1,145.71,24.07Zm3.82,16.06h-3.6V27.37h3.6Z" fill="#fff"/><path d="M160,30.56a10.78,10.78,0,0,0-1.29-.09,2.66,2.66,0,0,0-2.67,1.31v8.35h-3.59V27.37h3.39l.1,1.52a3.35,3.35,0,0,1,3-1.75,4,4,0,0,1,1.12.15Z" fill="#fff"/><path d="M165.13,27.37l.12,1.43a4.82,4.82,0,0,1,3.86-1.66,3.62,3.62,0,0,1,3.57,1.94,4.67,4.67,0,0,1,4-1.94,4.14,4.14,0,0,1,3.26,1.2A5.38,5.38,0,0,1,181,32v8.15h-3.6V32a2.31,2.31,0,0,0-.45-1.58,2,2,0,0,0-1.58-.51,2.25,2.25,0,0,0-2.24,1.47l0,8.76H169.6V32a2.35,2.35,0,0,0-.46-1.6,2.08,2.08,0,0,0-1.57-.5,2.35,2.35,0,0,0-2.21,1.21v9h-3.59V27.37Z" fill="#fff"/><path d="M191.59,40.13a3.46,3.46,0,0,1-.36-1.15,4.46,4.46,0,0,1-3.4,1.38,5,5,0,0,1-3.27-1.08,3.45,3.45,0,0,1-1.3-2.74,3.53,3.53,0,0,1,1.59-3.11,8.16,8.16,0,0,1,4.58-1.1h1.65V31.6a2,2,0,0,0-.48-1.41,1.91,1.91,0,0,0-1.51-.53,2.24,2.24,0,0,0-1.42.41,1.36,1.36,0,0,0-.52,1.13h-3.59a3.31,3.31,0,0,1,.72-2.05,4.74,4.74,0,0,1,2-1.48,7.73,7.73,0,0,1,3-.53,6.07,6.07,0,0,1,3.94,1.18,4.06,4.06,0,0,1,1.46,3.33v5.53a5.86,5.86,0,0,0,.54,2.75v.2Zm-3-2.37a3.23,3.23,0,0,0,1.46-.34,2.26,2.26,0,0,0,1-.9V34.33h-1.34c-1.8,0-2.76.59-2.87,1.76l0,.2a1.31,1.31,0,0,0,.48,1.05A1.86,1.86,0,0,0,188.62,37.76Z" fill="#fff"/><path d="M201.74,24.23v3.14H204v2.5h-2.3v6.37a1.42,1.42,0,0,0,.29,1,1.49,1.49,0,0,0,1.09.31,5.41,5.41,0,0,0,1-.09v2.59a7.84,7.84,0,0,1-2.17.3q-3.78,0-3.85-3.62V29.87h-2v-2.5h2V24.23Z" fill="#fff"/><path d="M206,24.07a1.63,1.63,0,0,1,.54-1.26,2.12,2.12,0,0,1,1.48-.5,2.09,2.09,0,0,1,1.46.5,1.61,1.61,0,0,1,.55,1.26,1.65,1.65,0,0,1-.55,1.27,2.12,2.12,0,0,1-1.46.5,2.09,2.09,0,0,1-1.46-.5A1.62,1.62,0,0,1,206,24.07Zm3.82,16.06h-3.61V27.37h3.61Z" fill="#fff"/><path d="M212.23,33.63a7.14,7.14,0,0,1,.77-3.38,5.45,5.45,0,0,1,2.21-2.3,6.8,6.8,0,0,1,3.37-.81A6.33,6.33,0,0,1,223,28.71a6.24,6.24,0,0,1,1.92,4.3l0,.87a6.49,6.49,0,0,1-1.72,4.71,7,7,0,0,1-9.28,0,6.55,6.55,0,0,1-1.73-4.81Zm3.59.24a4.58,4.58,0,0,0,.72,2.78,2.68,2.68,0,0,0,4.1,0,5,5,0,0,0,.73-3,4.55,4.55,0,0,0-.73-2.76,2.44,2.44,0,0,0-2.06-1,2.39,2.39,0,0,0-2,1A5.08,5.08,0,0,0,215.82,33.87Z" fill="#fff"/><path d="M230.48,27.37l.11,1.47a4.79,4.79,0,0,1,3.86-1.7,4,4,0,0,1,3.18,1.19,5.29,5.29,0,0,1,1.07,3.56v8.24h-3.59V32a2.15,2.15,0,0,0-.49-1.58A2.37,2.37,0,0,0,233,29.9a2.49,2.49,0,0,0-2.27,1.23v9H227.1V27.37Z" fill="#fff"/><path d="M133.92,93.9V79.31h5a6,6,0,0,1,3.77,1,3.44,3.44,0,0,1,1.26,2.9,2.83,2.83,0,0,1-.61,1.81,4,4,0,0,1-1.67,1.22,3.56,3.56,0,0,1,2,1.26,3.49,3.49,0,0,1,.72,2.21A3.8,3.8,0,0,1,143,92.77a5.73,5.73,0,0,1-3.79,1.13Zm2-8.37H139a3.32,3.32,0,0,0,2.12-.63,2.06,2.06,0,0,0,.8-1.72,2,2,0,0,0-.74-1.75,3.73,3.73,0,0,0-2.25-.55h-3Zm0,1.54v5.25h3.35a3.39,3.39,0,0,0,2.24-.69,2.41,2.41,0,0,0,.81-1.92c0-1.76-1-2.64-3-2.64Z" fill="#fff"/><path d="M146.56,88.37a6.12,6.12,0,0,1,.66-2.86,4.71,4.71,0,0,1,1.84-2,5.1,5.1,0,0,1,2.68-.7,4.92,4.92,0,0,1,3.78,1.54A5.71,5.71,0,0,1,157,88.47v.13a6.15,6.15,0,0,1-.64,2.84,4.68,4.68,0,0,1-1.83,2,5.33,5.33,0,0,1-2.73.7A4.91,4.91,0,0,1,148,92.56a5.67,5.67,0,0,1-1.44-4Zm2,.23a4.51,4.51,0,0,0,.88,2.89,3.1,3.1,0,0,0,4.73,0,4.94,4.94,0,0,0,.88-3.11,4.46,4.46,0,0,0-.9-2.89,2.9,2.9,0,0,0-2.37-1.1,2.85,2.85,0,0,0-2.33,1.09A4.86,4.86,0,0,0,148.52,88.6Z" fill="#fff"/><path d="M158.93,88.39a6.14,6.14,0,0,1,1.25-4,4.38,4.38,0,0,1,6.44-.21V78.51h2V93.9h-1.8l-.09-1.17a4.08,4.08,0,0,1-3.27,1.37,4,4,0,0,1-3.23-1.55,6.17,6.17,0,0,1-1.26-4Zm2,.21a4.65,4.65,0,0,0,.8,2.88,2.64,2.64,0,0,0,2.22,1,2.85,2.85,0,0,0,2.71-1.58V86a2.89,2.89,0,0,0-2.69-1.53,2.66,2.66,0,0,0-2.24,1A5.12,5.12,0,0,0,160.89,88.6Z" fill="#fff"/><path d="M175.35,91.18,178,83.05h2.09l-4.59,12.52c-.72,1.8-1.84,2.7-3.39,2.7l-.37,0-.73-.13v-1.5l.53,0a2.72,2.72,0,0,0,1.54-.38,2.75,2.75,0,0,0,.92-1.39l.43-1.1-4.08-10.73h2.14Z" fill="#fff"/><path d="M197.07,93.9H187V92.56L192.32,87A12.1,12.1,0,0,0,194,84.88a3.31,3.31,0,0,0,.45-1.65,2.52,2.52,0,0,0-.73-1.87,2.59,2.59,0,0,0-1.94-.73,3.11,3.11,0,0,0-2.27.79,2.88,2.88,0,0,0-.8,2.18h-2a4.19,4.19,0,0,1,1.37-3.25,5.22,5.22,0,0,1,3.66-1.24,5,5,0,0,1,3.39,1.06A3.56,3.56,0,0,1,196.36,83q0,2.16-2.89,5.13l-4.12,4.24h7.72Z" fill="#fff"/><rect y="197.34" width="166.27" height="52.66" fill="#54cef4"/><rect x="163.73" y="197.34" width="166.27" height="52.66" fill="#3e65fc"/><path d="M49.62,232.72V215.56h5.91A7.13,7.13,0,0,1,60,216.71a4.07,4.07,0,0,1,1.49,3.42,3.38,3.38,0,0,1-.72,2.13,4.73,4.73,0,0,1-2,1.43,4.21,4.21,0,0,1,2.32,1.48,4.08,4.08,0,0,1,.85,2.6,4.49,4.49,0,0,1-1.58,3.63,6.76,6.76,0,0,1-4.46,1.32ZM52,222.88h3.61a3.9,3.9,0,0,0,2.5-.75,2.42,2.42,0,0,0,.94-2,2.4,2.4,0,0,0-.87-2.06,4.44,4.44,0,0,0-2.65-.64H52Zm0,1.81v6.18h3.94a3.91,3.91,0,0,0,2.63-.82,2.82,2.82,0,0,0,1-2.26c0-2.06-1.18-3.1-3.55-3.1Z" fill="#fff"/><path d="M73.4,231.46A5,5,0,0,1,69.46,233a4.29,4.29,0,0,1-3.27-1.18,5,5,0,0,1-1.14-3.51V220h2.3v8.24c0,1.94.83,2.9,2.48,2.9s2.93-.62,3.51-1.86V220h2.3v12.76H73.45Z" fill="#fff"/><path d="M82.25,216.88V220h2.51v1.69H82.25v7.92a1.72,1.72,0,0,0,.33,1.15,1.44,1.44,0,0,0,1.14.38,5.44,5.44,0,0,0,1.1-.14v1.76a6.94,6.94,0,0,1-1.77.23,2.94,2.94,0,0,1-2.32-.88,3.68,3.68,0,0,1-.78-2.51v-7.91H77.5V220H80v-3.08Z" fill="#fff"/><path d="M90.56,216.88V220h2.51v1.69H90.56v7.92a1.72,1.72,0,0,0,.33,1.15,1.46,1.46,0,0,0,1.15.38,5.36,5.36,0,0,0,1.09-.14v1.76a6.81,6.81,0,0,1-1.76.23,2.94,2.94,0,0,1-2.33-.88,3.68,3.68,0,0,1-.78-2.51v-7.91H85.81V220h2.45v-3.08Z" fill="#fff"/><path d="M94.89,226.22a7.18,7.18,0,0,1,.78-3.37,5.61,5.61,0,0,1,2.16-2.31,6.18,6.18,0,0,1,3.17-.81,5.82,5.82,0,0,1,4.44,1.8,6.71,6.71,0,0,1,1.69,4.8v.15a7.31,7.31,0,0,1-.75,3.35,5.55,5.55,0,0,1-2.15,2.3A6.18,6.18,0,0,1,101,233a5.81,5.81,0,0,1-4.43-1.8,6.68,6.68,0,0,1-1.7-4.77Zm2.32.26a5.27,5.27,0,0,0,1,3.41,3.38,3.38,0,0,0,2.78,1.29,3.35,3.35,0,0,0,2.78-1.31,5.72,5.72,0,0,0,1-3.65,5.25,5.25,0,0,0-1-3.4,3.6,3.6,0,0,0-5.53,0A5.65,5.65,0,0,0,97.21,226.48Z" fill="#fff"/><path d="M112.19,220l.07,1.61a5,5,0,0,1,4-1.84q4.26,0,4.3,4.56v8.43h-2.3v-8.44a2.87,2.87,0,0,0-.66-2,2.78,2.78,0,0,0-2-.66,3.42,3.42,0,0,0-2,.57,3.93,3.93,0,0,0-1.32,1.48v9.09H110V220Z" fill="#fff"/><path d="M211.56,232.72V215.56h5.92a7.15,7.15,0,0,1,4.43,1.15,4.06,4.06,0,0,1,1.48,3.42,3.38,3.38,0,0,1-.72,2.13,4.7,4.7,0,0,1-2,1.43,4.21,4.21,0,0,1,2.32,1.48,4.14,4.14,0,0,1,.85,2.6,4.49,4.49,0,0,1-1.58,3.63,6.76,6.76,0,0,1-4.46,1.32Zm2.39-9.84h3.6a3.91,3.91,0,0,0,2.51-.75,2.45,2.45,0,0,0,.94-2,2.4,2.4,0,0,0-.87-2.06,4.46,4.46,0,0,0-2.65-.64H214Zm0,1.81v6.18h3.94a3.93,3.93,0,0,0,2.63-.82,2.82,2.82,0,0,0,1-2.26c0-2.06-1.19-3.1-3.55-3.1Z" fill="#fff"/><path d="M235.35,231.46a5,5,0,0,1-3.94,1.49,4.3,4.3,0,0,1-3.28-1.18,4.92,4.92,0,0,1-1.13-3.51V220h2.29v8.24c0,1.94.83,2.9,2.49,2.9s2.92-.62,3.5-1.86V220h2.3v12.76H235.4Z" fill="#fff"/><path d="M244.19,216.88V220h2.51v1.69h-2.51v7.92a1.66,1.66,0,0,0,.34,1.15,1.42,1.42,0,0,0,1.14.38,5.44,5.44,0,0,0,1.1-.14v1.76A6.94,6.94,0,0,1,245,233a2.92,2.92,0,0,1-2.32-.88,3.68,3.68,0,0,1-.79-2.51v-7.91h-2.44V220h2.44v-3.08Z" fill="#fff"/><path d="M252.51,216.88V220H255v1.69h-2.51v7.92a1.72,1.72,0,0,0,.33,1.15,1.44,1.44,0,0,0,1.14.38,5.44,5.44,0,0,0,1.1-.14v1.76a6.94,6.94,0,0,1-1.77.23,2.94,2.94,0,0,1-2.32-.88,3.68,3.68,0,0,1-.78-2.51v-7.91h-2.45V220h2.45v-3.08Z" fill="#fff"/><path d="M256.84,226.22a7.18,7.18,0,0,1,.78-3.37,5.61,5.61,0,0,1,2.16-2.31,6.14,6.14,0,0,1,3.16-.81,5.82,5.82,0,0,1,4.44,1.8,6.72,6.72,0,0,1,1.7,4.8v.15a7.31,7.31,0,0,1-.75,3.35,5.55,5.55,0,0,1-2.15,2.3A6.18,6.18,0,0,1,263,233a5.8,5.8,0,0,1-4.43-1.8,6.68,6.68,0,0,1-1.7-4.77Zm2.31.26a5.28,5.28,0,0,0,1,3.41,3.62,3.62,0,0,0,5.56,0,5.72,5.72,0,0,0,1-3.65,5.25,5.25,0,0,0-1-3.4,3.4,3.4,0,0,0-2.79-1.3,3.35,3.35,0,0,0-2.74,1.29A5.65,5.65,0,0,0,259.15,226.48Z" fill="#fff"/><path d="M274.14,220l.07,1.61a5,5,0,0,1,4-1.84q4.26,0,4.3,4.56v8.43h-2.3v-8.44a2.83,2.83,0,0,0-.67-2,2.74,2.74,0,0,0-2-.66,3.42,3.42,0,0,0-2,.57,3.93,3.93,0,0,0-1.32,1.48v9.09H272V220Z" fill="#fff"/></g></g></g></svg>