<svg xmlns="http://www.w3.org/2000/svg" width="220" height="60" viewBox="0 0 220 60"><title>disabled</title><g id="e25c009c-6acd-415c-bed4-7538e573afe6" data-name="Layer 2"><g id="b2253165-8cb5-4067-befc-ee9faa107d64" data-name="Шар 1"><g id="e9791c69-402b-4ee7-9bcb-7cca02fee0e6" data-name="Content 6"><rect width="220" height="60" rx="30" fill="#bdccd4"/><path d="M73.1,34.67V20.87h4.47a6.63,6.63,0,0,1,3.3.83A5.92,5.92,0,0,1,83.16,24,7.09,7.09,0,0,1,84,27.43v.63a7,7,0,0,1-.81,3.4,5.81,5.81,0,0,1-2.26,2.35,6.49,6.49,0,0,1-3.27.86Zm3.34-11.23v8.67H77.6a2.6,2.6,0,0,0,2.21-1,4.94,4.94,0,0,0,.78-3v-.59a4.93,4.93,0,0,0-.78-3,2.65,2.65,0,0,0-2.24-1Z" fill="#fff"/><path d="M85.54,21.77a1.45,1.45,0,0,1,.5-1.12,2.14,2.14,0,0,1,2.57,0,1.44,1.44,0,0,1,.49,1.12,1.41,1.41,0,0,1-.49,1.12,2.1,2.1,0,0,1-2.57,0A1.42,1.42,0,0,1,85.54,21.77ZM89,34.67H85.73V24.42H89Z" fill="#fff"/><path d="M96.33,31.79a.74.74,0,0,0-.43-.65,6.43,6.43,0,0,0-1.63-.52,7.46,7.46,0,0,1-2-.69,3.33,3.33,0,0,1-1.19-1.05,2.43,2.43,0,0,1-.41-1.41,2.84,2.84,0,0,1,1.17-2.33,4.83,4.83,0,0,1,3.07-.91,5.29,5.29,0,0,1,3.27.92,2.84,2.84,0,0,1,1.24,2.41H96.22c0-.82-.43-1.23-1.3-1.23a1.28,1.28,0,0,0-.85.28.88.88,0,0,0-.35.7.8.8,0,0,0,.42.69,3.88,3.88,0,0,0,1.34.43,12.28,12.28,0,0,1,1.62.41,2.91,2.91,0,0,1,2.32,2.85A2.68,2.68,0,0,1,98.17,34a5.58,5.58,0,0,1-3.24.88,5.76,5.76,0,0,1-2.37-.47,4,4,0,0,1-1.62-1.29,3,3,0,0,1-.58-1.72h3a1.25,1.25,0,0,0,.48,1,2,2,0,0,0,1.17.33,1.54,1.54,0,0,0,1-.27A.85.85,0,0,0,96.33,31.79Z" fill="#fff"/><path d="M106.73,34.67a4,4,0,0,1-.3-.92A3,3,0,0,1,104,34.86a3.66,3.66,0,0,1-2.48-.88,2.78,2.78,0,0,1-1-2.2,2.88,2.88,0,0,1,1.24-2.52,6.34,6.34,0,0,1,3.6-.85h1v-.55c0-.94-.41-1.42-1.23-1.42a1,1,0,0,0-1.14,1.13H100.7A2.87,2.87,0,0,1,102,25.15a5.43,5.43,0,0,1,3.25-.92,4.73,4.73,0,0,1,3.11.95,3.34,3.34,0,0,1,1.17,2.63v4.54a4.72,4.72,0,0,0,.44,2.16v.16Zm-2-2.09a1.83,1.83,0,0,0,1-.25,1.54,1.54,0,0,0,.56-.58V30.11h-.93q-1.68,0-1.68,1.5a.89.89,0,0,0,.3.7A1.08,1.08,0,0,0,104.72,32.58Z" fill="#fff"/><path d="M120.85,29.63a6.19,6.19,0,0,1-1,3.87,3.5,3.5,0,0,1-3,1.36,3.09,3.09,0,0,1-2.54-1.24l-.13,1.05H111.3V20.11h3.22v5.13a2.94,2.94,0,0,1,2.31-1,3.53,3.53,0,0,1,3,1.37,6.27,6.27,0,0,1,1,3.87Zm-3.22-.2a4.21,4.21,0,0,0-.39-2.11,1.35,1.35,0,0,0-1.22-.63,1.54,1.54,0,0,0-1.5.82v4.07a1.54,1.54,0,0,0,1.52.81,1.36,1.36,0,0,0,1.44-1.09A8,8,0,0,0,117.63,29.43Z" fill="#fff"/><path d="M125.65,34.67h-3.22V20.11h3.22Z" fill="#fff"/><path d="M132.62,34.86a5.32,5.32,0,0,1-3.84-1.41,4.84,4.84,0,0,1-1.47-3.66v-.27a6.27,6.27,0,0,1,.59-2.77,4.22,4.22,0,0,1,1.71-1.86,5.15,5.15,0,0,1,2.66-.66,4.44,4.44,0,0,1,3.43,1.34A5.24,5.24,0,0,1,137,29.31v1.24h-6.38a2.14,2.14,0,0,0,2.26,1.84,2.89,2.89,0,0,0,2.38-1.06l1.46,1.73a3.94,3.94,0,0,1-1.7,1.31A5.67,5.67,0,0,1,132.62,34.86Zm-.36-8.17c-.95,0-1.5.62-1.68,1.86h3.24V28.3a1.6,1.6,0,0,0-.39-1.19A1.58,1.58,0,0,0,132.26,26.69Z" fill="#fff"/><path d="M137.85,29.47a6.19,6.19,0,0,1,1.06-3.84,3.47,3.47,0,0,1,3-1.4,3,3,0,0,1,2.32,1.08v-5.2h3.22V34.67h-2.88l-.16-1.1a3.06,3.06,0,0,1-2.52,1.29,3.47,3.47,0,0,1-2.91-1.4A6.44,6.44,0,0,1,137.85,29.47Zm3.21.2c0,1.82.53,2.72,1.6,2.72a1.56,1.56,0,0,0,1.52-.89V27.6a1.53,1.53,0,0,0-1.5-.91c-1,0-1.53.8-1.61,2.39Z" fill="#fff"/></g></g></g></svg>