<svg xmlns="http://www.w3.org/2000/svg" width="53.16" height="14.95" viewBox="0 0 53.16 14.95"><title>hover-button</title><g id="b8e903c0-4e51-41a0-b1e9-befe8158e907" data-name="Layer 2"><g id="b77889ac-cf02-4c0d-9dd8-153dd79da6b3" data-name="Шар 1"><g id="a2434361-b05f-4d35-8090-eff69243587d" data-name="Content 6"><path d="M13.21,17.74H10.65V11.2H4.06v6.54H1.5V3H4.06V9.13h6.59V3h2.56Z" transform="translate(-1.5 -3)"/><path d="M15.54,12.16a6.53,6.53,0,0,1,.63-2.9,4.68,4.68,0,0,1,1.8-2,5,5,0,0,1,2.65-.7A4.79,4.79,0,0,1,24.22,8a5.61,5.61,0,0,1,1.49,3.79v.58a6.42,6.42,0,0,1-.62,2.89,4.63,4.63,0,0,1-1.78,2,5.17,5.17,0,0,1-2.68.7,4.75,4.75,0,0,1-3.71-1.55,5.91,5.91,0,0,1-1.39-4.12Zm2.46.22A4.36,4.36,0,0,0,18.7,15a2.43,2.43,0,0,0,3.88,0,4.91,4.91,0,0,0,.69-2.85,4.34,4.34,0,0,0-.71-2.63,2.41,2.41,0,0,0-3.85,0A4.76,4.76,0,0,0,18,12.38Z" transform="translate(-1.5 -3)"/><path d="M31.52,14.62l2.32-7.83h2.54l-3.8,11H30.44L26.62,6.79h2.55Z" transform="translate(-1.5 -3)"/><path d="M42.61,18a5.12,5.12,0,0,1-3.8-1.48,5.33,5.33,0,0,1-1.45-3.92v-.31A6.6,6.6,0,0,1,38,9.31a4.91,4.91,0,0,1,1.78-2,4.68,4.68,0,0,1,2.55-.72A4.31,4.31,0,0,1,45.78,8a6.05,6.05,0,0,1,1.22,4v1H39.84a3.33,3.33,0,0,0,.91,2.15,2.7,2.7,0,0,0,2,.79,3.3,3.3,0,0,0,2.75-1.37l1.33,1.27a4.48,4.48,0,0,1-1.76,1.52A5.49,5.49,0,0,1,42.61,18Zm-.3-9.39a2,2,0,0,0-1.63.71,3.67,3.67,0,0,0-.8,2h4.69v-.18a3,3,0,0,0-.66-1.87A2.06,2.06,0,0,0,42.31,8.56Z" transform="translate(-1.5 -3)"/><path d="M54.65,9a6.63,6.63,0,0,0-1-.08,2.25,2.25,0,0,0-2.28,1.3v7.49H48.91V6.79h2.35L51.32,8a2.76,2.76,0,0,1,2.47-1.43,2.4,2.4,0,0,1,.87.14Z" transform="translate(-1.5 -3)"/></g></g></g></svg>