<svg xmlns="http://www.w3.org/2000/svg" viewBox="0 0 842.18 325.26"><title>icon-set</title><g id="e44e697c-a062-4053-8a14-fdfef73d6e43" data-name="Layer 2"><g id="a8ef5059-c385-45d3-bed4-d91fe761d170" data-name="Шар 1"><g id="af33748d-7d07-4d16-9aac-aa16f44ebbbe" data-name="Content 5"><path d="M283,166.51c0,8.39-3.38,15.31-10,19.93-.74.51-1.51,1-2.32,1.45a24.61,24.61,0,0,1-12.25,3.33,23.25,23.25,0,0,1-11.81-2.94,25.7,25.7,0,0,1-2.62-1.64,23.83,23.83,0,0,1-10.13-20.13c0-14.2,10.35-24.56,24.56-24.56S283,152.31,283,166.51Z" style="fill:#dde4eb"/><path d="M255.55,169.09l-.79,0a5.78,5.78,0,0,0,.72,0H256l.33,0Z" style="fill:#3e65fc"/><path d="M270.05,181.45v0a26.41,26.41,0,0,1-14.57,4.79,23.35,23.35,0,0,1-11.81-2.94,24.5,24.5,0,0,1-2.61-1.64v-.23a.65.65,0,0,1,0-.2,14.39,14.39,0,0,1,10-13,11.1,11.1,0,1,1,8.77,0,14.44,14.44,0,0,1,10.14,13A1.23,1.23,0,0,1,270.05,181.45Z" style="fill:#92a0da"/><path d="M255.49,134a27.52,27.52,0,1,0,12.94,51.79h0l.45-.25a27,27,0,0,0,4-2.72A27.5,27.5,0,0,0,255.49,134Zm16.83,45.65a25.48,25.48,0,0,1-2.27,1.78,26.41,26.41,0,0,1-14.57,4.79A23.36,23.36,0,0,1,244,183.47l-.28-.15a24.5,24.5,0,0,1-2.61-1.64,23.86,23.86,0,0,1-10.14-20.13c0-14.21,10.36-24.56,24.56-24.56s24.57,10.35,24.57,24.56C280.05,168.91,277.44,175.16,272.32,179.69Z" style="fill:#92a0da"/><path d="M6.77,149.9a2.05,2.05,0,0,1,2.05-2h46.5a2.11,2.11,0,0,1,2.1,1.88v33.1a1.94,1.94,0,0,1-1.94,2H9.1a2.33,2.33,0,0,1-2.33-2.34V149.9Z" style="fill:#dde4eb"/><path d="M51.59,140.4H5a5,5,0,0,0-5,5v32.89a5,5,0,0,0,5,5H51.59a5,5,0,0,0,5-5V145.37A5,5,0,0,0,51.59,140.4ZM5,143.35H51.5a2.11,2.11,0,0,1,2.1,1.88L35.13,163.69a8.88,8.88,0,0,1-7,2.86,7.84,7.84,0,0,1-6.58-2.64L3,145.33A2.07,2.07,0,0,1,5,143.35Zm48.61,35a2,2,0,0,1-1.95,1.95H5.29A2.33,2.33,0,0,1,3,178V149.43l16.36,16.35a12.67,12.67,0,0,0,17.94,0l16.37-16.36Z" style="fill:#92a0da"/><path d="M138.87,141.45h19.88c5.16,0,9.34,3.81,9.34,8.51V176.1c0,4.7-4.18,8.51-9.34,8.51H138.87Z" style="fill:#dde4eb"/><path d="M157.68,183.63H139.56a1.49,1.49,0,1,1-.1-3h17.8a6,6,0,0,0,6-6V149a5.58,5.58,0,0,0-5.57-5.57h-18c-2.32.08-2.42-2.87-.11-2.95h18.12a8.51,8.51,0,0,1,8.51,8.51v26.14A8.51,8.51,0,0,1,157.68,183.63Z" style="fill:#92a0da"/><path d="M159.69,164.24a.83.83,0,0,1-.28.61l-22.72,19.51a1.77,1.77,0,0,1-1.15.42,1.76,1.76,0,0,1-1.76-1.76v-8.93H113.09a.82.82,0,0,1-.81-.82V155.2a.81.81,0,0,1,.81-.81h20.69v-8.95a1.76,1.76,0,0,1,2.91-1.32l22.72,19.5A.84.84,0,0,1,159.69,164.24Z" style="fill:#92a0da"/><path d="M157,162.05a.84.84,0,0,1-.28.62L134,182.17a1.69,1.69,0,0,1-1.14.43,1.72,1.72,0,0,1-.73-.16,1.74,1.74,0,0,1-1-1.6V171.9H110.4a.82.82,0,0,1-.82-.81V153a.82.82,0,0,1,.82-.82h20.69v-8.94a1.75,1.75,0,0,1,2.9-1.33l22.73,19.5A.87.87,0,0,1,157,162.05Z" style="fill:#92a0da"/><path d="M396.05,142a4.26,4.26,0,0,1-4.25,4.25H340.3a.82.82,0,0,1-.82-.82v-6.87a.82.82,0,0,1,.82-.81h51.5A4.25,4.25,0,0,1,396.05,142Z" style="fill:#92a0da"/><path d="M396.05,159.19v6.87a.82.82,0,0,1-.81.82H343.73a4.25,4.25,0,0,1,0-8.5h51.51A.81.81,0,0,1,396.05,159.19Z" style="fill:#92a0da"/><path d="M396.05,183.23a4.26,4.26,0,0,1-4.25,4.25H340.3a.82.82,0,0,1-.82-.82V179.8a.82.82,0,0,1,.82-.82h51.5A4.26,4.26,0,0,1,396.05,183.23Z" style="fill:#92a0da"/><path d="M506.17,166.35c0,14.21-10.36,24.57-24.56,24.57S457,180.87,457,166.66s10.35-24.88,24.57-24.88S506.17,152.15,506.17,166.35Z" style="fill:#dde4eb"/><path d="M477.88,134.33a27.53,27.53,0,1,0,27.51,27.53A27.56,27.56,0,0,0,477.88,134.33Zm0,52.09c-14.22,0-24.57-10-24.57-24.26s10.35-24.87,24.57-24.87,24.56,10.36,24.56,24.57S492.08,186.42,477.88,186.42Z" style="fill:#92a0da"/><path d="M481.74,144.45v6.86a.8.8,0,0,1-.81.82h-6.87a.81.81,0,0,1-.81-.82v-6.86a.81.81,0,0,1,.81-.81h6.87A.8.8,0,0,1,481.74,144.45Z" style="fill:#92a0da"/><path d="M485.43,171.4v6.86a.82.82,0,0,1-.82.81h-14.4a.82.82,0,0,1-.82-.81V171.4a.82.82,0,0,1,.82-.82h3v-8.15h-3a.82.82,0,0,1-.82-.82v-6.86a.82.82,0,0,1,.82-.81h10.72a.8.8,0,0,1,.81.81v15.83h2.87A.82.82,0,0,1,485.43,171.4Z" style="fill:#92a0da"/><path d="M603,157.16v7.94H576.76v-7.94a13.12,13.12,0,0,1,26.23,0Z" style="fill:#dde4eb"/><path d="M610.3,163.16h-.81v-8a20.67,20.67,0,1,0-41.34,0v8h-.34a7,7,0,0,0-7,7V183.8a7,7,0,0,0,7,7H610.3a7,7,0,0,0,7-7V170.15A7,7,0,0,0,610.3,163.16Zm-8.75,0H575.33v-7.94a13.11,13.11,0,1,1,26.22,0Z" style="fill:#92a0da"/><polygon points="732.99 144.33 732.99 188.12 682.45 188.01 682.18 144.25 732.99 144.33" style="fill:#dde4eb"/><path d="M731.07,137.14H676.13a.83.83,0,0,0-.83.82V186a.83.83,0,0,0,.83.83h54.94a.83.83,0,0,0,.82-.83V138A.82.82,0,0,0,731.07,137.14ZM728.94,184l-50.55-.11-.27-43.76,50.82.09Z" style="fill:#92a0da"/><path d="M703.66,172.34a11.78,11.78,0,0,0-7.91-10.46,9,9,0,0,0-3.87-17.12h-.4A9,9,0,0,0,688,161.9a11.79,11.79,0,0,0-7.84,10.44.88.88,0,0,0,0,.17V173a.85.85,0,0,0,0,.23,6.77,6.77,0,0,0,6.71,6h10a6.77,6.77,0,0,0,6.71-6,.85.85,0,0,0,0-.23v-.49A.91.91,0,0,0,703.66,172.34Zm-11.74-11.1h0Z" style="fill:#92a0da"/><path d="M691.92,161.24h0Z" style="fill:#3e65fc"/><path d="M725.16,151.65H708.35a.77.77,0,0,1-.76-.77v-2.74a.76.76,0,0,1,.76-.76h16.81a.77.77,0,0,1,.77.76v2.74A.78.78,0,0,1,725.16,151.65Zm-16-1.53H724.4V148.9H709.11Z" style="fill:#92a0da"/><path d="M725.16,159.69H708.35a.76.76,0,0,1-.76-.77v-2.74a.76.76,0,0,1,.76-.76h16.81a.77.77,0,0,1,.77.76v2.74A.77.77,0,0,1,725.16,159.69Zm-16-1.53H724.4V157H709.11Z" style="fill:#92a0da"/><path d="M725.16,167.73H708.35a.76.76,0,0,1-.76-.76v-2.75a.76.76,0,0,1,.76-.76h16.81a.77.77,0,0,1,.77.76V167A.77.77,0,0,1,725.16,167.73Zm-16-1.53H724.4V165H709.11Z" style="fill:#92a0da"/><path d="M725.16,175.77H708.35a.76.76,0,0,1-.76-.76v-2.74a.76.76,0,0,1,.76-.77h16.81a.77.77,0,0,1,.77.77V175A.77.77,0,0,1,725.16,175.77Zm-16-1.52H724.4V173H709.11Z" style="fill:#92a0da"/><path d="M842.18,166.35c0,14.21-10.36,24.57-24.56,24.57s-24.57-10-24.57-24.26,10.35-24.88,24.57-24.88S842.18,152.15,842.18,166.35Z" style="fill:#dde4eb"/><path d="M813.89,134.33a27.53,27.53,0,1,0,27.51,27.53A27.56,27.56,0,0,0,813.89,134.33Zm0,52.09c-14.22,0-24.57-10-24.57-24.26s10.35-24.87,24.57-24.87,24.56,10.36,24.56,24.57S828.09,186.42,813.89,186.42Z" style="fill:#92a0da"/><path d="M831.79,171.88a7.63,7.63,0,0,1-7.24,7.62h-.82a28.05,28.05,0,0,1-27.81-27.86v-.37c0-.14,0-.28,0-.42a7.62,7.62,0,0,1,7.62-7.21,7.71,7.71,0,0,1,1.28.11,7.45,7.45,0,0,1,1.63.47.77.77,0,0,1,.47.58l1.83,11.59a.78.78,0,0,1-.26.7,7.88,7.88,0,0,1-2.79,1.5,20,20,0,0,0,4.29,6.58h0a19.85,19.85,0,0,0,6.81,4.54,7.47,7.47,0,0,1,1.69-3,.72.72,0,0,1,.68-.24l11.33,1.78a.79.79,0,0,1,.57.45,7.58,7.58,0,0,1,.58,1.9A7.21,7.21,0,0,1,831.79,171.88Z" style="fill:#92a0da"/><path d="M838.66,47.36A11.15,11.15,0,0,1,828,59h-.48a11.13,11.13,0,0,1-11.11-10.63,12.14,12.14,0,0,1,0-1.47l-14.34-6.51a11.12,11.12,0,1,1-.94-17.51l15.24-6a11.11,11.11,0,1,1,3.16,7.87l-13.77,5.43c.07.43.11.88.14,1.34a10.62,10.62,0,0,1,0,1.27l14.47,6.57a11.13,11.13,0,0,1,18.25,8Z" style="fill:#92a0da"/><path d="M700.83,37.83a14.65,14.65,0,0,0-4.42.69,10.55,10.55,0,0,0,3.62.86,5.94,5.94,0,0,0,.73,0h.49l.28,0a10.8,10.8,0,0,0,3.64-.88A14.17,14.17,0,0,0,700.83,37.83Z" style="fill:#92a0da"/><path d="M705.17,38.5a14.17,14.17,0,0,0-4.34-.67,14.65,14.65,0,0,0-4.42.69,11.11,11.11,0,1,1,8.76,0Z" style="fill:#92a0da"/><path d="M730,33v3.58a7.49,7.49,0,0,1-7.48,7.49h-7.16a8,8,0,0,1-1.22-.1.8.8,0,0,1-.49-.31A14.55,14.55,0,0,0,712,41.84a15.75,15.75,0,0,0-3.52-2.66.73.73,0,0,1-.37-.45A5.65,5.65,0,0,1,708,38a.76.76,0,0,1,.26-.72,11.63,11.63,0,0,0,4.22-9.52A11.39,11.39,0,0,0,712,25a.78.78,0,0,1,.28-.83,10.9,10.9,0,0,1,3.7-1.81,8.4,8.4,0,0,1-2.08-1,9,9,0,1,1,7.93,1,10.9,10.9,0,0,1,4.91,2.84A11,11,0,0,1,730,33Z" style="fill:#92a0da"/><path d="M692.93,37.41a6.88,6.88,0,0,1-.51,2,.7.7,0,0,1-.28.35,15.32,15.32,0,0,0-3.9,3.64,1,1,0,0,1-.36.26,7.38,7.38,0,0,1-2.38.39h-7.15a7.5,7.5,0,0,1-7.49-7.49V33a11.06,11.06,0,0,1,8.54-10.76,9,9,0,1,1,5.83.21,10.78,10.78,0,0,1,3.95,2.2.78.78,0,0,1,.24.76,11.75,11.75,0,0,0,3.29,11.36A.74.74,0,0,1,692.93,37.41Z" style="fill:#92a0da"/><path d="M715.33,51.72v.61a.75.75,0,0,1-.05.26A8.24,8.24,0,0,1,707.09,60H694.57a8.25,8.25,0,0,1-8.19-7.37.75.75,0,0,1,0-.26v-.61a.47.47,0,0,1,0-.17,14.53,14.53,0,0,1,10-13,10.55,10.55,0,0,0,3.62.86,5.94,5.94,0,0,0,.73,0h.49l.28,0a10.8,10.8,0,0,0,3.64-.88,14.54,14.54,0,0,1,10.14,13A.88.88,0,0,1,715.33,51.72Z" style="fill:#92a0da"/><path d="M514.68,14.88V44H464V14.46a3.53,3.53,0,0,1,3.52-3.53h43.2A4,4,0,0,1,514.68,14.88Z" style="fill:#dde4eb"/><path d="M507,4.08H462.61a6.1,6.1,0,0,0-6.09,6.1V46.1a.82.82,0,0,0,.81.82h20l-5.12,12.59a.86.86,0,0,0,.81,1.2h23.61a.87.87,0,0,0,.81-1.2L492.3,46.92h20a.82.82,0,0,0,.82-.82V10.18A6.1,6.1,0,0,0,507,4.08Zm3.14,36H459.47V10.56A3.52,3.52,0,0,1,463,7h43.2A4,4,0,0,1,510.13,11Z" style="fill:#92a0da"/><path d="M608,27.84a11.13,11.13,0,1,0,1,4.53A11.14,11.14,0,0,0,608,27.84Zm-5.62,14.64a11.05,11.05,0,1,1,6.52-10.1A11.09,11.09,0,0,1,602.41,42.48Z" style="fill:#92a0da"/><path d="M608,27.84a11.13,11.13,0,1,0,1,4.53A11.14,11.14,0,0,0,608,27.84Zm-5.62,14.64a11.05,11.05,0,1,1,6.52-10.1A11.09,11.09,0,0,1,602.41,42.48Z" style="fill:#92a0da"/><path d="M611.67,34a11,11,0,1,1-1-4.51A11.08,11.08,0,0,1,611.67,34Z" style="fill:#dde4eb"/><path d="M618.79,38l7.28-2.83a28.05,28.05,0,0,0-.2-7.14l-7.44-2.4a3,3,0,0,1-1.81-4.05l3.13-7.15a28.35,28.35,0,0,0-5.19-4.91l-6.95,3.56a3,3,0,0,1-4.16-1.58l-2.82-7.28a29.09,29.09,0,0,0-7.15.21l-2.4,7.44a3,3,0,0,1-4,1.82l-7.16-3.15A28.12,28.12,0,0,0,575,15.72l3.57,7A3,3,0,0,1,577,26.82l-7.28,2.82a28,28,0,0,0,.21,7.14l7.43,2.41a3,3,0,0,1,1.82,4.05L576,50.4a27.65,27.65,0,0,0,5.2,4.89l6.95-3.56a3,3,0,0,1,4.15,1.58l2.83,7.28a27.16,27.16,0,0,0,7.14-.21L604.68,53a3,3,0,0,1,4-1.81l7.16,3.13a28,28,0,0,0,4.9-5.19l-3.57-7A3,3,0,0,1,618.79,38ZM597.9,43.44A11,11,0,1,1,608,27.87,11,11,0,0,1,597.9,43.44Z" style="fill:#92a0da"/><rect x="122.6" y="26.71" width="50.56" height="38.08" style="fill:#dde4eb"/><rect x="160.09" y="3.05" width="5.34" height="12.21" style="fill:#dde4eb"/><rect x="125.75" y="3.05" width="5.34" height="12.21" style="fill:#dde4eb"/><path d="M170,6.87H163.9V.76a.76.76,0,0,0-.76-.76h-6.87a.76.76,0,0,0-.76.76V6.87H129.57V.76A.77.77,0,0,0,128.8,0h-6.87a.77.77,0,0,0-.76.76V6.87h-6.1a.77.77,0,0,0-.77.76V62.57a.77.77,0,0,0,.77.76H170a.76.76,0,0,0,.76-.76V7.63A.76.76,0,0,0,170,6.87ZM157,1.53h5.35v12.2H157Zm-34.33,0H128v12.2H122.7Zm45.12,20.6V60.21H117.26V22.13Z" style="fill:#92a0da"/><path d="M153.68,38.53V45.4a.82.82,0,0,1-.82.82h-6.05v6.05a.81.81,0,0,1-.81.81h-6.87a.82.82,0,0,1-.82-.81V46.22h-6.05a.82.82,0,0,1-.81-.82V38.53a.81.81,0,0,1,.81-.81h6.05v-6a.82.82,0,0,1,.82-.82H146a.82.82,0,0,1,.81.82v6h6.05A.82.82,0,0,1,153.68,38.53Z" style="fill:#92a0da"/><path d="M396.85,36.12c0,14.21-10.35,24.57-24.56,24.57s-24.57-10.06-24.57-24.26,10.36-24.88,24.57-24.88S396.85,21.91,396.85,36.12Z" style="fill:#dde4eb"/><path d="M368.56,4.1a27.52,27.52,0,1,0,27.52,27.52A27.56,27.56,0,0,0,368.56,4.1Zm0,52.09C354.35,56.19,344,46.13,344,31.93S354.35,7.05,368.56,7.05s24.56,10.36,24.56,24.57S382.77,56.19,368.56,56.19Z" style="fill:#92a0da"/><path d="M372.29,44.7v4.76a.92.92,0,0,1-.92.92h-4.75a.93.93,0,0,1-.93-.92V44.7a.93.93,0,0,1,.93-.92h4.75A.92.92,0,0,1,372.29,44.7Z" style="fill:#92a0da"/><path d="M381.46,24.88v2.56a9.92,9.92,0,0,1-9,9.86v2.21a.92.92,0,0,1-.92.92h-4.94a.93.93,0,0,1-.93-.92V34.66a3.17,3.17,0,0,1,3.16-3.16A5.11,5.11,0,0,0,374,26.39V24.62A4.63,4.63,0,0,0,369.33,20H367a4.54,4.54,0,0,0-4.54,4.54.92.92,0,0,1-.92.91h-4.94a.92.92,0,0,1-.92-.91,11.66,11.66,0,0,1,11.65-11.65h2.14A12,12,0,0,1,381.46,24.88Z" style="fill:#92a0da"/><rect x="11.81" y="26.71" width="50.56" height="38.08" style="fill:#dde4eb"/><rect x="49.29" y="3.05" width="5.34" height="12.21" style="fill:#dde4eb"/><rect x="14.96" y="3.05" width="5.34" height="12.21" style="fill:#dde4eb"/><path d="M59.21,6.87h-6.1V.76A.77.77,0,0,0,52.34,0H45.48a.77.77,0,0,0-.77.76V6.87H18.77V.76A.76.76,0,0,0,18,0H11.14a.76.76,0,0,0-.76.76V6.87H4.27a.76.76,0,0,0-.76.76V62.57a.76.76,0,0,0,.76.76H59.21a.77.77,0,0,0,.77-.76V7.63A.77.77,0,0,0,59.21,6.87Zm-13-5.34h5.34v12.2H46.24Zm-34.34,0h5.35v12.2H11.9ZM57,22.13V60.21H6.46V22.13Z" style="fill:#92a0da"/><path d="M49.55,32.84a.82.82,0,0,1-.23.58L29.89,52.85a.83.83,0,0,1-1.15,0L14.17,38.27a.81.81,0,0,1,0-1.15L19,32.27A.86.86,0,0,1,19.6,32a.83.83,0,0,1,.58.24l9.14,9.13,14-14a.84.84,0,0,1,1.16,0l4.86,4.86A.81.81,0,0,1,49.55,32.84Z" style="fill:#92a0da"/><rect x="237.56" y="16.5" width="50.67" height="44.88" style="fill:#dde4eb"/><path d="M284.37,10.33v1.52h.82V10.33Zm-54.12,1.52h.81V10.33h-.81Z" style="fill:#3e65fc"/><path d="M285.19,3.41H230.25a.82.82,0,0,0-.82.81V59.16a.82.82,0,0,0,.82.82h54.94a.82.82,0,0,0,.81-.82V4.22A.81.81,0,0,0,285.19,3.41ZM283.05,57l-50.67.3V12.14l50.67-.29Z" style="fill:#92a0da"/><rect x="236.35" y="17.19" width="8.39" height="8.39" rx="0.76" style="fill:#92a0da"/><rect x="236.35" y="30.93" width="8.39" height="8.39" rx="0.76" style="fill:#92a0da"/><rect x="250.09" y="17.19" width="29" height="8.39" rx="0.76" style="fill:#92a0da"/><rect x="250.09" y="30.93" width="29" height="8.39" rx="0.76" style="fill:#92a0da"/><rect x="236.3" y="44.61" width="8.5" height="8.5" rx="0.82" style="fill:#92a0da"/><rect x="250.03" y="44.61" width="29.1" height="8.5" rx="0.82" style="fill:#92a0da"/><rect x="123.57" y="277.9" width="46.93" height="32.51" style="fill:#dde4eb"/><path d="M163.09,292.53l-12.32-7.11a.37.37,0,0,0-.38,0,.39.39,0,0,0-.19.33v5.74H131.89v-5.74a.41.41,0,0,0-.19-.33.37.37,0,0,0-.38,0L119,292.53a.38.38,0,0,0,0,.66l12.32,7.11a.38.38,0,0,0,.19.05.45.45,0,0,0,.19-.05.4.4,0,0,0,.19-.33v-5.74H150.2V300a.37.37,0,0,0,.19.33.41.41,0,0,0,.19.05.45.45,0,0,0,.19-.05l12.32-7.11a.38.38,0,0,0,0-.66Z" style="fill:#92a0da"/><rect x="114.2" y="275.31" width="3.05" height="32.72" style="fill:#92a0da"/><rect x="164.84" y="275.31" width="3.05" height="32.72" style="fill:#92a0da"/><path d="M58,296.59c0,14.21-10.35,24.57-24.56,24.57S8.85,311.1,8.85,296.9,19.2,272,33.42,272,58,282.38,58,296.59Z" style="fill:#dde4eb"/><path d="M57.15,290.59c0-.2,0-.4,0-.6a27.55,27.55,0,0,0-21.34-24.74,26.46,26.46,0,0,0-4.58-.64c-.49,0-1-.05-1.5-.05s-1,0-1.5.05a27.52,27.52,0,0,0,0,54.95c.49,0,1,.05,1.5.05s1,0,1.5-.05a27.54,27.54,0,0,0,26-26c0-.49.06-1,.06-1.5S57.19,291.08,57.15,290.59Zm-2.94,3c-.69,12.93-10.09,22.35-23,23-.49,0-1,0-1.5,0s-1,0-1.5,0c-13-.66-22.5-9.95-23-23q0-.6,0-1.2,0-.92.06-1.8c.8-12.81,10.17-22.34,23-23,.49,0,1,0,1.5,0s1,0,1.5,0c12.94.68,22.34,10.09,23,23q0,.74,0,1.5T54.21,293.59Z" style="fill:#92a0da"/><path d="M53,292.08H30.07l-.39-23.34c.48,0,1,0,1.43,0,12.29.64,21.22,9.58,21.86,21.87C53,291.13,53,291.6,53,292.08Z" style="fill:#92a0da"/><rect x="239.45" y="271.45" width="36.82" height="50.56" style="fill:#dde4eb"/><path d="M274.29,263.72H233.08a.76.76,0,0,0-.76.76v54.94a.76.76,0,0,0,.76.76h41.21a.76.76,0,0,0,.76-.76V264.48A.76.76,0,0,0,274.29,263.72Zm-2.19,53.51H235.27V266.67H272.1Z" style="fill:#92a0da"/><path d="M259.54,307.82v9.41H247.83v-9.41a.77.77,0,0,1,.76-.76h10.18A.76.76,0,0,1,259.54,307.82Z" style="fill:#92a0da"/><path d="M243.74,277h-5.15a.76.76,0,0,1-.76-.76V271.1a.76.76,0,0,1,.76-.76h5.15a.76.76,0,0,1,.76.76v5.15A.76.76,0,0,1,243.74,277Zm-4.39-1.52H243v-3.63h-3.63Z" style="fill:#92a0da"/><path d="M252.09,277h-5.15a.77.77,0,0,1-.77-.76V271.1a.77.77,0,0,1,.77-.76h5.15a.76.76,0,0,1,.76.76v5.15A.76.76,0,0,1,252.09,277Zm-4.39-1.52h3.63v-3.63H247.7Z" style="fill:#92a0da"/><path d="M260.44,277h-5.16a.76.76,0,0,1-.76-.76V271.1a.76.76,0,0,1,.76-.76h5.16a.76.76,0,0,1,.76.76v5.15A.76.76,0,0,1,260.44,277Zm-4.39-1.52h3.62v-3.63h-3.62Z" style="fill:#92a0da"/><path d="M268.78,277h-5.15a.76.76,0,0,1-.76-.76V271.1a.76.76,0,0,1,.76-.76h5.15a.76.76,0,0,1,.76.76v5.15A.76.76,0,0,1,268.78,277Zm-4.39-1.52H268v-3.63h-3.63Z" style="fill:#92a0da"/><path d="M243.74,289.25h-5.15a.76.76,0,0,1-.76-.76v-5.15a.76.76,0,0,1,.76-.76h5.15a.76.76,0,0,1,.76.76v5.15A.76.76,0,0,1,243.74,289.25Zm-4.39-1.52H243V284.1h-3.63Z" style="fill:#92a0da"/><path d="M252.09,289.25h-5.15a.77.77,0,0,1-.77-.76v-5.15a.77.77,0,0,1,.77-.76h5.15a.76.76,0,0,1,.76.76v5.15A.76.76,0,0,1,252.09,289.25Zm-4.39-1.52h3.63V284.1H247.7Z" style="fill:#92a0da"/><path d="M260.44,289.25h-5.16a.76.76,0,0,1-.76-.76v-5.15a.76.76,0,0,1,.76-.76h5.16a.76.76,0,0,1,.76.76v5.15A.76.76,0,0,1,260.44,289.25Zm-4.39-1.52h3.62V284.1h-3.62Z" style="fill:#92a0da"/><path d="M268.78,289.25h-5.15a.76.76,0,0,1-.76-.76v-5.15a.76.76,0,0,1,.76-.76h5.15a.76.76,0,0,1,.76.76v5.15A.76.76,0,0,1,268.78,289.25Zm-4.39-1.52H268V284.1h-3.63Z" style="fill:#92a0da"/><path d="M243.74,301.49h-5.15a.76.76,0,0,1-.76-.76v-5.15a.76.76,0,0,1,.76-.76h5.15a.76.76,0,0,1,.76.76v5.15A.76.76,0,0,1,243.74,301.49ZM239.35,300H243v-3.63h-3.63Z" style="fill:#92a0da"/><path d="M252.09,301.49h-5.15a.77.77,0,0,1-.77-.76v-5.15a.77.77,0,0,1,.77-.76h5.15a.76.76,0,0,1,.76.76v5.15A.76.76,0,0,1,252.09,301.49ZM247.7,300h3.63v-3.63H247.7Z" style="fill:#92a0da"/><path d="M260.44,301.49h-5.16a.76.76,0,0,1-.76-.76v-5.15a.76.76,0,0,1,.76-.76h5.16a.76.76,0,0,1,.76.76v5.15A.76.76,0,0,1,260.44,301.49ZM256.05,300h3.62v-3.63h-3.62Z" style="fill:#92a0da"/><path d="M268.78,301.49h-5.15a.76.76,0,0,1-.76-.76v-5.15a.76.76,0,0,1,.76-.76h5.15a.76.76,0,0,1,.76.76v5.15A.76.76,0,0,1,268.78,301.49ZM264.39,300H268v-3.63h-3.63Z" style="fill:#92a0da"/><path d="M243.74,313.73h-5.15a.76.76,0,0,1-.76-.76v-5.15a.76.76,0,0,1,.76-.76h5.15a.76.76,0,0,1,.76.76V313A.76.76,0,0,1,243.74,313.73Zm-4.39-1.52H243v-3.63h-3.63Z" style="fill:#92a0da"/><path d="M268.78,313.73h-5.15a.76.76,0,0,1-.76-.76v-5.15a.76.76,0,0,1,.76-.76h5.15a.76.76,0,0,1,.76.76V313A.76.76,0,0,1,268.78,313.73Zm-4.39-1.52H268v-3.63h-3.63Z" style="fill:#92a0da"/><rect x="343.96" y="287.17" width="50.56" height="38.08" style="fill:#dde4eb"/><rect x="381.44" y="263.52" width="5.34" height="12.21" style="fill:#f9fafc"/><rect x="347.11" y="263.52" width="5.34" height="12.21" style="fill:#f9fafc"/><path d="M391.36,267.33h-6.1v-6.1a.76.76,0,0,0-.76-.76h-6.87a.76.76,0,0,0-.76.76v6.1H350.92v-6.1a.76.76,0,0,0-.76-.76h-6.87a.76.76,0,0,0-.76.76v6.1h-6.1a.78.78,0,0,0-.77.77V323a.77.77,0,0,0,.77.76h54.93a.77.77,0,0,0,.77-.76V268.1A.78.78,0,0,0,391.36,267.33Zm-13-5.34h5.34V274.2h-5.34Zm-34.33,0h5.34V274.2h-5.34Zm45.11,20.61v38.08H338.62V282.6Z" style="fill:#92a0da"/><rect x="338.62" y="294.8" width="50.56" height="1.53" style="fill:#92a0da"/><rect x="338.62" y="308.53" width="50.56" height="1.53" style="fill:#92a0da"/><rect x="348.63" y="282.6" width="1.53" height="38.08" style="fill:#92a0da"/><rect x="362.37" y="282.6" width="1.53" height="38.08" style="fill:#92a0da"/><rect x="376.1" y="282.6" width="1.53" height="38.08" style="fill:#92a0da"/><rect x="461.51" y="274.18" width="47.8" height="47.8" style="fill:#dde4eb"/><path d="M506.77,263.74H451.83a.77.77,0,0,0-.76.77v54.94a.76.76,0,0,0,.76.76h54.94a.76.76,0,0,0,.76-.76V264.51A.77.77,0,0,0,506.77,263.74Zm-3.57,52.13H455.4V268.08h47.8Z" style="fill:#92a0da"/><path d="M466.18,292a.76.76,0,0,0,.38.66l24.72,14.27a.71.71,0,0,0,.76,0,.76.76,0,0,0,.38-.66V277.7A.76.76,0,0,0,492,277a.79.79,0,0,0-.76,0l-24.72,14.27A.76.76,0,0,0,466.18,292Z" style="fill:#92a0da"/><rect x="571.63" y="274.18" width="47.8" height="47.8" style="fill:#dde4eb"/><path d="M616.89,263.74H562a.77.77,0,0,0-.76.77v54.94a.76.76,0,0,0,.76.76h54.94a.76.76,0,0,0,.76-.76V264.51A.77.77,0,0,0,616.89,263.74Zm-3.57,52.13h-47.8V268.08h47.8Z" style="fill:#92a0da"/><path d="M576.3,277.7v28.55a.76.76,0,0,0,.38.66.71.71,0,0,0,.76,0l24.72-14.27a.77.77,0,0,0,0-1.33L577.44,277a.79.79,0,0,0-.76,0A.76.76,0,0,0,576.3,277.7Z" style="fill:#92a0da"/><path d="M734.86,296.59c0,14.21-10.35,24.57-24.56,24.57s-24.57-10.06-24.57-24.27S696.09,272,710.3,272,734.86,282.38,734.86,296.59Z" style="fill:#dde4eb"/><path d="M706.57,264.57a27.52,27.52,0,1,0,27.52,27.52A27.55,27.55,0,0,0,706.57,264.57Zm0,52.09c-14.21,0-24.57-10.06-24.57-24.27s10.36-24.87,24.57-24.87,24.56,10.36,24.56,24.57S720.78,316.66,706.57,316.66Z" style="fill:#92a0da"/><path d="M726,286.29v12.36a.76.76,0,0,1-.76.76h-11.6V311a.76.76,0,0,1-.77.76H700.52a.75.75,0,0,1-.76-.76v-11.6H688.15a.76.76,0,0,1-.76-.76V286.29a.77.77,0,0,1,.76-.77h11.61V273.93a.76.76,0,0,1,.76-.77h12.35a.77.77,0,0,1,.77.77v11.59h11.6A.77.77,0,0,1,726,286.29Z" style="fill:#92a0da"/><path d="M825.5,294v.35a.41.41,0,0,1,0,.16,4.8,4.8,0,0,1-4.77,4.29h-7.28a4.79,4.79,0,0,1-4.77-4.29.41.41,0,0,1,0-.16V294s0-.07,0-.1a8.46,8.46,0,0,1,5.86-7.58,6.48,6.48,0,1,1,5.1,0,8.47,8.47,0,0,1,5.89,7.6A.16.16,0,0,1,825.5,294Z" style="fill:#92a0da"/><path d="M805.81,267.87A21.6,21.6,0,0,0,824,306.76l7.29,12a4.71,4.71,0,0,0,8-4.9l-7.28-12a21.6,21.6,0,0,0-26.23-34Zm23.12,30.3a16.78,16.78,0,1,1,2.46-20.59A16.66,16.66,0,0,1,828.93,298.17Z" style="fill:#92a0da"/></g></g></g></svg>