<svg xmlns="http://www.w3.org/2000/svg" viewBox="0 0 437.79 38.11"><title>logo-title</title><g id="ab6e8408-cefb-4af5-aeff-4b617365610c" data-name="Layer 2"><g id="fe20526c-2d38-4016-9bb1-a95c49b1e641" data-name="Шар 1"><g id="a5eff497-b452-4dbe-aff4-46b762f14a87" data-name="Content 2"><path d="M45.52,26.67a9.13,9.13,0,0,1-.83,4,9.54,9.54,0,0,1-2.32,3A14,14,0,0,1,38.9,35.8a24.08,24.08,0,0,1-4.23,1.36,34.75,34.75,0,0,1-4.8.73c-1.68.15-3.38.22-5.09.22-2.39,0-4.8-.13-7.18-.36S13,37.22,11,36.87,7,36.14,5.45,35.74a23.12,23.12,0,0,1-3.68-1.19,2.31,2.31,0,0,1-1-.85,1.91,1.91,0,0,1-.34-1.08A1.76,1.76,0,0,1,.8,31.49a1.71,1.71,0,0,1,2-.42,32.24,32.24,0,0,0,3.66,1.09c1.6.38,3.42.77,5.45,1.11s4.22.63,6.51.86a57.35,57.35,0,0,0,13.05-.06,20.37,20.37,0,0,0,5.06-1.34,8.7,8.7,0,0,0,3.33-2.4,5.29,5.29,0,0,0,1.17-3.54,4,4,0,0,0-1-2.81,7,7,0,0,0-2.79-1.85A19.45,19.45,0,0,0,32.88,21c-1.72-.27-3.58-.47-5.51-.61-3.91-.27-8.27-.12-12.17-.46-2-.17-3.89-.42-5.67-.74a19.44,19.44,0,0,1-4.81-1.47,9.14,9.14,0,0,1-3.4-2.61A6.49,6.49,0,0,1,0,11,8.63,8.63,0,0,1,.89,7a9,9,0,0,1,2.4-2.94,13.74,13.74,0,0,1,3.54-2A25.71,25.71,0,0,1,11.13.84,40,40,0,0,1,16,.2,67.87,67.87,0,0,1,27.19.27c2,.17,3.93.44,5.71.73s3.38.66,4.8,1a22.59,22.59,0,0,1,3.49,1.18A1.54,1.54,0,0,1,42,3.9a1.65,1.65,0,0,1,.23.85,2,2,0,0,1-.49,1.3,2.09,2.09,0,0,1-2.49.45,34,34,0,0,0-3.73-1.17C34.1,5,32.59,4.66,31,4.41S27.8,4,26.13,3.83A59.1,59.1,0,0,0,14.63,4,22.83,22.83,0,0,0,9.24,5.28,9.09,9.09,0,0,0,5.69,7.54a4.63,4.63,0,0,0-1.23,3.35,3.11,3.11,0,0,0,.93,2.36A7.76,7.76,0,0,0,8.2,14.86a22.66,22.66,0,0,0,4.43,1,41.12,41.12,0,0,0,5.48.34h6.07a51.9,51.9,0,0,1,6.18.34,55.1,55.1,0,0,1,5.68.95,18.73,18.73,0,0,1,4.81,1.73,9.73,9.73,0,0,1,3.39,3A7.72,7.72,0,0,1,45.52,26.67Z"/><path d="M82.57,32.37a1.58,1.58,0,0,1,.49,1.13,1.73,1.73,0,0,1-.28.91,2.18,2.18,0,0,1-.85.76,23.77,23.77,0,0,1-6.31,2,35.46,35.46,0,0,1-6.21.58,39.3,39.3,0,0,1-7.07-.59,15.45,15.45,0,0,1-5.64-2.12A10.83,10.83,0,0,1,53,31a14.32,14.32,0,0,1-1.3-6.45,15.29,15.29,0,0,1,1.19-6.43,10.22,10.22,0,0,1,3.58-4.22,14.73,14.73,0,0,1,5.63-2.21,38,38,0,0,1,13.55,0,23.56,23.56,0,0,1,6.3,2,2.28,2.28,0,0,1,.86.75,1.85,1.85,0,0,1,.28.92,1.59,1.59,0,0,1-.49,1.14,1.83,1.83,0,0,1-1.26.46,3.19,3.19,0,0,1-1-.2,15.5,15.5,0,0,0-2.08-.79,26.49,26.49,0,0,0-2.68-.72c-1-.22-2-.4-3.08-.54a23.67,23.67,0,0,0-3.1-.22,29.56,29.56,0,0,0-6.35.59A10.22,10.22,0,0,0,59,16.81a6.85,6.85,0,0,0-2.28,3A13.19,13.19,0,0,0,56,24.52a11.6,11.6,0,0,0,.83,4.64,6.92,6.92,0,0,0,2.41,3,10.89,10.89,0,0,0,4.13,1.7,28.32,28.32,0,0,0,6.05.56,23.91,23.91,0,0,0,3.14-.22,30.78,30.78,0,0,0,3.08-.54c1-.21,1.87-.46,2.68-.72a19.43,19.43,0,0,0,2-.74,3.29,3.29,0,0,1,1.07-.25A1.79,1.79,0,0,1,82.57,32.37Z"/><path d="M122.05,23.47v11a5.71,5.71,0,0,1-.06.91,3.34,3.34,0,0,1-.23.93,2.56,2.56,0,0,1-.6.82,2,2,0,0,1-1.19.38,2,2,0,0,1-1.28-.37,2.25,2.25,0,0,1-.64-.8,2.74,2.74,0,0,1-.26-1c0-.3,0-.59,0-.88v-11a19.55,19.55,0,0,0-.39-4.16,5.7,5.7,0,0,0-1.34-2.7A5.92,5.92,0,0,0,113.28,15a22.49,22.49,0,0,0-9-.28,18.8,18.8,0,0,0-4.07,1,12.29,12.29,0,0,0-3.37,1.84A5.61,5.61,0,0,0,95,20.22V34.43c0,.29,0,.6,0,.91a4,4,0,0,1-.24.91,2.06,2.06,0,0,1-.6.84,2.19,2.19,0,0,1-2.43,0A2.34,2.34,0,0,1,91,36.3a2.94,2.94,0,0,1-.25-1,8.77,8.77,0,0,1,0-.88V3.66a8.19,8.19,0,0,1,0-.85,2.78,2.78,0,0,1,.25-1A2.25,2.25,0,0,1,91.66,1a2.18,2.18,0,0,1,2.41,0,1.93,1.93,0,0,1,.62.84,4.09,4.09,0,0,1,.24.9,8.92,8.92,0,0,1,0,.91V15a9.75,9.75,0,0,1,2.08-1.6,13.56,13.56,0,0,1,2.8-1.19,26.19,26.19,0,0,1,3-.69,25.23,25.23,0,0,1,2.93-.37c.94-.06,1.79-.1,2.57-.1a27.9,27.9,0,0,1,6.26.61A9.74,9.74,0,0,1,119,13.8a8.33,8.33,0,0,1,2.4,3.94A20.38,20.38,0,0,1,122.05,23.47Z"/><path d="M160.19,24.52a4.92,4.92,0,0,0,.31-.94,7.65,7.65,0,0,0,.21-1.1,8.21,8.21,0,0,0,.06-1.07A9,9,0,0,0,157,13.69c-2.42-1.75-6.08-2.65-10.87-2.65a33,33,0,0,0-6.46.62,14.46,14.46,0,0,0-5.37,2.21,11.13,11.13,0,0,0-3.64,4.21,14.34,14.34,0,0,0-1.3,6.44,16.62,16.62,0,0,0,.8,5.29,10.38,10.38,0,0,0,2.66,4.26,12.36,12.36,0,0,0,4.71,2.75,21.07,21.07,0,0,0,6.83,1,37.92,37.92,0,0,0,6.56-.5,30.82,30.82,0,0,0,4.65-1.13,14,14,0,0,0,3-1.29,8.57,8.57,0,0,0,1.31-.9,1.45,1.45,0,0,0,.69-1.21,1.79,1.79,0,0,0-.54-1.22,1.7,1.7,0,0,0-1.29-.58,2.09,2.09,0,0,0-.52.09l-.19.09a17.92,17.92,0,0,1-1.63.91,15.9,15.9,0,0,1-2.63,1,26.73,26.73,0,0,1-4,.9,34,34,0,0,1-5.4.37,17.48,17.48,0,0,1-4.73-.56,8.16,8.16,0,0,1-3.26-1.65,7.29,7.29,0,0,1-2-3,13.57,13.57,0,0,1-.75-3.88h25.49A1.15,1.15,0,0,0,160.19,24.52Zm-3-2.24H133.75a8.83,8.83,0,0,1,.91-3.21A7.07,7.07,0,0,1,137,16.45a10.85,10.85,0,0,1,3.79-1.5,26.27,26.27,0,0,1,5.32-.49,21.22,21.22,0,0,1,5.34.57,9.48,9.48,0,0,1,3.38,1.52,5.42,5.42,0,0,1,1.78,2.11,6.64,6.64,0,0,1,.55,2.69Z"/><path d="M201.11,2.68a2.9,2.9,0,0,0-.25-.92,1.74,1.74,0,0,0-.68-.79,2.47,2.47,0,0,0-2.49.06,1.9,1.9,0,0,0-.62.83,2.91,2.91,0,0,0-.21,1c0,.3,0,.59,0,.87V14.44l-.5-.35a14.34,14.34,0,0,0-3-1.5,24.6,24.6,0,0,0-4.43-1.11,39.56,39.56,0,0,0-6.21-.44,26.68,26.68,0,0,0-6.49.72,12.44,12.44,0,0,0-4.95,2.34,10.17,10.17,0,0,0-3.11,4.27,17.1,17.1,0,0,0-1,6.26,14.16,14.16,0,0,0,1.25,6.26A10.71,10.71,0,0,0,171.79,35a13.82,13.82,0,0,0,5,2.15,28.32,28.32,0,0,0,5.86.6h2.58a19,19,0,0,0,3.14-.27,22.68,22.68,0,0,0,3.19-.75,15,15,0,0,0,3-1.22,9.92,9.92,0,0,0,2.29-1.73v1.35a2.25,2.25,0,0,0,.7,1.9,2.29,2.29,0,0,0,2.9,0,2.36,2.36,0,0,0,.7-1.93V3.61C201.14,3.29,201.12,3,201.11,2.68Zm-4.27,26a5.07,5.07,0,0,1-2,2.69,12.72,12.72,0,0,1-3.59,1.8,24.1,24.1,0,0,1-4.36.91,25.83,25.83,0,0,1-8.81-.25,9.54,9.54,0,0,1-3.54-1.58,7.62,7.62,0,0,1-2.35-2.92,11.33,11.33,0,0,1-.87-4.68A15,15,0,0,1,172,20,7,7,0,0,1,174,16.86a8.44,8.44,0,0,1,3.43-1.8,20,20,0,0,1,5.26-.6,39.37,39.37,0,0,1,5.69.36,23.87,23.87,0,0,1,4.12.94,14.33,14.33,0,0,1,2.81,1.2,13.84,13.84,0,0,1,1.56,1Z"/><path d="M240.4,14.74V34.49a8.88,8.88,0,0,1-.05.9,3.42,3.42,0,0,1-.25.89,1.81,1.81,0,0,1-1.79,1.19,1.88,1.88,0,0,1-1.93-1.06,4.1,4.1,0,0,1-.31-1.64V34.1a5.72,5.72,0,0,1-.46.37,13.61,13.61,0,0,1-2.83,1.64,22.36,22.36,0,0,1-3.89,1.21,25,25,0,0,1-5.1.48,26.05,26.05,0,0,1-6.3-.68,11.24,11.24,0,0,1-4.46-2.2,8.81,8.81,0,0,1-2.55-3.85,16.82,16.82,0,0,1-.77-5.39V14.74a8.92,8.92,0,0,1,0-.91,3.31,3.31,0,0,1,.25-.93,1.88,1.88,0,0,1,.63-.84,2.25,2.25,0,0,1,2.49,0,1.94,1.94,0,0,1,.63.88,2.64,2.64,0,0,1,.2.91c0,.3,0,.6,0,.9V25.68a17.11,17.11,0,0,0,.44,4.28,5.07,5.07,0,0,0,1.43,2.55,6.35,6.35,0,0,0,2.86,1.41,22.38,22.38,0,0,0,5,.46,21.5,21.5,0,0,0,4.15-.37,24.45,24.45,0,0,0,3.49-.93,18.78,18.78,0,0,0,2.8-1.25,20.39,20.39,0,0,0,1.87-1.16V14.74c0-.3,0-.6,0-.9a4.24,4.24,0,0,1,.2-.93,2.06,2.06,0,0,1,.6-.83,2.22,2.22,0,0,1,2.49,0,1.86,1.86,0,0,1,.68.82,2.53,2.53,0,0,1,.26,1C240.38,14.14,240.4,14.44,240.4,14.74Z"/><path d="M253.69,3.66V34.49a5,5,0,0,1-.28,1.81,1.79,1.79,0,0,1-1.84,1.17,2.27,2.27,0,0,1-1.22-.31,1.83,1.83,0,0,1-.68-.8,2.55,2.55,0,0,1-.23-.93,7.61,7.61,0,0,1-.05-.88V3.72a9.45,9.45,0,0,1,.05-1,2.53,2.53,0,0,1,.26-1,2,2,0,0,1,.7-.79,2.3,2.3,0,0,1,2.41,0,1.93,1.93,0,0,1,.62.84,3.1,3.1,0,0,1,.23.93A8.43,8.43,0,0,1,253.69,3.66Z"/><path d="M292.23,24.52a4.84,4.84,0,0,0,.33-.94c.08-.36.14-.71.19-1.1a8.33,8.33,0,0,0,.07-1.07A9,9,0,0,0,289,13.69C286.62,11.94,283,11,278.17,11a33.06,33.06,0,0,0-6.45.62,14.61,14.61,0,0,0-5.37,2.21,11,11,0,0,0-3.63,4.21,14.07,14.07,0,0,0-1.32,6.44,17.2,17.2,0,0,0,.8,5.29,10.4,10.4,0,0,0,2.67,4.26,12.39,12.39,0,0,0,4.7,2.75,21.2,21.2,0,0,0,6.85,1,37.68,37.68,0,0,0,6.54-.5,30.23,30.23,0,0,0,4.65-1.13,14.38,14.38,0,0,0,3-1.29,7.93,7.93,0,0,0,1.31-.9,1.44,1.44,0,0,0,.68-1.21,1.77,1.77,0,0,0-.52-1.22,1.74,1.74,0,0,0-1.29-.58,2.08,2.08,0,0,0-.53.09l-.2.09a18.18,18.18,0,0,1-4.26,2,26.87,26.87,0,0,1-4,.9,33.94,33.94,0,0,1-5.39.37,17.69,17.69,0,0,1-4.75-.56,8.12,8.12,0,0,1-3.25-1.65,7.31,7.31,0,0,1-2-3,13.6,13.6,0,0,1-.73-3.88h25.48A1.12,1.12,0,0,0,292.23,24.52Zm-3-2.24H265.79a8.64,8.64,0,0,1,.92-3.21,7,7,0,0,1,2.35-2.62,10.93,10.93,0,0,1,3.79-1.5,26.41,26.41,0,0,1,5.32-.49,21.39,21.39,0,0,1,5.36.57,9.65,9.65,0,0,1,3.38,1.52,5.51,5.51,0,0,1,1.78,2.11,7,7,0,0,1,.53,2.69Z"/><path d="M332.38,30a5.37,5.37,0,0,1-1.48,3.8,9.89,9.89,0,0,1-3.66,2.35,22.56,22.56,0,0,1-5,1.22,45.29,45.29,0,0,1-5.79.38h-3.89a28.48,28.48,0,0,1-4.3-.32,24.57,24.57,0,0,1-4.13-1,12.31,12.31,0,0,1-3.59-1.85,1.75,1.75,0,0,1-.77-1.44,1.86,1.86,0,0,1,.42-1.21,1.62,1.62,0,0,1,1.26-.6,1.29,1.29,0,0,1,1,.37,13.46,13.46,0,0,0,2.74,1.36,17.84,17.84,0,0,0,3.27.88,19.16,19.16,0,0,0,3.61.33h4.07A42.36,42.36,0,0,0,320.8,34a18,18,0,0,0,3.92-.79,7.05,7.05,0,0,0,2.56-1.39,2.4,2.4,0,0,0,.81-1.9,2.33,2.33,0,0,0-.94-2,7.68,7.68,0,0,0-3-1.2,21.56,21.56,0,0,0-4.49-.42h-5.33c-1.84,0-3.66-.08-5.4-.22a22.5,22.5,0,0,1-4.87-.89,9.26,9.26,0,0,1-3.63-2.09A5.34,5.34,0,0,1,299,19.17a6,6,0,0,1,1.43-4.12A9.44,9.44,0,0,1,304,12.59a18.9,18.9,0,0,1,4.82-1.22,47.08,47.08,0,0,1,13.63.37,27.19,27.19,0,0,1,7.22,2.36,1.79,1.79,0,0,1,.82.76,2.66,2.66,0,0,1,.21.73,2,2,0,0,1-.44,1.3,1.56,1.56,0,0,1-1.24.61,1.28,1.28,0,0,1-.7-.18,28.54,28.54,0,0,0-6.16-2.07A38.07,38.07,0,0,0,310,14.72a15.36,15.36,0,0,0-3.59.87,6.18,6.18,0,0,0-2.34,1.47,2.87,2.87,0,0,0-.8,2.11,2.08,2.08,0,0,0,.93,1.87,8,8,0,0,0,3,1.15,25.32,25.32,0,0,0,4.51.38H317c1.82,0,3.64.08,5.4.24a21.55,21.55,0,0,1,4.86,1A9,9,0,0,1,330.92,26,5.48,5.48,0,0,1,332.38,30Z"/><path d="M372.88,8.91a11,11,0,0,0-2.07-3.71,10.3,10.3,0,0,0-3.32-2.47,19.36,19.36,0,0,0-4.24-1.42,24.2,24.2,0,0,0-5.13-.53h-17.6a1.87,1.87,0,0,0-.88.19,1.33,1.33,0,0,0-.7.77,3.2,3.2,0,0,0-.11,1V34.3a5.61,5.61,0,0,0,.32,2,2,2,0,0,0,2,1.2A1.81,1.81,0,0,0,343,36.19a5.74,5.74,0,0,0,.3-1.9v-7.9h14.43a33.9,33.9,0,0,0,5-.35A21.25,21.25,0,0,0,367,24.91a10,10,0,0,0,3.5-2.21,9.84,9.84,0,0,0,2.26-3.59,15,15,0,0,0,.8-5.16A16.76,16.76,0,0,0,372.88,8.91ZM343.29,4.26h9.11a65.47,65.47,0,0,1,7.72.4,14.73,14.73,0,0,1,5.16,1.44A6.56,6.56,0,0,1,368.15,9a11.08,11.08,0,0,1,1,5,10.73,10.73,0,0,1-.94,4.92,5.94,5.94,0,0,1-2.82,2.59,15.46,15.46,0,0,1-5.19,1.19c-2.16.17-4.78.26-7.77.26h-9.11Z"/><path d="M400.31,13.53a1.85,1.85,0,0,1-.46,1.22,1.79,1.79,0,0,1-1.49.65,1.13,1.13,0,0,1-.59-.11c-.86-.2-1.67-.37-2.42-.49a17.87,17.87,0,0,0-6,.17,12,12,0,0,0-3,1A8.28,8.28,0,0,0,384,17.72a6.81,6.81,0,0,0-1.4,2.33V34.49a5.58,5.58,0,0,1-.28,1.75,1.8,1.8,0,0,1-1.84,1.23,2.24,2.24,0,0,1-1.22-.32,2.06,2.06,0,0,1-.7-.85,3.48,3.48,0,0,1-.22-.95c0-.27,0-.57,0-.86V14.23a3.45,3.45,0,0,1,.35-1.59,2,2,0,0,1,2-1,1.68,1.68,0,0,1,1.71,1,4,4,0,0,1,.28,1.56v.45a5.21,5.21,0,0,1,.47-.47,10.56,10.56,0,0,1,3.19-2,13.77,13.77,0,0,1,3.51-.92,24.28,24.28,0,0,1,5.37-.16c.64.06,1.19.13,1.65.2a11.1,11.1,0,0,1,1.23.27l1,.24a1.78,1.78,0,0,1,1,.71A2,2,0,0,1,400.31,13.53Z"/><path d="M436.75,18.49a10,10,0,0,0-3.27-4.26A14.37,14.37,0,0,0,428,11.8a38.13,38.13,0,0,0-15.15,0,14.24,14.24,0,0,0-5.48,2.43,10,10,0,0,0-3.29,4.25,16.12,16.12,0,0,0-1,6A15.69,15.69,0,0,0,404,30,10.17,10.17,0,0,0,407,34.24a14.3,14.3,0,0,0,5.42,2.64,35.16,35.16,0,0,0,16,0,14.13,14.13,0,0,0,5.43-2.64,9.87,9.87,0,0,0,3-4.25,15.46,15.46,0,0,0,.91-5.47A15.65,15.65,0,0,0,436.75,18.49ZM420.42,34.38a26.38,26.38,0,0,1-5.06-.42,14.3,14.3,0,0,1-3.55-1.11,7.4,7.4,0,0,1-2.26-1.61,7.53,7.53,0,0,1-1.37-2,7.91,7.91,0,0,1-.66-2.26,17.1,17.1,0,0,1-.18-2.47,12.92,12.92,0,0,1,.75-4.74,6.79,6.79,0,0,1,2.24-3,10.21,10.21,0,0,1,4-1.73,32.77,32.77,0,0,1,12.17,0,10.13,10.13,0,0,1,4,1.73,6.87,6.87,0,0,1,2.24,3,12.92,12.92,0,0,1,.75,4.74,18.73,18.73,0,0,1-.16,2.47,8,8,0,0,1-.69,2.26,7.22,7.22,0,0,1-1.35,2A7.71,7.71,0,0,1,429,32.85,14.35,14.35,0,0,1,425.49,34,26.57,26.57,0,0,1,420.42,34.38Z"/></g></g></g></svg>