<svg xmlns="http://www.w3.org/2000/svg" xmlns:xlink="http://www.w3.org/1999/xlink" width="593.11" height="594.5" viewBox="0 0 593.11 594.5"><defs><linearGradient id="b242fd99-8d4f-4f75-99ee-ae77435df400" x1="482.73" y1="105.22" x2="116.62" y2="484.14" gradientUnits="userSpaceOnUse"><stop offset="0" stop-color="#00fffa"/><stop offset="0.25" stop-color="#1dcbfb"/><stop offset="1" stop-color="#732ffe"/></linearGradient></defs><title>logo-decorative</title><g id="a23d1bc4-7bee-40bb-8bb4-30bb1bb8235f" data-name="Layer 2"><g id="be71aeee-459c-4f97-960d-f92469280169" data-name="Шар 1"><g id="b1f04003-20d1-4db6-8e33-7ce67e29d8d8" data-name="Content 2"><path d="M288.63,288.64H133.89a35.52,35.52,0,0,1-35.52-35.53V133.89a35.52,35.52,0,0,1,35.52-35.52H253.11a35.52,35.52,0,0,1,35.52,35.52ZM133.89,305.2a35.52,35.52,0,0,0-35.52,35.52V459.94a35.52,35.52,0,0,0,35.52,35.52H253.11a35.52,35.52,0,0,0,35.52-35.52V305.2Zm172,155.28A35.52,35.52,0,0,0,341.39,496H460.61a35.52,35.52,0,0,0,35.52-35.52V341.26a35.52,35.52,0,0,0-35.52-35.52H305.87Zm154.74-171.3a35.52,35.52,0,0,0,35.52-35.53V134.43a35.52,35.52,0,0,0-35.52-35.52H341.39a35.52,35.52,0,0,0-35.52,35.52V289.18Z" fill="url(#b242fd99-8d4f-4f75-99ee-ae77435df400)"/><path d="M267.13,343.07a.44.44,0,0,0-.6,0l-1.76,1.62a.41.41,0,0,0-.07.59l.7.7a.44.44,0,0,0,.6,0l1.77-1.62a.42.42,0,0,0,.06-.59Z" fill="#fff"/><path d="M262.34,347.55a.45.45,0,0,0-.6,0L260,349.21a.41.41,0,0,0-.06.58l.7.71a.44.44,0,0,0,.6,0l1.76-1.62a.4.4,0,0,0,.07-.58Z" fill="#fff"/><path d="M257.55,352a.45.45,0,0,0-.61,0l-1.76,1.62a.41.41,0,0,0-.06.58l.7.71a.44.44,0,0,0,.6,0l1.76-1.63a.4.4,0,0,0,.06-.58Z" fill="#fff"/><path d="M251,333.31a.41.41,0,0,0,.57-.13l1.38-2a.44.44,0,0,0,0-.61l-.79-.6a.42.42,0,0,0-.57.14l-1.38,2a.43.43,0,0,0,0,.6Z" fill="#fff"/><path d="M247.21,338.65a.41.41,0,0,0,.57-.14l1.38-2a.44.44,0,0,0,0-.6l-.79-.6a.4.4,0,0,0-.57.14l-1.38,2a.44.44,0,0,0,0,.6Z" fill="#fff"/><path d="M243.39,344a.4.4,0,0,0,.57-.14l1.38-1.95a.45.45,0,0,0-.05-.61l-.79-.6a.42.42,0,0,0-.57.14l-1.38,2a.44.44,0,0,0,0,.6Z" fill="#fff"/><path d="M267.23,339.28a7.45,7.45,0,0,1-2-2.64c-.48-1.71-.26-3.36-1-4.1s-2.71-.87-4.61-.84a5.36,5.36,0,0,1-2.87-1.61,1,1,0,0,0-1.58.16l-11.74,16.39a10.23,10.23,0,0,1-1.29,3.54l-.71.81-4.16,4.35-.55.62-6.29,6.61-.58.58-6.29,6.61-.55.61L216.7,377l-.59.58-6.28,6.61-.58.61L203,391.43h0l-.55.58s-6.55,6.8-6.9,7.5c-1.79,3.59-8.48,12.37-8.48,12.37a2.74,2.74,0,0,0,.61,4.29,10.89,10.89,0,0,1,2.45,1.9A9.82,9.82,0,0,1,179,433.75a11.3,11.3,0,0,1-6.58-9.52v-.55c-.21-2.84-10.08,1.74-13.41,10.69-6.3,16.93-15.41,7.68-13.73-1.45,4.05-22,21.72-14.88,32.3-27.52,3.87-5.77,2.87-14.35,10.22-17.06a6.63,6.63,0,0,1,.71-.2,1.29,1.29,0,0,0-.42-2.54,5,5,0,0,0-1,.16c-11,1.67-8.38,11.29-13.87,17.51-6,6.87-17.73,3.19-31.7,19.09-6.32,7.19-8.29,22.48,9.8,38.35v0c18.13,15.87,33,11.9,39.32,4.71,14-15.93,8.77-27.06,14.8-33.93,5-5.74,13.77-5.09,15.35-13.61a1.09,1.09,0,0,0-1.61-1.13c-7.71,4.36-14.64-2-13.51-7.71l7.29-8.86.51-.65,5.81-7,.55-.64,5.77-7,.55-.61,5.8-7.06.52-.61,5.77-7.07.52-.61,5.8-7,.55-.65,3.32-4,.68-.8a10.17,10.17,0,0,1,3.39-1.74l14.7-13.81A1.06,1.06,0,0,0,267.23,339.28Zm-19.41,7.36-.16-.16a1,1,0,0,1-.2-1.42l7.84-10.26a1,1,0,0,1,1.42-.19l.19.13a1,1,0,0,1,.2,1.45l-7.84,10.25A1.07,1.07,0,0,1,247.82,346.64Zm14.74-5.52-9.13,9.13a1,1,0,0,1-1.45,0l-.13-.16a1,1,0,0,1,0-1.45l9.09-9.13a1,1,0,0,1,1.45,0l.17.16A1,1,0,0,1,262.56,341.12Z" fill="#fff"/><polygon points="203 391.44 202.43 392.02 202.97 391.41 203 391.44" fill="#fff"/><path d="M448.41,154.06q-4.5,4.77-9,9.51c-3.64-.43-7.26-.89-10.89-1.36-.64-3.59-1.3-7.18-1.93-10.78l9-9.51a1.52,1.52,0,0,0-1.14-2.54A23.82,23.82,0,0,0,424.11,143c-3,1.95-6,4.6-7.34,8-1.12,2.85-1.18,5.92-1.36,8.92-.13,2.76-.44,5.67-2.39,7.82l-24.45,25.81L376,206.94c-1.67,1.75-3.2,3.77-5.52,4.64-2.61,1-5.52,1-8.26,1.38a15.46,15.46,0,0,0-10.56,5.63,23.79,23.79,0,0,0-5.5,14.09,1.51,1.51,0,0,0,2.58,1l9-9.51,10.87,1.36c.65,3.59,1.31,7.19,1.95,10.78l-9,9.53a1.5,1.5,0,0,0,1.12,2.52A23.35,23.35,0,0,0,373,244.71c2.94-1.86,5.83-4.42,7.21-7.69,2.19-5.17.13-11.57,3.27-16.34a24.92,24.92,0,0,1,2.95-3.22c1.25-1.3,2.48-2.61,3.71-3.91q3.87-4.06,7.73-8.15,7.86-8.31,15.73-16.63c3.05-3.22,6.12-6.44,9.16-9.66a10.32,10.32,0,0,1,4.54-3.16,30.34,30.34,0,0,1,5.92-1c4.53-.5,8.5-1.58,11.63-5.08A24,24,0,0,0,451,155.05,1.51,1.51,0,0,0,448.41,154.06Zm-30.1,22.07-38,41a2.19,2.19,0,0,1-3.11.14l-.13-.14A2.18,2.18,0,0,1,377,214l38-41a2.17,2.17,0,0,1,3.09-.11l.16.11A2.22,2.22,0,0,1,418.31,176.13Z" fill="#fff"/><path d="M218.57,155.8c2.49-1.89,4.89-6.26,4.89-6.26,2.23-5.72,2.72-11.86-.45-16.6a14.43,14.43,0,0,0-13.88-6.09,19.15,19.15,0,0,0-11.81,6.09c-5.79,6.19-7,15.16-2.84,21.34a13,13,0,0,0,1.85,2.21l-11.21,25.65a2.23,2.23,0,0,0,1.34,3l3.88,1.29a2.22,2.22,0,0,0,2.81-1.38L202,159.84a15.83,15.83,0,0,0,6.37.56,19,19,0,0,0,10.23-4.6Zm.46-20.2c2.92,4.37,1.92,10.86-2.36,15.45a14.63,14.63,0,0,1-8.87,4.62,9.91,9.91,0,0,1-8-2.48,8.52,8.52,0,0,1-1.32-1.55c-2.92-4.36-1.94-10.85,2.36-15.44a14.58,14.58,0,0,1,8.86-4.62,9.94,9.94,0,0,1,8.05,2.47A8.52,8.52,0,0,1,219,135.6Z" fill="#fff"/><path d="M267.69,170.35c1-.45,0-4.19-1.77-4.6s-11.16,5.37-13.17-4.75a13,13,0,0,0-3.22-6.11,13.3,13.3,0,0,0-2.39-2.06c-6.11-4.23-15.12-3.12-21.38,2.59a19.19,19.19,0,0,0-6.21,11.74,14.87,14.87,0,0,0,1.75,9.38s-21.55,14.25-29.87,15.16c-1.88.21-6.32-1.24-8.64-2.06a2.23,2.23,0,0,0-2.46.68c-6,7.27-37.44,45.3-47.24,59.87-.89,1.32-3.63,5-3.15,5.55.9,1.07,4-1.28,5.22-2,16.75-10.51,41.94-42.18,57.83-54,7.82-5.8,34.87-17.36,34.87-17.36,5.92,2.57,13.53,1.1,19-3.93a20.3,20.3,0,0,0,4.12-5.25c3.7-4.77,15.74-2.46,16.69-2.87ZM185.53,195.8A2.51,2.51,0,1,1,182,196a2.5,2.5,0,0,1,3.53-.17Zm62.84-29.63a14.4,14.4,0,0,1-4.72,8.8c-4.63,4.24-11.13,5.16-15.46,2.18a8.3,8.3,0,0,1-1.55-1.35,9.84,9.84,0,0,1-2.35-8.06,14.46,14.46,0,0,1,4.69-8.8c4.64-4.24,11.14-5.16,15.47-2.2A8.74,8.74,0,0,1,246,158.1a10,10,0,0,1,2.37,8.07Z" fill="#fff"/><path d="M455.34,350.94a2,2,0,0,0-1.34-1.28l-.09,0-.06,0h0l-.06,0a134.72,134.72,0,0,0-33.87-4.24,48.6,48.6,0,0,0-18.82,4,48.6,48.6,0,0,0-18.82-4,134.75,134.75,0,0,0-33.88,4.24l-.05,0h0l0,0-.09,0a2,2,0,0,0-1.35,1.28,2.2,2.2,0,0,0-.11.68v92a2.13,2.13,0,0,0,.84,1.68,2,2,0,0,0,.26.1,2,2,0,0,0,.52.21,1.77,1.77,0,0,0,.32.05c.07,0,.12,0,.19,0a3.33,3.33,0,0,0,.54-.07,135.63,135.63,0,0,1,31.26-4.07c7.67.12,15.25,3.05,18.35,3.52a20.29,20.29,0,0,0,4.22,0c3.1-.47,10.68-3.4,18.35-3.52a135.48,135.48,0,0,1,31.25,4.07,3.45,3.45,0,0,0,.55.07c.07,0,.12,0,.18,0a1.75,1.75,0,0,0,.33-.05,2,2,0,0,0,.52-.21,2,2,0,0,0,.26-.1,2.13,2.13,0,0,0,.84-1.68v-92A2,2,0,0,0,455.34,350.94ZM399,353v78.86a2.08,2.08,0,0,0,2.09,2.09h0a2.08,2.08,0,0,0,2.1-2.09V353a45.46,45.46,0,0,1,16.71-3.45,139.18,139.18,0,0,1,27.91,2.94,1.91,1.91,0,0,0,.82.32c1.05.22,1.94.41,2.65.54v87.56A117.22,117.22,0,0,0,422,437.37l-.72,0c-.48,0-.93,0-1.41,0a48.51,48.51,0,0,0-18.82,4,48.56,48.56,0,0,0-18.82-4c-.48,0-.93,0-1.41,0l-.72,0a117.15,117.15,0,0,0-29.25,3.51V353.32c.71-.13,1.59-.32,2.64-.54a1.9,1.9,0,0,0,.83-.32,139.18,139.18,0,0,1,27.91-2.94A45.46,45.46,0,0,1,399,353Z" fill="#fff"/><path d="M389,367.44c-12.92-3-27.6.83-28.21,1a2.09,2.09,0,0,0,.54,4.11,2.05,2.05,0,0,0,.54-.07c.14,0,14.27-3.75,26.17-1a2.09,2.09,0,1,0,1-4.07Z" fill="#fff"/><path d="M389,380c-12.92-3-27.6.83-28.21,1a2.09,2.09,0,0,0,.54,4.11,2.05,2.05,0,0,0,.54-.07c.14,0,14.27-3.75,26.17-1a2.09,2.09,0,1,0,1-4.07Z" fill="#fff"/><path d="M389,392.54c-12.92-3-27.6.83-28.21,1a2.09,2.09,0,1,0,1.08,4c.14,0,14.27-3.75,26.17-1a2.09,2.09,0,1,0,1-4.07Z" fill="#fff"/><path d="M389,417.64c-12.92-3-27.6.83-28.21,1a2.09,2.09,0,1,0,1.08,4c.14,0,14.27-3.75,26.17-1a2.09,2.09,0,1,0,1-4.07Z" fill="#fff"/><path d="M389,405.09c-12.92-3-27.6.83-28.21,1a2.09,2.09,0,1,0,1.08,4c.14,0,14.27-3.75,26.17-1a2.09,2.09,0,1,0,1-4.07Z" fill="#fff"/><path d="M411.86,370a2.11,2.11,0,0,0,2.52,1.56c11.9-2.79,26,.92,26.17,1a2.09,2.09,0,0,0,1.09-4c-.62-.16-15.3-4-28.22-1A2.1,2.1,0,0,0,411.86,370Z" fill="#fff"/><path d="M411.86,382.5a2.11,2.11,0,0,0,2.52,1.56c11.9-2.79,26,.92,26.17,1a2.09,2.09,0,0,0,1.09-4c-.62-.16-15.3-4-28.22-1A2.1,2.1,0,0,0,411.86,382.5Z" fill="#fff"/><path d="M411.86,395.05a2.11,2.11,0,0,0,2.52,1.56c11.9-2.79,26,.92,26.17,1a2.09,2.09,0,0,0,1.09-4c-.62-.16-15.3-4-28.22-1A2.1,2.1,0,0,0,411.86,395.05Z" fill="#fff"/><path d="M411.86,420.15a2.11,2.11,0,0,0,2.52,1.56c11.9-2.79,26,.92,26.17,1a2.09,2.09,0,0,0,1.09-4c-.62-.16-15.3-4-28.22-1A2.1,2.1,0,0,0,411.86,420.15Z" fill="#fff"/><path d="M411.86,407.6a2.11,2.11,0,0,0,2.52,1.56c11.9-2.79,26,.92,26.17,1a2.09,2.09,0,0,0,1.09-4c-.62-.16-15.3-4-28.22-1A2.1,2.1,0,0,0,411.86,407.6Z" fill="#fff"/><path d="M401.09,455.66a16.85,16.85,0,0,1-6.41-1.28l-.66-.28H350.1a12.39,12.39,0,0,1-12.37-12.37V360a2.68,2.68,0,1,1,5.35,0v81.72a7,7,0,0,0,7,7h45l1.65.68a11.36,11.36,0,0,0,8.72,0l1.65-.68h45a7,7,0,0,0,7-7V360a2.68,2.68,0,1,1,5.35,0v81.72a12.39,12.39,0,0,1-12.38,12.37h-43.9l-.67.28A16.77,16.77,0,0,1,401.09,455.66Z" fill="#fff"/><line x1="403.18" y1="445.13" x2="398.97" y2="445.02" fill="#fff"/><path d="M197.22,397.55s.79-12.94-10.1-11.79c0,0-1.14,2.59,1.42,2.38,4.23-.34,9.51,5.82,3.8,16.47C187.64,413.39,197.22,397.55,197.22,397.55Z" fill="#fff"/><rect x="96.97" y="497.53" width="399.16" height="96.3" fill="none" stroke="#f2f2f2" stroke-miterlimit="10" stroke-width="1.35"/><rect x="0.67" y="497.53" width="96.3" height="96.3" fill="none" stroke="#f2f2f2" stroke-miterlimit="10" stroke-width="1.3"/><rect x="0.67" y="96.97" width="96.3" height="400.55" fill="none" stroke="#f2f2f2" stroke-miterlimit="10" stroke-width="1.35"/><rect x="496.13" y="497.53" width="96.3" height="96.3" fill="none" stroke="#f2f2f2" stroke-miterlimit="10" stroke-width="1.3"/><rect x="496.13" y="96.97" width="96.3" height="400.55" fill="none" stroke="#f2f2f2" stroke-miterlimit="10" stroke-width="1.35"/><rect x="496.13" y="0.67" width="96.3" height="96.3" fill="none" stroke="#f2f2f2" stroke-miterlimit="10" stroke-width="1.3"/><rect x="0.67" y="0.67" width="96.3" height="96.3" fill="none" stroke="#f2f2f2" stroke-miterlimit="10" stroke-width="1.3"/><rect x="96.97" y="0.67" width="399.16" height="96.3" fill="none" stroke="#f2f2f2" stroke-miterlimit="10" stroke-width="1.35"/><line x1="306.22" y1="96.97" x2="306.22" y2="0.67" fill="none" stroke="#f2f2f2" stroke-miterlimit="10" stroke-width="1.4"/><line x1="402.52" y1="96.97" x2="402.52" y2="0.67" fill="none" stroke="#f2f2f2" stroke-miterlimit="10" stroke-width="1.4"/><line x1="306.22" y1="12.16" x2="402.52" y2="12.16" fill="none" stroke="#f2f2f2" stroke-miterlimit="10" stroke-width="1.4"/><path d="M306.22,8.66c-4.66,0-4.67,7,0,7S310.89,8.66,306.22,8.66Z" fill="#f2f2f2"/><path d="M402.52,8.66c-4.66,0-4.67,7,0,7S407.19,8.66,402.52,8.66Z" fill="#f2f2f2"/><path d="M373.8,74.51a3.59,3.59,0,0,1-1.17,2.65A3.72,3.72,0,0,1,370,78.29a3.57,3.57,0,0,1-2.77-1.38L354.37,61,341.5,76.91a3.45,3.45,0,0,1-2.71,1.32,3.81,3.81,0,0,1-2.68-1.1,3.49,3.49,0,0,1-1.17-2.62,3.72,3.72,0,0,1,.95-2.4l13.75-16.78L336.46,39.25a3.39,3.39,0,0,1-.95-2.4,3.53,3.53,0,0,1,1.14-2.62,3.69,3.69,0,0,1,2.65-1.1,3.56,3.56,0,0,1,2.77,1.39l12.3,15.2,12.3-15.2a3.4,3.4,0,0,1,2.71-1.39,3.83,3.83,0,0,1,2.69,1.1,3.52,3.52,0,0,1,1.16,2.62,3.38,3.38,0,0,1-.94,2.4L359.1,55.33l13.69,16.78A3.76,3.76,0,0,1,373.8,74.51Z" fill="#f2f2f2"/><path d="M560.43,67.62a3.59,3.59,0,0,1-1.17,2.65,3.71,3.71,0,0,1-2.68,1.14A3.6,3.6,0,0,1,553.81,70L541,54.12,528.14,70a3.49,3.49,0,0,1-2.72,1.32,3.77,3.77,0,0,1-2.68-1.1,3.48,3.48,0,0,1-1.16-2.62,3.7,3.7,0,0,1,.94-2.4l13.75-16.77L523.09,32.36a3.39,3.39,0,0,1-1-2.4,3.5,3.5,0,0,1,1.14-2.61,3.68,3.68,0,0,1,2.65-1.11,3.6,3.6,0,0,1,2.77,1.39L541,42.83l12.3-15.2A3.43,3.43,0,0,1,556,26.24a3.78,3.78,0,0,1,2.68,1.11A3.48,3.48,0,0,1,559.86,30a3.38,3.38,0,0,1-.94,2.4L545.73,48.45l13.69,16.77A3.7,3.7,0,0,1,560.43,67.62Z" fill="#f2f2f2"/><path d="M560.43,564.48a3.59,3.59,0,0,1-1.17,2.65,3.74,3.74,0,0,1-2.68,1.13,3.56,3.56,0,0,1-2.77-1.39L541,551l-12.86,15.89a3.47,3.47,0,0,1-2.72,1.33,3.81,3.81,0,0,1-2.68-1.1,3.48,3.48,0,0,1-1.16-2.62,3.7,3.7,0,0,1,.94-2.4l13.75-16.78-13.18-16.08a3.42,3.42,0,0,1-1-2.4,3.53,3.53,0,0,1,1.14-2.62,3.71,3.71,0,0,1,2.65-1.1,3.56,3.56,0,0,1,2.77,1.39l12.3,15.2,12.3-15.2A3.4,3.4,0,0,1,556,523.1a3.81,3.81,0,0,1,2.68,1.1,3.52,3.52,0,0,1,1.16,2.62,3.41,3.41,0,0,1-.94,2.4L545.73,545.3l13.69,16.78A3.7,3.7,0,0,1,560.43,564.48Z" fill="#f2f2f2"/><path d="M68.25,67.62a3.59,3.59,0,0,1-1.17,2.65,3.71,3.71,0,0,1-2.68,1.14A3.6,3.6,0,0,1,61.63,70L48.82,54.12,36,70a3.49,3.49,0,0,1-2.72,1.32,3.77,3.77,0,0,1-2.68-1.1,3.49,3.49,0,0,1-1.17-2.62,3.72,3.72,0,0,1,.95-2.4L44.09,48.45,30.91,32.36A3.39,3.39,0,0,1,30,30a3.5,3.5,0,0,1,1.14-2.61,3.66,3.66,0,0,1,2.65-1.11,3.6,3.6,0,0,1,2.77,1.39l12.3,15.2,12.3-15.2a3.43,3.43,0,0,1,2.72-1.39,3.8,3.8,0,0,1,2.68,1.11A3.48,3.48,0,0,1,67.68,30a3.38,3.38,0,0,1-.94,2.4L53.55,48.45,67.24,65.22A3.76,3.76,0,0,1,68.25,67.62Z" fill="#f2f2f2"/><path d="M68.25,564.48a3.59,3.59,0,0,1-1.17,2.65,3.74,3.74,0,0,1-2.68,1.13,3.56,3.56,0,0,1-2.77-1.39L48.82,551,36,566.87a3.47,3.47,0,0,1-2.72,1.33,3.81,3.81,0,0,1-2.68-1.1,3.49,3.49,0,0,1-1.17-2.62,3.72,3.72,0,0,1,.95-2.4L44.09,545.3,30.91,529.22a3.42,3.42,0,0,1-.95-2.4,3.53,3.53,0,0,1,1.14-2.62,3.69,3.69,0,0,1,2.65-1.1,3.56,3.56,0,0,1,2.77,1.39l12.3,15.2,12.3-15.2a3.4,3.4,0,0,1,2.72-1.39,3.83,3.83,0,0,1,2.68,1.1,3.52,3.52,0,0,1,1.16,2.62,3.41,3.41,0,0,1-.94,2.4L53.55,545.3l13.69,16.78A3.76,3.76,0,0,1,68.25,564.48Z" fill="#f2f2f2"/></g></g></g></svg>