<svg xmlns="http://www.w3.org/2000/svg" xmlns:xlink="http://www.w3.org/1999/xlink" viewBox="0 0 196.87 196.81"><defs><linearGradient id="b38570ed-2148-4e4f-815e-e6da9c23e31f" x1="190.24" y1="3.39" x2="9.03" y2="190.94" gradientUnits="userSpaceOnUse"><stop offset="0" stop-color="#00fffa"/><stop offset="0.25" stop-color="#1dcbfb"/><stop offset="1" stop-color="#732ffe"/></linearGradient></defs><title>logo</title><g id="f97ff41b-3757-4a7a-b8af-cf3d789fa2d1" data-name="Layer 2"><g id="a5e9da13-5de8-4588-86ad-17c92b1de1cb" data-name="Шар 1"><g id="ab7afc87-5e24-4706-8eeb-54b4ae2bee57" data-name="Content 2"><path d="M94.17,94.17H17.58A17.58,17.58,0,0,1,0,76.59v-59A17.58,17.58,0,0,1,17.58,0h59A17.58,17.58,0,0,1,94.17,17.58Zm-76.59,8.2A17.58,17.58,0,0,0,0,120v59a17.58,17.58,0,0,0,17.58,17.58h59A17.58,17.58,0,0,0,94.17,179V102.37Zm85.12,76.85a17.59,17.59,0,0,0,17.58,17.59h59a17.59,17.59,0,0,0,17.58-17.59v-59a17.59,17.59,0,0,0-17.58-17.59H102.7Zm76.59-84.78a17.58,17.58,0,0,0,17.58-17.58v-59A17.58,17.58,0,0,0,179.29.27h-59A17.58,17.58,0,0,0,102.7,17.85V94.44Z" fill="url(#b38570ed-2148-4e4f-815e-e6da9c23e31f)"/><path d="M83.53,121.11a.22.22,0,0,0-.3,0l-.87.8a.2.2,0,0,0,0,.29l.34.35a.22.22,0,0,0,.3,0l.87-.8a.2.2,0,0,0,0-.29Z" fill="#fff"/><path d="M81.16,123.33a.22.22,0,0,0-.3,0l-.87.8a.2.2,0,0,0,0,.29l.35.35a.22.22,0,0,0,.3,0l.87-.8a.2.2,0,0,0,0-.29Z" fill="#fff"/><path d="M78.78,125.55a.21.21,0,0,0-.29,0l-.88.8a.21.21,0,0,0,0,.29l.35.35a.22.22,0,0,0,.3,0l.87-.8a.21.21,0,0,0,0-.29Z" fill="#fff"/><path d="M75.56,116.28a.19.19,0,0,0,.28-.06l.69-1a.22.22,0,0,0,0-.3l-.39-.3a.2.2,0,0,0-.28.07l-.68,1a.23.23,0,0,0,0,.3Z" fill="#fff"/><path d="M73.67,118.92a.19.19,0,0,0,.28-.06l.68-1a.23.23,0,0,0,0-.3l-.39-.3a.2.2,0,0,0-.28.07l-.69,1a.22.22,0,0,0,0,.3Z" fill="#fff"/><path d="M71.78,121.56a.19.19,0,0,0,.28-.06l.68-1a.23.23,0,0,0,0-.3l-.39-.3a.2.2,0,0,0-.28.07l-.69,1a.22.22,0,0,0,0,.3Z" fill="#fff"/><path d="M83.58,119.24a3.74,3.74,0,0,1-1-1.31c-.24-.85-.13-1.66-.51-2a3.49,3.49,0,0,0-2.28-.41,2.67,2.67,0,0,1-1.42-.8.51.51,0,0,0-.78.08l-5.81,8.11a5.06,5.06,0,0,1-.64,1.75l-.35.4-2.06,2.16-.27.3-3.12,3.27-.28.29-3.12,3.27-.27.31-3.1,3.28-.28.29-3.12,3.27-.28.31-3.08,3.27h0l-.27.29s-3.24,3.36-3.41,3.71a66,66,0,0,1-4.2,6.12,1.34,1.34,0,0,0,.3,2.12,5.23,5.23,0,0,1,1.21,1A4.85,4.85,0,0,1,39.92,166a5.61,5.61,0,0,1-3.26-4.71V161c-.1-1.4-5,.86-6.63,5.29-3.12,8.38-7.63,3.8-6.8-.72,2-10.87,10.75-7.36,16-13.62,1.91-2.86,1.42-7.1,5.06-8.44a3.19,3.19,0,0,1,.35-.1.64.64,0,0,0-.21-1.26,2.78,2.78,0,0,0-.49.08c-5.43.83-4.15,5.59-6.87,8.67-3,3.4-8.78,1.58-15.69,9.45-3.13,3.56-4.1,11.12,4.85,19h0c9,7.86,16.33,5.89,19.46,2.33C52.59,173.8,50,168.29,53,164.89c2.49-2.84,6.82-2.52,7.6-6.73a.54.54,0,0,0-.8-.56c-3.82,2.15-7.25-1-6.69-3.82l3.61-4.39.25-.32,2.88-3.48.27-.32L63,141.79l.27-.3,2.87-3.5.26-.3,2.85-3.49.26-.31,2.87-3.48.27-.32,1.65-2,.33-.4a5.13,5.13,0,0,1,1.68-.86L83.58,120A.53.53,0,0,0,83.58,119.24ZM74,122.88l-.08-.08a.5.5,0,0,1-.1-.7L77.67,117a.5.5,0,0,1,.7-.1l.1.07a.52.52,0,0,1,.1.72l-3.88,5.07A.52.52,0,0,1,74,122.88Zm7.29-2.73-4.51,4.52a.53.53,0,0,1-.72,0l-.07-.08a.51.51,0,0,1,0-.72l4.51-4.52a.51.51,0,0,1,.71,0l.08.08A.49.49,0,0,1,81.26,120.15Z" fill="#fff"/><polygon points="51.79 145.05 51.5 145.34 51.77 145.04 51.79 145.05" fill="#fff"/><path d="M173.25,27.57c-1.48,1.57-3,3.13-4.46,4.7-1.8-.21-3.58-.44-5.39-.67-.31-1.78-.64-3.56-1-5.34,1.49-1.57,3-3.14,4.46-4.7a.75.75,0,0,0-.57-1.26,11.66,11.66,0,0,0-5.12,1.8,8.82,8.82,0,0,0-3.63,4,14.34,14.34,0,0,0-.67,4.41,6,6,0,0,1-1.18,3.87L143.63,47.13l-6.24,6.6a8,8,0,0,1-2.74,2.3,18.72,18.72,0,0,1-4.08.69,7.64,7.64,0,0,0-5.23,2.78,11.76,11.76,0,0,0-2.72,7,.75.75,0,0,0,1.28.49l4.45-4.71,5.38.67q.5,2.67,1,5.34L130.24,73a.74.74,0,0,0,.55,1.24,11.49,11.49,0,0,0,5.13-1.8,8.9,8.9,0,0,0,3.57-3.8c1.09-2.56.07-5.73,1.62-8.1a12.86,12.86,0,0,1,1.46-1.59c.62-.64,1.23-1.29,1.83-1.93l3.83-4c2.59-2.75,5.2-5.49,7.79-8.24L160.55,40a5.07,5.07,0,0,1,2.25-1.56,15.19,15.19,0,0,1,2.93-.48c2.24-.25,4.2-.78,5.75-2.51a11.91,11.91,0,0,0,3.05-7.36A.74.74,0,0,0,173.25,27.57Zm-14.9,10.92-18.8,20.28a1.09,1.09,0,0,1-1.54.06l-.07-.06a1.08,1.08,0,0,1-.05-1.54L156.69,37a1.07,1.07,0,0,1,1.53-.06l.08.06A1.1,1.1,0,0,1,158.35,38.49Z" fill="#fff"/><path d="M59.49,28.42a11.79,11.79,0,0,0,2.42-3.09c1.11-2.84,1.35-5.87-.22-8.22a7.08,7.08,0,0,0-1-1.17,7.21,7.21,0,0,0-5.86-1.85,9.48,9.48,0,0,0-5.84,3c-2.87,3.07-3.46,7.51-1.41,10.56a6.34,6.34,0,0,0,.91,1.09l-5.54,12.7A1.1,1.1,0,0,0,43.6,43l1.92.64a1.1,1.1,0,0,0,1.39-.68l4.37-12.48a8,8,0,0,0,3.15.27,9.28,9.28,0,0,0,5.06-2.28Zm.23-10c1.45,2.16,1,5.37-1.17,7.64a7.23,7.23,0,0,1-4.39,2.29,4.88,4.88,0,0,1-4-1.23,4.34,4.34,0,0,1-.65-.76c-1.45-2.16-1-5.37,1.17-7.65a7.22,7.22,0,0,1,4.38-2.28,4.87,4.87,0,0,1,4,1.22,4.4,4.4,0,0,1,.66.77Z" fill="#fff"/><path d="M83.81,35.63c.51-.23,0-2.08-.88-2.28S77.4,36,76.41,31a6.42,6.42,0,0,0-1.6-3,6.69,6.69,0,0,0-1.17-1c-3-2.09-7.49-1.54-10.59,1.29A9.48,9.48,0,0,0,60,34.05a7.36,7.36,0,0,0,.86,4.64s-10.66,7.05-14.78,7.5a14.5,14.5,0,0,1-4.28-1,1.09,1.09,0,0,0-1.22.33c-3,3.6-18.52,22.42-23.37,29.63-.45.66-1.8,2.47-1.56,2.75.44.53,2-.64,2.58-1C26.5,71.68,39,56,46.83,50.18c3.87-2.87,17.26-8.59,17.26-8.59a9,9,0,0,0,9.42-1.94,9.94,9.94,0,0,0,2-2.61c1.83-2.36,7.79-1.21,8.27-1.41ZM43.14,48.22a1.24,1.24,0,1,1-1.75.09,1.24,1.24,0,0,1,1.75-.09Zm31.1-14.66a7.11,7.11,0,0,1-2.33,4.35C69.62,40,66.4,40.47,64.25,39a4.07,4.07,0,0,1-.77-.67,4.9,4.9,0,0,1-1.16-4A7.17,7.17,0,0,1,64.65,30c2.29-2.1,5.51-2.55,7.65-1.09a4.46,4.46,0,0,1,.77.67,4.92,4.92,0,0,1,1.17,4Z" fill="#fff"/><path d="M176.68,125a1,1,0,0,0-.66-.64l-.05,0h-.07a66.82,66.82,0,0,0-16.77-2.1,24,24,0,0,0-9.31,2,24,24,0,0,0-9.31-2,66.73,66.73,0,0,0-16.77,2.1h-.07l0,0a1,1,0,0,0-.66.64.92.92,0,0,0-.06.33V170.9a1.07,1.07,0,0,0,.41.83.69.69,0,0,0,.13.05.82.82,0,0,0,.26.1l.16,0H124a1.24,1.24,0,0,0,.27,0,67,67,0,0,1,15.47-2c3.8.06,7.55,1.51,9.08,1.75a11.05,11.05,0,0,0,2.1,0c1.53-.24,5.28-1.69,9.08-1.75a67,67,0,0,1,15.47,2,1.24,1.24,0,0,0,.27,0h.09l.16,0a.93.93,0,0,0,.26-.1.69.69,0,0,0,.13-.05,1.07,1.07,0,0,0,.41-.83V125.34A.92.92,0,0,0,176.68,125Zm-27.91,1v39a1,1,0,0,0,1,1h0a1,1,0,0,0,1-1V126a22.59,22.59,0,0,1,8.26-1.7A68.9,68.9,0,0,1,173,125.76a.93.93,0,0,0,.41.16l1.31.27v43.33a58.39,58.39,0,0,0-14.48-1.73h-1.06a24.07,24.07,0,0,0-9.31,2,24.12,24.12,0,0,0-9.31-2h-1.06A58.39,58.39,0,0,0,125,169.52V126.19l1.31-.27a.93.93,0,0,0,.41-.16,68.9,68.9,0,0,1,13.82-1.45A22.59,22.59,0,0,1,148.77,126Z" fill="#fff"/><path d="M143.84,133.17c-6.39-1.5-13.65.41-14,.5a1,1,0,0,0,.27,2,1.24,1.24,0,0,0,.27,0c.07,0,7.06-1.86,13-.48a1,1,0,1,0,.47-2Z" fill="#fff"/><path d="M143.84,139.38c-6.39-1.49-13.65.42-14,.5a1,1,0,0,0,.27,2,1.24,1.24,0,0,0,.27,0c.07,0,7.06-1.86,13-.48a1,1,0,1,0,.47-2Z" fill="#fff"/><path d="M143.84,145.6c-6.39-1.5-13.65.41-14,.49a1,1,0,0,0,.27,2,1.26,1.26,0,0,0,.27,0c.07,0,7.06-1.86,13-.48a1,1,0,1,0,.47-2Z" fill="#fff"/><path d="M143.84,158c-6.39-1.5-13.65.41-14,.49a1,1,0,0,0,.27,2,.84.84,0,0,0,.27,0c.07,0,7.06-1.86,13-.47a1.05,1.05,0,0,0,1.25-.78A1,1,0,0,0,143.84,158Z" fill="#fff"/><path d="M143.84,151.81c-6.39-1.5-13.65.41-14,.49a1,1,0,0,0,.27,2,1.26,1.26,0,0,0,.27,0c.07,0,7.06-1.86,13-.48a1,1,0,1,0,.47-2Z" fill="#fff"/><path d="M155.16,134.42a1,1,0,0,0,1.25.77c5.89-1.38,12.88.46,13,.48a1.24,1.24,0,0,0,.27,0,1,1,0,0,0,.27-2c-.31-.09-7.57-2-14-.5A1,1,0,0,0,155.16,134.42Z" fill="#fff"/><path d="M155.16,140.63a1,1,0,0,0,1.25.77c5.89-1.38,12.88.46,13,.48a1.24,1.24,0,0,0,.27,0,1,1,0,0,0,.27-2c-.31-.08-7.57-2-14-.5A1,1,0,0,0,155.16,140.63Z" fill="#fff"/><path d="M155.16,146.84a1,1,0,0,0,1.25.77c5.89-1.38,12.88.46,13,.48a1.26,1.26,0,0,0,.27,0,1,1,0,0,0,.27-2c-.31-.08-7.57-2-14-.49A1,1,0,0,0,155.16,146.84Z" fill="#fff"/><path d="M155.16,159.26a1.05,1.05,0,0,0,1.25.78c5.89-1.39,12.88.45,13,.47a.84.84,0,0,0,.27,0,1,1,0,0,0,.27-2c-.31-.08-7.57-2-14-.49A1,1,0,0,0,155.16,159.26Z" fill="#fff"/><path d="M155.16,153.05a1,1,0,0,0,1.25.77c5.89-1.38,12.88.46,13,.48a1.26,1.26,0,0,0,.27,0,1,1,0,0,0,.27-2c-.31-.08-7.57-2-14-.49A1,1,0,0,0,155.16,153.05Z" fill="#fff"/><path d="M149.83,176.84a8.13,8.13,0,0,1-3.17-.64l-.33-.13H124.59a6.13,6.13,0,0,1-6.12-6.13V129.5a1.33,1.33,0,1,1,2.65,0v40.44a3.48,3.48,0,0,0,3.47,3.48h22.27l.81.33a5.58,5.58,0,0,0,4.32,0l.81-.33h22.26a3.48,3.48,0,0,0,3.48-3.48V129.5a1.32,1.32,0,1,1,2.64,0v40.44a6.13,6.13,0,0,1-6.12,6.13H153.33l-.33.13A8.16,8.16,0,0,1,149.83,176.84Z" fill="#fff"/><line x1="150.86" y1="171.63" x2="148.78" y2="171.57" fill="#fff"/><path d="M48.93,148.08s.39-6.41-5-5.84c0,0-.57,1.29.7,1.18,2.09-.17,4.71,2.88,1.88,8.15C44.18,155.92,48.93,148.08,48.93,148.08Z" fill="#fff"/></g></g></g></svg>