<svg xmlns="http://www.w3.org/2000/svg" width="131.53" height="75.37" viewBox="0 0 131.53 75.37"><title>paginator</title><g style="isolation:isolate"><g id="a765f9c1-099d-4316-af7d-4ec1bd0d7353" data-name="Layer 2"><g id="e35a6d22-7885-4620-9bd4-a43d8d205fc4" data-name="Шар 1"><g id="b3ca46de-258f-4d3f-953a-5aa5d745f753" data-name="Content 6"><circle cx="12.54" cy="12.82" r="12.25" fill="#3e65fc"/><circle cx="52.98" cy="16.5" r="9.9" fill="#dde4eb" style="mix-blend-mode:multiply"/><path d="M50.34,0A12.54,12.54,0,1,0,62.88,12.54,12.53,12.53,0,0,0,50.34,0Zm0,22.44a9.9,9.9,0,1,1,9.9-9.9A9.9,9.9,0,0,1,50.34,22.44Z" fill="#3e65fc"/><circle cx="87.3" cy="16.5" r="9.9" fill="#dde4eb" style="mix-blend-mode:multiply"/><path d="M84.66,0A12.54,12.54,0,1,0,97.2,12.54,12.53,12.53,0,0,0,84.66,0Zm0,22.44a9.9,9.9,0,1,1,9.9-9.9A9.9,9.9,0,0,1,84.66,22.44Z" fill="#3e65fc"/><circle cx="121.63" cy="16.5" r="9.9" fill="#dde4eb" style="mix-blend-mode:multiply"/><path d="M119,0a12.54,12.54,0,1,0,12.54,12.54A12.54,12.54,0,0,0,119,0Zm0,22.44a9.9,9.9,0,1,1,9.9-9.9A9.91,9.91,0,0,1,119,22.44Z" fill="#3e65fc"/><circle cx="48.6" cy="61.79" r="12.25" fill="#3e65fc"/><circle cx="15.18" cy="65.47" r="9.9" fill="#dde4eb" style="mix-blend-mode:multiply"/><path d="M12.54,49A12.54,12.54,0,1,0,25.08,61.51,12.53,12.53,0,0,0,12.54,49Zm0,22.44a9.9,9.9,0,1,1,9.9-9.9A9.91,9.91,0,0,1,12.54,71.41Z" fill="#3e65fc"/><circle cx="87.3" cy="65.47" r="9.9" fill="#dde4eb" style="mix-blend-mode:multiply"/><path d="M84.66,49A12.54,12.54,0,1,0,97.2,61.51,12.53,12.53,0,0,0,84.66,49Zm0,22.44a9.9,9.9,0,1,1,9.9-9.9A9.91,9.91,0,0,1,84.66,71.41Z" fill="#3e65fc"/><circle cx="121.63" cy="65.47" r="9.9" fill="#dde4eb" style="mix-blend-mode:multiply"/><path d="M119,49a12.54,12.54,0,1,0,12.54,12.54A12.54,12.54,0,0,0,119,49Zm0,22.44a9.9,9.9,0,1,1,9.9-9.9A9.91,9.91,0,0,1,119,71.41Z" fill="#3e65fc"/></g></g></g></g></svg>