<svg xmlns="http://www.w3.org/2000/svg" width="56.24" height="14.79" viewBox="0 0 56.24 14.79"><title>rectangle-button</title><g id="fbeb8c57-cbc3-4b7c-afe3-d700799c7795" data-name="Layer 2"><g id="fcdda866-c865-4cf5-8450-7655291d3809" data-name="Шар 1"><g id="b2a6b892-501d-46d2-b5ac-64e2f58c3886" data-name="Content 6"><path d="M1.84,17.56V3H6.15a5.58,5.58,0,0,1,3.56,1,3.42,3.42,0,0,1,1.22,2.85,3.26,3.26,0,0,1-.62,2A3.38,3.38,0,0,1,8.62,10a3.54,3.54,0,0,1,2.83,3.49,3.79,3.79,0,0,1-1.25,3,5.08,5.08,0,0,1-3.47,1.09Zm1.24-8H6.45a3.78,3.78,0,0,0,2.39-.73,2.48,2.48,0,0,0,.84-2,2.43,2.43,0,0,0-.87-2.07A4.34,4.34,0,0,0,6.15,4H3.08Zm0,1v6h3.7a3.69,3.69,0,0,0,2.51-.81,2.78,2.78,0,0,0,.92-2.23,2.71,2.71,0,0,0-.88-2.14,3.59,3.59,0,0,0-2.45-.79Z" transform="translate(-1.84 -2.97)"/><path d="M21.12,16.19a3.89,3.89,0,0,1-3.46,1.57,3.34,3.34,0,0,1-2.64-1,4.44,4.44,0,0,1-.92-3v-7h1.2v6.9c0,2.07.83,3.1,2.5,3.1a3.07,3.07,0,0,0,3.3-2.16V6.72h1.2V17.56H21.14Z" transform="translate(-1.84 -2.97)"/><path d="M27.28,3.94V6.72h2.25v1H27.28v7.23a2.26,2.26,0,0,0,.33,1.35,1.28,1.28,0,0,0,1.09.44,6.93,6.93,0,0,0,1-.1l0,1a3.7,3.7,0,0,1-1.28.17,2.16,2.16,0,0,1-1.8-.72,3.37,3.37,0,0,1-.56-2.1V7.7h-2v-1h2V3.94Z" transform="translate(-1.84 -2.97)"/><path d="M33.88,3.94V6.72h2.24v1H33.88v7.23a2.26,2.26,0,0,0,.33,1.35,1.25,1.25,0,0,0,1.08.44,6.8,6.8,0,0,0,1-.1l.06,1a3.8,3.8,0,0,1-1.29.17A2.12,2.12,0,0,1,33.24,17a3.31,3.31,0,0,1-.56-2.1V7.7h-2v-1h2V3.94Z" transform="translate(-1.84 -2.97)"/><path d="M37.75,12a6.34,6.34,0,0,1,.61-2.82,4.52,4.52,0,0,1,4.22-2.64A4.48,4.48,0,0,1,46.09,8a5.91,5.91,0,0,1,1.34,4v.25a6.49,6.49,0,0,1-.6,2.83,4.57,4.57,0,0,1-1.71,1.94,4.67,4.67,0,0,1-2.52.68,4.43,4.43,0,0,1-3.5-1.52,5.82,5.82,0,0,1-1.35-4Zm1.2.33a4.91,4.91,0,0,0,1,3.19,3.4,3.4,0,0,0,5.27,0,5.09,5.09,0,0,0,1-3.29V12a5.66,5.66,0,0,0-.46-2.28,3.71,3.71,0,0,0-1.3-1.6,3.34,3.34,0,0,0-1.9-.56A3.22,3.22,0,0,0,40,8.8a5.09,5.09,0,0,0-1,3.29Z" transform="translate(-1.84 -2.97)"/><path d="M51.05,6.72l0,1.85A4.37,4.37,0,0,1,52.61,7a4,4,0,0,1,2-.52,3.21,3.21,0,0,1,2.59,1,4.41,4.41,0,0,1,.87,2.94v7.12h-1.2V10.43a3.29,3.29,0,0,0-.61-2.16,2.4,2.4,0,0,0-1.94-.71,3.05,3.05,0,0,0-2,.69,4.14,4.14,0,0,0-1.27,1.88v7.43H49.91V6.72Z" transform="translate(-1.84 -2.97)"/></g></g></g></svg>