<svg xmlns="http://www.w3.org/2000/svg" width="220" height="60" viewBox="0 0 220 60"><title>round-hover</title><g id="b74fd52d-61fc-4b28-9510-aa04db55a4cd" data-name="Layer 2"><g id="e71ee876-28bc-478c-8ebb-2a0175390958" data-name="Шар 1"><g id="aa7b33b9-63a4-4a11-8698-8f2c63ff532a" data-name="Content 6"><rect width="220" height="60" rx="30" fill="#3e65fc"/><path d="M96.83,34.67H93.51V28.91H88.58v5.76H85.24V20.87h3.34v5.48h4.93V20.87h3.32Z" fill="#fff"/><path d="M98.39,29.45a6,6,0,0,1,.6-2.74,4.39,4.39,0,0,1,1.73-1.84,5.21,5.21,0,0,1,2.64-.64A4.76,4.76,0,0,1,107,25.65a5.46,5.46,0,0,1,1.33,3.88v.12a5.25,5.25,0,0,1-1.34,3.8,4.75,4.75,0,0,1-3.62,1.41,4.85,4.85,0,0,1-3.54-1.31A5.13,5.13,0,0,1,98.4,30Zm3.21.2a3.78,3.78,0,0,0,.45,2.08,1.5,1.5,0,0,0,1.33.66c1.14,0,1.72-.87,1.75-2.62v-.32q0-2.76-1.77-2.76c-1.08,0-1.66.79-1.75,2.38Z" fill="#fff"/><path d="M113.73,30.87l1.62-6.45h3.39l-3.37,10.25H112.1l-3.37-10.25h3.39Z" fill="#fff"/><path d="M124.56,34.86a5.32,5.32,0,0,1-3.84-1.41,4.84,4.84,0,0,1-1.47-3.66v-.27a6.27,6.27,0,0,1,.59-2.77,4.22,4.22,0,0,1,1.71-1.86,5.17,5.17,0,0,1,2.66-.66,4.44,4.44,0,0,1,3.43,1.34,5.24,5.24,0,0,1,1.26,3.74v1.24h-6.38a2.14,2.14,0,0,0,2.26,1.84,2.89,2.89,0,0,0,2.38-1.06l1.47,1.73a4.15,4.15,0,0,1-1.7,1.31A5.75,5.75,0,0,1,124.56,34.86Zm-.36-8.17q-1.41,0-1.68,1.86h3.24V28.3a1.6,1.6,0,0,0-.39-1.19A1.58,1.58,0,0,0,124.2,26.69Z" fill="#fff"/><path d="M136.43,27.31l-1.06-.08c-1,0-1.66.32-1.94.95v6.49h-3.21V24.42h3l.1,1.31a2.49,2.49,0,0,1,2.26-1.5,3.08,3.08,0,0,1,.9.11Z" fill="#fff"/></g></g></g></svg>