<svg xmlns="http://www.w3.org/2000/svg" width="73.1" height="39.35" viewBox="0 0 73.1 39.35"><title>select</title><g id="ad7c4875-6c42-44bd-adc3-fd1ccd51aa80" data-name="Layer 2"><g id="a1361ab1-7026-4742-94a9-004110e08ac0" data-name="Шар 1"><g id="a46de1d9-1ffa-4b19-9e45-94f0fa07928f" data-name="Content 6"><rect width="73.1" height="39.35" fill="#92a0da"/><rect x="3.16" y="2.59" width="34.18" height="34.18" fill="#fff"/><path d="M56.55,35.2a.73.73,0,0,1-1.13,0l-4.77-5.82-4.36-5.33a.73.73,0,0,1,.56-1.19H65.11a.73.73,0,0,1,.56,1.19l-4.35,5.33Z" fill="#fff"/><path d="M56.55,4.93a.73.73,0,0,0-1.13,0l-4.77,5.82-4.36,5.33a.73.73,0,0,0,.56,1.19H65.11a.73.73,0,0,0,.56-1.19l-4.35-5.33Z" fill="#fff"/><path d="M16.15,17.62h1.67a3.67,3.67,0,0,0,2.47-.82,2.78,2.78,0,0,0,.9-2.18c0-2-1-3.07-3.06-3.07a3.22,3.22,0,0,0-2.3.82A2.9,2.9,0,0,0,15,14.55H12.75a4.48,4.48,0,0,1,1.52-3.45,5.51,5.51,0,0,1,3.86-1.37A5.44,5.44,0,0,1,22,11a4.74,4.74,0,0,1,1.41,3.64,3.85,3.85,0,0,1-.74,2.21,4.44,4.44,0,0,1-2,1.6A4.33,4.33,0,0,1,22.89,20a4.21,4.21,0,0,1,.78,2.58,4.77,4.77,0,0,1-1.53,3.73,5.73,5.73,0,0,1-4,1.39,5.88,5.88,0,0,1-4-1.34,4.42,4.42,0,0,1-1.55-3.52h2.24a2.84,2.84,0,0,0,.9,2.21,3.38,3.38,0,0,0,2.41.83A3.37,3.37,0,0,0,20.6,25a3.22,3.22,0,0,0,.85-2.41,2.94,2.94,0,0,0-.93-2.34,4,4,0,0,0-2.7-.84H16.15Z"/></g></g></g></svg>