<svg xmlns="http://www.w3.org/2000/svg" width="430.87" height="151.78" viewBox="0 0 430.87 151.78"><title>textarea</title><g id="f041c1d9-1dc0-4f64-b450-65c20e82a8a6" data-name="Layer 2"><g id="b2d3bc00-3145-41e9-b187-a447bc0dc45c" data-name="Шар 1"><g id="ba441604-9734-4c59-b50d-e8d2306d6308" data-name="Content 6"><g opacity="0.81"><rect width="430.87" height="151.78" rx="5.96" fill="#fff"/></g><path d="M28,27.86l3.91-7h1.25l-4.63,8v4.83H27.48V28.86l-4.62-8h1.28Z"/><path d="M33.66,28.78a5.66,5.66,0,0,1,.53-2.47A4,4,0,0,1,37.9,24,3.91,3.91,0,0,1,41,25.32a5.12,5.12,0,0,1,1.18,3.53v.22a5.61,5.61,0,0,1-.53,2.49,3.89,3.89,0,0,1-1.5,1.7,4.09,4.09,0,0,1-2.21.6,3.89,3.89,0,0,1-3.07-1.33A5.14,5.14,0,0,1,33.66,29Zm1.06.29a4.33,4.33,0,0,0,.88,2.81,3,3,0,0,0,4.63,0,4.48,4.48,0,0,0,.89-2.9v-.2a4.9,4.9,0,0,0-.41-2,3.3,3.3,0,0,0-1.13-1.4,2.94,2.94,0,0,0-1.68-.5A2.8,2.8,0,0,0,35.61,26a4.42,4.42,0,0,0-.89,2.89Z"/><path d="M50.47,32.48a3.44,3.44,0,0,1-3,1.38A3,3,0,0,1,45.11,33a3.91,3.91,0,0,1-.81-2.62v-6.2h1.05v6.07c0,1.81.73,2.72,2.2,2.72a2.7,2.7,0,0,0,2.9-1.9V24.16h1v9.53h-1Z"/><path d="M62.15,33A2.73,2.73,0,0,0,64,32.35a2.16,2.16,0,0,0,.81-1.6h1a2.9,2.9,0,0,1-.55,1.58,3.41,3.41,0,0,1-1.33,1.13,4,4,0,0,1-1.78.4,3.67,3.67,0,0,1-3-1.3,5.28,5.28,0,0,1-1.1-3.5v-.32a6.08,6.08,0,0,1,.49-2.49A3.85,3.85,0,0,1,60,24.57,3.92,3.92,0,0,1,62.14,24a3.67,3.67,0,0,1,2.58.94,3.4,3.4,0,0,1,1.09,2.45h-1a2.74,2.74,0,0,0-4.87-1.46,4.64,4.64,0,0,0-.79,2.89v.31A4.52,4.52,0,0,0,59.93,32,2.63,2.63,0,0,0,62.15,33Z"/><path d="M73.93,33.69a4.84,4.84,0,0,1-.21-1.33,3.67,3.67,0,0,1-1.41,1.11,4.35,4.35,0,0,1-1.82.39,3.2,3.2,0,0,1-2.22-.76,2.49,2.49,0,0,1-.85-1.94A2.55,2.55,0,0,1,68.58,29a5.57,5.57,0,0,1,3.23-.81h1.91V27.07a2.09,2.09,0,0,0-.63-1.61,2.62,2.62,0,0,0-1.84-.59,2.85,2.85,0,0,0-1.82.57,1.67,1.67,0,0,0-.72,1.35H67.65a2.43,2.43,0,0,1,1.06-2A4,4,0,0,1,71.3,24a3.73,3.73,0,0,1,2.52.8A2.83,2.83,0,0,1,74.76,27v4.51a5.69,5.69,0,0,0,.29,2.07v.11Zm-3.31-.76a3.51,3.51,0,0,0,1.88-.51,3,3,0,0,0,1.22-1.37V29H71.83a4.61,4.61,0,0,0-2.46.58,1.77,1.77,0,0,0-.3,2.86A2.26,2.26,0,0,0,70.62,32.93Z"/><path d="M78.57,24.16l0,1.63A3.74,3.74,0,0,1,80,24.45,3.44,3.44,0,0,1,81.72,24a2.85,2.85,0,0,1,2.28.87,3.85,3.85,0,0,1,.75,2.59v6.25h-1V27.43a3,3,0,0,0-.54-1.9,2.13,2.13,0,0,0-1.71-.63,2.65,2.65,0,0,0-1.73.61,3.61,3.61,0,0,0-1.11,1.65v6.53H77.57V24.16Z"/><path d="M93,33.69H92V20.16H93Z"/><path d="M99.59,33.86a4.11,4.11,0,0,1-3.73-2.26,5.29,5.29,0,0,1-.54-2.4v-.38a5.71,5.71,0,0,1,.53-2.48,4.32,4.32,0,0,1,1.48-1.73A3.67,3.67,0,0,1,99.39,24a3.42,3.42,0,0,1,2.75,1.19,4.79,4.79,0,0,1,1,3.23V29H96.37v.21a4,4,0,0,0,.92,2.69A3,3,0,0,0,99.63,33a3.36,3.36,0,0,0,1.49-.31,3.18,3.18,0,0,0,1.18-1l.66.5A3.85,3.85,0,0,1,99.59,33.86Zm-.2-9a2.63,2.63,0,0,0-2,.87,4.11,4.11,0,0,0-1,2.35h5.71V28a3.5,3.5,0,0,0-.78-2.23A2.42,2.42,0,0,0,99.39,24.88Z"/><path d="M111.23,33.69a4.84,4.84,0,0,1-.21-1.33,3.67,3.67,0,0,1-1.41,1.11,4.35,4.35,0,0,1-1.82.39,3.2,3.2,0,0,1-2.22-.76,2.49,2.49,0,0,1-.85-1.94,2.55,2.55,0,0,1,1.16-2.2,5.56,5.56,0,0,1,3.22-.81H111V27.07a2.09,2.09,0,0,0-.63-1.61,2.62,2.62,0,0,0-1.84-.59,2.85,2.85,0,0,0-1.82.57,1.67,1.67,0,0,0-.72,1.35H105a2.43,2.43,0,0,1,1.06-2A4,4,0,0,1,108.6,24a3.73,3.73,0,0,1,2.52.8,2.83,2.83,0,0,1,.94,2.22v4.51a5.69,5.69,0,0,0,.29,2.07v.11Zm-3.31-.76a3.51,3.51,0,0,0,1.88-.51A3,3,0,0,0,111,31.05V29h-1.89a4.61,4.61,0,0,0-2.46.58,1.77,1.77,0,0,0-.3,2.86A2.26,2.26,0,0,0,107.92,32.93Z"/><path d="M117.7,32.23l2.9-8.07h1.08l-3.55,9.53h-.86l-3.57-9.53h1.08Z"/><path d="M127,33.86a4.09,4.09,0,0,1-2.19-.6,4,4,0,0,1-1.53-1.66,5.3,5.3,0,0,1-.55-2.4v-.38a5.57,5.57,0,0,1,.54-2.48,4.25,4.25,0,0,1,1.48-1.73,3.65,3.65,0,0,1,2.06-.63,3.44,3.44,0,0,1,2.75,1.19,4.79,4.79,0,0,1,1,3.23V29h-6.8v.21a4,4,0,0,0,.93,2.69A3,3,0,0,0,127,33a3.16,3.16,0,0,0,2.67-1.29l.66.5A3.86,3.86,0,0,1,127,33.86Zm-.19-9a2.63,2.63,0,0,0-2,.87,4,4,0,0,0-1,2.35h5.71V28a3.5,3.5,0,0,0-.78-2.23A2.43,2.43,0,0,0,126.79,24.88Z"/><path d="M140,32.17l2.78-8h1.14l-4.07,11.15-.21.49a2.56,2.56,0,0,1-2.42,1.73,3.06,3.06,0,0,1-.81-.12v-.87l.55.05a2,2,0,0,0,1.25-.38,3,3,0,0,0,.82-1.32l.46-1.28-3.59-9.45h1.15Z"/><path d="M144.85,28.78a5.53,5.53,0,0,1,.53-2.47,4,4,0,0,1,1.5-1.71,4.07,4.07,0,0,1,2.21-.62,3.92,3.92,0,0,1,3.08,1.34,5.12,5.12,0,0,1,1.18,3.53v.22a5.75,5.75,0,0,1-.53,2.49,4,4,0,0,1-1.5,1.7,4.14,4.14,0,0,1-2.21.6A3.91,3.91,0,0,1,146,32.53,5.13,5.13,0,0,1,144.85,29Zm1.05.29a4.34,4.34,0,0,0,.89,2.81,3,3,0,0,0,4.63,0,4.48,4.48,0,0,0,.88-2.9v-.2a4.89,4.89,0,0,0-.4-2,3.25,3.25,0,0,0-1.14-1.4,2.91,2.91,0,0,0-1.67-.5,2.81,2.81,0,0,0-2.3,1.11,4.47,4.47,0,0,0-.89,2.89Z"/><path d="M161.65,32.48a3.42,3.42,0,0,1-3,1.38A2.94,2.94,0,0,1,156.3,33a3.85,3.85,0,0,1-.81-2.62v-6.2h1v6.07c0,1.81.73,2.72,2.2,2.72a2.69,2.69,0,0,0,2.89-1.9V24.16h1.06v9.53h-1Z"/><path d="M169.83,25.06a4,4,0,0,0-.71-.06,2.55,2.55,0,0,0-1.67.55,2.94,2.94,0,0,0-1,1.59v6.55h-1V24.16h1l0,1.52a2.79,2.79,0,0,1,2.68-1.7,1.73,1.73,0,0,1,.7.12Z"/><path d="M179.4,33a2.73,2.73,0,0,0,1.84-.62,2.16,2.16,0,0,0,.81-1.6h1a2.9,2.9,0,0,1-.55,1.58,3.34,3.34,0,0,1-1.33,1.13,4,4,0,0,1-1.78.4,3.67,3.67,0,0,1-3-1.3,5.28,5.28,0,0,1-1.1-3.5v-.32a6.08,6.08,0,0,1,.49-2.49,3.85,3.85,0,0,1,1.42-1.68,3.92,3.92,0,0,1,2.15-.59,3.67,3.67,0,0,1,2.58.94,3.4,3.4,0,0,1,1.09,2.45h-1a2.56,2.56,0,0,0-2.66-2.49,2.66,2.66,0,0,0-2.22,1,4.71,4.71,0,0,0-.78,2.89v.31a4.59,4.59,0,0,0,.78,2.84A2.66,2.66,0,0,0,179.4,33Z"/><path d="M184.58,28.78a5.53,5.53,0,0,1,.54-2.47,4,4,0,0,1,1.5-1.71,4,4,0,0,1,2.21-.62,3.93,3.93,0,0,1,3.08,1.34,5.17,5.17,0,0,1,1.18,3.53v.22a5.62,5.62,0,0,1-.54,2.49,3.89,3.89,0,0,1-1.5,1.7,4.09,4.09,0,0,1-2.21.6,3.91,3.91,0,0,1-3.07-1.33A5.14,5.14,0,0,1,184.58,29Zm1.06.29a4.33,4.33,0,0,0,.88,2.81,3,3,0,0,0,4.64,0A4.48,4.48,0,0,0,192,29v-.2a4.9,4.9,0,0,0-.41-2,3.23,3.23,0,0,0-1.13-1.4,2.93,2.93,0,0,0-1.67-.5,2.81,2.81,0,0,0-2.3,1.11,4.42,4.42,0,0,0-.89,2.89Z"/><path d="M196.22,24.16l0,1.55a3.47,3.47,0,0,1,1.32-1.29,3.56,3.56,0,0,1,1.76-.44,2.68,2.68,0,0,1,2.86,1.85,3.58,3.58,0,0,1,1.36-1.37,3.79,3.79,0,0,1,1.89-.48q3.06,0,3.12,3.35v6.36h-1.06V27.41a2.81,2.81,0,0,0-.54-1.89,2.26,2.26,0,0,0-1.77-.62,2.79,2.79,0,0,0-1.92.74,2.59,2.59,0,0,0-.87,1.74v6.31h-1.06V27.33a2.59,2.59,0,0,0-.57-1.83,2.3,2.3,0,0,0-1.75-.6,2.67,2.67,0,0,0-1.71.57,3.39,3.39,0,0,0-1.06,1.68v6.54h-1V24.16Z"/><path d="M212.2,24.16l0,1.55a3.54,3.54,0,0,1,1.32-1.29,3.63,3.63,0,0,1,1.77-.44,2.68,2.68,0,0,1,2.86,1.85,3.58,3.58,0,0,1,1.36-1.37,3.78,3.78,0,0,1,1.88-.48q3.08,0,3.13,3.35v6.36h-1.06V27.41a2.81,2.81,0,0,0-.55-1.89,2.24,2.24,0,0,0-1.76-.62,2.79,2.79,0,0,0-1.92.74,2.59,2.59,0,0,0-.87,1.74v6.31h-1.06V27.33a2.59,2.59,0,0,0-.58-1.83,2.28,2.28,0,0,0-1.74-.6,2.63,2.63,0,0,0-1.71.57,3.32,3.32,0,0,0-1.06,1.68v6.54h-1.05V24.16Z"/><path d="M230.91,33.86a4.11,4.11,0,0,1-3.73-2.26,5.29,5.29,0,0,1-.54-2.4v-.38a5.57,5.57,0,0,1,.53-2.48,4.25,4.25,0,0,1,1.48-1.73,3.67,3.67,0,0,1,2.06-.63,3.42,3.42,0,0,1,2.75,1.19,4.79,4.79,0,0,1,1,3.23V29h-6.8v.21a4,4,0,0,0,.93,2.69A3,3,0,0,0,231,33a3.16,3.16,0,0,0,2.67-1.29l.66.5A3.85,3.85,0,0,1,230.91,33.86Zm-.2-9a2.63,2.63,0,0,0-2,.87,4.11,4.11,0,0,0-1,2.35h5.71V28a3.5,3.5,0,0,0-.78-2.23A2.42,2.42,0,0,0,230.71,24.88Z"/><path d="M237.53,24.16l0,1.63a3.74,3.74,0,0,1,1.34-1.34,3.44,3.44,0,0,1,1.77-.47,2.85,2.85,0,0,1,2.28.87,3.85,3.85,0,0,1,.75,2.59v6.25h-1V27.43a3,3,0,0,0-.54-1.9,2.13,2.13,0,0,0-1.71-.63,2.65,2.65,0,0,0-1.73.61,3.61,3.61,0,0,0-1.11,1.65v6.53h-1.05V24.16Z"/><path d="M248.07,21.72v2.44h2V25h-2v6.36a2,2,0,0,0,.29,1.18,1.1,1.1,0,0,0,.95.39,6.53,6.53,0,0,0,.86-.09l0,.85a3.43,3.43,0,0,1-1.13.15,1.87,1.87,0,0,1-1.57-.63,2.94,2.94,0,0,1-.5-1.85V25h-1.75v-.86H247V21.72Z"/><path d="M257.66,25.77A3.66,3.66,0,0,1,259,24.45a3.5,3.5,0,0,1,1.77-.47,2.85,2.85,0,0,1,2.28.87,3.85,3.85,0,0,1,.75,2.59v6.25h-1V27.43a3,3,0,0,0-.54-1.9,2.13,2.13,0,0,0-1.71-.63,2.65,2.65,0,0,0-1.73.61,3.61,3.61,0,0,0-1.11,1.65v6.53h-1.05V20.16h1.05Z"/><path d="M270.19,33.86a4.09,4.09,0,0,1-2.19-.6,4,4,0,0,1-1.53-1.66,5.3,5.3,0,0,1-.55-2.4v-.38a5.57,5.57,0,0,1,.54-2.48,4.25,4.25,0,0,1,1.48-1.73A3.67,3.67,0,0,1,270,24a3.44,3.44,0,0,1,2.75,1.19,4.79,4.79,0,0,1,1,3.23V29H267v.21a4,4,0,0,0,.93,2.69A3,3,0,0,0,270.24,33a3.16,3.16,0,0,0,2.67-1.29l.66.5A3.86,3.86,0,0,1,270.19,33.86Zm-.19-9a2.63,2.63,0,0,0-2,.87,4,4,0,0,0-1,2.35h5.71V28a3.5,3.5,0,0,0-.78-2.23A2.43,2.43,0,0,0,270,24.88Z"/><path d="M280.22,25.06a4,4,0,0,0-.71-.06,2.56,2.56,0,0,0-1.67.55,3,3,0,0,0-1,1.59v6.55h-1.05V24.16h1l0,1.52a2.79,2.79,0,0,1,2.68-1.7,1.66,1.66,0,0,1,.7.12Z"/><path d="M285.41,33.86a4.11,4.11,0,0,1-3.73-2.26,5.29,5.29,0,0,1-.54-2.4v-.38a5.71,5.71,0,0,1,.53-2.48,4.25,4.25,0,0,1,1.48-1.73,3.67,3.67,0,0,1,2.06-.63A3.42,3.42,0,0,1,288,25.17a4.79,4.79,0,0,1,1,3.23V29h-6.8v.21a4,4,0,0,0,.93,2.69A3,3,0,0,0,285.45,33a3.36,3.36,0,0,0,1.49-.31,3.26,3.26,0,0,0,1.18-1l.66.5A3.85,3.85,0,0,1,285.41,33.86Zm-.2-9a2.63,2.63,0,0,0-2,.87,4.11,4.11,0,0,0-1,2.35h5.71V28a3.5,3.5,0,0,0-.78-2.23A2.42,2.42,0,0,0,285.21,24.88Z"/></g></g></g></svg>