<svg xmlns="http://www.w3.org/2000/svg" width="58.85" height="64.79" viewBox="0 0 58.85 64.79"><title>accept</title><g id="e2925fa3-d726-4bf0-a8df-fd98ea154ef1" data-name="Layer 2"><g id="f7828ac3-62f3-4aa7-9693-91bf0cd2b86c" data-name="Шар 1"><g id="a5a5b9aa-c265-40b8-914d-c85e55f6d283" data-name="Content 5"><rect x="8.29" y="26.71" width="50.56" height="38.08" fill="#dde4eb"/><rect x="45.78" y="3.05" width="5.34" height="12.21" fill="#dde4eb"/><rect x="11.45" y="3.05" width="5.34" height="12.21" fill="#dde4eb"/><path d="M55.7,6.87H49.6V.76A.77.77,0,0,0,48.83,0H42a.77.77,0,0,0-.77.76V6.87H15.26V.76A.76.76,0,0,0,14.5,0H7.63a.76.76,0,0,0-.76.76V6.87H.76A.76.76,0,0,0,0,7.63V62.57a.76.76,0,0,0,.76.76H55.7a.76.76,0,0,0,.76-.76V7.63A.76.76,0,0,0,55.7,6.87Zm-13-5.34h5.34v12.2H42.73Zm-34.34,0h5.34v12.2H8.39Zm45.12,20.6V60.21H3V22.13Z" fill="#92a0da"/><path d="M46,32.84a.78.78,0,0,1-.24.58L26.38,52.85a.83.83,0,0,1-1.15,0L10.66,38.27a.81.81,0,0,1,0-1.15l4.85-4.85a.86.86,0,0,1,.58-.24.83.83,0,0,1,.58.24l9.14,9.13,14-14a.84.84,0,0,1,1.16,0l4.85,4.86A.78.78,0,0,1,46,32.84Z" fill="#92a0da"/></g></g></g></svg>