<svg xmlns="http://www.w3.org/2000/svg" width="57.69" height="50.98" viewBox="0 0 57.69 50.98"><title>bio</title><g id="b54d2ed4-0030-43aa-be7d-5a9c62e837f8" data-name="Layer 2"><g id="b35bf797-cf95-48f6-a808-ad22e9d1ee47" data-name="Шар 1"><g id="e900702c-4a30-4e21-8c2d-3535b111176c" data-name="Content 5"><polygon points="57.69 7.19 57.69 50.98 7.15 50.87 6.87 7.11 57.69 7.19" fill="#dde4eb"/><path d="M55.76,0H.82A.82.82,0,0,0,0,.82V48.89a.83.83,0,0,0,.82.84H55.76a.84.84,0,0,0,.83-.84V.82A.83.83,0,0,0,55.76,0ZM53.63,46.85,3.09,46.74,2.82,3l50.81.09Z" fill="#92a0da"/><path d="M28.35,35.2a11.75,11.75,0,0,0-7.9-10.46A9,9,0,0,0,16.57,7.62h-.39a9,9,0,0,0-3.45,17.13A11.8,11.8,0,0,0,4.88,35.2s0,.11,0,.17v.48a.64.64,0,0,0,0,.24,6.75,6.75,0,0,0,6.7,6h10a6.76,6.76,0,0,0,6.71-6,.93.93,0,0,0,0-.24v-.48A.88.88,0,0,0,28.35,35.2ZM16.62,24.1h0Z" fill="#92a0da"/><path d="M16.62,24.1h0Z" fill="#3e65fc"/><path d="M49.86,14.51H33a.77.77,0,0,1-.76-.77V11a.76.76,0,0,1,.76-.76H49.86a.76.76,0,0,1,.76.76v2.74A.77.77,0,0,1,49.86,14.51ZM33.81,13H49.1V11.76H33.81Z" fill="#92a0da"/><path d="M49.86,22.55H33a.76.76,0,0,1-.76-.77V19a.76.76,0,0,1,.76-.76H49.86a.76.76,0,0,1,.76.76v2.74A.76.76,0,0,1,49.86,22.55ZM33.81,21H49.1V19.81H33.81Z" fill="#92a0da"/><path d="M49.86,30.59H33a.76.76,0,0,1-.76-.76V27.08a.76.76,0,0,1,.76-.76H49.86a.76.76,0,0,1,.76.76v2.75A.76.76,0,0,1,49.86,30.59Zm-16-1.53H49.1V27.85H33.81Z" fill="#92a0da"/><path d="M49.86,38.63H33a.76.76,0,0,1-.76-.76V35.13a.76.76,0,0,1,.76-.77H49.86a.76.76,0,0,1,.76.77v2.74A.76.76,0,0,1,49.86,38.63Zm-16-1.53H49.1V35.89H33.81Z" fill="#92a0da"/></g></g></g></svg>