<svg xmlns="http://www.w3.org/2000/svg" width="56.3" height="35.11" viewBox="0 0 56.3 35.11"><title>both-direction</title><g id="b4169d1a-c32c-4330-81ad-e40148488a9c" data-name="Layer 2"><g id="a5ca7bc4-30e2-49b6-bc9f-09f7f002c768" data-name="Шар 1"><g id="b56e5270-e707-461a-920e-b1f91845dc2c" data-name="Content 5"><rect x="9.37" y="2.59" width="46.93" height="32.51" fill="#dde4eb"/><path d="M48.89,17.22,36.57,10.11a.37.37,0,0,0-.38,0,.39.39,0,0,0-.19.33v5.74H17.69V10.44a.39.39,0,0,0-.19-.33.37.37,0,0,0-.38,0L4.8,17.22a.39.39,0,0,0-.19.33.37.37,0,0,0,.19.33L17.12,25a.33.33,0,0,0,.19.06A.35.35,0,0,0,17.5,25a.37.37,0,0,0,.19-.32V18.93H36v5.74a.37.37,0,0,0,.19.32.35.35,0,0,0,.19.06.33.33,0,0,0,.19-.06l12.32-7.11a.37.37,0,0,0,.19-.33A.39.39,0,0,0,48.89,17.22Z" fill="#92a0da"/><rect width="3.05" height="32.72" fill="#92a0da"/><rect x="50.64" width="3.05" height="32.72" fill="#92a0da"/></g></g></g></svg>