<svg xmlns="http://www.w3.org/2000/svg" width="43.95" height="58.28" viewBox="0 0 43.95 58.28"><title>building</title><g id="a2d81c9c-44ef-403f-91f6-26da6953ea7b" data-name="Layer 2"><g id="e60cd9b3-899f-4aa6-bfa7-81bf2d9cb49a" data-name="Шар 1"><g id="fa4d4481-70c3-4a4b-b7df-e63e28236d00" data-name="Content 5"><rect x="7.13" y="7.73" width="36.82" height="50.56" fill="#dde4eb"/><path d="M42,0H.76A.76.76,0,0,0,0,.76V55.7a.76.76,0,0,0,.76.76H42a.76.76,0,0,0,.76-.76V.76A.76.76,0,0,0,42,0ZM39.78,53.51H3V3H39.78Z" fill="#92a0da"/><path d="M27.22,44.1v9.41H15.51V44.1a.77.77,0,0,1,.77-.76H26.45A.76.76,0,0,1,27.22,44.1Z" fill="#92a0da"/><path d="M11.42,13.29H6.27a.76.76,0,0,1-.76-.76V7.38a.76.76,0,0,1,.76-.76h5.15a.77.77,0,0,1,.77.76v5.15A.77.77,0,0,1,11.42,13.29ZM7,11.77h3.63V8.14H7Z" fill="#92a0da"/><path d="M19.77,13.29H14.62a.76.76,0,0,1-.76-.76V7.38a.76.76,0,0,1,.76-.76h5.15a.76.76,0,0,1,.76.76v5.15A.76.76,0,0,1,19.77,13.29Zm-4.39-1.52H19V8.14H15.38Z" fill="#92a0da"/><path d="M28.12,13.29H23a.76.76,0,0,1-.77-.76V7.38A.76.76,0,0,1,23,6.62h5.15a.76.76,0,0,1,.76.76v5.15A.76.76,0,0,1,28.12,13.29Zm-4.39-1.52h3.62V8.14H23.73Z" fill="#92a0da"/><path d="M36.46,13.29H31.31a.76.76,0,0,1-.76-.76V7.38a.76.76,0,0,1,.76-.76h5.15a.77.77,0,0,1,.77.76v5.15A.77.77,0,0,1,36.46,13.29Zm-4.39-1.52H35.7V8.14H32.07Z" fill="#92a0da"/><path d="M11.42,25.53H6.27a.76.76,0,0,1-.76-.76V19.62a.76.76,0,0,1,.76-.76h5.15a.77.77,0,0,1,.77.76v5.15A.77.77,0,0,1,11.42,25.53ZM7,24h3.63V20.38H7Z" fill="#92a0da"/><path d="M19.77,25.53H14.62a.76.76,0,0,1-.76-.76V19.62a.76.76,0,0,1,.76-.76h5.15a.76.76,0,0,1,.76.76v5.15A.76.76,0,0,1,19.77,25.53ZM15.38,24H19V20.38H15.38Z" fill="#92a0da"/><path d="M28.12,25.53H23a.76.76,0,0,1-.77-.76V19.62a.76.76,0,0,1,.77-.76h5.15a.76.76,0,0,1,.76.76v5.15A.76.76,0,0,1,28.12,25.53ZM23.73,24h3.62V20.38H23.73Z" fill="#92a0da"/><path d="M36.46,25.53H31.31a.76.76,0,0,1-.76-.76V19.62a.76.76,0,0,1,.76-.76h5.15a.77.77,0,0,1,.77.76v5.15A.77.77,0,0,1,36.46,25.53ZM32.07,24H35.7V20.38H32.07Z" fill="#92a0da"/><path d="M11.42,37.77H6.27A.76.76,0,0,1,5.51,37V31.86a.76.76,0,0,1,.76-.76h5.15a.77.77,0,0,1,.77.76V37A.77.77,0,0,1,11.42,37.77ZM7,36.25h3.63V32.62H7Z" fill="#92a0da"/><path d="M19.77,37.77H14.62a.76.76,0,0,1-.76-.76V31.86a.76.76,0,0,1,.76-.76h5.15a.76.76,0,0,1,.76.76V37A.76.76,0,0,1,19.77,37.77Zm-4.39-1.52H19V32.62H15.38Z" fill="#92a0da"/><path d="M28.12,37.77H23A.76.76,0,0,1,22.2,37V31.86A.76.76,0,0,1,23,31.1h5.15a.76.76,0,0,1,.76.76V37A.76.76,0,0,1,28.12,37.77Zm-4.39-1.52h3.62V32.62H23.73Z" fill="#92a0da"/><path d="M36.46,37.77H31.31a.76.76,0,0,1-.76-.76V31.86a.76.76,0,0,1,.76-.76h5.15a.77.77,0,0,1,.77.76V37A.77.77,0,0,1,36.46,37.77Zm-4.39-1.52H35.7V32.62H32.07Z" fill="#92a0da"/><path d="M11.42,50H6.27a.76.76,0,0,1-.76-.76V44.1a.76.76,0,0,1,.76-.76h5.15a.77.77,0,0,1,.77.76v5.15A.77.77,0,0,1,11.42,50ZM7,48.49h3.63V44.86H7Z" fill="#92a0da"/><path d="M36.46,50H31.31a.76.76,0,0,1-.76-.76V44.1a.76.76,0,0,1,.76-.76h5.15a.77.77,0,0,1,.77.76v5.15A.77.77,0,0,1,36.46,50Zm-4.39-1.52H35.7V44.86H32.07Z" fill="#92a0da"/></g></g></g></svg>