<svg xmlns="http://www.w3.org/2000/svg" width="58.85" height="64.79" viewBox="0 0 58.85 64.79"><title>calendar</title><g id="b5bfe3bc-90e9-4e96-9dbd-bcd8f49d79e6" data-name="Layer 2"><g id="a8ebbd22-57f5-4044-9b34-0a638f0f814b" data-name="Шар 1"><g id="b096ac41-ca76-43c3-8afb-3656b27edf9c" data-name="Content 5"><rect x="8.29" y="26.71" width="50.56" height="38.08" fill="#dde4eb"/><rect x="45.78" y="3.05" width="5.34" height="12.21" fill="#f9fafc"/><rect x="11.45" y="3.05" width="5.34" height="12.21" fill="#f9fafc"/><path d="M55.7,6.87H49.6V.76A.77.77,0,0,0,48.83,0H42a.77.77,0,0,0-.77.76V6.87H15.26V.76A.76.76,0,0,0,14.5,0H7.63a.76.76,0,0,0-.76.76V6.87H.76A.76.76,0,0,0,0,7.63V62.57a.76.76,0,0,0,.76.76H55.7a.76.76,0,0,0,.76-.76V7.63A.76.76,0,0,0,55.7,6.87Zm-13-5.34h5.34v12.2H42.73Zm-34.34,0h5.34v12.2H8.39Zm45.12,20.6V60.21H3V22.13Z" fill="#92a0da"/><rect x="2.95" y="34.33" width="50.56" height="1.53" fill="#92a0da"/><rect x="2.95" y="48.06" width="50.56" height="1.53" fill="#92a0da"/><rect x="12.97" y="22.13" width="1.53" height="38.08" fill="#92a0da"/><rect x="26.71" y="22.13" width="1.53" height="38.08" fill="#92a0da"/><rect x="40.44" y="22.13" width="1.53" height="38.08" fill="#92a0da"/></g></g></g></svg>