<svg xmlns="http://www.w3.org/2000/svg" width="55.81" height="56.59" viewBox="0 0 55.81 56.59"><title>call</title><g id="a4dc0dd0-b799-4a8a-a110-b0cc1bbbeafc" data-name="Layer 2"><g id="f9d0dba5-f6c1-4ba6-b521-90a258165502" data-name="Шар 1"><g id="ab3b84e2-90ed-486e-a6ef-ef324bfcdd5a" data-name="Content 5"><path d="M55.81,32c0,14.21-10.35,24.57-24.56,24.57S6.68,46.53,6.68,32.33,17,7.45,31.25,7.45,55.81,17.81,55.81,32Z" fill="#dde4eb"/><path d="M27.52,0A27.52,27.52,0,1,0,55,27.52,27.56,27.56,0,0,0,27.52,0Zm0,52.09C13.31,52.09,3,42,3,27.83S13.31,3,27.52,3,52.08,13.31,52.08,27.52,41.73,52.09,27.52,52.09Z" fill="#92a0da"/><path d="M45.42,37.54a7.63,7.63,0,0,1-7.24,7.63h-.81A28.05,28.05,0,0,1,9.56,17.31c0-.09,0-.22,0-.37a3.17,3.17,0,0,1,0-.43,7.61,7.61,0,0,1,7.61-7.2,7.83,7.83,0,0,1,1.29.11,8,8,0,0,1,1.63.46.79.79,0,0,1,.46.59L22.4,22.05a.8.8,0,0,1-.26.71,7.88,7.88,0,0,1-2.79,1.5,19.81,19.81,0,0,0,4.29,6.58s0,0,0,0a19.72,19.72,0,0,0,6.82,4.53,7.61,7.61,0,0,1,1.69-3,.73.73,0,0,1,.68-.23l11.32,1.78a.8.8,0,0,1,.58.44,7.71,7.71,0,0,1,.58,1.9A7.39,7.39,0,0,1,45.42,37.54Z" fill="#92a0da"/></g></g></g></svg>