<svg xmlns="http://www.w3.org/2000/svg" width="58.51" height="44.31" viewBox="0 0 58.51 44.31"><title>direction</title><g id="fa58d077-85c6-4a0b-af3f-0eb9b6e6d705" data-name="Layer 2"><g id="e1f90fe3-67ed-4b32-b957-e08894a6b432" data-name="Шар 1"><g id="b41bc130-4742-4b0e-8691-c521ef1d6029" data-name="Content 5"><path d="M29.28,1H49.16c5.16,0,9.35,3.81,9.35,8.51V35.62c0,4.7-4.19,8.51-9.35,8.51H29.28Z" fill="#dde4eb"/><path d="M48.09,43.15H30a1.48,1.48,0,1,1-.11-2.95H47.68a6,6,0,0,0,6-6V8.52A5.56,5.56,0,0,0,48.09,3h-18A1.5,1.5,0,1,1,30,0H48.09A8.51,8.51,0,0,1,56.6,8.51V34.64A8.51,8.51,0,0,1,48.09,43.15Z" fill="#92a0da"/><path d="M50.11,23.76a.81.81,0,0,1-.29.62L27.1,43.89a1.77,1.77,0,0,1-2.91-1.34V33.62H3.51a.82.82,0,0,1-.82-.82V14.73a.82.82,0,0,1,.82-.82H24.19V5A1.77,1.77,0,0,1,27.1,3.64L49.82,23.15A.81.81,0,0,1,50.11,23.76Z" fill="#92a0da"/><path d="M47.41,21.58a.8.8,0,0,1-.28.62L24.41,41.7a1.76,1.76,0,0,1-2.91-1.33V31.43H.82A.82.82,0,0,1,0,30.62V12.55a.82.82,0,0,1,.82-.82H21.5V2.79a1.76,1.76,0,0,1,2.91-1.33L47.13,21A.82.82,0,0,1,47.41,21.58Z" fill="#92a0da"/></g></g></g></svg>