<svg xmlns="http://www.w3.org/2000/svg" width="221.41" height="138.44" viewBox="0 0 221.41 138.44"><title>dropdown</title><g id="b85a652b-2590-47de-a43a-bb60ef531da7" data-name="Layer 2"><g id="a7e50d11-511c-4c3b-8c9b-763086b37930" data-name="Шар 1"><g id="fa7929f4-fd4e-409a-a396-cc50d8a10163" data-name="Content 6"><rect width="221.41" height="138.44" rx="4.58" fill="#d4dae6"/><path d="M199.32,33.54a1,1,0,0,1-1.53,0l-6.49-7.92-5.92-7.23a1,1,0,0,1,.77-1.62H211a1,1,0,0,1,.77,1.62l-5.93,7.23Z" fill="#fff"/><path d="M176.59,37.23c0,.65-1.36,1.18-3,1.18H8a6.78,6.78,0,0,1-1.4-.14h0C5.63,38,5,37.58,5,37.09V5.57c0-.79,1.64-1.43,3.67-1.43H172.18c2,0,3.67.64,3.67,1.43Z" fill="#fff"/><path d="M217.79,130.56a3.5,3.5,0,0,1-3.74,3.19H8.73A4.37,4.37,0,0,1,7,133.39H7a3.8,3.8,0,0,1-2-3.22V45c0-2.15,2-3.88,4.55-3.88H212.33c2.51,0,4.54,1.73,4.54,3.88Z" fill="#fff"/><path d="M18.84,29.83V16.07h4.07a5.27,5.27,0,0,1,3.35.91,3.23,3.23,0,0,1,1.15,2.69,3.12,3.12,0,0,1-.58,1.86,3.18,3.18,0,0,1-1.6,1.13,3.35,3.35,0,0,1,1.94,1.18A3.29,3.29,0,0,1,27.9,26a3.58,3.58,0,0,1-1.18,2.85,4.82,4.82,0,0,1-3.27,1ZM20,22.24h3.18a3.6,3.6,0,0,0,2.26-.69,2.32,2.32,0,0,0,.8-1.91,2.31,2.31,0,0,0-.83-2,4.11,4.11,0,0,0-2.5-.63H20Zm0,1v5.63h3.49a3.46,3.46,0,0,0,2.37-.76A2.67,2.67,0,0,0,26.74,26a2.57,2.57,0,0,0-.84-2,3.39,3.39,0,0,0-2.31-.74Z"/><path d="M29.82,24.57a6,6,0,0,1,.57-2.66,4.31,4.31,0,0,1,4-2.5,4.21,4.21,0,0,1,3.31,1.44A5.52,5.52,0,0,1,39,24.64v.24a6.08,6.08,0,0,1-.57,2.67,4.3,4.3,0,0,1-1.61,1.83A4.41,4.41,0,0,1,34.4,30a4.2,4.2,0,0,1-3.31-1.43,5.49,5.49,0,0,1-1.27-3.8Zm1.13.31a4.65,4.65,0,0,0,.95,3,3.22,3.22,0,0,0,5,0,4.81,4.81,0,0,0,.95-3.11v-.21a5.23,5.23,0,0,0-.44-2.15,3.47,3.47,0,0,0-1.22-1.51,3.14,3.14,0,0,0-1.79-.53,3,3,0,0,0-2.47,1.18,4.81,4.81,0,0,0-1,3.11Z"/><path d="M40.84,24.62a6.15,6.15,0,0,1,1.06-3.79,3.41,3.41,0,0,1,2.89-1.42A3.57,3.57,0,0,1,48,21.05V15.31h1.12V29.83H48l0-1.36A3.65,3.65,0,0,1,44.77,30a3.4,3.4,0,0,1-2.85-1.42,6.21,6.21,0,0,1-1.08-3.84Zm1.14.2a5.27,5.27,0,0,0,.79,3.09A2.54,2.54,0,0,0,45,29a3.06,3.06,0,0,0,3-1.84V22.39a3,3,0,0,0-3-2,2.57,2.57,0,0,0-2.23,1.12A5.76,5.76,0,0,0,42,24.82Z"/><path d="M55.29,28.21l3-8.61H59.5l-4.37,12-.22.53A2.74,2.74,0,0,1,52.31,34a3,3,0,0,1-.87-.14V32.9L52,33a2.05,2.05,0,0,0,1.35-.41,3,3,0,0,0,.87-1.41l.51-1.38L50.88,19.6h1.24Z"/><path d="M74.4,29.83H65.78V29l4.72-5.35a12.71,12.71,0,0,0,1.63-2.23,3.77,3.77,0,0,0,.45-1.71,2.8,2.8,0,0,0-.77-2.07,2.84,2.84,0,0,0-2.11-.76,3,3,0,0,0-2.24.89A3.19,3.19,0,0,0,66.6,20H65.48A4.32,4.32,0,0,1,66,17.92a3.73,3.73,0,0,1,1.5-1.5,4.43,4.43,0,0,1,2.2-.54,4.17,4.17,0,0,1,3,1,3.5,3.5,0,0,1,1.06,2.7,4.57,4.57,0,0,1-.6,2.11A15.28,15.28,0,0,1,71,24.54l-3.84,4.34H74.4Z"/><path d="M18.84,63.06V49.29h4.07a5.33,5.33,0,0,1,3.35.91,3.23,3.23,0,0,1,1.15,2.7,3.12,3.12,0,0,1-.58,1.86,3.24,3.24,0,0,1-1.6,1.13,3.3,3.3,0,0,1,1.94,1.18,3.26,3.26,0,0,1,.73,2.11A3.56,3.56,0,0,1,26.72,62a4.77,4.77,0,0,1-3.27,1ZM20,55.47h3.18a3.6,3.6,0,0,0,2.26-.69,2.36,2.36,0,0,0,.8-1.92,2.3,2.3,0,0,0-.83-2,4.11,4.11,0,0,0-2.5-.63H20Zm0,1v5.63h3.49a3.51,3.51,0,0,0,2.37-.76,2.67,2.67,0,0,0,.88-2.11,2.55,2.55,0,0,0-.84-2,3.39,3.39,0,0,0-2.31-.74Z"/><path d="M29.82,57.79a6,6,0,0,1,.57-2.65,4.31,4.31,0,0,1,4-2.5,4.23,4.23,0,0,1,3.31,1.43A5.55,5.55,0,0,1,39,57.87v.23a6.13,6.13,0,0,1-.57,2.68,4.3,4.3,0,0,1-1.61,1.83,4.5,4.5,0,0,1-2.37.64,4.23,4.23,0,0,1-3.31-1.43A5.51,5.51,0,0,1,29.82,58ZM31,58.1a4.68,4.68,0,0,0,.95,3,3.23,3.23,0,0,0,5,0A4.83,4.83,0,0,0,37.83,58v-.22a5.15,5.15,0,0,0-.44-2.14,3.41,3.41,0,0,0-1.22-1.51,3.08,3.08,0,0,0-1.79-.54,3,3,0,0,0-2.47,1.19,4.79,4.79,0,0,0-1,3.11Z"/><path d="M40.84,57.85a6.16,6.16,0,0,1,1.06-3.8,3.43,3.43,0,0,1,2.89-1.41A3.56,3.56,0,0,1,48,54.27V48.54h1.12V63.06H48l0-1.36a3.67,3.67,0,0,1-3.2,1.55,3.43,3.43,0,0,1-2.85-1.42A6.22,6.22,0,0,1,40.84,58Zm1.14.2a5.32,5.32,0,0,0,.79,3.09A2.54,2.54,0,0,0,45,62.27a3.06,3.06,0,0,0,3-1.85v-4.8a3,3,0,0,0-3-2,2.59,2.59,0,0,0-2.23,1.12A5.79,5.79,0,0,0,42,58.05Z"/><path d="M55.29,61.43l3-8.6H59.5l-4.37,12-.22.53a2.75,2.75,0,0,1-2.6,1.86,3,3,0,0,1-.87-.13v-.94l.58.06a2.11,2.11,0,0,0,1.35-.41,3.13,3.13,0,0,0,.87-1.41L54.74,63,50.88,52.83h1.24Z"/><path d="M74.4,63.06H65.78v-.87l4.72-5.35a13.1,13.1,0,0,0,1.63-2.23,3.77,3.77,0,0,0,.45-1.72,2.78,2.78,0,0,0-.77-2.06,2.84,2.84,0,0,0-2.11-.76,3,3,0,0,0-2.24.89,3.18,3.18,0,0,0-.86,2.3H65.48A4.35,4.35,0,0,1,66,51.14a3.77,3.77,0,0,1,1.5-1.49,4.33,4.33,0,0,1,2.2-.55,4.13,4.13,0,0,1,3,1,3.5,3.5,0,0,1,1.06,2.7,4.6,4.6,0,0,1-.6,2.11A15.6,15.6,0,0,1,71,57.76L67.17,62.1H74.4Z"/><path d="M18.84,94V80.24h4.07a5.27,5.27,0,0,1,3.35.91,3.23,3.23,0,0,1,1.15,2.69,3.12,3.12,0,0,1-.58,1.86,3.18,3.18,0,0,1-1.6,1.13A3.35,3.35,0,0,1,27.17,88a3.29,3.29,0,0,1,.73,2.12A3.56,3.56,0,0,1,26.72,93a4.82,4.82,0,0,1-3.27,1ZM20,86.41h3.18a3.6,3.6,0,0,0,2.26-.69,2.7,2.7,0,0,0,0-3.87,4.11,4.11,0,0,0-2.5-.63H20Zm0,1V93h3.49a3.46,3.46,0,0,0,2.37-.76,2.67,2.67,0,0,0,.88-2.11,2.53,2.53,0,0,0-.84-2,3.34,3.34,0,0,0-2.31-.74Z"/><path d="M29.82,88.74a6,6,0,0,1,.57-2.66,4.31,4.31,0,0,1,4-2.5A4.21,4.21,0,0,1,37.69,85,5.52,5.52,0,0,1,39,88.81v.24a6.08,6.08,0,0,1-.57,2.67,4.3,4.3,0,0,1-1.61,1.83,4.41,4.41,0,0,1-2.37.64,4.2,4.2,0,0,1-3.31-1.43A5.49,5.49,0,0,1,29.82,89Zm1.13.31a4.65,4.65,0,0,0,.95,3,3.22,3.22,0,0,0,5,0A4.81,4.81,0,0,0,37.83,89v-.21a5.23,5.23,0,0,0-.44-2.15,3.47,3.47,0,0,0-1.22-1.51,3.14,3.14,0,0,0-1.79-.53,3,3,0,0,0-2.47,1.19,4.77,4.77,0,0,0-1,3.1Z"/><path d="M40.84,88.79A6.15,6.15,0,0,1,41.9,85a3.43,3.43,0,0,1,2.89-1.42A3.57,3.57,0,0,1,48,85.22V79.48h1.12V94H48l0-1.36a3.65,3.65,0,0,1-3.2,1.55,3.4,3.4,0,0,1-2.85-1.42,6.21,6.21,0,0,1-1.08-3.84ZM42,89a5.27,5.27,0,0,0,.79,3.09A2.54,2.54,0,0,0,45,93.21a3,3,0,0,0,3-1.84V86.56a3,3,0,0,0-3-2,2.57,2.57,0,0,0-2.23,1.12A5.78,5.78,0,0,0,42,89Z"/><path d="M55.29,92.38l3-8.61H59.5l-4.37,12-.22.53a2.74,2.74,0,0,1-2.6,1.87,3,3,0,0,1-.87-.14v-.93l.58.05a2.05,2.05,0,0,0,1.35-.41,3,3,0,0,0,.87-1.41l.51-1.38L50.88,83.77h1.24Z"/><path d="M74.4,94H65.78v-.87l4.72-5.35a12.71,12.71,0,0,0,1.63-2.23,3.77,3.77,0,0,0,.45-1.71,2.8,2.8,0,0,0-.77-2.07A2.88,2.88,0,0,0,69.7,81a3,3,0,0,0-2.24.89,3.19,3.19,0,0,0-.86,2.31H65.48A4.32,4.32,0,0,1,66,82.09a3.73,3.73,0,0,1,1.5-1.5,4.43,4.43,0,0,1,2.2-.54,4.17,4.17,0,0,1,3,1,3.5,3.5,0,0,1,1.06,2.7,4.57,4.57,0,0,1-.6,2.11A15.28,15.28,0,0,1,71,88.71l-3.84,4.34H74.4Z"/><path d="M18.84,125V111.18h4.07a5.27,5.27,0,0,1,3.35.92,3.21,3.21,0,0,1,1.15,2.69,3.12,3.12,0,0,1-.58,1.86,3.24,3.24,0,0,1-1.6,1.13,3.32,3.32,0,0,1,2.67,3.3,3.58,3.58,0,0,1-1.18,2.85,4.82,4.82,0,0,1-3.27,1ZM20,117.36h3.18a3.6,3.6,0,0,0,2.26-.69,2.36,2.36,0,0,0,.8-1.92,2.3,2.3,0,0,0-.83-2,4.11,4.11,0,0,0-2.5-.63H20Zm0,1V124h3.49a3.46,3.46,0,0,0,2.37-.76,2.67,2.67,0,0,0,.88-2.11,2.57,2.57,0,0,0-.84-2,3.39,3.39,0,0,0-2.31-.74Z"/><path d="M29.82,119.69a6,6,0,0,1,.57-2.66,4.31,4.31,0,0,1,4-2.5A4.23,4.23,0,0,1,37.69,116a5.55,5.55,0,0,1,1.26,3.8V120a6.08,6.08,0,0,1-.57,2.67,4.3,4.3,0,0,1-1.61,1.83,4.41,4.41,0,0,1-2.37.64,4.23,4.23,0,0,1-3.31-1.43,5.51,5.51,0,0,1-1.27-3.8ZM31,120a4.67,4.67,0,0,0,.95,3,3.22,3.22,0,0,0,5,0,4.83,4.83,0,0,0,.95-3.11v-.21a5.2,5.2,0,0,0-.44-2.15A3.47,3.47,0,0,0,36.17,116a3.07,3.07,0,0,0-1.79-.53,3,3,0,0,0-2.47,1.18,4.79,4.79,0,0,0-1,3.11Z"/><path d="M40.84,119.74A6.13,6.13,0,0,1,41.9,116a3.41,3.41,0,0,1,2.89-1.42A3.57,3.57,0,0,1,48,116.17v-5.74h1.12V125H48l0-1.36a3.67,3.67,0,0,1-3.2,1.55,3.4,3.4,0,0,1-2.85-1.42,6.22,6.22,0,0,1-1.08-3.85Zm1.14.2a5.32,5.32,0,0,0,.79,3.09A2.54,2.54,0,0,0,45,124.16a3.06,3.06,0,0,0,3-1.85v-4.8a3,3,0,0,0-3-2,2.57,2.57,0,0,0-2.23,1.13A5.74,5.74,0,0,0,42,119.94Z"/><path d="M55.29,123.33l3-8.61H59.5l-4.37,12-.22.53a2.75,2.75,0,0,1-2.6,1.86,3,3,0,0,1-.87-.13V128l.58,0a2.05,2.05,0,0,0,1.35-.41,3,3,0,0,0,.87-1.41l.51-1.38-3.86-10.15h1.24Z"/><path d="M74.4,125H65.78v-.87l4.72-5.35a13.1,13.1,0,0,0,1.63-2.23,3.77,3.77,0,0,0,.45-1.71,2.8,2.8,0,0,0-.77-2.07A2.84,2.84,0,0,0,69.7,112a3,3,0,0,0-2.24.89,3.19,3.19,0,0,0-.86,2.31H65.48A4.3,4.3,0,0,1,66,113a3.73,3.73,0,0,1,1.5-1.5,4.43,4.43,0,0,1,2.2-.55,4.17,4.17,0,0,1,3,1,3.5,3.5,0,0,1,1.06,2.7,4.6,4.6,0,0,1-.6,2.11A15.61,15.61,0,0,1,71,119.66L67.17,124H74.4Z"/></g></g></g></svg>