<svg xmlns="http://www.w3.org/2000/svg" width="55.81" height="56.59" viewBox="0 0 55.81 56.59"><title>i</title><g id="ef40bd34-afc1-4abd-9af8-04a6c03210d1" data-name="Layer 2"><g id="b120e72b-f4dd-4b3f-b23e-c75ad12d22f4" data-name="Шар 1"><g id="a686bcdd-4048-4f5a-be0f-58939ad944bf" data-name="Content 5"><path d="M55.81,32c0,14.21-10.35,24.57-24.56,24.57S6.68,46.53,6.68,32.33,17,7.45,31.25,7.45,55.81,17.81,55.81,32Z" fill="#dde4eb"/><path d="M27.52,0A27.52,27.52,0,1,0,55,27.52,27.56,27.56,0,0,0,27.52,0Zm0,52.09C13.31,52.09,3,42,3,27.83S13.31,3,27.52,3,52.08,13.31,52.08,27.52,41.73,52.09,27.52,52.09Z" fill="#92a0da"/><path d="M31.39,10.11V17a.81.81,0,0,1-.82.82H23.71A.81.81,0,0,1,22.9,17V10.11a.81.81,0,0,1,.81-.81h6.86A.81.81,0,0,1,31.39,10.11Z" fill="#92a0da"/><path d="M35.08,37.06v6.87a.82.82,0,0,1-.82.81H19.85a.81.81,0,0,1-.81-.81V37.06a.8.8,0,0,1,.81-.81h3V28.1h-3a.81.81,0,0,1-.81-.82V20.41a.81.81,0,0,1,.81-.81H30.57a.81.81,0,0,1,.82.81V36.25h2.87A.81.81,0,0,1,35.08,37.06Z" fill="#92a0da"/></g></g></g></svg>