<svg xmlns="http://www.w3.org/2000/svg" width="56.46" height="56.3" viewBox="0 0 56.46 56.3"><title>lock</title><g id="b47c80ab-73ba-4537-95b8-8678b8d2414b" data-name="Layer 2"><g id="e8ad2c03-d42d-43cd-9052-2f0eb19f741a" data-name="Шар 1"><g id="a043e475-d318-4ca7-be2f-8dd4e51522a2" data-name="Content 5"><path d="M42.16,22.68v8H15.94V22.68a13.11,13.11,0,1,1,26.22,0Z" fill="#dde4eb"/><path d="M49.47,28.68h-.8v-8a20.67,20.67,0,0,0-41.34,0v8H7a7,7,0,0,0-7,7V49.32a7,7,0,0,0,7,7H49.47a7,7,0,0,0,7-7V35.67A7,7,0,0,0,49.47,28.68Zm-8.74,0H14.51V20.74a13.11,13.11,0,0,1,26.22,0Z" fill="#92a0da"/></g></g></g></svg>