<svg xmlns="http://www.w3.org/2000/svg" width="44.56" height="56.3" viewBox="0 0 44.56 56.3"><title>loop</title><g id="aaf1093e-3b8f-4c81-9abc-297e3409f5a1" data-name="Layer 2"><g id="ac260075-4697-483b-bc34-7cd7ec505684" data-name="Шар 1"><g id="bc3df148-1aee-4024-842d-18ebb46a9d5d" data-name="Content 5"><path d="M30,29.26v.35a.34.34,0,0,1,0,.15,4.81,4.81,0,0,1-4.77,4.29H18a4.81,4.81,0,0,1-4.78-4.29.34.34,0,0,1,0-.15v-.35a.31.31,0,0,1,0-.1A8.45,8.45,0,0,1,19,21.58,6.46,6.46,0,0,1,16.8,11.25a6.47,6.47,0,1,1,7.34,10.31A8.47,8.47,0,0,1,30,29.16.31.31,0,0,1,30,29.26Z" fill="#92a0da"/><path d="M10.36,3.16A21.6,21.6,0,0,0,28.54,42.05l7.28,12a4.71,4.71,0,0,0,8-4.9l-7.28-12a21.6,21.6,0,0,0-26.23-34Zm23.11,30.3a16,16,0,0,1-3.14,2.48,16.26,16.26,0,0,1-3.64,1.65,16.78,16.78,0,1,1,6.78-4.13Z" fill="#92a0da"/></g></g></g></svg>