<svg xmlns="http://www.w3.org/2000/svg" width="57.43" height="44.46" viewBox="0 0 57.43 44.46"><title>message</title><g id="b1e52030-9a05-4941-a96c-efa596dac0aa" data-name="Layer 2"><g id="bf4ad844-8465-44cb-b771-566844367dae" data-name="Ğ¨Ğ°Ñ€ 1"><g id="e3725ddc-fb2a-4d61-8a24-f64c45841465" data-name="Content 5"><path d="M6.77,9.51a2.05,2.05,0,0,1,2.05-2h46.5a2.12,2.12,0,0,1,2.1,1.88V42.52a1.94,1.94,0,0,1-1.94,1.94H9.1a2.33,2.33,0,0,1-2.33-2.33V9.51Z" fill="#dde4eb"/><path d="M51.59,0H5A5,5,0,0,0,0,5V37.86a5,5,0,0,0,5,5H51.59a5,5,0,0,0,5-5V5A5,5,0,0,0,51.59,0ZM5,3H51.5a2.11,2.11,0,0,1,2.1,1.88L35.13,23.3a8.87,8.87,0,0,1-7,2.85,7.86,7.86,0,0,1-6.58-2.63L3,4.93A2.07,2.07,0,0,1,5,3Zm48.61,35a1.94,1.94,0,0,1-1.95,1.94H5.29A2.33,2.33,0,0,1,3,37.55V9L19.31,25.39a12.7,12.7,0,0,0,17.94,0L53.62,9Z" fill="#92a0da"/></g></g></g></svg>