<svg xmlns="http://www.w3.org/2000/svg" width="58.17" height="56.62" viewBox="0 0 58.17 56.62"><title>monitor</title><g id="f33ecd80-10b1-4c60-8baf-0aeb89da28e5" data-name="Layer 2"><g id="b040c355-7627-49ec-9d97-8fd3eeb3c119" data-name="Шар 1"><g id="a42dacc7-e53c-4a34-9f26-6b29f4d4829c" data-name="Content 5"><path d="M58.17,10.8V39.87H7.5V10.38A3.53,3.53,0,0,1,11,6.85H54.22A4,4,0,0,1,58.17,10.8Z" fill="#dde4eb"/><path d="M50.47,0H6.1A6.11,6.11,0,0,0,0,6.1V42a.82.82,0,0,0,.82.82h20L15.67,55.43a.9.9,0,0,0,.09.81.84.84,0,0,0,.72.38H40.09a.87.87,0,0,0,.81-1.19L35.79,42.84h20a.82.82,0,0,0,.82-.82V6.1A6.1,6.1,0,0,0,50.47,0Zm3.15,36H3V6.48A3.53,3.53,0,0,1,6.48,3H49.67a4,4,0,0,1,3.95,4Z" fill="#92a0da"/></g></g></g></svg>