<svg xmlns="http://www.w3.org/2000/svg" width="58.79" height="57.98" viewBox="0 0 58.79 57.98"><title>note</title><g id="a0fc2435-5606-4991-b27d-43f02d174623" data-name="Layer 2"><g id="ab7b2fb6-3f7d-4687-957c-c79f0a6760f3" data-name="Шар 1"><g id="b666e0f0-1cb9-4084-95a8-ae189140bfb2" data-name="Content 5"><rect x="8.13" y="13.09" width="50.67" height="44.88" fill="#dde4eb"/><path d="M54.94,6.92V8.45h.81V6.92ZM.82,8.45h.81V6.92H.82Z" fill="#3e65fc"/><path d="M55.75,0H.82A.82.82,0,0,0,0,.82V55.75a.82.82,0,0,0,.82.82H55.75a.82.82,0,0,0,.82-.82V.82A.82.82,0,0,0,55.75,0ZM53.62,53.62,3,53.91V8.74l50.67-.29Z" fill="#92a0da"/><rect x="6.92" y="13.79" width="8.39" height="8.39" rx="0.76" fill="#92a0da"/><rect x="6.92" y="27.52" width="8.39" height="8.39" rx="0.76" fill="#92a0da"/><rect x="20.66" y="13.79" width="29" height="8.39" rx="0.76" fill="#92a0da"/><rect x="20.66" y="27.52" width="29" height="8.39" rx="0.76" fill="#92a0da"/><rect x="6.87" y="41.2" width="8.5" height="8.5" rx="0.82" fill="#92a0da"/><rect x="20.6" y="41.2" width="29.1" height="8.5" rx="0.82" fill="#92a0da"/></g></g></g></svg>