<svg xmlns="http://www.w3.org/2000/svg" width="55.81" height="56.6" viewBox="0 0 55.81 56.6"><title>pie</title><g id="f2e3f880-9f0b-4c4a-8a3b-7ee9ed6b747c" data-name="Layer 2"><g id="b16620a8-843f-4986-a5f6-5be87cb3d881" data-name="Шар 1"><g id="f753c977-f9c8-43a9-bda2-79f160536e2d" data-name="Content 5"><path d="M55.81,32c0,14.2-10.35,24.57-24.56,24.57S6.68,46.54,6.68,32.33,17,7.46,31.25,7.46,55.81,17.82,55.81,32Z" fill="#dde4eb"/><path d="M55,26c0-.2,0-.4-.05-.6A27.55,27.55,0,0,0,33.6.69,26.46,26.46,0,0,0,29,.05c-.49,0-1,0-1.5,0s-1,0-1.5.05a27.52,27.52,0,0,0,0,55c.49,0,1,0,1.5,0s1,0,1.5,0A27.54,27.54,0,0,0,55,29c0-.49,0-1,0-1.5S55,26.52,55,26Zm-3,3C51.36,42,42,51.38,29,52.06c-.49,0-1,0-1.5,0s-1,0-1.5,0c-13-.66-22.5-10-23-23q0-.6,0-1.2Q3,26.92,3,26C3.81,13.22,13.18,3.69,26,3c.49,0,1,0,1.5,0s1,0,1.5,0C42,3.68,51.36,13.09,52,26c0,.49,0,1,0,1.5S52.07,28.54,52,29Z" fill="#92a0da"/><path d="M50.85,27.52H27.91L27.52,4.19c.48,0,1,0,1.43,0,12.29.64,21.22,9.58,21.86,21.87C50.84,26.57,50.85,27,50.85,27.52Z" fill="#92a0da"/></g></g></g></svg>