<svg xmlns="http://www.w3.org/2000/svg" width="58.85" height="64.79" viewBox="0 0 58.85 64.79"><title>plus</title><g id="a5c78a1f-ab77-4a6c-aa84-a9c1e0eee0ea" data-name="Layer 2"><g id="fc650df9-50c2-49dd-8821-fdcc8b7a6efb" data-name="Шар 1"><g id="a03d1527-44c2-4474-9279-56c13814901b" data-name="Content 5"><rect x="8.29" y="26.71" width="50.56" height="38.08" fill="#dde4eb"/><rect x="45.78" y="3.05" width="5.34" height="12.21" fill="#dde4eb"/><rect x="11.45" y="3.05" width="5.34" height="12.21" fill="#dde4eb"/><path d="M55.7,6.87H49.6V.76A.77.77,0,0,0,48.83,0H42a.77.77,0,0,0-.77.76V6.87H15.26V.76A.76.76,0,0,0,14.5,0H7.63a.76.76,0,0,0-.76.76V6.87H.76A.76.76,0,0,0,0,7.63V62.57a.76.76,0,0,0,.76.76H55.7a.76.76,0,0,0,.76-.76V7.63A.76.76,0,0,0,55.7,6.87Zm-13-5.34h5.34v12.2H42.73Zm-34.34,0h5.34v12.2H8.39Zm45.12,20.6V60.21H3V22.13Z" fill="#92a0da"/><path d="M39.38,38.53V45.4a.82.82,0,0,1-.82.82H32.51v6.05a.82.82,0,0,1-.82.81H24.83a.81.81,0,0,1-.82-.81V46.22H18a.82.82,0,0,1-.82-.82V38.53a.82.82,0,0,1,.82-.81H24v-6a.82.82,0,0,1,.82-.82h6.86a.82.82,0,0,1,.82.82v6h6.05A.82.82,0,0,1,39.38,38.53Z" fill="#92a0da"/></g></g></g></svg>