<svg xmlns="http://www.w3.org/2000/svg" width="55.81" height="56.59" viewBox="0 0 55.81 56.59"><title>plus-mark</title><g id="ac74886e-74f6-491e-9d0e-967d4315e68c" data-name="Layer 2"><g id="b42a8b7c-18f8-4b27-aaa1-07e4e7cb16b0" data-name="Шар 1"><g id="a2a8ac11-00e2-48a2-8443-3a243ef5b438" data-name="Content 5"><path d="M55.81,32c0,14.21-10.35,24.57-24.56,24.57S6.68,46.53,6.68,32.33,17,7.45,31.25,7.45,55.81,17.81,55.81,32Z" fill="#dde4eb"/><path d="M27.52,0A27.52,27.52,0,1,0,55,27.52,27.56,27.56,0,0,0,27.52,0Zm0,52.09C13.31,52.09,3,42,3,27.83S13.31,3,27.52,3,52.08,13.31,52.08,27.52,41.73,52.09,27.52,52.09Z" fill="#92a0da"/><path d="M47,21.72V34.08a.77.77,0,0,1-.76.77H34.58V46.44a.76.76,0,0,1-.76.77H21.47a.76.76,0,0,1-.76-.77V34.85H9.1a.77.77,0,0,1-.76-.77V21.72A.76.76,0,0,1,9.1,21H20.71V9.36a.75.75,0,0,1,.76-.76H33.82a.75.75,0,0,1,.76.76V21H46.19A.76.76,0,0,1,47,21.72Z" fill="#92a0da"/></g></g></g></svg>