<svg xmlns="http://www.w3.org/2000/svg" width="55.04" height="57.18" viewBox="0 0 55.04 57.18"><title>profile</title><g id="b69bd436-4516-4387-b670-73d8450a3659" data-name="Layer 2"><g id="ad895470-fd63-48c0-9097-ad930808b682" data-name="Шар 1"><g id="e83109c2-10b9-44a0-8dcd-38768ac49e9c" data-name="Content 5"><path d="M55,32.48c0,8.38-3.38,15.3-10,19.92-.74.51-1.51,1-2.31,1.45a24.68,24.68,0,0,1-12.26,3.33,23.35,23.35,0,0,1-11.81-2.93A29.76,29.76,0,0,1,16,52.61,23.85,23.85,0,0,1,5.91,32.48c0-14.21,10.35-24.57,24.56-24.57S55,18.27,55,32.48Z" fill="#dde4eb"/><path d="M27.58,35.05c-.26,0-.53,0-.79,0q.36,0,.72,0H28l.33,0Q28,35.05,27.58,35.05Z" fill="#3e65fc"/><path d="M42.08,47.41v0c-.73.51-1.5,1-2.31,1.45a24.62,24.62,0,0,1-12.26,3.33A23.25,23.25,0,0,1,15.7,49.28a24.5,24.5,0,0,1-2.61-1.64v-.23a.62.62,0,0,1,0-.19,14.38,14.38,0,0,1,10-13,11.11,11.11,0,0,1-3.82-17.74,11.11,11.11,0,0,1,19.29,7A11.14,11.14,0,0,1,31.93,34.2a14.45,14.45,0,0,1,10.13,13A1.23,1.23,0,0,1,42.08,47.41Z" fill="#92a0da"/><path d="M27.52,0A27.52,27.52,0,1,0,40.46,51.79h0l.45-.26a26.22,26.22,0,0,0,4-2.72A27.5,27.5,0,0,0,27.52,0ZM44.35,45.65a24.19,24.19,0,0,1-2.27,1.79c-.73.51-1.5,1-2.31,1.45a24.62,24.62,0,0,1-12.26,3.33A23.25,23.25,0,0,1,16,49.43c-.09,0-.19-.09-.28-.15a24.5,24.5,0,0,1-2.61-1.64A23.83,23.83,0,0,1,3,27.51C3,13.31,13.31,3,27.51,3S52.08,13.31,52.08,27.51C52.08,34.88,49.47,41.12,44.35,45.65Z" fill="#92a0da"/></g></g></g></svg>