<svg xmlns="http://www.w3.org/2000/svg" width="55.81" height="56.59" viewBox="0 0 55.81 56.59"><title>question</title><g id="e73ab72d-badb-4569-81da-ebd7914951b5" data-name="Layer 2"><g id="b432a8ad-2faf-46a1-94b9-c6dc25044ebc" data-name="Шар 1"><g id="a8d07428-3fc3-478f-966a-0f51312c5190" data-name="Content 5"><path d="M55.81,32c0,14.21-10.35,24.57-24.56,24.57S6.68,46.53,6.68,32.33,17,7.45,31.25,7.45,55.81,17.81,55.81,32Z" fill="#dde4eb"/><path d="M27.52,0A27.52,27.52,0,1,0,55,27.52,27.56,27.56,0,0,0,27.52,0Zm0,52.09C13.31,52.09,3,42,3,27.83S13.31,3,27.52,3,52.08,13.31,52.08,27.52,41.73,52.09,27.52,52.09Z" fill="#92a0da"/><path d="M31.25,40.6v4.76a.92.92,0,0,1-.92.92H25.58a.93.93,0,0,1-.93-.92V40.6a.92.92,0,0,1,.93-.91h4.75A.91.91,0,0,1,31.25,40.6Z" fill="#92a0da"/><path d="M40.42,20.78v2.56a9.92,9.92,0,0,1-9,9.86v2.21a.92.92,0,0,1-.92.92H25.58a.93.93,0,0,1-.93-.92V30.56a3.17,3.17,0,0,1,3.16-3.16,5.1,5.1,0,0,0,5.11-5.1V20.52a4.63,4.63,0,0,0-4.63-4.64H25.94a4.54,4.54,0,0,0-4.54,4.54.92.92,0,0,1-.92.91H15.54a.92.92,0,0,1-.92-.91A11.66,11.66,0,0,1,26.27,8.77h2.14A12,12,0,0,1,40.42,20.78Z" fill="#92a0da"/></g></g></g></svg>