<svg xmlns="http://www.w3.org/2000/svg" width="56.67" height="56.67" viewBox="0 0 56.67 56.67"><title>settings</title><g id="bc871dbf-9568-4714-9b20-f53d4cad9c36" data-name="Layer 2"><g id="eec3694b-6c91-4234-b459-ceda03bf661e" data-name="Шар 1"><g id="b485ec1f-2cb7-4938-8b91-ae0d4d3235ba" data-name="Content 5"><path d="M38.48,23.78a11.11,11.11,0,1,0,1,4.53A10.88,10.88,0,0,0,38.48,23.78ZM32.87,38.42a11.05,11.05,0,1,1,5.54-14.61,11.06,11.06,0,0,1-5.54,14.61Z" fill="#92a0da"/><path d="M38.48,23.78a11.11,11.11,0,1,0,1,4.53A10.88,10.88,0,0,0,38.48,23.78ZM32.87,38.42a11.05,11.05,0,1,1,5.54-14.61,11.06,11.06,0,0,1-5.54,14.61Z" fill="#92a0da"/><path d="M42.13,29.92a11,11,0,1,1-1-4.51A11.08,11.08,0,0,1,42.13,29.92Z" fill="#dde4eb"/><path d="M49.25,33.91l7.28-2.83a28.06,28.06,0,0,0-.21-7.14l-7.43-2.4a3,3,0,0,1-1.81-4.05l3.13-7.15A28.67,28.67,0,0,0,45,5.43L38.06,9a3,3,0,0,1-4.15-1.58L31.08.13a29,29,0,0,0-7.14.21l-2.4,7.44A3,3,0,0,1,17.49,9.6L10.34,6.45a28.12,28.12,0,0,0-4.91,5.21l3.57,7a3,3,0,0,1-1.59,4.15L.13,25.58a28.05,28.05,0,0,0,.22,7.14l7.43,2.41a3,3,0,0,1,1.82,4L6.45,46.34a27.38,27.38,0,0,0,5.21,4.89l7-3.56a3,3,0,0,1,4.15,1.58l2.83,7.28a27.18,27.18,0,0,0,7.14-.21l2.4-7.43a3,3,0,0,1,4-1.81l7.16,3.13A27.9,27.9,0,0,0,51.23,45l-3.56-7A3,3,0,0,1,49.25,33.91ZM28.36,39.38a11,11,0,1,1,4.51-1A11,11,0,0,1,28.36,39.38Z" fill="#92a0da"/></g></g></g></svg>