<svg xmlns="http://www.w3.org/2000/svg" width="54.92" height="53.14" viewBox="0 0 54.92 53.14"><title>social</title><g id="fcc9f033-de6e-4770-9b1f-473c9260d2a4" data-name="Layer 2"><g id="fd1e8e4b-6f35-4c1b-8fb2-c4bbca7ce7e7" data-name="Шар 1"><g id="ae8b9db6-2632-4a79-a886-1e71f9d0f954" data-name="Content 5"><path d="M54.91,41.53a11.13,11.13,0,0,1-10.62,11.6H43.8A11.14,11.14,0,0,1,32.7,42.5a10.21,10.21,0,0,1,0-1.46L18.4,34.53a11.09,11.09,0,0,1-14.8-.2A11.11,11.11,0,0,1,17.45,17l15.24-6a11.13,11.13,0,1,1,3.17,7.88L22.09,24.31c.06.44.11.89.13,1.35a10.49,10.49,0,0,1,0,1.26l14.47,6.57a11.12,11.12,0,0,1,18.24,8Z" fill="#92a0da"/></g></g></g></svg>