<svg xmlns="http://www.w3.org/2000/svg" width="58.23" height="58.23" viewBox="0 0 58.23 58.23"><title>triangle-right</title><g id="af4f4754-bdff-427e-ba1a-b8a3dccf53f0" data-name="Layer 2"><g id="b278c46f-c701-49e1-9ad7-a3b9d4f5c953" data-name="Шар 1"><g id="b75b405f-22b0-41dd-a57e-7566924fad2f" data-name="Content 5"><rect x="10.44" y="10.44" width="47.8" height="47.8" fill="#dde4eb"/><path d="M55.7,0H.76A.76.76,0,0,0,0,.76V55.7a.76.76,0,0,0,.76.76H55.7a.76.76,0,0,0,.76-.76V.76A.76.76,0,0,0,55.7,0ZM52.13,52.13H4.33V4.33h47.8Z" fill="#92a0da"/><path d="M15.11,14V42.51a.75.75,0,0,0,1.14.65L41,28.9a.76.76,0,0,0,0-1.33L16.25,13.3a.74.74,0,0,0-.76,0A.76.76,0,0,0,15.11,14Z" fill="#92a0da"/></g></g></g></svg>