<svg xmlns="http://www.w3.org/2000/svg" xmlns:xlink="http://www.w3.org/1999/xlink" width="627.38" height="536.28" viewBox="0 0 627.38 536.28"><defs><linearGradient id="ac5fecb9-d5c5-4261-bfe2-eadf60488302" x1="569.6" y1="159.23" x2="579.33" y2="167.16" gradientUnits="userSpaceOnUse"><stop offset="0" stop-color="#f5e0cd"/><stop offset="1" stop-color="#f5e0cd" stop-opacity="0"/></linearGradient><linearGradient id="aadac0bc-566d-4667-b6cc-f8db6a891f53" x1="279.52" y1="107.66" x2="316.22" y2="127.67" gradientTransform="translate(4.61 -24.33) rotate(4.09)" xlink:href="#ac5fecb9-d5c5-4261-bfe2-eadf60488302"/><radialGradient id="a9eaf01b-712b-49ad-af20-651d1d1dd18e" cx="270.58" cy="63.42" r="121.12" gradientUnits="userSpaceOnUse"><stop offset="0" stop-color="#b08874" stop-opacity="0"/><stop offset="0.14" stop-color="#b08874" stop-opacity="0.11"/><stop offset="0.44" stop-color="#b08874" stop-opacity="0.38"/><stop offset="0.85" stop-color="#b08874" stop-opacity="0.83"/><stop offset="1" stop-color="#b08874"/></radialGradient><linearGradient id="ef052625-02aa-4dd5-ab70-809ac7584e81" x1="246.87" y1="88.1" x2="310.78" y2="88.1" xlink:href="#ac5fecb9-d5c5-4261-bfe2-eadf60488302"/><radialGradient id="fb888ab8-64ba-4787-a124-3f2f698a53ac" cx="240.48" cy="137.7" r="101.69" gradientUnits="userSpaceOnUse"><stop offset="0" stop-color="#b08874" stop-opacity="0"/><stop offset="0.15" stop-color="#af8874" stop-opacity="0.12"/><stop offset="0.47" stop-color="#ab8874" stop-opacity="0.41"/><stop offset="0.91" stop-color="#a48874" stop-opacity="0.89"/><stop offset="1" stop-color="#a38874"/></radialGradient><linearGradient id="a6a24b7b-88e8-47a1-90e4-f60ca1f9d665" x1="250.28" y1="155.08" x2="307.74" y2="208.13" xlink:href="#ac5fecb9-d5c5-4261-bfe2-eadf60488302"/><radialGradient id="a3556ca1-a27d-4c68-b1cc-cd334f75e8a5" cx="243.55" cy="49.04" r="90.21" gradientUnits="userSpaceOnUse"><stop offset="0" stop-color="#fff" stop-opacity="0"/><stop offset="1"/></radialGradient><linearGradient id="bf7d5550-f187-4e66-b7c0-4c834c7b6d2f" x1="65.15" y1="264.17" x2="209.5" y2="395.14" gradientUnits="userSpaceOnUse"><stop offset="0" stop-color="#b08874" stop-opacity="0"/><stop offset="1" stop-color="#b08874"/></linearGradient><linearGradient id="e34908ed-aa6a-4d8e-adc8-1371764a7cf9" x1="35.49" y1="333.91" x2="135.97" y2="286.36" gradientUnits="userSpaceOnUse"><stop offset="0" stop-color="#b08874"/><stop offset="1" stop-color="#b08874" stop-opacity="0"/></linearGradient><linearGradient id="b3b0f12b-d3fd-4e38-b011-583736c0f3b8" x1="94.47" y1="331.69" x2="138.42" y2="365.06" xlink:href="#a3556ca1-a27d-4c68-b1cc-cd334f75e8a5"/><radialGradient id="e9224f6e-6d53-4ae8-9216-5b225075ddd8" cx="133.58" cy="241.6" r="161.26" gradientUnits="userSpaceOnUse"><stop offset="0" stop-color="#fff" stop-opacity="0"/><stop offset="0.12" stop-color="#b5b5b5" stop-opacity="0.26"/><stop offset="1" stop-opacity="0.9"/></radialGradient><linearGradient id="e4362234-97cb-49af-83e9-4eb92bb48731" x1="118.09" y1="309.86" x2="140.49" y2="309.86" gradientUnits="userSpaceOnUse"><stop offset="0" stop-color="#c6a9b5"/><stop offset="1" stop-color="#c6a9b5" stop-opacity="0"/></linearGradient><linearGradient id="aa9d1c6b-b678-475b-89e4-b440fe45051d" x1="132.43" y1="228.54" x2="180.61" y2="262.08" xlink:href="#e4362234-97cb-49af-83e9-4eb92bb48731"/><linearGradient id="ed794942-2475-4dba-bd58-f840a65a6f95" x1="226.98" y1="207.17" x2="345.6" y2="207.17" xlink:href="#a3556ca1-a27d-4c68-b1cc-cd334f75e8a5"/><radialGradient id="b3c22a91-0cd6-4fd4-b157-c8981051736d" cx="323.29" cy="67.24" r="38.88" xlink:href="#a9eaf01b-712b-49ad-af20-651d1d1dd18e"/><linearGradient id="a0fcf418-0d08-4ff6-8d15-1f5777dd7530" x1="452.6" y1="243.89" x2="376.9" y2="303.02" xlink:href="#a3556ca1-a27d-4c68-b1cc-cd334f75e8a5"/><linearGradient id="e6b757ac-3913-4d37-8448-934e6b839f1c" x1="224.02" y1="77.09" x2="381.55" y2="135.77" xlink:href="#a3556ca1-a27d-4c68-b1cc-cd334f75e8a5"/><linearGradient id="a0b8a23d-bdaf-4e20-93dd-d24101b0b41a" x1="242.13" y1="139.53" x2="261.86" y2="139.53" xlink:href="#a3556ca1-a27d-4c68-b1cc-cd334f75e8a5"/><linearGradient id="a3a0c07a-d885-40a8-b96b-ed5d20d46a4a" x1="52.16" y1="165.26" x2="17.78" y2="152.23" xlink:href="#e34908ed-aa6a-4d8e-adc8-1371764a7cf9"/><linearGradient id="e33cfd14-dc27-48fd-8610-3e969b2e4a90" x1="14.51" y1="157.82" x2="57.56" y2="157.82" xlink:href="#ac5fecb9-d5c5-4261-bfe2-eadf60488302"/><linearGradient id="afbbc37c-725a-491a-90f2-79f48f66a9e4" x1="313.69" y1="83.05" x2="359.78" y2="98.97" xlink:href="#bf7d5550-f187-4e66-b7c0-4c834c7b6d2f"/><linearGradient id="b0930714-67d0-4976-923e-c0c744792853" x1="3.79" y1="154.12" x2="48.2" y2="154.12" xlink:href="#ac5fecb9-d5c5-4261-bfe2-eadf60488302"/><linearGradient id="af035cc3-eca8-43df-a3bf-ed6d86b4c8db" x1="354.41" y1="104.56" x2="321.9" y2="74.77" xlink:href="#bf7d5550-f187-4e66-b7c0-4c834c7b6d2f"/><linearGradient id="a949267a-9e34-40e6-98f2-83989592f87b" x1="0" y1="158.25" x2="46.12" y2="158.25" xlink:href="#a3556ca1-a27d-4c68-b1cc-cd334f75e8a5"/><linearGradient id="bdd8aff8-a383-47e8-950e-2358da0105ed" x1="20.23" y1="137.57" x2="25.64" y2="176.11" xlink:href="#ac5fecb9-d5c5-4261-bfe2-eadf60488302"/><radialGradient id="fa2d8000-e786-4d55-8e88-ec0fdcbc247d" cx="184.86" cy="191.18" r="237.67" gradientUnits="userSpaceOnUse"><stop offset="0" stop-color="#fff" stop-opacity="0"/><stop offset="1" stop-opacity="0.9"/></radialGradient><linearGradient id="a1e8bf28-94ce-4696-93c3-f9424de5a653" x1="416.22" y1="313.55" x2="342.78" y2="179.45" xlink:href="#a3556ca1-a27d-4c68-b1cc-cd334f75e8a5"/><radialGradient id="f51594d0-dbf8-4b03-8316-5a73165b27fe" cx="64.77" cy="148.31" r="33.78" xlink:href="#fa2d8000-e786-4d55-8e88-ec0fdcbc247d"/><linearGradient id="b775a695-aea2-474d-a26d-263a811dc553" x1="57.33" y1="156.64" x2="86.62" y2="156.64" xlink:href="#ac5fecb9-d5c5-4261-bfe2-eadf60488302"/><linearGradient id="aa0f8b66-0ab3-42e5-ac7e-9aabb12901c8" x1="340.97" y1="73.43" x2="340.97" y2="88.79" xlink:href="#bf7d5550-f187-4e66-b7c0-4c834c7b6d2f"/><radialGradient id="e9edfe3b-a47a-49ba-8d60-7b065498ae4b" cx="550.32" cy="154.95" r="18.21" xlink:href="#fa2d8000-e786-4d55-8e88-ec0fdcbc247d"/><linearGradient id="f158b556-fabc-4f52-9af3-413b9f22fbf0" x1="551" y1="154.63" x2="552.75" y2="174.56" xlink:href="#ac5fecb9-d5c5-4261-bfe2-eadf60488302"/><linearGradient id="b71598cb-3dca-4b7c-a6d6-e82dcef57980" x1="85.7" y1="127.6" x2="51.78" y2="187.22" xlink:href="#ac5fecb9-d5c5-4261-bfe2-eadf60488302"/><linearGradient id="ae9f9d33-2c87-4d1a-8a92-1f2565c6dc6e" x1="449.71" y1="387.67" x2="554.21" y2="116.92" gradientUnits="userSpaceOnUse"><stop offset="0" stop-color="#b08874"/><stop offset="0.07" stop-color="#b08874" stop-opacity="0.85"/><stop offset="0.22" stop-color="#b08874" stop-opacity="0.55"/><stop offset="0.36" stop-color="#b08874" stop-opacity="0.31"/><stop offset="0.49" stop-color="#b08874" stop-opacity="0.14"/><stop offset="0.6" stop-color="#b08874" stop-opacity="0.04"/><stop offset="0.68" stop-color="#b08874" stop-opacity="0"/></linearGradient><linearGradient id="a4695906-d591-459e-8d78-74a2a68bb32f" x1="455.59" y1="293.37" x2="430.4" y2="379.59" xlink:href="#a3556ca1-a27d-4c68-b1cc-cd334f75e8a5"/><radialGradient id="aff5f203-1d5a-455a-b549-d4972b21b019" cx="590.35" cy="155.07" r="32.39" xlink:href="#fa2d8000-e786-4d55-8e88-ec0fdcbc247d"/><linearGradient id="f9ded383-6f39-439c-a995-8b536b7ddb6e" x1="590.97" y1="134" x2="586.4" y2="145.56" xlink:href="#ac5fecb9-d5c5-4261-bfe2-eadf60488302"/><radialGradient id="ab25c873-e3fc-4038-b623-8fb1dce7342b" cx="581.21" cy="147.74" r="54.52" xlink:href="#fa2d8000-e786-4d55-8e88-ec0fdcbc247d"/><linearGradient id="b436b524-7016-47e3-8b95-7482a9f13e1e" x1="441.92" y1="289.14" x2="560.09" y2="289.14" xlink:href="#e34908ed-aa6a-4d8e-adc8-1371764a7cf9"/><linearGradient id="bbe32198-ed07-4c62-8f88-ef444ebeb30f" x1="496.93" y1="205.06" x2="499.38" y2="205.06" xlink:href="#e34908ed-aa6a-4d8e-adc8-1371764a7cf9"/><linearGradient id="f42f2954-5547-49be-8ad2-aaeeea069bae" x1="437.91" y1="192.74" x2="414.73" y2="226.79" xlink:href="#e4362234-97cb-49af-83e9-4eb92bb48731"/><linearGradient id="e474611f-efde-4cdd-9b8e-0f771ee888f1" x1="418.27" y1="352.86" x2="439.72" y2="256.31" xlink:href="#e4362234-97cb-49af-83e9-4eb92bb48731"/><linearGradient id="fe9b99ae-3fe1-4265-aee8-fb80ca2486e0" x1="422.17" y1="303.16" x2="458.15" y2="303.16" xlink:href="#e4362234-97cb-49af-83e9-4eb92bb48731"/><linearGradient id="ada05952-0420-4e96-bc63-4a51fac2ebb6" x1="287.43" y1="70.09" x2="314.47" y2="70.09" xlink:href="#bf7d5550-f187-4e66-b7c0-4c834c7b6d2f"/><linearGradient id="fd7815d4-b7b8-4ce8-b25f-f0b33459d53d" x1="319.76" y1="73.76" x2="319.76" y2="112.28" gradientUnits="userSpaceOnUse"><stop offset="0" stop-color="#935f51" stop-opacity="0"/><stop offset="1" stop-color="#935f51"/></linearGradient><linearGradient id="a966b302-c8cd-426e-b07e-21ce8aae438f" x1="291.25" y1="128.75" x2="312.06" y2="128.75" xlink:href="#ac5fecb9-d5c5-4261-bfe2-eadf60488302"/><radialGradient id="b8319f47-4a96-451c-8ad0-06beb5e0db0d" cx="293.56" cy="64.8" r="46.66" xlink:href="#a9eaf01b-712b-49ad-af20-651d1d1dd18e"/><linearGradient id="eb1b74c8-7314-4197-b62c-f224ab76451c" x1="103.11" y1="180.42" x2="43.79" y2="164.38" xlink:href="#ac5fecb9-d5c5-4261-bfe2-eadf60488302"/><linearGradient id="b55024f1-f953-4696-85c9-1731c928baca" x1="64.34" y1="298.47" x2="89.96" y2="297.16" xlink:href="#ac5fecb9-d5c5-4261-bfe2-eadf60488302"/><linearGradient id="a10dfd93-d21d-4cb1-9b48-5990b6fffada" x1="504.84" y1="169.43" x2="520" y2="199.5" xlink:href="#ac5fecb9-d5c5-4261-bfe2-eadf60488302"/><linearGradient id="b4fc2f7c-3696-4e87-b7b9-563771dab12e" x1="449.53" y1="284" x2="490.37" y2="295.67" xlink:href="#ac5fecb9-d5c5-4261-bfe2-eadf60488302"/><linearGradient id="a70ff6d2-4423-4ae3-a70c-25fc1c657a93" x1="548.59" y1="169.86" x2="550.07" y2="183.64" xlink:href="#ac5fecb9-d5c5-4261-bfe2-eadf60488302"/><linearGradient id="a27a8ce0-7a7d-493d-a03a-70f73bf6b6b0" x1="300.96" y1="100.68" x2="300.96" y2="107.36" xlink:href="#bf7d5550-f187-4e66-b7c0-4c834c7b6d2f"/><linearGradient id="b9dbcddf-f114-47fc-98fa-6f16b861a9a9" x1="298.56" y1="106.46" x2="320.13" y2="110.72" xlink:href="#fd7815d4-b7b8-4ce8-b25f-f0b33459d53d"/><linearGradient id="b51c9fe2-8671-48fb-a3b9-5c4bacad6b44" x1="302.64" y1="104.18" x2="314.86" y2="115.07" gradientUnits="userSpaceOnUse"><stop offset="0" stop-color="#935f51"/><stop offset="1" stop-color="#935f51" stop-opacity="0"/></linearGradient><linearGradient id="b8dba9cf-5298-4583-8a1f-590bb7831990" x1="303.53" y1="121.7" x2="310.41" y2="118.8" xlink:href="#ac5fecb9-d5c5-4261-bfe2-eadf60488302"/><linearGradient id="e706411c-011d-421d-b896-612d6a64df0a" x1="298.79" y1="113.56" x2="311.33" y2="113.56" xlink:href="#ac5fecb9-d5c5-4261-bfe2-eadf60488302"/><linearGradient id="be5435de-4fcf-4aed-9064-c23ed71d1db1" x1="308.74" y1="86.84" x2="314.71" y2="86.84" xlink:href="#ac5fecb9-d5c5-4261-bfe2-eadf60488302"/><radialGradient id="a301fcaf-59f6-4860-9ae0-8acf19930523" cx="293.82" cy="72.64" r="7.68" xlink:href="#a9eaf01b-712b-49ad-af20-651d1d1dd18e"/><linearGradient id="b75e8477-a26b-4842-b8f6-0d5db540380f" x1="303.43" y1="104.64" x2="352.96" y2="142.92" xlink:href="#bf7d5550-f187-4e66-b7c0-4c834c7b6d2f"/><linearGradient id="fd85c68e-77d6-45ad-a9b2-1c14781aaaa4" x1="303.05" y1="104.54" x2="352.94" y2="143.09" xlink:href="#bf7d5550-f187-4e66-b7c0-4c834c7b6d2f"/><linearGradient id="b2de03ec-bed4-40b3-9bf4-9a128dfab0cf" x1="335.54" y1="97.46" x2="330.08" y2="87.49" xlink:href="#a3556ca1-a27d-4c68-b1cc-cd334f75e8a5"/><linearGradient id="f486b73d-cc5a-45a9-98d9-b621da8753c8" x1="249.58" y1="76.67" x2="244.26" y2="66.96" xlink:href="#a3556ca1-a27d-4c68-b1cc-cd334f75e8a5"/><linearGradient id="ede0edba-e0c1-42f8-b5bf-5773d492ada2" x1="295.79" y1="85.48" x2="290.78" y2="76.33" gradientUnits="userSpaceOnUse"><stop offset="0"/><stop offset="1" stop-color="#fff" stop-opacity="0"/></linearGradient><linearGradient id="f284f4ad-fcae-4d36-9765-70f852d00f63" x1="266.79" y1="137.39" x2="340.46" y2="194.31" xlink:href="#e34908ed-aa6a-4d8e-adc8-1371764a7cf9"/><linearGradient id="f0676339-fb7b-4952-8f34-4a090c400848" x1="304.82" y1="104.86" x2="313.78" y2="107.95" xlink:href="#ac5fecb9-d5c5-4261-bfe2-eadf60488302"/><linearGradient id="b06817a4-80e5-44b0-88a8-f8b043a2cc6b" x1="320.39" y1="135.88" x2="297.4" y2="128.4" xlink:href="#b51c9fe2-8671-48fb-a3b9-5c4bacad6b44"/><linearGradient id="fe68ac93-361e-4392-902d-9a477ca9472a" x1="305.98" y1="123.61" x2="305.42" y2="131.64" gradientUnits="userSpaceOnUse"><stop offset="0" stop-color="#935f51"/><stop offset="0.35" stop-color="#935f51" stop-opacity="0.99"/><stop offset="0.51" stop-color="#935f51" stop-opacity="0.94"/><stop offset="0.63" stop-color="#935f51" stop-opacity="0.85"/><stop offset="0.73" stop-color="#935f51" stop-opacity="0.73"/><stop offset="0.81" stop-color="#935f51" stop-opacity="0.57"/><stop offset="0.89" stop-color="#935f51" stop-opacity="0.37"/><stop offset="0.96" stop-color="#935f51" stop-opacity="0.14"/><stop offset="1" stop-color="#935f51" stop-opacity="0"/></linearGradient><linearGradient id="afe421f0-7234-4ada-9254-f1e305f9a8fc" x1="291.5" y1="122.25" x2="301.83" y2="122.25" xlink:href="#ac5fecb9-d5c5-4261-bfe2-eadf60488302"/><linearGradient id="b13103b3-459c-49e9-868e-4717c300ccc8" x1="290.37" y1="129.38" x2="302.64" y2="129.38" xlink:href="#ac5fecb9-d5c5-4261-bfe2-eadf60488302"/><radialGradient id="a831b775-fb85-4f0b-aa88-89630a8f512e" cx="282.1" cy="279.8" r="97.17" xlink:href="#fa2d8000-e786-4d55-8e88-ec0fdcbc247d"/><linearGradient id="bca920d8-7bea-4892-a4d5-e0d0e7a9dd60" x1="387.2" y1="216.13" x2="337.34" y2="125.07" xlink:href="#a3556ca1-a27d-4c68-b1cc-cd334f75e8a5"/><linearGradient id="e4651636-9382-42cc-8997-596816d8ddec" x1="337.68" y1="192.24" x2="372.45" y2="192.24" xlink:href="#ede0edba-e0c1-42f8-b5bf-5773d492ada2"/><linearGradient id="b6e38f5d-0be8-4398-83c4-09ee9f8c0342" x1="198.69" y1="162.89" x2="208.29" y2="236.07" xlink:href="#e4362234-97cb-49af-83e9-4eb92bb48731"/></defs><title>Asset 7</title><g style="isolation:isolate"><g id="b1643ffe-5961-43df-a55c-41126973c519" data-name="Layer 2"><g id="b0737233-723f-4526-a8a0-fa91a0e88bb1" data-name="Object2"><g id="ee7fe2d3-1413-451a-b989-8c6b3f930699" data-name="Vi"><path d="M562.17,178.79c12.5.48,18.57-10.66,26.18-19.27,2.84-3.22,6-8.07-.09-10.07-5.65-1.86-11.66,8.06-13.51,12.17-2.8,2-6.13,4.1-8.34,6.78C565.91,169,560.93,178.76,562.17,178.79Z" fill="url(#ac5fecb9-d5c5-4261-bfe2-eadf60488302)"/><path d="M298.76,106.57c-3.42,5,4.47,3.74,5.68,6,1.11,2-1.56,3.74-.87,5.24,1.38,3,1.54.48,3.9,1.51,2.75,1.2,9.3.45,11.07,3,2.81,4-3.69,2.68-6,2.39-3.43-.43-6.7-1.52-10.15-1.84-3.21-.29-14.07,1.81-15.91-2.26C285,117.35,295.58,105.25,298.76,106.57Z" opacity="0.5" fill="url(#aadac0bc-566d-4667-b6cc-f8db6a891f53)"/><path d="M317.05,115.29c1.15-.56,5.1-1.11,5.23,1.08C322.39,118.13,316.37,115.29,317.05,115.29Z" fill="#b08874" style="mix-blend-mode:multiply"/><path d="M621.84,188.94a22.33,22.33,0,0,0-5,1.31c1.84-2.56,7-7.76,4-11.12-3.53-4-8.28.46-10.83,3.31-5.92-3.5-12.69,7.21-14.7,11.69,0,0-3.16,2.25-5.92,4.57h0c-5.09-4.65-7.61,3.62-9.16,7.07-.59-1.68-1.82-2.29-3.44-2.67,3.83-3.73,6.24-10.68-1.71-9.93-4.15.39-9.28,5.83-10.7,9.41-6.86,1.24-13.75,3.27-20.73,4.51-7.54,1.34-16.48,1.85-23.49,5.08-12.74,5.9-24.11,23.06-25.68,36.6-3.41,29.29-2.12,57.7-10.43,86.41-.6-.93-5.58-5.6-6.34-2,1.15-5.53,2.32-8.59-1.87-13.32-3.83-4.32-9-4.07-6.36-10.29.42-1,3.47-1.13,4.28-2.54,1.6-2.79-.8-9-1.52-11.72-1.66-6.31-4.54-12.12-6.54-18.3-5.65-17.5-13.14-49.37-34-55.3l.13,0A38.47,38.47,0,0,0,424,220c1.1-12.37,21-12.43,16.46-27.5-3.26-10.69-15.34-18.76-23.24-25.86C399.82,151,401,127.15,399.64,105.33c-1.62-26.41-5.16-48.77-31-62.12-9.1-4.71-49-20.49-53.16-2.16-11-4.2-25.58,9.49-30.76,17.58C278.05,69,273.32,83.12,270.63,95.17c-9.27,1.34-7.82,23.35-5,29-5.27,14.29,2.63,24.54,7.29,37.36,5.88,16.18-6.56,27.82-10.88,42.22-6,1.07-10.32,5.79-13,11.05-8.72,2.38-17.58,4.35-26.37,6.49-6.2,1.52-14,4.88-20.41,4.88a.77.77,0,0,0,.28-.12c-21.07,1.37-35,24.36-42.59,41.13a84.87,84.87,0,0,0-7.46,29.13c-.16,2.43,1.48,15.15-.09,16.56-2.1,1.9-.46.18-2.81.13-2.58-.07-.67-3.37-4.34-1.81-3.42,1.45-1.63,8.74-1.06,11.27,2.05,9.11,3.68,9.37-5.49,12.15-8.51-36.67-.59-74.83-6.76-111.39-.58-3.43.65-7.76-.52-10.81-1.44-3.74-6.72-6.6-9.68-9-6.68-5.33-13.67-4.15-20-8.87-5.5-4.08-8.15-12.44-15.62-13.6-9.68-1.5-9.36,9.58-2.79,13.53-3.74-.66-6.89,1-10.46.69-5.63-.5-10.81-3.63-15.42-6-4.8-2.49-15.73-16-22-10.53-.83-.91-12.55-10.13-11.55-4.18-8.87-.43,3.32,10.24,4.88,13-2.24,2.67,6.4,12.23,8.28,14.3,5.27,5.83,8.76,8.68,16.12,10,9.67,1.71,18.65,4.54,26.81,10.09,6.51,4.43,17.49,10,19.41,18.08,7.51,31.55.84,67.25-2.32,98.86-1.77,17.78-2,35.06.26,52.79,1.73,13.31,3.23,32.12,12.84,42.11,8.93,9.29,31.12,4,39.78-4.05,6.87-6.39,16.35-13.86,21-22v0s0,0,0,0c6.31-10.47,24.21-3.4,19.47-20.82-1.51-5.54-4.07-7.91,1.73-10.44s6.75.24,7.51-7.56c2.48,14.87,12.81,28.34,16.62,43.11,3.72,14.49,5,29.53,5.24,44.45.28,18.76-4.68,32.74-10.79,50.37a212.94,212.94,0,0,0,182.09,16.42,187.54,187.54,0,0,0,29.56-13.65c5.07-3,9.81-7,15.36-9.05-6.76-22.09-12.1-41-12.35-64.21a359.15,359.15,0,0,1,4.29-59.95c-.15.93-.28,1.87-.42,2.84,7,1.31,9.63,1.48,13.61,8,2,3.17,3.13,7.09,5.48,10.19,4.2,5.52,10.84,9.18,16.19,13.46,0,0,0,0,.05,0,6,5.26,8.34,13.63,15.55,17.32,5.64,2.89,13.68,3.25,19.87,3.25,12.79,0,13.74-12.79,15-23,2.88-24.12,11.25-45.78,10.91-70.27-.35-24.85-2.46-49.75-1.52-74.6.61-16,7.31-25.68,21.91-32.28,6.26-2.84,13.8-6.5,20.64-7.85,7.38-1.45,9.12-1.74,15.26-7.35,5.19-1.36,11.47-2.19,16.39-4.36,3.94-1.74,7.52-5,11.32-7.14s14.56-5,16.7-9.26C628.58,191.3,626.53,188.4,621.84,188.94ZM252.35,233.4l-.42-.73,1.69,2.87Zm7.76,12.08q1.26,1.68,2.68,3.37C261.83,247.72,261,246.61,260.11,245.48Zm21.32-47c-1,3.51-8.08,4.72-10.8,5.86,7.28-9.07,8.65-6.87,11-8A20.3,20.3,0,0,1,281.43,198.43Zm49.17,76.7c-.44.09-.91.17-1.42.24,2.12-.31,4.22-.77,6.34-1.12C333.79,274.54,332.14,274.82,330.6,275.13Zm18.83-61.33c0-12.17,1.38-29.47,1.47-30.49C350.9,183.31,350.8,199.09,349.43,213.8Zm26.37-75-2.24,4a51.6,51.6,0,0,0,2.38-7.71C375.9,136.32,375.85,137.56,375.8,138.81Zm49.43,158c-.28,2.32.67,6.45,2.13,11.31C425.89,303.21,424.94,299.07,425.23,296.76Zm2.62,12.89c.34,1.08.7,2.18,1.06,3.3C428.54,311.83,428.19,310.72,427.85,309.65Z" fill="#373537" style="mix-blend-mode:overlay"/><path d="M359.28,76c0,13.16-3.39,26.9-8.15,39.11-7.74,19.81-17.27,41.29-41.1,44.38-16.84,2.19-30.81-11.78-41.87-22.43-10-9.59-10.67-19.52-10.78-33.07-7.67-.87-9.57-5.94-12.31-12.32-2.89-5.78-3.13-18.9,0-24.63,5.07-9.31,8.91-2.2,9,4.48,4,4.25,25.42-30.72,27.57-33,7.28-7.74,17.85-13.45,28.42-10.11,0,0-3.31-5.85-7.05-11.22,17.87-.46,41.63,2.75,52.16,18.52C364.13,49.24,359.28,60.84,359.28,76Z" fill="#ecc19c"/><g opacity="0.4" style="mix-blend-mode:multiply"><path d="M359.28,76c0,18-6,35.41-13.37,51.52-7.18,15.76-19.49,32.8-39.26,32.46-15.94-.27-28.79-13.51-39.27-23.67-9.45-9.15-9.91-19.5-10-32.31a14.23,14.23,0,0,1-6.58-2.23,0,0,0,0,0,0,0c-3.27-2.34-4.24-6.57-5.72-10.08-2.9-5.78-3.13-18.9,0-24.63,5.07-9.31,8.91-2.2,9,4.48,3.92,4.11,25.84-31.39,28.54-34C289.9,30.3,299.8,25.39,310,28.45c-2.19-3.83-4.54-7.59-7.05-11.22,17.88-.45,41.64,2.75,52.17,18.53C364.13,49.25,359.28,60.86,359.28,76Z" fill="url(#a9eaf01b-712b-49ad-af20-651d1d1dd18e)"/></g><path d="M310,28.44c-10.57-3.34-21.14,2.37-28.42,10.11-2.26,2.4-23.54,37.25-27.57,33,8.41-25,16.9-53.66,48.94-54.33C306.7,22.59,310,28.44,310,28.44Z" fill="#ecc19c"/><path d="M308.26,146.15c-4.19,2.07-9.57-.26-13.92.36-6,.86-4.62,2.65-7.69,6.58-4.26-2.94-9.55-6.59-12-11.14s-2.52-8-6-11.95c-3.21-3.7-5.18-6.37-6.51-11.23-1-3.6-4.54-11.32-4.65-14.69-8.53,0-6.45-6-8.31-12.13-1.53-5-2.9-6.45-2.07-11.85.2-1.25,2.77-10.09,3-9.87,3.69,4-2.35,13-1.06,18,1.14,4.42,7,12,6.39,2.85C255,84,254.6,83.46,258.6,77c3-5,4.06-10.32,5.58-15.84,2.44-8.92,4.87-22.09,12.12-28.25,8.31-7.06,20.91-11.18,31.6-9.33.9,7.84,1.68,15.75,2,23.64.32,7.36,1.46,12.59-7.28,12.26-8.48-.33-15.8-4.33-22.15,4.2C275,71,280.1,79,287.35,82.79c6.63,3.5,23.94-.17,21,11.11-1.23,4.72-6.33,5.79-8.64,9.56-3.63,6,1.3,5.85,1.89,10.41,1.06,8.14-16.13,7.93-8.83,19.21C293.86,134.79,318.62,141.13,308.26,146.15Z" fill="url(#ef052625-02aa-4dd5-ab70-809ac7584e81)"/><path d="M327.72,218.35c-13.62,10-41.33,5.53-56.38,1.23C258.47,215.89,236,197,238.15,181.35c1-7.46,11.44-8.77,17.33-11.65,5.43-2.65,5.47-3.7,5.76-9.4.5-9.78.51-19.61.62-29.41,19.23,19.23,41.59,40.07,68.44,19.91-.93,11.15-1.88,22.57-1.41,33.75C329.34,195.3,338.73,210.22,327.72,218.35Z" fill="#ecc19c"/><g opacity="0.5" style="mix-blend-mode:multiply"><path d="M327.72,218.35c-13.62,10-41.33,5.53-56.38,1.23C258.47,215.89,236,197,238.15,181.35c1-7.46,11.44-8.77,17.33-11.65,5.43-2.65,5.47-3.7,5.76-9.4.5-9.78.51-19.61.62-29.41,19.23,19.23,41.59,40.07,68.44,19.91a320.08,320.08,0,0,0-1.47,33.75C329.09,195.39,338.89,210.1,327.72,218.35Z" fill="url(#fb888ab8-64ba-4787-a124-3f2f698a53ac)"/></g><path d="M311.67,223.43c-28.16,0-56.24-2.72-70.12-30.82,10.85-6,17.88-12.28,18.41-25.26,3.31-3.31,1.56-16.1,1.65-20.38q.17-8,.25-16.08c11.43,11.44,29.38,32.58,47.95,28.67l0,0a63.81,63.81,0,0,0-7.66,25.92c-.41,5.22-1.33,26,6.23,15.34,4-5.62,6.13-10.14,9.72-.87C321.16,207.82,320.8,219.89,311.67,223.43Z" fill="url(#a6a24b7b-88e8-47a1-90e4-f60ca1f9d665)"/><path d="M310,28.44c-10.57-3.34-21.14,2.37-28.42,10.11-2.26,2.4-23.54,37.25-27.57,33,0-3.17.48-9.41-4-8.89,3.3-15.18,9.55-35.33,21.86-45.46,5-4.15,14.28-11,21.47-9.1C301.11,10.14,306.34,22.06,310,28.44Z" fill="#ad764d"/><g opacity="0.3" style="mix-blend-mode:color-burn"><path d="M310,28.44c-10.57-3.34-21.14,2.37-28.42,10.11-2.26,2.4-23.54,37.25-27.57,33,0-3.17.48-9.41-4-8.89,3.3-15.18,9.55-35.33,21.86-45.46,5-4.15,14.28-11,21.47-9.1C301.11,10.14,306.34,22.06,310,28.44Z" fill="url(#a3556ca1-a27d-4c68-b1cc-cd334f75e8a5)"/></g><path d="M134.68,382.36c-4.57,16-10,21.38-27.33,22.75-11.55.92-18.91-2.05-23.69-13.31-14.38-33.93-8-75.26-4.71-110.46,1.63-17.55,3.87-35.53,2.16-53.14-.5-5.1-3.82-14.63-2.31-19.65,1.63-5.42,8.93-5.88,13.5-8.56,3.08-1.8,14.23-11.37,18.18-9.62,3.46,1.54,3.71,13.86,3.88,17.27.67,13.61-1.07,27.58-.8,41.28.35,17.43.48,35.51,4.41,52.58,4.22,18.35,9.79,33.69,8.92,52.94C126.89,354.44,138.58,368.73,134.68,382.36Z" fill="#ecc19c"/><g opacity="0.5" style="mix-blend-mode:darken"><path d="M134.68,382.36c-4.23,14.85-8.56,20.72-24.76,22.51-12.15,1.35-20.49-.33-25.93-12.36-6.34-14-7.56-32.28-8.61-47.4-1.59-22.7,1.91-45.22,3.94-67.78,1.45-16.1,3.37-32.54,1.83-48.69-.51-5.28-4.11-15.44-2.33-20.5s14.75-9.56,19.67-12.41c4.13-2.39,10.46-7,13.37-3.42,4,4.92,2.62,18.61,2.28,24.24-.76,12.75-.8,25.44-.44,38.22.48,16.75.93,33.85,5.11,50.16,4.38,17.06,8.88,31.57,8.08,49.51C126.89,354.44,138.58,368.72,134.68,382.36Z" fill="url(#bf7d5550-f187-4e66-b7c0-4c834c7b6d2f)"/></g><path d="M134.68,382.36c-3.38,11.88-6.18,19.13-19.27,21.72-7.13,1.4-20.2,3.76-25.56-2.61,6.88,2,9.91-.22,10.17-6.83.25-6.12-2.81-5.61,3.92-4.61,4.81.72,5.77,2.83,8.59-1,1.77-2.41,1.52-7.49,1.75-10.3,1.52-18.25-3.09-33.7-6.4-51.13-6.69-35.23-7-70.76-8.85-106.33,6.53,8.45,6.27-1.45,5.43-6.41a85.43,85.43,0,0,0-2.9-12.42c-.57-1.71-3-5.12-3.07-6.72,2.27-1.25,7.75-5.15,10.39-4.86,3.74.41,1.19-.89,3.23,2.39,3.77,6.05,2.29,18,1.9,24.54-.82,13.78-.65,27.58-.17,41.38.53,15.06,1.08,30.37,4.78,45,4.42,17.48,9.09,31.83,8.27,50.22C126.89,354.44,138.58,368.73,134.68,382.36Z" fill="url(#e34908ed-aa6a-4d8e-adc8-1371764a7cf9)"/><path d="M151.79,372.53c-.49,1-.94,1.84-1.34,2.51,0,0,0,0,0,0v0c-4.82,8.42-14.44,15.35-21.23,22.24,9.54-12.91,7-30.92-2.31-42.91.51-11.4,0-22.58-3.29-33.55,11.15,1.5,24,9.77,29.77,19.33C159.4,350.22,156.72,362.68,151.79,372.53Z" fill="#a17a94"/><g opacity="0.5" style="mix-blend-mode:color-burn"><path d="M151.79,372.53c-.49,1-.94,1.84-1.34,2.51,0,0,0,0,0,0v0c-4.82,8.42-14.44,15.35-21.23,22.24,9.54-12.91,7-30.92-2.31-42.91.51-11.4,0-22.58-3.29-33.55,11.15,1.5,24,9.77,29.77,19.33C159.4,350.22,156.72,362.68,151.79,372.53Z" fill="url(#b3b0f12b-d3fd-4e38-b011-583736c0f3b8)"/></g><path d="M181.71,193.69c-4.24,1.41-5.22,14.78-5.61,18.09a157.49,157.49,0,0,0-.31,30.55c.77,9.66,3.43,18.73,4,28.58.63,11.39.93,22.8,1.19,34.2a187.23,187.23,0,0,1-1.79,31.12c-.33,2.32.12,5-1.88,6.71-2.29,1.93-6.39-.62-8.42,1.68-4.56,5.16,5,12.43,1.52,18.77-4.27,7.69-14,3-18.59,9.14,4.93-9.85,7.61-22.31,1.58-32.31-5.75-9.53-18.64-17.84-29.77-19.33-1.95-6.22-4-12.4-5.51-18.74,6.41-1.93,7.51-1,6.93-7.52-.3-3.34-6.06-16.87,1.65-16.4,3.58.22,1.59,4.58,5.14,2.18,1.75-1.19.76-23.43,1.49-27.06,3.18-15.84,11.21-30.92,21.25-43.49C162.09,200.42,171.73,196.69,181.71,193.69Z" fill="#895881"/><g opacity="0.5" style="mix-blend-mode:color-burn"><path d="M181.71,193.69c-4,1.31-5.46,14.8-6.21,18-1.17,5.09-3.59,11.28-3.08,16.5.38,3.93,2.65,7.31,3.66,11.11,2.74,10.37,0,21.39,0,31.91,0,12,4.83,23,5.79,34.81.76,9.41-1.7,18.5-2.69,27.78-.25,2.24.41,5.78-1.08,7.72-2.29,3-5.14.71-7.65,2.3-6.82,4.32,2.72,12.08.43,18.35-3.32,9.08-14.39,4-19.09,10.32,4.93-9.85,7.61-22.31,1.58-32.31-5.75-9.53-18.64-17.84-29.77-19.33-1.95-6.22-4-12.4-5.51-18.74,6.41-1.93,7.51-1,6.93-7.52-.3-3.34-6.06-16.87,1.65-16.4,3.58.22,1.59,4.58,5.14,2.18,1.75-1.19.76-23.43,1.49-27.06,3.18-15.84,11.21-30.92,21.25-43.49C162.09,200.42,171.73,196.69,181.71,193.69Z" fill="url(#e9224f6e-6d53-4ae8-9216-5b225075ddd8)"/></g><path d="M137.17,310.7c-7.79-3.69-19.84,2.46-7.3,7.44a9.21,9.21,0,0,0-6.94.6c-1.57-5-3.36-10.39-4.84-16.59,1.34-.41,2.93-.72,4.52-1.17,4.4,4.15,11.14,1,15.42,4.79C140.26,307.75,142.59,313.28,137.17,310.7Z" fill="url(#e4362234-97cb-49af-83e9-4eb92bb48731)"/><path d="M181.53,193.73c-2.85.72-4.46,11.45-5,13.82-14.51-1.73-8.16,9.74-11.34,18.71-3.39,9.57-3.3-6.88-7.53-9-6.63-3.36-4.1,14.79-4.08,18.37,0,3,.71,6.85-2.25,8.3-.88.44-3.14-1.29-4.49-1a8.17,8.17,0,0,0-5.35,4c-7.75,12,9.52,5.16,13.18,8.06,3.42,2.72,4.05,15.79,2.62,19.5-3.84,10-13.06-4.67-20.14.32-2.49,1.75.14,13.74,2.17,13.85-2.93-.16-9.44-6.25-12.6-2.91-.9,1,1.09,3.49.59,4.1-1.73,2.07,1.73-1.8-3.18,1.9-1-3-3.59-13.83,2.58-13.48,2,.12,2.25,4.4,4.74,3.27,2.17-1,.3-15,.49-17.65a83.55,83.55,0,0,1,5-23.26C145,218.86,159.74,198.94,181.53,193.73Z" fill="url(#aa9d1c6b-b678-475b-89e4-b440fe45051d)"/><path d="M339.66,231.29c-8.81,9.45-25.88,12.1-38.32,11.93a83.09,83.09,0,0,1-50-18c-9.21-7.43-22.27-22.12-24.2-34.33-2-12.38,11.28-22.55,22.86-19.11-6.44,2.71-12.38,4.41-11.65,12.12.52,5.48,4.6,11.89,7.69,16.26,9.72,13.77,21.86,19.3,38.15,21.6,12.91,1.82,32.27,5.42,43.49-3.42,11-8.66,1.27-24.08,1.12-35.43C339.36,195,353.92,216,339.66,231.29Z" fill="#a17a94"/><g opacity="0.5" style="mix-blend-mode:color-burn"><path d="M339.66,231.29c-8.81,9.45-25.88,12.1-38.32,11.93a83.09,83.09,0,0,1-50-18c-9.21-7.43-22.27-22.12-24.2-34.33-2-12.38,11.28-22.55,22.86-19.11-6.44,2.71-12.38,4.41-11.65,12.12.52,5.48,4.6,11.89,7.69,16.26,9.72,13.77,21.86,19.3,38.15,21.6,12.91,1.82,32.27,5.42,43.49-3.42,11-8.66,1.27-24.08,1.12-35.43C339.36,195,353.92,216,339.66,231.29Z" fill="url(#ed794942-2475-4dba-bd58-f840a65a6f95)"/></g><path d="M351.68,64c-1.56,3.78-1.79,10.48-1.79,10.48-4.66-2-10.69-5.76-15.71-6.27-8.35-.85-12.94,7.22-14.39,14.49-1.21,6.09.76,27.28-5.06,28.66-9.16,2.19-6.09-9.32-5-13.54,3.05-12,12-33.09-5.52-37.38-10.54-2.58-14.6-3.81-12.94-15.84,1.16-8.47,3.55-14.77,8.93-21.54,3.08-1.1,9.69,1.82,12.55,2.59,7.63,2.05,15.2,4.4,22.62,7.12,5.27,1.94,12.56,3.87,16.81,7.76C358.77,46.59,354.63,56.88,351.68,64Z" opacity="0.2" fill="url(#b3c22a91-0cd6-4fd4-b157-c8981051736d)"/><path d="M463.48,302.66c-1.1,3.79-2.19,7.64-3.2,11.56l0,0c-1.24,5-16.16,13.33-19.88,16.45-6.45,5.4-18.92,14.61-18,23.84-3.62-6.6-6.84-6.71-13.61-8,2-13.71,8.57-30.35,6.7-44.32-1.72-12.72-12.28-25.48-10.66-38.6,1.28-10.29,5.77-21,7.76-31.29,1.67-8.62,9.94-39-1.38-43.11,20.82,5.92,28.29,37.78,34,55.31,2,6.17,4.87,12,6.53,18.3.73,2.76,3.13,8.92,1.52,11.72-.79,1.37-3.91,1.6-4.28,2.54-2.38,6.12,2.4,5.81,6.37,10.29,4.17,4.71,3.07,7.8,1.86,13.32C458.06,296.46,463.26,302.32,463.48,302.66Z" fill="#895881"/><g opacity="0.5" style="mix-blend-mode:color-burn"><path d="M463.48,302.66c-1.1,3.79-2.19,7.64-3.2,11.56l0,0c-1.24,5-16.16,13.33-19.88,16.45-6.45,5.4-18.92,14.61-18,23.84-3.62-6.6-6.84-6.71-13.61-8,2-13.71,8.57-30.35,6.7-44.32-1.72-12.72-12.28-25.48-10.66-38.6,1.28-10.29,5.77-21,7.76-31.29,1.67-8.62,9.94-39-1.38-43.11,20.82,5.92,28.29,37.78,34,55.31,2,6.17,4.87,12,6.53,18.3.73,2.76,3.13,8.92,1.52,11.72-.79,1.37-3.91,1.6-4.28,2.54-2.38,6.12,2.4,5.81,6.37,10.29,4.17,4.71,3.07,7.8,1.86,13.32C458.06,296.46,463.26,302.32,463.48,302.66Z" fill="url(#a0fcf418-0d08-4ff6-8d15-1f5777dd7530)"/></g><path d="M415.29,301.41c2.48,10.67-3.16,25.91-5.14,36.39-3.28,17.35-12.66,32.9-16.41,50.33-7.77,36.09-.86,72.19,7.61,107.47,1.24,5.21,6.19,15.92,3.46,21.07-2.38,4.49-10.41,5.92-15,7.53a211.71,211.71,0,0,1-26.95,7.56,214.63,214.63,0,0,1-55.63,4.2,210.09,210.09,0,0,1-106.2-35.5c-10.35,0-2.47-28.58-1.63-33.09a200,200,0,0,0,2.27-55.32,189.08,189.08,0,0,0-11.38-48.28c-6-16.3-8-33-10.49-50.14-5-34.49-11.81-72-3.34-106.08,3.46-13.91,4.81-13.68,17.61-16.78,11.24-2.72,22.51-5.35,33.69-8.26h0c.24-.05.45-.11.66-.17-6.31,12.21,10.73,31.86,19.21,39.72a82.08,82.08,0,0,0,54.2,21.18c13.93,0,35.54-3.28,41.44-17.92,6.57-16.3-4.43-30.73-14.45-42.4,15.41.26,30.83.8,46.22,1.78,10.55.67,38.53-1.8,41,11.91,3.1,17.26-3.66,38.84-7.88,55.47-1.27,5-3.59,10.05-3.43,15.19C405.11,278.74,412.53,290.37,415.29,301.41Z" fill="#895881"/><path d="M424.85,223.65c-2.28,11.65-16.71,33.53-17.6,34.89,12-21.07-4.25-42.44-17.6-57.52-16-18.06-33.28-39.17-35.22-64.24-2.06-26.64,5.09-52.11-4.63-77.88-3.69-9.77-7.06-18.9-17-23.6-7.1-3.36-15.15-5.21-22.81-6.86,0,0-9.25-11.18-15.14-19.89,3.73-17.54,41.59-3.31,50.24.72,25.91,12.07,32,33,33.67,59.33,1.23,19-1.1,46,12.86,60.94,8.15,8.72,19.11,15.09,25.57,25.38,7.7,12.25-.43,16.87-9,24.55C389.53,196.25,427.89,208.16,424.85,223.65Z" fill="#ad764d"/><g opacity="0.5" style="mix-blend-mode:color-burn"><path d="M424.85,223.65c-2.28,11.65-16.7,33.53-17.6,34.89,11.92-21.1-4.19-42.38-17.59-57.52C374,183.32,357,162.7,354.58,138.24c-2.66-26.68,5.23-52.62-4.48-78.53-4-10.58-7.53-20.14-18.44-24.92-6.84-3-14.38-4.78-21.65-6.35,0,0-9.25-11.18-15.14-19.89,3.73-17.55,41.59-3.31,50.24.72,25.91,12.07,32,33,33.67,59.33,1.23,19-1.1,46,12.86,60.94,8.15,8.72,19.11,15.09,25.57,25.38,7.7,12.24-.42,16.87-9,24.54C389.53,196.25,427.88,208.16,424.85,223.65Z" fill="url(#e6b757ac-3913-4d37-8448-934e6b839f1c)"/></g><path d="M261.86,130.89s-.27,25-.8,32.9c-8.07,3.81-19.75,13.08-13.64,23.56-15.56-17.71,8.39-32.58,6.41-52.07-1.05-10.3-9.07-18-10.29-28.57a32.83,32.83,0,0,1,1.53-15c2.74,6.38,4.64,11.45,12.31,12.32C257.38,104,257.38,126.42,261.86,130.89Z" fill="#ad764d"/><g opacity="0.3" style="mix-blend-mode:color-burn"><path d="M261.86,130.89s-.27,25-.8,32.9c-8.07,3.81-19.75,13.08-13.64,23.56-15.56-17.71,8.39-32.58,6.41-52.07-1.05-10.3-9.07-18-10.29-28.57a32.83,32.83,0,0,1,1.53-15c2.74,6.38,4.64,11.45,12.31,12.32C257.38,104,257.38,126.42,261.86,130.89Z" fill="url(#a0b8a23d-bdaf-4e20-93dd-d24101b0b41a)"/></g><path d="M56.46,164.11c-8-2.7-16.69-3.88-23.12-9.42-2.71-2.33-18.81-15.72-18.83-5.92,0,6,15.46,14.94,20,17C38,167.39,63.07,176.24,56.46,164.11Z" fill="#ecc19c"/><g opacity="0.3" style="mix-blend-mode:color-burn"><path d="M56.46,164.11c-8-2.7-16.69-3.88-23.12-9.42-2.71-2.33-18.81-15.72-18.83-5.92,0,6,15.46,14.94,20,17C38,167.39,63.07,176.24,56.46,164.11Z" fill="url(#a3a0c07a-d885-40a8-b96b-ed5d20d46a4a)"/></g><path d="M56.46,164.11c-8-2.7-16.69-3.88-23.12-9.42-2.71-2.33-18.81-15.72-18.83-5.92,0,6,15.46,14.94,20,17C38,167.39,63.07,176.24,56.46,164.11Z" fill="url(#e33cfd14-dc27-48fd-8610-3e969b2e4a90)"/><path d="M7.13,148.23c-3.09-3.64-6.46-10.3,2-7.16,3.8,1.4,5.78,6.13,8.62,8.61a85.16,85.16,0,0,0,11,8.36c4.45,2.56,10.07,2.09,14.62,4.56,15.77,8.59-11.58,5-17,2.2C19.16,161.12,12.88,153.72,7.13,148.23Z" fill="#ecc19c"/><path d="M355.6,91.09c-4.54,8.9-8,25.28-17.8,30-9.61,4.61-12.29-9.94-17.42-15.57.27,1.7.6,3.39,1,5.07C316,100.93,316,73.83,329,68.9c6.53-2.47,14.79,3,20.86,5.59,0,0,.23-6.7,1.79-10.48C354.94,72.79,355.61,81.78,355.6,91.09Z" opacity="0.2" fill="url(#afbbc37c-725a-491a-90f2-79f48f66a9e4)" style="mix-blend-mode:multiply"/><path d="M7.13,148.23c-3.09-3.64-6.46-10.3,2-7.16,3.8,1.4,5.78,6.13,8.62,8.61a85.16,85.16,0,0,0,11,8.36c4.45,2.56,10.07,2.09,14.62,4.56,15.77,8.59-11.58,5-17,2.2C19.16,161.12,12.88,153.72,7.13,148.23Z" fill="url(#b0930714-67d0-4976-923e-c0c744792853)"/><path d="M355.6,91.09c-4.54,8.9-8,25.28-17.8,30-9.61,4.61-12.29-9.94-17.42-15.57.27,1.7.6,3.39,1,5.07C316.07,101,316,73.77,329,68.9c6.78-2.53,15.52,3.71,21.71,6.55,0,0-.62-7.66.94-11.44C354.94,72.79,355.61,81.78,355.6,91.09Z" opacity="0.2" fill="url(#af035cc3-eca8-43df-a3bf-ed6d86b4c8db)" style="mix-blend-mode:multiply"/><path d="M10.16,157.85C8.68,155.67,0,147,0,145.26c.13-9.68,15.62,3.71,17.64,7.89a50.08,50.08,0,0,1,7.68,4.61c3.87,2.54,4.74,2.88,9.48,3.78,3.79.72,16.52,7.27,9,12.42C37.33,178.37,15.64,161.37,10.16,157.85Z" fill="#ecc19c"/><g opacity="0.2" style="mix-blend-mode:color-burn"><path d="M10.16,157.85C8.68,155.67,0,147,0,145.26c.13-9.68,15.62,3.71,17.64,7.89a50.08,50.08,0,0,1,7.68,4.61c3.87,2.54,4.74,2.88,9.48,3.78,3.79.72,16.52,7.27,9,12.42C37.33,178.37,15.64,161.37,10.16,157.85Z" fill="url(#a949267a-9e34-40e6-98f2-83989592f87b)"/></g><path d="M10.16,157.85C8.68,155.67,0,147,0,145.26c.13-9.68,15.62,3.71,17.64,7.89a50.08,50.08,0,0,1,7.68,4.61c3.87,2.54,4.74,2.88,9.48,3.78,3.79.72,16.52,7.27,9,12.42C37.33,178.37,15.64,161.37,10.16,157.85Z" fill="url(#bdd8aff8-a383-47e8-950e-2358da0105ed)"/><path d="M253.89,193.49a17.68,17.68,0,0,1-6.45-6.12A55,55,0,0,0,253.89,193.49Z" fill="#ad764d"/><g opacity="0.36" style="mix-blend-mode:color-burn"><path d="M414.72,301.41c2.76,11.27-3,29.47-5.82,40.43-4.42,17.29-13.2,32.58-16.56,50.38-6.84,36.18.91,72.28,9.42,107.46,1.22,5.07,5.28,13.85,1.42,18.52-2.75,3.32-10,4.6-13.91,6a211.39,211.39,0,0,1-27,7.56A214.47,214.47,0,0,1,307.22,536a211.62,211.62,0,0,1-56.92-10.83C234,519.61,214,512.22,201.06,500.46c-9.62,0,1-52.76,1.29-57.86,1.25-25.09-.26-56.05-12-78.83v0c-4.92-9.58-5.84-19.83-7.38-30.35-1.74-11.93-3.82-23.79-5.19-35.79s-2.38-24-3.5-36c-1-11.21-3.4-23.08-2.32-34.35.7-7.29,2.68-14.69,4.53-21.76,2.08-8,2.09-10.93,9.35-12.88,13.94-3.75,28.15-6.49,42.08-10.29-5.77,11.53,8.43,28.5,16,36.51,13.94,14.76,34.57,23.37,54.76,24.3,13.26.6,34.21-2.09,42.2-14,10.81-16.17-2.14-34.16-12.55-46.18,16.58.27,33.17.86,49.71,2,12,.83,36.38-1.82,37.71,14,1.49,17.87-4.05,37.74-8.53,54.9-1.44,5.52-3.41,9.77-2.64,15.48C406,280.3,412,290.64,414.72,301.41Z" fill="url(#fa2d8000-e786-4d55-8e88-ec0fdcbc247d)"/></g><path d="M409.72,516c-64.78,30.67-143.23,26-203.79-12.35,4.79-8,13-9,19.38-15,5.85-5.42,8.51-13.06,9.38-20.81,2-17.59-4.63-34.11-10.31-50.34-3.07-8.78-23.45-68.57-11.75-71.14,2.81-.62,9.06,2.26,11.84,2.88,7.6,1.68,15.27,3.09,23,4,13.76,1.7,30.33,3.24,43.28-2.93,5-2.38,8.52-6.58,13.83-8.39,5.77-2,12.31-1.84,18.31-1.46,14.18.91,27.93,4.81,42,6.47,4.09.48,11.55,2,15.21-.93,3.81-3,3.33-9.76,4.26-14.18,4.81-23,11.59-45.72,12.82-69.32,5,46.11,9.45,93.32,5.2,139.65a175.61,175.61,0,0,1-4.9,29.8c-2.84,10.54-8.81,18.66-12.76,28.66C374.94,485.46,393,500.87,409.72,516Z" fill="#cccbcc" opacity="0.2" style="mix-blend-mode:multiply"/><path d="M384.29,324.76c-2.08-3.47-8.92-11.48-10.92-3.45-.52,2.09,2.13,4.95,1.95,5.52-.58,1.81-5.2-2.88-5.41-3.11-5.41-6-6.71-16.32-7.69-23.89-1.43-11.12-.11-23.69-6-33.75-4.24-7.21-11.84-11.39-18.52-16-17.35-12-15.35-35-11.08-53.06,3.5-14.88,3.56-31,3.7-46.22,14-10.58,20.14-32.25,25.11-48.51-.61,14.17-2.77,29.19.32,43.17,3,13.75,10.53,26.1,18.86,37.27,9.93,13.31,23.88,24.69,31.38,39.61,6.46,12.84,3.64,22.75,1.26,36.23,0,0,0,0,0,0-8.87.53-8.48,8.79-6.18,15.34,1.83,5.2,4.73,10,4.56,15.67-.16,4.93-3.14,8.81-3.6,13.65-.81,8.6,3.55,18.18,7.33,25.63.41.82,8,13.67,8.68,13-2.2,2.09-11.87-1.91-14.07-2.73C396.31,336.41,388.58,331.89,384.29,324.76Z" fill="#9b6642"/><g opacity="0.5" style="mix-blend-mode:color-burn"><path d="M384.29,324.76c-2.08-3.47-8.92-11.48-10.92-3.45-.53,2.09,2.13,4.95,1.95,5.51-.54,1.69-4.8-2.43-5.07-2.69-5.06-5.08-6.51-14.42-7.58-21.1-1.79-11.26-.33-23.67-5.14-34.28-3.29-7.26-9.4-11.51-15.76-15.9-9.31-6.42-14-11.18-16.74-22.61-3-12.79-.44-23.09,2-35.47,2.85-14.32,3.09-29.4,3.24-44,14.44-10.71,15.86-30.22,24.9-44.49-.64,15-2.52,30.3,2.08,44.86,4.19,13.31,12.2,25.15,20.75,36,9.76,12.4,22.91,23.23,29.26,37.94,5.12,11.89,2.14,21.26-.06,33.44a.08.08,0,0,0,0,.05c-8.88.52-8.49,8.78-6.19,15.33,1.83,5.2,4.74,10,4.56,15.67-.16,4.92-3.14,8.81-3.6,13.65-.81,8.6,3.55,18.17,7.33,25.63.41.82,8,13.67,8.69,13-2.21,2.09-11.88-1.91-14.08-2.72C396.31,336.41,388.58,331.89,384.29,324.76Z" fill="url(#a1e8bf28-94ce-4696-93c3-f9424de5a653)"/></g><path d="M86.62,165c-6.19.79-33.92.2-28.62-13.09C63.2,138.91,81.15,162.52,86.62,165Z" fill="#ecc19c"/><path d="M86.62,165c-6.19.79-33.92.2-28.62-13.09C63.2,138.91,81.15,162.52,86.62,165Z" opacity="0.38" fill="url(#f51594d0-dbf8-4b03-8316-5a73165b27fe)" style="mix-blend-mode:color-burn"/><path d="M86.62,165c-6.19.79-33.92.2-28.62-13.09C63.2,138.91,81.15,162.52,86.62,165Z" fill="url(#b775a695-aea2-474d-a26d-263a811dc553)"/><path d="M326.73,84.36c.18.3,14.2-1.77,16.93.3s1.95,5.44,6.16,5.53c3.85.08,6.27-3.92,6.15-7.36-.27-8.34-8.08-8.8-14.08-9.55-3-.37-6.69-2.6-9.73-1.53C328.15,73.16,324.29,80.46,326.73,84.36Z" opacity="0.5" fill="url(#aa0f8b66-0ab3-42e5-ac7e-9aabb12901c8)" style="mix-blend-mode:multiply"/><path d="M111.19,190.37c1,3.16-29.76,17.67-32.36,17.07-.37-8.64-20.55-19.68-27.35-22.84-10.46-4.86-22.61-3.15-31-11.19-2.94-2.83-19.74-20.69-7.68-20,5.67.31,9.33,11.52,14.82,14,1.24.55,12.79,1.41,12.79,1.85-.06-13.11,33-4.25,39.72-4,8,.26,12.93-.4,19.74,4.76,3.17,2.4,9,5.74,10.52,9.48C111.83,183,110,186.57,111.19,190.37Z" fill="#ecc19c"/><path d="M553.29,173.16c2.1-1.66,7.08-5.37,7-8.4-.25-6.51-7.35-3.93-10.72-1.51C540.59,169.7,543.12,176.24,553.29,173.16Z" fill="#ecc19c"/><path d="M553.29,173.16c2.1-1.66,7.08-5.37,7-8.4-.25-6.51-7.35-3.93-10.72-1.51C540.59,169.7,543.12,176.24,553.29,173.16Z" opacity="0.43" fill="url(#e9edfe3b-a47a-49ba-8d60-7b065498ae4b)" style="mix-blend-mode:color-burn"/><path d="M553.29,173.16c2.1-1.66,7.08-5.37,7-8.4-.25-6.51-7.35-3.93-10.72-1.51C540.59,169.7,543.12,176.24,553.29,173.16Z" fill="url(#f158b556-fabc-4f52-9af3-413b9f22fbf0)"/><path d="M111.19,190.37c1,3.17-29.76,17.67-32.36,17.07-.37-8.64-20.54-19.68-27.35-22.84-10.46-4.87-22.6-3.15-31-11.19-2.94-2.83-19.74-20.69-7.68-20,5.67.31,9.32,11.52,14.82,14,1.24.55,12.78,1.4,12.79,1.85-.07-13.41,35.45-3.95,42.54-4,8.5-.06,12.64,1.37,19.39,6.84,2.56,2.06,6.83,4.25,8.06,7.36C111.83,183,110,186.57,111.19,190.37Z" fill="url(#b71598cb-3dca-4b7c-a6d6-e82dcef57980)"/><path d="M560.09,180.58c-.1,1-.22,1.75-.22,1.75-7,4.55-13,8.18-20.84,11.08-14.77,5.47-31.46,11.44-34.52,28.92-4.36,24.9.21,52.78.77,77.87.21,9.84.93,20.22-1,29.94C501.55,344.28,497,358,495,372.32c-1.47,10-1,25.88-14.37,26.54-6.21.31-15.39-.5-20.95-3.35-7.21-3.69-9.54-12.06-15.55-17.31,0,0,0,0,0,0-6.77-6.11,6-17.72,8.88-24.33,4.95-11.48,3.72-24.67,6.66-36.91,3.08-12.79,7.73-25.19,9.69-38.24,1.88-12.5,2.67-25.19,3.42-37.8.58-9.6-.49-20.79,2.16-30.06,3.58-12.54,14.84-27.91,27.51-32.29,11.69-4,24.95-3.73,36.91-6.84C548.67,169.26,561.52,166.76,560.09,180.58Z" fill="#ecc19c"/><g opacity="0.3" style="mix-blend-mode:multiply"><path d="M560.09,180.58c-.1,1-.22,1.75-.22,1.75-7,4.55-13,8.18-20.84,11.08-14.77,5.47-31.46,11.44-34.52,28.92-4.36,24.9.21,52.78.77,77.87.21,9.84.93,20.22-1,29.94C501.55,344.28,497,358,495,372.32c-1.47,10-1,25.88-14.37,26.54-6.21.31-15.39-.5-20.95-3.35-7.21-3.69-9.54-12.06-15.55-17.31,0,0,0,0,0,0-6.75-6.09,6.07-17.81,8.88-24.33,4.63-10.75,3.45-22.73,6-34.17,3-13.24,7.9-26,10.09-39.42,2.34-14.28,3.09-28.9,3.9-43.33.54-9.53-.56-20.15,3.11-29.11,5-12.25,14.84-26,28.18-29.74,11.42-3.16,23.6-3.39,35.06-6.37C548.64,169.27,561.51,166.86,560.09,180.58Z" fill="url(#ae9f9d33-2c87-4d1a-8a92-1f2565c6dc6e)"/></g><path d="M460.26,314.24c-3.16,12.31-1.88,26.21-6.58,37.79-2.73,6.7-16.26,20.21-9.77,26-7.19-5.32-14.43-10.13-18.79-18.11-5-9.1.38-15.19,7.19-22a188.23,188.23,0,0,1,14.35-12.41C449.29,323.35,459.4,317.66,460.26,314.24Z" fill="#a17a94"/><g opacity="0.5" style="mix-blend-mode:color-burn"><path d="M460.26,314.24c-3.16,12.31-1.88,26.21-6.58,37.79-2.73,6.7-16.26,20.21-9.77,26-7.19-5.32-14.43-10.13-18.79-18.11-5-9.1.38-15.19,7.19-22a188.23,188.23,0,0,1,14.35-12.41C449.29,323.35,459.4,317.66,460.26,314.24Z" fill="url(#a4695906-d591-459e-8d78-74a2a68bb32f)"/></g><path d="M579.55,177.66c0-4.75,35.32-12,26.14-20.46-3.61-3.35-12.68,1.71-15.74,3.72C584.2,164.71,579.55,170.47,579.55,177.66Z" fill="#ecc19c"/><path d="M579.55,177.66c0-4.75,35.32-12,26.14-20.46-3.61-3.35-12.68,1.71-15.74,3.72C584.2,164.71,579.55,170.47,579.55,177.66Z" opacity="0.47" fill="url(#aff5f203-1d5a-455a-b549-d4972b21b019)" style="mix-blend-mode:color-burn"/><path d="M555.07,185c6.43,0,19.56-3.38,24.83-7,4.92-3.42,22.24-23.47,21.24-29.29-2.47-14.35-23,17.63-25.51,19.92C572.66,171.36,552.1,180,555.07,185Z" fill="#ecc19c"/><path d="M555.07,185c6.43,0,19.56-3.38,24.83-7,4.92-3.42,22.24-23.47,21.24-29.29-2.47-14.35-23,17.63-25.51,19.92C572.66,171.36,552.1,180,555.07,185Z" fill="url(#f9ded383-6f39-439c-a995-8b536b7ddb6e)"/><path d="M555.07,185c6.43,0,19.56-3.38,24.83-7,4.92-3.42,22.24-23.47,21.24-29.29-2.47-14.35-23,17.63-25.51,19.92C572.66,171.36,552.1,180,555.07,185Z" opacity="0.5" fill="url(#ab25c873-e3fc-4038-b623-8fb1dce7342b)" style="mix-blend-mode:color-burn"/><path d="M562.17,178.79c12.5.48,18.57-10.66,26.18-19.27,2.84-3.22,6-8.07-.09-10.07-5.65-1.86-11.66,8.06-13.51,12.17-2.8,2-6.13,4.1-8.34,6.78C565.91,169,560.93,178.76,562.17,178.79Z" fill="#ecc19c"/><path d="M560.09,180.58c-.1,1-.22,1.75-.22,1.75-7,4.55-13,8.18-20.84,11.08-14.77,5.47-31.46,11.44-34.52,28.92-4.36,24.9.21,52.78.77,77.87.21,9.84.93,20.22-1,29.94C501.55,344.28,497,358,495,372.32c-1.47,10-1,25.88-14.37,26.54-6.21.31-15.39-.5-20.95-3.35-7.21-3.69-9.54-12.06-15.55-17.31,0,0,0,0,0,0-6.74-6.08,4.49-14.88,7.39-21,1,6.1-7.06,10.14-5,16.47,2.4,7.44,13.61,9.12,20,10,4.57.63,9.19,3.52,13.57,3.27,4-.23,11.11-5.12,5.5-8.84,1-34.46,7-68.32,8.86-102.74.89-16.38,2.79-33.42-1.22-49.49-3.21-12.85,3.24-17,9.81-26.81,7.76-11.65,12.5-15.88,26.22-19.59C534.24,178.9,551.88,181,560.09,180.58Z" opacity="0.4" fill="url(#b436b524-7016-47e3-8b95-7482a9f13e1e)"/><path d="M496.93,206.46c.73-.9,1.55-1.83,2.45-2.8C498.6,204.58,497.77,205.52,496.93,206.46Z" opacity="0.4" fill="url(#bbe32198-ed07-4c62-8f88-ef444ebeb30f)"/><path d="M569.71,167.39c-2.13,8.52-6.66,17.45-14.75,21.76-6.45,3.44-16.55.74-23.72,0-3.72-7.31-.74-12.12,7.54-11.52,5.59.4,7.36,3.27,12.56,1.39,4.14-1.5,6.41-3.16,8.64-6.53,1.23-1.86,1.68-6.15,4-7.21C565,164.85,570.37,165,569.71,167.39Z" fill="#e4b69d"/><path d="M416.32,203.23c.12-5,.48-11.95-5.15-14,16.17,4.59,24.79,27.91,29.89,41.66-2.08,2.37-9.11,11.05-12.91,10.25,2.45.52.5-17.59-.29-19.67C425.28,214.7,420.36,209.14,416.32,203.23Z" fill="url(#f42f2954-5547-49be-8ad2-aaeeea069bae)"/><path d="M422.32,293.5c-9.07-.38,9.64-10.63,9.48-12.59,0-.36-12.78,3.12-14.22-.44C415.76,276,431,271.06,431.82,265c.46-3.38-5.65-15.28,3.4-13.43,9.55,1.95,4.16,16.78,17.22,14.35.86,3.78,1.52,6.53-.3,9.75-1,1.77-5.32.57-4.69,3.88C439.5,283.4,427.81,293.7,422.32,293.5Z" fill="url(#e474611f-efde-4cdd-9b8e-0f771ee888f1)"/><path d="M458.15,292.34C450.34,297.19,443.56,304,436.7,310c-.81.71-14.3,11.86-14.38,11.61-1.52-4.72,9.06-11.35,10.45-15,0,0-4.63-.82-5.07-1.63-1.31-2.47,3.18-7.25,4.4-8.67,5.13-6,12.27-7.67,18.91-11.64C454.36,287.36,457.09,287.9,458.15,292.34Z" opacity="0.6" fill="url(#fe9b99ae-3fe1-4265-aee8-fb80ca2486e0)"/><path d="M311.06,65.09c3.55,3.93,6,14.44-1.39,15.48-6,.84-7.9-8.72-12.72-11.12-4.47-2.23-10.93.85-9.25-5.36C290,55.47,307.39,61,311.06,65.09Z" opacity="0.4" fill="url(#ada05952-0420-4e96-bc63-4a51fac2ebb6)"/><path d="M332.58,73.57c-.77,1.33-4.83,2-6.35,3.17a15,15,0,0,0-5.69,9c-1.18,5.25-.7,13.18-.24,18.62.5,5.74,3.3,9.22-1.55,11.29-1.47.63-11.13-.41-11.77-3-.78-3.14,7.38-1.63,9.47-4.51,2.71-3.73.53-16,1.33-21,.87-5.33,2.35-12.14,6.89-15.7,1.42-1.11,4.18-3.34,6.09-2.23C330.72,69.13,332.73,73.32,332.58,73.57Z" opacity="0.5" fill="url(#fd7815d4-b7b8-4ce8-b25f-f0b33459d53d)"/><path d="M320.43,130.86c-2,9.94-23,1.92-26.65-2h0c-7.06-7.59,6.9-5,9.68-2.23C304.54,126.93,320.63,129.91,320.43,130.86Z" fill="#ab6d56"/><path d="M310.52,133.34c-5.29.57-12.12-2.23-16.74-4.47h0c-.72-.77-3.49-3.59-2.17-4.77,0,.88,4.44,2.25,5.22,2.47l-.54,0c3.56,1.26,7.48,2.15,10.93,3.51C307.38,130.17,315.32,132.78,310.52,133.34Z" opacity="0.2" fill="url(#a966b302-c8cd-426e-b07e-21ce8aae438f)"/><path d="M307.66,127.74c-.88-.2-16.06-.26-16.06-3.65,0-.63,11.34,2,11.85,2.54C304.85,127,306.25,127.39,307.66,127.74Z" fill="#ab6d56"/><path d="M320.43,130.86c-1.85,10-23.13,1.77-26.65-2,3.25,1.58,13.76,6.5,17.21,4.21,2.69-1.78-12.27-5.62-14.71-6.49C297.45,126.81,320.84,128.85,320.43,130.86Z" fill="#ab6d56"/><path d="M298.76,75.71c-.34,4.75-7.69,4.22-7.36-.52S299.1,71,298.76,75.71Z" fill="#4f4f4d"/><path d="M296.65,74.57c-.25,3.55-3-.21-2.92-.21S296.91,71,296.65,74.57Z" fill="#0f1110"/><path d="M302.34,78.87a11.14,11.14,0,0,0-6.19-6.09c-3.81-1.68-11.6,1.07-14.2-2,1.65,1.92,9.66-1,12.19-.44C298.56,71.42,302,74,302.34,78.87Z" fill="#704a37"/><path d="M285.87,73.1c3.29,7.08,9.42,4,14.78,6.46-1.83-.85-7.63.26-10.78-1.38-.56-.29-6.4-5-5.65-5.2A3.29,3.29,0,0,1,285.87,73.1Z" fill="#b08874"/><path d="M310.17,65.1c-2.81,2-11.86-2-15.44-2.53-6-.85-9.59-.32-15.29,2.37,4-7.52,11.27-7.48,18.45-6.27,2.9.49,10.15.66,12.42,2.43C314.66,64.5,309.77,61.71,310.17,65.1Z" fill="#8c6239"/><path d="M331.09,70.74c.25,1,26.29,12.53,22.89,15.2,4.62-3.63-7.21-13.45-8.86-14.3-2.3-1.18-7.92-4.22-10.47-4.28C328.58,67.2,334.1,68.05,331.09,70.74Z" fill="#8c6239"/><path d="M340.21,87.89c-.58,5-7.9,4.11-7.32-.85S340.79,82.93,340.21,87.89Z" fill="#4f4f4d"/><path d="M338.17,86.6c-.44,3.73-3-.35-2.91-.34S338.6,82.87,338.17,86.6Z" fill="#0f1110"/><path d="M326.81,85.27s10.65-.48,11.65-.09c1.55.61,9.13,9.75,11.12,6.37-4.22.11-5.2-4.92-8.59-6.81C336.21,82.06,331.65,84.41,326.81,85.27Z" fill="#704a37"/><path d="M330.54,88.11c2.26,1.15,13.14,5.84,14.11,5.15C340.58,96.17,333.49,89.61,330.54,88.11Z" fill="#b08874"/><g opacity="0.4" style="mix-blend-mode:color-burn"><path d="M303.17,80.83c4.92,2.35,2.62,5,6.77,2.44,3.87-2.4,5.17-9.88,3.26-13.78C311.07,65.13,297,60,295,62.85c-2.22,3.14,6.89,4.77-3.37,5.74-1.51.14-11.61-2.39-9,2.73C285.69,77.48,301.75,67.06,303.17,80.83Z" fill="url(#b8319f47-4a96-451c-8ad0-06beb5e0db0d)"/></g><path d="M105.13,174.23c-3.51-.68-20.42-4.79-20.75,2.49-.11,2.36,4.88,3.7,3.56,6.55-.83,1.78-7.59.75-8.62.68-7.86-.55-19.39-1.31-24.94-7.62-1.88-2.12-1.84-4.6-3.34-6.68-1.62-2.24-4.37-2.69-5.55-5.46,11.88-3.28,19.66-.26,31.43.78,4,.36,8.18-.49,12.13-.09C95.93,165.59,99.85,170.34,105.13,174.23Z" opacity="0.8" fill="url(#eb1b74c8-7314-4197-b62c-f224ab76451c)"/><path d="M89.84,397.35c-9.92-7.68-11.11-24.28-12.71-35.66A212.55,212.55,0,0,1,76.05,311c2.84-29.17,8-59.3,4.42-88.6,4-8.7-.18-12.15-1.84-20.11-2.06-9.84,4-5.13,7.18.54,5.18,9.33,6.26,19.44,6.53,29.84.54,20.83,1.21,41.82.3,62.65-.76,17.24-2.24,34.28-2,51.6.11,9.12-.08,18.7,1.79,27.67C92.76,376.33,97.21,403,89.84,397.35Z" fill="url(#b55024f1-f953-4696-85c9-1731c928baca)"/><path d="M558.94,171.92c-9.06,7.1-19.52,4.8-29.76,7.52-6,1.63-12,2.67-16.9,6.75-5.5,4.61-7.88,11.29-12.3,16.76-4.88,6-18.17,23.22-25.84,10.41,3.89-19.58,20.18-33.49,38.76-36.84,8.39-1.51,17.17-2.36,25.41-4.54C543.24,170.68,554.88,166.58,558.94,171.92Z" fill="url(#a10dfd93-d21d-4cb1-9b48-5990b6fffada)"/><path d="M477,294.85c1,17.13.69,35.74-4.09,52.37-1.2,4.21-2.46,8.2-5.83,11.08s-11,6.44-12.95.48c4.85-11.61,4.34-22.11,6.08-34.4s5.05-24.36,7.57-36.56c4.86-23.63,5.12-48.47,6.14-72.5,1.06,4.59,3.4,7.45,4.05,12.08.74,5.26-.08,11.08-.29,16.36C477,260.77,476.07,277.83,477,294.85Z" fill="url(#b4fc2f7c-3696-4e87-b7b9-563771dab12e)"/><path d="M568.82,166.18c-10-1-6.44,18.34-19.38,16.75-5.72-.7-8.67-5.67-14.81-2.75-3.65,1.74-2.73,3-4.41,5.62,0,0-1.29-3.36-.83-4.3,1.36-2.78,3.28-3.13,6.38-3.59,5.21-.78,9.5,3.11,14,2.18,2.79-.59,7.62-3.72,9.52-6C561.64,171.18,563,160.86,568.82,166.18Z" fill="url(#a70ff6d2-4423-4ae3-a70c-25fc1c657a93)"/><path d="M317.38,131.57c-6.09-1.36-10.89-3.25-17.09-4.26-1.83-.3-8.21-1.36-9-3.44,2.62-2.62,10.42-3.87,13.56-1.12h0c3.88,3.39,3.58.07,7.06,1C315.22,124.72,324.9,133.26,317.38,131.57Z" fill="#b1735a"/><path d="M299.09,108c0-1,4.84-8,3.81-8.14C300.54,99.6,298.14,106.28,299.09,108Z" fill="url(#a27a8ce0-7a7d-493d-a03a-70f73bf6b6b0)"/><path d="M300.18,104.6c-3.95,4.88,7.26,10.15,11,10.69,1.44.21,9.85-.12,10.09-.4,2.42-2.86-3.57-8.72-1.91-10.67-2.49,2.92-1.55,8-7.73,6.4-2.61-.65-2.32-3-4.14-4S301.71,106.11,300.18,104.6Z" opacity="0.37" fill="url(#b9dbcddf-f114-47fc-98fa-6f16b861a9a9)"/><path d="M299.61,108.87c-.09-.12,6.39,2.57,6.85,2.79,2.26,1.09,2.89,2.08,5.7,2.72,1,.21,10.9,1.76,9.16-.76s-3.46-1-5.49-1.44a71.48,71.48,0,0,1-7.16-2C309.18,110.4,297.32,105.86,299.61,108.87Z" opacity="0.59" fill="url(#b51c9fe2-8671-48fb-a3b9-5c4bacad6b44)"/><g opacity="0.5"><path d="M314.05,114.47c.54-.09,1.06-.26,1.6-.38a12.8,12.8,0,0,1,1.64-.3A3.15,3.15,0,0,1,319,114a1.18,1.18,0,0,1,.6.73,1.79,1.79,0,0,1,0,.46c0,.14-.07.28-.12.41h0c0-.57-.2-1-.66-1.17a4.52,4.52,0,0,0-1.51-.22c-1.08,0-2.15.27-3.26.35Z" fill="#6b5146"/></g><g opacity="0.5"><path d="M306,111.3c-1-.55-1.82-1.24-2.78-1.73a4.21,4.21,0,0,0-1.45-.46c-.48-.09-.84.26-1.1.77h0c0-.14,0-.28.08-.43a1.93,1.93,0,0,1,.21-.4,1.19,1.19,0,0,1,.86-.39,3,3,0,0,1,1.63.6,11.92,11.92,0,0,1,1.35,1c.43.34.83.72,1.27,1Z" fill="#6b5146"/></g><path d="M307.26,114.35c-1.11,2.63-3.68,15.07,3.6,9.74C314.49,121.43,311.59,114.5,307.26,114.35Z" opacity="0.5" fill="url(#b8dba9cf-5298-4583-8a1f-590bb7831990)"/><g opacity="0.5"><path d="M311.24,123.88a15.2,15.2,0,0,1-1.94.85,5.27,5.27,0,0,1-2.08.39,1.69,1.69,0,0,1-1.58-1.31,5.67,5.67,0,0,1-.09-2.13,33.46,33.46,0,0,1,.89-4.14c.17-.68.34-1.36.46-2.05a4.33,4.33,0,0,0,.09-1,1.14,1.14,0,0,0-.13-.46,2,2,0,0,0-.22-.44,8.69,8.69,0,0,0-3.09-2.66,28.47,28.47,0,0,1-3.57-2.3,3,3,0,0,1-1.13-1.9,2.85,2.85,0,0,1,.75-2.06,13.25,13.25,0,0,1,3.29-2.68l0,0a15.24,15.24,0,0,0-3.05,2.83,2.19,2.19,0,0,0,.42,3.42,28.47,28.47,0,0,0,3.51,2.26A9,9,0,0,1,307,113.4a2.55,2.55,0,0,1,.24.5,1.71,1.71,0,0,1,.14.56,4.8,4.8,0,0,1-.11,1.09c-.13.7-.32,1.38-.5,2.06a32.71,32.71,0,0,0-1,4.09,5.28,5.28,0,0,0,0,2.06,1.51,1.51,0,0,0,1.41,1.22,5.33,5.33,0,0,0,2-.33,16.53,16.53,0,0,0,1.94-.81Z" fill="url(#e706411c-011d-421d-b896-612d6a64df0a)"/></g><path d="M314.4,73.34A100.11,100.11,0,0,1,312.6,87c-.43,2.25-.88,4.51-1.48,6.73s-1.24,4.43-2,6.6l-.07,0c.39-2.27.92-4.5,1.41-6.74l1.61-6.69a112.83,112.83,0,0,0,2.27-13.56Z" fill="url(#be5435de-4fcf-4aed-9064-c23ed71d1db1)"/><path d="M303.36,76.78a16.15,16.15,0,0,0-3.45-4.53A11.62,11.62,0,0,0,295,69.63a13.13,13.13,0,0,0-5.55-.17,19.46,19.46,0,0,0-5.4,1.87,14.09,14.09,0,0,1,5.25-2.58,12.18,12.18,0,0,1,5.94,0,11,11,0,0,1,5.13,3A12.5,12.5,0,0,1,303.36,76.78Z" fill="url(#a301fcaf-59f6-4860-9ae0-8acf19930523)"/><path d="M358.44,88.59C354.07,115.67,340.78,159.26,307,160c-3.84.08-19.22-3.26-20-7.62-1-5.19,17.66,1.72,21.7-.43,2-1,5.55-4.66,5.06-7.29-.64-3.51-3.45-3-6.52-4.13-3.65-1.35-9.07-2.05-12.21-4.18-.46-.31-5.92-6.8-3.34-7,7.14-.46,14.88,7.77,22.66,5.85,12.49-3.1,1.85-8.68-2-12.19-3.17-2.92-8.67-6.75-2.9-8.93,1.95-.74,9.57,2.93,11.06,1.81,2.91-2.15.2-7.61-.1-10.39,6.95,7.64,10,24.58,22,11.84,7.47-8,11-22,16-31.67C358.41,86.66,358.44,87.63,358.44,88.59Z" opacity="0.3" fill="url(#b75e8477-a26b-4842-b8f6-0d5db540380f)" style="mix-blend-mode:multiply"/><path d="M358.44,88.59C354.07,115.67,340.78,159.26,307,160c-3.27.07-19.2-3.26-20.12-7-1.72-7,15.53.78,19.37-.18,2.93-.73,6.18-3.1,7-6.16,1.43-5.19-.53-3.79-4.29-5.52-1.81-.83-23.66-5.22-18.13-11.71,1.39-1.63,18.44,6.86,22.3,6.34,11.49-1.53,4.92-8.08.34-12.19-3.17-2.85-10.23-7.14-4-9.47,1.71-.65,9.69,2.84,11.06,1.81,2.91-2.15.2-7.61-.1-10.39,6.95,7.64,10,24.58,22,11.84,7.47-8,11-22,16-31.67C358.41,86.66,358.44,87.63,358.44,88.59Z" opacity="0.1" fill="url(#fd85c68e-77d6-45ad-a9b2-1c14781aaaa4)" style="mix-blend-mode:multiply"/><g opacity="0.2" style="mix-blend-mode:multiply"><path d="M326.73,89.49a54.73,54.73,0,0,0,5.82,3.33,30.64,30.64,0,0,0,3.05,1.34c1,.42,2.1.73,3.19,1.1a12.69,12.69,0,0,1-3.41-.41,16.07,16.07,0,0,1-3.23-1.2,18.09,18.09,0,0,1-2.94-1.8A13.53,13.53,0,0,1,326.73,89.49Z" fill="url(#b2de03ec-bed4-40b3-9bf4-9a128dfab0cf)"/></g><g opacity="0.26" style="mix-blend-mode:multiply"><path d="M251.79,74.87c0-1.15,0-2.31-.09-3.46a19.16,19.16,0,0,0-.42-3.39,3.38,3.38,0,0,0-1.77-2.57,2.73,2.73,0,0,0-1.57.12,2.81,2.81,0,0,0-.75.33l-.34.21-.29.28A6.71,6.71,0,0,0,245,69.32a21,21,0,0,0-.62,3.36c-.26,2.28-.28,4.59-.39,6.9a61.62,61.62,0,0,1,0-6.93,17.63,17.63,0,0,1,.57-3.45,7.09,7.09,0,0,1,1.61-3.14l.33-.31.4-.24a3.28,3.28,0,0,1,.84-.36,3.21,3.21,0,0,1,1.82-.1A2.61,2.61,0,0,1,251,66.26a4.65,4.65,0,0,1,.38.82c.08.28.16.57.23.86A28.23,28.23,0,0,1,251.79,74.87Z" fill="url(#f486b73d-cc5a-45a9-98d9-b621da8753c8)"/></g><g opacity="0.2" style="mix-blend-mode:multiply"><path d="M300.22,82.69a15.34,15.34,0,0,1-7.4-.24A16.57,16.57,0,0,1,286.26,79,30.87,30.87,0,0,0,293,81.79,26.37,26.37,0,0,0,300.22,82.69Z" fill="url(#ede0edba-e0c1-42f8-b5bf-5773d492ada2)"/></g><path d="M325.11,202.13c-1.5,3.87-2.05,9-1.89,14.5-2.2-3.42-3.81-7.36-6.08-10.65s-3.59-2.54-6.15-4.13c-8.24-5.08-4-16.51-4.89-25.6-1-10.93-7.41-11.67-15.49-16.86-9.46-6.09-16.54-13.87-23.12-22.9,10.65,8.52,17.35,17.35,30.65,21.4,11.63,3.54,22.21.37,32.16-7.07C330.29,151.78,330,189.57,325.11,202.13Z" opacity="0.9" fill="url(#f284f4ad-fcae-4d36-9765-70f852d00f63)" style="mix-blend-mode:multiply"/><path d="M309.88,105.53c.12,1.48,2.16,2.61,2.12,3.69-1.28-.21-6.44-4.32-6.07-4.62C307,103.81,309.76,104,309.88,105.53Z" opacity="0.31" fill="url(#f0676339-fb7b-4952-8f34-4a090c400848)"/><path d="M296.29,131a24.64,24.64,0,0,0,5.59,2.58,25.75,25.75,0,0,0,6,1.21,22.75,22.75,0,0,0,6.06-.4,15.61,15.61,0,0,0,5.61-2.3l.05,0a12,12,0,0,1-5.51,2.92,17.83,17.83,0,0,1-6.26.28,25.31,25.31,0,0,1-11.59-4.29Z" fill="#935f51"/><path d="M319.88,131.79c-5.75,7-20.85,2.68-26.1-2.92,3.25,1.58,13.76,6.5,17.21,4.21,2.69-1.78-12.27-5.62-14.71-6.49,4,.57,8.72.54,12.54,1.59C312.47,129.18,315.85,132.34,319.88,131.79Z" fill="url(#b06817a4-80e5-44b0-88a8-f8b043a2cc6b)"/><path d="M311.64,123.85c.52,5-9.31,3.68-7-1.29a1.43,1.43,0,0,1,.24.19h0c3.64,3.18,2.95,1,6.74,1A.13.13,0,0,1,311.64,123.85Z" fill="#b1735a" opacity="0.2" style="mix-blend-mode:multiply"/><path d="M317.38,131.57c-6.09-1.35-10.89-3.25-17.09-4.26a20.41,20.41,0,0,1-9-3.36c1.69,2.53,11.71,2.16,14,2.26,1.91,1.46,6.66.88,6.32-2.36a.21.21,0,0,0,0-.06C316,123.79,324.43,133.15,317.38,131.57Z" opacity="0.46" fill="url(#fe68ac93-361e-4392-902d-9a477ca9472a)" style="mix-blend-mode:multiply"/><path d="M290.54,123.8c-.69-.1-1.05.13-1.08.68.93,3.11,32.77,6.43,32.33,8.16C321.91,132.17,292.77,123.93,290.54,123.8Z" fill="#814735"/><path d="M301.81,121.38a31.93,31.93,0,0,0-5.27.27,21.68,21.68,0,0,0-2.54.56,5.55,5.55,0,0,0-2.3,1.12l0,0a4.18,4.18,0,0,1,2.2-1.53,11.48,11.48,0,0,1,2.64-.49,27.7,27.7,0,0,1,5.31,0Z" fill="url(#afe421f0-7234-4ada-9254-f1e305f9a8fc)"/><g opacity="0.55"><path d="M290.51,124.6a13.61,13.61,0,0,1,2.92,2.75c.86,1,1.64,2.11,2.52,3.09a11.6,11.6,0,0,0,2.93,2.58,8.75,8.75,0,0,0,3.76,1.12,7.59,7.59,0,0,1-3.93-.81,10.91,10.91,0,0,1-3.11-2.58C293.85,128.69,292.52,126.37,290.51,124.6Z" fill="url(#b13103b3-459c-49e9-868e-4717c300ccc8)"/></g><path d="M319,132.55a7,7,0,0,1-5.78,3.37,17,17,0,0,1-3.43-.27c-1.13-.2-2.23-.44-3.35-.68,2.28.1,4.53.62,6.76.49a7.46,7.46,0,0,0,3.18-.82A9.37,9.37,0,0,0,319,132.55Z" fill="#cf9e76"/><g opacity="0.12" style="mix-blend-mode:multiply"><path d="M242.15,373.16c-2,3.16-7.15,2.85-10.19,4.28a19.56,19.56,0,0,0-9,9.06,83.86,83.86,0,0,0-3.13,7.88L210.43,418c-4.31-7-3.93-20.18-6.6-28.41a188.44,188.44,0,0,0-10.94-26.18c-3.94-7.88-7.6-13.32-8.89-22-1.47-9.91-3.05-19.81-4.45-29.73-4.82-33.86-11.49-70.5-3.63-104.08L178.38,241c.53,7.22.42,14.79,2.78,21.69,2.93,8.54,9.18,15.64,11.55,24.41,2.55,9.42-.92,18.33-1.28,27.74s2.76,18.63,7.33,26.77a55.26,55.26,0,0,0,19.39,20.46C225.08,366.25,237.06,366.68,242.15,373.16Z" fill="url(#a831b775-fb85-4f0b-aa88-89630a8f512e)"/></g><g opacity="0.2" style="mix-blend-mode:multiply"><path d="M352.09,118.41A88.74,88.74,0,0,0,350.81,132a55.12,55.12,0,0,0,1.47,13.34,57.21,57.21,0,0,0,4.66,12.5l1.57,3,1.7,2.91,3.71,5.77A85.93,85.93,0,0,1,370.34,182a59.86,59.86,0,0,1,3.74,13.58,59,59,0,0,1,.59,7,49.12,49.12,0,0,1-.5,7c-.63,4.59-1.53,9-1.46,13.66-.9-4.55-.47-9.27-.34-13.81a48.56,48.56,0,0,0-.12-6.73,62,62,0,0,0-5.13-19.38,88.61,88.61,0,0,0-6.33-11.89l-3.66-5.85-1.74-3.06q-.81-1.56-1.59-3.15A53.71,53.71,0,0,1,349.47,146a50,50,0,0,1-.46-14A63.17,63.17,0,0,1,352.09,118.41Z" fill="url(#bca920d8-7bea-4892-a4d5-e0d0e7a9dd60)"/></g><g opacity="0.11" style="mix-blend-mode:multiply"><path d="M344.35,130.89c-1.42,10.78-3.35,21.51-3.36,32.2a56.68,56.68,0,0,0,2,15.64l.55,1.87.7,1.81a27.85,27.85,0,0,0,1.59,3.52,65.31,65.31,0,0,0,4.13,6.78c2.94,4.47,6.23,8.8,9.24,13.41a59.2,59.2,0,0,1,7.29,15,95.82,95.82,0,0,1,3,16.2c.58,5.43.92,10.85,1.12,16.29-1-5.35-1.84-10.72-2.91-16-.51-2.65-1.07-5.29-1.73-7.89s-1.34-5.22-2.25-7.68a61.27,61.27,0,0,0-7.46-13.94c-3-4.42-6.31-8.73-9.4-13.29a69.74,69.74,0,0,1-4.25-7.17,30,30,0,0,1-1.72-3.9l-.74-2-.55-2.05A55,55,0,0,1,338.12,163C338.69,152,341.44,141.35,344.35,130.89Z" fill="url(#e4651636-9382-42cc-8997-596816d8ddec)"/></g><path d="M233.72,227.11a37.56,37.56,0,0,1-16.61-2.1c-4.31-1.48-10.93-5.64-15.46-2.33-8.6,6.3,4,25.16-1.21,33-3.6,5.45-5-.34-6.63-4-2.3-5.17-5.53-9.51-8.33-14.4a35.53,35.53,0,0,1-4.89-17.23c-.12-2.95.91-6.46.52-9.26-.55-4-1.17-3.57-3.73-6.79.19-.75,2.27-10.77,4.49-10.54,8.38-1.82,16.69-4,25-6,5.47-1.34,13.82-5.12,19.49-4.49-.15,1.62-4.06,20.44,1,20.44-3.56.15-5.84-3.71-9.45-1.19-3.32,2.32-2,7.36-.52,10.24C219.56,216.82,234.71,223.31,233.72,227.11Z" fill="url(#b6e38f5d-0be8-4398-83c4-09ee9f8c0342)"/></g></g></g></g></svg>