<svg xmlns="http://www.w3.org/2000/svg" width="1055.48" height="173.31" viewBox="0 0 1055.48 173.31"><title>blend-lines</title><g id="bf6d4620-002e-48b6-87a3-64297c38c133" data-name="Layer 2"><g id="a091138a-1223-47bc-b157-570944925f41" data-name="BG"><g opacity="0.6"><path d="M982.5,173c-.14-.17-14.56-16.64-32.25-34.23-29.56-29.39-45.38-39.24-53.44-42.32a102.44,102.44,0,0,0-32.73-6.68A138.9,138.9,0,0,0,831,92.57c-22.18,4.34-44.17,12.77-67.44,21.7-30,11.5-61,23.4-92.7,25.88-10.48.83-23.49-2.32-38.55-6s-32-7.75-48.85-8.17c-.49,0-1,0-1.5,0-17.53,0-44.5,7.22-68.39,13.61-15.47,4.15-30.08,8.06-40.79,9.71-9.65,1.49-24.82,1.27-40.89,1.05s-34.07-.48-49.36.93c-17.47,1.61-28.77,5.16-34.55,10.85a14.67,14.67,0,0,0-4.54,10.79h-.21a14.91,14.91,0,0,1,4.6-10.94c5.81-5.72,17.16-9.3,34.68-10.91,15.3-1.41,33.41-1.16,49.39-.93s31.22.44,40.85-1.05c10.7-1.65,25.3-5.56,40.77-9.7,23.89-6.39,50.89-13.62,68.44-13.62.51,0,1,0,1.5,0,16.91.42,33.9,4.54,48.9,8.17s28,6.79,38.49,6c31.64-2.49,62.65-14.38,92.63-25.88,23.29-8.93,45.28-17.36,67.48-21.71a139.83,139.83,0,0,1,33.11-2.8,102.61,102.61,0,0,1,32.8,6.7c8.08,3.09,23.92,12.94,53.51,42.36,17.7,17.59,32.12,34.07,32.26,34.24Z" fill="#898989"/><path d="M1046.41,173c-.17-.19-17.47-20-38.7-41.07-35.48-35.27-54.46-47.08-64.13-50.78a123,123,0,0,0-39.27-8,167.22,167.22,0,0,0-39.69,3.36c-26.61,5.21-53,15.33-80.92,26-36,13.8-73.23,28.08-111.23,31.06-12.6,1-28.2-2.79-46.27-7.17s-38.36-9.3-58.62-9.8q-.89,0-1.8,0c-21,0-53.41,8.67-82.07,16.34-18.56,5-36.09,9.67-48.95,11.65-11.57,1.78-29.78,1.53-49.06,1.26s-40.89-.58-59.23,1.11c-21,1.94-34.53,6.2-41.46,13a17.59,17.59,0,0,0-5.45,12.94h-.25a17.86,17.86,0,0,1,5.52-13.12c7-6.87,20.59-11.16,41.62-13.1,18.35-1.69,40.08-1.38,59.26-1.11s37.46.52,49-1.26c12.84-2,30.36-6.67,48.92-11.64,28.67-7.67,61.07-16.35,82.14-16.35q.91,0,1.8,0c20.28.5,40.68,5.45,58.67,9.81s33.64,8.15,46.19,7.17c38-3,75.17-17.26,111.16-31.06,27.94-10.71,54.33-20.83,81-26a167.59,167.59,0,0,1,39.74-3.36,123.21,123.21,0,0,1,39.35,8c9.7,3.7,28.71,15.53,64.22,50.84,21.23,21.11,38.54,40.88,38.71,41.08Z" fill="#898989"/><path d="M1055.48,103.08v.41c-29.26-26.85-46.27-37-55.77-40.66a147.87,147.87,0,0,0-47.13-9.62c-14.89-.66-30.47.67-47.62,4-31.94,6.25-63.6,18.39-97.11,31.25-43.21,16.56-87.88,33.69-133.48,37.28-15.11,1.18-33.84-3.36-55.52-8.61s-46-11.16-70.35-11.77c-25.13-.62-65.25,10.11-100.64,19.58-22.27,6-43.31,11.6-58.74,14-13.89,2.14-35.74,1.83-58.87,1.51s-49.07-.69-71.08,1.34c-25.16,2.32-41.44,7.43-49.75,15.63A21.12,21.12,0,0,0,202.87,173h-.3a21.42,21.42,0,0,1,6.63-15.74c8.37-8.25,24.71-13.4,49.94-15.72,22-2,48.11-1.67,71.11-1.34s45,.63,58.83-1.51c15.41-2.37,36.44-8,58.7-14,34.41-9.21,73.29-19.62,98.57-19.62q1.1,0,2.16,0c24.34.61,48.81,6.54,70.41,11.78s40.37,9.78,55.42,8.6c45.56-3.58,90.22-20.7,133.4-37.26,33.53-12.86,65.19-25,97.16-31.27a201.07,201.07,0,0,1,47.69-4,148.16,148.16,0,0,1,47.22,9.64C1009.33,66.19,1026.31,76.34,1055.48,103.08Z" fill="#898989"/><path d="M1055.48,36.81v.38a179,179,0,0,0-45-7.58c-17.86-.78-36.56.81-57.15,4.84C915,42,877,56.52,836.82,71.94,785,91.83,731.37,112.38,676.65,116.68c-18.12,1.42-40.6-4-66.62-10.33S554.78,93,525.61,92.23c-.85,0-1.71,0-2.59,0-30.29,0-76.91,12.48-118.18,23.53-26.73,7.16-52,13.92-70.49,16.77-16.66,2.57-42.88,2.2-70.64,1.81-27.6-.39-58.89-.83-85.3,1.61-30.2,2.78-49.73,8.92-59.71,18.76a25.34,25.34,0,0,0-7.84,18.63h-.36a25.68,25.68,0,0,1,8-18.89c10-9.9,29.64-16.07,59.93-18.86,26.43-2.44,57.72-2,85.33-1.61s54,.76,70.59-1.81c18.49-2.84,43.73-9.6,70.45-16.76C447.24,104,495.41,91.11,525.62,91.87c29.21.73,58.58,7.85,84.49,14.13s48.44,11.74,66.51,10.32C731.29,112,784.87,91.48,836.69,71.61c40.24-15.43,78.24-30,116.59-37.51,20.62-4,39.34-5.63,57.23-4.85A178.79,178.79,0,0,1,1055.48,36.81Z" fill="#898989"/><path d="M1055.48,0V.43a318.71,318.71,0,0,0-44.05,5.67c-46,9-91.58,26.49-139.84,45C809.38,75,745.05,99.62,679.38,104.78c-21.75,1.71-48.72-4.83-79.94-12.4s-66.3-16.07-101.3-16.94c-36.22-.89-94,14.56-144.92,28.2-32.08,8.59-62.38,16.7-84.59,20.12-20,3.08-51.46,2.64-84.77,2.17-33.13-.46-70.67-1-102.36,1.93-36.24,3.34-59.67,10.71-71.65,22.51A30.42,30.42,0,0,0,.43,172.74H0a30.79,30.79,0,0,1,9.55-22.67c12.05-11.88,35.57-19.29,71.91-22.64,31.72-2.92,69.27-2.39,102.4-1.93,33.29.47,64.74.91,84.7-2.16,22.2-3.42,52.48-11.53,84.54-20.12,51-13.65,108.8-29.12,145-28.21,35.05.87,70.29,9.42,101.39,16.95s58.12,14.09,79.81,12.39C745,99.2,809.25,74.54,871.44,50.69c48.28-18.51,93.88-36,139.91-45A318.34,318.34,0,0,1,1055.48,0Z" fill="#898989"/></g></g></g></svg>