<svg xmlns="http://www.w3.org/2000/svg" xmlns:xlink="http://www.w3.org/1999/xlink" width="628.02" height="535.6" viewBox="0 0 628.02 535.6"><defs><linearGradient id="e0a2ed11-0fcc-4bb4-91f6-b6c4e297aa08" x1="569.94" y1="158.53" x2="579.76" y2="166.54" gradientUnits="userSpaceOnUse"><stop offset="0" stop-color="#f5e0cd"/><stop offset="1" stop-color="#f5e0cd" stop-opacity="0"/></linearGradient><linearGradient id="f312b0a3-d08e-43d3-9f2d-bc10ebdee3b8" x1="279.87" y1="106.88" x2="316.84" y2="127.05" gradientTransform="translate(4.56 -24.36) rotate(4.09)" xlink:href="#e0a2ed11-0fcc-4bb4-91f6-b6c4e297aa08"/><radialGradient id="e5e4f42a-6e5e-40c0-83a7-38f0e068c86e" cx="271.63" cy="62.76" r="121.15" gradientUnits="userSpaceOnUse"><stop offset="0" stop-color="#b08874" stop-opacity="0"/><stop offset="0.14" stop-color="#b08874" stop-opacity="0.11"/><stop offset="0.44" stop-color="#b08874" stop-opacity="0.38"/><stop offset="0.85" stop-color="#b08874" stop-opacity="0.83"/><stop offset="1" stop-color="#b08874"/></radialGradient><linearGradient id="e0d0641b-9b47-4a7a-af81-068a10ee4f86" x1="246.68" y1="87.38" x2="310.9" y2="87.38" xlink:href="#e0a2ed11-0fcc-4bb4-91f6-b6c4e297aa08"/><radialGradient id="a5203ac6-60e8-4058-b99f-312c1198b6ab" cx="240.99" cy="136.98" r="101.33" gradientUnits="userSpaceOnUse"><stop offset="0" stop-color="#b08874" stop-opacity="0"/><stop offset="0.15" stop-color="#af8874" stop-opacity="0.12"/><stop offset="0.47" stop-color="#ab8874" stop-opacity="0.41"/><stop offset="0.91" stop-color="#a48874" stop-opacity="0.89"/><stop offset="1" stop-color="#a38874"/></radialGradient><linearGradient id="b48f9c5b-9ee5-4725-b59f-0f1a6e9b82bd" x1="250.64" y1="154.5" x2="308.12" y2="207.56" xlink:href="#e0a2ed11-0fcc-4bb4-91f6-b6c4e297aa08"/><radialGradient id="b695474c-be13-451a-8407-5a0facb74661" cx="243.99" cy="48.36" r="90.19" gradientUnits="userSpaceOnUse"><stop offset="0" stop-color="#fff" stop-opacity="0"/><stop offset="1"/></radialGradient><linearGradient id="b3c0ceb4-1354-425b-a89e-e1c862d8e734" x1="65.6" y1="263.25" x2="211.22" y2="395.37" gradientUnits="userSpaceOnUse"><stop offset="0" stop-color="#b08874" stop-opacity="0"/><stop offset="1" stop-color="#b08874"/></linearGradient><linearGradient id="f08e913d-527f-4113-b199-655dd9783b25" x1="36.03" y1="333.6" x2="136.82" y2="285.91" gradientUnits="userSpaceOnUse"><stop offset="0" stop-color="#b08874"/><stop offset="1" stop-color="#b08874" stop-opacity="0"/></linearGradient><linearGradient id="ed5631a2-1b52-4003-a738-59dfe34fce56" x1="94.8" y1="331.19" x2="138.72" y2="364.54" xlink:href="#b695474c-be13-451a-8407-5a0facb74661"/><radialGradient id="acfc0f68-3fd0-4465-ba0f-b1507c156e14" cx="134.02" cy="240.81" r="161.39" gradientUnits="userSpaceOnUse"><stop offset="0" stop-color="#fff" stop-opacity="0"/><stop offset="0.12" stop-color="#b5b5b5" stop-opacity="0.26"/><stop offset="1" stop-opacity="0.9"/></radialGradient><linearGradient id="add8f24b-96b9-4d3f-b661-0aa77cce57c8" x1="118.53" y1="309.19" x2="141.2" y2="309.19" gradientUnits="userSpaceOnUse"><stop offset="0" stop-color="#c6a9b5"/><stop offset="1" stop-color="#c6a9b5" stop-opacity="0"/></linearGradient><linearGradient id="a27efa47-b35a-4c12-9f8a-43c4b01f51d7" x1="133.04" y1="227.75" x2="181.66" y2="261.59" xlink:href="#add8f24b-96b9-4d3f-b661-0aa77cce57c8"/><linearGradient id="fc722586-27dd-406a-8139-5e9404cb4ffd" x1="227.27" y1="206.45" x2="345.5" y2="206.45" xlink:href="#b695474c-be13-451a-8407-5a0facb74661"/><radialGradient id="e324262a-a033-4015-a8f0-5d60601661b0" cx="323.6" cy="66.68" r="38.89" xlink:href="#e5e4f42a-6e5e-40c0-83a7-38f0e068c86e"/><linearGradient id="ae1698f7-45e9-4af2-846e-05a98f936522" x1="452.3" y1="243.8" x2="377.33" y2="302.35" xlink:href="#b695474c-be13-451a-8407-5a0facb74661"/><linearGradient id="a4dff66d-f075-4310-8b70-ec05c2113da0" x1="224.48" y1="76.41" x2="381.99" y2="135.1" xlink:href="#b695474c-be13-451a-8407-5a0facb74661"/><linearGradient id="e1d45de2-3d7f-4cf6-bc28-1fdc733759f3" x1="241.5" y1="138.85" x2="262.3" y2="138.85" xlink:href="#b695474c-be13-451a-8407-5a0facb74661"/><linearGradient id="b333fbd6-dff3-4a4e-ab5b-be5a0d64854c" x1="52.39" y1="164.46" x2="17.86" y2="151.37" xlink:href="#f08e913d-527f-4113-b199-655dd9783b25"/><linearGradient id="a0637751-9d59-4166-a921-2b143f54554a" x1="14.61" y1="157.49" x2="57.71" y2="157.49" xlink:href="#e0a2ed11-0fcc-4bb4-91f6-b6c4e297aa08"/><linearGradient id="bccc5e0f-3458-4f60-b9e8-50839455df15" x1="314.21" y1="82.77" x2="360.08" y2="98.62" xlink:href="#b3c0ceb4-1354-425b-a89e-e1c862d8e734"/><linearGradient id="b83c82ae-4e93-4018-87e4-05d9d8ca964a" x1="3.73" y1="153.71" x2="49.68" y2="153.71" xlink:href="#e0a2ed11-0fcc-4bb4-91f6-b6c4e297aa08"/><linearGradient id="b79180e9-c362-403c-ad50-7c506f971c41" x1="354.7" y1="103.77" x2="322.46" y2="74.24" xlink:href="#b3c0ceb4-1354-425b-a89e-e1c862d8e734"/><linearGradient id="a5e1c675-2b98-4a75-a16f-01fba5facab2" x1="0" y1="157.44" x2="45.93" y2="157.44" xlink:href="#b695474c-be13-451a-8407-5a0facb74661"/><linearGradient id="f7e051da-4b91-470e-891a-2a36afb5fa49" x1="20.2" y1="137.2" x2="25.54" y2="175.21" xlink:href="#e0a2ed11-0fcc-4bb4-91f6-b6c4e297aa08"/><radialGradient id="b88c2520-9b03-43ef-9ebf-a0a1e4bfb554" cx="185.36" cy="190.5" r="237.59" gradientUnits="userSpaceOnUse"><stop offset="0" stop-color="#fff" stop-opacity="0"/><stop offset="1" stop-opacity="0.9"/></radialGradient><linearGradient id="bbcae5ec-232d-4104-b7fb-32cf96de584f" x1="416.75" y1="312.78" x2="343.32" y2="178.7" xlink:href="#b695474c-be13-451a-8407-5a0facb74661"/><radialGradient id="fbec703a-c904-41f8-a3c7-df61af4cb678" cx="65.46" cy="147.83" r="33.35" xlink:href="#b88c2520-9b03-43ef-9ebf-a0a1e4bfb554"/><linearGradient id="e9e12fcc-7f76-43e7-b01c-62a86c893d1f" x1="58.12" y1="156.04" x2="87.06" y2="156.04" xlink:href="#e0a2ed11-0fcc-4bb4-91f6-b6c4e297aa08"/><linearGradient id="babb65ed-ac23-4b99-aefe-18b87129bff7" x1="341.44" y1="72.86" x2="341.44" y2="88.13" xlink:href="#b3c0ceb4-1354-425b-a89e-e1c862d8e734"/><radialGradient id="ab6acce0-52ac-4569-bccb-fd8d4f313da6" cx="550.36" cy="153.85" r="18.91" xlink:href="#b88c2520-9b03-43ef-9ebf-a0a1e4bfb554"/><linearGradient id="b4a70bca-4121-43d8-96d6-608842139e74" x1="551.05" y1="153.48" x2="552.87" y2="174.05" xlink:href="#e0a2ed11-0fcc-4bb4-91f6-b6c4e297aa08"/><linearGradient id="a369e92d-1401-46ea-957c-4165deb2f1cf" x1="86.66" y1="125.57" x2="51.76" y2="186.91" xlink:href="#e0a2ed11-0fcc-4bb4-91f6-b6c4e297aa08"/><linearGradient id="b140acc9-7840-4b7b-a6e5-e37e161f6112" x1="450.23" y1="386.98" x2="554.88" y2="115.82" gradientUnits="userSpaceOnUse"><stop offset="0" stop-color="#b08874"/><stop offset="0.07" stop-color="#b08874" stop-opacity="0.85"/><stop offset="0.22" stop-color="#b08874" stop-opacity="0.55"/><stop offset="0.36" stop-color="#b08874" stop-opacity="0.31"/><stop offset="0.49" stop-color="#b08874" stop-opacity="0.14"/><stop offset="0.6" stop-color="#b08874" stop-opacity="0.04"/><stop offset="0.68" stop-color="#b08874" stop-opacity="0"/></linearGradient><linearGradient id="b40f0181-54ab-4ff1-a6e8-ddb870adef05" x1="455.9" y1="292.66" x2="430.71" y2="378.88" xlink:href="#b695474c-be13-451a-8407-5a0facb74661"/><radialGradient id="ac376759-1edb-4a70-9832-2c882bb057ca" cx="590.7" cy="154.68" r="32.21" xlink:href="#b88c2520-9b03-43ef-9ebf-a0a1e4bfb554"/><linearGradient id="ad3533e5-d91e-4412-8400-df191b03999d" x1="591.29" y1="133.63" x2="586.76" y2="145.13" xlink:href="#e0a2ed11-0fcc-4bb4-91f6-b6c4e297aa08"/><radialGradient id="e7d578f8-b60f-49bc-9536-af6aa7547bef" cx="581.73" cy="147.01" r="54.57" xlink:href="#b88c2520-9b03-43ef-9ebf-a0a1e4bfb554"/><linearGradient id="aaf2deb3-c50a-43c5-a382-213ea1877b68" x1="441.93" y1="288.49" x2="560.53" y2="288.49" xlink:href="#f08e913d-527f-4113-b199-655dd9783b25"/><linearGradient id="b6ac0c06-e99e-4c72-a4f3-cf27665855ff" x1="497.37" y1="204.39" x2="499.82" y2="204.39" xlink:href="#f08e913d-527f-4113-b199-655dd9783b25"/><linearGradient id="f6b8f608-459a-49d2-b114-d65f472c9c52" x1="438.07" y1="192.47" x2="415.12" y2="226.19" xlink:href="#add8f24b-96b9-4d3f-b661-0aa77cce57c8"/><linearGradient id="fb18ec6c-df9d-4665-afd5-cdcda4f12bec" x1="418.65" y1="352.39" x2="440.17" y2="255.55" xlink:href="#add8f24b-96b9-4d3f-b661-0aa77cce57c8"/><linearGradient id="aa21c629-ba80-4d82-aec2-0530876a49e7" x1="422.67" y1="302.53" x2="458.59" y2="302.53" xlink:href="#add8f24b-96b9-4d3f-b661-0aa77cce57c8"/><linearGradient id="b572d34d-cec1-4f57-ae52-879b42c50f09" x1="287.51" y1="69.5" x2="315.03" y2="69.5" xlink:href="#b3c0ceb4-1354-425b-a89e-e1c862d8e734"/><linearGradient id="babe5c81-808a-4ec9-a69d-2f971627189e" x1="320.13" y1="73.11" x2="320.13" y2="111.79" gradientUnits="userSpaceOnUse"><stop offset="0" stop-color="#935f51" stop-opacity="0"/><stop offset="1" stop-color="#935f51"/></linearGradient><linearGradient id="aa1416e5-4b94-4099-aea4-1be0c5c92d57" x1="291.76" y1="128.05" x2="312.39" y2="128.05" xlink:href="#e0a2ed11-0fcc-4bb4-91f6-b6c4e297aa08"/><radialGradient id="adff31d6-9ba8-4669-b13d-a45ab3910426" cx="294.24" cy="63.78" r="47.97" xlink:href="#e5e4f42a-6e5e-40c0-83a7-38f0e068c86e"/><linearGradient id="b8a42292-ae28-4951-bc9b-37bf1fa89929" x1="103.6" y1="179.56" x2="44.28" y2="163.52" xlink:href="#e0a2ed11-0fcc-4bb4-91f6-b6c4e297aa08"/><linearGradient id="a30c3c01-f145-4934-9a14-cee1ccaab1be" x1="64.59" y1="297.48" x2="90.45" y2="296.15" xlink:href="#e0a2ed11-0fcc-4bb4-91f6-b6c4e297aa08"/><linearGradient id="a95ec6cd-05ad-4b11-9ed1-080dd1fd268e" x1="504.57" y1="167.34" x2="520.6" y2="199.15" xlink:href="#e0a2ed11-0fcc-4bb4-91f6-b6c4e297aa08"/><linearGradient id="f7ba559d-32b0-4b4e-adf5-b9079078922c" x1="449.94" y1="283.45" x2="490.78" y2="295.12" xlink:href="#e0a2ed11-0fcc-4bb4-91f6-b6c4e297aa08"/><linearGradient id="b8e8bdf9-b720-4aa6-8366-9c1b57c5a5ec" x1="548.92" y1="169.25" x2="550.39" y2="183" xlink:href="#e0a2ed11-0fcc-4bb4-91f6-b6c4e297aa08"/><linearGradient id="b8e03013-fcf4-411f-a13e-3e906bd104f1" x1="301.51" y1="100.01" x2="301.51" y2="106.68" xlink:href="#b3c0ceb4-1354-425b-a89e-e1c862d8e734"/><linearGradient id="a3eb7a29-3c44-42c0-848b-e6c5ad0ce079" x1="298.78" y1="105.85" x2="320.66" y2="110.16" xlink:href="#babe5c81-808a-4ec9-a69d-2f971627189e"/><linearGradient id="eff5352f-26c1-4a68-a370-14cfd38bb2ad" x1="303.21" y1="103.7" x2="315.49" y2="114.64" gradientUnits="userSpaceOnUse"><stop offset="0" stop-color="#935f51"/><stop offset="1" stop-color="#935f51" stop-opacity="0"/></linearGradient><linearGradient id="b5856c09-d578-491c-b0c5-e4a21740a02e" x1="303.1" y1="121.25" x2="311.07" y2="117.89" xlink:href="#e0a2ed11-0fcc-4bb4-91f6-b6c4e297aa08"/><linearGradient id="abd3968f-7d1a-458e-81f1-d8632605eeea" x1="299.21" y1="112.69" x2="311.74" y2="112.69" xlink:href="#e0a2ed11-0fcc-4bb4-91f6-b6c4e297aa08"/><linearGradient id="f65e005c-28fb-4eab-88b1-814c9fddb0f7" x1="309.18" y1="86.16" x2="315.15" y2="86.16" xlink:href="#e0a2ed11-0fcc-4bb4-91f6-b6c4e297aa08"/><radialGradient id="a6b04652-e3d7-4cdd-adc0-96ba82208e82" cx="294.25" cy="71.89" r="7.71" xlink:href="#e5e4f42a-6e5e-40c0-83a7-38f0e068c86e"/><linearGradient id="f1b6c72d-c236-43a4-8820-d2140c42f457" x1="303.85" y1="103.95" x2="353.51" y2="142.33" xlink:href="#b3c0ceb4-1354-425b-a89e-e1c862d8e734"/><linearGradient id="ae23cdb0-1155-4ff4-ad64-a148aac0cd06" x1="303.58" y1="103.75" x2="353.57" y2="142.38" xlink:href="#b3c0ceb4-1354-425b-a89e-e1c862d8e734"/><linearGradient id="e23256f6-7a61-4f71-b46c-263b31d6f98d" x1="335.98" y1="96.79" x2="330.52" y2="86.82" xlink:href="#b695474c-be13-451a-8407-5a0facb74661"/><linearGradient id="a58fc201-6b6e-4e0d-afae-e230350a2d62" x1="250.06" y1="75.97" x2="244.62" y2="66.02" xlink:href="#b695474c-be13-451a-8407-5a0facb74661"/><linearGradient id="f125ccf4-2785-47a3-b2e9-37705654dae1" x1="296.23" y1="84.81" x2="291.23" y2="75.67" gradientUnits="userSpaceOnUse"><stop offset="0"/><stop offset="1" stop-color="#fff" stop-opacity="0"/></linearGradient><linearGradient id="b1063cd9-0954-4015-adc5-f7bada78211c" x1="267.23" y1="136.71" x2="340.9" y2="193.64" xlink:href="#f08e913d-527f-4113-b199-655dd9783b25"/><linearGradient id="fb489fc5-b0de-480f-a977-314cd84c50fc" x1="305.22" y1="104.25" x2="314.2" y2="107.35" xlink:href="#e0a2ed11-0fcc-4bb4-91f6-b6c4e297aa08"/><linearGradient id="f2b20f5b-a1ca-44a3-be0d-0c981f30db21" x1="320.88" y1="135.06" x2="297.88" y2="127.59" xlink:href="#eff5352f-26c1-4a68-a370-14cfd38bb2ad"/><linearGradient id="a6e90e34-6967-4d40-8659-94c8095b76e4" x1="306.67" y1="122.96" x2="306.1" y2="131.06" gradientUnits="userSpaceOnUse"><stop offset="0" stop-color="#935f51"/><stop offset="0.35" stop-color="#935f51" stop-opacity="0.99"/><stop offset="0.51" stop-color="#935f51" stop-opacity="0.94"/><stop offset="0.63" stop-color="#935f51" stop-opacity="0.85"/><stop offset="0.73" stop-color="#935f51" stop-opacity="0.73"/><stop offset="0.81" stop-color="#935f51" stop-opacity="0.57"/><stop offset="0.89" stop-color="#935f51" stop-opacity="0.37"/><stop offset="0.96" stop-color="#935f51" stop-opacity="0.14"/><stop offset="1" stop-color="#935f51" stop-opacity="0"/></linearGradient><linearGradient id="a477ae80-dd88-4378-91f9-6c9e6bc58e49" x1="291.94" y1="121.59" x2="302.26" y2="121.59" xlink:href="#e0a2ed11-0fcc-4bb4-91f6-b6c4e297aa08"/><linearGradient id="b58a0608-e159-4468-b93c-ba94f9d6201a" x1="290.81" y1="128.69" x2="303.08" y2="128.69" xlink:href="#e0a2ed11-0fcc-4bb4-91f6-b6c4e297aa08"/><radialGradient id="aba273b4-03f4-4fc0-a4b9-ab8c1d7994e1" cx="282.87" cy="279.12" r="97.23" xlink:href="#b88c2520-9b03-43ef-9ebf-a0a1e4bfb554"/><linearGradient id="be9b18c1-cac9-4367-bb07-bef244a58c77" x1="387.64" y1="215.46" x2="337.78" y2="124.39" xlink:href="#b695474c-be13-451a-8407-5a0facb74661"/><linearGradient id="b7721317-94ba-42a1-b4f4-e111a6410b92" x1="338.47" y1="191.56" x2="372.9" y2="191.56" xlink:href="#f125ccf4-2785-47a3-b2e9-37705654dae1"/><linearGradient id="bef9c92a-9ba4-4dc1-b467-31900c48c90f" x1="199.18" y1="162.35" x2="208.8" y2="235.66" xlink:href="#add8f24b-96b9-4d3f-b661-0aa77cce57c8"/></defs><title>victoria</title><g style="isolation:isolate"><g id="b286613b-3144-4c7a-ac73-ce8fc07761b2" data-name="Layer 2"><g id="ef3bf137-11be-4e1e-8f6c-d78e34871bdc" data-name="Object2"><g id="b65706b8-04da-43ed-8b33-869fe53e23ea" data-name="Vi"><path d="M562.61,178.11s6.81.26,9.77-1.12,9.47-12.64,13.32-15.3,6.66-7.55,6.8-8.59-2.81-7.25-8.73-3A28,28,0,0,0,575.19,161s-7.55,5.36-9.47,8.08S561.86,178.1,562.61,178.11Z" fill="url(#e0a2ed11-0fcc-4bb4-91f6-b6c4e297aa08)"/><path d="M299.2,105.9a2.42,2.42,0,0,0-.26,3.54c1.56,2.21,6.93,1.64,6.63,3.34s-2.45,5-1.36,5.82,4-.67,5.67.41,9.14.65,10.05,4-12.59-.14-12.59-.14c-5.59-1.92-12.85.8-19.16-1.75S297.71,105.28,299.2,105.9Z" opacity="0.5" fill="url(#f312b0a3-d08e-43d3-9f2d-bc10ebdee3b8)"/><path d="M317.49,114.61s.39-.58,1.6-.53,3.07.12,3.33.79.66,1.11-.31,1.27-3.91-.78-4.31-.76S316.91,114.62,317.49,114.61Z" fill="#b08874" style="mix-blend-mode:multiply"/><path d="M622.28,188.27a22.33,22.33,0,0,0-5,1.31c2.54-3.54,4.92-7.21,5-8.43.14-2.2-3.1-7.39-9.18-2.06a33.88,33.88,0,0,0-2.62,2.68c-1.45-.86-3.48-1-6.11.87a28.16,28.16,0,0,0-8.59,10.81s-3.16,2.25-5.92,4.58h0c-1.49-1.37-4.51-2.82-6.5,1.21-1.35,2.73-2.09,4.59-2.66,5.86a4.73,4.73,0,0,0-.71-1.34,2.71,2.71,0,0,0-1.23-.91c-.43-.15-1-.29-1.5-.42,1.73-1.69,3.65-3.93,4-5.82.73-3.59-4-5.22-7-3.89-2.61,1.18-7.87,5.12-9.48,9.19a9.89,9.89,0,0,0-2.93.94c-3.87,2.12-11.08,2.06-21.59,4.32-6,1.28-14,2.3-16.93,3.22-8.37,2.67-16.17,11.51-20.76,18.86-3.64,5.83-6.72,12.24-7.46,16a9.29,9.29,0,0,0-.16,1.17c0,.55-.1,2.34-.21,5-.59,14-2.4,52.33-6.06,67.65-1.22,5.11-2.73,10.24-4.23,15.43a31.34,31.34,0,0,0-1.87-2.57c-1.93-2.46-6.12,2.62-3.79-.3,2-2.52,1.19-4.18.34-7.45-.12-.47-.23-1-.34-1.55-.65-3.27-3.87-3.76-6.81-6.11a11.41,11.41,0,0,1-2.77-3.2,6.67,6.67,0,0,1-.79-1.88c-.62-3.32,4.72-2.57,5.74-5.05.51-1.27.17-4.54-.75-8.59a90.9,90.9,0,0,0-5.36-16.17c-3-6.56-2.25-8.8-6-18.9-1.39-3.75-3.43-8.58-6.5-15.12-10.3-21.9-21.42-26-23.4-26.54l.13.06-.28-.1a.39.39,0,0,0-.14,0,53.51,53.51,0,0,0-7.51-1.68c.32-3.53,2.6-7,8-10.2,24.7-14.86-5.89-33.94-20.6-48.62S403,94,395.88,71.69s-31.15-34.15-55.07-38.27-24.9,7-24.9,7c-4.88-1.87-11-.24-23,8.65S275.62,81.12,272.1,91a32,32,0,0,0-1,3.54c-1.65.24-3.31,1.1-5,4.41-2.24,4.48-2.24,20.16,0,24.63,0,0-6.38,15.14,5,32.7s-5,36.06-8.48,46.6c0,.09,0,.19-.08.29a15.33,15.33,0,0,0-9.71,6,33.59,33.59,0,0,0-3.32,5.07c-.4.11-.85.23-1.32.34-11.55,2.84-40.11,9.89-45.41,11h-.05l.05,0,.08,0h0l.1-.05,0,0h0c.05-.26-6.62.56-14.26,4.87l-.05,0-1.16.68-.08.05c-.38.23-.76.46-1.14.71l-.12.08c-.37.24-.73.48-1.1.74a1.16,1.16,0,0,1-.16.11l-1.08.79-.18.14c-.35.26-.69.53-1.05.82a2.33,2.33,0,0,1-.23.19c-.33.27-.66.54-1,.83a3,3,0,0,0-.26.24c-.32.28-.64.56-.95.86l-.3.29c-.3.29-.59.57-.89.88l-.35.37-.81.87-.45.52-.7.81c-.36.46-.73.92-1.1,1.41C163.83,257.37,151,278.24,152.92,307c.85,12.7-3.74,3.37-5.22,3.05-3-.65-5.27,3.47-3.07,11.76.16.6.31,1.18.5,1.73,2,6.71,3.51,7.81-1,9.15a1.74,1.74,0,0,1-.45.11c-1.57.45-3.16.76-4.5,1.17-.24-1-.48-2.09-.7-3.17l-.09-.45c-.15-.73-.29-1.47-.43-2.21-.06-.39-.13-.77-.2-1.16-.16-1-.33-2-.48-3-1.78-12.41-2.75-36.77-2.77-55.08a197.12,197.12,0,0,1,.72-20.55,59.34,59.34,0,0,0-.4-15.14,52.46,52.46,0,0,0-2.56-11,12.3,12.3,0,0,1-.45-1.87,11.17,11.17,0,0,1-.17-2.26,19.22,19.22,0,0,1,.57-3.91c.35-1.58-.5-3.18-2.11-4.84a31,31,0,0,0-3.87-3.25c-2-1.44-3.65-3-5.27-4.34a36.76,36.76,0,0,0-3-2.33,17,17,0,0,0-1.88-1.13,13.48,13.48,0,0,0-7.77-1.49l-.58.07s-.49-.3-1.19-.65a20.93,20.93,0,0,0-2.42-1.1c-1.66-.61-4.23-3.18-5.59-5s-6.81-8.48-9.39-9.09-4.83-1.82-8,0-2.44,5.78-1.67,7.43,2.6,5.05,4.25,5.38a.27.27,0,0,1,.13,0c-5-.88-7,.67-9.85.67h0l-.6,0c-2.87-.91-6.53-2-8.74-2.46-4.05-.82-5.46-1.86-6.68-3.56s-4-2.15-4.85-2.33-.74-3.84-5.73-6.16c-4.27-2-9.46-3.73-11.38-2-1.83-2-4.3-4.4-5.73-5.12-2.43-1.21-4.45-1.41-5.67,0a1.14,1.14,0,0,0-.15.94c-2.46-.12-4.19,1.35-3.68,2.7.6,1.61,6.66,7.48,6.66,7.48l1.89,2.79a1.32,1.32,0,0,0-.35.7v.1a76.9,76.9,0,0,0,4.34,8.28,25.17,25.17,0,0,0,2.13,3,8.59,8.59,0,0,0,.75.8c1.9,1.7,6.41,6.93,9.83,9.5a5.52,5.52,0,0,0,3.15,1.48,6.51,6.51,0,0,1,.77,0c2.85,0,7,1.13,16.55,3.51a41.7,41.7,0,0,1,12.44,5.91c5.47,3.59,10.46,7.84,14.65,10.53a19.42,19.42,0,0,1,4,3.3c2.81,3.08,2.33,5.36,2.33,5.36a2.35,2.35,0,0,0,0,.27,2.64,2.64,0,0,0,0,.28v.3c0,.13,0,.27,0,.42a2.18,2.18,0,0,0,0,.25c0,.24,0,.51,0,.78s.06.62.09,1a.28.28,0,0,1,0,.09c.27,2.69.88,6.5,1.5,11.65.34,2.83.69,6.07,1,9.74,1.14,13.19-2,45.14-5.38,78.47-.16,1.59-.32,3.17-.48,4.77-.08.73-.14,1.48-.2,2.23,0,.16,0,.32,0,.48-.12,1.49-.22,3-.3,4.48,0,.17,0,.34,0,.51q-.1,2.24-.15,4.47c0,.17,0,.35,0,.53l0,2.23v0c0,.73,0,1.46,0,2.19,0,.19,0,.38,0,.56,0,.73,0,1.46,0,2.18,0,0,0,.06,0,.09,0,.71,0,1.41,0,2.12l0,.59c0,.69,0,1.39.08,2.08,0,.07,0,.15,0,.22,0,.66.07,1.33.11,2,0,.21,0,.42,0,.64,0,.65.07,1.31.12,2l0,.34c0,.62.09,1.25.14,1.87,0,.22,0,.45,0,.67.06.61.1,1.22.16,1.82,0,.16,0,.33,0,.48.06.59.11,1.16.17,1.73,0,.24,0,.47.07.7l.18,1.69c0,.21,0,.41.07.61l.18,1.56.09.76c.06.5.13,1,.18,1.48l.12.8q.07.71.18,1.38c0,.26.07.53.11.78l.18,1.3.15,1c.06.39.11.79.18,1.17s.08.55.13.82.11.72.17,1.07.13.8.2,1.19l.15.94.15.86c0,.29.1.56.16.84.08.47.16.93.25,1.38l.12.71.18.9c0,.21.07.41.12.63l.3,1.51c0,.17.07.34.11.51l.18.92c0,.13.06.25.08.38.12.58.25,1.14.37,1.69l.06.27.21.93c0,.06,0,.11,0,.18.13.61.27,1.2.41,1.77l0,.09c.15.64.29,1.25.44,1.83l.3,1.14a48.82,48.82,0,0,0,2.18,6.88,4.69,4.69,0,0,0,.25.47c1.56,2.28,1.36,2.65,2.91,4.89.53.79,1.29,1.81,2.42,3.23l.06.07.23.27a10.89,10.89,0,0,0,4.05,3.14,9.72,9.72,0,0,0,3.55.78c1.31.06,2.41-.1,3.17,0,.57,0,1.93,0,3.75-.05,5-.22,13.4-1.05,18.63-3.43.32-.15.64-.29.93-.44l.29-.14.84-.44.14-.09a13.32,13.32,0,0,0,2.31-1.57.46.46,0,0,0,.07-.07,10.35,10.35,0,0,0,1.67-1.82l20-20.24s.47-.7,1.18-1.95v0s0,0,0-.05c.41-.67.85-1.52,1.35-2.5a7.83,7.83,0,0,1,7.1-3.3c6.54.45,15.67-6.09,11.75-13.51s-4.34-12.45,2.18-12,5.91-3.12,6.33-7.49c2.7,16.24,21.89,29.53,21.89,91.72,0,3.74-.06,7.64-.21,11.72-.24,6.45-5.63,20.12-10.61,34.48a212.71,212.71,0,0,0,198.9,9.35q7.41-3.5,14.55-7.58c.34-.19,9.34-6.51,13.56-8.05-5.13-16.76-11-33.91-11.44-41a367.69,367.69,0,0,1,2.95-80.3c.14-1,.28-1.91.43-2.84-.15.93-.28,1.87-.42,2.84,3.36.63,7.56.67,9.28,2.08a21.48,21.48,0,0,1,4.33,5.89A6.64,6.64,0,0,0,445,390a11.35,11.35,0,0,1,1.19,1.74c1.22,2.15,2.12,4.72,5.1,7.39,3.43,3.08,12,9.45,13.68,10.73a.69.69,0,0,1,.13.11s0,0,.05,0c2.3,2,6.47,6.05,8.31,10.3,2.6,6.05,10.37,9.5,19,9.5s12.94,3.45,17.27-2.6,4.75-7.32,5.61-17.69,6.48-34.08,9.93-47.05-1.54-72.92-.34-98.49c0,0-.26-9.54,2.11-15.55,2.91-7.37,9.45-13.7,19.8-18,9.81-4.08,20.38-7.75,21.48-8.13,3.05.15,5.48.16,6-.12,1.2-.61,5.47-4.29,8.38-6.94,6.77-1.78,16.45-4.38,17.23-4.59a4.63,4.63,0,0,0,1.24-1.07c1.85-.74,7.85-5.61,13.41-8,6.66-2.89,12.28-6,13-7.63S628.81,187.51,622.28,188.27ZM252.79,232.73l-.42-.73c.14.24.28.49.43.73.42.71.83,1.42,1.26,2.14Zm7.76,12.08q1.26,1.68,2.68,3.37C262.27,247.05,261.39,245.93,260.55,244.81Zm21.32-47.05a1.22,1.22,0,0,1-.05.17,3.6,3.6,0,0,1-.83,1.25c-.78.9-2.08,1.5-4.48,2.35-1.49.55-3.26,1.17-5.44,2.09,7.28-9.07,8.65-6.88,11-8A20.63,20.63,0,0,1,281.87,197.76ZM331,274.46c-.44.09-.91.16-1.42.24.51-.08,1-.16,1.43-.25,1.53-.32,3.18-.59,4.91-.88C334.23,273.87,332.58,274.14,331,274.46Zm18.83-61.34c0-12.16,1.38-29.46,1.47-30.48C351.34,182.64,351.24,198.41,349.87,213.12Zm26.37-75-2.24,4c1.19-3.18,1.83-5.15,1.83-5.15s.22-1,.55-2.56C376.34,135.65,376.29,136.89,376.24,138.14Zm49.43,157.94c-.28,2.33.67,6.46,2.13,11.32C426.33,302.54,425.38,298.4,425.67,296.08Zm2.62,12.9c.34,1.07.7,2.18,1.06,3.3C429,311.15,428.63,310,428.29,309Z" fill="#373537" style="mix-blend-mode:overlay"/><path d="M359.72,75.35c0,9-4.48,29.12-4.48,29.12s-.65,2-1.84,5.15c-2.57,7-7.68,19.91-13.84,30.68a32.86,32.86,0,0,1-8.82,9.83,51.85,51.85,0,0,1-22.62,9.11l-.4,0-.63,0c-2.24,0-9-2.24-15.67-4.48-5.09-1.7-16.62-12.4-23.86-19.43-2.3-2.24-4.18-4.12-5.26-5.2-4.48-4.48-4.48-26.87-4.48-26.87a13.78,13.78,0,0,1-6.58-2.24c-3.7-2.65-4.14-6.9-5.71-10.06l0,0c-2.24-4.48-2.24-20.16,0-24.63,1.65-3.32,3.31-4.17,5-4.42a16.86,16.86,0,0,1,1.74-.06c2.24,0,2.24,9,2.24,9,2,2.13,11.34-7.5,20.45-23.2s17.33-16.86,22-19.91,13.53,0,13.53,0-3.31-5.84-7.05-11.22c11.31-.29,22.61,3.18,33.92,5.07,13.44,2.24,17.92,13.43,22.4,20.15S359.72,66.4,359.72,75.35Z" fill="#ecc19c"/><g opacity="0.4" style="mix-blend-mode:multiply"><path d="M359.72,75.37a75.71,75.71,0,0,1-.89,9.72c-.16,1.11-.34,2.25-.52,3.38-1.31,8.11-3.07,16-3.07,16s-.65,2-1.84,5.15c-2.57,7-7.68,19.91-13.84,30.69a30,30,0,0,1-4.6,6.07,5.77,5.77,0,0,1-.42.44,34.88,34.88,0,0,1-3.8,3.32,52,52,0,0,1-19.84,8.64c-1.14.24-2.09.38-2.78.47l-.4,0c-.27,0-.5,0-.63,0a2.17,2.17,0,0,1-.36,0,13.81,13.81,0,0,1-1.79-.3c-1.63-.36-3.82-1-6.28-1.79l-.15-.05c-2.22-.7-4.65-1.51-7.1-2.32A16.58,16.58,0,0,1,287.8,153a.18.18,0,0,1-.07,0q-.36-.22-.72-.48a116.21,116.21,0,0,1-10.57-8.65c-3-2.68-5.9-5.45-8.38-7.85l-.49-.48c-2.31-2.24-4.19-4.12-5.27-5.2-4.37-4.37-4.48-25.82-4.48-26.84v0c-.31,0-.63-.07-.92-.12l-.46-.08-.51-.09a12.58,12.58,0,0,1-4.69-1.94h0c-3.68-2.63-4.14-6.89-5.7-10.05l0,0c-2.24-4.47-2.24-20.15,0-24.63,1.65-3.31,3.31-4.17,5-4.41a14.47,14.47,0,0,1,1.74-.07c2.24,0,2.24,9,2.24,9,1.15,1.2,4.61-1.35,9-6.63a118.94,118.94,0,0,0,11.4-16.57c9.14-15.69,17.33-16.87,22-19.91,3.39-2.2,9-1.21,11.79-.5,1,.25,1.64.46,1.73.49-.08-.13-.84-1.48-2-3.44l-1-1.57c-1.16-1.89-2.57-4.07-4.05-6.2,11.32-.29,22.62,3.18,33.93,5.06,13.44,2.24,17.92,13.44,22.4,20.16S359.72,66.41,359.72,75.37Z" fill="url(#e5e4f42a-6e5e-40c0-83a7-38f0e068c86e)"/></g><path d="M310.45,27.76s-8.85-3-13.53,0-12.87,4.21-22,19.91S256.48,73,254.46,70.87c0,0,11.2-33.59,15.68-38.07S283.58,19.37,297,17.13a44.53,44.53,0,0,1,6.39-.59C307.14,21.92,310.45,27.76,310.45,27.76Z" fill="#ecc19c"/><path d="M308.7,145.48a7.36,7.36,0,0,1-2.12.55c-4.55.69-8.95-.68-13.49-.14-2.58.31-5.31,2-5.57,4.58a4,4,0,0,1-.43,1.94,114.54,114.54,0,0,1-10.57-8.65A19.37,19.37,0,0,1,274,138.6c-.79-2.52-1.05-5.25-2.85-7.29s-4.31-3.66-5.91-6.1c-2.25-3.46-2.73-7.66-3.52-11.61a30,30,0,0,0-1.58-5.82c-.59-1.4-2.13-2.94-2.18-4.37h0l-.92-.16-.46-.08-.51-.09c-1.9-.35-4.44-1-4.68-1.94v0c-.13-.74-.24-1.35-.33-1.8-.6-2.85-.6-7.91-2.42-10.15s-2.65-7.5-1-9.71,1.21-8.12,2.22-9.72,2.24,3.22,1.43,5.66a38.88,38.88,0,0,0-2,8.11c-.19,2.41,0,6.27,2.24,6.9S252,93.6,254.23,95s3.65-1.83,1.64-4.65-2-8.31-.2-9.54,6.47-9.32,7.28-13.78c.1-.57.33-1.54.64-2.8,2.21-8.6,8.91-30.82,13.15-32.05,4.79-1.41,13.31-12,30.79-9.46l.81.13s.05.53.16,1.45c.08.75.18,1.75.3,3,.85,8.26,2.44,25.61,1.37,29.44-1.43,5.08-14.1-.06-19.36.35-4.26.33-8.53,3.7-10.93,7.19-.45.64-.13-.07-.45.64-3.34,7.57,2,14,8.36,17.21a31.91,31.91,0,0,0,16.69,3.24,4.6,4.6,0,0,1,2.34.19,3.5,3.5,0,0,1,1.48,1.75,9,9,0,0,1-.78,8.67c-1.65,2.37-4.32,3.76-6.45,5.69s-3.76,5.07-2.47,7.64c1.14,2.27,4.31,3.58,4.22,6.12-.05,1.68-1.63,2.93-3.21,3.52s-3.32.8-4.75,1.69c-2.61,1.64-3.46,5.19-2.84,8.2a14.64,14.64,0,0,0,1.69,4.72,4.94,4.94,0,0,0,3.59,1.83,48.92,48.92,0,0,1,11.47,3.23,4.2,4.2,0,0,1,1.1.6,2.89,2.89,0,0,1,.81,1.26A4.2,4.2,0,0,1,308.7,145.48Z" fill="url(#e0d0641b-9b47-4a7a-af81-068a10ee4f86)"/><path d="M328.16,217.67c-4.07,3-9.47,4.57-16.1,5.11-9.81.78-22.3-.74-37.1-3.18-15-2.47-27.26-16.19-33-27.64v0c-3.74-7.48-4.68-14-1.72-15.68a91.07,91.07,0,0,1,10.21-5.15c2.17-.92,3.94-1.54,5.44-2.08,2.4-.85,3.69-1.46,4.48-2.35a3.64,3.64,0,0,0,.83-1.26c.71-1.67,1.07-35.2,1.07-35.2,4.48,4.48,22.4,22.39,29.12,24.63s13.43,4.48,15.67,4.48l.63,0,.4,0c.54-.06,1.28-.18,2.13-.35a51.78,51.78,0,0,0,20.49-8.76c-.09,1.07-1.57,19.93-1.46,32.11a53.77,53.77,0,0,0,.56,8.22C331.52,198.9,338.26,210.21,328.16,217.67Z" fill="#ecc19c"/><g opacity="0.5" style="mix-blend-mode:multiply"><path d="M328.16,217.67c-4.07,3-9.47,4.57-16.1,5.11-9.81.78-22.3-.74-37.1-3.18-15-2.47-27.26-16.19-33-27.64v0c-3.74-7.48-4.68-14-1.72-15.68a91.07,91.07,0,0,1,10.21-5.15c2.17-.92,3.94-1.54,5.44-2.08,2.4-.85,3.69-1.46,4.48-2.35a3.64,3.64,0,0,0,.83-1.26c.71-1.67,1.07-35.2,1.07-35.2,4.48,4.48,22.4,22.39,29.12,24.63s13.43,4.48,15.67,4.48l.63,0,.4,0c.54-.06,1.28-.18,2.13-.35a51.78,51.78,0,0,0,20.49-8.76c-.09,1.07-.7,20.2-1.46,32.11a32.62,32.62,0,0,0,.56,8.22C331.52,198.9,338.26,210.21,328.16,217.67Z" fill="url(#a5203ac6-60e8-4058-b99f-312c1198b6ab)"/></g><path d="M312.11,222.76s0,0-.05,0c-9.81.78-22.3-.74-37.1-3.18-15-2.47-27.26-16.19-33-27.64v0c5.64-3.14,13.08-7.35,15.48-12.74,1.72-3.9,2.64-5.31,2.93-12.52a3.64,3.64,0,0,0,.83-1.26,13.28,13.28,0,0,0,.27-2.3c.53-7.91.8-32.9.8-32.9l1.59,1.59a8.47,8.47,0,0,1,.67.67l1.37,1.32c.52.52,1.05,1.06,1.63,1.62,7.24,7,18.77,17.73,23.86,19.43,6.71,2.24,13.43,4.48,15.67,4.48l.63,0,.4,0c.54-.06,1.28-.18,2.13-.35l0,0s-9.81,16.41-7.5,37,7.12-3.05,11.49-2.62S326.15,217.31,312.11,222.76Z" fill="url(#b48f9c5b-9ee5-4725-b59f-0f1a6e9b82bd)"/><path d="M310.45,27.76s-8.85-3-13.53,0-12.87,4.21-22,19.91S256.48,73,254.46,70.87c0,0,0-9-2.24-9a16.86,16.86,0,0,0-1.74.06,29.29,29.29,0,0,1,1-3.53c3.51-9.84,8.89-33.06,20.82-41.93s18.1-10.52,23-8.64c2.13.78,5.22,4.59,8.09,8.66C307.14,21.92,310.45,27.76,310.45,27.76Z" fill="#ad764d"/><g opacity="0.3" style="mix-blend-mode:color-burn"><path d="M310.45,27.76s-8.85-3-13.53,0-12.87,4.21-22,19.91S256.48,73,254.46,70.87c0,0,0-9-2.24-9a16.86,16.86,0,0,0-1.74.06,29.29,29.29,0,0,1,1-3.53c3.51-9.84,8.89-33.06,20.82-41.93s18.1-10.52,23-8.64c2.13.78,5.22,4.59,8.09,8.66C307.14,21.92,310.45,27.76,310.45,27.76Z" fill="url(#b695474c-be13-451a-8407-5a0facb74661)"/></g><path d="M135.12,381.69c-3.89,13.66-4.54,16.26-11.69,19.51s-20.26,3.6-22.37,3.47-6.52,1.18-10.77-3.88a4.28,4.28,0,0,1-.29-.33c-4.35-5.47-3.23-5-5.33-8.13s-12.16-42.57-8.62-77.6,7-69.42,5.86-83.24S79,210,79.27,206.77s12.65-5.89,14.42-8.25c.58-.78,2.69-2.1,5.24-3.47,5.2-2.84,12.32-5.93,12.7-5.35.58.9,4.41,14.42,3,26.18S114,273,116.65,291.51s9.4,30.59,10.28,42.05a168.14,168.14,0,0,1,.4,20.2S139,368.05,135.12,381.69Z" fill="#ecc19c"/><g opacity="0.5" style="mix-blend-mode:darken"><path d="M135.12,381.69c-3.89,13.66-4.54,16.26-11.69,19.5s-20.26,3.61-22.37,3.48-6.51,1.18-10.78-3.87c-.11-.12-.19-.23-.28-.34-4.34-5.46-3.23-5-5.33-8.13-.53-.77-1.54-3.81-2.73-8.48-3.55-14.05-8.55-42.84-5.89-69.12,3.51-35,7-69.42,5.86-83.24-.31-3.67-.66-6.9-1-9.74-1-7.84-1.86-12.59-1.64-15A2.84,2.84,0,0,1,80.58,205a27.18,27.18,0,0,1,5.67-2.8c3.25-1.31,6.59-2.53,7.45-3.67.58-.78,2.68-2.1,5.23-3.46,5.2-2.85,12.32-5.94,12.7-5.36.58.89,4.41,14.42,3,26.18s-.6,57.08,2.07,75.63,9.41,30.59,10.27,42.05a167.23,167.23,0,0,1,.41,20.21S139,368.05,135.12,381.69Z" fill="url(#b3c0ceb4-1354-425b-a89e-e1c862d8e734)"/></g><path d="M135.12,381.69c-2.28,8-3.45,12.23-5.48,15a10.21,10.21,0,0,1-2.31,2.33,20.44,20.44,0,0,1-3.9,2.2c-7.14,3.24-20.26,3.6-22.37,3.47s-6.52,1.18-10.77-3.88a13.26,13.26,0,0,0,5.51.72c4.19-.65,6.13-3.87,3.87-10.64s5.8.63,11.29,0,5.46-41,0-53.54-12-92.22-11.49-99.95a158.74,158.74,0,0,0,0-16.77s5,5.73,6.14,2.37-4.17-26.63-6.14-26.87c-.34-.05-.51-.45-.54-1.06,5.2-2.84,12.32-5.93,12.7-5.35.58.9,4.41,14.42,3,26.18S114,273,116.65,291.51c.51,3.54,1.16,6.85,1.88,10,1.7,7.1,3.81,13.19,5.51,18.75.47,1.59.92,3.13,1.32,4.63a49.43,49.43,0,0,1,1.57,8.71,168.14,168.14,0,0,1,.4,20.2S139,368.05,135.12,381.69Z" fill="url(#f08e913d-527f-4113-b199-655dd9783b25)"/><path d="M152.23,371.86c-.49,1-.94,1.84-1.34,2.51,0,0,0,0,0,0v0c-.72,1.26-1.19,1.95-1.19,1.95l-20,20.29c2-2.75,3.2-7,5.48-15,3.9-13.64-7.79-27.93-7.79-27.93a168.14,168.14,0,0,0-.4-20.2,49.43,49.43,0,0,0-1.57-8.71c-.4-1.5-.85-3-1.32-4.63,5.17.69,14.51,3.56,25.64,14.22C162.4,346.64,156.26,363.8,152.23,371.86Z" fill="#a17a94"/><g opacity="0.5" style="mix-blend-mode:color-burn"><path d="M152.23,371.86c-.49,1-.94,1.84-1.34,2.51,0,0,0,0,0,0v0c-.72,1.26-1.19,1.95-1.19,1.95l-20,20.29c2-2.75,3.2-7,5.48-15,3.9-13.64-7.79-27.93-7.79-27.93a168.14,168.14,0,0,0-.4-20.2,49.43,49.43,0,0,0-1.57-8.71c-.4-1.5-.85-3-1.32-4.63,5.17.69,14.51,3.56,25.64,14.22C162.4,346.64,156.26,363.8,152.23,371.86Z" fill="url(#ed5631a2-1b52-4003-a738-59dfe34fce56)"/></g><path d="M182.15,193a1.21,1.21,0,0,1-.18.05c-1.92.64-2.8,5.67-3.28,7.25a62.15,62.15,0,0,0-2.46,14.53,199.86,199.86,0,0,0-.12,23.22c.18,3.44,0,7.51,1,10.8.91,3,2,5.3,2.26,8.57,1.44,18.48,1.83,37,2.22,55.56.16,7.71-1.24,15-2,22.57-.43,4.36.21,7.93-6.33,7.48s-6.1,4.63-2.18,12-5.22,13.95-11.76,13.51a7.81,7.81,0,0,0-7.1,3.29c4-8.06,10.17-25.22-2.55-37.42-11.13-10.66-20.47-13.53-25.64-14.22-.23-.72-.45-1.44-.67-2.15-1.57-5-3.36-10.39-4.84-16.6,1.34-.4,2.93-.71,4.52-1.16a3.69,3.69,0,0,0,.45-.11c4.55-1.35,3-2.45,1-9.16-.18-.54-.34-1.12-.49-1.73-2.2-8.28.09-12.4,3.07-11.76,1.47.32,6.06,9.66,5.21-3-1.88-28.78,10.91-49.65,22.67-65.33C166.5,193.84,184.68,192.25,182.15,193Z" fill="#895881"/><g opacity="0.5" style="mix-blend-mode:color-burn"><path d="M182.15,193a1.21,1.21,0,0,1-.18.05c-1.25.31-3.13,6.07-5,13.82-1,4.16-1.93,8.36-2.78,12.56-.62,3.08-2.07,6.64-1.18,9.72,1.09,3.76,3.2,6.94,3.93,10.94a54,54,0,0,1,.72,11.29c-.24,8.53-1.7,17.07-.89,25.57.8,8.32,3.75,16.3,5.11,24.55,1.72,10.53-.45,19.36-2,29.6C179,336.4,181,343.54,173.27,343c-6.52-.43-6.1,4.63-2.18,12s-5.22,13.95-11.76,13.51a7.81,7.81,0,0,0-7.1,3.29c4-8.06,10.17-25.22-2.55-37.42-11.13-10.66-20.47-13.53-25.64-14.22-.23-.72-.45-1.44-.67-2.15-1.57-5-3.36-10.39-4.84-16.6,1.34-.4,2.93-.71,4.52-1.16a3.69,3.69,0,0,0,.45-.11c4.55-1.35,3-2.45,1-9.16-.18-.54-.34-1.12-.49-1.73-2.2-8.28.09-12.4,3.07-11.76,1.47.32,6.06,9.66,5.21-3-1.88-28.78,10.91-49.65,22.67-65.33C166.5,193.84,184.68,192.25,182.15,193Z" fill="url(#acfc0f68-3fd0-4465-ba0f-b1507c156e14)"/></g><path d="M137.61,310c-7.23-3.43-10.64,0-13.57,2.28-2.22,1.73,4.75,4.55,6.27,5.15-.16,0-.38-.11-.7-.22a8.16,8.16,0,0,0-6.24.83c-1.57-5-3.36-10.39-4.84-16.6,1.34-.4,2.93-.71,4.52-1.16,2.31,2.17,7,2.89,11.13,2.89C139.87,303.2,144.82,313.45,137.61,310Z" fill="url(#add8f24b-96b9-4d3f-b661-0aa77cce57c8)"/><path d="M182,193.06c-1.06.26-2.57,4.39-4.15,10.33h0c-.3,1.1-.59,2.26-.89,3.48-3.24-.39-7-.2-8.55.94-3,2.28-1.53,15.59-3.43,20.54s-3-8.39-6.89-11.79-4.13,3-4.5,8.36,2.66,21.27-3.09,17.85-12.12,6.47-9.8,10.26,8.7,0,12.89,0,7.59,28.12,0,24.31-15.21-4.18-17.63-2.66,6.61,15.58,3.18,12.92-8-3.05-11-3.05,1.14,6.48-.74,5.71a3.05,3.05,0,0,0-2.82.77c-.18-.55-.34-1.13-.49-1.73-2.2-8.29.09-12.41,3.07-11.75,1.47.31,6.07,9.65,5.22-3.05-1.88-28.78,10.9-49.65,22.66-65.32,10.32-13.77,26-16.47,27.32-16.33C182.49,192.88,182.39,193,182,193.06Z" fill="url(#a27efa47-b35a-4c12-9f8a-43c4b01f51d7)"/><path d="M340.1,230.62c-8.35,8.95-20.87,9.54-29.65,11.33s-30,0-47.86-10.13-24.43-21.47-30.39-31.59c-4.79-8.11-6.49-12.41-3.31-18.57a33.91,33.91,0,0,1,3.31-5.06c7.15-9.32,18.28-5.49,18.28-5.49a91.07,91.07,0,0,0-10.21,5.15c-1.28.74-1.84,2.38-1.73,4.62.11,2.91,1.32,6.83,3.45,11.06v0c5.71,11.45,18,25.17,33,27.64,14.8,2.44,27.29,4,37.1,3.18,6.63-.54,12-2.11,16.1-5.11,10.1-7.46,3.36-18.77,1.68-27.21a53.77,53.77,0,0,1-.56-8.22c1.39,1.59,5.87,6.9,10.82,13.8C346.06,204.39,348.45,221.68,340.1,230.62Z" fill="#a17a94"/><g opacity="0.5" style="mix-blend-mode:color-burn"><path d="M340.1,230.62c-8.35,8.95-20.87,9.54-29.65,11.33s-30,0-47.86-10.13-24.43-21.47-30.39-31.59c-4.79-8.11-6.49-12.41-3.31-18.57a33.91,33.91,0,0,1,3.31-5.06c7.15-9.32,18.28-5.49,18.28-5.49a91.07,91.07,0,0,0-10.21,5.15c-1.28.74-1.84,2.38-1.73,4.62.11,2.91,1.32,6.83,3.45,11.06v0c5.71,11.45,18,25.17,33,27.64,14.8,2.44,27.29,4,37.1,3.18,6.63-.54,12-2.11,16.1-5.11,10.1-7.46,3.36-18.77,1.68-27.21a53.77,53.77,0,0,1-.56-8.22c1.39,1.59,5.87,6.9,10.82,13.8C346.06,204.39,348.45,221.68,340.1,230.62Z" fill="url(#fc722586-27dd-406a-8139-5e9404cb4ffd)"/></g><path d="M352.12,63.34c-1.56,3.77-1.79,10.48-1.79,10.48s-15.19-6.42-17-6.65-7.36,1.7-11.07,7.91c-2.28,3.8-3.12,15.24-3.69,24-.36,5.57-.61,10.09-1,11-1.07,2.27-3.33-.45-5.42,0s-3.42-1.87-3.81-4.18,7-26,7.27-31.85-2.39-6.39-3.68-10.73S297,60,292.92,56.08s-.39-14.39,0-19.54,7.71-14.14,7.71-14.14c2.57-.93,48.49,11.94,54,19.29C358.14,46.4,354.91,56.61,352.12,63.34Z" opacity="0.2" fill="url(#e324262a-a033-4015-a8f0-5d60601661b0)"/><path d="M463.92,302c-1.1,3.78-2.19,7.63-3.2,11.55l0,0c-.14.53-24.53,19.79-27.37,23-2.4,2.71-11.17,10.61-10.53,17.24a21.82,21.82,0,0,0-4.32-5.89c-1.72-1.41-5.93-1.45-9.29-2.08,3.65-24.59,8.33-38.94,6.43-45.57-3.41-11.94-12.5-33.37-10.24-37.87,1.7-3.41,10.93-39.68,11.38-59.88.16-6.54-.61-11.4-2.85-12.93a12.63,12.63,0,0,0-2.3-1.07c2,.56,13.1,4.63,23.4,26.54,3.07,6.54,5.11,11.37,6.49,15.11,3.77,10.1,3,12.34,6,18.9a91.49,91.49,0,0,1,5.37,16.17c.92,4.06,1.25,7.33.74,8.6-1,2.47-6.36,1.73-5.73,5a6.78,6.78,0,0,0,.78,1.88,11.27,11.27,0,0,0,2.78,3.2c2.93,2.36,6.16,2.85,6.81,6.12.11.56.22,1.07.33,1.54.85,3.27,1.7,4.93-.33,7.46-2.33,2.91,1.85-2.17,3.78.29A31.55,31.55,0,0,1,463.92,302Z" fill="#895881"/><g opacity="0.5" style="mix-blend-mode:color-burn"><path d="M463.92,302c-1.1,3.78-2.19,7.63-3.2,11.55l0,0c-.14.53-24.53,19.79-27.37,23-2.4,2.71-11.17,10.61-10.53,17.24a21.82,21.82,0,0,0-4.32-5.89c-1.72-1.41-5.93-1.45-9.29-2.08,3.65-24.59,8.33-38.94,6.43-45.57-3.41-11.94-12.5-33.37-10.24-37.87,1.7-3.41,10.93-39.68,11.38-59.88.16-6.54-.61-11.4-2.85-12.93a12.63,12.63,0,0,0-2.3-1.07c2,.56,13.1,4.63,23.4,26.54,3.07,6.54,5.11,11.37,6.49,15.11,3.77,10.1,3,12.34,6,18.9a91.49,91.49,0,0,1,5.37,16.17c.92,4.06,1.25,7.33.74,8.6-1,2.47-6.36,1.73-5.73,5a6.78,6.78,0,0,0,.78,1.88,11.27,11.27,0,0,0,2.78,3.2c2.93,2.36,6.16,2.85,6.81,6.12.11.56.22,1.07.33,1.54.85,3.27,1.7,4.93-.33,7.46-2.33,2.91,1.85-2.17,3.78.29A31.55,31.55,0,0,1,463.92,302Z" fill="url(#ae1698f7-45e9-4af2-846e-05a98f936522)"/></g><path d="M415.73,300.74c.69,2.94.23,7.27-.8,13.18,0,.21-.07.41-.11.62-1.21,6.77-3.12,15.55-4.9,26.63-2.25,9.6-7.71,18.73-10.82,28.2a169,169,0,0,0-7.36,32.46c-4.42,36.67,5,72.07,13.5,107.36.18.78.32,1.5.41,2.16.56,4-.6,5.94-3,7.38q-3.6,1.54-7.26,2.94l-.71.27c-1.92.72-3.86,1.43-5.81,2.1-2.39.83-4.81,1.61-7.23,2.35-.73.23-1.47.45-2.21.66l-.67.2-1.88.53c-.69.2-1.4.39-2.09.57a1.41,1.41,0,0,1-.22.06c-.75.21-1.51.41-2.27.6l-2.6.64h0c-1,.25-2,.48-3,.71s-2.05.47-3.09.68l-.15,0c-1.91.4-3.82.78-5.74,1.12l-.66.12c-.93.17-1.84.32-2.76.47s-2.09.33-3.13.49-1.83.27-2.75.39l-.83.11c-.83.11-1.66.22-2.49.31l-.52.07-2.31.25-.84.1-2.8.25c-.9.09-1.82.16-2.72.23l-.78.06-1.79.12-1.38.08-2.59.13H329c-.63,0-1.27.06-1.91.07l-1.59.06c-1.18,0-2.35.06-3.53.06l-2.61,0H319c-1.16,0-2.31,0-3.46,0A210.19,210.19,0,0,1,206.37,503c-1.64-1.05-3.26-2.11-4.87-3.2h0l-.5-.34c-5.57-4.49-5.28-13.19-3.94-19.25.73-3.3,1.44-6.58,2.12-9.87v0A176.15,176.15,0,0,0,202,452.09a214.3,214.3,0,0,0-2-56.89,152.72,152.72,0,0,0-6.13-23.3c-1-3-2-5.89-3.13-8.8,0,0,0,0,0,0-1.47-4-3-7.9-4.46-11.84-.2-.84-.37-1.69-.55-2.55-1.31-6.57-1.9-13.55-3-19.78-1.79-10.62-3.39-21.27-4.61-32-.73-6.35-1.33-12.72-1.92-19.07q-1.77-19-3.55-38.11a85.55,85.55,0,0,1-.54-9.73c1.32-7.69,3.06-16.22,4.76-23.15,1.9-7.76,3.78-13.51,5-13.82l.18,0c5.31-1.13,33.87-8.18,45.42-11l.66-.17h0c.24,0,.45-.11.66-.16-3.18,6.16-1.48,10.46,3.31,18.56,6,10.13,12.52,21.46,30.4,31.6a87.28,87.28,0,0,0,39.2,10.73h1.28a38.41,38.41,0,0,0,7.37-.61c8.78-1.8,21.3-2.38,29.66-11.33s5.95-26.23,0-34.59c-4.95-6.88-9.42-12.18-10.81-13.78h0s66,1,82,6.23a.45.45,0,0,1,.14,0,11.82,11.82,0,0,1,2.46,1.12c9.13,6.28-6.27,68.31-8.54,72.81s6.83,25.93,10.23,37.87A4.43,4.43,0,0,1,415.73,300.74Z" fill="#895881"/><path d="M425.29,223c-2.28,11.64-16.71,33.52-17.6,34.89.45-.78,4.34-7.77,3.72-18.39-.5-8.86-4.15-20.29-15.52-32.71C370,178.53,354.19,156,354.7,130.22c.18-8.4.61-16.71.94-24.59.68-16.26.88-30.66-2.71-40.11-5.28-14-8.22-24.61-16.46-29.31s-26-8.45-26-8.45S301.2,16.59,295.31,7.88c0,0,1-11.06,24.9-7s48,16,55.07,38.28,1.19,74.12,15.88,88.79,45.31,33.75,20.6,48.62S427.64,211,425.29,223Z" fill="#ad764d"/><g opacity="0.5" style="mix-blend-mode:color-burn"><path d="M425.29,223c-2.28,11.65-16.7,33.52-17.6,34.89.45-.79,4.35-7.77,3.72-18.38-.5-8.87-4.15-20.3-15.52-32.72C370,178.52,354.19,156,354.7,130.22c.18-8.39.6-16.7.94-24.59.23-5.3.4-10.41.4-15.21,0-9.92-.69-18.53-3.11-24.9-.85-2.25-1.63-4.42-2.39-6.49-4-10.79-7.15-18.87-14.07-22.82-8.21-4.7-26-8.45-26-8.45S301.2,16.59,295.31,7.88c0,0,1-11.07,24.9-7s48,16,55.08,38.28,1.18,74.12,15.87,88.79,45.3,33.75,20.61,48.62S427.64,211,425.29,223Z" fill="url(#a4dff66d-f075-4310-8b70-ec05c2113da0)"/></g><path d="M262.3,130.22s-.27,25-.8,32.9c-2.38,1.12-3.74-1.08-11,8-5.38,6.68-4.75,11.92-2.62,15.57-3.9-4.44-7.75-10.62-5.87-16.35,3.45-10.55,19.84-29.05,8.49-46.6s-5-32.7-5-32.7l0,0c1.57,3.16,2,7.41,5.71,10.06a13.78,13.78,0,0,0,6.58,2.24S257.82,125.74,262.3,130.22Z" fill="#ad764d"/><g opacity="0.3" style="mix-blend-mode:color-burn"><path d="M262.3,130.22s-.27,25-.8,32.9c-2.38,1.12-3.74-1.08-11,8-5.38,6.68-4.75,11.92-2.62,15.57-3.9-4.44-7.75-10.62-5.87-16.35,3.45-10.55,19.84-29.05,8.49-46.6s-5-32.7-5-32.7l0,0c1.57,3.16,2,7.41,5.71,10.06a13.78,13.78,0,0,0,6.58,2.24S257.82,125.74,262.3,130.22Z" fill="url(#e1d45de2-3d7f-4cf6-bc28-1fdc733759f3)"/></g><path d="M56.9,163.44s-8.9-3-12.94-3.84-5.46-1.86-6.67-3.56-4-2.15-4.86-2.33-.74-3.84-5.72-6.15-11.26-4.34-12.07-.9,14.2,16.33,21.13,18.8,19.31,6.47,21.13,3.84S56.9,163.44,56.9,163.44Z" fill="#ecc19c"/><g opacity="0.3" style="mix-blend-mode:color-burn"><path d="M56.9,163.44s-8.9-3-12.94-3.84-5.46-1.86-6.67-3.56-4-2.15-4.86-2.33-.74-3.84-5.72-6.15-11.26-4.34-12.07-.9,14.2,16.33,21.13,18.8,19.31,6.47,21.13,3.84S56.9,163.44,56.9,163.44Z" fill="url(#b333fbd6-dff3-4a4e-ab5b-be5a0d64854c)"/></g><path d="M56.9,163.44s-8.9-3-12.94-3.84-5.46-1.86-6.67-3.56-4-2.15-4.86-2.33-.74-3.84-5.72-6.15-11.26-4.34-12.07-.9,14.2,16.33,21.13,18.8,19.31,6.47,21.13,3.84S56.9,163.44,56.9,163.44Z" fill="url(#a0637751-9d59-4166-a921-2b143f54554a)"/><path d="M7.57,147.56s-4.85-5.75-3.64-7.17,3.23-1.21,5.66,0,7.88,7.28,8.09,8.09,8.49,4.82,10.1,7.56,7.28,2.55,8.9,3.36,4.15-.21,6.47,2,10.62,5.69,4,6.47-16-2.07-19.61-3.36S7.57,147.56,7.57,147.56Z" fill="#ecc19c"/><path d="M356,90.42c-1.62,3.18-3.55,7-4.55,9.24-2,4.31-6,20.73-17.89,22.25-2.72.35-11.56-15.71-12.78-17,.05.42.12.85.21,1.27.29,1.27.58,2.53.76,3.8a26.7,26.7,0,0,1-3.23-10.81c.57-8.8,1.41-20.24,3.69-24,3.71-6.21,9.23-8.14,11.07-7.91s17,6.65,17,6.65.23-6.71,1.79-10.48c.27.72.54,1.44.81,2.18C355.35,71.89,356.05,80.5,356,90.42Z" opacity="0.2" fill="url(#bccc5e0f-3458-4f60-b9e8-50839455df15)" style="mix-blend-mode:multiply"/><path d="M7.57,147.56s-4.85-5.75-3.64-7.17,3.23-1.21,5.66,0,7.88,7.28,8.09,8.09,8.49,4.82,10.1,7.56,7.28,2.55,8.9,3.36,4.15-.21,6.47,2,10.62,5.69,4,6.47-16-2.07-19.61-3.36S7.57,147.56,7.57,147.56Z" fill="url(#b83c82ae-4e93-4018-87e4-05d9d8ca964a)"/><path d="M356,90.42c-1.62,3.18-3.55,7-4.55,9.24-2,4.31-6,20.73-17.89,22.25-2.72.35-11.56-15.71-12.78-17,.05.42.12.85.21,1.27.29,1.27.58,2.53.76,3.8a26.7,26.7,0,0,1-3.23-10.81c.57-8.8,1.41-20.24,3.69-24,3.71-6.21,9.23-8.14,11.07-7.91s17.86,7.6,17.86,7.6-.62-7.66.94-11.43c.27.72.54,1.44.81,2.18C355.35,71.89,356.05,80.5,356,90.42Z" opacity="0.2" fill="url(#b79180e9-c362-403c-ad50-7c506f971c41)" style="mix-blend-mode:multiply"/><path d="M10.6,157.17l-3.84-5.66S.69,145.65.09,144s2-3.43,5.25-2.42,7.69,2.6,9.91,5.95a30.78,30.78,0,0,1,2.83,4.91s7.28,3.09,8.9,6.12,4,1.62,5.86,1.82,9.9,2,11.12,4.12,4.65,9.42-2,9S10.6,157.17,10.6,157.17Z" fill="#ecc19c"/><g opacity="0.2" style="mix-blend-mode:color-burn"><path d="M10.6,157.17l-3.84-5.66S.69,145.65.09,144s2-3.43,5.25-2.42,7.69,2.6,9.91,5.95a30.78,30.78,0,0,1,2.83,4.91s7.28,3.09,8.9,6.12,4,1.62,5.86,1.82,9.9,2,11.12,4.12,4.65,9.42-2,9S10.6,157.17,10.6,157.17Z" fill="url(#a5e1c675-2b98-4a75-a16f-01fba5facab2)"/></g><path d="M10.6,157.17l-3.84-5.66S.69,145.65.09,144s2-3.43,5.25-2.42,7.69,2.6,9.91,5.95a30.78,30.78,0,0,1,2.83,4.91s7.28,3.09,8.9,6.12,4,1.62,5.86,1.82,9.9,2,11.12,4.12,4.65,9.42-2,9S10.6,157.17,10.6,157.17Z" fill="url(#f7e051da-4b91-470e-891a-2a36afb5fa49)"/><path d="M254.33,192.81a17.62,17.62,0,0,1-6.45-6.11A53.59,53.59,0,0,0,254.33,192.81Z" fill="#ad764d"/><g opacity="0.36" style="mix-blend-mode:color-burn"><path d="M415.16,300.74c1,4.19-.05,9-.8,13.18,0,.21-.07.41-.11.62-1.52,8.8-2.88,17.85-4.89,26.55,0,0,0,.05,0,.08-2.24,9.6-7.7,18.73-10.81,28.2a168.21,168.21,0,0,0-7.36,32.46c-4.42,36.67,5,72.07,13.5,107.36.18.78.32,1.5.41,2.16.56,4-.61,5.94-3.05,7.38a49.81,49.81,0,0,1-7.27,2.94l-.7.27c-1.92.72-3.86,1.43-5.81,2.1-2.39.83-4.81,1.61-7.24,2.35-.72.23-1.46.45-2.2.66l-.67.2-1.88.53-2.09.57-.22.06c-.76.21-1.51.41-2.27.6l-2.6.64H369c-1,.25-2,.48-3,.71s-2.06.47-3.09.68a.65.65,0,0,1-.16,0c-1.9.4-3.81.78-5.73,1.12-.22,0-.44.08-.67.12-.92.17-1.83.32-2.75.47s-2.09.33-3.13.49-1.83.27-2.76.39l-.82.11c-.83.11-1.66.22-2.49.31l-.52.07-2.31.25-.84.1-2.8.25c-.9.09-1.82.16-2.72.23l-.79.06-1.78.12-1.38.08-2.59.13h-.25c-.63,0-1.27.06-1.91.07l-1.59.06-3,.06-2.61,0H319c-1.16,0-2.31,0-3.46,0A210.18,210.18,0,0,1,205.8,503a29.65,29.65,0,0,1-4.3-3.2h0c-6.22-5.68-4.5-11.09-3.23-21.3q.52-4.07.91-8.16v0A176.15,176.15,0,0,0,202,452.09a214.3,214.3,0,0,0-2-56.89,152.72,152.72,0,0,0-6.13-23.3c-.23-1-.46-2-.72-3a28.51,28.51,0,0,0-2.41-5.8s0,0,0,0c-.73-1.42-1.48-2.83-2.07-4.24a48.11,48.11,0,0,1-2.39-7.6c-.2-.84-.37-1.69-.55-2.55-1.31-6.57-1.9-13.55-3-19.78-1.79-10.62-3.39-21.27-4.61-32-.73-6.35-1.33-12.72-1.92-19.07q-1.77-19-3.55-38.11a85.55,85.55,0,0,1-.54-9.73,40.21,40.21,0,0,1,.71-7.05c.32-1.63.64-3.27,1-4.9.19-.91.38-1.81.58-2.72.32-1.53.65-3,1-4.51.2-.89.41-1.78.63-2.66.1-.44.21-.88.31-1.31.35-1.45.71-2.82,1-4.1,1.53-5.61,3-9.47,4-9.72l.18,0c5.24-1.12,33.21-8,45-10.92l.41-.1c.47-.11.91-.23,1.32-.34a.83.83,0,0,0-.09.16h0c-3.06,6.07-1.34,10.36,3.4,18.39,6,10.13,12.52,21.46,30.39,31.6a87.12,87.12,0,0,0,39.78,10.73h1.28a37.71,37.71,0,0,0,6.8-.61c8.78-1.8,21.3-2.38,29.65-11.33s6-26.23,0-34.59c-4.95-6.89-9.43-12.2-10.81-13.79h.58c6.54.11,66.28,1.26,81.45,6.22a.38.38,0,0,1,.13,0,12.19,12.19,0,0,1,2.47,1.12c9.13,6.28-6.28,68.31-8.54,72.81s6.83,25.93,10.23,37.87A4.43,4.43,0,0,1,415.16,300.74Z" fill="url(#b88c2520-9b03-43ef-9ebf-a0a1e4bfb554)"/></g><path d="M410.16,515.33A212.69,212.69,0,0,1,206.37,503,22,22,0,0,1,217,493.44c25-10,20.47-43.67,10.24-69.87s-22.74-80.06-15.23-78.09,66.43,18,85.62,0,83.57,13.37,85.32-4c1.39-13.68,13.1-50.37,14.62-79.54,5.15,47.89,14.91,152.53-7.14,187.84C369.36,483.54,392.81,499.6,410.16,515.33Z" fill="#cccbcc" opacity="0.2" style="mix-blend-mode:multiply"/><path d="M384.73,324.09c-9.51-15.9-13.58-.27-9.62,1.41s-11.29,5.42-13.4-37.55c-1.36-27.68-10-28.63-28.1-41.7-7.74-5.59-13-32.1-8.06-44.8s5.19-51.32,5.19-51.32a32.86,32.86,0,0,0,8.82-9.83c6.16-10.77,11.27-23.67,13.84-30.68l2.45-8c-.34,7.88-1,20.2-1.15,28.6-.51,25.75,15.3,48.31,41.19,76.55,11.37,12.42,15,23.85,15.52,32.71-1.91,9.25-3.61,17.65-3.74,18.41a.06.06,0,0,0,0,.05s-9.4.22-7.81,9.74,10.32,17.69,4,29.49,10.33,41.21,14.29,43.58S394.27,340,384.73,324.09Z" fill="#9b6642"/><g opacity="0.5" style="mix-blend-mode:color-burn"><path d="M384.73,324.09c-9.52-15.9-13.58-.27-9.62,1.41s-11.3,5.41-13.4-37.55c-1.36-27.68-10-28.63-28.11-41.7-5.37-3.88-9.54-17.86-9.94-30.3-.16-5.46.39-10.62,1.89-14.49,4.89-12.56,5.18-50.35,5.19-51.31v0c.85-.64,1.68-1.33,2.5-2.06.39-.36.79-.74,1.18-1.12a31,31,0,0,0,5.14-6.65c6.16-10.77,11.27-23.67,13.84-30.68l2.24-4c-.34,7.89-.76,16.2-.94,24.59-.51,25.75,15.3,48.3,41.19,76.55,11.37,12.42,15,23.85,15.52,32.72-1.91,9.24-3.61,17.64-3.75,18.41,0,0,0,0,0,0s-9.41.22-7.82,9.74,10.32,17.69,4,29.49,10.33,41.2,14.29,43.58S394.27,340,384.73,324.09Z" fill="url(#bbcae5ec-232d-4104-b7fb-32cf96de584f)"/></g><path d="M87.06,164.35c-2.3.29-12.4.56-20.2-2a22.87,22.87,0,0,0-3.51-.89.55.55,0,0,0-.18,0,.37.37,0,0,0-.14,0c-1.65-.34-3.49-3.72-4.25-5.38s-1.5-5.62,1.68-7.43,5.44-.61,8,0,8,7.27,9.38,9.09,3.94,4.39,5.6,5A26.92,26.92,0,0,1,87.06,164.35Z" fill="#ecc19c"/><path d="M87.06,164.35c-2.3.29-12.4.56-20.2-2a22.87,22.87,0,0,0-3.51-.89.55.55,0,0,0-.18,0,.37.37,0,0,0-.14,0c-1.65-.34-3.49-3.72-4.25-5.38s-1.5-5.62,1.68-7.43,5.44-.61,8,0,8,7.27,9.38,9.09,3.94,4.39,5.6,5A26.92,26.92,0,0,1,87.06,164.35Z" opacity="0.38" fill="url(#fbec703a-c904-41f8-a3c7-df61af4cb678)" style="mix-blend-mode:color-burn"/><path d="M87.06,164.35c-2.3.29-12.4.56-20.2-2a22.87,22.87,0,0,0-3.51-.89.55.55,0,0,0-.18,0,.37.37,0,0,0-.14,0c-1.65-.34-3.49-3.72-4.25-5.38s-1.5-5.62,1.68-7.43,5.44-.61,8,0,8,7.27,9.38,9.09,3.94,4.39,5.6,5A26.92,26.92,0,0,1,87.06,164.35Z" fill="url(#e9e12fcc-7f76-43e7-b01c-62a86c893d1f)"/><path d="M327.17,83.68c.08.13,5-1.13,5.42-1.2,2.9-.46,6.34-.74,9.19.12a7.32,7.32,0,0,1,1.63.69c2.31,1.36,2.26,5.09,4.76,5.93,1.79.61,4.84.33,6.06-1.27,1.75-2.3,2.86-4.37,2.09-7s-5.1-9.44-9.49-8.13-12.64-4.11-15.91-.74S324.86,80,327.17,83.68Z" opacity="0.5" fill="url(#babb65ed-ac23-4b99-aefe-18b87129bff7)" style="mix-blend-mode:multiply"/><path d="M111.63,189.7c1,3.16-29.76,17.67-32.36,17.07,0,0,.85-4.06-6.36-8.67s-16.73-13.84-27.1-16.44-14.42-3.76-17.31-3.47-10.39-8.64-13-11S8.59,156,8.3,155.1s4.61-5.46,8.65,0,7.79,9.54,10.39,11.27,12.4,1.14,13.28,2.3-.88-4,1.72-4.32,7.5-2.31,11-2.31c2.83,0,4.89-1.54,9.86-.67a.55.55,0,0,1,.18,0,22.87,22.87,0,0,1,3.51.89c7.8,2.6,17.9,2.33,20.2,2a13.53,13.53,0,0,1,8.36,1.43c3.47,1.73,6.25,4.91,10.19,7.8s6.54,5.51,6,8.08A13.75,13.75,0,0,0,111.63,189.7Z" fill="#ecc19c"/><path d="M553.73,172.49s6.23-4.81,7-8.4-4-5.22-7-3.88-9.32,6.21-9.92,10.8S553.73,172.49,553.73,172.49Z" fill="#ecc19c"/><path d="M553.73,172.49s6.23-4.81,7-8.4-4-5.22-7-3.88-9.32,6.21-9.92,10.8S553.73,172.49,553.73,172.49Z" opacity="0.43" fill="url(#ab6acce0-52ac-4569-bccb-fd8d4f313da6)" style="mix-blend-mode:color-burn"/><path d="M553.73,172.49s6.23-4.81,7-8.4-4-5.22-7-3.88-9.32,6.21-9.92,10.8S553.73,172.49,553.73,172.49Z" fill="url(#b4a70bca-4121-43d8-96d6-608842139e74)"/><path d="M111.63,189.7c1,3.16-29.76,17.67-32.36,17.07,0,0,.85-4.06-6.36-8.67s-16.73-13.84-27.09-16.44-14.43-3.76-17.32-3.47-10.39-8.64-13-11S8.6,156,8.3,155.1s4.61-5.46,8.64,0,7.8,9.54,10.4,11.27,12.4,1.14,13.28,2.3-.88-4,1.72-4.32a24.46,24.46,0,0,0,3.59-.83A30.66,30.66,0,0,1,53.31,162c2.83,0,4.88-1.55,9.86-.67a1,1,0,0,1,.18,0,22.87,22.87,0,0,1,3.51.89c7.79,2.6,17.9,2.33,20.21,2a13.45,13.45,0,0,1,8.35,1.44c3.46,1.71,6.23,4.88,10.15,7.76l0,0c4,2.89,6.55,5.5,6,8.08A13.84,13.84,0,0,0,111.63,189.7Z" fill="url(#a369e92d-1401-46ea-957c-4165deb2f1cf)"/><path d="M560.53,179.91c-.1,1.05-.22,1.75-.22,1.75l-12.52,8.09s-11.22,3.85-21.59,8.17-16.88,10.66-19.8,18c-2.37,6-2.1,15.55-2.1,15.55-1.21,25.58,3.78,85.55.33,98.49s-9.06,36.71-9.92,47-1.29,11.67-5.62,17.69-8.62,2.6-17.26,2.6-16.4-3.45-19-9.5c-1.83-4.25-6-8.28-8.31-10.3,0,0,0,0,0,0-.94-.85-1.57-1.32-1.57-1.32s-3.45-3,2.58-9.51a36.59,36.59,0,0,0,5.18-7.77c.41-.8.82-1.61,1.2-2.41a101.22,101.22,0,0,0,4.41-11A105.4,105.4,0,0,1,458.35,324c.17-.9.33-1.77.53-2.65s.32-1.57.49-2.32c.43-1.84.86-3.65,1.33-5.44l0,0c1-3.92,2.1-7.76,3.2-11.56,1.5-5.19,3-10.31,4.23-15.42,3.66-15.33,5.47-53.66,6.06-67.65.11-2.71.18-4.5.21-5a9.29,9.29,0,0,1,.16-1.17c.74-3.72,3.82-10.13,7.46-15.95,4.59-7.35,12.38-16.2,20.76-18.86,2.91-.93,11-1.95,16.93-3.23,10.5-2.26,17.71-2.2,21.59-4.32s12.95-1.32,16.84,0a2.63,2.63,0,0,1,1.22.92C560.94,173.22,560.78,177.5,560.53,179.91Z" fill="#ecc19c"/><g opacity="0.3" style="mix-blend-mode:multiply"><path d="M560.53,179.91c-.1,1.05-.22,1.75-.22,1.75l-12.52,8.09s-11.22,3.85-21.59,8.17-16.88,10.66-19.8,18c-2.37,6-2.1,15.55-2.1,15.55-1.21,25.58,3.78,85.55.33,98.49s-9.06,36.71-9.92,47-1.29,11.67-5.62,17.69-8.62,2.6-17.26,2.6-16.4-3.45-19-9.5c-1.83-4.25-6-8.28-8.31-10.3,0,0,0,0,0,0-.94-.85-1.57-1.32-1.57-1.32s-3.45-3,2.58-9.51a36.59,36.59,0,0,0,5.18-7.77c.41-.8.82-1.61,1.2-2.41a101.22,101.22,0,0,0,4.41-11A105.4,105.4,0,0,1,458.35,324c.17-.9.33-1.77.53-2.65s.32-1.57.49-2.32c.43-1.84.86-3.65,1.33-5.44l0,0c1-3.92,2.1-7.76,3.2-11.56,1.5-5.19,3-10.31,4.23-15.42,1.31-5.51,2.39-14,3.26-23.24,0-.17,0-.34,0-.52,1.52-16.37,2.38-35,2.76-43.89.08-1.92.14-3.39.18-4.27q0-.54,0-.78a9.29,9.29,0,0,1,.16-1.17c.74-3.72,3.82-10.13,7.46-15.95,4.59-7.35,12.38-16.2,20.76-18.86,2.91-.93,11-1.95,16.93-3.23,10.5-2.26,17.71-2.2,21.59-4.32s12.95-1.32,16.84,0a2.63,2.63,0,0,1,1.22.92C560.94,173.22,560.78,177.5,560.53,179.91Z" fill="url(#b140acc9-7840-4b7b-a6e5-e37e161f6112)"/></g><path d="M460.7,313.57c-.88,3.4-1.68,6.85-2.35,10.41a104.65,104.65,0,0,0-2.06,21.54s-4.75,14.67-10.8,21.14-2.57,9.52-2.57,9.52.56.43,1.43,1.21c-1.73-1.28-10.26-7.64-13.68-10.73-3-2.66-3.88-5.24-5.11-7.39a11.86,11.86,0,0,0-1.19-1.74,6.68,6.68,0,0,1-1.57-3.68c-.64-6.63,8.13-14.53,10.53-17.24C436.17,333.36,460.56,314.1,460.7,313.57Z" fill="#a17a94"/><g opacity="0.5" style="mix-blend-mode:color-burn"><path d="M460.7,313.57c-.88,3.4-1.68,6.85-2.35,10.41a104.65,104.65,0,0,0-2.06,21.54s-4.75,14.67-10.8,21.14-2.57,9.52-2.57,9.52.56.43,1.43,1.21c-1.73-1.28-10.26-7.64-13.68-10.73-3-2.66-3.88-5.24-5.11-7.39a11.86,11.86,0,0,0-1.19-1.74,6.68,6.68,0,0,1-1.57-3.68c-.64-6.63,8.13-14.53,10.53-17.24C436.17,333.36,460.56,314.1,460.7,313.57Z" fill="url(#b40f0181-54ab-4ff1-a6e8-ddb870adef05)"/></g><path d="M580,177c0,1.38,7.33-5.06,14-8s12.29-6,13-7.64,1.21-6.38-5.32-5.62S580,163.67,580,177Z" fill="#ecc19c"/><path d="M580,177c0,1.38,7.33-5.06,14-8s12.29-6,13-7.64,1.21-6.38-5.32-5.62S580,163.67,580,177Z" opacity="0.47" fill="url(#ac376759-1edb-4a70-9832-2c882bb057ca)" style="mix-blend-mode:color-burn"/><path d="M555.51,184.33c.88,0,22.64-5.88,23.82-6.2s9.47-11,12-14,10.21-13.24,10.36-15.44-3.1-7.39-9.17-2.06S576.26,168.57,575,169,553.08,180.25,555.51,184.33Z" fill="#ecc19c"/><path d="M555.51,184.33c.88,0,22.64-5.88,23.82-6.2s9.47-11,12-14,10.21-13.24,10.36-15.44-3.1-7.39-9.17-2.06S576.26,168.57,575,169,553.08,180.25,555.51,184.33Z" fill="url(#ad3533e5-d91e-4412-8400-df191b03999d)"/><path d="M555.51,184.33c.88,0,22.64-5.88,23.82-6.2s9.47-11,12-14,10.21-13.24,10.36-15.44-3.1-7.39-9.17-2.06S576.26,168.57,575,169,553.08,180.25,555.51,184.33Z" opacity="0.5" fill="url(#e7d578f8-b60f-49bc-9536-af6aa7547bef)" style="mix-blend-mode:color-burn"/><path d="M562.61,178.11s6.81.26,9.77-1.12,9.47-12.64,13.32-15.3,6.66-7.55,6.8-8.59-2.81-7.25-8.73-3A28,28,0,0,0,575.19,161s-7.55,5.36-9.47,8.08S561.86,178.1,562.61,178.11Z" fill="#ecc19c"/><path d="M560.53,179.91c-.1,1.05-.22,1.75-.22,1.75l-12.52,8.09s-11.22,3.85-21.59,8.17-16.88,10.66-19.8,18c-2.37,6-2.1,15.55-2.1,15.55-1.21,25.58,3.78,85.55.33,98.49s-9.06,36.71-9.92,47-1.29,11.67-5.62,17.69-8.62,2.6-17.26,2.6-16.4-3.45-19-9.5c-1.83-4.25-6-8.28-8.31-10.3,0,0,0,0,0,0-.94-.85-1.57-1.32-1.57-1.32s-3.45-3,2.58-9.51a36.59,36.59,0,0,0,5.18-7.77c.41-.8.82-1.61,1.2-2.41,1.1,6.76-11.74,13.32-1.2,20.9,11.9,8.56,20.3,3.69,23.91,7.32s13.64.46,13.18-3.63-1.81-3.69-1.81-3.69.93-35.49,4.1-50,6.33-76.07,5.88-86.9-1.79-13.29-3.61-19.39c-1.56-5.24.27-9.6,5-15.23l.07-.08c.84-.93,1.67-1.87,2.45-2.79.2-.24.41-.47.6-.71a33.16,33.16,0,0,0,4.91-7.2c2.41-5.89,9.62-12.4,13.9-13.42,2-.48,6.17-1.78,10.39-2.9h0C534.68,178.23,552.32,180.36,560.53,179.91Z" opacity="0.4" fill="url(#aaf2deb3-c50a-43c5-a382-213ea1877b68)"/><path d="M497.37,205.78c.73-.89,1.55-1.82,2.45-2.79C499,203.91,498.21,204.85,497.37,205.78Z" opacity="0.4" fill="url(#b6ac0c06-e99e-4c72-a4f3-cf27665855ff)"/><path d="M570.15,166.72c-.14.59-4.58,12.28-5.32,13.31s-9.33,8.74-11.1,9.63-22.05-1.15-22.05-1.15c-3.33-6.55-1.7-9.38,1-10.6a16.68,16.68,0,0,1,6.51-.93c4.89,0,9.18,4.24,10.37,2.91s7.25-4.14,8.72-4.88,1.67-2.68,4.45-8.29c2-4,5-2.57,6.5-1.21C569.85,166,570.2,166.55,570.15,166.72Z" fill="#e4b69d"/><path d="M416.76,202.56c.16-6.54-.61-11.4-2.85-12.93a12.63,12.63,0,0,0-2.3-1.07c2,.56,13.1,4.63,23.4,26.54,3.07,6.54,5.11,11.37,6.49,15.11-6.33,7.24-15.74,14-12.76,7.86,4-8.35-.31-18.25-3.36-23.2C423.86,212.36,420.14,207.5,416.76,202.56Z" fill="url(#f6b8f608-459a-49d2-b114-d65f472c9c52)"/><path d="M422.76,292.83c-7.5-.32,1.34-5.58,7.84-10.84s-8,2.17-12.12-1.55,5.31-4.95,11.49-11.75-2.46-8.65,1.26-15.77,10.5,3.72,12.36,9.52c1.18,3.74,5.33,3.58,9.29,2.84.92,4.06,1.25,7.33.74,8.6-1,2.47-6.36,1.73-5.73,5C439.94,282.73,428.25,293,422.76,292.83Z" fill="url(#fb18ec6c-df9d-4665-afd5-cdcda4f12bec)"/><path d="M458.59,291.66c-10,6.23-35.23,31.15-35.83,29.3-.69-2.15,2.89-5.87,7.52-11.45s3.41-3.09-.91-4.32,2.46-8.67,5.51-12.36c1.88-2.31,11.1-5.56,16.57-8.83,2.93,2.36,6.16,2.85,6.81,6.12C458.37,290.68,458.48,291.19,458.59,291.66Z" opacity="0.6" fill="url(#aa21c629-ba80-4d82-aec2-0530876a49e7)"/><path d="M311.5,64.42a10.54,10.54,0,0,1,1.25,1.67A17.59,17.59,0,0,1,314,68.9a12.45,12.45,0,0,1,1,4.74,9.32,9.32,0,0,1-.79,3.1A5,5,0,0,1,312,79.59a4.39,4.39,0,0,1-1.87.31,8.1,8.1,0,0,1-4.18-1.18,5.86,5.86,0,0,1-1.79-2.54,16.16,16.16,0,0,0-4.43-6.09c-3.37-2.57-9.74-3.19-11.61-3-.71.09-.6-1.38-.56-1.75a6.61,6.61,0,0,1,1.8-3.67c2.21-2.33,5.62-2.81,8.68-2.55a29.64,29.64,0,0,1,8,2,13.09,13.09,0,0,1,3.45,1.37A14,14,0,0,1,311.5,64.42Z" opacity="0.4" fill="url(#b572d34d-cec1-4f57-ae52-879b42c50f09)"/><path d="M333,72.89a1.31,1.31,0,0,1-.89.5,16.1,16.1,0,0,0-10.8,9.84c-.89,2.43-.75,4.72-.67,7.28.09,3.16.2,6.33.06,9.5a28.11,28.11,0,0,0,.1,4.85c.05.42.12.85.21,1.27a30.89,30.89,0,0,1,1,6.83,4.43,4.43,0,0,1-.07.81c-.37,1.71-1.52,1.85-2.79,1.17a8.36,8.36,0,0,0-4.59-.82c-.89,0-1.78.12-2.66.1a7.23,7.23,0,0,1-2.17-.33,3.74,3.74,0,0,1-1.32-.7c-.66-.54-1.73-2-1.12-2.73s2.34-.58,3.12-.47a8.5,8.5,0,0,0,3.93-.39c1.41-.52,2.39-1.37,2.51-2.22,0-.21.06-.43.07-.64.11-1.26,0-2.58,0-3.83a138.3,138.3,0,0,1,1.22-16.51,30.11,30.11,0,0,1,3.71-11.69c1.81-3,4.15-5.52,7.57-6.4.77-.2,1.83-.27,2.15.45.24.54-.11,1.17.05,1.74s.58.77.93,1.1S333.27,72.48,333,72.89Z" opacity="0.5" fill="url(#babe5c81-808a-4ec9-a69d-2f971627189e)"/><path d="M320.87,130.19a2.72,2.72,0,0,1-.85,1.25c-2,2-4.9,3.58-7.78,3.39a42.58,42.58,0,0,1-6.7-1.37,53.61,53.61,0,0,1-6.76-1.74,13.72,13.72,0,0,1-4.56-3.52h0c-.73-.78-2.93-3.2-2.36-4.5a.93.93,0,0,1,.22-.31c1-1,3.6.36,4.68.64,2.38.6,4.74,1.28,7.11,1.93h0c1.43.39,2.86.77,4.3,1.12,1.09.27,2.18.49,3.29.69h0c2,.35,3.94.61,5.9.92C318.9,128.93,321.11,129,320.87,130.19Z" fill="#ab6d56"/><path d="M311,132.67c-.87.09-2.33-.26-7.16-1.14a40.29,40.29,0,0,1-9.58-3.33h0c-.73-.78-2.93-3.2-2.36-4.5a.93.93,0,0,1,.19-.28s0,0,0,0a14.84,14.84,0,0,0,3.83,2,13.77,13.77,0,0,0,1.37.46l-.54,0s2.57.88,6,2.27,6.8,1.31,8.71,2S311.82,132.57,311,132.67Z" opacity="0.2" fill="url(#aa1416e5-4b94-4099-aea4-1be0c5c92d57)"/><path d="M308.1,127.06a17,17,0,0,0-3.84-.19,23.67,23.67,0,0,1-7-1h0a13.77,13.77,0,0,1-1.37-.46,14.84,14.84,0,0,1-3.83-2s0,0,0,0a0,0,0,0,1,0,0c1-1,3.6.36,4.68.64,2.38.6,4.74,1.28,7.11,1.93h0C305.29,126.34,306.69,126.71,308.1,127.06Z" fill="#ab6d56"/><path d="M320.87,130.19a2,2,0,0,1-.55.92,4.09,4.09,0,0,1-.3.33c-2,2-4.9,3.58-7.78,3.39a42.58,42.58,0,0,1-6.7-1.37,53.61,53.61,0,0,1-6.76-1.74,13.72,13.72,0,0,1-4.56-3.52,40.29,40.29,0,0,0,9.58,3.33c4.83.88,6.29,1.23,7.16,1.14s2.43-1.73.52-2.45-5.23-.64-8.71-2-6-2.27-6-2.27l.54,0h0a23.67,23.67,0,0,0,7,1,17,17,0,0,1,3.84.19l.09,0c1.09.27,2.18.49,3.29.69h0c2,.35,3.94.61,5.9.92C318.9,128.93,321.11,129,320.87,130.19Z" fill="#ab6d56"/><ellipse cx="295.52" cy="74.77" rx="3.68" ry="3.69" transform="matrix(0.07, -1, 1, 0.07, 199.84, 364.2)" fill="#4f4f4d"/><ellipse cx="295.63" cy="73.79" rx="1.57" ry="1.46" transform="translate(200.93 363.4) rotate(-85.91)" fill="#0f1110"/><path d="M302.78,78.19s-2-4.09-4-5.2-7.75-2.54-10.46-1.78-5.28-.35-5.89-1.07,1.19,1.36,3.36.24c2.94-1.51,9.92-.95,11.59,0A11.46,11.46,0,0,1,301,73.22C302.23,74.65,302.78,78.19,302.78,78.19Z" fill="#704a37"/><path d="M286.31,72.42a9.71,9.71,0,0,0,3.42,4.14c2.4,1.52,8.47,2.32,9.21,2.15s3.06.08,2.13.6-5.33,0-7.49-.53a18.11,18.11,0,0,1-6.35-3.25c-.51-.63-3.21-3-2.57-3.22A3.36,3.36,0,0,1,286.31,72.42Z" fill="#b08874"/><path d="M310.61,64.42c-2.61,1.83-5.55-.65-8.21-1.15l-7.81-1.48a31.45,31.45,0,0,0-3.71-.48,9.46,9.46,0,0,0-1.68,0c-.24,0-.48.08-.74.1l-.95.24a51.07,51.07,0,0,0-7.63,2.62c1.41-2.66,3.9-4.46,6.36-5.87l.95-.52c.4-.15.82-.29,1.24-.42a12.79,12.79,0,0,1,2.38-.38,18.89,18.89,0,0,1,4.42.31c2.85.49,11.47,2.53,14.28,2.79C316.39,60.82,310.56,64,310.61,64.42Z" fill="#8c6239"/><path d="M331.53,70.07c.84,3.2,14.3,6.6,15.71,7.26,4.25,2,5.89,6.47,6.07,6.67l.59.84c1.49,2.33.06-5.22-.18-5.61-.5-.73-1.12-3.66-4.73-6.66-2.55-1.61-11.4-4.38-13.9-5.89C330.14,63.69,331.83,69.8,331.53,70.07Z" fill="#8c6239"/><ellipse cx="336.99" cy="86.79" rx="3.89" ry="3.69" transform="translate(211.66 411.43) rotate(-83.33)" fill="#4f4f4d"/><ellipse cx="337.15" cy="85.75" rx="1.66" ry="1.46" transform="translate(212.83 410.67) rotate(-83.33)" fill="#0f1110"/><path d="M327.25,84.6c.3.57,4.94-.73,6.4-.93s6.84,1,7.88,1.81c1.48,1.17,2.82,3.75,3.67,4.83s4.14,1.72,4.82.57c0,0-2.95.15-3.84-1.56s-2-4.15-4.75-5.26-5.3-2.17-8.87-.82A35.6,35.6,0,0,1,327.25,84.6Z" fill="#704a37"/><path d="M331,87.44c1.46.74,4.25,2.84,7.66,3.46a29.88,29.88,0,0,0,6.09.71c.33-.1.79.67.36,1s-2.7.08-4.09-.17a29.63,29.63,0,0,1-5.89-1.76A19.83,19.83,0,0,1,331,87.44Z" fill="#b08874"/><g opacity="0.4" style="mix-blend-mode:color-burn"><path d="M303.61,80.16s4.46,2.5,4.46,4.24,4.16-4,5.79-7.11-.22-12.41-3.41-12.19S297,60,295.32,60.93s4.83,5,1,6.59-13.4-1.8-13.28,1-.68,3.41,1,3.36,10-.39,12.55.4,4.52,1.7,5.54,3.42A15.85,15.85,0,0,1,303.61,80.16Z" fill="url(#adff31d6-9ba8-4669-b13d-a45ab3910426)"/></g><path d="M105.57,173.55c-1.43-.27-3.51-1-5.91-1.71-5.94-1.74-9.87,1.41-13.93,2.47s4.58,6.18,2.65,8.29-16.59,0-24.7-1.94S51.87,172.72,52,170.33s-6-4-6.11-6.8h0A30.66,30.66,0,0,1,53.31,162c2.83,0,4.88-1.55,9.86-.67a1,1,0,0,1,.18,0,22.87,22.87,0,0,1,3.51.89c7.79,2.6,17.9,2.33,20.21,2a13.45,13.45,0,0,1,8.35,1.44C98.88,167.5,101.65,170.67,105.57,173.55Z" opacity="0.8" fill="url(#b8a42292-ae28-4951-bc9b-37bf1fa89929)"/><path d="M90.28,396.68c-2.4-1.87-5.43-6.69-8.34-12.83-3.55-14.05-8.55-42.84-5.89-69.12,3.51-35,7-69.42,5.86-83.24-.31-3.67-.66-6.9-1-9.74,1.36-2.93,2.41-6.14,2.21-8.83A25.29,25.29,0,0,0,80.58,205c-2.12-4.66-4.3-8.72-1.13-9.55,2-.52,4.53,2.43,6.8,6.75,3.23,6.18,6,15.17,6.25,20.79.42,9.55,1.7,68.78,0,79.44s-2.54,64.77.86,73.29S95.91,401,90.28,396.68Z" fill="url(#a30c3c01-f145-4934-9a14-cee1ccaab1be)"/><path d="M559.38,171.25a20,20,0,0,1-4.07,2.26c-4.33,1.93-10.54,4.94-14.22,3.67-2-.68-6.74.33-11.47,1.58h0c-4.22,1.12-8.37,2.42-10.39,2.9-4.28,1-11.49,7.53-13.9,13.42a33.16,33.16,0,0,1-4.91,7.2c-.19.24-.4.47-.6.71-.78.92-1.61,1.86-2.45,2.79l-.07.08c-4.62,5.08-9.72,9.85-11.21,10.59-2.41,1.21-8.73.89-11.51-3.76.74-3.72,3.82-10.13,7.46-15.95,4.59-7.35,12.38-16.2,20.76-18.86,2.91-.93,11-1.95,16.93-3.23,10.5-2.26,17.71-2.2,21.59-4.32s12.95-1.32,16.84,0A2.63,2.63,0,0,1,559.38,171.25Z" fill="url(#a95ec6cd-05ad-4b11-9ed1-080dd1fd268e)"/><path d="M477.47,294.17c1.73,30.33-3.44,60.38-9.92,63.46-4.44,2.13-10.71,7.27-12.95.48a117.51,117.51,0,0,0,4.63-13.86,136.71,136.71,0,0,1,1.71-22.32c.15-.92.28-1.83.44-2.74s.26-1.62.41-2.4c.35-1.9.71-3.78,1.1-5.64v0c.83-4.05,1.74-8,2.64-12,1.25-5.37,2.49-10.68,3.51-16,.92-4.86,1.7-11.94,2.36-19.85,0-.17,0-.34,0-.52,1.52-16.37,2.38-35,2.76-43.89.08-1.92.14-3.39.18-4.27.81,3.52,1.66,5.76,3.08,7.08C480.49,224.48,475.75,263.84,477.47,294.17Z" fill="url(#f7ba559d-32b0-4b4e-adf5-b9079078922c)"/><path d="M569.26,165.51c-6.86-.66-6.17,7.76-9.88,12.63s-7.24,5.71-13.92,2.62c-1.42-.66-4.06-2.55-6.21-2.29-11.77,1.44-7.2,9.15-9.18,5.86-1-1.6-.56-5.6,2.64-6.42a30.4,30.4,0,0,1,6.51-.93c4.89,0,9.18,4.24,10.37,2.91s7.25-4.14,8.72-4.88,1.67-2.68,4.45-8.29C564.75,162.69,567.77,164.15,569.26,165.51Z" fill="url(#b8e8bdf9-b720-4aa6-8366-9c1b57c5a5ec)"/><path d="M317.82,130.9a36.77,36.77,0,0,1-7.39-3,13.16,13.16,0,0,0-2.33-.89,17,17,0,0,0-3.84-.19,23.79,23.79,0,0,1-7-1,13.77,13.77,0,0,1-1.37-.46,14.84,14.84,0,0,1-3.83-2c-.3-.23-.24-.05-.3-.23,0,0-.07,0,0-.13a3,3,0,0,1,1.57-1.12,32.3,32.3,0,0,1,3.36-.83c3.36-.64,6.43-.31,7.4.13a4.18,4.18,0,0,1,1,.63,2.31,2.31,0,0,1,.24.2h0c.89.77,1.58,1.69,2.57,2s3.07-.77,4-.9l.16,0h.32a13.94,13.94,0,0,1,5.34,2.17c1.17,1.19,2.86,3,3.24,4.69S319,131.16,317.82,130.9Z" fill="#b1735a"/><path d="M299.53,107.29a3.72,3.72,0,0,1,1.09-3.36c1.54-1.56,2.72-2.59,2.72-2.59s1-2.07,0-2.18S298,104.64,299.53,107.29Z" fill="url(#b8e03013-fcf4-411f-a13e-3e906bd104f1)"/><path d="M300.62,103.93s-1.63,1.21-1,4.15,5.12,1.5,6.05,2.94,1.48,3.16,4.32,3.5,4.1.28,5.08-.31a5.34,5.34,0,0,1,3.14-.61c1.49.15,3.21,2.47,4,.07.48-1.41-.27-3.09-.68-4.44a30.23,30.23,0,0,1-1.61-5.3c-.24-2.11-.67,4.66-3.93,5.66s-5.29.63-6.6-1.11-1.44-4-3.44-3.84S301.31,104.61,300.62,103.93Z" opacity="0.37" fill="url(#a3eb7a29-3c44-42c0-848b-e6c5ad0ce079)"/><path d="M300.05,108.19c.44.58,3.79-1.09,6,1.73s2.11,3.38,4.77,3.74,4.56-.11,6.34,0,2.53,0,3.29,1,2-.84,1.28-1.69-2.76-2-3.82-1.82-4.34,1.46-6.61,0-4.51-3.55-5.61-3.72S298.8,106.55,300.05,108.19Z" opacity="0.59" fill="url(#eff5352f-26c1-4a68-a370-14cfd38bb2ad)"/><g opacity="0.5"><path d="M314.49,113.84a1.76,1.76,0,0,1,.75-.31c.26-.08.53-.15.79-.21a12.39,12.39,0,0,1,1.62-.23,7.69,7.69,0,0,1,.83,0h.21a1.1,1.1,0,0,1,.26.06,1.74,1.74,0,0,1,.4.23,1.45,1.45,0,0,1,.61,1.55h0a1.68,1.68,0,0,0-.84-1.17,1.2,1.2,0,0,0-.3-.15.38.38,0,0,0-.13,0l-.19,0c-.27,0-.53,0-.8,0a12.12,12.12,0,0,0-1.59.1c-.53,0-1.07.18-1.58.24Z" fill="#6b5146"/></g><g opacity="0.5"><path d="M306.5,110.59c-.43-.28-.85-.64-1.31-.91a12.79,12.79,0,0,0-1.4-.78c-.24-.11-.48-.21-.73-.3l-.18-.07-.14,0a1.31,1.31,0,0,0-.34,0,1.62,1.62,0,0,0-1.25.69h0c0-.62.67-1,1.23-1.14a2.27,2.27,0,0,1,.46,0,1.45,1.45,0,0,1,.26.07l.19.08.73.4a12.35,12.35,0,0,1,1.35.92c.21.17.42.34.62.52s.44.34.54.61Z" fill="#6b5146"/></g><path d="M307.7,113.68a61.63,61.63,0,0,0-2.38,6.71c-.59,2.74,2.26,3.54,2.58,3.65,1.36.48,4.16-.78,4.2-1.3.13-1.64,0-6.86,0-7.44S307.7,113.68,307.7,113.68Z" opacity="0.5" fill="url(#b5856c09-d578-491c-b0c5-e4a21740a02e)"/><g opacity="0.5"><path d="M311.67,123.21l-2.05.7a4.35,4.35,0,0,1-2.18,0,4.81,4.81,0,0,1-1.79-1.27,2.67,2.67,0,0,1-.7-2.07,18.56,18.56,0,0,1,1.31-4.15c.28-.67.58-1.33.88-2l.23-.49c0-.08.07-.17.1-.23a.45.45,0,0,0,0-.06s0,0,0,0a3.9,3.9,0,0,1-.78-.79,5.91,5.91,0,0,0-1.35-1.6,4.81,4.81,0,0,0-1.89-.79,16.11,16.11,0,0,1-2.15-.4,2.81,2.81,0,0,1-1.66-1.54,3.75,3.75,0,0,1-.31-2.21,4.59,4.59,0,0,1,.84-2,18.07,18.07,0,0,1,3.15-3l0,0a18.28,18.28,0,0,0-3.05,3,4,4,0,0,0-.31,4,2.37,2.37,0,0,0,1.46,1.28,17.34,17.34,0,0,0,2.09.38,4.84,4.84,0,0,1,2.07.89,6.31,6.31,0,0,1,1.4,1.72,4,4,0,0,0,.72.76.35.35,0,0,1,.12.22.41.41,0,0,1,0,.22c0,.1-.08.18-.12.26l-.23.49c-.32.65-.62,1.3-.91,2a18.16,18.16,0,0,0-1.37,4.06,2.5,2.5,0,0,0,.62,1.92,4.61,4.61,0,0,0,1.69,1.24,4.3,4.3,0,0,0,2.11,0l2.06-.65Z" fill="url(#abd3968f-7d1a-458e-81f1-d8632605eeea)"/></g><path d="M314.84,72.67c-.12,2.29-.28,4.59-.53,6.87s-.54,4.58-1,6.85-1.19,4.45-1.8,6.67-1.28,4.41-2,6.61l-.07,0c.47-2.25,1-4.49,1.51-6.73l1.64-6.68c.53-2.22.94-4.48,1.27-6.75s.64-4.54.87-6.83Z" fill="url(#f65e005c-28fb-4eab-88b1-814c9fddb0f7)"/><path d="M303.8,76.1a25.54,25.54,0,0,0-3.27-4.8,5.84,5.84,0,0,0-1-.9c-.41-.25-.82-.49-1.24-.7a12,12,0,0,0-2.65-1,13.9,13.9,0,0,0-5.64-.12,20,20,0,0,0-5.43,2A16,16,0,0,1,289.81,68a12.34,12.34,0,0,1,6-.15A11.36,11.36,0,0,1,298.65,69c.44.26.86.53,1.27.83A6.69,6.69,0,0,1,301,70.86,18.72,18.72,0,0,1,303.8,76.1Z" fill="url(#a6b04652-e3d7-4cdd-adc0-96ba82208e82)"/><path d="M358.88,87.92c-1.31,8.1-3.07,16-3.07,16s-.65,2-1.83,5.15c-2.58,7-7.69,19.91-13.85,30.68a30.61,30.61,0,0,1-5.59,7.07,34.69,34.69,0,0,1-3.23,2.76,48.69,48.69,0,0,1-15.47,7.54c-1.66.5-3.3,1.1-4.94,1.66-1.14.24-2.09.38-2.78.47l-.4,0c-.27,0-.5,0-.63,0-1.43,0-4.67-.91-8.58-2.16-2.22-.7-4.65-1.51-7.1-2.32a16.93,16.93,0,0,1-3.68-2,4.54,4.54,0,0,1-.72-2.38,2.82,2.82,0,0,1,1.45-1.42c1.68-.64,4.46.35,6.08.8,3.93,1.1,7.92,3.11,12.11,2.25a9.4,9.4,0,0,0,6.11-4.38c.94-1.59,2.86-6.27-.45-6.69a14.08,14.08,0,0,1-4.7-1.22,25.07,25.07,0,0,0-5.64-2.44c-1.83-.38-3.81-.16-5.51-.93a9.69,9.69,0,0,1-3.76-3.83c-.48-.74-2.42-3.84-.64-4,.52,0,1.37.64,1.86.86a49.47,49.47,0,0,0,5.82,2c2.87.87,5.76,1.7,8.68,2.39,2.48.6,5.2,1.73,7.51.19,1-.68,1.85-1.58,2.83-2.31.59-.44,1.23-.82,1.78-1.32s.36-.75.1-1.39a7.86,7.86,0,0,0-2-3.27,18.41,18.41,0,0,0-3.63-2.43c-1.68-.76-3.13-1.11-3.78-3.11-.13-.38-.2-.77-.34-1.14a3.54,3.54,0,0,0-3.58-2.19c-.15,0-.33,0-.42-.08a.41.41,0,0,1,0-.36c.14-.56.29-1.13.48-1.68a2.32,2.32,0,0,1,1-1.48c.94-.47,2.07.34,3,.59a10,10,0,0,0,3.28.12,8.36,8.36,0,0,1,4.59.82c1.27.68,2.42.54,2.79-1.17a4.43,4.43,0,0,0,.07-.81,18,18,0,0,0-.26-3c-.18-1.27-.47-2.53-.76-3.8-.09-.42-.16-.85-.21-1.27,1.22,1.34,10.06,17.4,12.78,17,11.9-1.52,15.93-17.94,17.89-22.25S358.83,85,358.83,85v.07c0,.19,0,.82,0,1.79C358.87,87.19,358.88,87.54,358.88,87.92Z" opacity="0.3" fill="url(#f1b6c72d-c236-43a4-8820-d2140c42f457)" style="mix-blend-mode:multiply"/><path d="M358.88,87.92c-1.31,8.1-3.07,16-3.07,16s-.65,2-1.83,5.15c-2.58,7-7.69,19.91-13.85,30.68a30.61,30.61,0,0,1-5.59,7.07,34.69,34.69,0,0,1-3.23,2.76,48.69,48.69,0,0,1-15.47,7.54c-1.66.5-3.3,1.1-4.94,1.66-1.14.24-2.09.38-2.78.47l-.4,0c-.27,0-.5,0-.63,0-1.43,0-4.67-.91-8.58-2.16-2.22-.7-4.65-1.51-7.1-2.32a16.93,16.93,0,0,1-3.68-2,1.75,1.75,0,0,1-.72-2.38,2.82,2.82,0,0,1,1.45-1.42c1.68-.64,4.46.35,6.08.8,3.93,1.1,7.92,3.11,12.11,2.25a9.4,9.4,0,0,0,6.11-4.38c1.1-1.86,3.19-6.33-.22-6.94-1-.18-2.2-.08-3.16-.36a18.14,18.14,0,0,1-3.35-1.88c-2.27-1.29-4.35-.53-6.78-.64a7.2,7.2,0,0,1-4.56-2.16c-1.42-1.37-3.33-3.66-3.69-5.67-.18-1.07.35-2.13,1.49-1.31a11.14,11.14,0,0,0,2.44,1.16,94.2,94.2,0,0,0,9.72,3c1.64.44,3.28.85,4.94,1.24l2,.45c.51.11,1.51.55,1.95.42.23-.07.44-.21.67-.27a7.53,7.53,0,0,1,.83-.07,2.82,2.82,0,0,0,1.17-.56c1.08-.75,2.16-1.49,3.17-2.32.42-.35.93-.7,1.31-1.09s.26-.72.07-1.25a10.76,10.76,0,0,0-5.74-6.09c-1.68-.76-3.13-1.11-3.78-3.11-.13-.38-.2-.77-.34-1.14a3.54,3.54,0,0,0-3.58-2.19c-.15,0-.33,0-.42-.08a.41.41,0,0,1,0-.36c.14-.56.29-1.13.48-1.68a2.32,2.32,0,0,1,1-1.48c.94-.47,2.07.34,3,.59a10,10,0,0,0,3.28.12,8.36,8.36,0,0,1,4.59.82c1.27.68,2.42.54,2.79-1.17a4.43,4.43,0,0,0,.07-.81,18,18,0,0,0-.26-3c-.18-1.27-.47-2.53-.76-3.8-.09-.42-.16-.85-.21-1.27,1.22,1.34,10.06,17.4,12.78,17,11.9-1.52,15.93-17.94,17.89-22.25S358.83,85,358.83,85v.07c0,.19,0,.82,0,1.79C358.87,87.19,358.88,87.54,358.88,87.92Z" opacity="0.1" fill="url(#ae23cdb0-1155-4ff4-ad64-a148aac0cd06)" style="mix-blend-mode:multiply"/><g opacity="0.2" style="mix-blend-mode:multiply"><path d="M327.17,88.82A58.42,58.42,0,0,0,333,92.15c1,.5,2,.93,3.05,1.34s2.1.72,3.19,1.1a12.31,12.31,0,0,1-3.41-.42A16,16,0,0,1,332.59,93a18.82,18.82,0,0,1-2.94-1.8A13.53,13.53,0,0,1,327.17,88.82Z" fill="url(#e23256f6-7a61-4f71-b46c-263b31d6f98d)"/></g><g opacity="0.26" style="mix-blend-mode:multiply"><path d="M252.23,74.2c0-1.18-.12-2.36-.25-3.54a25.4,25.4,0,0,0-.52-3.48c-.13-.56-.31-1.13-.49-1.68a3.42,3.42,0,0,0-.81-1.42c-.38-.34-.92-.13-1.37.2a8.63,8.63,0,0,0-1.27,1.15c-1.6,1.69-2,4.13-2.35,6.43s-.58,4.68-.71,7a57.79,57.79,0,0,1,.36-7.08,18.34,18.34,0,0,1,.65-3.52,7.76,7.76,0,0,1,1.71-3.18,9.13,9.13,0,0,1,1.36-1.2,2.31,2.31,0,0,1,.88-.41,1.17,1.17,0,0,1,1,.24,3.68,3.68,0,0,1,.92,1.62,13,13,0,0,1,.47,1.73A34.52,34.52,0,0,1,252.23,74.2Z" fill="url(#a58fc201-6b6e-4e0d-afae-e230350a2d62)"/></g><g opacity="0.2" style="mix-blend-mode:multiply"><path d="M300.66,82a16.47,16.47,0,0,1-7.42-.17,18.22,18.22,0,0,1-3.47-1.43,15.08,15.08,0,0,1-3.07-2.11A36.13,36.13,0,0,0,290,79.92a27.42,27.42,0,0,0,3.41,1.25,22.43,22.43,0,0,0,3.57.64C298.2,81.93,299.43,82,300.66,82Z" fill="url(#f125ccf4-2785-47a3-b2e9-37705654dae1)"/></g><path d="M325.55,201.46c-1.5,3.87-2.05,9-1.89,14.49-1.53-2.37-3.22-4.4-4.4-7-1.08-2.42-2-5-4-6.85a3.64,3.64,0,0,0-3.12-1.14c-.5.12-1,.41-1.47.48-1.32.16-2.33-1.16-2.86-2.38-2.43-5.54-1.54-11.88-1.22-17.92.26-4.81,0-10.17-2.6-14.38-1.57-2.52-2.95-2.78-5.56-3.87a53.28,53.28,0,0,1-7.4-4.16,73.66,73.66,0,0,1-9.88-7.36c-5.21-4.62-9.19-10-13.24-15.53l.13.1c2.48,2.4,5.4,5.17,8.38,7.85A116.21,116.21,0,0,0,287,152.42q.36.26.72.48a.18.18,0,0,0,.07,0,16.58,16.58,0,0,0,3.61,1.92c2.45.81,4.88,1.62,7.1,2.32l.15.05c2.46.78,4.65,1.43,6.28,1.79a7.53,7.53,0,0,0,1.79.3,2.17,2.17,0,0,0,.36,0c.13,0,.36,0,.63,0l.4,0c.69-.09,1.64-.23,2.78-.47a52,52,0,0,0,19.84-8.64C330.73,151.11,330.44,188.9,325.55,201.46Z" opacity="0.9" fill="url(#b1063cd9-0954-4015-adc5-f7bada78211c)" style="mix-blend-mode:multiply"/><path d="M310.32,104.86a3.59,3.59,0,0,0,.28,1.46,4.45,4.45,0,0,0,.59.71l.95,1a.78.78,0,0,1,.3.54c-.38-.06-.77,0-1.14-.05a3.79,3.79,0,0,1-1.92-1.17,4.67,4.67,0,0,1-1.43-1.84c-.21-.65-.37-1-1.19-1.15a.64.64,0,0,1-.34-.09c-.1-.07-.14-.24-.05-.31a.43.43,0,0,1,.16-.05,5.77,5.77,0,0,0,1.25-.14c.22-.07.43-.17.65-.23A1.4,1.4,0,0,1,310.32,104.86Z" opacity="0.31" fill="url(#fb489fc5-b0de-480f-a977-314cd84c50fc)"/><path d="M296.74,130.32a14.47,14.47,0,0,0,2.77,1.42,19.66,19.66,0,0,0,2.95,1c2,.5,4.09.74,6.16,1.1.52.1,1,.19,1.56.33s1,.31,1.49.38a6.81,6.81,0,0,0,2.94-.18c2-.46,3.57-1.9,5.39-3l0,.06c-.78.7-1.58,1.37-2.4,2A9,9,0,0,1,314.8,135a6.43,6.43,0,0,1-3.26.19,7.27,7.27,0,0,1-.8-.22c-.24-.08-.48-.17-.73-.24-.49-.14-1-.26-1.5-.37-2-.43-4.11-.74-6.14-1.31a19.67,19.67,0,0,1-2.94-1.14,14.52,14.52,0,0,1-2.74-1.55Z" fill="#935f51"/><path d="M320.32,131.11a4.09,4.09,0,0,1-.3.33c-2,2-4.9,3.58-7.78,3.39a42.58,42.58,0,0,1-6.7-1.37,53.61,53.61,0,0,1-6.76-1.74,13.72,13.72,0,0,1-4.56-3.52,40.29,40.29,0,0,0,9.58,3.33c4.83.88,6.29,1.23,7.16,1.14s2.43-1.73.52-2.45-5.23-.64-8.71-2-6-2.27-6-2.27l.54,0h0a23.67,23.67,0,0,0,7,1,17,17,0,0,1,3.84.19,13.16,13.16,0,0,1,2.33.89C311.88,128.62,317.36,131.52,320.32,131.11Z" fill="url(#f2b20f5b-a1ca-44a3-be0d-0c981f30db21)"/><path d="M312.08,123.17a4.46,4.46,0,0,1-1.06,2.4c-1,1.34-2.91.82-4.33.41a2.88,2.88,0,0,1-.93-.45A2.14,2.14,0,0,1,305,124a6,6,0,0,1,.1-2.15,2.31,2.31,0,0,1,.24.2h0c.89.77,1.58,1.69,2.57,2s3.07-.77,4-.9l.16,0A.09.09,0,0,1,312.08,123.17Z" fill="#b1735a" opacity="0.2" style="mix-blend-mode:multiply"/><path d="M317.82,130.9a36.77,36.77,0,0,1-7.39-3,13.16,13.16,0,0,0-2.33-.89,17,17,0,0,0-3.84-.19,23.79,23.79,0,0,1-7-1,13.77,13.77,0,0,1-1.37-.46,15.85,15.85,0,0,1-3.83-2,1.34,1.34,0,0,1-.28-.16,3.35,3.35,0,0,1,.46.11c1.31,1.3,8.33,1.93,13.52,2.15a2.88,2.88,0,0,0,.93.45c1.42.41,3.28.93,4.33-.41a4.46,4.46,0,0,0,1.06-2.4l0,0h.27a13.94,13.94,0,0,1,5.34,2.17c1.17,1.19,2.86,3,3.24,4.69S319,131.16,317.82,130.9Z" opacity="0.46" fill="url(#a6e90e34-6967-4d40-8659-94c8095b76e4)" style="mix-blend-mode:multiply"/><path d="M291,123.13a1.17,1.17,0,0,0-1,.27.45.45,0,0,0-.11.41c.07.25.41.31.67.32.48,0,1,0,1.45,0a7.55,7.55,0,0,1,1,.27c1,.2,4.77,2.24,6.85,2.5,1.91.23,3.83.42,5.73.76,1.24.23,2.48.42,3.69.77s2.27.58,3.39.9c.88.26,1.68.65,2.54.94s1.87.53,2.8.81a9.94,9.94,0,0,1,2.11.55c.31.15.59.34.9.47a1.44,1.44,0,0,0,1,.06l.09,0a.34.34,0,0,0,.1-.16.64.64,0,0,0-.14-.53,1.23,1.23,0,0,0-.47-.32,6.15,6.15,0,0,0-2.1-.19,12.81,12.81,0,0,1-2.13-.28,15.55,15.55,0,0,1-4-1.46,19.29,19.29,0,0,0-6.09-2.13,30.22,30.22,0,0,0-3.29-.29c-.95,0-1.94.06-2.88-.07a33.42,33.42,0,0,1-6.08-1.78A6.66,6.66,0,0,1,293,124a3.08,3.08,0,0,0-1.85-.85Z" fill="#814735"/><path d="M302.25,120.7c-.88,0-1.75,0-2.62.06a14,14,0,0,0-2.56.4c-.84.2-1.68.44-2.52.64a8.23,8.23,0,0,0-2.41.85l0,0a2.81,2.81,0,0,1,1.09-.78,11,11,0,0,1,1.24-.48,17.59,17.59,0,0,1,2.57-.56,15.34,15.34,0,0,1,2.63-.28c.87,0,1.75.06,2.62.14Z" fill="url(#a477ae80-dd88-4378-91f9-6c9e6bc58e49)"/><g opacity="0.55"><path d="M291,123.93a6.36,6.36,0,0,1,1.36,1.47,12.74,12.74,0,0,0,1.17,1.59,36.93,36.93,0,0,0,2.68,2.92,15,15,0,0,0,1.45,1.32,8.46,8.46,0,0,0,1.73.86c1.23.49,2.48.94,3.74,1.37a28.55,28.55,0,0,1-3.86-1,6.81,6.81,0,0,1-1.86-.86,13.78,13.78,0,0,1-1.52-1.33,26.21,26.21,0,0,1-2.63-3,10.61,10.61,0,0,1-1.09-1.69A7.43,7.43,0,0,0,291,123.93Z" fill="url(#b58a0608-e159-4468-b93c-ba94f9d6201a)"/></g><path d="M319.39,131.88a11.84,11.84,0,0,1-2.41,2.49,9.09,9.09,0,0,1-3.33,1.1,7.48,7.48,0,0,1-1.77,0,13.77,13.77,0,0,1-1.72-.34c-1.11-.27-2.21-.61-3.33-.87a28.1,28.1,0,0,1,3.41.53c.56.09,1.12.21,1.68.26a7.11,7.11,0,0,0,1.66-.08,9.68,9.68,0,0,0,3.21-.93A17.93,17.93,0,0,0,319.39,131.88Z" fill="#cf9e76"/><g opacity="0.12" style="mix-blend-mode:multiply"><path d="M242.59,372.49c-1.44,2.26-4.52,2.54-7.11,3.2a18.31,18.31,0,0,0-12.1,10.14L210.87,417.3l-1-1.56c-.11-1.23-.24-2.46-.39-3.68-1.79-14.46-6.46-28.4-12.48-41.61-2.37-5.2-5-10.3-7.67-15.32-.84-1.58-1.71-3.14-2.59-4.7-.33-.59-.68-1.17-1-1.74-1.31-6.57-1.9-13.55-3-19.78-1.79-10.62-3.39-21.27-4.61-32-.73-6.35-1.33-12.72-1.92-19.07q-1.77-19-3.55-38.11c-.57-6-1-10.86.17-16.78.32-1.63.64-3.27,1-4.9.19-.91.38-1.81.58-2.72.32-1.53.65-3,1-4.51.2-.89.41-1.78.63-2.66.1-.44.21-.88.31-1.31,0,0,2.33,31.89,3.49,47.44,1,12.94,11.85,22.55,14,35.22,1.57,9.15-2.44,18.85-2,28.13.45,10,5.28,21,11,29a50.8,50.8,0,0,0,26.33,19.46C234,367.63,239.49,368.53,242.59,372.49Z" fill="url(#aba273b4-03f4-4fc0-a4b9-ab8c1d7994e1)"/></g><g opacity="0.2" style="mix-blend-mode:multiply"><path d="M352.53,117.74a53.23,53.23,0,0,0-2.09,13.52A50.85,50.85,0,0,0,352,144.63a60.26,60.26,0,0,0,4.92,12.47c1.17,1.91,2.12,4,3.47,5.76l3.89,5.7a68.75,68.75,0,0,1,6.65,12.51l1.2,3.34c.41,1.11.66,2.28,1,3.41l.47,1.71.35,1.74c.19,1.17.48,2.32.59,3.5a61.77,61.77,0,0,1,.33,14c-.23,2.32-.5,4.63-.86,6.91l-.53,3.43-.23,1.71c-.06.57-.05,1.14-.09,1.72a39.38,39.38,0,0,1-.17-7c.06-2.3.11-4.6.07-6.88a71.66,71.66,0,0,0-1.36-13.52,67,67,0,0,0-10.47-24.63l-3.84-5.78-1-1.48c-.33-.49-.59-1-.88-1.54l-1.7-3.12c-.55-1.05-1-2.17-1.45-3.25l-.7-1.64c-.23-.55-.39-1.12-.58-1.68-.36-1.13-.78-2.24-1.09-3.39l-.79-3.47a46.57,46.57,0,0,1-.56-14.13A42.92,42.92,0,0,1,352.53,117.74Z" fill="url(#be9b18c1-cac9-4367-bb07-bef244a58c77)"/></g><g opacity="0.11" style="mix-blend-mode:multiply"><path d="M344.79,130.22c-.67,5.4-1.33,10.78-1.83,16.17s-.92,10.77-1.06,16.14,0,10.77,1.22,15.66c1.47,4.84,4.26,9.4,7.33,13.78s6.28,8.81,9.25,13.44a60.92,60.92,0,0,1,7.2,15,35.48,35.48,0,0,1,1,4.1c.28,1.37.44,2.69.65,4,.38,2.69.75,5.38,1.09,8.08.63,5.41,1.22,10.82,1.43,16.26q-1.53-8-3.22-16L366.16,229c-.31-1.31-.54-2.68-.88-3.95a32.93,32.93,0,0,0-1.12-3.75,63.76,63.76,0,0,0-7.39-14c-3-4.45-6.23-8.76-9.36-13.27s-6.08-9.33-7.65-15a35.5,35.5,0,0,1-.7-4.25l-.2-2.1-.07-2.09c-.06-1.39,0-2.77,0-4.15s.14-2.75.23-4.12a157,157,0,0,1,2.15-16.25C342.17,140.78,343.32,135.46,344.79,130.22Z" fill="url(#b7721317-94ba-42a1-b4f4-e111a6410b92)"/></g><path d="M234.16,226.44a35.47,35.47,0,0,1-16.61-2.1c-3.46-1.32-6.82-3.21-10.51-3.42-2.33-.12-5.4.72-6.86,2.69-1.63,2.2-.56,3.6-.15,6.07.51,3.19,0,6.3,0,9.46-.05,3.53,1.37,6.83,1.54,10.4a20.83,20.83,0,0,1-.27,4.32c-.27,1.61-1.06,3.49-2.69,3.68a3,3,0,0,1-2.74-1.66,13.3,13.3,0,0,1-1.06-3.23c-2.36-8.59-9.89-14.88-12.47-23.49-1.58-5.27-1.34-10.24-1.34-15.62,0-2.19,1.3-4.53.52-6.63-.56-1.52-2.57-2.08-3.7-3.51h0c1.58-5.94,3.09-10.07,4.15-10.33.42-.11.52-.18.34-.2,6.6-1.43,13.16-3.12,19.73-4.74q7.05-1.71,14.1-3.46c3.15-.76,7.23-2.49,10.44-2.33l.24,0c-.26,2.79-1.93,4.9-1.87,8,0,1.29,1.36,12.45,2.86,12.45-2.47.1-4.56-2.21-7-2.14a4.77,4.77,0,0,0-4,3.07,8.35,8.35,0,0,0-.08,5.23c1.66,6.09,7.32,10.26,13.14,12.69C232,222.56,234.75,224.15,234.16,226.44Z" fill="url(#bef9c92a-9ba4-4dc1-b467-31900c48c90f)"/></g></g></g></g></svg>