<svg xmlns="http://www.w3.org/2000/svg" xmlns:xlink="http://www.w3.org/1999/xlink" width="628.02" height="608" viewBox="0 0 628.02 608"><defs><linearGradient id="b50b3578-1b04-471b-b4de-4cb8976e772b" x1="569.94" y1="194.74" x2="579.76" y2="202.75" gradientUnits="userSpaceOnUse"><stop offset="0" stop-color="#f5e0cd"/><stop offset="1" stop-color="#f5e0cd" stop-opacity="0"/></linearGradient><linearGradient id="f0238d69-fe1b-473e-8a3a-bd026c1f844b" x1="279.87" y1="143.09" x2="316.84" y2="163.26" gradientTransform="translate(7.15 -24.27) rotate(4.09)" xlink:href="#b50b3578-1b04-471b-b4de-4cb8976e772b"/><radialGradient id="f4b4804c-c475-4620-93fe-121f10edd5e2" cx="271.63" cy="98.97" r="121.15" gradientUnits="userSpaceOnUse"><stop offset="0" stop-color="#b08874" stop-opacity="0"/><stop offset="0.14" stop-color="#b08874" stop-opacity="0.11"/><stop offset="0.44" stop-color="#b08874" stop-opacity="0.38"/><stop offset="0.85" stop-color="#b08874" stop-opacity="0.83"/><stop offset="1" stop-color="#b08874"/></radialGradient><linearGradient id="aaa42d4d-b34c-4c93-bde7-4d4819524e23" x1="246.68" y1="123.59" x2="310.9" y2="123.59" xlink:href="#b50b3578-1b04-471b-b4de-4cb8976e772b"/><radialGradient id="b92dcddc-b91c-4fc7-a51f-f37b74225981" cx="240.99" cy="173.19" r="101.33" gradientUnits="userSpaceOnUse"><stop offset="0" stop-color="#b08874" stop-opacity="0"/><stop offset="0.15" stop-color="#af8874" stop-opacity="0.12"/><stop offset="0.47" stop-color="#ab8874" stop-opacity="0.41"/><stop offset="0.91" stop-color="#a48874" stop-opacity="0.89"/><stop offset="1" stop-color="#a38874"/></radialGradient><linearGradient id="f930b1af-5cb8-492f-96a2-fc7bea68da2c" x1="250.64" y1="190.71" x2="308.12" y2="243.77" xlink:href="#b50b3578-1b04-471b-b4de-4cb8976e772b"/><linearGradient id="b3b290ed-551b-479e-92ec-7e650a14fc8e" x1="65.6" y1="299.46" x2="211.22" y2="431.58" gradientUnits="userSpaceOnUse"><stop offset="0" stop-color="#b08874" stop-opacity="0"/><stop offset="1" stop-color="#b08874"/></linearGradient><linearGradient id="ec5aed3f-8958-49cd-823f-4ef36107c3b3" x1="36.03" y1="369.81" x2="136.82" y2="322.12" gradientUnits="userSpaceOnUse"><stop offset="0" stop-color="#b08874"/><stop offset="1" stop-color="#b08874" stop-opacity="0"/></linearGradient><linearGradient id="b16cff29-831b-48a6-99bc-230f0c6918f6" x1="118.53" y1="345.4" x2="141.2" y2="345.4" gradientUnits="userSpaceOnUse"><stop offset="0" stop-color="#c6a9b5"/><stop offset="1" stop-color="#c6a9b5" stop-opacity="0"/></linearGradient><linearGradient id="a2f37b20-514f-4e5a-95e1-058433008109" x1="133.04" y1="263.96" x2="181.66" y2="297.8" xlink:href="#b16cff29-831b-48a6-99bc-230f0c6918f6"/><radialGradient id="a1c23c76-11c0-4041-81a5-4a60400982d5" cx="323.6" cy="102.89" r="38.89" xlink:href="#f4b4804c-c475-4620-93fe-121f10edd5e2"/><linearGradient id="a4a73df3-3d3c-44a1-ba3a-3b0e394e2577" x1="52.39" y1="200.67" x2="17.86" y2="187.58" xlink:href="#ec5aed3f-8958-49cd-823f-4ef36107c3b3"/><linearGradient id="a1dfa89a-6806-491b-9f09-f04ad1c221df" x1="14.61" y1="193.7" x2="57.71" y2="193.7" xlink:href="#b50b3578-1b04-471b-b4de-4cb8976e772b"/><linearGradient id="e00618ab-4cda-45d4-9067-176eb47c526f" x1="314.21" y1="118.98" x2="360.08" y2="134.83" xlink:href="#b3b290ed-551b-479e-92ec-7e650a14fc8e"/><linearGradient id="a163e6c9-f202-4573-af26-2889689e6cca" x1="3.73" y1="189.92" x2="49.68" y2="189.92" xlink:href="#b50b3578-1b04-471b-b4de-4cb8976e772b"/><linearGradient id="bc9bb4db-48b9-4a7c-b94c-e0712e295fea" x1="354.7" y1="139.98" x2="322.46" y2="110.45" xlink:href="#b3b290ed-551b-479e-92ec-7e650a14fc8e"/><linearGradient id="ec5bf71a-7dd2-4f6c-bbe2-54f393316e02" y1="193.65" x2="45.93" y2="193.65" gradientUnits="userSpaceOnUse"><stop offset="0" stop-color="#fff" stop-opacity="0"/><stop offset="1"/></linearGradient><linearGradient id="ac0454a0-4a9e-477e-8b1b-c00c31877a12" x1="20.2" y1="173.41" x2="25.54" y2="211.42" xlink:href="#b50b3578-1b04-471b-b4de-4cb8976e772b"/><radialGradient id="bb5e5392-c065-4061-af34-579317c6f3f3" cx="65.46" cy="184.04" r="33.35" gradientUnits="userSpaceOnUse"><stop offset="0" stop-color="#fff" stop-opacity="0"/><stop offset="1" stop-opacity="0.9"/></radialGradient><linearGradient id="a70e5f07-cd0a-40c1-8748-60df5e523d10" x1="58.12" y1="192.25" x2="87.06" y2="192.25" xlink:href="#b50b3578-1b04-471b-b4de-4cb8976e772b"/><linearGradient id="faaf97b0-fdeb-4420-b5e5-e2abf4fc1557" x1="341.44" y1="109.07" x2="341.44" y2="124.34" xlink:href="#b3b290ed-551b-479e-92ec-7e650a14fc8e"/><radialGradient id="a1257fdb-e5da-4b8b-8b58-5f5471703934" cx="550.36" cy="190.06" r="18.91" xlink:href="#bb5e5392-c065-4061-af34-579317c6f3f3"/><linearGradient id="f8b36eac-1dab-4e66-a4b0-22fe83cfe840" x1="551.05" y1="189.69" x2="552.87" y2="210.26" xlink:href="#b50b3578-1b04-471b-b4de-4cb8976e772b"/><linearGradient id="e748d0ba-0631-40ce-9156-4e1cb2bcb0b5" x1="86.66" y1="161.78" x2="51.76" y2="223.12" xlink:href="#b50b3578-1b04-471b-b4de-4cb8976e772b"/><linearGradient id="e670aa59-b50e-4d3e-ae47-6a03f0170754" x1="450.23" y1="423.19" x2="554.88" y2="152.03" gradientUnits="userSpaceOnUse"><stop offset="0" stop-color="#b08874"/><stop offset="0.07" stop-color="#b08874" stop-opacity="0.85"/><stop offset="0.22" stop-color="#b08874" stop-opacity="0.55"/><stop offset="0.36" stop-color="#b08874" stop-opacity="0.31"/><stop offset="0.49" stop-color="#b08874" stop-opacity="0.14"/><stop offset="0.6" stop-color="#b08874" stop-opacity="0.04"/><stop offset="0.68" stop-color="#b08874" stop-opacity="0"/></linearGradient><radialGradient id="a733d6c5-56dd-45fe-80a3-24c8b8a8af4d" cx="590.7" cy="190.89" r="32.21" xlink:href="#bb5e5392-c065-4061-af34-579317c6f3f3"/><linearGradient id="ad7aac8b-c326-4e04-831a-9bae4a5d1ac5" x1="591.29" y1="169.84" x2="586.76" y2="181.34" xlink:href="#b50b3578-1b04-471b-b4de-4cb8976e772b"/><radialGradient id="abf3683e-c149-44f9-aa5a-6f31186ce08e" cx="581.73" cy="183.22" r="54.57" xlink:href="#bb5e5392-c065-4061-af34-579317c6f3f3"/><linearGradient id="b055b3ba-37dd-4753-850d-5cb4702b6853" x1="441.93" y1="324.7" x2="560.53" y2="324.7" xlink:href="#ec5aed3f-8958-49cd-823f-4ef36107c3b3"/><linearGradient id="b9e9699d-7c2f-4152-b40f-326ae9b55622" x1="497.37" y1="240.59" x2="499.82" y2="240.59" xlink:href="#ec5aed3f-8958-49cd-823f-4ef36107c3b3"/><linearGradient id="ef6b4a2f-a65b-41d6-9f0c-eae29fe0c314" x1="438.07" y1="228.68" x2="415.12" y2="262.4" xlink:href="#b16cff29-831b-48a6-99bc-230f0c6918f6"/><linearGradient id="ae5d13ee-9b69-40b3-bb8e-f55a232d7ec4" x1="418.65" y1="388.6" x2="440.17" y2="291.76" xlink:href="#b16cff29-831b-48a6-99bc-230f0c6918f6"/><linearGradient id="e94382f2-08f5-4f1e-961b-e65c309270b4" x1="422.67" y1="338.74" x2="458.59" y2="338.74" xlink:href="#b16cff29-831b-48a6-99bc-230f0c6918f6"/><linearGradient id="bed2891f-c2cc-4397-8e88-836e44b072a6" x1="287.51" y1="105.71" x2="315.03" y2="105.71" xlink:href="#b3b290ed-551b-479e-92ec-7e650a14fc8e"/><linearGradient id="bc62c954-8852-4f04-9f81-ea27e9131fe8" x1="320.13" y1="109.32" x2="320.13" y2="148" gradientUnits="userSpaceOnUse"><stop offset="0" stop-color="#935f51" stop-opacity="0"/><stop offset="1" stop-color="#935f51"/></linearGradient><linearGradient id="f0418322-6caa-407d-b17e-094c0c64c193" x1="291.76" y1="164.26" x2="312.39" y2="164.26" xlink:href="#b50b3578-1b04-471b-b4de-4cb8976e772b"/><radialGradient id="b3ec89c8-706e-4422-8f4d-14a3db3ec1ca" cx="294.24" cy="99.99" r="47.97" xlink:href="#f4b4804c-c475-4620-93fe-121f10edd5e2"/><linearGradient id="a7e9a68f-5239-433c-8254-b175919d2e53" x1="103.6" y1="215.77" x2="44.28" y2="199.73" xlink:href="#b50b3578-1b04-471b-b4de-4cb8976e772b"/><linearGradient id="b87c3c75-a732-4b6e-ba83-6e5ef8b6db38" x1="64.59" y1="333.69" x2="90.45" y2="332.36" xlink:href="#b50b3578-1b04-471b-b4de-4cb8976e772b"/><linearGradient id="a31f7a19-4ff3-477d-afde-559ccdd2f1bc" x1="504.57" y1="203.55" x2="520.6" y2="235.36" xlink:href="#b50b3578-1b04-471b-b4de-4cb8976e772b"/><linearGradient id="b6abd550-c14d-4ff6-a89b-2c691037cba7" x1="449.94" y1="319.66" x2="490.78" y2="331.33" xlink:href="#b50b3578-1b04-471b-b4de-4cb8976e772b"/><linearGradient id="b6702554-dfcb-4711-8d2c-d6e89297ffee" x1="548.92" y1="205.46" x2="550.39" y2="219.21" xlink:href="#b50b3578-1b04-471b-b4de-4cb8976e772b"/><linearGradient id="a05ede1d-f2da-47c4-8097-374a2149a3af" x1="301.51" y1="136.22" x2="301.51" y2="142.89" xlink:href="#b3b290ed-551b-479e-92ec-7e650a14fc8e"/><linearGradient id="a9b12279-45d3-49bd-8a0e-eb8efba1c67b" x1="298.78" y1="142.06" x2="320.66" y2="146.37" xlink:href="#bc62c954-8852-4f04-9f81-ea27e9131fe8"/><linearGradient id="fcca58c6-702a-4e78-be35-bf4ae4a9f89e" x1="303.21" y1="139.91" x2="315.49" y2="150.85" gradientUnits="userSpaceOnUse"><stop offset="0" stop-color="#935f51"/><stop offset="1" stop-color="#935f51" stop-opacity="0"/></linearGradient><linearGradient id="ed3e18a5-ede6-460e-a4fa-6a2b1fddadf2" x1="303.1" y1="157.46" x2="311.07" y2="154.1" xlink:href="#b50b3578-1b04-471b-b4de-4cb8976e772b"/><linearGradient id="b5046606-80f6-48d6-ae88-1b82a82793d2" x1="299.21" y1="148.9" x2="311.74" y2="148.9" xlink:href="#b50b3578-1b04-471b-b4de-4cb8976e772b"/><linearGradient id="a94adee7-12aa-4eb5-a6ea-becad9a3c1d4" x1="309.18" y1="122.37" x2="315.15" y2="122.37" xlink:href="#b50b3578-1b04-471b-b4de-4cb8976e772b"/><radialGradient id="ba9a56b5-c1ca-4a6a-aa0a-43493812491a" cx="294.25" cy="108.1" r="7.71" xlink:href="#f4b4804c-c475-4620-93fe-121f10edd5e2"/><linearGradient id="feda4fd7-c799-4eab-8c82-6cba3c1da7f1" x1="303.85" y1="140.16" x2="353.51" y2="178.54" xlink:href="#b3b290ed-551b-479e-92ec-7e650a14fc8e"/><linearGradient id="a0601d3f-8798-468c-8d88-392144dae938" x1="303.58" y1="139.96" x2="353.57" y2="178.59" xlink:href="#b3b290ed-551b-479e-92ec-7e650a14fc8e"/><linearGradient id="fd0e0b43-890b-4f3a-b03a-4c9ab964dc40" x1="335.98" y1="133" x2="330.52" y2="123.03" xlink:href="#ec5bf71a-7dd2-4f6c-bbe2-54f393316e02"/><linearGradient id="ea179c55-6235-4ebc-a621-b7a5b1aca38a" x1="250.06" y1="112.18" x2="244.62" y2="102.23" xlink:href="#ec5bf71a-7dd2-4f6c-bbe2-54f393316e02"/><linearGradient id="b2bb9e7f-84db-4c78-85d8-e5cc64307bb9" x1="296.23" y1="121.02" x2="291.23" y2="111.88" gradientUnits="userSpaceOnUse"><stop offset="0"/><stop offset="1" stop-color="#fff" stop-opacity="0"/></linearGradient><linearGradient id="b89e405f-f66a-4ee2-90db-414cd9f07f41" x1="267.23" y1="172.92" x2="340.9" y2="229.85" xlink:href="#ec5aed3f-8958-49cd-823f-4ef36107c3b3"/><linearGradient id="ba17e24b-0699-4f7c-b754-73ed6bb97b62" x1="305.22" y1="140.46" x2="314.2" y2="143.56" xlink:href="#b50b3578-1b04-471b-b4de-4cb8976e772b"/><linearGradient id="aa690e64-18dc-4608-9025-edaf193bc0b0" x1="320.88" y1="171.27" x2="297.88" y2="163.8" xlink:href="#fcca58c6-702a-4e78-be35-bf4ae4a9f89e"/><linearGradient id="b39ad936-6f0e-4e9e-81a7-2466acdfd788" x1="306.67" y1="159.17" x2="306.1" y2="167.27" gradientUnits="userSpaceOnUse"><stop offset="0" stop-color="#935f51"/><stop offset="0.35" stop-color="#935f51" stop-opacity="0.99"/><stop offset="0.51" stop-color="#935f51" stop-opacity="0.94"/><stop offset="0.63" stop-color="#935f51" stop-opacity="0.85"/><stop offset="0.73" stop-color="#935f51" stop-opacity="0.73"/><stop offset="0.81" stop-color="#935f51" stop-opacity="0.57"/><stop offset="0.89" stop-color="#935f51" stop-opacity="0.37"/><stop offset="0.96" stop-color="#935f51" stop-opacity="0.14"/><stop offset="1" stop-color="#935f51" stop-opacity="0"/></linearGradient><linearGradient id="f88a0967-f13c-49e6-8cb4-12723dbcf7c2" x1="291.94" y1="157.8" x2="302.26" y2="157.8" xlink:href="#b50b3578-1b04-471b-b4de-4cb8976e772b"/><linearGradient id="f1c33ad7-5d3c-4b89-89aa-71c06ff17095" x1="290.81" y1="164.9" x2="303.08" y2="164.9" xlink:href="#b50b3578-1b04-471b-b4de-4cb8976e772b"/><linearGradient id="bc8f9897-669e-42d7-bae3-a57535450792" x1="387.64" y1="251.67" x2="337.78" y2="160.6" xlink:href="#ec5bf71a-7dd2-4f6c-bbe2-54f393316e02"/><linearGradient id="aaaa411f-85c0-4719-a32a-0151c1b17085" x1="338.47" y1="227.77" x2="372.9" y2="227.77" xlink:href="#b2bb9e7f-84db-4c78-85d8-e5cc64307bb9"/><linearGradient id="a43410fb-58aa-4d0c-8cbf-086e77fe6929" x1="199.18" y1="198.56" x2="208.8" y2="271.87" xlink:href="#b16cff29-831b-48a6-99bc-230f0c6918f6"/></defs><title>victoria-2</title><g style="isolation:isolate"><g id="f0cb0d30-065a-4ef9-a2ea-f0f8300be58e" data-name="Layer 2"><g id="fca3bc07-bb70-4348-a430-4015556af1c2" data-name="Object2"><g id="ba36f677-5a7a-4147-8e5f-213c5ebb1d91" data-name="Vi"><path d="M562.61,214.32s6.81.26,9.77-1.12,9.47-12.64,13.32-15.3,6.66-7.55,6.8-8.59-2.81-7.25-8.73-3a28,28,0,0,0-8.58,10.81s-7.55,5.36-9.47,8.08S561.86,214.31,562.61,214.32Z" fill="url(#b50b3578-1b04-471b-b4de-4cb8976e772b)"/><path d="M299.2,142.11a2.42,2.42,0,0,0-.26,3.54c1.56,2.21,6.93,1.64,6.63,3.34s-2.45,5-1.36,5.82,4-.67,5.67.4,9.14.66,10.05,4-12.59-.14-12.59-.14c-5.59-1.93-12.85.8-19.16-1.75S297.71,141.49,299.2,142.11Z" opacity="0.5" fill="url(#f0238d69-fe1b-473e-8a3a-bd026c1f844b)"/><path d="M317.49,150.82a1.8,1.8,0,0,1,1.6-.54c1.2.05,3.07.13,3.33.8s.66,1.11-.31,1.27-3.91-.78-4.31-.76S316.91,150.83,317.49,150.82Z" fill="#b08874" style="mix-blend-mode:multiply"/><path d="M622.28,224.48a22.33,22.33,0,0,0-5,1.31c2.54-3.54,4.92-7.21,5-8.43.14-2.2-3.1-7.39-9.18-2.06a33.88,33.88,0,0,0-2.62,2.68c-1.45-.86-3.48-1-6.11.87a28.16,28.16,0,0,0-8.59,10.81s-3.16,2.25-5.92,4.58c0,0,0,0,0,0-1.49-1.37-4.51-2.82-6.5,1.21-1.35,2.73-2.09,4.59-2.66,5.86A4.73,4.73,0,0,0,580,240a2.71,2.71,0,0,0-1.23-.91c-.43-.15-1-.29-1.5-.42,1.73-1.69,3.65-3.93,4-5.82.73-3.59-4-5.22-7-3.89-2.61,1.18-7.87,5.12-9.48,9.19a9.89,9.89,0,0,0-2.93.94c-3.87,2.12-11.08,2.06-21.59,4.32-6,1.28-14,2.3-16.93,3.22-8.37,2.67-16.17,11.51-20.76,18.86-3.64,5.83-6.72,12.24-7.46,16a9.29,9.29,0,0,0-.16,1.17c0,.55-.1,2.34-.21,5-.59,14-2.4,52.33-6.06,67.65-1.22,5.11-2.73,10.24-4.23,15.43a31.34,31.34,0,0,0-1.87-2.57c-1.93-2.46-6.12,2.62-3.79-.3,2-2.52,1.19-4.18.34-7.45-.12-.47-.23-1-.34-1.55-.65-3.27-3.87-3.76-6.81-6.11a11.41,11.41,0,0,1-2.77-3.2,6.67,6.67,0,0,1-.79-1.88c-.62-3.32,4.72-2.57,5.74-5.05.51-1.27.17-4.54-.75-8.59a90.9,90.9,0,0,0-5.36-16.17c-3-6.56-2.25-8.8-6-18.9-1.39-3.75-3.43-8.58-6.5-15.12-10.3-21.9-21.42-26-23.4-26.54l.13.06-.28-.1a.39.39,0,0,0-.14,0,53.51,53.51,0,0,0-7.51-1.68c.32-3.53,2.6-7,8-10.2,24.7-14.86-5.89-33.94-20.6-48.62S403,130.2,395.88,107.9s-31.15-34.15-55.07-38.27-24.9,7-24.9,7c-4.88-1.87-11-.24-23,8.65s-17.31,32.09-20.83,41.92a32,32,0,0,0-1,3.54c-1.65.24-3.31,1.1-5,4.41-2.24,4.48-2.24,20.16,0,24.63,0,0-6.38,15.14,5,32.7s-5,36.06-8.48,46.6c0,.09,0,.19-.08.29a15.33,15.33,0,0,0-9.71,6,34.06,34.06,0,0,0-3.32,5.06c-.4.12-.85.24-1.32.35-11.55,2.84-40.11,9.89-45.41,11h-.05l.05,0,.08,0h0l.1-.05,0,0h0c.05-.26-6.62.56-14.26,4.87l-.05,0-1.16.68-.08.05c-.38.23-.76.46-1.14.71l-.12.08c-.37.24-.73.48-1.1.74a1.16,1.16,0,0,1-.16.11l-1.08.79-.18.14c-.35.26-.69.53-1.05.82a2.33,2.33,0,0,1-.23.19c-.33.27-.66.54-1,.83a3,3,0,0,0-.26.24c-.32.28-.64.56-.95.86l-.3.29c-.3.29-.59.57-.89.88l-.35.37-.81.87-.45.52-.7.81c-.36.46-.73.92-1.1,1.41-11.75,15.68-24.54,36.55-22.66,65.32.85,12.7-3.74,3.37-5.22,3-3-.65-5.27,3.47-3.07,11.76.16.6.31,1.18.5,1.73,2,6.71,3.51,7.81-1,9.15a1.74,1.74,0,0,1-.45.11c-1.57.45-3.16.76-4.5,1.17-.24-1-.48-2.09-.7-3.17l-.09-.45c-.15-.73-.29-1.47-.43-2.21-.06-.39-.13-.77-.2-1.16-.16-1-.33-2-.48-3-1.78-12.41-2.75-36.77-2.77-55.08a197.12,197.12,0,0,1,.72-20.55,59.34,59.34,0,0,0-.4-15.14,52.46,52.46,0,0,0-2.56-11,12.3,12.3,0,0,1-.45-1.87,11.21,11.21,0,0,1-.17-2.27,19.42,19.42,0,0,1,.57-3.91c.35-1.57-.5-3.17-2.11-4.83a31,31,0,0,0-3.87-3.25c-2-1.44-3.65-3-5.27-4.34a36.76,36.76,0,0,0-3-2.33,15.61,15.61,0,0,0-1.88-1.13,13.48,13.48,0,0,0-7.77-1.49l-.58.07s-.49-.3-1.19-.65a20.93,20.93,0,0,0-2.42-1.1c-1.66-.61-4.23-3.18-5.59-5s-6.81-8.48-9.39-9.09-4.83-1.82-8,0-2.44,5.78-1.67,7.43,2.6,5.05,4.25,5.38a.27.27,0,0,1,.13.05c-5-.88-7,.67-9.85.67h0l-.6,0c-2.87-.91-6.53-2-8.74-2.46-4.05-.82-5.46-1.86-6.68-3.56s-4-2.15-4.85-2.33-.74-3.84-5.73-6.16c-4.27-2-9.46-3.73-11.38-2-1.83-2-4.3-4.4-5.73-5.12-2.43-1.21-4.45-1.41-5.67,0a1.14,1.14,0,0,0-.15.94c-2.46-.12-4.19,1.35-3.68,2.7.6,1.61,6.66,7.48,6.66,7.48L29.24,223a1.32,1.32,0,0,0-.35.7v.1a76.9,76.9,0,0,0,4.34,8.28,25.17,25.17,0,0,0,2.13,3,8.59,8.59,0,0,0,.75.8c1.9,1.7,6.41,6.93,9.83,9.5a5.52,5.52,0,0,0,3.15,1.48,6.51,6.51,0,0,1,.77,0c2.85-.05,7,1.13,16.55,3.5a42,42,0,0,1,12.44,5.92c5.47,3.59,10.46,7.84,14.65,10.53a19.42,19.42,0,0,1,4,3.3c2.81,3.08,2.33,5.36,2.33,5.36a2.35,2.35,0,0,0,0,.27,2.64,2.64,0,0,0,0,.28v.3c0,.13,0,.27,0,.42a2.18,2.18,0,0,0,0,.25c0,.24,0,.51,0,.78s.06.62.09,1a.28.28,0,0,1,0,.09c.27,2.69.88,6.5,1.5,11.65.34,2.83.69,6.07,1,9.74,1.14,13.19-2,45.14-5.38,78.47l-.48,4.77c-.08.73-.14,1.48-.2,2.23,0,.16,0,.32,0,.48-.12,1.49-.22,3-.3,4.48,0,.17,0,.34,0,.51q-.1,2.24-.15,4.47c0,.17,0,.35,0,.53l0,2.23v0c0,.73,0,1.46,0,2.19,0,.19,0,.38,0,.56,0,.73,0,1.46,0,2.18,0,0,0,.06,0,.09,0,.71,0,1.41,0,2.12l0,.59c0,.69,0,1.39.08,2.08,0,.07,0,.14,0,.22,0,.66.07,1.33.11,2,0,.21,0,.42,0,.64,0,.65.07,1.31.12,2l0,.34c0,.62.09,1.25.14,1.87,0,.22,0,.45,0,.67.06.61.1,1.22.16,1.82,0,.16,0,.33,0,.48.06.58.11,1.16.17,1.73,0,.24,0,.47.07.7l.18,1.69c0,.21,0,.41.07.61l.18,1.56.09.76c.06.5.13,1,.18,1.48l.12.8q.07.71.18,1.38c0,.26.07.53.11.78l.18,1.3.15,1c.06.39.11.79.18,1.17s.08.55.13.82.11.72.17,1.07.13.8.2,1.19.1.63.15.93l.15.87c0,.29.1.56.16.84.08.47.16.93.25,1.38l.12.71.18.9c0,.21.07.41.12.63l.3,1.51c0,.17.07.34.11.51l.18.92c0,.13.06.25.08.38.12.58.25,1.14.37,1.69l.06.27.21.93c0,.06,0,.11,0,.18.13.61.27,1.2.41,1.77l0,.09c.15.64.29,1.25.44,1.83l.3,1.14a48.82,48.82,0,0,0,2.18,6.88,4.69,4.69,0,0,0,.25.47c1.56,2.28,1.36,2.65,2.91,4.89.53.79,1.29,1.81,2.42,3.23l.06.07.23.27a10.89,10.89,0,0,0,4.05,3.14,9.72,9.72,0,0,0,3.55.78c1.31.06,2.41-.1,3.17,0,.57,0,1.93,0,3.75-.05,5-.22,13.4-1,18.63-3.43.32-.15.64-.29.93-.44l.29-.14.84-.44.14-.09a13.32,13.32,0,0,0,2.31-1.57l.07-.07a10.35,10.35,0,0,0,1.67-1.82l20-20.25s.47-.69,1.18-1.94v0s0,0,0-.05c.41-.67.85-1.52,1.35-2.5a7.81,7.81,0,0,1,7.1-3.3c6.54.45,15.67-6.09,11.75-13.51s-4.34-12.45,2.18-12,5.91-3.12,6.33-7.49c2.7,16.24,21.89,29.53,21.89,91.72,0,3.74-.06,7.64-.21,11.72-.24,6.45-5.63,20.12-10.61,34.48a212.71,212.71,0,0,0,198.9,9.35q7.41-3.49,14.55-7.58c.34-.19,9.34-6.51,13.56-8.05-5.13-16.76-11-33.91-11.44-41a367.69,367.69,0,0,1,2.95-80.3c.14-1,.28-1.91.43-2.84-.15.93-.28,1.87-.42,2.84,3.36.63,7.56.67,9.28,2.08a21.48,21.48,0,0,1,4.33,5.89,6.64,6.64,0,0,0,1.57,3.68,11.35,11.35,0,0,1,1.19,1.74c1.22,2.15,2.12,4.72,5.1,7.39,3.43,3.08,12,9.45,13.68,10.73a.69.69,0,0,1,.13.11s0,0,.05,0c2.3,2,6.47,6.05,8.31,10.3,2.6,6,10.37,9.5,19,9.5s12.94,3.45,17.27-2.6,4.75-7.32,5.61-17.69,6.48-34.08,9.93-47.05-1.54-72.92-.34-98.49c0,0-.26-9.54,2.11-15.55,2.91-7.37,9.45-13.7,19.8-18,9.81-4.08,20.38-7.75,21.48-8.13,3.05.15,5.48.16,6-.12,1.2-.61,5.47-4.29,8.38-6.94,6.77-1.78,16.45-4.39,17.23-4.59a4.63,4.63,0,0,0,1.24-1.07c1.85-.74,7.85-5.61,13.41-8,6.66-2.89,12.28-6,13-7.63S628.81,223.72,622.28,224.48ZM252.79,268.94l-.42-.73c.14.24.28.49.43.73.42.71.83,1.42,1.26,2.14ZM260.55,281c.84,1.11,1.73,2.24,2.68,3.37C262.27,283.26,261.39,282.14,260.55,281Zm21.32-47a1.22,1.22,0,0,1-.05.17,3.6,3.6,0,0,1-.83,1.25c-.78.9-2.08,1.5-4.48,2.35-1.49.54-3.26,1.17-5.44,2.08,7.28-9.06,8.65-6.87,11-8A20.63,20.63,0,0,1,281.87,234ZM331,310.67c-.44.09-.91.16-1.42.24.51-.08,1-.16,1.43-.25,1.53-.32,3.18-.59,4.91-.88C334.23,310.08,332.58,310.35,331,310.67Zm18.83-61.34c0-12.16,1.38-29.46,1.47-30.48C351.34,218.85,351.24,234.62,349.87,249.33Zm26.37-75-2.24,4c1.19-3.18,1.83-5.15,1.83-5.15s.22-1,.55-2.56C376.34,171.86,376.29,173.1,376.24,174.35Zm49.43,157.94c-.28,2.33.67,6.46,2.13,11.32C426.33,338.75,425.38,334.61,425.67,332.29Zm2.62,12.9c.34,1.07.7,2.18,1.06,3.3C429,347.36,428.63,346.25,428.29,345.19Z" fill="#373537" style="mix-blend-mode:overlay"/><path d="M359.72,111.56c0,9-4.48,29.12-4.48,29.12s-.65,2-1.84,5.15c-2.57,7-7.68,19.91-13.84,30.68a32.86,32.86,0,0,1-8.82,9.83,51.85,51.85,0,0,1-22.62,9.11l-.4.05-.63,0c-2.24,0-9-2.24-15.67-4.48-5.09-1.7-16.62-12.4-23.86-19.43-2.3-2.24-4.18-4.13-5.26-5.2-4.48-4.48-4.48-26.87-4.48-26.87a13.78,13.78,0,0,1-6.58-2.24c-3.7-2.65-4.14-6.9-5.71-10.06l0,0c-2.24-4.48-2.24-20.16,0-24.63,1.65-3.32,3.31-4.17,5-4.42a16.86,16.86,0,0,1,1.74-.06c2.24,0,2.24,9,2.24,9,2,2.13,11.34-7.5,20.45-23.2S292.24,67,296.92,64s13.53,0,13.53,0-3.31-5.84-7.05-11.22c11.31-.29,22.61,3.18,33.92,5.07,13.44,2.24,17.92,13.43,22.4,20.15S359.72,102.61,359.72,111.56Z" fill="#ecc19c"/><g opacity="0.4" style="mix-blend-mode:multiply"><path d="M359.72,111.58a75.71,75.71,0,0,1-.89,9.72c-.16,1.11-.34,2.25-.52,3.38-1.31,8.11-3.07,16-3.07,16s-.65,2-1.84,5.15c-2.57,7-7.68,19.91-13.84,30.69a30,30,0,0,1-4.6,6.07,5.77,5.77,0,0,1-.42.44,34.88,34.88,0,0,1-3.8,3.32A52,52,0,0,1,310.9,195c-1.14.24-2.09.38-2.78.47l-.4,0c-.27,0-.5.05-.63.05a2.17,2.17,0,0,1-.36,0,13.81,13.81,0,0,1-1.79-.3c-1.63-.36-3.82-1-6.28-1.79l-.15,0c-2.22-.7-4.65-1.51-7.1-2.32a16.58,16.58,0,0,1-3.61-1.92.18.18,0,0,1-.07,0q-.36-.23-.72-.48A114.79,114.79,0,0,1,276.44,180c-3-2.67-5.9-5.45-8.38-7.84l-.49-.48c-2.31-2.24-4.19-4.12-5.27-5.2-4.37-4.37-4.48-25.82-4.48-26.84v0c-.31,0-.63-.07-.92-.12l-.46-.08-.51-.09a12.58,12.58,0,0,1-4.69-1.94h0c-3.68-2.63-4.14-6.9-5.7-10.05l0,0c-2.24-4.47-2.24-20.15,0-24.63,1.65-3.31,3.31-4.17,5-4.41a14.47,14.47,0,0,1,1.74-.07c2.24,0,2.24,9,2.24,9,1.15,1.2,4.61-1.35,9-6.63a118.94,118.94,0,0,0,11.4-16.57c9.14-15.69,17.33-16.87,22-19.91,3.39-2.2,9-1.21,11.79-.5,1,.25,1.64.46,1.73.49-.08-.13-.84-1.48-2-3.44l-1-1.57c-1.16-1.89-2.57-4.07-4.05-6.2,11.32-.29,22.62,3.18,33.93,5.06,13.44,2.24,17.92,13.44,22.4,20.16S359.72,102.62,359.72,111.58Z" fill="url(#f4b4804c-c475-4620-93fe-121f10edd5e2)"/></g><path d="M310.45,64s-8.85-3-13.53,0-12.87,4.21-22,19.91-18.43,25.33-20.45,23.2c0,0,11.2-33.59,15.68-38.07S283.58,55.58,297,53.34a44.53,44.53,0,0,1,6.39-.59C307.14,58.13,310.45,64,310.45,64Z" fill="#ecc19c"/><path d="M308.7,181.69a7.36,7.36,0,0,1-2.12.55c-4.55.69-8.95-.68-13.49-.14-2.58.31-5.31,2-5.57,4.58a4,4,0,0,1-.43,1.94A114.54,114.54,0,0,1,276.52,180a19.37,19.37,0,0,1-2.54-5.16c-.79-2.52-1.05-5.25-2.85-7.29s-4.31-3.66-5.91-6.1c-2.25-3.46-2.73-7.66-3.52-11.61a30,30,0,0,0-1.58-5.82c-.59-1.4-2.13-2.94-2.18-4.37h0l-.92-.16-.46-.08-.51-.09c-1.9-.35-4.44-1-4.68-1.94v0c-.13-.74-.24-1.35-.33-1.8-.6-2.85-.6-7.91-2.42-10.15s-2.65-7.5-1-9.71,1.21-8.12,2.22-9.72,2.24,3.22,1.43,5.66a38.88,38.88,0,0,0-2,8.11c-.19,2.41,0,6.27,2.24,6.9s.61,3.22,2.82,4.65,3.65-1.83,1.64-4.65-2-8.31-.2-9.54,6.47-9.32,7.28-13.78c.1-.57.33-1.54.64-2.8,2.21-8.6,8.91-30.82,13.15-32,4.79-1.41,13.31-12,30.79-9.46l.81.13s.05.53.16,1.45c.08.75.18,1.75.3,3,.85,8.26,2.44,25.61,1.37,29.44-1.43,5.08-14.1-.06-19.36.35-4.26.33-8.53,3.7-10.93,7.19-.45.64-.13-.07-.45.64-3.34,7.57,2,14,8.36,17.21a31.91,31.91,0,0,0,16.69,3.24,4.6,4.6,0,0,1,2.34.19,3.5,3.5,0,0,1,1.48,1.75,9,9,0,0,1-.78,8.67c-1.65,2.37-4.32,3.76-6.45,5.69s-3.76,5.07-2.47,7.64c1.14,2.27,4.31,3.58,4.22,6.12-.05,1.68-1.63,2.93-3.21,3.52s-3.32.8-4.75,1.69c-2.61,1.64-3.46,5.19-2.84,8.2a14.64,14.64,0,0,0,1.69,4.72,4.94,4.94,0,0,0,3.59,1.83,48.92,48.92,0,0,1,11.47,3.23,4.2,4.2,0,0,1,1.1.6,2.89,2.89,0,0,1,.81,1.26A4.2,4.2,0,0,1,308.7,181.69Z" fill="url(#aaa42d4d-b34c-4c93-bde7-4d4819524e23)"/><path d="M328.16,253.88c-4.07,3-9.47,4.57-16.1,5.11-9.81.78-22.3-.74-37.1-3.18-15-2.47-27.26-16.19-33-27.64v0c-3.74-7.48-4.68-14-1.72-15.68a87.74,87.74,0,0,1,10.21-5.15c2.17-.92,3.94-1.54,5.44-2.08,2.4-.85,3.69-1.46,4.48-2.35a3.64,3.64,0,0,0,.83-1.26c.71-1.68,1.07-35.2,1.07-35.2,4.48,4.48,22.4,22.39,29.12,24.63s13.43,4.48,15.67,4.48l.63,0,.4-.05c.54-.06,1.28-.18,2.13-.35a51.78,51.78,0,0,0,20.49-8.76c-.09,1.07-1.57,19.93-1.46,32.11a53.77,53.77,0,0,0,.56,8.22C331.52,235.11,338.26,246.42,328.16,253.88Z" fill="#ecc19c"/><g opacity="0.5" style="mix-blend-mode:multiply"><path d="M328.16,253.88c-4.07,3-9.47,4.57-16.1,5.11-9.81.78-22.3-.74-37.1-3.18-15-2.47-27.26-16.19-33-27.64v0c-3.74-7.48-4.68-14-1.72-15.68a87.74,87.74,0,0,1,10.21-5.15c2.17-.92,3.94-1.54,5.44-2.08,2.4-.85,3.69-1.46,4.48-2.35a3.64,3.64,0,0,0,.83-1.26c.71-1.68,1.07-35.2,1.07-35.2,4.48,4.48,22.4,22.39,29.12,24.63s13.43,4.48,15.67,4.48l.63,0,.4-.05c.54-.06,1.28-.18,2.13-.35a51.78,51.78,0,0,0,20.49-8.76c-.09,1.07-.7,20.2-1.46,32.11a32.62,32.62,0,0,0,.56,8.22C331.52,235.11,338.26,246.42,328.16,253.88Z" fill="url(#b92dcddc-b91c-4fc7-a51f-f37b74225981)"/></g><path d="M312.11,259s0,0-.05,0c-9.81.78-22.3-.74-37.1-3.18-15-2.47-27.26-16.19-33-27.64v0c5.64-3.14,13.08-7.35,15.48-12.74,1.72-3.9,2.64-5.31,2.93-12.52a3.64,3.64,0,0,0,.83-1.26,13.28,13.28,0,0,0,.27-2.3c.53-7.91.8-32.9.8-32.9l1.59,1.59a8.47,8.47,0,0,1,.67.67l1.37,1.32c.52.52,1.05,1.06,1.63,1.62,7.24,7,18.77,17.73,23.86,19.43,6.71,2.24,13.43,4.48,15.67,4.48l.63,0,.4-.05c.54-.06,1.28-.18,2.13-.35l0,0s-9.81,16.41-7.5,36.95,7.12-3,11.49-2.62S326.15,253.52,312.11,259Z" fill="url(#f930b1af-5cb8-492f-96a2-fc7bea68da2c)"/><path d="M310.45,64s-8.85-3-13.53,0-12.87,4.21-22,19.91-18.43,25.33-20.45,23.2c0,0,0-9-2.24-9a16.86,16.86,0,0,0-1.74.06,29.29,29.29,0,0,1,1-3.53c3.51-9.84,8.89-33.06,20.82-41.93s18.1-10.52,23-8.64c2.13.78,5.22,4.59,8.09,8.66C307.14,58.13,310.45,64,310.45,64Z" fill="#ad764d"/><g opacity="0.3" style="mix-blend-mode:color-burn"><image width="133" height="137" transform="translate(214.13 7)" xlink:href="victoria-21.png"/></g><path d="M135.12,417.9c-3.89,13.66-4.54,16.26-11.69,19.51s-20.26,3.6-22.37,3.47-6.52,1.18-10.77-3.88a4.28,4.28,0,0,1-.29-.33c-4.35-5.47-3.23-5-5.33-8.13S72.51,386,76.05,350.94s7-69.42,5.86-83.24S79,246.22,79.27,243s12.65-5.89,14.42-8.25c.58-.78,2.69-2.1,5.24-3.47,5.2-2.84,12.32-5.93,12.7-5.35.58.9,4.41,14.42,3,26.18s-.61,57.08,2.06,75.63,9.4,30.59,10.28,42a168.14,168.14,0,0,1,.4,20.2S139,404.26,135.12,417.9Z" fill="#ecc19c"/><g opacity="0.5" style="mix-blend-mode:darken"><path d="M135.12,417.9c-3.89,13.66-4.54,16.26-11.69,19.5s-20.26,3.61-22.37,3.48-6.51,1.18-10.78-3.87c-.11-.12-.19-.23-.28-.34-4.34-5.46-3.23-5-5.33-8.13-.53-.77-1.54-3.81-2.73-8.48-3.55-14.05-8.55-42.84-5.89-69.12,3.51-35,7-69.42,5.86-83.24-.31-3.67-.66-6.9-1-9.74-1-7.84-1.86-12.59-1.64-15a2.84,2.84,0,0,1,1.31-1.78,27.18,27.18,0,0,1,5.67-2.8c3.25-1.31,6.59-2.53,7.45-3.67.58-.78,2.68-2.1,5.23-3.46,5.2-2.85,12.32-5.94,12.7-5.36.58.89,4.41,14.42,3,26.18s-.6,57.08,2.07,75.63,9.41,30.59,10.27,42a167.23,167.23,0,0,1,.41,20.21S139,404.26,135.12,417.9Z" fill="url(#b3b290ed-551b-479e-92ec-7e650a14fc8e)"/></g><path d="M135.12,417.9c-2.28,8-3.45,12.23-5.48,15a10.21,10.21,0,0,1-2.31,2.33,21,21,0,0,1-3.9,2.2c-7.14,3.24-20.26,3.6-22.37,3.47s-6.52,1.18-10.77-3.88a13.43,13.43,0,0,0,5.51.72c4.19-.65,6.13-3.87,3.87-10.64s5.8.63,11.29,0,5.46-41,0-53.54-12-92.23-11.49-100a158.74,158.74,0,0,0,0-16.77s5,5.73,6.14,2.37-4.17-26.63-6.14-26.87c-.34,0-.51-.45-.54-1.06,5.2-2.84,12.32-5.93,12.7-5.35.58.9,4.41,14.42,3,26.18s-.61,57.08,2.06,75.63c.51,3.53,1.16,6.85,1.88,10,1.7,7.1,3.81,13.19,5.51,18.75.47,1.59.92,3.13,1.32,4.63a49.43,49.43,0,0,1,1.57,8.71,168.14,168.14,0,0,1,.4,20.2S139,404.26,135.12,417.9Z" fill="url(#ec5aed3f-8958-49cd-823f-4ef36107c3b3)"/><path d="M152.23,408.07c-.49,1-.94,1.84-1.34,2.51,0,0,0,0,0,0v0c-.72,1.26-1.19,1.95-1.19,1.95l-20,20.29c2-2.75,3.2-7,5.48-15,3.9-13.64-7.79-27.93-7.79-27.93a168.14,168.14,0,0,0-.4-20.2,49.43,49.43,0,0,0-1.57-8.71c-.4-1.5-.85-3-1.32-4.63,5.17.69,14.51,3.56,25.64,14.22C162.4,382.85,156.26,400,152.23,408.07Z" fill="#a17a94"/><g opacity="0.5" style="mix-blend-mode:color-burn"><image width="107" height="149" transform="translate(87.13 320)" xlink:href="victoria-22.png"/></g><path d="M182.15,229.22a1.21,1.21,0,0,1-.18.05c-1.92.64-2.8,5.67-3.28,7.25a62.15,62.15,0,0,0-2.46,14.53,199.86,199.86,0,0,0-.12,23.22c.18,3.44,0,7.51,1,10.8.91,3,2,5.3,2.26,8.57,1.44,18.48,1.83,37,2.22,55.56.16,7.71-1.24,15-2,22.57-.43,4.36.21,7.93-6.33,7.48s-6.1,4.63-2.18,12-5.22,14-11.76,13.51a7.81,7.81,0,0,0-7.1,3.29c4-8.06,10.17-25.22-2.55-37.42C138.55,360,129.21,357.12,124,356.43c-.23-.72-.45-1.44-.67-2.15-1.57-5-3.36-10.39-4.84-16.6,1.34-.4,2.93-.71,4.52-1.16a3.69,3.69,0,0,0,.45-.11c4.55-1.35,3-2.45,1-9.16-.18-.54-.34-1.12-.49-1.73-2.2-8.28.09-12.4,3.07-11.76,1.47.32,6.06,9.66,5.21-3-1.88-28.78,10.91-49.65,22.67-65.33C166.5,230.05,184.68,228.46,182.15,229.22Z" fill="#895881"/><g opacity="0.5" style="mix-blend-mode:color-burn"><image width="137" height="252" transform="translate(82.13 193)" xlink:href="victoria-23.png"/></g><path d="M137.61,346.24c-7.23-3.43-10.64,0-13.57,2.28-2.22,1.73,4.75,4.55,6.27,5.15-.16,0-.38-.11-.7-.22a8.16,8.16,0,0,0-6.24.83c-1.57-5-3.36-10.39-4.84-16.6,1.34-.4,2.93-.71,4.52-1.16,2.31,2.17,7,2.89,11.13,2.89C139.87,339.41,144.82,349.66,137.61,346.24Z" fill="url(#b16cff29-831b-48a6-99bc-230f0c6918f6)"/><path d="M182,229.27c-1.06.26-2.57,4.39-4.15,10.33h0c-.3,1.1-.59,2.26-.89,3.48-3.24-.39-7-.2-8.55.94-3,2.28-1.53,15.59-3.43,20.54s-3-8.39-6.89-11.79-4.13,3-4.5,8.36,2.66,21.27-3.09,17.85-12.12,6.46-9.8,10.26,8.7,0,12.89,0,7.59,28.12,0,24.31-15.21-4.18-17.63-2.66,6.61,15.58,3.18,12.92-8-3.05-11-3.05,1.14,6.48-.74,5.71a3.05,3.05,0,0,0-2.82.77c-.18-.55-.34-1.13-.49-1.73-2.2-8.29.09-12.41,3.07-11.75,1.47.31,6.07,9.65,5.22-3-1.88-28.78,10.9-49.65,22.66-65.33,10.32-13.76,26-16.46,27.32-16.32C182.49,229.09,182.39,229.16,182,229.27Z" fill="url(#a2f37b20-514f-4e5a-95e1-058433008109)"/><path d="M340.1,266.83c-8.35,8.95-20.87,9.54-29.65,11.33s-30,0-47.86-10.13-24.43-21.47-30.39-31.59c-4.79-8.11-6.49-12.41-3.31-18.57a33.91,33.91,0,0,1,3.31-5.06c7.15-9.32,18.28-5.49,18.28-5.49a87.74,87.74,0,0,0-10.21,5.15c-1.28.74-1.84,2.38-1.73,4.62.11,2.91,1.32,6.83,3.45,11.06v0c5.71,11.45,18,25.17,33,27.64,14.8,2.44,27.29,4,37.1,3.18,6.63-.54,12-2.11,16.1-5.11,10.1-7.46,3.36-18.77,1.68-27.21a53.77,53.77,0,0,1-.56-8.22c1.39,1.59,5.87,6.9,10.82,13.8C346.06,240.6,348.45,257.89,340.1,266.83Z" fill="#a17a94"/><g opacity="0.5" style="mix-blend-mode:color-burn"><image width="191" height="145" transform="translate(191.13 170)" xlink:href="victoria-24.png"/></g><path d="M352.12,99.55c-1.56,3.77-1.79,10.48-1.79,10.48s-15.19-6.42-17-6.65-7.36,1.7-11.07,7.91c-2.28,3.8-3.12,15.23-3.69,24-.36,5.57-.61,10.09-1,11-1.07,2.27-3.33-.45-5.42-.05s-3.42-1.87-3.81-4.18,7-26,7.27-31.85-2.39-6.39-3.68-10.73-14.95-3.25-19-7.21-.39-14.39,0-19.54,7.71-14.14,7.71-14.14c2.57-.93,48.49,11.94,54,19.29C358.14,82.61,354.91,92.82,352.12,99.55Z" opacity="0.2" fill="url(#a1c23c76-11c0-4041-81a5-4a60400982d5)"/><path d="M463.92,338.2c-1.1,3.78-2.19,7.63-3.2,11.55l0,0c-.14.53-24.53,19.79-27.37,23-2.4,2.71-11.17,10.61-10.53,17.24a21.82,21.82,0,0,0-4.32-5.89c-1.72-1.41-5.93-1.45-9.29-2.08,3.65-24.59,8.33-38.94,6.43-45.57-3.41-11.94-12.5-33.37-10.24-37.87,1.7-3.41,10.93-39.69,11.38-59.89.16-6.53-.61-11.39-2.85-12.92a12,12,0,0,0-2.3-1.07c2,.56,13.1,4.63,23.4,26.54,3.07,6.54,5.11,11.37,6.49,15.11,3.77,10.1,3,12.34,6,18.9a91.49,91.49,0,0,1,5.37,16.17c.92,4.06,1.25,7.33.74,8.6-1,2.47-6.36,1.73-5.73,5a6.78,6.78,0,0,0,.78,1.88,11.27,11.27,0,0,0,2.78,3.2c2.93,2.36,6.16,2.85,6.81,6.12.11.56.22,1.07.33,1.54.85,3.27,1.7,4.93-.33,7.46-2.33,2.91,1.85-2.17,3.78.29A31.55,31.55,0,0,1,463.92,338.2Z" fill="#895881"/><g opacity="0.5" style="mix-blend-mode:color-burn"><image width="132" height="239" transform="translate(368.13 188)" xlink:href="victoria-25.png"/></g><path d="M415.73,337c.69,2.94.23,7.27-.8,13.18,0,.21-.07.41-.11.62-1.21,6.77-3.12,15.55-4.9,26.63-2.25,9.6-7.71,18.73-10.82,28.2A169,169,0,0,0,391.74,438c-4.42,36.67,5,72.07,13.5,107.36.18.78.32,1.5.41,2.16.56,4-.6,5.94-3,7.38q-3.6,1.54-7.26,2.94l-.71.27c-1.92.72-3.86,1.43-5.81,2.1-2.39.83-4.81,1.61-7.23,2.35-.73.23-1.47.45-2.21.66l-.67.2-1.88.53c-.69.2-1.4.39-2.09.57a1.41,1.41,0,0,1-.22.06c-.75.21-1.51.41-2.27.6l-2.6.64h0c-1,.25-2,.48-3,.71s-2.05.47-3.09.68l-.15,0c-1.91.4-3.82.78-5.74,1.12-.22.05-.44.08-.66.12-.93.17-1.84.32-2.76.47s-2.09.33-3.13.49-1.83.27-2.75.39l-.83.11c-.83.11-1.66.22-2.49.31a4.6,4.6,0,0,1-.52.06c-.77.1-1.54.18-2.31.26l-.84.1-2.8.25c-.9.09-1.82.16-2.72.22l-.78.07-1.79.12-1.38.08-2.59.13H329c-.63,0-1.27.06-1.91.07s-1.06.05-1.59.06c-1.18,0-2.35.06-3.53.06l-2.61,0H319c-1.16,0-2.31,0-3.46,0A210.19,210.19,0,0,1,206.37,539.2c-1.64-1.05-3.26-2.11-4.87-3.21h0l-.5-.34c-5.57-4.49-5.28-13.19-3.94-19.25.73-3.3,1.44-6.58,2.12-9.87v0A176.15,176.15,0,0,0,202,488.3a214.3,214.3,0,0,0-2-56.89,152.72,152.72,0,0,0-6.13-23.3c-1-3-2-5.89-3.13-8.8v0c-1.47-4-3-7.9-4.46-11.84-.2-.84-.37-1.69-.55-2.55-1.31-6.57-1.9-13.55-3-19.78-1.79-10.62-3.39-21.27-4.61-32-.73-6.35-1.33-12.72-1.92-19.07Q174.49,295,172.71,276a85.55,85.55,0,0,1-.54-9.73c1.32-7.69,3.06-16.22,4.76-23.15,1.9-7.76,3.78-13.51,5-13.82l.18,0c5.31-1.13,33.87-8.18,45.42-11l.66-.17h0c.24,0,.45-.11.66-.16-3.18,6.16-1.48,10.46,3.31,18.56,6,10.13,12.52,21.46,30.4,31.6a87.28,87.28,0,0,0,39.2,10.73h1.28a38.41,38.41,0,0,0,7.37-.61c8.78-1.8,21.3-2.38,29.66-11.33s5.95-26.23,0-34.59c-4.95-6.88-9.42-12.18-10.81-13.78h0s66,1,82,6.23a.45.45,0,0,1,.14,0,11.82,11.82,0,0,1,2.46,1.12c9.13,6.28-6.27,68.31-8.54,72.81s6.83,25.93,10.23,37.87A4.43,4.43,0,0,1,415.73,337Z" fill="#895881"/><path d="M425.29,259.19c-2.28,11.64-16.71,33.52-17.6,34.89.45-.78,4.34-7.77,3.72-18.39-.5-8.86-4.15-20.29-15.52-32.71-25.89-28.24-41.7-50.8-41.19-76.55.18-8.4.61-16.71.94-24.59.68-16.26.88-30.66-2.71-40.11-5.28-14-8.22-24.61-16.46-29.31s-26-8.45-26-8.45S301.2,52.8,295.31,44.09c0,0,1-11.07,24.9-7s48,16,55.07,38.28,1.19,74.12,15.88,88.79,45.31,33.75,20.6,48.62S427.64,247.19,425.29,259.19Z" fill="#ad764d"/><g opacity="0.5" style="mix-blend-mode:color-burn"><image width="203" height="331" transform="translate(259.13)" xlink:href="victoria-26.png"/></g><path d="M262.3,166.43s-.27,25-.8,32.9c-2.38,1.12-3.74-1.08-11,8-5.38,6.68-4.75,11.92-2.62,15.57-3.9-4.44-7.75-10.62-5.87-16.35,3.45-10.55,19.84-29,8.49-46.6s-5-32.7-5-32.7l0,0c1.57,3.16,2,7.41,5.71,10.06a13.78,13.78,0,0,0,6.58,2.24S257.82,162,262.3,166.43Z" fill="#ad764d"/><g opacity="0.3" style="mix-blend-mode:color-burn"><image width="94" height="168" transform="translate(205.13 91)" xlink:href="victoria-27.png"/></g><path d="M56.9,199.65s-8.9-3-12.94-3.84-5.46-1.86-6.67-3.56-4-2.15-4.86-2.33-.74-3.84-5.72-6.15-11.26-4.34-12.07-.9,14.2,16.33,21.13,18.8,19.31,6.47,21.13,3.84S56.9,199.65,56.9,199.65Z" fill="#ecc19c"/><g opacity="0.3" style="mix-blend-mode:color-burn"><path d="M56.9,199.65s-8.9-3-12.94-3.84-5.46-1.86-6.67-3.56-4-2.15-4.86-2.33-.74-3.84-5.72-6.15-11.26-4.34-12.07-.9,14.2,16.33,21.13,18.8,19.31,6.47,21.13,3.84S56.9,199.65,56.9,199.65Z" fill="url(#a4a73df3-3d3c-44a1-ba3a-3b0e394e2577)"/></g><path d="M56.9,199.65s-8.9-3-12.94-3.84-5.46-1.86-6.67-3.56-4-2.15-4.86-2.33-.74-3.84-5.72-6.15-11.26-4.34-12.07-.9,14.2,16.33,21.13,18.8,19.31,6.47,21.13,3.84S56.9,199.65,56.9,199.65Z" fill="url(#a1dfa89a-6806-491b-9f09-f04ad1c221df)"/><path d="M7.57,183.77S2.72,178,3.93,176.6s3.23-1.21,5.66,0,7.88,7.28,8.09,8.09,8.49,4.82,10.1,7.56,7.28,2.55,8.9,3.36,4.15-.21,6.47,2,10.62,5.69,4,6.47-16-2.07-19.61-3.36S7.57,183.77,7.57,183.77Z" fill="#ecc19c"/><path d="M356,126.63c-1.62,3.18-3.55,7-4.55,9.24-2,4.31-6,20.73-17.89,22.25-2.72.35-11.56-15.72-12.78-17.05.05.42.12.85.21,1.27.29,1.27.58,2.53.76,3.8a26.7,26.7,0,0,1-3.23-10.81c.57-8.81,1.41-20.24,3.69-24,3.71-6.21,9.23-8.14,11.07-7.91s17,6.65,17,6.65.23-6.71,1.79-10.48c.27.72.54,1.44.81,2.18C355.35,108.1,356.05,116.71,356,126.63Z" opacity="0.2" fill="url(#e00618ab-4cda-45d4-9067-176eb47c526f)" style="mix-blend-mode:multiply"/><path d="M7.57,183.77S2.72,178,3.93,176.6s3.23-1.21,5.66,0,7.88,7.28,8.09,8.09,8.49,4.82,10.1,7.56,7.28,2.55,8.9,3.36,4.15-.21,6.47,2,10.62,5.69,4,6.47-16-2.07-19.61-3.36S7.57,183.77,7.57,183.77Z" fill="url(#a163e6c9-f202-4573-af26-2889689e6cca)"/><path d="M356,126.63c-1.62,3.18-3.55,7-4.55,9.24-2,4.31-6,20.73-17.89,22.25-2.72.35-11.56-15.72-12.78-17.05.05.42.12.85.21,1.27.29,1.27.58,2.53.76,3.8a26.7,26.7,0,0,1-3.23-10.81c.57-8.81,1.41-20.24,3.69-24,3.71-6.21,9.23-8.14,11.07-7.91s17.86,7.6,17.86,7.6-.62-7.66.94-11.43c.27.72.54,1.44.81,2.18C355.35,108.1,356.05,116.71,356,126.63Z" opacity="0.2" fill="url(#bc9bb4db-48b9-4a7c-b94c-e0712e295fea)" style="mix-blend-mode:multiply"/><path d="M10.6,193.38l-3.84-5.66S.69,181.86.09,180.24s2-3.43,5.25-2.42,7.69,2.6,9.91,6a30.78,30.78,0,0,1,2.83,4.91s7.28,3.09,8.9,6.12,4,1.62,5.86,1.82,9.9,2,11.12,4.12,4.65,9.42-2,9S10.6,193.38,10.6,193.38Z" fill="#ecc19c"/><g opacity="0.2" style="mix-blend-mode:color-burn"><path d="M10.6,193.38l-3.84-5.66S.69,181.86.09,180.24s2-3.43,5.25-2.42,7.69,2.6,9.91,6a30.78,30.78,0,0,1,2.83,4.91s7.28,3.09,8.9,6.12,4,1.62,5.86,1.82,9.9,2,11.12,4.12,4.65,9.42-2,9S10.6,193.38,10.6,193.38Z" fill="url(#ec5bf71a-7dd2-4f6c-bbe2-54f393316e02)"/></g><path d="M10.6,193.38l-3.84-5.66S.69,181.86.09,180.24s2-3.43,5.25-2.42,7.69,2.6,9.91,6a30.78,30.78,0,0,1,2.83,4.91s7.28,3.09,8.9,6.12,4,1.62,5.86,1.82,9.9,2,11.12,4.12,4.65,9.42-2,9S10.6,193.38,10.6,193.38Z" fill="url(#ac0454a0-4a9e-477e-8b1b-c00c31877a12)"/><path d="M254.33,229a17.62,17.62,0,0,1-6.45-6.11A53.59,53.59,0,0,0,254.33,229Z" fill="#ad764d"/><g opacity="0.36" style="mix-blend-mode:color-burn"><image width="317" height="427" transform="translate(136.13 181)" xlink:href="victoria-28.png"/></g><path d="M410.16,551.54A212.69,212.69,0,0,1,206.37,539.2,22,22,0,0,1,217,529.65c25-10,20.47-43.67,10.24-69.87s-22.74-80.06-15.23-78.09,66.43,18,85.62,0,83.57,13.37,85.32-4c1.39-13.68,13.1-50.37,14.62-79.55,5.15,47.9,14.91,152.53-7.14,187.85C369.36,519.75,392.81,535.81,410.16,551.54Z" fill="#cccbcc" opacity="0.2" style="mix-blend-mode:multiply"/><path d="M384.73,360.3c-9.51-15.9-13.58-.27-9.62,1.41s-11.29,5.42-13.4-37.55c-1.36-27.68-10-28.63-28.1-41.7-7.74-5.59-13-32.1-8.06-44.8s5.19-51.32,5.19-51.32a32.86,32.86,0,0,0,8.82-9.83c6.16-10.77,11.27-23.67,13.84-30.68l2.45-8c-.34,7.88-1,20.2-1.15,28.6-.51,25.75,15.3,48.31,41.19,76.55,11.37,12.42,15,23.85,15.52,32.71-1.91,9.25-3.61,17.65-3.74,18.41a.06.06,0,0,0,0,0s-9.4.22-7.81,9.74,10.32,17.69,4,29.49S414.14,374.59,418.1,377,394.27,376.18,384.73,360.3Z" fill="#9b6642"/><g opacity="0.5" style="mix-blend-mode:color-burn"><image width="168" height="309" transform="translate(287.13 105)" xlink:href="victoria-29.png"/></g><path d="M87.06,200.56c-2.3.29-12.4.56-20.2-2a22.87,22.87,0,0,0-3.51-.89.55.55,0,0,0-.18,0,.37.37,0,0,0-.14,0c-1.65-.34-3.49-3.72-4.25-5.38s-1.5-5.62,1.68-7.43,5.44-.61,8,0,8,7.27,9.38,9.09,3.94,4.39,5.6,5A26.92,26.92,0,0,1,87.06,200.56Z" fill="#ecc19c"/><path d="M87.06,200.56c-2.3.29-12.4.56-20.2-2a22.87,22.87,0,0,0-3.51-.89.55.55,0,0,0-.18,0,.37.37,0,0,0-.14,0c-1.65-.34-3.49-3.72-4.25-5.38s-1.5-5.62,1.68-7.43,5.44-.61,8,0,8,7.27,9.38,9.09,3.94,4.39,5.6,5A26.92,26.92,0,0,1,87.06,200.56Z" opacity="0.38" fill="url(#bb5e5392-c065-4061-af34-579317c6f3f3)" style="mix-blend-mode:color-burn"/><path d="M87.06,200.56c-2.3.29-12.4.56-20.2-2a22.87,22.87,0,0,0-3.51-.89.55.55,0,0,0-.18,0,.37.37,0,0,0-.14,0c-1.65-.34-3.49-3.72-4.25-5.38s-1.5-5.62,1.68-7.43,5.44-.61,8,0,8,7.27,9.38,9.09,3.94,4.39,5.6,5A26.92,26.92,0,0,1,87.06,200.56Z" fill="url(#a70e5f07-cd0a-40c1-8748-60df5e523d10)"/><path d="M327.17,119.89c.08.13,5-1.13,5.42-1.2,2.9-.46,6.34-.74,9.19.12a7.32,7.32,0,0,1,1.63.69c2.31,1.36,2.26,5.09,4.76,5.93,1.79.61,4.84.33,6.06-1.28,1.75-2.29,2.86-4.36,2.09-7s-5.1-9.44-9.49-8.13-12.64-4.11-15.91-.74S324.86,116.21,327.17,119.89Z" opacity="0.5" fill="url(#faaf97b0-fdeb-4420-b5e5-e2abf4fc1557)" style="mix-blend-mode:multiply"/><path d="M111.63,225.91c1,3.16-29.76,17.67-32.36,17.07,0,0,.85-4.06-6.36-8.67s-16.73-13.84-27.1-16.44-14.42-3.76-17.31-3.47-10.39-8.64-13-11S8.59,192.18,8.3,191.31s4.61-5.46,8.65,0,7.79,9.54,10.39,11.27,12.4,1.14,13.28,2.3-.88-4,1.72-4.32,7.5-2.31,11-2.31c2.83,0,4.89-1.54,9.86-.67a.55.55,0,0,1,.18,0,22.87,22.87,0,0,1,3.51.89c7.8,2.6,17.9,2.33,20.2,2A13.53,13.53,0,0,1,95.42,202c3.47,1.73,6.25,4.91,10.19,7.8s6.54,5.51,6,8.08A13.75,13.75,0,0,0,111.63,225.91Z" fill="#ecc19c"/><path d="M553.73,208.7s6.23-4.81,7-8.4-4-5.22-7-3.88-9.32,6.21-9.92,10.8S553.73,208.7,553.73,208.7Z" fill="#ecc19c"/><path d="M553.73,208.7s6.23-4.81,7-8.4-4-5.22-7-3.88-9.32,6.21-9.92,10.8S553.73,208.7,553.73,208.7Z" opacity="0.43" fill="url(#a1257fdb-e5da-4b8b-8b58-5f5471703934)" style="mix-blend-mode:color-burn"/><path d="M553.73,208.7s6.23-4.81,7-8.4-4-5.22-7-3.88-9.32,6.21-9.92,10.8S553.73,208.7,553.73,208.7Z" fill="url(#f8b36eac-1dab-4e66-a4b0-22fe83cfe840)"/><path d="M111.63,225.91c1,3.16-29.76,17.67-32.36,17.07,0,0,.85-4.06-6.36-8.67s-16.73-13.84-27.09-16.44-14.43-3.76-17.32-3.47-10.39-8.64-13-11S8.6,192.18,8.3,191.31s4.61-5.46,8.64,0,7.8,9.54,10.4,11.27,12.4,1.14,13.28,2.3-.88-4,1.72-4.32a24.46,24.46,0,0,0,3.59-.83,30.66,30.66,0,0,1,7.38-1.48c2.83,0,4.88-1.55,9.86-.67a1,1,0,0,1,.18,0,22.87,22.87,0,0,1,3.51.89c7.79,2.6,17.9,2.33,20.21,2A13.45,13.45,0,0,1,95.42,202c3.46,1.71,6.23,4.88,10.15,7.76,0,0,0,0,0,0,4,2.89,6.55,5.5,6,8.08A13.84,13.84,0,0,0,111.63,225.91Z" fill="url(#e748d0ba-0631-40ce-9156-4e1cb2bcb0b5)"/><path d="M560.53,216.12c-.1,1-.22,1.75-.22,1.75L547.79,226s-11.22,3.85-21.59,8.17-16.88,10.66-19.8,18c-2.37,6-2.1,15.55-2.1,15.55-1.21,25.57,3.78,85.54.33,98.49s-9.06,36.71-9.92,47.05-1.29,11.67-5.62,17.69-8.62,2.6-17.26,2.6-16.4-3.45-19-9.5c-1.83-4.25-6-8.28-8.31-10.3,0,0,0,0,0,0-.94-.85-1.57-1.32-1.57-1.32s-3.45-3,2.58-9.51a36.59,36.59,0,0,0,5.18-7.77c.41-.8.82-1.61,1.2-2.41a101.22,101.22,0,0,0,4.41-11,105.4,105.4,0,0,1,2.07-21.54c.17-.9.33-1.77.53-2.65s.32-1.57.49-2.32c.43-1.84.86-3.65,1.33-5.44l0,0c1-3.92,2.1-7.77,3.2-11.56,1.5-5.19,3-10.31,4.23-15.42,3.66-15.33,5.47-53.66,6.06-67.66.11-2.7.18-4.49.21-5a9.29,9.29,0,0,1,.16-1.17c.74-3.72,3.82-10.13,7.46-16,4.59-7.35,12.38-16.2,20.76-18.86,2.91-.93,11-2,16.93-3.23,10.5-2.26,17.71-2.2,21.59-4.32s12.95-1.32,16.84,0a2.63,2.63,0,0,1,1.22.92C560.94,209.43,560.78,213.71,560.53,216.12Z" fill="#ecc19c"/><g opacity="0.3" style="mix-blend-mode:multiply"><path d="M560.53,216.12c-.1,1-.22,1.75-.22,1.75L547.79,226s-11.22,3.85-21.59,8.17-16.88,10.66-19.8,18c-2.37,6-2.1,15.55-2.1,15.55-1.21,25.57,3.78,85.54.33,98.49s-9.06,36.71-9.92,47.05-1.29,11.67-5.62,17.69-8.62,2.6-17.26,2.6-16.4-3.45-19-9.5c-1.83-4.25-6-8.28-8.31-10.3,0,0,0,0,0,0-.94-.85-1.57-1.32-1.57-1.32s-3.45-3,2.58-9.51a36.59,36.59,0,0,0,5.18-7.77c.41-.8.82-1.61,1.2-2.41a101.22,101.22,0,0,0,4.41-11,105.4,105.4,0,0,1,2.07-21.54c.17-.9.33-1.77.53-2.65s.32-1.57.49-2.32c.43-1.84.86-3.65,1.33-5.44l0,0c1-3.92,2.1-7.77,3.2-11.56,1.5-5.19,3-10.31,4.23-15.42,1.31-5.51,2.39-14,3.26-23.24,0-.17,0-.34,0-.52,1.52-16.37,2.38-35,2.76-43.9.08-1.91.14-3.38.18-4.26q0-.54,0-.78a9.29,9.29,0,0,1,.16-1.17c.74-3.72,3.82-10.13,7.46-16,4.59-7.35,12.38-16.2,20.76-18.86,2.91-.93,11-2,16.93-3.23,10.5-2.26,17.71-2.2,21.59-4.32s12.95-1.32,16.84,0a2.63,2.63,0,0,1,1.22.92C560.94,209.43,560.78,213.71,560.53,216.12Z" fill="url(#e670aa59-b50e-4d3e-ae47-6a03f0170754)"/></g><path d="M460.7,349.78c-.88,3.4-1.68,6.85-2.35,10.41a104.65,104.65,0,0,0-2.06,21.54s-4.75,14.67-10.8,21.14-2.57,9.52-2.57,9.52.56.43,1.43,1.21c-1.73-1.28-10.26-7.64-13.68-10.73-3-2.66-3.88-5.24-5.11-7.39a11.86,11.86,0,0,0-1.19-1.74,6.68,6.68,0,0,1-1.57-3.68c-.64-6.63,8.13-14.53,10.53-17.24C436.17,369.57,460.56,350.31,460.7,349.78Z" fill="#a17a94"/><g opacity="0.5" style="mix-blend-mode:color-burn"><image width="111" height="137" transform="translate(386.13 313)" xlink:href="victoria-210.png"/></g><path d="M580,213.2c0,1.38,7.33-5.06,14-8s12.29-6,13-7.64,1.21-6.38-5.32-5.62S580,199.88,580,213.2Z" fill="#ecc19c"/><path d="M580,213.2c0,1.38,7.33-5.06,14-8s12.29-6,13-7.64,1.21-6.38-5.32-5.62S580,199.88,580,213.2Z" opacity="0.47" fill="url(#a733d6c5-56dd-45fe-80a3-24c8b8a8af4d)" style="mix-blend-mode:color-burn"/><path d="M555.51,220.54c.88,0,22.64-5.88,23.82-6.2s9.47-11.05,12-14,10.21-13.24,10.36-15.44-3.1-7.39-9.17-2.06-16.25,22-17.47,22.44S553.08,216.46,555.51,220.54Z" fill="#ecc19c"/><path d="M555.51,220.54c.88,0,22.64-5.88,23.82-6.2s9.47-11.05,12-14,10.21-13.24,10.36-15.44-3.1-7.39-9.17-2.06-16.25,22-17.47,22.44S553.08,216.46,555.51,220.54Z" fill="url(#ad7aac8b-c326-4e04-831a-9bae4a5d1ac5)"/><path d="M555.51,220.54c.88,0,22.64-5.88,23.82-6.2s9.47-11.05,12-14,10.21-13.24,10.36-15.44-3.1-7.39-9.17-2.06-16.25,22-17.47,22.44S553.08,216.46,555.51,220.54Z" opacity="0.5" fill="url(#abf3683e-c149-44f9-aa5a-6f31186ce08e)" style="mix-blend-mode:color-burn"/><path d="M562.61,214.32s6.81.26,9.77-1.12,9.47-12.64,13.32-15.3,6.66-7.55,6.8-8.59-2.81-7.25-8.73-3a28,28,0,0,0-8.58,10.81s-7.55,5.36-9.47,8.08S561.86,214.31,562.61,214.32Z" fill="#ecc19c"/><path d="M560.53,216.12c-.1,1-.22,1.75-.22,1.75L547.79,226s-11.22,3.85-21.59,8.17-16.88,10.66-19.8,18c-2.37,6-2.1,15.55-2.1,15.55-1.21,25.57,3.78,85.54.33,98.49s-9.06,36.71-9.92,47.05-1.29,11.67-5.62,17.69-8.62,2.6-17.26,2.6-16.4-3.45-19-9.5c-1.83-4.25-6-8.28-8.31-10.3,0,0,0,0,0,0-.94-.85-1.57-1.32-1.57-1.32s-3.45-3,2.58-9.51a36.59,36.59,0,0,0,5.18-7.77c.41-.8.82-1.61,1.2-2.41,1.1,6.76-11.74,13.32-1.2,20.9,11.9,8.56,20.3,3.69,23.91,7.32s13.64.46,13.18-3.63S486,413.6,486,413.6s.93-35.49,4.1-50,6.33-76.07,5.88-86.9-1.79-13.29-3.61-19.39c-1.56-5.24.27-9.6,5-15.23l.07-.08c.84-.93,1.67-1.87,2.45-2.79.2-.24.41-.47.6-.71a33.16,33.16,0,0,0,4.91-7.2c2.41-5.89,9.62-12.4,13.9-13.42,2-.48,6.17-1.78,10.39-2.9h0C534.68,214.44,552.32,216.57,560.53,216.12Z" opacity="0.4" fill="url(#b055b3ba-37dd-4753-850d-5cb4702b6853)"/><path d="M497.37,242c.73-.89,1.55-1.82,2.45-2.79C499,240.12,498.21,241.06,497.37,242Z" opacity="0.4" fill="url(#b9e9699d-7c2f-4152-b40f-326ae9b55622)"/><path d="M570.15,202.93c-.14.59-4.58,12.28-5.32,13.31s-9.33,8.74-11.1,9.63-22.05-1.15-22.05-1.15c-3.33-6.55-1.7-9.38,1-10.6a16.68,16.68,0,0,1,6.51-.93c4.89,0,9.18,4.24,10.37,2.91s7.25-4.14,8.72-4.88,1.67-2.68,4.45-8.29c2-4,5-2.57,6.5-1.21C569.85,202.25,570.2,202.76,570.15,202.93Z" fill="#e4b69d"/><path d="M416.76,238.76c.16-6.53-.61-11.39-2.85-12.92a12,12,0,0,0-2.3-1.07c2,.56,13.1,4.63,23.4,26.54,3.07,6.54,5.11,11.37,6.49,15.11-6.33,7.24-15.74,14-12.76,7.86,4-8.35-.31-18.25-3.36-23.2C423.86,248.57,420.14,243.71,416.76,238.76Z" fill="url(#ef6b4a2f-a65b-41d6-9f0c-eae29fe0c314)"/><path d="M422.76,329c-7.5-.32,1.34-5.58,7.84-10.84s-8,2.17-12.12-1.55,5.31-4.95,11.49-11.75-2.46-8.65,1.26-15.77,10.5,3.72,12.36,9.52c1.18,3.74,5.33,3.58,9.29,2.84.92,4.06,1.25,7.33.74,8.6-1,2.47-6.36,1.73-5.73,5C439.94,318.94,428.25,329.24,422.76,329Z" fill="url(#ae5d13ee-9b69-40b3-bb8e-f55a232d7ec4)"/><path d="M458.59,327.87c-10,6.23-35.23,31.15-35.83,29.3-.69-2.15,2.89-5.87,7.52-11.45s3.41-3.09-.91-4.32,2.46-8.67,5.51-12.36c1.88-2.31,11.1-5.56,16.57-8.83,2.93,2.36,6.16,2.85,6.81,6.12C458.37,326.89,458.48,327.4,458.59,327.87Z" opacity="0.6" fill="url(#e94382f2-08f5-4f1e-961b-e65c309270b4)"/><path d="M311.5,100.63a10.54,10.54,0,0,1,1.25,1.67,17.59,17.59,0,0,1,1.23,2.81,12.45,12.45,0,0,1,1,4.74,9.32,9.32,0,0,1-.79,3.1A5,5,0,0,1,312,115.8a4.39,4.39,0,0,1-1.87.31,8.1,8.1,0,0,1-4.18-1.18,5.86,5.86,0,0,1-1.79-2.54,16.16,16.16,0,0,0-4.43-6.09c-3.37-2.57-9.74-3.19-11.61-3-.71.09-.6-1.38-.56-1.75a6.61,6.61,0,0,1,1.8-3.67c2.21-2.33,5.62-2.81,8.68-2.55a29.64,29.64,0,0,1,8,2,13.09,13.09,0,0,1,3.45,1.37A14,14,0,0,1,311.5,100.63Z" opacity="0.4" fill="url(#bed2891f-c2cc-4397-8e88-836e44b072a6)"/><path d="M333,109.1a1.31,1.31,0,0,1-.89.5,16.1,16.1,0,0,0-10.8,9.84c-.89,2.43-.75,4.72-.67,7.28.09,3.16.2,6.33.06,9.5a28.11,28.11,0,0,0,.1,4.85c.05.42.12.85.21,1.27a30.89,30.89,0,0,1,1,6.83,4.43,4.43,0,0,1-.07.81c-.37,1.71-1.52,1.85-2.79,1.17a8.36,8.36,0,0,0-4.59-.82c-.89,0-1.78.12-2.66.1a7.23,7.23,0,0,1-2.17-.33,3.74,3.74,0,0,1-1.32-.7c-.66-.54-1.73-2-1.12-2.73s2.34-.58,3.12-.47a8.5,8.5,0,0,0,3.93-.39c1.41-.52,2.39-1.37,2.51-2.22,0-.21.06-.43.07-.64.11-1.26,0-2.58,0-3.83a138.3,138.3,0,0,1,1.22-16.51,30.11,30.11,0,0,1,3.71-11.69c1.81-3,4.15-5.52,7.57-6.4.77-.2,1.83-.28,2.15.45.24.54-.11,1.17.05,1.74s.58.77.93,1.1S333.27,108.69,333,109.1Z" opacity="0.5" fill="url(#bc62c954-8852-4f04-9f81-ea27e9131fe8)"/><path d="M320.87,166.4a2.72,2.72,0,0,1-.85,1.25c-2,2-4.9,3.58-7.78,3.39a41.5,41.5,0,0,1-6.7-1.38,51.92,51.92,0,0,1-6.76-1.73,13.72,13.72,0,0,1-4.56-3.52h0c-.73-.78-2.93-3.2-2.36-4.5a.93.93,0,0,1,.22-.31c1-1,3.6.36,4.68.64,2.38.6,4.74,1.28,7.11,1.93h0c1.43.39,2.86.77,4.3,1.12,1.09.27,2.18.49,3.29.68h0c2,.36,3.94.62,5.9.93C318.9,165.14,321.11,165.24,320.87,166.4Z" fill="#ab6d56"/><path d="M311,168.88c-.87.09-2.33-.26-7.16-1.14a40.29,40.29,0,0,1-9.58-3.33h0c-.73-.78-2.93-3.2-2.36-4.5a.93.93,0,0,1,.19-.28l0,0a14.84,14.84,0,0,0,3.83,2,13.77,13.77,0,0,0,1.37.46l-.54,0s2.57.88,6,2.27,6.8,1.31,8.71,2S311.82,168.78,311,168.88Z" opacity="0.2" fill="url(#f0418322-6caa-407d-b17e-094c0c64c193)"/><path d="M308.1,163.27a17,17,0,0,0-3.84-.19,23.67,23.67,0,0,1-7-1h0a13.77,13.77,0,0,1-1.37-.46,14.84,14.84,0,0,1-3.83-2l0,0,0,0c1-1,3.6.36,4.68.64,2.38.6,4.74,1.28,7.11,1.93h0C305.29,162.55,306.69,162.92,308.1,163.27Z" fill="#ab6d56"/><path d="M320.87,166.4a2,2,0,0,1-.55.92,4.09,4.09,0,0,1-.3.33c-2,2-4.9,3.58-7.78,3.39a41.5,41.5,0,0,1-6.7-1.38,51.92,51.92,0,0,1-6.76-1.73,13.72,13.72,0,0,1-4.56-3.52,40.29,40.29,0,0,0,9.58,3.33c4.83.88,6.29,1.23,7.16,1.14s2.43-1.73.52-2.45-5.23-.64-8.71-2-6-2.27-6-2.27l.54,0h0a23.67,23.67,0,0,0,7,1,17,17,0,0,1,3.84.19l.09,0c1.09.27,2.18.49,3.29.68h0c2,.36,3.94.62,5.9.93C318.9,165.14,321.11,165.24,320.87,166.4Z" fill="#ab6d56"/><ellipse cx="295.52" cy="110.98" rx="3.68" ry="3.69" transform="matrix(0.07, -1, 1, 0.07, 163.72, 397.83)" fill="#4f4f4d"/><ellipse cx="295.63" cy="110" rx="1.57" ry="1.46" transform="translate(164.82 397.03) rotate(-85.91)" fill="#0f1110"/><path d="M302.78,114.4s-2-4.09-4-5.2-7.75-2.54-10.46-1.78-5.28-.35-5.89-1.07,1.19,1.36,3.36.24c2.94-1.51,9.92-1,11.59,0a11.46,11.46,0,0,1,3.67,2.82C302.23,110.86,302.78,114.4,302.78,114.4Z" fill="#704a37"/><path d="M286.31,108.63a9.71,9.71,0,0,0,3.42,4.14c2.4,1.52,8.47,2.32,9.21,2.15s3.06.08,2.13.6-5.33,0-7.49-.53a18.11,18.11,0,0,1-6.35-3.25c-.51-.63-3.21-3-2.57-3.22A3.36,3.36,0,0,1,286.31,108.63Z" fill="#b08874"/><path d="M310.61,100.63c-2.61,1.83-5.55-.65-8.21-1.15L294.59,98a31.45,31.45,0,0,0-3.71-.48,9.46,9.46,0,0,0-1.68,0c-.24,0-.48.08-.74.1l-.95.24a51.07,51.07,0,0,0-7.63,2.62c1.41-2.66,3.9-4.46,6.36-5.87l.95-.52c.4-.15.82-.29,1.24-.42a12.79,12.79,0,0,1,2.38-.38,18.89,18.89,0,0,1,4.42.31c2.85.49,11.47,2.53,14.28,2.79C316.39,97,310.56,100.23,310.61,100.63Z" fill="#8c6239"/><path d="M331.53,106.28c.84,3.2,14.3,6.6,15.71,7.26,4.25,2,5.89,6.47,6.07,6.67l.59.84c1.49,2.33.06-5.22-.18-5.61-.5-.73-1.12-3.66-4.73-6.66-2.55-1.61-11.4-4.38-13.9-5.89C330.14,99.9,331.83,106,331.53,106.28Z" fill="#8c6239"/><ellipse cx="336.99" cy="123" rx="3.89" ry="3.69" transform="translate(175.7 443.43) rotate(-83.33)" fill="#4f4f4d"/><ellipse cx="337.15" cy="121.96" rx="1.66" ry="1.46" transform="translate(176.87 442.68) rotate(-83.33)" fill="#0f1110"/><path d="M327.25,120.81c.3.57,4.94-.73,6.4-.93s6.84,1,7.88,1.81c1.48,1.17,2.82,3.75,3.67,4.83s4.14,1.72,4.82.57c0,0-2.95.15-3.84-1.56s-2-4.15-4.75-5.26-5.3-2.17-8.87-.82A37,37,0,0,1,327.25,120.81Z" fill="#704a37"/><path d="M331,123.65c1.46.74,4.25,2.84,7.66,3.46a29.88,29.88,0,0,0,6.09.71c.33-.1.79.67.36,1s-2.7.08-4.09-.17a29.63,29.63,0,0,1-5.89-1.76A19.83,19.83,0,0,1,331,123.65Z" fill="#b08874"/><g opacity="0.4" style="mix-blend-mode:color-burn"><path d="M303.61,116.37s4.46,2.5,4.46,4.24,4.16-4,5.79-7.11-.22-12.41-3.41-12.19S297,96.19,295.32,97.14s4.83,5,1,6.59-13.4-1.8-13.28,1-.68,3.41,1,3.36,10-.39,12.55.4,4.52,1.7,5.54,3.42A15.85,15.85,0,0,1,303.61,116.37Z" fill="url(#b3ec89c8-706e-4422-8f4d-14a3db3ec1ca)"/></g><path d="M105.57,209.76c-1.43-.28-3.51-1-5.91-1.71-5.94-1.74-9.87,1.41-13.93,2.47s4.58,6.18,2.65,8.29-16.59,0-24.7-1.94S51.87,208.93,52,206.54s-6-4-6.11-6.8h0a30.66,30.66,0,0,1,7.38-1.48c2.83,0,4.88-1.55,9.86-.67a1,1,0,0,1,.18,0,22.87,22.87,0,0,1,3.51.89c7.79,2.6,17.9,2.33,20.21,2A13.45,13.45,0,0,1,95.42,202C98.88,203.71,101.65,206.88,105.57,209.76Z" opacity="0.8" fill="url(#a7e9a68f-5239-433c-8254-b175919d2e53)"/><path d="M90.28,432.89c-2.4-1.87-5.43-6.69-8.34-12.83-3.55-14.05-8.55-42.84-5.89-69.12,3.51-35,7-69.42,5.86-83.24-.31-3.67-.66-6.9-1-9.74,1.36-2.93,2.41-6.14,2.21-8.83a25.29,25.29,0,0,0-2.54-7.93c-2.12-4.66-4.3-8.72-1.13-9.55,2-.52,4.53,2.43,6.8,6.75,3.23,6.18,6,15.17,6.25,20.79.42,9.55,1.7,68.78,0,79.44s-2.54,64.77.86,73.29S95.91,437.23,90.28,432.89Z" fill="url(#b87c3c75-a732-4b6e-ba83-6e5ef8b6db38)"/><path d="M559.38,207.46a20,20,0,0,1-4.07,2.26c-4.33,1.93-10.54,4.94-14.22,3.67-2-.68-6.74.33-11.47,1.58h0c-4.22,1.12-8.37,2.42-10.39,2.9-4.28,1-11.49,7.53-13.9,13.42a33.16,33.16,0,0,1-4.91,7.2c-.19.24-.4.47-.6.71-.78.92-1.61,1.86-2.45,2.79l-.07.08c-4.62,5.08-9.72,9.84-11.21,10.59-2.41,1.21-8.73.89-11.51-3.76.74-3.72,3.82-10.13,7.46-16,4.59-7.35,12.38-16.2,20.76-18.86,2.91-.93,11-2,16.93-3.23,10.5-2.26,17.71-2.2,21.59-4.32s12.95-1.32,16.84,0A2.63,2.63,0,0,1,559.38,207.46Z" fill="url(#a31f7a19-4ff3-477d-afde-559ccdd2f1bc)"/><path d="M477.47,330.38c1.73,30.33-3.44,60.38-9.92,63.46-4.44,2.13-10.71,7.27-12.95.48a117.51,117.51,0,0,0,4.63-13.86,136.71,136.71,0,0,1,1.71-22.32c.15-.92.28-1.83.44-2.74s.26-1.62.41-2.4c.35-1.9.71-3.79,1.1-5.64v0c.83-4.05,1.74-8,2.64-12,1.25-5.37,2.49-10.68,3.51-16,.92-4.86,1.7-11.94,2.36-19.85,0-.17,0-.34,0-.52,1.52-16.37,2.38-35,2.76-43.9.08-1.91.14-3.38.18-4.26.81,3.52,1.66,5.76,3.08,7.08C480.49,260.68,475.75,300.05,477.47,330.38Z" fill="url(#b6abd550-c14d-4ff6-a89b-2c691037cba7)"/><path d="M569.26,201.72c-6.86-.66-6.17,7.76-9.88,12.62s-7.24,5.72-13.92,2.63c-1.42-.66-4.06-2.55-6.21-2.29-11.77,1.44-7.2,9.15-9.18,5.86-1-1.6-.56-5.6,2.64-6.42a30.4,30.4,0,0,1,6.51-.93c4.89,0,9.18,4.24,10.37,2.91s7.25-4.14,8.72-4.88,1.67-2.68,4.45-8.29C564.75,198.9,567.77,200.36,569.26,201.72Z" fill="url(#b6702554-dfcb-4711-8d2c-d6e89297ffee)"/><path d="M317.82,167.11a36.77,36.77,0,0,1-7.39-3,13.16,13.16,0,0,0-2.33-.89,17,17,0,0,0-3.84-.19,23.79,23.79,0,0,1-7-1,13.77,13.77,0,0,1-1.37-.46,14.84,14.84,0,0,1-3.83-2c-.3-.23-.24,0-.3-.23,0,0-.07.05,0-.13a3,3,0,0,1,1.57-1.12,32.3,32.3,0,0,1,3.36-.83c3.36-.64,6.43-.31,7.4.13a4.18,4.18,0,0,1,1,.63,2.31,2.31,0,0,1,.24.2h0c.89.77,1.58,1.69,2.57,2s3.07-.77,4-.9l.16,0h.32a13.94,13.94,0,0,1,5.34,2.17c1.17,1.19,2.86,3.05,3.24,4.69S319,167.37,317.82,167.11Z" fill="#b1735a"/><path d="M299.53,143.5a3.72,3.72,0,0,1,1.09-3.36c1.54-1.56,2.72-2.59,2.72-2.59s1-2.07,0-2.18S298,140.85,299.53,143.5Z" fill="url(#a05ede1d-f2da-47c4-8097-374a2149a3af)"/><path d="M300.62,140.14s-1.63,1.21-1,4.15,5.12,1.5,6.05,2.94,1.48,3.16,4.32,3.5,4.1.28,5.08-.31a5.34,5.34,0,0,1,3.14-.61c1.49.15,3.21,2.47,4,.07.48-1.41-.27-3.09-.68-4.44a30.23,30.23,0,0,1-1.61-5.3c-.24-2.11-.67,4.66-3.93,5.66s-5.29.63-6.6-1.11-1.44-4.05-3.44-3.84S301.31,140.82,300.62,140.14Z" opacity="0.37" fill="url(#a9b12279-45d3-49bd-8a0e-eb8efba1c67b)"/><path d="M300.05,144.4c.44.58,3.79-1.09,6,1.73s2.11,3.38,4.77,3.74,4.56-.11,6.34,0,2.53,0,3.29,1,2-.84,1.28-1.69-2.76-1.95-3.82-1.82-4.34,1.46-6.61,0-4.51-3.55-5.61-3.72S298.8,142.76,300.05,144.4Z" opacity="0.59" fill="url(#fcca58c6-702a-4e78-be35-bf4ae4a9f89e)"/><g opacity="0.5"><path d="M314.49,150.05a1.76,1.76,0,0,1,.75-.31c.26-.08.53-.15.79-.21a12.39,12.39,0,0,1,1.62-.23,7.69,7.69,0,0,1,.83,0h.21a1.1,1.1,0,0,1,.26.06,1.74,1.74,0,0,1,.4.23,1.45,1.45,0,0,1,.61,1.55h0a1.68,1.68,0,0,0-.84-1.17,1.2,1.2,0,0,0-.3-.15.38.38,0,0,0-.13,0l-.19,0c-.27,0-.53,0-.8-.05a12.12,12.12,0,0,0-1.59.1c-.53,0-1.07.18-1.58.24Z" fill="#6b5146"/></g><g opacity="0.5"><path d="M306.5,146.8c-.43-.28-.85-.64-1.31-.91a12.79,12.79,0,0,0-1.4-.78c-.24-.11-.48-.21-.73-.3l-.18-.07-.14,0a1.31,1.31,0,0,0-.34,0,1.62,1.62,0,0,0-1.25.69l0,0c0-.61.67-1,1.23-1.13a2.27,2.27,0,0,1,.46,0,1.45,1.45,0,0,1,.26.07l.19.08.73.4a12.35,12.35,0,0,1,1.35.92c.21.17.42.34.62.52s.44.34.54.61Z" fill="#6b5146"/></g><path d="M307.7,149.89a61.63,61.63,0,0,0-2.38,6.71c-.59,2.73,2.26,3.54,2.58,3.65,1.36.48,4.16-.78,4.2-1.3.13-1.64,0-6.86,0-7.44S307.7,149.89,307.7,149.89Z" opacity="0.5" fill="url(#ed3e18a5-ede6-460e-a4fa-6a2b1fddadf2)"/><g opacity="0.5"><path d="M311.67,159.42l-2.05.7a4.35,4.35,0,0,1-2.18,0,4.81,4.81,0,0,1-1.79-1.27,2.67,2.67,0,0,1-.7-2.07,18.56,18.56,0,0,1,1.31-4.15c.28-.67.58-1.33.88-2l.23-.49.1-.24a.28.28,0,0,0,0,0s0,0,0,0a3.9,3.9,0,0,1-.78-.79,5.91,5.91,0,0,0-1.35-1.6,4.81,4.81,0,0,0-1.89-.79,16.11,16.11,0,0,1-2.15-.4,2.79,2.79,0,0,1-1.66-1.55,3.71,3.71,0,0,1-.31-2.2,4.59,4.59,0,0,1,.84-2,18.07,18.07,0,0,1,3.15-3l0,0a18.28,18.28,0,0,0-3.05,3,4,4,0,0,0-.31,4,2.37,2.37,0,0,0,1.46,1.28,17.34,17.34,0,0,0,2.09.38,4.84,4.84,0,0,1,2.07.89,6.31,6.31,0,0,1,1.4,1.72,4,4,0,0,0,.72.76.35.35,0,0,1,.12.22.41.41,0,0,1,0,.22c0,.1-.08.18-.12.26l-.23.49c-.32.65-.62,1.3-.91,2a18.16,18.16,0,0,0-1.37,4.06,2.5,2.5,0,0,0,.62,1.92,4.61,4.61,0,0,0,1.69,1.24,4.3,4.3,0,0,0,2.11.05l2.06-.65Z" fill="url(#b5046606-80f6-48d6-ae88-1b82a82793d2)"/></g><path d="M314.84,108.87c-.12,2.3-.28,4.6-.53,6.88s-.54,4.58-1,6.85-1.19,4.45-1.8,6.67-1.28,4.41-2,6.61l-.07,0c.47-2.25,1-4.49,1.51-6.73l1.64-6.68c.53-2.22.94-4.48,1.27-6.75s.64-4.55.87-6.83Z" fill="url(#a94adee7-12aa-4eb5-a6ea-becad9a3c1d4)"/><path d="M303.8,112.31a25.54,25.54,0,0,0-3.27-4.8,5.84,5.84,0,0,0-1-.9c-.41-.25-.82-.49-1.24-.7a12,12,0,0,0-2.65-1,13.9,13.9,0,0,0-5.64-.12,20,20,0,0,0-5.43,2.05,16,16,0,0,1,5.28-2.68,12.34,12.34,0,0,1,6-.15,11.36,11.36,0,0,1,2.83,1.12c.44.26.86.53,1.27.82a7.17,7.17,0,0,1,1.11,1.09A18.72,18.72,0,0,1,303.8,112.31Z" fill="url(#ba9a56b5-c1ca-4a6a-aa0a-43493812491a)"/><path d="M358.88,124.13c-1.31,8.1-3.07,16-3.07,16s-.65,2-1.83,5.15c-2.58,7-7.69,19.91-13.85,30.68a30.61,30.61,0,0,1-5.59,7.07,34.69,34.69,0,0,1-3.23,2.76,48.69,48.69,0,0,1-15.47,7.54c-1.66.5-3.3,1.1-4.94,1.66-1.14.24-2.09.38-2.78.47l-.4,0c-.27,0-.5.05-.63.05-1.43,0-4.67-.91-8.58-2.16-2.22-.7-4.65-1.51-7.1-2.32a16.93,16.93,0,0,1-3.68-2,4.54,4.54,0,0,1-.72-2.38,2.82,2.82,0,0,1,1.45-1.42c1.68-.64,4.46.35,6.08.8,3.93,1.09,7.92,3.11,12.11,2.25a9.4,9.4,0,0,0,6.11-4.38c.94-1.59,2.86-6.27-.45-6.69a14.08,14.08,0,0,1-4.7-1.22,25.07,25.07,0,0,0-5.64-2.44c-1.83-.38-3.81-.16-5.51-.93a9.69,9.69,0,0,1-3.76-3.83c-.48-.74-2.42-3.84-.64-4,.52,0,1.37.64,1.86.86a49.47,49.47,0,0,0,5.82,2c2.87.87,5.76,1.7,8.68,2.39,2.48.6,5.2,1.73,7.51.19,1-.68,1.85-1.58,2.83-2.31.59-.44,1.23-.82,1.78-1.32s.36-.75.1-1.39a7.86,7.86,0,0,0-2-3.27,18.41,18.41,0,0,0-3.63-2.43c-1.68-.76-3.13-1.11-3.78-3.11-.13-.38-.2-.77-.34-1.14a3.54,3.54,0,0,0-3.58-2.19c-.15,0-.33,0-.42-.08a.41.41,0,0,1,0-.36c.14-.56.29-1.13.48-1.68a2.32,2.32,0,0,1,1-1.48c.94-.47,2.07.34,3,.59a10,10,0,0,0,3.28.12,8.36,8.36,0,0,1,4.59.82c1.27.68,2.42.54,2.79-1.17a4.43,4.43,0,0,0,.07-.81,18,18,0,0,0-.26-3c-.18-1.27-.47-2.53-.76-3.8-.09-.42-.16-.85-.21-1.27,1.22,1.33,10.06,17.4,12.78,17.05,11.9-1.52,15.93-17.94,17.89-22.25s7.34-14.64,7.34-14.64v.07c0,.19,0,.82,0,1.79C358.87,123.4,358.88,123.75,358.88,124.13Z" opacity="0.3" fill="url(#feda4fd7-c799-4eab-8c82-6cba3c1da7f1)" style="mix-blend-mode:multiply"/><path d="M358.88,124.13c-1.31,8.1-3.07,16-3.07,16s-.65,2-1.83,5.15c-2.58,7-7.69,19.91-13.85,30.68a30.61,30.61,0,0,1-5.59,7.07,34.69,34.69,0,0,1-3.23,2.76,48.69,48.69,0,0,1-15.47,7.54c-1.66.5-3.3,1.1-4.94,1.66-1.14.24-2.09.38-2.78.47l-.4,0c-.27,0-.5.05-.63.05-1.43,0-4.67-.91-8.58-2.16-2.22-.7-4.65-1.51-7.1-2.32a16.93,16.93,0,0,1-3.68-2,1.75,1.75,0,0,1-.72-2.38,2.82,2.82,0,0,1,1.45-1.42c1.68-.64,4.46.35,6.08.8,3.93,1.09,7.92,3.11,12.11,2.25a9.4,9.4,0,0,0,6.11-4.38c1.1-1.86,3.19-6.33-.22-6.94-1-.18-2.2-.08-3.16-.36A18.14,18.14,0,0,1,306,174.8c-2.27-1.29-4.35-.53-6.78-.64a7.2,7.2,0,0,1-4.56-2.16c-1.42-1.37-3.33-3.66-3.69-5.67-.18-1.07.35-2.13,1.49-1.31a11.14,11.14,0,0,0,2.44,1.16,94.2,94.2,0,0,0,9.72,3c1.64.44,3.28.85,4.94,1.24q1,.24,2,.45c.51.11,1.51.55,1.95.42.23-.07.44-.21.67-.27a7.53,7.53,0,0,1,.83-.07,2.82,2.82,0,0,0,1.17-.56c1.08-.75,2.16-1.49,3.17-2.32.42-.35.93-.7,1.31-1.09s.26-.72.07-1.25a10.76,10.76,0,0,0-5.74-6.09c-1.68-.76-3.13-1.11-3.78-3.11-.13-.38-.2-.77-.34-1.14a3.54,3.54,0,0,0-3.58-2.19c-.15,0-.33,0-.42-.08a.41.41,0,0,1,0-.36c.14-.56.29-1.13.48-1.68a2.32,2.32,0,0,1,1-1.48c.94-.47,2.07.34,3,.59a10,10,0,0,0,3.28.12,8.36,8.36,0,0,1,4.59.82c1.27.68,2.42.54,2.79-1.17a4.43,4.43,0,0,0,.07-.81,18,18,0,0,0-.26-3c-.18-1.27-.47-2.53-.76-3.8-.09-.42-.16-.85-.21-1.27,1.22,1.33,10.06,17.4,12.78,17.05,11.9-1.52,15.93-17.94,17.89-22.25s7.34-14.64,7.34-14.64v.07c0,.19,0,.82,0,1.79C358.87,123.4,358.88,123.75,358.88,124.13Z" opacity="0.1" fill="url(#a0601d3f-8798-468c-8d88-392144dae938)" style="mix-blend-mode:multiply"/><g opacity="0.2" style="mix-blend-mode:multiply"><path d="M327.17,125a58.42,58.42,0,0,0,5.82,3.33c1,.5,2,.93,3.05,1.34s2.1.72,3.19,1.1a12.31,12.31,0,0,1-3.41-.42,16,16,0,0,1-3.23-1.19,18.82,18.82,0,0,1-2.94-1.8A13.53,13.53,0,0,1,327.17,125Z" fill="url(#fd0e0b43-890b-4f3a-b03a-4c9ab964dc40)"/></g><g opacity="0.26" style="mix-blend-mode:multiply"><path d="M252.23,110.41c0-1.18-.12-2.36-.25-3.54a25.4,25.4,0,0,0-.52-3.48c-.13-.56-.31-1.13-.49-1.68a3.36,3.36,0,0,0-.81-1.42c-.38-.34-.92-.13-1.37.2a8.63,8.63,0,0,0-1.27,1.15c-1.6,1.69-2,4.13-2.35,6.43s-.58,4.68-.71,7a57.79,57.79,0,0,1,.36-7.08,18.34,18.34,0,0,1,.65-3.52,7.76,7.76,0,0,1,1.71-3.18,9.13,9.13,0,0,1,1.36-1.2,2.48,2.48,0,0,1,.88-.42,1.21,1.21,0,0,1,1,.25,3.68,3.68,0,0,1,.92,1.62,13,13,0,0,1,.47,1.73A34.52,34.52,0,0,1,252.23,110.41Z" fill="url(#ea179c55-6235-4ebc-a621-b7a5b1aca38a)"/></g><g opacity="0.2" style="mix-blend-mode:multiply"><path d="M300.66,118.22a16.47,16.47,0,0,1-7.42-.17,18.22,18.22,0,0,1-3.47-1.43,15.08,15.08,0,0,1-3.07-2.11,36.13,36.13,0,0,0,3.31,1.62,27.42,27.42,0,0,0,3.41,1.25A22.43,22.43,0,0,0,297,118C298.2,118.14,299.43,118.21,300.66,118.22Z" fill="url(#b2bb9e7f-84db-4c78-85d8-e5cc64307bb9)"/></g><path d="M325.55,237.67c-1.5,3.87-2.05,9-1.89,14.49-1.53-2.37-3.22-4.4-4.4-7-1.08-2.42-2-5-4-6.85a3.64,3.64,0,0,0-3.12-1.14c-.5.12-1,.41-1.47.48-1.32.16-2.33-1.16-2.86-2.38-2.43-5.54-1.54-11.88-1.22-17.92.26-4.81,0-10.17-2.6-14.38-1.57-2.52-2.95-2.78-5.56-3.87a53.28,53.28,0,0,1-7.4-4.16,74.53,74.53,0,0,1-9.88-7.36c-5.21-4.62-9.19-10-13.24-15.53l.13.1c2.48,2.39,5.4,5.17,8.38,7.84A114.79,114.79,0,0,0,287,188.63q.36.26.72.48a.18.18,0,0,0,.07,0,16.58,16.58,0,0,0,3.61,1.92c2.45.81,4.88,1.62,7.1,2.32l.15,0c2.46.78,4.65,1.43,6.28,1.79a7.53,7.53,0,0,0,1.79.3,2.17,2.17,0,0,0,.36,0c.13,0,.36,0,.63-.05l.4,0c.69-.09,1.64-.23,2.78-.47a52,52,0,0,0,19.84-8.64C330.73,187.32,330.44,225.11,325.55,237.67Z" opacity="0.9" fill="url(#b89e405f-f66a-4ee2-90db-414cd9f07f41)" style="mix-blend-mode:multiply"/><path d="M310.32,141.07a3.59,3.59,0,0,0,.28,1.46,4.45,4.45,0,0,0,.59.71l.95,1a.83.83,0,0,1,.3.55c-.38-.06-.77,0-1.14-.05a3.79,3.79,0,0,1-1.92-1.17,4.67,4.67,0,0,1-1.43-1.84c-.21-.65-.37-1.05-1.19-1.15a.64.64,0,0,1-.34-.09c-.1-.07-.14-.24-.05-.31a.43.43,0,0,1,.16,0,5.77,5.77,0,0,0,1.25-.14c.22-.07.43-.17.65-.23A1.4,1.4,0,0,1,310.32,141.07Z" opacity="0.31" fill="url(#ba17e24b-0699-4f7c-b754-73ed6bb97b62)"/><path d="M296.74,166.53a14.47,14.47,0,0,0,2.77,1.42,19.66,19.66,0,0,0,2.95,1c2,.5,4.09.74,6.16,1.1.52.1,1,.19,1.56.33s1,.31,1.49.38a6.81,6.81,0,0,0,2.94-.18c2-.46,3.57-1.9,5.39-2.95l0,.06c-.78.7-1.58,1.37-2.4,2a9,9,0,0,1-2.84,1.52,6.43,6.43,0,0,1-3.26.19,7.27,7.27,0,0,1-.8-.22c-.24-.08-.48-.17-.73-.24-.49-.14-1-.26-1.5-.37-2-.43-4.11-.74-6.14-1.31a19.67,19.67,0,0,1-2.94-1.14,14.52,14.52,0,0,1-2.74-1.55Z" fill="#935f51"/><path d="M320.32,167.32a4.09,4.09,0,0,1-.3.33c-2,2-4.9,3.58-7.78,3.39a41.5,41.5,0,0,1-6.7-1.38,51.92,51.92,0,0,1-6.76-1.73,13.72,13.72,0,0,1-4.56-3.52,40.29,40.29,0,0,0,9.58,3.33c4.83.88,6.29,1.23,7.16,1.14s2.43-1.73.52-2.45-5.23-.64-8.71-2-6-2.27-6-2.27l.54,0h0a23.67,23.67,0,0,0,7,1,17,17,0,0,1,3.84.19,13.16,13.16,0,0,1,2.33.89C311.88,164.83,317.36,167.73,320.32,167.32Z" fill="url(#aa690e64-18dc-4608-9025-edaf193bc0b0)"/><path d="M312.08,159.38a4.46,4.46,0,0,1-1.06,2.4c-1,1.34-2.91.82-4.33.41a2.88,2.88,0,0,1-.93-.45,2.14,2.14,0,0,1-.78-1.5,6,6,0,0,1,.1-2.15,2.31,2.31,0,0,1,.24.2h0c.89.77,1.58,1.69,2.57,2s3.07-.77,4-.9l.16,0A.09.09,0,0,1,312.08,159.38Z" fill="#b1735a" opacity="0.2" style="mix-blend-mode:multiply"/><path d="M317.82,167.11a36.77,36.77,0,0,1-7.39-3,13.16,13.16,0,0,0-2.33-.89,17,17,0,0,0-3.84-.19,23.79,23.79,0,0,1-7-1,13.77,13.77,0,0,1-1.37-.46,15.85,15.85,0,0,1-3.83-2,1.34,1.34,0,0,1-.28-.16,3.35,3.35,0,0,1,.46.11c1.31,1.3,8.33,1.93,13.52,2.15a2.88,2.88,0,0,0,.93.45c1.42.41,3.28.93,4.33-.41a4.46,4.46,0,0,0,1.06-2.4l0,0h.27a13.94,13.94,0,0,1,5.34,2.17c1.17,1.19,2.86,3.05,3.24,4.69S319,167.37,317.82,167.11Z" opacity="0.46" fill="url(#b39ad936-6f0e-4e9e-81a7-2466acdfd788)" style="mix-blend-mode:multiply"/><path d="M291,159.34a1.17,1.17,0,0,0-1,.27.45.45,0,0,0-.11.41c.07.25.41.31.67.32.48,0,1,0,1.45,0a7.55,7.55,0,0,1,1,.27c1,.2,4.77,2.24,6.85,2.5,1.91.23,3.83.42,5.73.76,1.24.23,2.48.42,3.69.77s2.27.58,3.39.9c.88.26,1.68.65,2.54.94s1.87.53,2.8.81a9.94,9.94,0,0,1,2.11.55c.31.15.59.34.9.47a1.44,1.44,0,0,0,1,.06l.09,0a.34.34,0,0,0,.1-.16.64.64,0,0,0-.14-.53,1.23,1.23,0,0,0-.47-.32,6.15,6.15,0,0,0-2.1-.19,12.81,12.81,0,0,1-2.13-.28,15.55,15.55,0,0,1-4-1.46,19.29,19.29,0,0,0-6.09-2.13A30.22,30.22,0,0,0,304,163c-.95,0-1.94.06-2.88-.07a33.42,33.42,0,0,1-6.08-1.78,6.66,6.66,0,0,1-2.09-.92,3.08,3.08,0,0,0-1.85-.85Z" fill="#814735"/><path d="M302.25,156.91c-.88,0-1.75,0-2.62.05a15,15,0,0,0-2.56.41c-.84.2-1.68.44-2.52.64a8.23,8.23,0,0,0-2.41.85l0,0a2.81,2.81,0,0,1,1.09-.78,11,11,0,0,1,1.24-.48A17.59,17.59,0,0,1,297,157a15.34,15.34,0,0,1,2.63-.28c.87,0,1.75.06,2.62.14Z" fill="url(#f88a0967-f13c-49e6-8cb4-12723dbcf7c2)"/><g opacity="0.55"><path d="M291,160.14a6.36,6.36,0,0,1,1.36,1.47,12.74,12.74,0,0,0,1.17,1.59,36.93,36.93,0,0,0,2.68,2.92,15,15,0,0,0,1.45,1.32,8.46,8.46,0,0,0,1.73.86c1.23.49,2.48.94,3.74,1.37a28.55,28.55,0,0,1-3.86-1,6.81,6.81,0,0,1-1.86-.86,13.78,13.78,0,0,1-1.52-1.33,26.21,26.21,0,0,1-2.63-3,10.61,10.61,0,0,1-1.09-1.69A7.43,7.43,0,0,0,291,160.14Z" fill="url(#f1c33ad7-5d3c-4b89-89aa-71c06ff17095)"/></g><path d="M319.39,168.09a11.84,11.84,0,0,1-2.41,2.49,9.09,9.09,0,0,1-3.33,1.1,7.48,7.48,0,0,1-1.77,0,13.77,13.77,0,0,1-1.72-.34c-1.11-.27-2.21-.61-3.33-.87a28.1,28.1,0,0,1,3.41.53c.56.09,1.12.21,1.68.26a7.11,7.11,0,0,0,1.66-.08,9.68,9.68,0,0,0,3.21-.93A18.59,18.59,0,0,0,319.39,168.09Z" fill="#cf9e76"/><g opacity="0.12" style="mix-blend-mode:multiply"><image width="143" height="283" transform="translate(136.13 207)" xlink:href="victoria-211.png"/></g><g opacity="0.2" style="mix-blend-mode:multiply"><path d="M352.53,154a53.23,53.23,0,0,0-2.09,13.52A50.85,50.85,0,0,0,352,180.84a60.26,60.26,0,0,0,4.92,12.47c1.17,1.91,2.12,3.95,3.47,5.76l3.89,5.7a68.75,68.75,0,0,1,6.65,12.51l1.2,3.34c.41,1.11.66,2.28,1,3.41l.47,1.71.35,1.74c.19,1.17.48,2.32.59,3.5a61.77,61.77,0,0,1,.33,14.05c-.23,2.32-.5,4.63-.86,6.91l-.53,3.43-.23,1.71c-.06.57-.05,1.14-.09,1.72a39.38,39.38,0,0,1-.17-7c.06-2.3.11-4.6.07-6.88a71.66,71.66,0,0,0-1.36-13.52,67,67,0,0,0-10.47-24.63L357.38,201l-1-1.48c-.33-.49-.59-1-.88-1.54l-1.7-3.12c-.55-1.05-1-2.17-1.45-3.26l-.7-1.63c-.23-.55-.39-1.12-.58-1.68-.36-1.13-.78-2.25-1.09-3.39l-.79-3.47a46.58,46.58,0,0,1-.56-14.13A42.92,42.92,0,0,1,352.53,154Z" fill="url(#bc8f9897-669e-42d7-bae3-a57535450792)"/></g><g opacity="0.11" style="mix-blend-mode:multiply"><path d="M344.79,166.43c-.67,5.4-1.33,10.78-1.83,16.17s-.92,10.77-1.06,16.14,0,10.77,1.22,15.66c1.47,4.84,4.26,9.4,7.33,13.78s6.28,8.81,9.25,13.44a60.92,60.92,0,0,1,7.2,15,35.48,35.48,0,0,1,1,4.1c.28,1.37.44,2.69.65,4,.38,2.69.75,5.38,1.09,8.08.63,5.41,1.22,10.82,1.43,16.26q-1.53-8-3.22-16l-1.68-8c-.31-1.31-.54-2.68-.88-3.95a32.93,32.93,0,0,0-1.12-3.75,63.76,63.76,0,0,0-7.39-14c-3-4.45-6.23-8.76-9.36-13.27s-6.08-9.33-7.65-14.95a35.5,35.5,0,0,1-.7-4.25l-.2-2.1-.07-2.09c-.06-1.39,0-2.77,0-4.15s.14-2.75.23-4.12a157,157,0,0,1,2.15-16.25C342.17,177,343.32,171.67,344.79,166.43Z" fill="url(#aaaa411f-85c0-4719-a32a-0151c1b17085)"/></g><path d="M234.16,262.65a35.47,35.47,0,0,1-16.61-2.1c-3.46-1.32-6.82-3.21-10.51-3.42-2.33-.12-5.4.72-6.86,2.69-1.63,2.2-.56,3.6-.15,6.07.51,3.19,0,6.3,0,9.46-.05,3.53,1.37,6.83,1.54,10.4a20.83,20.83,0,0,1-.27,4.32c-.27,1.61-1.06,3.49-2.69,3.68a3,3,0,0,1-2.74-1.66,13.3,13.3,0,0,1-1.06-3.23c-2.36-8.59-9.89-14.88-12.47-23.49-1.58-5.27-1.34-10.24-1.34-15.62,0-2.19,1.3-4.53.52-6.63-.56-1.52-2.57-2.08-3.7-3.51h0c1.58-5.94,3.09-10.07,4.15-10.33.42-.11.52-.18.34-.2,6.6-1.43,13.16-3.12,19.73-4.74q7.05-1.71,14.1-3.46c3.15-.76,7.23-2.5,10.44-2.33l.24,0c-.26,2.79-1.93,4.9-1.87,8,0,1.29,1.36,12.44,2.86,12.44-2.47.11-4.56-2.2-7-2.13a4.75,4.75,0,0,0-4,3.07,8.35,8.35,0,0,0-.08,5.23c1.66,6.09,7.32,10.26,13.14,12.69C232,258.77,234.75,260.36,234.16,262.65Z" fill="url(#a43410fb-58aa-4d0c-8cbf-086e77fe6929)"/></g></g></g></g></svg>