<svg xmlns="http://www.w3.org/2000/svg" viewBox="0 0 24 24"><title>behance</title><g id="eb438fad-f90f-4313-835c-00f460404453" data-name="Layer 2"><g id="bd8ed2be-a17e-4655-868e-a20d51ae016f" data-name="Footer"><g id="a2172594-aab1-4851-aff8-4f72a57f0bd4" data-name="behance icon"><path d="M2.67,0A2.68,2.68,0,0,0,0,2.67V21.33A2.68,2.68,0,0,0,2.67,24H21.33A2.68,2.68,0,0,0,24,21.33V2.67A2.68,2.68,0,0,0,21.33,0ZM4.54,6.25H8c3.07,0,3.58,1.89,3.58,3.08a2.5,2.5,0,0,1-1.45,2.42,2.39,2.39,0,0,1,1.62,2.5c.14,2.4-1.36,3.33-3.5,3.33H4.54Zm9.34,0h4.91V7.58H13.88ZM6.79,8.13v2.79H8c.8,0,1.33-.27,1.33-1.34S8.93,8.13,8,8.13Zm10,.95c1.87,0,3.21,1.06,3.21,4.13v.92H15.46A1.62,1.62,0,0,0,17.08,16a2.39,2.39,0,0,0,1.84-.79l1,1.33a3.75,3.75,0,0,1-2.8,1.21c-2,0-3.62-1.07-3.62-3.87v-.67C13.46,10.14,15.06,9.08,16.79,9.08Zm-.25,1.71c-.4,0-1.21.15-1.21,1.75h2.25S17.88,10.79,16.54,10.79ZM6.79,12.67v3.08H8.25c.8,0,1.21-.57,1.21-1.5s-.24-1.58-1-1.58Z" fill="#9b9a9b"/></g></g></g></svg>