<svg xmlns="http://www.w3.org/2000/svg" viewBox="0 0 23.81 23.81"><title>dribble</title><g id="a07c1be5-2922-4c9a-889c-d318eb28cf85" data-name="Layer 2"><g id="bdc6a72a-615d-43b3-bd67-ac3947c6edac" data-name="Footer"><g id="fd061119-14be-4561-a4b2-e41fe7a3168d" data-name="dribbble icon"><path d="M11.91,0a11.91,11.91,0,1,0,11.9,11.91A11.92,11.92,0,0,0,11.91,0Zm0,2a9.91,9.91,0,0,1,6.54,2.48,7.33,7.33,0,0,1-.84,1A12,12,0,0,1,13.33,8,47.77,47.77,0,0,0,9.64,2.23,10.6,10.6,0,0,1,11.91,2Zm-4.22.93a47.82,47.82,0,0,1,3.72,5.68A38.36,38.36,0,0,1,2.2,9.8,9.91,9.91,0,0,1,7.69,2.91Zm12.12,3a10,10,0,0,1,2,5.74,18.35,18.35,0,0,0-3.88-.4,22.54,22.54,0,0,0-2.94.18c-.25-.56-.52-1.11-.78-1.64a13.88,13.88,0,0,0,4.75-3A9.32,9.32,0,0,0,19.81,5.92Zm-7.5,4.47c.23.46.46.93.68,1.42C8.75,13,5.71,16.58,4.4,18.39A9.89,9.89,0,0,1,2,11.91v-.13A39.2,39.2,0,0,0,12.31,10.39ZM18,13.21a15,15,0,0,1,3.72.43A9.84,9.84,0,0,1,17.61,20a35.39,35.39,0,0,0-1.83-6.7C16.56,13.26,17.31,13.21,18,13.21Zm-4.18.46a32.8,32.8,0,0,1,2,7.38,10,10,0,0,1-9.92-1.27C6.88,18.39,9.88,14.67,13.77,13.67Z" fill="#9b9a9b"/></g></g></g></svg>