<svg xmlns="http://www.w3.org/2000/svg" viewBox="0 0 24 24"><title>instagram</title><g id="a9d56a6a-f676-452d-ae0f-251ea6fb2428" data-name="Layer 2"><g id="ae0b4224-0b82-4d8e-8385-24db3ca42f5f" data-name="Footer"><path id="b033a775-141b-4aae-986a-657d6a0e07d3" data-name="instagram icon" d="M6.67,0A6.67,6.67,0,0,0,0,6.67V17.33A6.67,6.67,0,0,0,6.67,24H17.33A6.67,6.67,0,0,0,24,17.33V6.67A6.67,6.67,0,0,0,17.33,0ZM20,2.67A1.33,1.33,0,1,1,18.67,4,1.32,1.32,0,0,1,20,2.67ZM12,5.33A6.67,6.67,0,1,1,5.33,12,6.67,6.67,0,0,1,12,5.33ZM12,8a4,4,0,1,0,4,4A4,4,0,0,0,12,8Z" fill="#9b9a9b"/></g></g></svg>