<svg xmlns="http://www.w3.org/2000/svg" viewBox="0 0 23.81 23.81"><title>pinterest</title><g id="a725258f-fbd6-48c0-880a-264125015981" data-name="Layer 2"><g id="b0d3b214-65af-4b12-bef7-c4b2c717ec5b" data-name="Footer"><path id="b4337c8d-769f-4586-a9b8-60ddf01b4046" data-name="pinterest icon" d="M11.91,0A11.9,11.9,0,0,0,7.57,23a11.17,11.17,0,0,1,0-3.41L9,13.66a4.35,4.35,0,0,1-.35-1.77c0-1.65,1-2.89,2.15-2.89a1.5,1.5,0,0,1,1.51,1.68,23.48,23.48,0,0,1-1,4,1.73,1.73,0,0,0,1.77,2.15c2.11,0,3.74-2.23,3.74-5.45a4.7,4.7,0,0,0-5-4.84,5.16,5.16,0,0,0-5.38,5.17,4.55,4.55,0,0,0,.89,2.71.37.37,0,0,1,.08.34c-.09.38-.29,1.19-.33,1.35s-.18.27-.4.16c-1.49-.69-2.42-2.86-2.42-4.61C4.3,7.87,7,4.41,12.17,4.41c4.13,0,7.34,3,7.34,6.88,0,4.11-2.59,7.41-6.18,7.41a3.2,3.2,0,0,1-2.73-1.37S10,19.6,9.86,20.16a13,13,0,0,1-1.48,3.12A11.92,11.92,0,0,0,23.81,11.91,11.9,11.9,0,0,0,11.91,0Z" fill="#9b9a9b"/></g></g></svg>