<svg xmlns="http://www.w3.org/2000/svg" viewBox="0 0 24 24"><title>twitter</title><g id="a0711f44-ae81-4054-8436-580ec8112d0c" data-name="Layer 2"><g id="a5d88922-3369-4c07-b94c-a412a97909db" data-name="Contact"><g id="fbeb43c5-711f-48f1-abc2-1c5711367d2e" data-name="Footer"><path id="b1be11aa-fd59-4271-8eab-a05b77137361" data-name="twitter icon" d="M2.67,0H21.33A2.66,2.66,0,0,1,24,2.67V21.33A2.66,2.66,0,0,1,21.33,24H2.67A2.66,2.66,0,0,1,0,21.33V2.67A2.66,2.66,0,0,1,2.67,0M19.61,8.44a6.24,6.24,0,0,0,1.72-1.88,6,6,0,0,1-1.92.55,3.9,3.9,0,0,0,1.5-2A7.64,7.64,0,0,1,18.63,6c-2.07-2.49-7-.47-6.14,3.27A10.24,10.24,0,0,1,5.13,5.55a3.83,3.83,0,0,0,1.06,4.77,3.94,3.94,0,0,1-1.52-.44,3.57,3.57,0,0,0,2.77,3.57,4.3,4.3,0,0,1-1.52,0A3.56,3.56,0,0,0,9.2,16,7.18,7.18,0,0,1,4,17.44a9.34,9.34,0,0,0,5.71,1.64C15.59,18.81,19.52,14.6,19.61,8.44Z" fill="#9b9a9b"/></g></g></g></svg>