<svg xmlns="http://www.w3.org/2000/svg" viewBox="0 0 454.04 413.02"><title>clearspace</title><g id="fd1f1aae-9b6d-47a1-90fe-7630a9e36ca7" data-name="Layer 2"><g id="a984fdb8-1969-408c-8b83-67d14669db8e" data-name="Brand Manual IS"><g id="f05d7fa1-5854-4da7-b41c-d51c5a3f3d38" data-name="Content 2"><path d="M143.88,264.4V129.2a16.48,16.48,0,0,0-16.45-16.46h22.92A38.18,38.18,0,0,1,188.56,151V264.4A16.47,16.47,0,0,0,205,280.86H127.43a16.47,16.47,0,0,0,16.45-16.46"/><path d="M329.05,112.74c-8.11,0-16,16.89-18.23,24.69,2.35-8.23-3.05-24.69-11.16-24.69Z"/><path d="M145.06,86.29a19.4,19.4,0,1,1,19.4,19.4,19.41,19.41,0,0,1-19.4-19.4"/><path d="M281.09,222.05l-20.77,59.84-.57.25s-66.56-154-70-158.82c-3.7-5.15-10.08-10.58-17-10.58h57.6a5.29,5.29,0,0,1,4.39,2.32h0l.78,1.78,3,6.85,2.89,6.68,4.34,10Z"/><text transform="translate(61.28 346.25)" style="font-size:47.010520935058594px;font-family:FiraSans-Regular, Fira Sans;letter-spacing:-0.006003476602394477em">I<tspan x="13.59" y="0" style="letter-spacing:-0.005006359381235533em">NS</tspan><tspan x="70.84" y="0">IGH</tspan><tspan x="145.5" y="0" style="letter-spacing:-0.00002077327544081134em">T</tspan></text><text transform="translate(246.74 346.29)" style="font-size:47.010520935058594px;font-family:FiraSans-Regular, Fira Sans"><tspan style="letter-spacing:0.0009971172211589443em">V</tspan><tspan x="26.18" y="0" style="letter-spacing:0.0019942344423178886em">ISIO</tspan><tspan x="112.45" y="0">N</tspan></text><rect x="0.3" y="0.3" width="453.33" height="412.42" style="fill:none;stroke:#3094b1;stroke-miterlimit:10;stroke-width:0.600364804851424px"/><line x1="0.3" y1="66.25" x2="453.63" y2="67.09" style="fill:none;stroke:#3094b1;stroke-miterlimit:10;stroke-width:0.6270081879792px"/><line x1="0.3" y1="345.93" x2="453.63" y2="345.93" style="fill:none;stroke:#3094b1;stroke-miterlimit:10;stroke-width:0.6270081879792px"/><line x1="66.25" y1="0.3" x2="66.25" y2="412.72" style="fill:none;stroke:#3094b1;stroke-miterlimit:10;stroke-width:0.6270081879792px"/><line x1="387.67" y1="412.72" x2="387.67" y2="0.3" style="fill:none;stroke:#3094b1;stroke-miterlimit:10;stroke-width:0.6270081879792px"/><line x1="66.13" y1="314.15" x2="454.04" y2="314.15" style="fill:none;stroke:#3094b1;stroke-miterlimit:10;stroke-width:0.619903317573211px"/><polyline points="422.32 345.94 422.32 314.15 422.32 280.73" style="fill:none;stroke:#3094b1;stroke-miterlimit:10;stroke-width:0.6270081879792px"/><line x1="66.13" y1="280.86" x2="454.04" y2="280.73" style="fill:none;stroke:#3094b1;stroke-miterlimit:10;stroke-width:0.619903317573211px"/><text transform="translate(430.75 340.56)" style="font-size:25.96276092529297px;fill:#3094b1;font-family:Impact">Y</text><text transform="translate(430.75 307.17)" style="font-size:25.96276092529297px;fill:#3094b1;font-family:Impact">Y</text><text transform="translate(14.82 96.56)" style="font-size:25.96276092529297px;fill:#3094b1;font-family:Impact">Y+Y</text><text transform="translate(74.92 44.79)" style="font-size:25.96276092529297px;fill:#3094b1;font-family:Impact">Y+Y</text></g></g></g></svg>