<svg xmlns="http://www.w3.org/2000/svg" xmlns:xlink="http://www.w3.org/1999/xlink" viewBox="0 0 1232.89 209.93"><defs><linearGradient id="b388b36e-6568-46fc-8aa4-e1e8a4bb0985" x1="131.9" y1="40.15" x2="3.1" y2="168.94" gradientUnits="userSpaceOnUse"><stop offset="0" stop-color="#00fffa"/><stop offset="0.25" stop-color="#1dcbfb"/><stop offset="1" stop-color="#732ffe"/></linearGradient><linearGradient id="b18c9040-773b-4c27-9afa-c296a559d90f" x1="1225.81" y1="3.61" x2="1032.53" y2="203.67" xlink:href="#b388b36e-6568-46fc-8aa4-e1e8a4bb0985"/></defs><title>logo-concept</title><g id="a6640e2f-7186-4f33-a3e6-6acc25f96172" data-name="Layer 2"><g id="e3ade843-b7c2-4138-9cc1-89c07d06ad8f" data-name="Шар 1"><g id="b85ac22a-1f97-4910-90fe-9f148f826cf3" data-name="Content 2"><path d="M304.43,80.37A17,17,0,0,0,301.55,90a14.58,14.58,0,0,0,1.25,5.61l-21.43,10.87a2,2,0,0,0-.9,2.67l1.62,3.31a2,2,0,0,0,2.84.83l21.54-13a11.41,11.41,0,0,0,2.19,1.39c6,3,13.85.82,18.69-5.08a17.2,17.2,0,0,0,4-11.25,13.06,13.06,0,0,0-4.73-10.11,12.44,12.44,0,0,0-2.36-1.54c-4.6-2.26-10-1.1-14.85,1.57,0,0-3.61,2.66-5,5.11Zm18-2.81a7.77,7.77,0,0,1,1.54,1,8.91,8.91,0,0,1,3.16,6.88A13.13,13.13,0,0,1,324,93.88c-3.59,4.38-9.26,6-13.49,3.94a7.5,7.5,0,0,1-1.54-1A8.89,8.89,0,0,1,305.84,90a13.06,13.06,0,0,1,3.06-8.45c3.58-4.36,9.25-6,13.49-3.94Z" style="fill:#3fa9f5"/><path d="M285.61,38.3c-.25.9,3.25,11.36-.57,15.23a18.37,18.37,0,0,0-4.19,4.29c-3.83,5.5-4.23,12.46-1.24,17.43,0,0-7.09,25.5-11.33,33.16-8.6,15.57-33.84,41.8-41.22,58-.52,1.14-2.25,4.22-1.18,4.89.57.36,3.5-2.52,4.57-3.47,11.83-10.47,42-43,47.75-49.24a2,2,0,0,0,.32-2.28c-1-2-2.83-5.76-2.87-7.46-.17-7.53,10-28.44,10-28.44a13.36,13.36,0,0,0,8.57.45,17.27,17.27,0,0,0,9.74-6.94c4.34-6.26,4.26-14.43-.24-19.37a11.55,11.55,0,0,0-2.12-1.88,11.71,11.71,0,0,0-5.83-2.15c-9.27-.58-5.21-9.69-5.8-11.17s-4-2-4.32-1ZM272.7,114.59a2.25,2.25,0,1,1-3.16.29,2.25,2.25,0,0,1,3.16-.29ZM291.64,55a9,9,0,0,1,7.48,1.15,8.11,8.11,0,0,1,1.39,1.22c3.16,3.51,3.11,9.42-.12,14.06a13,13,0,0,1-7.28,5.23,8.86,8.86,0,0,1-7.47-1.13,8.11,8.11,0,0,1-1.39-1.22c-3.17-3.51-3.12-9.42.1-14.06A13,13,0,0,1,291.64,55Z" style="fill:#3fa9f5"/><path d="M502.86,74.38,496,81.58c-2.75-.33-5.49-.68-8.25-1-.48-2.72-1-5.44-1.46-8.17q3.4-3.61,6.83-7.2a1.16,1.16,0,0,0-.87-1.93A17.79,17.79,0,0,0,484.44,66a13.44,13.44,0,0,0-5.56,6.07,21.54,21.54,0,0,0-1,6.76c-.1,2.09-.33,4.3-1.81,5.93l-18.53,19.56-9.57,10.12c-1.26,1.33-2.42,2.85-4.18,3.52a28.74,28.74,0,0,1-6.26,1,11.72,11.72,0,0,0-8,4.27A18.13,18.13,0,0,0,425.32,134a1.15,1.15,0,0,0,2,.75q3.42-3.59,6.83-7.21l8.24,1c.49,2.72,1,5.45,1.47,8.17L437,143.92a1.14,1.14,0,0,0,.85,1.91,17.69,17.69,0,0,0,7.85-2.75,13.65,13.65,0,0,0,5.46-5.83c1.66-3.92.1-8.77,2.48-12.39a19.12,19.12,0,0,1,2.24-2.44c.95-1,1.88-2,2.81-3l5.86-6.18,11.92-12.6c2.31-2.44,4.64-4.88,6.94-7.32A7.73,7.73,0,0,1,486.85,91a22.75,22.75,0,0,1,4.49-.74c3.43-.38,6.44-1.19,8.81-3.85a18.2,18.2,0,0,0,4.67-11.26A1.14,1.14,0,0,0,502.86,74.38ZM480,91.1l-28.79,31.05a1.66,1.66,0,0,1-2.36.1l-.1-.1a1.65,1.65,0,0,1-.08-2.36L477.5,88.74a1.64,1.64,0,0,1,2.34-.08l.12.08A1.68,1.68,0,0,1,480,91.1Z" style="fill:#3fa9f5"/><rect y="37.04" width="135" height="135" rx="10.6" style="fill:url(#b388b36e-6568-46fc-8aa4-e1e8a4bb0985)"/><polygon points="210.41 98.71 191.24 98.71 191.24 79.54 179.57 79.54 179.57 98.71 160.41 98.71 160.41 110.38 179.57 110.38 179.57 129.54 191.24 129.54 191.24 110.38 210.41 110.38 210.41 98.71" style="fill:#3fa9f5"/><polygon points="396.85 98.71 377.68 98.71 377.68 79.54 366.01 79.54 366.01 98.71 346.85 98.71 346.85 110.38 366.01 110.38 366.01 129.54 377.68 129.54 377.68 110.38 396.85 110.38 396.85 98.71" style="fill:#3fa9f5"/><polygon points="583.29 98.71 564.12 98.71 564.12 79.54 552.46 79.54 552.46 98.71 533.29 98.71 533.29 110.38 552.46 110.38 552.46 129.54 564.12 129.54 564.12 110.38 583.29 110.38 583.29 98.71" style="fill:#3fa9f5"/><polygon points="769.73 98.71 750.56 98.71 750.56 79.54 738.9 79.54 738.9 98.71 719.73 98.71 719.73 110.38 738.9 110.38 738.9 129.54 750.56 129.54 750.56 110.38 769.73 110.38 769.73 98.71" style="fill:#3fa9f5"/><rect x="925.14" y="87.04" width="50" height="11.67" style="fill:#3fa9f5"/><rect x="925.14" y="110.38" width="50" height="11.67" style="fill:#3fa9f5"/><path d="M891.21,66.38a1.67,1.67,0,0,0-1.08-1s0,0-.08,0h0l0,0h0a108.43,108.43,0,0,0-27.33-3.43,39,39,0,0,0-15.18,3.23,39.13,39.13,0,0,0-15.18-3.23,108.25,108.25,0,0,0-27.33,3.43h0l0,0h-.05l-.07,0a1.66,1.66,0,0,0-1.09,1,1.61,1.61,0,0,0-.09.54v74.26a1.71,1.71,0,0,0,.68,1.35,1.31,1.31,0,0,0,.21.08,1.28,1.28,0,0,0,.42.17l.26,0,.15,0a3.29,3.29,0,0,0,.44-.05,109,109,0,0,1,25.21-3.29c6.19.1,12.31,2.46,14.8,2.85a18.21,18.21,0,0,0,3.41,0c2.5-.39,8.61-2.75,14.8-2.85a109,109,0,0,1,25.21,3.29,3.44,3.44,0,0,0,.45.05l.14,0,.27,0a1.48,1.48,0,0,0,.42-.17,1.8,1.8,0,0,0,.21-.08,1.73,1.73,0,0,0,.67-1.35V66.92A1.61,1.61,0,0,0,891.21,66.38ZM845.72,68v63.61a1.69,1.69,0,0,0,1.69,1.69h0a1.69,1.69,0,0,0,1.7-1.69V68a36.55,36.55,0,0,1,13.48-2.79,112.69,112.69,0,0,1,22.51,2.37,1.57,1.57,0,0,0,.67.26l2.13.44v70.63a94.86,94.86,0,0,0-23.6-2.83l-.58,0-1.13,0a39.22,39.22,0,0,0-15.18,3.2,39.22,39.22,0,0,0-15.18-3.2l-1.14,0-.58,0a94.94,94.94,0,0,0-23.6,2.83V68.3l2.13-.44a1.47,1.47,0,0,0,.67-.26,112.81,112.81,0,0,1,22.52-2.37A36.43,36.43,0,0,1,845.72,68Z" style="fill:#3fa9f5"/><path d="M837.69,79.68c-10.42-2.44-22.26.67-22.76.81a1.69,1.69,0,0,0,.44,3.32,1.59,1.59,0,0,0,.43-.06c.12,0,11.52-3,21.12-.78a1.69,1.69,0,1,0,.77-3.29Z" style="fill:#3fa9f5"/><path d="M837.69,89.81c-10.42-2.44-22.26.67-22.76.8a1.69,1.69,0,0,0,.44,3.32,1.59,1.59,0,0,0,.43-.06c.12,0,11.52-3,21.12-.78a1.68,1.68,0,1,0,.77-3.28Z" style="fill:#3fa9f5"/><path d="M837.69,99.93c-10.42-2.44-22.26.67-22.76.81a1.69,1.69,0,0,0,.44,3.32,1.59,1.59,0,0,0,.43-.06c.12,0,11.52-3,21.12-.78a1.69,1.69,0,1,0,.77-3.29Z" style="fill:#3fa9f5"/><path d="M837.69,120.18c-10.42-2.44-22.26.67-22.76.8a1.69,1.69,0,0,0-1.19,2.07,1.68,1.68,0,0,0,1.63,1.25,1.59,1.59,0,0,0,.43-.06c.12,0,11.52-3,21.12-.77a1.69,1.69,0,1,0,.77-3.29Z" style="fill:#3fa9f5"/><path d="M837.69,110.06c-10.42-2.45-22.26.67-22.76.8a1.69,1.69,0,0,0,.44,3.32,1.59,1.59,0,0,0,.43-.06c.12,0,11.52-3,21.12-.78a1.68,1.68,0,1,0,.77-3.28Z" style="fill:#3fa9f5"/><path d="M856.13,81.71a1.7,1.7,0,0,0,2,1.26c9.6-2.25,21,.75,21.12.78a1.61,1.61,0,0,0,.44.06,1.69,1.69,0,0,0,.43-3.32c-.5-.14-12.34-3.25-22.76-.81A1.71,1.71,0,0,0,856.13,81.71Z" style="fill:#3fa9f5"/><path d="M856.13,91.84a1.69,1.69,0,0,0,2,1.25c9.6-2.25,21,.75,21.12.78a1.61,1.61,0,0,0,.44.06,1.69,1.69,0,0,0,.43-3.32c-.5-.13-12.34-3.24-22.76-.8A1.7,1.7,0,0,0,856.13,91.84Z" style="fill:#3fa9f5"/><path d="M856.13,102a1.7,1.7,0,0,0,2,1.26c9.6-2.25,21,.74,21.12.78a1.61,1.61,0,0,0,.44.06,1.69,1.69,0,0,0,.43-3.32c-.5-.14-12.34-3.25-22.76-.81A1.7,1.7,0,0,0,856.13,102Z" style="fill:#3fa9f5"/><path d="M856.13,122.21a1.7,1.7,0,0,0,2,1.26c9.6-2.26,21,.74,21.12.77a1.61,1.61,0,0,0,.44.06,1.69,1.69,0,0,0,.43-3.32c-.5-.13-12.34-3.24-22.76-.8A1.7,1.7,0,0,0,856.13,122.21Z" style="fill:#3fa9f5"/><path d="M856.13,112.08a1.7,1.7,0,0,0,2,1.26c9.6-2.25,21,.75,21.12.78a1.61,1.61,0,0,0,.44.06,1.69,1.69,0,0,0,.43-3.32c-.5-.13-12.34-3.25-22.76-.8A1.69,1.69,0,0,0,856.13,112.08Z" style="fill:#3fa9f5"/><path d="M847.44,150.85a13.51,13.51,0,0,1-5.17-1l-.53-.22H806.31a10,10,0,0,1-10-10V73.69a2.16,2.16,0,1,1,4.32,0v65.92a5.67,5.67,0,0,0,5.66,5.67H842.6l1.32.55a9.19,9.19,0,0,0,7,0l1.33-.55h36.27a5.67,5.67,0,0,0,5.67-5.67V73.69a2.16,2.16,0,1,1,4.31,0v65.92a10,10,0,0,1-10,10H853.14l-.53.22A13.51,13.51,0,0,1,847.44,150.85Z" style="fill:#3fa9f5"/><line x1="849.13" y1="142.36" x2="845.73" y2="142.27" style="fill:#3fa9f5"/><path d="M1123.34,100.45h-81.69a18.76,18.76,0,0,1-18.76-18.75V18.75A18.76,18.76,0,0,1,1041.65,0h62.94a18.75,18.75,0,0,1,18.75,18.75Zm-81.69,8.74A18.76,18.76,0,0,0,1022.89,128v62.94a18.75,18.75,0,0,0,18.76,18.75h62.94a18.74,18.74,0,0,0,18.75-18.75v-81.7Zm90.79,82a18.76,18.76,0,0,0,18.75,18.76h63a18.76,18.76,0,0,0,18.75-18.76V128.23a18.76,18.76,0,0,0-18.75-18.75h-81.7Zm81.7-90.43A18.76,18.76,0,0,0,1232.89,82V19A18.76,18.76,0,0,0,1214.14.28h-63A18.76,18.76,0,0,0,1132.44,19v81.7Z" style="fill:url(#b18c9040-773b-4c27-9afa-c296a559d90f)"/><path d="M1207.7,29.4l-4.76,5-5.75-.71c-.33-1.9-.68-3.8-1-5.69,1.59-1.68,3.17-3.36,4.76-5a.8.8,0,0,0-.6-1.34,12.51,12.51,0,0,0-5.46,1.92,9.42,9.42,0,0,0-3.88,4.24,15.29,15.29,0,0,0-.72,4.71,6.29,6.29,0,0,1-1.26,4.13L1176.1,50.27l-6.66,7a8.5,8.5,0,0,1-2.92,2.45,19.87,19.87,0,0,1-4.36.73,8.15,8.15,0,0,0-5.57,3,12.62,12.62,0,0,0-2.91,7.44.8.8,0,0,0,1.37.52c1.58-1.66,3.17-3.34,4.75-5l5.74.72c.35,1.9.7,3.79,1,5.69l-4.75,5a.79.79,0,0,0,.59,1.33,12.39,12.39,0,0,0,5.47-1.92,9.43,9.43,0,0,0,3.8-4.06c1.16-2.73.07-6.11,1.73-8.63a13.16,13.16,0,0,1,1.56-1.7c.66-.68,1.31-1.38,2-2.06,1.37-1.43,2.72-2.87,4.09-4.3,2.76-2.93,5.54-5.86,8.3-8.78l4.84-5.1a5.4,5.4,0,0,1,2.39-1.67,16.62,16.62,0,0,1,3.13-.51c2.39-.26,4.49-.83,6.14-2.68a12.67,12.67,0,0,0,3.25-7.85A.8.8,0,0,0,1207.7,29.4Zm-15.9,11.65-20.06,21.64a1.16,1.16,0,0,1-1.64.07l-.07-.07A1.17,1.17,0,0,1,1170,61L1190,39.41a1.14,1.14,0,0,1,1.63-.06l.08.06A1.16,1.16,0,0,1,1191.8,41.05Z" style="fill:#fff"/><path d="M1086.35,30.32a12.76,12.76,0,0,0,2.58-3.3c1.18-3,1.44-6.26-.23-8.77a8.08,8.08,0,0,0-1.08-1.25,7.71,7.71,0,0,0-6.25-2,10.17,10.17,0,0,0-6.24,3.22c-3.05,3.27-3.69,8-1.5,11.27a6.77,6.77,0,0,0,1,1.16l-5.92,13.54a1.17,1.17,0,0,0,.71,1.59l2,.69a1.17,1.17,0,0,0,1.48-.73l4.66-13.31a8.5,8.5,0,0,0,3.36.29,10,10,0,0,0,5.4-2.43Zm.24-10.66c1.55,2.3,1,5.73-1.24,8.15a7.71,7.71,0,0,1-4.68,2.44,5.23,5.23,0,0,1-4.25-1.31,4.53,4.53,0,0,1-.7-.81c-1.54-2.31-1-5.73,1.25-8.16a7.74,7.74,0,0,1,4.68-2.44,5.21,5.21,0,0,1,4.24,1.31,4.22,4.22,0,0,1,.7.82Z" style="fill:#fff"/><path d="M1112.29,38c.54-.24,0-2.21-.94-2.43s-5.89,2.84-6.95-2.5a7.3,7.3,0,0,0-3-4.32c-3.23-2.23-8-1.65-11.29,1.37a10.13,10.13,0,0,0-3.28,6.2,7.9,7.9,0,0,0,.92,5s-11.37,7.52-15.77,8a15.53,15.53,0,0,1-4.56-1.08,1.15,1.15,0,0,0-1.3.36c-3.18,3.83-19.76,23.91-24.94,31.6-.47.7-1.92,2.63-1.66,2.93.48.57,2.13-.67,2.75-1.07,8.85-5.55,22.15-22.27,30.53-28.48,4.14-3.06,18.42-9.17,18.42-9.17a9.55,9.55,0,0,0,10-2.07,10.67,10.67,0,0,0,2.17-2.77c2-2.52,8.31-1.3,8.82-1.52Zm-43.38,13.44a1.32,1.32,0,1,1-1.86.09,1.31,1.31,0,0,1,1.86-.09Zm33.18-15.64a7.63,7.63,0,0,1-2.5,4.64c-2.44,2.24-5.88,2.73-8.16,1.15a4.27,4.27,0,0,1-.82-.71,5.2,5.2,0,0,1-1.24-4.26,7.65,7.65,0,0,1,2.48-4.64c2.45-2.24,5.88-2.73,8.17-1.16a5.49,5.49,0,0,1,.82.71,5.3,5.3,0,0,1,1.25,4.27Z" style="fill:#fff"/><path d="M1211.36,133.35a1.07,1.07,0,0,0-.71-.68l-.05,0h-.08a71.43,71.43,0,0,0-17.88-2.24,25.83,25.83,0,0,0-9.94,2.11,25.72,25.72,0,0,0-9.93-2.11,71.46,71.46,0,0,0-17.89,2.24h-.08l0,0a1.05,1.05,0,0,0-.71.68,1,1,0,0,0-.06.35v48.6a1.12,1.12,0,0,0,.44.88s.09,0,.14.06a.9.9,0,0,0,.27.11l.17,0,.1,0a1.55,1.55,0,0,0,.29,0,71.73,71.73,0,0,1,16.5-2.15c4,.07,8,1.61,9.69,1.86a6,6,0,0,0,1.11.06,6.18,6.18,0,0,0,1.12-.06c1.63-.25,5.63-1.79,9.68-1.86a71.73,71.73,0,0,1,16.5,2.15,1.55,1.55,0,0,0,.29,0l.1,0,.17,0a1,1,0,0,0,.28-.11s.09,0,.14-.06a1.12,1.12,0,0,0,.44-.88V133.7A1,1,0,0,0,1211.36,133.35Zm-29.77,1.07v41.63a1.11,1.11,0,0,0,1.1,1.11h0a1.11,1.11,0,0,0,1.11-1.11V134.42a23.94,23.94,0,0,1,8.82-1.82,73.42,73.42,0,0,1,14.73,1.55,1.23,1.23,0,0,0,.44.17l1.39.28v46.23a61.62,61.62,0,0,0-15.44-1.85h-1.12a25.69,25.69,0,0,0-9.94,2.09,25.68,25.68,0,0,0-9.93-2.09h-1.13a61.69,61.69,0,0,0-15.44,1.85V134.6l1.4-.28a1.25,1.25,0,0,0,.43-.17,73.44,73.44,0,0,1,14.74-1.55A24,24,0,0,1,1181.59,134.42Z" style="fill:#fff"/><path d="M1176.33,142.05c-6.82-1.6-14.57.44-14.9.53a1.1,1.1,0,0,0,.29,2.17,1,1,0,0,0,.29,0c.07,0,7.53-2,13.81-.51a1.1,1.1,0,1,0,.51-2.15Z" style="fill:#fff"/><path d="M1176.33,148.68c-6.82-1.6-14.57.44-14.9.53a1.1,1.1,0,0,0,.29,2.17,1.55,1.55,0,0,0,.29,0c.07,0,7.53-2,13.81-.51a1.1,1.1,0,1,0,.51-2.15Z" style="fill:#fff"/><path d="M1176.33,155.31c-6.82-1.6-14.57.43-14.9.52a1.1,1.1,0,0,0,.29,2.17,1,1,0,0,0,.29,0c.07,0,7.53-2,13.81-.5a1.11,1.11,0,0,0,1.33-.83A1.09,1.09,0,0,0,1176.33,155.31Z" style="fill:#fff"/><path d="M1176.33,168.56c-6.82-1.6-14.57.44-14.9.52a1.11,1.11,0,0,0,.29,2.18,1.55,1.55,0,0,0,.29,0c.07,0,7.53-2,13.81-.51a1.11,1.11,0,0,0,1.33-.83A1.1,1.1,0,0,0,1176.33,168.56Z" style="fill:#fff"/><path d="M1176.33,161.93c-6.82-1.6-14.57.44-14.9.53a1.1,1.1,0,0,0,.29,2.17,1,1,0,0,0,.29,0c.07,0,7.53-2,13.81-.51a1.1,1.1,0,1,0,.51-2.15Z" style="fill:#fff"/><path d="M1188.4,143.38a1.11,1.11,0,0,0,1.33.82c6.28-1.47,13.74.49,13.82.51a.9.9,0,0,0,.28,0,1.1,1.1,0,0,0,.29-2.17c-.33-.09-8.08-2.13-14.9-.53A1.11,1.11,0,0,0,1188.4,143.38Z" style="fill:#fff"/><path d="M1188.4,150a1.11,1.11,0,0,0,1.33.82c6.28-1.47,13.74.49,13.82.51a1.35,1.35,0,0,0,.28,0,1.11,1.11,0,0,0,1.07-.82,1.09,1.09,0,0,0-.78-1.35c-.33-.09-8.08-2.13-14.9-.53A1.1,1.1,0,0,0,1188.4,150Z" style="fill:#fff"/><path d="M1188.4,156.63a1.12,1.12,0,0,0,1.33.83c6.28-1.48,13.74.48,13.82.5a.9.9,0,0,0,.28,0,1.1,1.1,0,0,0,.29-2.17c-.33-.09-8.08-2.12-14.9-.52A1.09,1.09,0,0,0,1188.4,156.63Z" style="fill:#fff"/><path d="M1188.4,169.88a1.12,1.12,0,0,0,1.33.83c6.28-1.48,13.74.49,13.82.51a1.35,1.35,0,0,0,.28,0,1.11,1.11,0,0,0,.29-2.18c-.33-.08-8.08-2.12-14.9-.52A1.1,1.1,0,0,0,1188.4,169.88Z" style="fill:#fff"/><path d="M1188.4,163.26a1.11,1.11,0,0,0,1.33.82c6.28-1.47,13.74.49,13.82.51a.9.9,0,0,0,.28,0,1.1,1.1,0,0,0,.29-2.17c-.33-.09-8.08-2.13-14.9-.53A1.11,1.11,0,0,0,1188.4,163.26Z" style="fill:#fff"/><path d="M1182.71,188.63a8.87,8.87,0,0,1-3.38-.68l-.35-.14h-23.19a6.54,6.54,0,0,1-6.53-6.54V138.13a1.42,1.42,0,0,1,2.83,0v43.14a3.71,3.71,0,0,0,3.7,3.71h23.75l.87.36a5.92,5.92,0,0,0,4.6,0l.87-.36h23.74a3.71,3.71,0,0,0,3.71-3.71V138.13a1.42,1.42,0,0,1,2.83,0v43.14a6.54,6.54,0,0,1-6.54,6.54h-23.18l-.35.14A8.83,8.83,0,0,1,1182.71,188.63Z" style="fill:#fff"/><line x1="1183.82" y1="183.07" x2="1181.59" y2="183.01" style="fill:#fff"/><path d="M1112.36,129.56l-.37-.37a.23.23,0,0,0-.32,0l-.93.85a.21.21,0,0,0,0,.31l.37.37a.23.23,0,0,0,.31,0l.93-.86A.22.22,0,0,0,1112.36,129.56Z" style="fill:#fff"/><path d="M1109.46,131.56a.23.23,0,0,0-.32,0l-.93.86a.21.21,0,0,0,0,.31l.37.37a.22.22,0,0,0,.31,0l.93-.85a.22.22,0,0,0,0-.31Z" style="fill:#fff"/><path d="M1106.93,133.92a.23.23,0,0,0-.32,0l-.93.86a.2.2,0,0,0,0,.3l.37.38a.22.22,0,0,0,.31,0l.94-.86a.21.21,0,0,0,0-.3Z" style="fill:#fff"/><path d="M1103.49,124a.22.22,0,0,0,.3-.07l.73-1a.24.24,0,0,0,0-.32l-.42-.31a.21.21,0,0,0-.3.07l-.73,1a.23.23,0,0,0,0,.32Z" style="fill:#fff"/><path d="M1101.47,126.85a.21.21,0,0,0,.3-.07l.73-1a.23.23,0,0,0,0-.32l-.42-.32a.22.22,0,0,0-.3.08l-.73,1a.23.23,0,0,0,0,.32Z" style="fill:#fff"/><path d="M1099.45,129.67a.21.21,0,0,0,.3-.07l.73-1a.22.22,0,0,0,0-.31l-.42-.32a.21.21,0,0,0-.3.07l-.73,1a.23.23,0,0,0,0,.31Z" style="fill:#fff"/><path d="M1112,127.19a3.89,3.89,0,0,1-1.07-1.4c-.26-.9-.14-1.77-.54-2.16a3.74,3.74,0,0,0-2.44-.44,2.83,2.83,0,0,1-1.51-.85.56.56,0,0,0-.84.08l-6.2,8.65a5.24,5.24,0,0,1-.68,1.88l-.37.42-2.2,2.3-.29.32-3.32,3.49-.31.31-3.32,3.49-.29.32-3.3,3.51-.3.31-3.33,3.49-.3.32-3.29,3.49h0l-.29.32.08-.08-.07.08s-1.68,1.74-2.76,2.92h0s.36-6.11-4.48-6.25a.66.66,0,0,0-.32-.06,3.26,3.26,0,0,0-.53.09c-5.79.88-4.43,6-7.32,9.24-3.17,3.63-9.37,1.69-16.74,10.08-3.34,3.8-4.38,11.87,5.17,20.25h0c9.57,8.38,17.42,6.29,20.76,2.49,7.37-8.41,4.63-14.29,7.82-17.91,2.65-3,7.27-2.69,8.1-7.19a.57.57,0,0,0-.85-.59c-4.07,2.29-7.73-1-7.13-4.07l3.84-4.69.28-.34,3.06-3.71.29-.34,3-3.71.29-.32,3.06-3.73.27-.33,3-3.73.27-.32,3.07-3.71.29-.34,1.75-2.13.36-.43a5.52,5.52,0,0,1,1.79-.91L1112,128A.56.56,0,0,0,1112,127.19Zm-40.3,48.14a5.17,5.17,0,0,1-6.27,1.73,6,6,0,0,1-3.47-5v-.29c-.11-1.5-5.32.92-7.08,5.64-3.32,8.94-8.13,4.06-7.25-.76,2.14-11.6,11.47-7.86,17-14.53,2-3,1.52-7.58,5.4-9a2,2,0,0,1,.38-.1c2.23-.19,5,3.07,2,8.68-1.31,1.89-2.8,3.85-2.8,3.85a1.44,1.44,0,0,0,.33,2.26,5.93,5.93,0,0,1,1.29,1A5.19,5.19,0,0,1,1071.74,175.33Zm30-44.26-.08-.08a.53.53,0,0,1-.11-.75l4.14-5.42a.53.53,0,0,1,.75-.1l.1.07a.56.56,0,0,1,.11.77l-4.14,5.41A.56.56,0,0,1,1101.79,131.07Zm7.78-2.91-4.81,4.82a.57.57,0,0,1-.77,0l-.07-.09a.52.52,0,0,1,0-.76l4.8-4.82a.57.57,0,0,1,.77,0l.08.08A.52.52,0,0,1,1109.57,128.16Z" style="fill:#fff"/><path d="M706.87,61.93l-.59-.6a.37.37,0,0,0-.51,0l-1.5,1.38a.36.36,0,0,0,0,.5l.59.6a.37.37,0,0,0,.51,0l1.5-1.38A.33.33,0,0,0,706.87,61.93Z" style="fill:#3fa9f5"/><path d="M702.21,65.14a.36.36,0,0,0-.51,0l-1.5,1.37a.35.35,0,0,0-.05.5l.59.6a.37.37,0,0,0,.51,0l1.5-1.38a.33.33,0,0,0,0-.49Z" style="fill:#3fa9f5"/><path d="M698.14,69a.36.36,0,0,0-.51,0l-1.5,1.37a.35.35,0,0,0,0,.5l.59.6a.37.37,0,0,0,.51,0l1.5-1.38a.33.33,0,0,0,.05-.49Z" style="fill:#3fa9f5"/><path d="M692.61,53a.34.34,0,0,0,.48-.12l1.17-1.66a.37.37,0,0,0,0-.51l-.67-.51a.34.34,0,0,0-.48.11L691.89,52a.38.38,0,0,0,0,.51Z" style="fill:#3fa9f5"/><path d="M689.36,57.57a.34.34,0,0,0,.48-.11L691,55.79a.36.36,0,0,0,0-.51l-.67-.51a.34.34,0,0,0-.48.12l-1.17,1.66a.36.36,0,0,0,0,.51Z" style="fill:#3fa9f5"/><path d="M686.11,62.1a.34.34,0,0,0,.48-.11l1.18-1.67a.38.38,0,0,0,0-.51l-.68-.51a.34.34,0,0,0-.48.12l-1.17,1.66a.37.37,0,0,0,0,.51Z" style="fill:#3fa9f5"/><path d="M706.37,58.11a6.23,6.23,0,0,1-1.73-2.24c-.41-1.46-.22-2.85-.87-3.48s-2.31-.74-3.92-.72a4.55,4.55,0,0,1-2.44-1.37.89.89,0,0,0-1.34.14l-10,13.92a8.63,8.63,0,0,1-1.09,3l-.61.69-3.53,3.7-.47.52-5.34,5.62-.49.49L669.21,84l-.46.52-5.32,5.64-.49.49-5.35,5.62-.49.52-5.29,5.62h0l0,0-.46.52.14-.14-.13.13s-2.7,2.8-4.44,4.7h0s.59-9.84-7.2-10a1.09,1.09,0,0,0-.53-.1,4.31,4.31,0,0,0-.85.14c-9.31,1.42-7.12,9.59-11.78,14.88-5.09,5.83-15.07,2.71-26.93,16.22-5.37,6.11-7,19.1,8.33,32.58v0c15.4,13.48,28,10.11,33.4,4,11.86-13.53,7.45-23,12.58-28.82,4.27-4.88,11.7-4.33,13-11.56a.93.93,0,0,0-1.37-1c-6.55,3.7-12.44-1.68-11.48-6.55l6.19-7.54.44-.55,4.93-6,.47-.55,4.9-6,.47-.52,4.93-6,.44-.52,4.9-6,.44-.52,4.93-6,.47-.55,2.82-3.42.58-.69a8.74,8.74,0,0,1,2.87-1.48l12.5-11.72A.91.91,0,0,0,706.37,58.11Zm-64.86,77.46a8.32,8.32,0,0,1-10.08,2.8,9.59,9.59,0,0,1-5.59-8.08v-.47c-.17-2.42-8.57,1.47-11.4,9.08-5.35,14.38-13.09,6.52-11.66-1.23,3.44-18.66,18.45-12.64,27.44-23.39,3.29-4.9,2.44-12.19,8.69-14.49a5.23,5.23,0,0,1,.6-.17c3.59-.29,8.07,4.95,3.23,14-2.1,3-4.49,6.18-4.49,6.18a2.33,2.33,0,0,0,.52,3.65,8.67,8.67,0,0,1,2.08,1.61A8.35,8.35,0,0,1,641.51,135.57Zm48.36-71.21-.13-.14a.83.83,0,0,1-.17-1.2l6.66-8.72a.86.86,0,0,1,1.21-.16l.16.11a.87.87,0,0,1,.16,1.23l-6.65,8.72A.92.92,0,0,1,689.87,64.36Zm12.52-4.69-7.75,7.76a.89.89,0,0,1-1.23,0l-.11-.14a.84.84,0,0,1,0-1.23L701,58.3a.91.91,0,0,1,1.23,0l.13.14A.84.84,0,0,1,702.39,59.67Z" style="fill:#3fa9f5"/></g></g></g></svg>