<svg xmlns="http://www.w3.org/2000/svg" xmlns:xlink="http://www.w3.org/1999/xlink" viewBox="0 0 319.88 303.76"><defs><linearGradient id="bc61ffb9-19cf-49c3-bfd4-e5a851d3ac41" x1="305.31" y1="1.43" x2="18.37" y2="298.41" gradientUnits="userSpaceOnUse"><stop offset="0" stop-color="#00fffa"/><stop offset="0.25" stop-color="#1dcbfb"/><stop offset="1" stop-color="#732ffe"/></linearGradient></defs><title>shedules-pro</title><g id="b5ed4462-b51e-4e04-a048-bfad7b24d2b1" data-name="Layer 2"><g id="e7e55c4f-136a-4708-a309-24f65567d206" data-name="Шар 1"><g id="e4f81111-7099-4a4f-8703-10aba0f6235c" data-name="Content 2"><path d="M153,145.35H27.84A27.85,27.85,0,0,1,0,117.5V27.84A27.85,27.85,0,0,1,27.84,0h97.33A27.84,27.84,0,0,1,153,27.84ZM0,185.84V275.5a27.85,27.85,0,0,0,27.84,27.85h97.33A27.84,27.84,0,0,0,153,275.5V158H27.84A27.84,27.84,0,0,0,0,185.84ZM194.71,303.76H292a27.85,27.85,0,0,0,27.84-27.84V186.25A27.85,27.85,0,0,0,292,158.41H166.87V275.92A27.85,27.85,0,0,0,194.71,303.76ZM319.88,117.92V28.26A27.85,27.85,0,0,0,292,.41H194.71a27.85,27.85,0,0,0-27.84,27.85v117.5H292A27.85,27.85,0,0,0,319.88,117.92Z" style="fill:url(#bc61ffb9-19cf-49c3-bfd4-e5a851d3ac41)"/><path d="M135.72,186.93a.38.38,0,0,0-.49,0l-1.41,1.25a.29.29,0,0,0,0,.44l.56.54a.37.37,0,0,0,.48,0l1.42-1.24a.29.29,0,0,0,.05-.44Z" style="fill:#fff"/><path d="M131.86,190.36a.36.36,0,0,0-.48,0L130,191.62a.31.31,0,0,0-.05.45l.56.53a.37.37,0,0,0,.49,0l1.42-1.24a.3.3,0,0,0,.05-.44Z" style="fill:#fff"/><path d="M128,193.78a.37.37,0,0,0-.48,0l-1.42,1.24a.29.29,0,0,0,0,.44l.56.54a.36.36,0,0,0,.48,0l1.42-1.24a.31.31,0,0,0,0-.45Z" style="fill:#fff"/><path d="M122.77,179.48a.34.34,0,0,0,.46-.11l1.11-1.49a.32.32,0,0,0,0-.46l-.63-.46a.34.34,0,0,0-.46.1l-1.11,1.5a.32.32,0,0,0,0,.46Z" style="fill:#fff"/><path d="M119.7,183.55a.34.34,0,0,0,.46-.1l1.11-1.5a.33.33,0,0,0,0-.46l-.64-.46a.33.33,0,0,0-.45.11L119,182.63a.34.34,0,0,0,0,.47Z" style="fill:#fff"/><path d="M116.62,187.63a.34.34,0,0,0,.46-.11l1.11-1.49a.32.32,0,0,0,0-.46l-.63-.46a.34.34,0,0,0-.46.1l-1.11,1.5a.33.33,0,0,0,0,.46Z" style="fill:#fff"/><path d="M135.8,184a5.65,5.65,0,0,1-1.63-2c-.39-1.31-.21-2.56-.83-3.13s-2.18-.67-3.71-.64a4.41,4.41,0,0,1-2.31-1.23.87.87,0,0,0-1.27.12l-9.44,12.52a7.56,7.56,0,0,1-1,2.71L115,193l-3.35,3.33-.44.47-5.06,5.05-.46.44-5.06,5-.44.47-5,5.07-.47.45-5.06,5.05-.46.47-5,5h0l-.44.44s-5.26,5.2-5.54,5.72c-1.45,2.75-6.83,9.46-6.83,9.46a2,2,0,0,0,.5,3.27,9,9,0,0,1,2,1.46,7.22,7.22,0,0,1,.62,9.46,8.14,8.14,0,0,1-9.55,2.51,8.67,8.67,0,0,1-5.29-7.27v-.42c-.16-2.17-8.1,1.33-10.78,8.17-5.07,12.93-12.39,5.86-11-1.11,3.25-16.78,17.47-11.37,26-21,3.12-4.41,2.31-11,8.22-13a5.92,5.92,0,0,1,.58-.15,1,1,0,0,0-.34-1.94,4.53,4.53,0,0,0-.81.12c-8.81,1.28-6.74,8.62-11.15,13.38C55.4,238.17,46,235.36,34.73,247.5c-5.09,5.5-6.67,17.18,7.88,29.3v0c14.58,12.12,26.53,9.09,31.62,3.6,11.23-12.17,7-20.67,11.9-25.92,4.05-4.38,11.08-3.89,12.35-10.4a.88.88,0,0,0-1.3-.86c-6.2,3.33-11.77-1.5-10.87-5.89l5.86-6.77.42-.49,4.67-5.37.44-.5,4.64-5.37.44-.47,4.67-5.39.42-.47,4.64-5.4.41-.46,4.67-5.37.44-.5,2.67-3.08.55-.61a8.4,8.4,0,0,1,2.72-1.33l11.83-10.55A.78.78,0,0,0,135.8,184Zm-15.61,5.62-.13-.13a.73.73,0,0,1-.16-1.08l6.3-7.84a.83.83,0,0,1,1.14-.14l.16.1a.76.76,0,0,1,.16,1.1l-6.31,7.84A.89.89,0,0,1,120.19,189.66ZM132,185.44l-7.34,7a.9.9,0,0,1-1.17,0l-.1-.13a.73.73,0,0,1,0-1.11l7.31-7a.9.9,0,0,1,1.17,0l.13.12A.73.73,0,0,1,132,185.44Z" style="fill:#fff"/><polygon points="84.15 223.88 83.68 224.33 84.12 223.86 84.15 223.88" style="fill:#fff"/><path d="M281.5,42.55l-7.24,7.26c-2.92-.33-5.83-.69-8.76-1-.51-2.74-1-5.49-1.55-8.23q3.63-3.65,7.25-7.27a1.16,1.16,0,0,0-.92-1.94A19.65,19.65,0,0,0,262,34.11c-2.45,1.49-4.84,3.51-5.9,6.13A20.75,20.75,0,0,0,255,47.05c-.11,2.11-.36,4.33-1.92,6L233.38,72.74l-10.15,10.2c-1.34,1.34-2.57,2.88-4.44,3.55-2.1.75-4.44.77-6.64,1.05a12.65,12.65,0,0,0-8.5,4.3,17.77,17.77,0,0,0-4.42,10.77c0,1,1.39,1.43,2.08.75q3.62-3.61,7.24-7.27c2.91.36,5.83.69,8.74,1,.53,2.75,1.06,5.49,1.57,8.24l-7.24,7.28a1.14,1.14,0,0,0,.9,1.92,19.45,19.45,0,0,0,8.33-2.77,14.22,14.22,0,0,0,5.8-5.88c1.76-4,.1-8.84,2.62-12.49A21.23,21.23,0,0,1,231.65,91c1-1,2-2,3-3,2.08-2.07,4.14-4.15,6.22-6.22q6.32-6.36,12.65-12.71l7.37-7.38a8.24,8.24,0,0,1,3.65-2.41,25.36,25.36,0,0,1,4.76-.74c3.64-.38,6.83-1.2,9.35-3.88a17.83,17.83,0,0,0,4.95-11.35C283.64,42.28,282.19,41.86,281.5,42.55ZM257.29,59.4,226.74,90.7a1.83,1.83,0,0,1-2.51.1l-.1-.1a1.61,1.61,0,0,1-.09-2.37L254.6,57a1.8,1.8,0,0,1,2.48-.08l.12.08A1.63,1.63,0,0,1,257.29,59.4Z" style="fill:#fff"/><path d="M96.67,43.87a18.7,18.7,0,0,0,3.93-4.78c1.79-4.37,2.19-9.06-.36-12.68a11.34,11.34,0,0,0-1.65-1.81,12.09,12.09,0,0,0-9.52-2.85,15.68,15.68,0,0,0-9.49,4.66C74.92,31.14,74,38,77.29,42.71a9.92,9.92,0,0,0,1.49,1.69L69.76,64a1.69,1.69,0,0,0,1.08,2.3l3.12,1a1.81,1.81,0,0,0,2.26-1L83.32,47a13.54,13.54,0,0,0,5.12.43,15.61,15.61,0,0,0,8.23-3.52ZM97,28.44c2.36,3.34,1.55,8.29-1.9,11.8A11.93,11.93,0,0,1,88,43.77a8.23,8.23,0,0,1-6.47-1.89,6.58,6.58,0,0,1-1.06-1.18c-2.35-3.34-1.56-8.29,1.9-11.8a11.93,11.93,0,0,1,7.12-3.53A8.25,8.25,0,0,1,96,27.25,7,7,0,0,1,97,28.44Z" style="fill:#fff"/><path d="M136.17,55c.84-.35,0-3.21-1.43-3.52s-9,4.11-10.59-3.62a9.65,9.65,0,0,0-2.59-4.67,10.63,10.63,0,0,0-1.91-1.58c-4.92-3.23-12.17-2.38-17.2,2a14.45,14.45,0,0,0-5,9,11,11,0,0,0,1.41,7.17S81.53,70.6,74.84,71.3c-1.51.15-5.09-1-7-1.57a1.83,1.83,0,0,0-2,.52c-4.85,5.55-30.1,34.59-38,45.73-.71,1-2.92,3.8-2.53,4.24.72.82,3.24-1,4.2-1.55,13.46-8,33.72-32.23,46.5-41.22,6.29-4.43,28.05-13.26,28.05-13.26,4.76,2,10.88.84,15.3-3a15.69,15.69,0,0,0,3.3-4c3-3.65,12.66-1.88,13.43-2.19ZM70.09,74.43a1.84,1.84,0,0,1,.12,2.7,2.08,2.08,0,0,1-2.83.12,1.83,1.83,0,0,1-.12-2.69,2.07,2.07,0,0,1,2.83-.13ZM120.63,51.8a10.91,10.91,0,0,1-3.79,6.72c-3.73,3.24-9,3.94-12.44,1.66a6.85,6.85,0,0,1-1.25-1A7.29,7.29,0,0,1,101.26,53,10.89,10.89,0,0,1,105,46.27c3.73-3.24,9-3.94,12.44-1.68a7.2,7.2,0,0,1,3.15,7.21Z" style="fill:#fff"/><path d="M287.08,193a1.62,1.62,0,0,0-1.08-1,.15.15,0,0,1-.07,0h-.12a113.67,113.67,0,0,0-27.25-3.24,41,41,0,0,0-15.13,3.05,41,41,0,0,0-15.13-3.05,113.67,113.67,0,0,0-27.25,3.24h-.12a.15.15,0,0,1-.07,0,1.62,1.62,0,0,0-1.08,1,1.44,1.44,0,0,0-.09.51v70.32a1.63,1.63,0,0,0,.67,1.28c.07,0,.14,0,.21.08a2.41,2.41,0,0,0,.42.16,1.15,1.15,0,0,0,.26,0l.15,0a2.2,2.2,0,0,0,.44-.05A115,115,0,0,1,227,262.19c6.17.1,12.26,2.33,14.75,2.69a16.1,16.1,0,0,0,3.4,0c2.49-.36,8.58-2.59,14.75-2.69A115,115,0,0,1,285,265.3a2.2,2.2,0,0,0,.44.05l.15,0a1.15,1.15,0,0,0,.26,0,1.92,1.92,0,0,0,.42-.16c.07,0,.14,0,.21-.08a1.63,1.63,0,0,0,.67-1.28V193.46A1.44,1.44,0,0,0,287.08,193Zm-45.35,1.55v60.23a1.65,1.65,0,0,0,1.69,1.61h0a1.65,1.65,0,0,0,1.69-1.61V194.5a37.87,37.87,0,0,1,13.43-2.64A118.15,118.15,0,0,1,281,194.1a1.47,1.47,0,0,0,.66.25l2.13.41v66.89A99.06,99.06,0,0,0,260.28,259l-.58,0-1.14,0a40.88,40.88,0,0,0-15.13,3,40.83,40.83,0,0,0-15.13-3l-1.14,0-.57,0a99.09,99.09,0,0,0-23.53,2.68V194.76l2.13-.41a1.47,1.47,0,0,0,.66-.25,118.15,118.15,0,0,1,22.45-2.24A37.87,37.87,0,0,1,241.73,194.5Z" style="fill:#fff"/><path d="M233.72,205.55c-10.39-2.32-22.19.63-22.69.76a1.57,1.57,0,0,0-1.18,1.95,1.67,1.67,0,0,0,1.62,1.19,1.72,1.72,0,0,0,.44-.06c.11,0,11.47-2.87,21.05-.73a1.7,1.7,0,0,0,2-1.2A1.59,1.59,0,0,0,233.72,205.55Z" style="fill:#fff"/><path d="M233.72,215.13c-10.39-2.31-22.19.64-22.69.76a1.59,1.59,0,0,0-1.18,2,1.67,1.67,0,0,0,1.62,1.19,1.72,1.72,0,0,0,.44-.06c.11,0,11.47-2.87,21.05-.74a1.69,1.69,0,0,0,2-1.19A1.6,1.6,0,0,0,233.72,215.13Z" style="fill:#fff"/><path d="M233.72,224.72c-10.39-2.31-22.19.63-22.69.76a1.59,1.59,0,0,0-1.18,2,1.67,1.67,0,0,0,1.62,1.18,1.7,1.7,0,0,0,.44-.05c.11,0,11.47-2.87,21.05-.74a1.69,1.69,0,0,0,2-1.19A1.6,1.6,0,0,0,233.72,224.72Z" style="fill:#fff"/><path d="M233.72,243.9c-10.39-2.32-22.19.63-22.69.76a1.57,1.57,0,0,0-1.18,2,1.67,1.67,0,0,0,1.62,1.19,1.72,1.72,0,0,0,.44-.06c.11,0,11.47-2.87,21.05-.73a1.71,1.71,0,0,0,2-1.2A1.59,1.59,0,0,0,233.72,243.9Z" style="fill:#fff"/><path d="M233.72,234.31c-10.39-2.32-22.19.63-22.69.76a1.58,1.58,0,0,0-1.18,2,1.67,1.67,0,0,0,1.62,1.18,2.28,2.28,0,0,0,.44-.05c.11,0,11.47-2.87,21.05-.74a1.69,1.69,0,0,0,2-1.19A1.6,1.6,0,0,0,233.72,234.31Z" style="fill:#fff"/><path d="M252.11,207.46a1.69,1.69,0,0,0,2,1.2c9.58-2.14,20.94.7,21.05.73a1.72,1.72,0,0,0,.44.06,1.67,1.67,0,0,0,1.62-1.19,1.58,1.58,0,0,0-1.19-1.95c-.49-.13-12.3-3.08-22.68-.76A1.59,1.59,0,0,0,252.11,207.46Z" style="fill:#fff"/><path d="M252.11,217.05a1.69,1.69,0,0,0,2,1.19c9.58-2.13,20.94.71,21.05.74a1.72,1.72,0,0,0,.44.06,1.67,1.67,0,0,0,1.62-1.19,1.59,1.59,0,0,0-1.19-2c-.49-.12-12.3-3.07-22.68-.76A1.6,1.6,0,0,0,252.11,217.05Z" style="fill:#fff"/><path d="M252.11,226.64a1.69,1.69,0,0,0,2,1.19c9.58-2.13,20.94.71,21.05.74a1.7,1.7,0,0,0,.44.05,1.67,1.67,0,0,0,1.62-1.18,1.59,1.59,0,0,0-1.19-2c-.49-.13-12.3-3.07-22.68-.76A1.6,1.6,0,0,0,252.11,226.64Z" style="fill:#fff"/><path d="M252.11,245.81a1.7,1.7,0,0,0,2,1.2c9.58-2.14,20.94.7,21.05.73a1.72,1.72,0,0,0,.44.06,1.67,1.67,0,0,0,1.62-1.19,1.58,1.58,0,0,0-1.19-2c-.49-.13-12.3-3.08-22.68-.76A1.59,1.59,0,0,0,252.11,245.81Z" style="fill:#fff"/><path d="M252.11,236.23a1.69,1.69,0,0,0,2,1.19c9.58-2.13,20.94.71,21.05.74a2.28,2.28,0,0,0,.44.05,1.67,1.67,0,0,0,1.62-1.18,1.59,1.59,0,0,0-1.19-2c-.49-.13-12.3-3.08-22.68-.76A1.6,1.6,0,0,0,252.11,236.23Z" style="fill:#fff"/><path d="M243.45,272.94a14.19,14.19,0,0,1-5.16-1l-.53-.21H202.44a9.73,9.73,0,0,1-9.95-9.45V199.87a2.15,2.15,0,0,1,4.3,0V262.3a5.52,5.52,0,0,0,5.65,5.36h36.18l1.32.52a9.54,9.54,0,0,0,7,0l1.33-.52h36.16a5.52,5.52,0,0,0,5.65-5.36V199.87a2.15,2.15,0,0,1,4.3,0V262.3a9.72,9.72,0,0,1-9.95,9.45H249.13l-.54.21A14.09,14.09,0,0,1,243.45,272.94Z" style="fill:#fff"/><line x1="245.13" y1="264.9" x2="241.74" y2="264.81" style="fill:#fff"/><path d="M79.5,228.55s.63-9.89-8.13-9c0,0-.91,2,1.15,1.82,3.4-.26,7.64,4.45,3,12.58C71.79,240.65,79.5,228.55,79.5,228.55Z" style="fill:#fff"/></g></g></g></svg>