<svg xmlns="http://www.w3.org/2000/svg" viewBox="0 0 308.43 26.85"><title>title</title><g id="fec9f826-1013-41db-801e-dfcdd00ce8fa" data-name="Layer 2"><g id="eb3e9bb5-f7a8-42a1-bc9c-b5c85160047e" data-name="Шар 1"><g id="f670c18d-2f64-4aa5-af5a-6fc80b241eb5" data-name="Content 2"><path d="M32.07,18.79a6.51,6.51,0,0,1-.58,2.81,6.73,6.73,0,0,1-1.64,2.12,9.66,9.66,0,0,1-2.44,1.5,16.77,16.77,0,0,1-3,1,23.17,23.17,0,0,1-3.39.51c-1.18.11-2.38.16-3.58.16-1.69,0-3.38-.09-5.06-.25S9.15,26.23,7.71,26s-2.75-.52-3.87-.8a16.08,16.08,0,0,1-2.59-.84,1.62,1.62,0,0,1-.72-.6A1.36,1.36,0,0,1,.29,23a1.22,1.22,0,0,1,.27-.79A1.2,1.2,0,0,1,2,21.89a23,23,0,0,0,2.58.76c1.13.28,2.41.55,3.84.79s3,.44,4.59.61A40.21,40.21,0,0,0,22.19,24a14.39,14.39,0,0,0,3.57-.94,6.24,6.24,0,0,0,2.35-1.69,3.74,3.74,0,0,0,.82-2.49,2.85,2.85,0,0,0-.68-2,5,5,0,0,0-2-1.3,14.15,14.15,0,0,0-3.12-.8c-1.21-.18-2.52-.32-3.88-.42-2.75-.2-5.82-.09-8.57-.33-1.4-.12-2.74-.29-4-.52a13.59,13.59,0,0,1-3.4-1A6.38,6.38,0,0,1,.93,10.64,4.56,4.56,0,0,1,0,7.72,6.09,6.09,0,0,1,.63,4.94,6.22,6.22,0,0,1,2.32,2.87a9.36,9.36,0,0,1,2.49-1.4,17,17,0,0,1,3-.87,25.81,25.81,0,0,1,3.4-.46,47.44,47.44,0,0,1,7.91,0c1.42.12,2.78.31,4,.51s2.38.47,3.38.73A15.5,15.5,0,0,1,29,2.26a1.08,1.08,0,0,1,.54.49,1.08,1.08,0,0,1,.16.6,1.36,1.36,0,0,1-.34.91,1.49,1.49,0,0,1-1.76.32A24.84,24.84,0,0,0,25,3.75c-1-.25-2-.47-3.15-.64s-2.26-.32-3.44-.41a41,41,0,0,0-8.11.13,16.12,16.12,0,0,0-3.79.89A6.45,6.45,0,0,0,4,5.31a3.29,3.29,0,0,0-.87,2.36,2.24,2.24,0,0,0,.65,1.67,5.48,5.48,0,0,0,2,1.13,15.81,15.81,0,0,0,3.11.69,29.56,29.56,0,0,0,3.87.24H17a36.41,36.41,0,0,1,4.36.24,38.31,38.31,0,0,1,4,.67,13,13,0,0,1,3.39,1.22,6.77,6.77,0,0,1,2.39,2.09A5.48,5.48,0,0,1,32.07,18.79Z"/><path d="M58.17,22.81a1.08,1.08,0,0,1,.34.79,1.16,1.16,0,0,1-.19.64,1.51,1.51,0,0,1-.6.54,17.49,17.49,0,0,1-4.44,1.45,25.85,25.85,0,0,1-4.38.4,27.22,27.22,0,0,1-5-.42,10.91,10.91,0,0,1-4-1.49,7.58,7.58,0,0,1-2.63-2.9,10.05,10.05,0,0,1-.92-4.54,10.78,10.78,0,0,1,.84-4.53,7.18,7.18,0,0,1,2.52-3,10.28,10.28,0,0,1,4-1.55,26.88,26.88,0,0,1,9.55,0,17.27,17.27,0,0,1,4.43,1.44,1.61,1.61,0,0,1,.61.53,1.27,1.27,0,0,1,.19.65,1.09,1.09,0,0,1-.34.8,1.29,1.29,0,0,1-.88.33,2.2,2.2,0,0,1-.68-.14,10.87,10.87,0,0,0-1.47-.56,19,19,0,0,0-1.89-.51c-.68-.15-1.41-.28-2.16-.38a16.57,16.57,0,0,0-2.19-.15,21.15,21.15,0,0,0-4.47.41,7.28,7.28,0,0,0-2.88,1.24A4.89,4.89,0,0,0,40,14a9.17,9.17,0,0,0-.53,3.3A8.09,8.09,0,0,0,40,20.54a4.9,4.9,0,0,0,1.7,2.09,7.74,7.74,0,0,0,2.91,1.2,20.48,20.48,0,0,0,4.26.39,16.78,16.78,0,0,0,2.22-.15c.75-.1,1.48-.23,2.16-.38s1.32-.33,1.89-.51a11.53,11.53,0,0,0,1.39-.53,2.39,2.39,0,0,1,.76-.17A1.2,1.2,0,0,1,58.17,22.81Z"/><path d="M86,16.54v7.71a3.63,3.63,0,0,1,0,.65,2.21,2.21,0,0,1-.16.65,1.73,1.73,0,0,1-.42.58,1.4,1.4,0,0,1-.84.27,1.36,1.36,0,0,1-1.35-.83,1.9,1.9,0,0,1-.18-.69q0-.31,0-.63V16.54a13.86,13.86,0,0,0-.27-2.93,4,4,0,0,0-.94-1.91,4.2,4.2,0,0,0-1.94-1.11,16,16,0,0,0-6.34-.2,12.74,12.74,0,0,0-2.86.71,8.65,8.65,0,0,0-2.38,1.3,3.9,3.9,0,0,0-1.31,1.85v10c0,.21,0,.43,0,.65a2.5,2.5,0,0,1-.17.64,1.42,1.42,0,0,1-.42.59,1.52,1.52,0,0,1-1.71,0,1.5,1.5,0,0,1-.48-.58,1.9,1.9,0,0,1-.18-.69q0-.31,0-.63V2.58q0-.3,0-.6a2,2,0,0,1,.18-.68,1.47,1.47,0,0,1,.48-.57,1.53,1.53,0,0,1,1.69,0,1.35,1.35,0,0,1,.44.59,2.66,2.66,0,0,1,.17.63c0,.21,0,.43,0,.65v8a6.51,6.51,0,0,1,1.46-1.12,9.42,9.42,0,0,1,2-.84,17.25,17.25,0,0,1,2.1-.49,18.88,18.88,0,0,1,2.07-.26c.66,0,1.26-.07,1.81-.07a19.17,19.17,0,0,1,4.41.43A6.83,6.83,0,0,1,83.8,9.72a6,6,0,0,1,1.7,2.78A14.53,14.53,0,0,1,86,16.54Z"/><path d="M112.86,17.28a3.12,3.12,0,0,0,.21-.67,4.77,4.77,0,0,0,.15-.77,5.05,5.05,0,0,0,0-.75,6.37,6.37,0,0,0-2.66-5.45c-1.71-1.23-4.29-1.86-7.66-1.86a22.66,22.66,0,0,0-4.55.44,10.09,10.09,0,0,0-3.78,1.55,7.74,7.74,0,0,0-2.57,3,10,10,0,0,0-.91,4.54A11.7,11.7,0,0,0,91.7,21a7.33,7.33,0,0,0,1.88,3,8.54,8.54,0,0,0,3.31,1.94,14.82,14.82,0,0,0,4.81.69,26.84,26.84,0,0,0,4.62-.35,23.33,23.33,0,0,0,3.28-.79,9.52,9.52,0,0,0,2.1-.92,6.55,6.55,0,0,0,.93-.63,1,1,0,0,0,.48-.85,1.23,1.23,0,0,0-.38-.86,1.17,1.17,0,0,0-.91-.41,1.48,1.48,0,0,0-.36.06l-.14.07c-.27.17-.65.39-1.15.64a11.6,11.6,0,0,1-1.85.74,18.56,18.56,0,0,1-2.79.63,23.53,23.53,0,0,1-3.8.26,12.66,12.66,0,0,1-3.34-.39,5.7,5.7,0,0,1-2.29-1.16,5.21,5.21,0,0,1-1.4-2.1,9.45,9.45,0,0,1-.53-2.73h18A.82.82,0,0,0,112.86,17.28Zm-2.12-1.58H94.23a6.3,6.3,0,0,1,.64-2.27,5,5,0,0,1,1.66-1.84,7.5,7.5,0,0,1,2.67-1.05,18.19,18.19,0,0,1,3.75-.35,14.87,14.87,0,0,1,3.76.4,6.72,6.72,0,0,1,2.39,1.07,3.82,3.82,0,0,1,1.25,1.49,4.67,4.67,0,0,1,.39,1.89Z"/><path d="M141.68,1.89a1.89,1.89,0,0,0-.17-.65A1.24,1.24,0,0,0,141,.68a1.74,1.74,0,0,0-1.75,0,1.27,1.27,0,0,0-.44.58,2,2,0,0,0-.15.7c0,.21,0,.41,0,.61v7.56a3.27,3.27,0,0,0-.36-.25,10.15,10.15,0,0,0-2.14-1.06,16.66,16.66,0,0,0-3.12-.78,27.45,27.45,0,0,0-4.37-.31,18.78,18.78,0,0,0-4.58.5,8.8,8.8,0,0,0-3.48,1.66,7,7,0,0,0-2.19,3,12,12,0,0,0-.72,4.41,9.9,9.9,0,0,0,.88,4.41A7.4,7.4,0,0,0,121,24.62a9.87,9.87,0,0,0,3.53,1.52,20.21,20.21,0,0,0,4.13.42h1.82a13.11,13.11,0,0,0,2.21-.19,17,17,0,0,0,2.25-.53,10.53,10.53,0,0,0,2.09-.86,6.82,6.82,0,0,0,1.62-1.22v.95a1.59,1.59,0,0,0,.49,1.34,1.61,1.61,0,0,0,2,0,1.63,1.63,0,0,0,.5-1.36V2.54C141.71,2.32,141.69,2.1,141.68,1.89Zm-3,18.33a3.62,3.62,0,0,1-1.38,1.89,8.81,8.81,0,0,1-2.53,1.26,16.25,16.25,0,0,1-3.07.65,17.91,17.91,0,0,1-6.2-.18,6.87,6.87,0,0,1-2.5-1.11,5.31,5.31,0,0,1-1.65-2.06,7.9,7.9,0,0,1-.62-3.3,10.77,10.77,0,0,1,.46-3.32,5.05,5.05,0,0,1,1.37-2.17A6,6,0,0,1,125,10.61a14.2,14.2,0,0,1,3.71-.42,27.74,27.74,0,0,1,4,.25,17.67,17.67,0,0,1,2.9.66,10.47,10.47,0,0,1,2,.85,9.68,9.68,0,0,1,1.1.7Z"/><path d="M169.36,10.38V24.3c0,.22,0,.42,0,.63a2.32,2.32,0,0,1-.17.63,1.41,1.41,0,0,1-.45.59,1.56,1.56,0,0,1-2.18-.5,2.86,2.86,0,0,1-.21-1.16V24l-.33.26a9.94,9.94,0,0,1-2,1.15,15.56,15.56,0,0,1-2.74.85,17.55,17.55,0,0,1-3.6.34,17.75,17.75,0,0,1-4.43-.48,7.89,7.89,0,0,1-3.15-1.55,6.15,6.15,0,0,1-1.79-2.71,11.84,11.84,0,0,1-.54-3.8V10.38c0-.21,0-.43,0-.64a2.67,2.67,0,0,1,.17-.65,1.25,1.25,0,0,1,.45-.59,1.57,1.57,0,0,1,1.75,0,1.33,1.33,0,0,1,.45.62,1.82,1.82,0,0,1,.14.64c0,.21,0,.43,0,.63v7.71a12.69,12.69,0,0,0,.31,3,3.62,3.62,0,0,0,1,1.79,4.41,4.41,0,0,0,2,1,16.23,16.23,0,0,0,3.55.32,14.68,14.68,0,0,0,2.92-.26,16.36,16.36,0,0,0,2.47-.65,14,14,0,0,0,2-.88c.49-.28.93-.55,1.32-.82V10.38c0-.2,0-.42,0-.63a2.49,2.49,0,0,1,.14-.65,1.39,1.39,0,0,1,.42-.59,1.57,1.57,0,0,1,1.76,0,1.43,1.43,0,0,1,.48.58,1.79,1.79,0,0,1,.18.68C169.35,10,169.36,10.18,169.36,10.38Z"/><path d="M178.73,2.58V24.3a3.49,3.49,0,0,1-.2,1.27,1.25,1.25,0,0,1-1.29.83,1.59,1.59,0,0,1-.86-.22,1.19,1.19,0,0,1-.48-.56,1.78,1.78,0,0,1-.16-.66,3.87,3.87,0,0,1,0-.62V2.62a4.64,4.64,0,0,1,0-.67,1.67,1.67,0,0,1,.18-.69,1.56,1.56,0,0,1,.49-.56,1.65,1.65,0,0,1,1.7,0,1.53,1.53,0,0,1,.44.59,2.36,2.36,0,0,1,.16.66C178.73,2.16,178.73,2.36,178.73,2.58Z"/><path d="M205.88,17.28a3.71,3.71,0,0,0,.23-.67c.06-.25.1-.5.14-.77a6.9,6.9,0,0,0,.05-.75,6.37,6.37,0,0,0-2.66-5.45c-1.71-1.23-4.29-1.86-7.66-1.86a22.66,22.66,0,0,0-4.55.44,10.16,10.16,0,0,0-3.78,1.55,7.72,7.72,0,0,0-2.56,3,9.89,9.89,0,0,0-.93,4.54,12.29,12.29,0,0,0,.56,3.72,7.33,7.33,0,0,0,1.88,3,8.66,8.66,0,0,0,3.32,1.94,14.84,14.84,0,0,0,4.82.69,26.8,26.8,0,0,0,4.61-.35,23.68,23.68,0,0,0,3.28-.79,10.34,10.34,0,0,0,2.11-.92,5,5,0,0,0,.91-.63,1,1,0,0,0,.48-.85,1.32,1.32,0,0,0-1.27-1.27,1.62,1.62,0,0,0-.38.06l-.13.07c-.27.17-.66.39-1.15.64a11.37,11.37,0,0,1-1.86.74,18.13,18.13,0,0,1-2.78.63,23.45,23.45,0,0,1-3.8.26,12.76,12.76,0,0,1-3.34-.39,5.81,5.81,0,0,1-2.3-1.16,5.3,5.3,0,0,1-1.39-2.1,9.46,9.46,0,0,1-.52-2.73h17.95A.79.79,0,0,0,205.88,17.28Zm-2.12-1.58h-16.5a6.3,6.3,0,0,1,.64-2.27,5,5,0,0,1,1.66-1.84,7.5,7.5,0,0,1,2.67-1.05,18.26,18.26,0,0,1,3.75-.35,15,15,0,0,1,3.77.4,6.75,6.75,0,0,1,2.38,1.07,3.74,3.74,0,0,1,1.25,1.49,4.66,4.66,0,0,1,.38,1.89Z"/><path d="M234.17,21.1a3.79,3.79,0,0,1-1,2.68,7.13,7.13,0,0,1-2.58,1.65,15.52,15.52,0,0,1-3.55.86,30.17,30.17,0,0,1-4.08.27h-2.74a19.41,19.41,0,0,1-3-.23,17.35,17.35,0,0,1-2.91-.67,8.54,8.54,0,0,1-2.53-1.31,1.22,1.22,0,0,1-.54-1,1.31,1.31,0,0,1,.29-.85,1.13,1.13,0,0,1,.89-.42.9.9,0,0,1,.68.26,9.92,9.92,0,0,0,1.93,1,13.86,13.86,0,0,0,2.3.62,14.06,14.06,0,0,0,2.55.23h2.86A29.93,29.93,0,0,0,226,24a12.83,12.83,0,0,0,2.76-.55,5,5,0,0,0,1.8-1,1.7,1.7,0,0,0,.57-1.34,1.64,1.64,0,0,0-.66-1.42,5.46,5.46,0,0,0-2.09-.85,15.68,15.68,0,0,0-3.16-.29h-3.76c-1.29,0-2.58-.06-3.8-.15a15.28,15.28,0,0,1-3.43-.64,6.42,6.42,0,0,1-2.56-1.47,3.73,3.73,0,0,1-1-2.76,4.21,4.21,0,0,1,1-2.91,6.62,6.62,0,0,1,2.52-1.73A13.46,13.46,0,0,1,217.57,8a33.31,33.31,0,0,1,9.61.26,19,19,0,0,1,5.09,1.67,1.18,1.18,0,0,1,.57.53A1.86,1.86,0,0,1,233,11a1.35,1.35,0,0,1-.31.92,1.1,1.1,0,0,1-.87.43.86.86,0,0,1-.49-.13A20.55,20.55,0,0,0,227,10.74a25.13,25.13,0,0,0-5.53-.55,24.68,24.68,0,0,0-3,.18,10.91,10.91,0,0,0-2.53.61,4.37,4.37,0,0,0-1.65,1,2,2,0,0,0-.56,1.49,1.48,1.48,0,0,0,.65,1.32,5.52,5.52,0,0,0,2.1.8,16.73,16.73,0,0,0,3.17.27h3.76c1.28,0,2.57.06,3.81.17a15.56,15.56,0,0,1,3.42.68,6.27,6.27,0,0,1,2.56,1.54A3.86,3.86,0,0,1,234.17,21.1Z"/><path d="M262.7,6.28a7.62,7.62,0,0,0-1.46-2.61,7.4,7.4,0,0,0-2.33-1.75,14.08,14.08,0,0,0-3-1A17,17,0,0,0,252.3.55H239.9a1.46,1.46,0,0,0-.62.13,1,1,0,0,0-.49.55,2.08,2.08,0,0,0-.08.67V24.17a3.87,3.87,0,0,0,.23,1.38,1.39,1.39,0,0,0,1.42.85,1.28,1.28,0,0,0,1.28-.9,4.09,4.09,0,0,0,.21-1.34V18.59H252a22.69,22.69,0,0,0,3.5-.25,14.32,14.32,0,0,0,3-.79A6.94,6.94,0,0,0,261,16a6.88,6.88,0,0,0,1.59-2.53,10.49,10.49,0,0,0,.56-3.63A11.71,11.71,0,0,0,262.7,6.28ZM241.85,3h6.42a46.82,46.82,0,0,1,5.44.28,10.5,10.5,0,0,1,3.64,1,4.59,4.59,0,0,1,2,2,7.77,7.77,0,0,1,.69,3.54,7.63,7.63,0,0,1-.66,3.46,4.13,4.13,0,0,1-2,1.83,10.79,10.79,0,0,1-3.65.84c-1.53.12-3.37.18-5.48.18h-6.42Z"/><path d="M282,9.53a1.32,1.32,0,0,1-.33.86,1.26,1.26,0,0,1-1.05.46.83.83,0,0,1-.41-.07c-.61-.15-1.18-.27-1.71-.35a12.21,12.21,0,0,0-4.25.12,8,8,0,0,0-2.12.72,5.77,5.77,0,0,0-1.62,1.21,4.85,4.85,0,0,0-1,1.65V24.3a3.82,3.82,0,0,1-.19,1.23,1.27,1.27,0,0,1-1.3.87,1.55,1.55,0,0,1-.86-.23,1.51,1.51,0,0,1-.49-.6,2.2,2.2,0,0,1-.16-.66c0-.2,0-.4,0-.61V10a2.49,2.49,0,0,1,.24-1.12,1.42,1.42,0,0,1,1.39-.67,1.18,1.18,0,0,1,1.2.69,2.81,2.81,0,0,1,.19,1.1v.32c.11-.11.22-.23.34-.33a7.12,7.12,0,0,1,2.24-1.41,9.67,9.67,0,0,1,2.48-.66,17.29,17.29,0,0,1,3.78-.1c.45,0,.84.08,1.16.14s.63.12.87.18l.69.18a1.22,1.22,0,0,1,.72.5A1.32,1.32,0,0,1,282,9.53Z"/><path d="M307.7,13a7.12,7.12,0,0,0-2.3-3,10.26,10.26,0,0,0-3.87-1.71,27.12,27.12,0,0,0-10.67,0A10.07,10.07,0,0,0,287,10a7.2,7.2,0,0,0-2.32,3,11.36,11.36,0,0,0-.73,4.26,11.1,11.1,0,0,0,.64,3.85,7.05,7.05,0,0,0,2.16,3A10.14,10.14,0,0,0,290.56,26a21.71,21.71,0,0,0,5.63.64,21.6,21.6,0,0,0,5.63-.64,10.16,10.16,0,0,0,3.83-1.87,6.93,6.93,0,0,0,2.14-3,10.87,10.87,0,0,0,.64-3.85A11.08,11.08,0,0,0,307.7,13ZM296.19,24.22a19.16,19.16,0,0,1-3.56-.29,10.09,10.09,0,0,1-2.5-.79,5.29,5.29,0,0,1-2.56-2.53A5.69,5.69,0,0,1,287.1,19a12.83,12.83,0,0,1-.12-1.74,9.39,9.39,0,0,1,.52-3.35,4.83,4.83,0,0,1,1.59-2.12,7,7,0,0,1,2.82-1.22,19.58,19.58,0,0,1,4.28-.4,19.81,19.81,0,0,1,4.29.4,7,7,0,0,1,2.82,1.22,4.74,4.74,0,0,1,1.58,2.12,9.16,9.16,0,0,1,.53,3.35,12.94,12.94,0,0,1-.12,1.74,5.71,5.71,0,0,1-.48,1.59,5.18,5.18,0,0,1-.95,1.4,5.36,5.36,0,0,1-1.6,1.13,10.28,10.28,0,0,1-2.49.79A19.47,19.47,0,0,1,296.19,24.22Z"/></g></g></g></svg>