<svg xmlns="http://www.w3.org/2000/svg" viewBox="0 0 170.48 181.8"><title>variation-symbol</title><g id="b7a6d93c-0fdb-4a60-8b20-b7e73f869409" data-name="Layer 2"><g id="b6018ccd-a06f-4654-bc10-37b228aa3924" data-name="Brand Manual IS"><g id="b8c2d063-94d8-4099-8993-614a40de8139" data-name="Content 2"><path d="M13.92,166.82V52.63A13.86,13.86,0,0,0,7.55,41,13.83,13.83,0,0,0,0,38.73H19.38A32.26,32.26,0,0,1,51.69,71v95.82a13.91,13.91,0,0,0,13.92,13.9H0a13.92,13.92,0,0,0,13.92-13.9"/><path d="M170.48,38.73c-6.86,0-13.52,14.26-15.41,20.85,2-6.95-2.58-20.85-9.44-20.85Z"/><path d="M14.91,16.38a16.4,16.4,0,1,1,16.4,16.39,16.39,16.39,0,0,1-16.4-16.39"/><path d="M129.93,131.05l-17.56,50.54-.48.21S55.61,51.72,52.69,47.66c-3.13-4.35-8.53-8.93-14.42-8.93H87a4.49,4.49,0,0,1,3.71,2h0l.65,1.51L93.85,48l2.44,5.64L100,62.06Z"/></g></g></g></svg>