<svg xmlns="http://www.w3.org/2000/svg" viewBox="0 0 279 250"><title>variation-logo</title><g id="bbc0eff5-e401-4520-93cb-41af51973e47" data-name="Layer 2"><g id="f2cdf65f-f6ce-4f82-ab01-14707c91d017" data-name="Brand Manual IS"><g id="b3cd98ef-6a48-4c69-a8d8-385eb5756bc0" data-name="Content 2"><path d="M69.84,166.82V52.63a13.92,13.92,0,0,0-13.91-13.9H75.31A32.26,32.26,0,0,1,107.62,71v95.82a13.91,13.91,0,0,0,13.92,13.9H55.93a13.91,13.91,0,0,0,13.91-13.9"/><path d="M226.41,38.73c-6.86,0-13.53,14.26-15.41,20.85,2-6.95-2.59-20.85-9.44-20.85Z"/><path d="M70.84,16.38a16.4,16.4,0,1,1,16.4,16.39,16.39,16.39,0,0,1-16.4-16.39"/><path d="M185.86,131.05l-17.57,50.54-.47.21S111.53,51.72,108.61,47.66c-3.13-4.35-8.53-8.93-14.41-8.93h48.71a4.49,4.49,0,0,1,3.71,2h0l.65,1.51L149.78,48l2.44,5.64,3.67,8.44Z"/><text transform="translate(0 235.94)" style="font-size:39.705780029296875px;font-family:FiraSans-Regular, Fira Sans"><tspan style="letter-spacing:-0.004987293326352203em">IN</tspan><tspan x="38.44" y="0" style="letter-spacing:-0.005994579170590825em">SIG</tspan><tspan x="96.13" y="0" style="letter-spacing:-0.005011861273772657em">H</tspan><tspan x="122.93" y="0">T</tspan></text><text transform="translate(156.81 235.98)" style="font-size:39.705780029296875px;font-family:FiraSans-Regular, Fira Sans"><tspan style="letter-spacing:0.001007285844238622em">V</tspan><tspan x="22.12" y="0" style="letter-spacing:0.002014571688477244em">IS</tspan><tspan x="55.63" y="0" style="letter-spacing:0.001007285844238622em">I</tspan><tspan x="67.38" y="0" style="letter-spacing:0.002014571688477244em">O</tspan><tspan x="94.94" y="0">N</tspan></text></g></g></g></svg>