<svg xmlns="http://www.w3.org/2000/svg" width="150" height="14.81" viewBox="0 0 150 14.81"><title>logo-footer</title><g id="bd556982-f91a-4c97-b0be-185be3d46e1f" data-name="Layer 2"><g id="b5d7bcd0-003d-43ae-b803-35d0afcf0f7f" data-name="Footer"><g id="b2f51741-8e0e-47a3-9361-5daec14fda2e" data-name="logo"><path d="M14.37,11.68A4.76,4.76,0,0,1,13,13.31a7.25,7.25,0,0,1-2.32,1.1,11.57,11.57,0,0,1-3.24.4,11.67,11.67,0,0,1-3.24-.4,7.31,7.31,0,0,1-2.33-1.1A4.76,4.76,0,0,1,.46,11.68a4.4,4.4,0,0,1-.46-2V.36H3.36v8a5.35,5.35,0,0,0,.16,1.34,2.64,2.64,0,0,0,.6,1.1,3,3,0,0,0,1.24.74,6.24,6.24,0,0,0,2.06.28,6.2,6.2,0,0,0,2.06-.28,3.09,3.09,0,0,0,1.23-.74,2.51,2.51,0,0,0,.59-1.1,5.35,5.35,0,0,0,.16-1.34v-8h3.37V9.69A4.54,4.54,0,0,1,14.37,11.68Z" fill="#269eed"/><path d="M32.4,3.23a3.67,3.67,0,0,0-.88-1.52A4,4,0,0,0,30,.71,7,7,0,0,0,27.61.36H20.15a1.5,1.5,0,0,0-1.5,1.5h0a1.5,1.5,0,0,0,1.5,1.5h6.74A5,5,0,0,1,28,3.47a1.81,1.81,0,0,1,.74.33,1.19,1.19,0,0,1,.4.58,2.39,2.39,0,0,1,.13.84,2.23,2.23,0,0,1-.13.83,1.11,1.11,0,0,1-.4.55,1.79,1.79,0,0,1-.74.3A5.78,5.78,0,0,1,26.89,7H18.65v7.44H22V10h5.59A6.75,6.75,0,0,0,30,9.63a4,4,0,0,0,1.56-1,3.8,3.8,0,0,0,.88-1.52,6.71,6.71,0,0,0,.27-1.95A6.57,6.57,0,0,0,32.4,3.23Z" fill="#269eed"/><path d="M43.84,14.43H39.92L33.6.36h3.76L41.91,11,46.44.36H50.2Z" fill="#1e1d1e"/><path d="M80.71,14a12.3,12.3,0,0,1-1.38.43,11.26,11.26,0,0,1-1.49.27,14.87,14.87,0,0,1-1.69.09,12.58,12.58,0,0,1-3.51-.46A7.8,7.8,0,0,1,69.88,13a6.32,6.32,0,0,1-1.8-2.31,7.65,7.65,0,0,1-.65-3.24,7.66,7.66,0,0,1,.65-3.25,6.4,6.4,0,0,1,1.8-2.31A7.8,7.8,0,0,1,72.64.46,12.58,12.58,0,0,1,76.15,0a14.87,14.87,0,0,1,1.69.09,11.26,11.26,0,0,1,1.49.27,12.3,12.3,0,0,1,1.38.43c.44.16.88.35,1.31.55V4.76c-.34-.21-.7-.42-1.09-.63a10.58,10.58,0,0,0-1.26-.56,10.16,10.16,0,0,0-1.52-.41A9.55,9.55,0,0,0,76.29,3a8,8,0,0,0-2.64.37,4.55,4.55,0,0,0-1.68,1,3.5,3.5,0,0,0-.88,1.41,5.37,5.37,0,0,0-.25,1.65A5.22,5.22,0,0,0,71,8.52a3.71,3.71,0,0,0,.36,1,3.6,3.6,0,0,0,.66.9,4.1,4.1,0,0,0,1,.71,6.4,6.4,0,0,0,1.42.46,9.57,9.57,0,0,0,1.88.17,10.46,10.46,0,0,0,1.86-.15,10.2,10.2,0,0,0,1.52-.39,9.18,9.18,0,0,0,1.26-.56c.39-.21.75-.42,1.09-.64v3.42A13.47,13.47,0,0,1,80.71,14Z" fill="#1e1d1e"/><path d="M92.16,3.42v11H88.79v-11H85A1.52,1.52,0,0,1,83.5,1.89h0A1.52,1.52,0,0,1,85,.36H95.94a1.52,1.52,0,0,1,1.53,1.53h0a1.52,1.52,0,0,1-1.53,1.53Z" fill="#1e1d1e"/><path d="M115.85,7.41a8,8,0,0,1-.59,3.2,6.06,6.06,0,0,1-1.69,2.32,7.43,7.43,0,0,1-2.66,1.41,12.41,12.41,0,0,1-3.53.47,12.51,12.51,0,0,1-3.53-.47,7.53,7.53,0,0,1-2.68-1.41,6.21,6.21,0,0,1-1.71-2.32,8,8,0,0,1-.6-3.2,8.06,8.06,0,0,1,.6-3.21,6.29,6.29,0,0,1,1.71-2.32,7.36,7.36,0,0,1,2.68-1.4,13.22,13.22,0,0,1,7.06,0,7.26,7.26,0,0,1,2.66,1.4,6.14,6.14,0,0,1,1.69,2.32A8.06,8.06,0,0,1,115.85,7.41Zm-3.4,0a5.75,5.75,0,0,0-.23-1.58,3.43,3.43,0,0,0-.79-1.4,4,4,0,0,0-1.55-1,6.79,6.79,0,0,0-2.5-.39,8,8,0,0,0-1.79.18,5.05,5.05,0,0,0-1.33.5,3.77,3.77,0,0,0-1,.74,4.14,4.14,0,0,0-.61.91,4.48,4.48,0,0,0-.32,1,6.09,6.09,0,0,0-.09,1,6.29,6.29,0,0,0,.09,1.05,4.33,4.33,0,0,0,.32,1,4.14,4.14,0,0,0,.61.91,3.74,3.74,0,0,0,1,.73,5.05,5.05,0,0,0,1.33.49,8,8,0,0,0,1.79.18,6.79,6.79,0,0,0,2.5-.39,4.13,4.13,0,0,0,1.55-1A3.54,3.54,0,0,0,112.22,9,5.68,5.68,0,0,0,112.45,7.41Z" fill="#1e1d1e"/><path d="M129.61,8.87a5.21,5.21,0,0,0,1-.54,3.57,3.57,0,0,0,.88-.81,3.62,3.62,0,0,0,.6-1.14,4.83,4.83,0,0,0,.22-1.55A6.2,6.2,0,0,0,132.1,3a3.42,3.42,0,0,0-.87-1.41,4,4,0,0,0-1.54-.9,7.18,7.18,0,0,0-2.32-.32h-7a1.47,1.47,0,0,0-1.47,1.47h0a1.47,1.47,0,0,0,1.47,1.47h6.52a5.5,5.5,0,0,1,1,.08,1.66,1.66,0,0,1,.63.26,1,1,0,0,1,.33.47,2.29,2.29,0,0,1,.1.69,2.31,2.31,0,0,1-.1.7,1,1,0,0,1-.33.47,1.66,1.66,0,0,1-.63.26,5.5,5.5,0,0,1-1,.08h-8v8.12h3.38V9.25H126l3.78,5.18h3.95Z" fill="#1e1d1e"/><path d="M144,8.69v5.74h-3.36V8.69L134.53.36h3.78l4,5.66L146.22.36H150Z" fill="#1e1d1e"/><rect x="52.25" y="0.36" width="12.64" height="3" rx="1.5" fill="#1e1d1e"/><rect x="52.25" y="5.68" width="10.28" height="3" rx="1.5" fill="#1e1d1e"/><rect x="52.25" y="11.43" width="12.77" height="3" rx="1.5" fill="#1e1d1e"/></g></g></g></svg>