<svg xmlns="http://www.w3.org/2000/svg" width="52" height="78" viewBox="0 0 52 78"><title>pattern</title><g id="e8baa604-137b-4630-8df3-5f8a4bcf932e" data-name="Layer 2"><g id="aba7993f-1e2a-48c3-a130-36f66e13c3bf" data-name="Ğ¨Ğ°Ñ€ 1"><g id="bfcb5ee1-1b1e-4490-b0eb-753c29724791" data-name="Pattern"><rect width="52" height="78" fill="none"/><rect x="0.01" width="51.98" height="78" fill="#3f5864"/><path d="M49.21,75.34a3.29,3.29,0,0,0-1,2.35,1.56,1.56,0,0,0,0,.31h.49c0-.11,0-.21,0-.31a2.84,2.84,0,0,1,.82-2,2.78,2.78,0,0,1,2-.82,2.28,2.28,0,0,1,.45,0V74.4A3.29,3.29,0,0,0,49.21,75.34Z" fill="#fff"/><path d="M34.7,56.13l8.18,8.21,6.85,6.88A2.9,2.9,0,0,0,52,72v-.51a2.25,2.25,0,0,1-1.89-.68l-6.51-6.52-.39-.39-8.14-8.17a2.32,2.32,0,0,1-.68-1.65,2.2,2.2,0,0,1,.67-1.65h0l-.36-.36-.36.37-8.26,8.28.35.36a2.32,2.32,0,0,1,3.3,0L42.34,73.76a6.24,6.24,0,0,0,4.44,1.84,6.27,6.27,0,0,0,4.42-1.82L52,73v-.72l-1.15,1.14a5.5,5.5,0,0,1-2.06,1.33,5.74,5.74,0,0,1-6.07-1.33L30.09,60.75a2.81,2.81,0,0,0-2-.83,2.74,2.74,0,0,0-.5,0l6.34-6.36a3,3,0,0,0,0,.52A2.86,2.86,0,0,0,34.7,56.13Z" fill="#fff"/><path d="M44.7,77.58l-7.49-7.51-.36.35a4.07,4.07,0,0,1,.78,3.39c0,.22-.63,1.81-1.54,4.19h.53c.89-2.3,1.46-3.87,1.5-4.11A5.7,5.7,0,0,0,38,71.61l6.3,6.32.06.07H45A1.26,1.26,0,0,0,44.7,77.58Z" fill="#fff"/><path d="M46.81,65.19l-.36.36,3.83,3.83.35-.36a1.37,1.37,0,0,1-.26-1.18,4.76,4.76,0,0,1,.7-1.79A4.39,4.39,0,0,1,52,65v-.64C50.54,65.13,47.67,66.05,46.81,65.19Zm3,2.58a3.67,3.67,0,0,0,0,.46L47.65,66a8.11,8.11,0,0,0,3.26-.62A5.47,5.47,0,0,0,49.86,67.77Z" fill="#fff"/><path d="M1.88,75.34A3.32,3.32,0,0,0,0,74.4v.52a2.71,2.71,0,0,1,1.52.79,2.76,2.76,0,0,1,.82,2c0,.1,0,.2,0,.31h.49a1.62,1.62,0,0,0,0-.31A3.31,3.31,0,0,0,1.88,75.34Z" fill="#fff"/><path d="M1.4,70.85a2.16,2.16,0,0,1-1.16.64l-.23,0V72l.25,0L0,72.25V73l1.75-1.76Z" fill="#fff"/><path d="M.16,64.44.09,64.3l-.08,0v.49H0V65l.12-.09a1.37,1.37,0,0,1,.2-.13h0Z" fill="#fff"/><path d="M25.87,52.12,25.55,52,14.89,57.19,7,77.23l0,.09A1.12,1.12,0,0,0,7,78H7.6a.71.71,0,0,1-.15-.56l7.83-19.89,10-4.84c-1.18,3-7.07,17.9-9.88,25.29h.54c2.54-6.65,7.58-19.45,9.93-25.43l.06-.16.11-.23Z" fill="#fff"/><path d="M51.51,55.7a2.35,2.35,0,0,1-1.66.68,2.29,2.29,0,0,1-1.65-.69L35.59,43A6.23,6.23,0,0,0,29,41.59,6.14,6.14,0,0,0,26.74,43l-2.55,2.55.35.35a2.54,2.54,0,0,1,1.16-.63,2.31,2.31,0,0,1,2.15.64l6.49,6.52.39.39L42.88,61a2.34,2.34,0,0,1,.67,1.66,2.28,2.28,0,0,1-.67,1.65l.35.36.36-.37,8.27-8.27ZM44,63.2a2.82,2.82,0,0,0-.79-2.52l-8.18-8.21-.36-.36L28.2,45.6a2.78,2.78,0,0,0-2.52-.79l1.41-1.42a5.64,5.64,0,0,1,2.06-1.32,5.75,5.75,0,0,1,6.09,1.32L47.85,56.06a2.83,2.83,0,0,0,2,.83,4.8,4.8,0,0,0,.52,0Z" fill="#fff"/><path d="M27.88,36.35a3.3,3.3,0,0,0-5.63,2.33A3.3,3.3,0,0,0,27.88,41a3.31,3.31,0,0,0,0-4.68Zm-.35,4.32a2.81,2.81,0,0,1-4,0,2.73,2.73,0,0,1-.82-2,2.8,2.8,0,0,1,.82-2,2.75,2.75,0,0,1,2-.82,2.8,2.8,0,0,1,2,.82,2.85,2.85,0,0,1,.81,2A2.79,2.79,0,0,1,27.53,40.67Z" fill="#fff"/><path d="M27.4,31.86h0a2.59,2.59,0,0,1-1.16.63,2.31,2.31,0,0,1-2.14-.64l-6.5-6.52L17.21,25,9.06,16.77a2.38,2.38,0,0,1-.32-2.9,2.51,2.51,0,0,1,.32-.41l-.35-.36-.36.36L.08,21.74h0l.35.36a2.35,2.35,0,0,1,1.66-.68,2.29,2.29,0,0,1,1.65.69L16.35,34.77a6.25,6.25,0,0,0,8.86,0l2.55-2.56Zm-2.55,2.56a5.69,5.69,0,0,1-2.06,1.32,5.79,5.79,0,0,1-6.09-1.32L4.09,21.75a2.83,2.83,0,0,0-2-.83,2.85,2.85,0,0,0-.51,0l6.34-6.35a2.74,2.74,0,0,0,0,.5,2.8,2.8,0,0,0,.83,2l8.54,8.56,6.49,6.52a2.81,2.81,0,0,0,2.52.79Z" fill="#fff"/><path d="M27.72,47.62l-.35.36a1.38,1.38,0,0,1,.26,1.18,5,5,0,0,1-1.76,3,1.28,1.28,0,0,1-.21.14l.18.31.07.12c1.43-.79,4.4-1.76,5.28-.88l.36-.36Zm-.64,4a5.54,5.54,0,0,0,1.05-2.38,3.67,3.67,0,0,0,0-.46l2.2,2.2A8,8,0,0,0,27.08,51.61Z" fill="#fff"/><path d="M18.71,38.58l-7.49-7.51-.36.35a4.1,4.1,0,0,1,.77,3.39c-.14.85-8.27,21.53-11.47,29.63l-.06.15L0,64.81v0H0l.12,0L.45,65l10.67-5.18L19,39.75l0-.08A1.22,1.22,0,0,0,18.71,38.58Zm-8,20.86-10,4.84C2.31,60.37,12,35.91,12.13,34.89A5.48,5.48,0,0,0,12,32.62l6.3,6.31a.72.72,0,0,1,.22.63Z" fill="#fff"/><path d="M26.16,25.44l-.07-.13c-1.43.79-4.4,1.76-5.28.88l-.36.36,3.83,3.83.35-.35a1.38,1.38,0,0,1-.26-1.18,4.91,4.91,0,0,1,1.76-3l.2-.13h0Zm-2.29,3.34a3.52,3.52,0,0,0,0,.45L21.65,27a7.8,7.8,0,0,0,3.27-.64A5.53,5.53,0,0,0,23.87,28.78Z" fill="#fff"/><path d="M52,13.18l-.13,0L51.55,13,40.88,18.18,33,38.23l0,.1a1.25,1.25,0,0,0,.33,1.1l7.49,7.51.36-.36a4.09,4.09,0,0,1-.77-3.38c.14-.86,8.27-21.53,11.47-29.64l.06-.15L52,13.2v0ZM39.87,43.12A5.44,5.44,0,0,0,40,45.38l-6.3-6.31a.71.71,0,0,1-.22-.62l7.84-19.89,10-4.84C49.69,17.64,40.05,42.09,39.87,43.12Z" fill="#fff"/><path d="M52,4.78,50.18,6.59l.36.36a2.21,2.21,0,0,1,1.16-.63,1.45,1.45,0,0,1,.29,0V5.76l-.31,0L52,5.49Z" fill="#fff"/><path d="M51.54,2.5a2.82,2.82,0,0,1-2-.82A2.89,2.89,0,0,1,48.75,0h-.49a3.21,3.21,0,0,0,.94,2,3.27,3.27,0,0,0,2.34,1A2.28,2.28,0,0,0,52,3v-.5A2.28,2.28,0,0,1,51.54,2.5Z" fill="#fff"/><path d="M52,13.18V13l-.13.1-.19.12h0l.18.31.07.14.08,0v-.48Z" fill="#fff"/><path d="M45,0h-.58a.71.71,0,0,1,.16.56L36.72,20.45l-10,4.84c1.18-3,7.07-17.9,9.87-25.29h-.53c-2.54,6.66-7.58,19.47-9.93,25.44l-.06.15-.09.23.12.06.32.13,10.66-5.19L45,.78l0-.1A1.12,1.12,0,0,0,45,0Z" fill="#fff"/><path d="M25.51,16.7a2.32,2.32,0,0,1-3.3,0L9.6,4A6.25,6.25,0,0,0,3,2.6,6.18,6.18,0,0,0,.75,4L0,4.77v.71L1.1,4.4A5.78,5.78,0,0,1,3.15,3.06,5.78,5.78,0,0,1,9.24,4.4L21.85,17.05a2.78,2.78,0,0,0,2,.84,2.92,2.92,0,0,0,.51,0L18,24.21a2.87,2.87,0,0,0-.78-2.53L9.06,13.46l-.36-.35L2.21,6.59a2.83,2.83,0,0,0-2-.83H0v.51A2.29,2.29,0,0,1,1.85,7l6.5,6.51.39.41L16.88,22A2.38,2.38,0,0,1,17.21,25a3,3,0,0,1-.32.39h0l.36.35.36-.36,8.26-8.28Z" fill="#fff"/><path d="M2.34,0a2.81,2.81,0,0,1-.81,1.68A2.86,2.86,0,0,1,0,2.46V3A3.18,3.18,0,0,0,1.88,2a3.17,3.17,0,0,0,1-2Z" fill="#fff"/><path d="M1.72,8.62,1.37,9a1.37,1.37,0,0,1,.26,1.18A5,5,0,0,1,0,13v.63c1.45-.78,4.32-1.69,5.18-.83l.36-.37Zm-.63,4a5.56,5.56,0,0,0,1.05-2.38,3.55,3.55,0,0,0,0-.46L4.35,12A8.1,8.1,0,0,0,1.09,12.61Z" fill="#fff"/><path d="M14.37,4.19C14.41,4,15,2.38,15.91,0h-.54c-.88,2.3-1.45,3.87-1.49,4.11A5.7,5.7,0,0,0,14,6.39L7.66.07,7.6,0H7A1.26,1.26,0,0,0,7.3.42l7.49,7.51.36-.35A4.06,4.06,0,0,1,14.37,4.19Z" fill="#fff"/></g></g></g></svg>