<svg xmlns="http://www.w3.org/2000/svg" width="885.85" height="276.48" viewBox="0 0 885.85 276.48"><title>Asset 2</title><g id="b5b1df13-b45b-477f-a802-4fda4a27f2c8" data-name="Layer 2"><g id="b3f790b3-ab7c-430a-b938-fc5ab1f8632c" data-name="Home"><g id="ed3ff380-0b1c-4a5e-b96c-74dc89756473" data-name="object"><path d="M559,123.92c-2.3,18.92-13.66,34.12-33.8,45.19-8.33,4.59-20.46,6.87-36.66,6.87a283,283,0,0,1-39.79-3.3c-32.9-4.73-70.83-13.76-107.52-22.5C288.66,137.64,239,125.82,213.16,129.05s-47.38,14.49-66.48,24.43c-24,12.51-44.82,23.31-68.1,17.05-22.86-6.14-51.69-20.7-78.2-39.4v-.3c26.53,18.72,55.4,33.32,78.27,39.46,23.19,6.23,43.92-4.55,67.92-17,19.11-9.94,40.77-21.22,66.57-24.46s75.54,8.6,128.19,21.13c36.68,8.74,74.6,17.78,107.5,22.52,37.27,5.34,62.22,4.19,76.3-3.56,20-11,31.38-26.17,33.66-45,1.63-13.38-1.28-28.78-8.68-45.75C544.21,64.57,535.43,50,524.05,34.7A374.69,374.69,0,0,0,494.84.38h.34a371.85,371.85,0,0,1,29.08,34.16C535.65,49.8,544.42,64.45,550.34,78,557.76,95.05,560.67,110.49,559,123.92Z" fill="#9b9a9b" stroke="#000" stroke-miterlimit="10" stroke-width="0.75"/><path d="M619.68,132.18c-2.76,22.7-16.4,40.92-40.53,54.21-10,5.5-24.56,8.25-44,8.25-13.51,0-29.38-1.34-47.74-4-39.49-5.68-85-16.53-129-27-63.15-15-122.79-29.25-153.74-25.36s-56.87,17.4-79.79,29.33C110.64,175,97.2,182,83.83,186.22c-15,4.7-27.9,5.3-40.67,1.87-13-3.5-27.62-9.26-42.78-16.76v-.28c15.19,7.53,29.83,13.3,42.84,16.8,27.85,7.48,52.73-5.46,81.52-20.45,22.94-11.94,48.94-25.45,79.87-29.35s90.67,10.33,153.84,25.37c44,10.48,89.52,21.32,129,27,44.72,6.43,74.69,5,91.58-4.26,24.06-13.23,37.65-31.4,40.4-54,2-16.07-1.54-34.55-10.4-54.92-7.11-16.31-17.62-33.84-31.29-52.15C571,16,564.09,7.67,557.73.38h.35C564.4,7.64,571.22,16,578,24.93c13.66,18.33,24.21,35.89,31.31,52.21C618.14,97.54,621.65,116.07,619.68,132.18Z" fill="#9b9a9b" stroke="#000" stroke-miterlimit="10" stroke-width="0.75"/><path d="M692.46,142.08c-3.31,27.22-19.68,49.1-48.63,65-12,6.6-29.47,9.9-52.8,9.9-16.2,0-35.25-1.6-57.27-4.77-47.38-6.81-102-19.82-154.84-32.4-75.76-18.05-147.34-35.1-184.49-30.43s-68.25,20.87-95.75,35.18c-17.08,8.88-33.2,17.27-49.25,22.32-18,5.64-33.46,6.36-48.77,2.24a2.86,2.86,0,0,1-.28-.07v-.25l.34.08C16,213,31.46,212.3,49.36,206.67c16-5,32.15-13.41,49.21-22.29,27.52-14.33,58.71-30.55,95.84-35.22S303.18,161.54,379,179.59C431.8,192.17,486.41,205.18,533.79,212c53.68,7.7,89.63,6,109.92-5.12,28.88-15.88,45.2-37.71,48.5-64.84,2.34-19.28-1.87-41.47-12.5-65.91-8.51-19.56-21.14-40.62-37.55-62.57C638.77,9,635.34,4.6,632,.38h.32c3.34,4.17,6.74,8.53,10.09,13,16.42,22,29,43,37.57,62.62C690.59,100.52,694.8,122.74,692.46,142.08Z" fill="#9b9a9b" stroke="#000" stroke-miterlimit="10" stroke-width="0.75"/><path d="M779.78,154a91.17,91.17,0,0,1-16.38,42.43c-9.76,13.68-23.88,25.64-42,35.59-13.08,7.19-31,11-54.95,11.78-2.72.07-5.53.13-8.4.13-19.36,0-41.93-1.9-68.72-5.75C532.51,230,467,214.35,403.58,199.26c-90.93-21.67-176.81-42.12-221.41-36.53S100.28,187.79,67.27,205c-20.49,10.66-39.85,20.73-59.1,26.78-2.64.84-5.24,1.57-7.79,2.22v-.25c2.53-.65,5.1-1.38,7.72-2.21,19.23-6,38.57-16.1,59.06-26.76,33-17.18,70.44-36.65,115-42.25S312.68,177.34,403.64,199C467,214.1,532.55,229.72,589.41,237.89c30.74,4.43,55.94,6.26,77.07,5.62,23.53-.72,42-4.68,54.84-11.74,18-9.94,32.14-21.88,41.88-35.53a90.7,90.7,0,0,0,16.33-42.31c2.81-23.15-2.23-49.77-15-79.1C754.4,51.53,739.41,26.49,720,.38h.31c19.39,26.07,34.36,51.08,44.49,74.34C777.54,104.1,782.59,130.77,779.78,154Z" fill="#9b9a9b" stroke="#000" stroke-miterlimit="10" stroke-width="0.75"/><path d="M884.57,168.22a109.34,109.34,0,0,1-19.66,50.91c-11.71,16.39-28.65,30.76-50.34,42.7-15.48,8.5-37.66,13.26-65.92,14.12q-4.93.15-10.11.15c-23.2,0-50.31-2.27-82.44-6.89-68.22-9.81-146.88-28.55-222.94-46.67C324,196.55,221,172,167.47,178.72c-23.88,3-48,9.55-73.82,20-22.75,9.2-43.76,20.13-64.08,30.69C19.65,234.57,9.93,239.6.38,244.27V244c9.52-4.63,19.19-9.65,29.08-14.81,20.32-10.57,41.32-21.5,64.08-30.71,25.84-10.44,50-17,73.89-20C221,171.76,324.08,196.3,433.22,222.3c76.06,18.12,154.7,36.85,222.93,46.66,36.88,5.31,67.13,7.51,92.49,6.74,28.22-.86,50.37-5.6,65.81-14.1C836.1,249.7,853,235.34,864.72,219a109,109,0,0,0,19.6-50.77c3.38-27.8-2.67-59.74-18-95-10-23-24-47.46-41.65-72.86H825c17.61,25.38,31.55,49.78,41.55,72.76C881.9,108.4,888,140.39,884.57,168.22Z" fill="#9b9a9b" stroke="#000" stroke-miterlimit="10" stroke-width="0.75"/></g></g></g></svg>