<svg xmlns="http://www.w3.org/2000/svg" width="24" height="16" viewBox="0 0 24 16"><title>burger_1</title><g id="ad24ea22-c5b7-4a2c-a542-259c80716644" data-name="Layer 2"><g id="f2858b36-6346-4f59-98f0-176e321055d7" data-name="Home"><g id="a1ff89fa-ecba-4d8f-9571-49efe33531f7" data-name="App bar"><path id="bf436e5e-9b40-42bb-84ae-0ba325f9b00b" data-name="Menu" d="M0,1.14H0A1.18,1.18,0,0,0,1.2,2.29H22.8A1.18,1.18,0,0,0,24,1.14h0A1.17,1.17,0,0,0,22.8,0H1.2A1.17,1.17,0,0,0,0,1.14ZM0,8H0A1.17,1.17,0,0,0,1.2,9.14H18.8A1.17,1.17,0,0,0,20,8h0a1.17,1.17,0,0,0-1.2-1.14H1.2A1.17,1.17,0,0,0,0,8Zm0,6.86H0A1.17,1.17,0,0,0,1.2,16H22.8A1.17,1.17,0,0,0,24,14.86h0a1.18,1.18,0,0,0-1.2-1.15H1.2A1.18,1.18,0,0,0,0,14.86Z" fill="#373537"/></g></g></g></svg>