<svg xmlns="http://www.w3.org/2000/svg" width="885.1" height="275.73" viewBox="0 0 885.1 275.73"><title>Asset 1</title><g id="ad283739-d404-4c47-a576-e49a1f6eba81" data-name="Layer 2"><g id="f5a1b1cf-fdf1-4c91-8a7f-7a64361d18de" data-name="Home"><g id="bd0450f0-c1be-46c5-93db-7a3fe623b20c" data-name="object"><path d="M558.67,123.55c-2.3,18.92-13.67,34.12-33.8,45.19-8.33,4.59-20.46,6.87-36.67,6.87a284.23,284.23,0,0,1-39.78-3.3c-32.91-4.73-70.84-13.76-107.53-22.5-52.61-12.54-102.31-24.37-128.1-21.13s-47.39,14.49-66.48,24.43c-24,12.51-44.82,23.31-68.11,17C55.35,164,26.51,149.45,0,130.75v-.3c26.53,18.73,55.4,33.33,78.27,39.47,23.19,6.23,43.92-4.55,67.92-17,19.12-9.94,40.78-21.21,66.57-24.45S288.31,137,341,149.56c36.68,8.74,74.61,17.78,107.5,22.51,37.28,5.35,62.23,4.2,76.3-3.55,20-11,31.38-26.17,33.67-45,1.63-13.39-1.29-28.78-8.68-45.75-5.91-13.58-14.68-28.2-26.06-43.45A375.72,375.72,0,0,0,494.46,0h.35a375.25,375.25,0,0,1,29.07,34.17c11.39,15.26,20.17,29.9,26.09,43.5C557.38,94.68,560.3,110.12,558.67,123.55Z" fill="#9b9a9b"/><path d="M619.31,131.81c-2.76,22.69-16.4,40.92-40.54,54.2-10,5.5-24.55,8.25-44,8.25-13.51,0-29.38-1.33-47.73-4-39.49-5.68-85-16.53-129-27-63.14-15-122.78-29.25-153.74-25.36s-56.86,17.4-79.78,29.32c-14.23,7.4-27.67,14.39-41,18.6-15,4.7-27.89,5.3-40.67,1.87-13-3.5-27.61-9.26-42.78-16.76v-.28c15.19,7.52,29.83,13.3,42.85,16.8C70.69,195,95.57,182,124.37,167c22.94-11.94,48.94-25.46,79.87-29.35S294.9,148,358.07,163.05c44,10.48,89.53,21.32,129,27,44.73,6.43,74.69,5,91.58-4.26,24.06-13.23,37.66-31.41,40.41-54,2-16.08-1.55-34.55-10.41-54.92C601.55,60.55,591,43,577.37,24.71c-6.76-9.06-13.65-17.41-20-24.71h.34c6.32,7.27,13.15,15.57,19.87,24.56,13.67,18.32,24.21,35.88,31.31,52.2C617.76,97.17,621.27,115.69,619.31,131.81Z" fill="#9b9a9b"/><path d="M692.08,141.71c-3.31,27.22-19.67,49.1-48.63,65-12,6.6-29.46,9.89-52.79,9.89-16.21,0-35.25-1.59-57.28-4.76-47.38-6.81-102-19.82-154.83-32.4C302.78,161.42,231.2,144.37,194.06,149s-68.25,20.87-95.75,35.18c-17.08,8.88-33.2,17.27-49.25,22.32-18,5.64-33.46,6.36-48.78,2.24L0,208.7v-.25l.34.09c15.28,4.1,30.74,3.39,48.65-2.24,16-5,32.14-13.42,49.2-22.3,27.52-14.32,58.72-30.55,95.84-35.21s108.78,12.38,184.58,30.43C431.43,191.8,486,204.81,533.42,211.63c53.68,7.71,89.63,6,109.91-5.11,28.88-15.89,45.2-37.71,48.5-64.84,2.35-19.29-1.86-41.47-12.5-65.92-8.51-19.56-21.14-40.62-37.54-62.57-3.4-4.55-6.83-9-10.22-13.19h.32c3.35,4.18,6.74,8.54,10.1,13,16.41,22,29,43,37.57,62.62C690.22,100.15,694.43,122.37,692.08,141.71Z" fill="#9b9a9b"/><path d="M779.4,153.59A91.1,91.1,0,0,1,763,196c-9.76,13.67-23.88,25.64-42,35.59-13.08,7.19-31,11-54.95,11.77-2.73.08-5.54.13-8.41.13-19.35,0-41.93-1.89-68.71-5.74-56.86-8.18-122.4-23.79-185.79-38.89-90.93-21.66-176.81-42.12-221.4-36.52S99.9,187.42,66.89,204.58C46.4,215.24,27.05,225.31,7.8,231.36q-4,1.24-7.8,2.22v-.26c2.54-.64,5.11-1.38,7.73-2.2,19.22-6,38.57-16.1,59.05-26.76,33-17.18,70.45-36.65,115-42.25S312.31,177,403.26,198.63c63.38,15.1,128.92,30.72,185.77,38.89,30.74,4.42,56,6.26,77.08,5.61,23.52-.71,42-4.67,54.83-11.74,18-9.93,32.14-21.88,41.88-35.52a90.7,90.7,0,0,0,16.33-42.31c2.82-23.15-2.22-49.77-15-79.11C754,51.16,739,26.12,719.59,0h.31c19.4,26.08,34.36,51.09,44.49,74.35C777.17,103.73,782.22,130.39,779.4,153.59Z" fill="#9b9a9b"/><path d="M884.19,167.85a109.18,109.18,0,0,1-19.65,50.9c-11.72,16.4-28.66,30.77-50.35,42.7-15.47,8.51-37.65,13.27-65.92,14.13q-4.92.15-10.1.15c-23.21,0-50.31-2.27-82.44-6.89-68.23-9.81-146.89-28.55-223-46.67-109.12-26-212.18-50.54-265.69-43.82-23.87,3-48,9.54-73.82,20-22.75,9.21-43.76,20.13-64.08,30.7C19.27,234.19,9.56,239.23,0,243.89v-.28C9.52,239,19.19,234,29.08,228.8c20.32-10.57,41.33-21.5,64.09-30.71,25.83-10.44,50-17,73.89-20,53.56-6.73,156.64,17.82,265.78,43.82,76.06,18.12,154.71,36.85,222.93,46.66,36.88,5.31,67.14,7.51,92.49,6.74,28.23-.86,50.37-5.6,65.81-14.1,21.66-11.91,38.57-26.26,50.27-42.63a108.88,108.88,0,0,0,19.6-50.78c3.38-27.79-2.67-59.73-18-94.95-10-23-24-47.46-41.64-72.87h.31c17.61,25.38,31.55,49.79,41.55,72.77C881.52,108,887.58,140,884.19,167.85Z" fill="#9b9a9b"/></g></g></g></svg>