<svg xmlns="http://www.w3.org/2000/svg" xmlns:xlink="http://www.w3.org/1999/xlink" width="300" height="33.94" viewBox="0 0 300 33.94"><defs><filter id="a296d7b4-cab8-4718-afb2-db51724f9626" x="-2" y="-1.46" width="37" height="38" filterUnits="userSpaceOnUse" color-interpolation-filters="sRGB"><feFlood flood-color="#fff" result="bg"/><feBlend in="SourceGraphic" in2="bg"/></filter><mask id="adcf8555-1627-4f1d-8b0e-153af56297b8" x="-2" y="-1.46" width="37" height="38" maskUnits="userSpaceOnUse"><g filter="url(#a296d7b4-cab8-4718-afb2-db51724f9626)"></g></mask><radialGradient id="fe2813e4-4d3a-424e-8ba0-15738f316a46" cx="50.82" cy="33.29" r="12.36" gradientTransform="matrix(1, -0.02, 0.02, 1, -38.35, -11.57)" gradientUnits="userSpaceOnUse"><stop offset="0" stop-color="#269eed"/><stop offset="0.31" stop-color="#307ae7"/><stop offset="1" stop-color="#9486de"/></radialGradient><radialGradient id="b4039be1-03e0-449d-b9b9-a9c1009fefc7" cx="26.75" cy="7.37" r="30.17" gradientUnits="userSpaceOnUse"><stop offset="0" stop-color="#70eff9"/><stop offset="0.22" stop-color="#50e5fa"/><stop offset="0.48" stop-color="#50e5fa"/><stop offset="0.64" stop-color="#269eed"/><stop offset="1" stop-color="#5a68ba"/></radialGradient><radialGradient id="b088263c-7552-4e55-8254-93ef50d7fc93" cx="51.88" cy="32.26" r="12.36" xlink:href="#fe2813e4-4d3a-424e-8ba0-15738f316a46"/><radialGradient id="b88be447-a8c5-404b-a370-21876380db95" cx="27.79" cy="6.31" r="30.17" gradientUnits="userSpaceOnUse"><stop offset="0" stop-color="#70eff9"/><stop offset="0.38" stop-color="#50e5fa"/><stop offset="0.63" stop-color="#50e5fa"/><stop offset="0.83" stop-color="#269eed"/><stop offset="1" stop-color="#7c86de"/></radialGradient><radialGradient id="b57556b5-9384-4cca-874c-486837220c03" cx="27.79" cy="6.31" r="30.17" gradientUnits="userSpaceOnUse"><stop offset="0" stop-color="#70eff9" stop-opacity="0"/><stop offset="0.28" stop-color="#269eed" stop-opacity="0.1"/><stop offset="0.48" stop-color="#307ae7" stop-opacity="0.3"/><stop offset="0.52" stop-color="#417ce6" stop-opacity="0.4"/><stop offset="0.65" stop-color="#6d81e1" stop-opacity="0.68"/><stop offset="0.75" stop-color="#8985df" stop-opacity="0.85"/><stop offset="0.79" stop-color="#9486de" stop-opacity="0.92"/><stop offset="0.86" stop-color="#8f84db" stop-opacity="0.93"/><stop offset="0.92" stop-color="#817cd2" stop-opacity="0.95"/><stop offset="0.97" stop-color="#686fc3" stop-opacity="0.98"/><stop offset="1" stop-color="#5a68ba"/></radialGradient></defs><title>logo-header</title><g id="a235a282-38a3-45f9-811f-86ba3ceaa204" data-name="Layer 2"><g id="a3ddf5d7-40d6-4552-905e-abb4a421f3b1" data-name="Header"><g id="b5650ed2-f04f-49c6-8252-13932f140abc" data-name="Logo"><g opacity="0.5"><g mask="url(#adcf8555-1627-4f1d-8b0e-153af56297b8)"><path d="M9.74,25.73,10.11,31a.42.42,0,0,1-.72.32L2.58,24.37a.41.41,0,0,1,.33-.7L8,24A1.87,1.87,0,0,1,9.74,25.73Z" fill="url(#fe2813e4-4d3a-424e-8ba0-15738f316a46)"/><path d="M32.78,20.82h0a2.78,2.78,0,0,0-.08-.49l-2-7.7-1.54-6a2.42,2.42,0,0,0-1.7-1.72l-6-1.67-7.55-2.1a2.65,2.65,0,0,0-.62-.09,2.74,2.74,0,0,0-.64.08L5.6,3a2.5,2.5,0,0,0-1.07.59,2.46,2.46,0,0,0-.66,1.11L.09,18.47a2.4,2.4,0,0,0,.4,2.09,2.43,2.43,0,0,0,1.75,1l7.11.53a2.41,2.41,0,0,1,2.23,2.24l.54,7.4a2.42,2.42,0,0,0,3,2.17L29,30.27a2.38,2.38,0,0,0,1.09-.62,2.33,2.33,0,0,0,.63-1.07l1.95-7A2.37,2.37,0,0,0,32.78,20.82Zm-8,3.32a.51.51,0,0,1-.07.17,1.24,1.24,0,0,1-.71.6l-2,.66-2.86.94a.64.64,0,0,1-.77-.35,1.4,1.4,0,0,1-.09-.29c0-.05,0-.09,0-.14l-.81-8.2a1.48,1.48,0,0,0-1.35-1.33l-8-.71h0a.63.63,0,0,1-.5-.82l1-2.79L9.19,10a1.24,1.24,0,0,1,.74-.76l.05,0c3-.4,12.06.64,12.06.64a2.21,2.21,0,0,1,2,2S25.27,21.09,24.81,24.14Z" fill="url(#b4039be1-03e0-449d-b9b9-a9c1009fefc7)"/></g></g><path d="M10.77,24.67l.37,5.26a.41.41,0,0,1-.71.32L3.62,23.31a.41.41,0,0,1,.32-.7L9,22.94A1.86,1.86,0,0,1,10.77,24.67Z" fill="url(#b088263c-7552-4e55-8254-93ef50d7fc93)"/><path d="M33.81,19.75h0a2.76,2.76,0,0,0-.07-.49l-2-7.7-1.55-6a2.41,2.41,0,0,0-1.69-1.72l-6-1.67L15,.09A2.16,2.16,0,0,0,14.35,0a2.27,2.27,0,0,0-.63.08L6.63,1.91a2.41,2.41,0,0,0-1.72,1.7L1.12,17.4a2.41,2.41,0,0,0,2.15,3.05l7.12.54a2.42,2.42,0,0,1,2.23,2.24l.53,7.4a2.4,2.4,0,0,0,.93,1.74,2.44,2.44,0,0,0,2.09.43l13.89-3.59a2.53,2.53,0,0,0,1.09-.62,2.49,2.49,0,0,0,.63-1.08l1.95-7A2.43,2.43,0,0,0,33.81,19.75Zm-8,3.33a.65.65,0,0,1-.08.17,1.28,1.28,0,0,1-.71.6l-2,.66-2.86.93a.62.62,0,0,1-.77-.34,1.4,1.4,0,0,1-.09-.29.68.68,0,0,1,0-.14l-.81-8.2a1.5,1.5,0,0,0-1.35-1.34l-8-.7h0a.63.63,0,0,1-.49-.83l1-2.78.66-1.92A1.25,1.25,0,0,1,11,8.14l0,0c3-.41,12.06.64,12.06.64a2.22,2.22,0,0,1,2,2S26.31,20,25.85,23.08Z" fill="url(#b88be447-a8c5-404b-a370-21876380db95)"/><path d="M33.81,19.75h0a2.76,2.76,0,0,0-.07-.49l-2-7.7-1.55-6a2.41,2.41,0,0,0-1.69-1.72l-6-1.67L15,.09A2.16,2.16,0,0,0,14.35,0a2.27,2.27,0,0,0-.63.08L6.63,1.91a2.41,2.41,0,0,0-1.72,1.7L1.12,17.4a2.41,2.41,0,0,0,2.15,3.05l7.12.54a2.42,2.42,0,0,1,2.23,2.24l.53,7.4a2.4,2.4,0,0,0,.93,1.74,2.44,2.44,0,0,0,2.09.43l13.89-3.59a2.53,2.53,0,0,0,1.09-.62,2.49,2.49,0,0,0,.63-1.08l1.95-7A2.43,2.43,0,0,0,33.81,19.75Zm-8,3.33a.65.65,0,0,1-.08.17,1.28,1.28,0,0,1-.71.6l-2,.66-2.86.93a.62.62,0,0,1-.77-.34,1.4,1.4,0,0,1-.09-.29.68.68,0,0,1,0-.14l-.81-8.2a1.5,1.5,0,0,0-1.35-1.34l-8-.7h0a.63.63,0,0,1-.49-.83l1-2.78.66-1.92A1.25,1.25,0,0,1,11,8.14l0,0c3-.41,12.06.64,12.06.64a2.22,2.22,0,0,1,2,2S26.31,20,25.85,23.08Z" opacity="0.7" fill="url(#b57556b5-9384-4cca-874c-486837220c03)"/><path d="M71,24.57a7.64,7.64,0,0,1-2.35,2.75,11.79,11.79,0,0,1-3.9,1.86,19.45,19.45,0,0,1-5.47.69,19.6,19.6,0,0,1-5.49-.69,11.9,11.9,0,0,1-3.92-1.86,7.85,7.85,0,0,1-2.35-2.75,7.43,7.43,0,0,1-.78-3.35V5.46h5.68V18.92a9.21,9.21,0,0,0,.27,2.26,4.15,4.15,0,0,0,1,1.85,5,5,0,0,0,2.09,1.27,10.88,10.88,0,0,0,3.49.46,10.79,10.79,0,0,0,3.47-.46A4.91,4.91,0,0,0,64.79,23a4.06,4.06,0,0,0,1-1.85,9.72,9.72,0,0,0,.26-2.26V5.46h5.69V21.22A7.43,7.43,0,0,1,71,24.57Z" fill="#269eed"/><path d="M101.43,10.31a6.36,6.36,0,0,0-1.49-2.57A6.7,6.7,0,0,0,97.3,6.06a11.54,11.54,0,0,0-4-.6H80.73A2.54,2.54,0,0,0,78.2,8h0a2.53,2.53,0,0,0,2.53,2.53H92.11a8.41,8.41,0,0,1,1.89.18,3.1,3.1,0,0,1,1.24.56,2.14,2.14,0,0,1,.69,1,4.61,4.61,0,0,1,.2,1.43,4.37,4.37,0,0,1-.2,1.4,2,2,0,0,1-.69.93A2.93,2.93,0,0,1,94,16.5a10,10,0,0,1-1.89.15H78.2V29.23h5.69V21.72h9.45a11.54,11.54,0,0,0,4-.6,7,7,0,0,0,2.64-1.69,6.39,6.39,0,0,0,1.49-2.58,11.35,11.35,0,0,0,.46-3.28A11.21,11.21,0,0,0,101.43,10.31Z" fill="#269eed"/><path d="M120.74,29.23h-6.62L103.45,5.46h6.35l7.68,17.89,7.65-17.89h6.35Z" fill="#1e1d1e"/><path d="M183,28.54a24.07,24.07,0,0,1-2.32.71,18.81,18.81,0,0,1-2.52.46,23.07,23.07,0,0,1-2.85.16,21.43,21.43,0,0,1-5.93-.78,13.27,13.27,0,0,1-4.66-2.34,10.88,10.88,0,0,1-3.05-3.91,13,13,0,0,1-1.08-5.48,12.93,12.93,0,0,1,1.08-5.47A10.72,10.72,0,0,1,164.71,8a13.12,13.12,0,0,1,4.66-2.35,21.44,21.44,0,0,1,5.93-.77,25.31,25.31,0,0,1,2.85.15,18.81,18.81,0,0,1,2.52.46,21.58,21.58,0,0,1,2.32.72c.75.27,1.49.59,2.23.93V12.9c-.59-.36-1.2-.71-1.84-1.07a17,17,0,0,0-2.14-.95,17.29,17.29,0,0,0-2.56-.69,16.66,16.66,0,0,0-3.15-.27,13.41,13.41,0,0,0-4.45.63,7.34,7.34,0,0,0-2.83,1.66,5.64,5.64,0,0,0-1.49,2.37,9,9,0,0,0-.43,2.78,9.82,9.82,0,0,0,.18,1.88,6.56,6.56,0,0,0,.62,1.74,6,6,0,0,0,1.12,1.52A6.17,6.17,0,0,0,170,23.69a9.8,9.8,0,0,0,2.4.79,15.66,15.66,0,0,0,3.16.28,17.65,17.65,0,0,0,3.15-.25,16.19,16.19,0,0,0,2.56-.66,15.66,15.66,0,0,0,2.14-.94c.64-.36,1.25-.72,1.84-1.09V27.6C184.48,28,183.74,28.26,183,28.54Z" fill="#1e1d1e"/><path d="M202.34,10.63v18.6h-5.69V10.63h-6.36a2.59,2.59,0,0,1-2.59-2.58h0a2.59,2.59,0,0,1,2.59-2.59h18.42a2.59,2.59,0,0,1,2.59,2.59h0a2.59,2.59,0,0,1-2.59,2.58Z" fill="#1e1d1e"/><path d="M242.34,17.36a13.67,13.67,0,0,1-1,5.41,10.21,10.21,0,0,1-2.85,3.91,12.41,12.41,0,0,1-4.5,2.38,22.3,22.3,0,0,1-11.91,0,12.51,12.51,0,0,1-4.54-2.38,10.49,10.49,0,0,1-2.88-3.91,13.67,13.67,0,0,1-1-5.41,13.58,13.58,0,0,1,1-5.4A10.53,10.53,0,0,1,217.54,8a12.67,12.67,0,0,1,4.54-2.38,22.56,22.56,0,0,1,11.91,0A12.57,12.57,0,0,1,238.49,8,10.25,10.25,0,0,1,241.34,12,13.58,13.58,0,0,1,242.34,17.36Zm-5.75,0a9.64,9.64,0,0,0-.38-2.65,5.92,5.92,0,0,0-1.33-2.38,6.79,6.79,0,0,0-2.62-1.71A11.53,11.53,0,0,0,228,10a13.53,13.53,0,0,0-3,.3,8.44,8.44,0,0,0-2.26.84,6.18,6.18,0,0,0-2.62,2.79,6.9,6.9,0,0,0-.55,1.72,10.45,10.45,0,0,0-.16,1.75,10.8,10.8,0,0,0,.16,1.78,6.78,6.78,0,0,0,.55,1.72,5.88,5.88,0,0,0,1,1.53,6,6,0,0,0,1.59,1.24,8.8,8.8,0,0,0,2.26.83,13.53,13.53,0,0,0,3,.3,11.55,11.55,0,0,0,4.22-.65,6.92,6.92,0,0,0,2.62-1.72A6,6,0,0,0,236.21,20,9.77,9.77,0,0,0,236.59,17.36Z" fill="#1e1d1e"/><path d="M265.57,19.83a9.34,9.34,0,0,0,1.78-.91,6.09,6.09,0,0,0,2.49-3.29,8.29,8.29,0,0,0,.38-2.63,10,10,0,0,0-.45-3.1,5.88,5.88,0,0,0-1.46-2.38A6.56,6.56,0,0,0,265.7,6a12.32,12.32,0,0,0-3.9-.54H250a2.48,2.48,0,0,0-2.48,2.48h0A2.48,2.48,0,0,0,250,10.42h11a8.61,8.61,0,0,1,1.67.14,2.73,2.73,0,0,1,1.06.44,1.65,1.65,0,0,1,.56.79,3.72,3.72,0,0,1,.17,1.18,3.61,3.61,0,0,1-.17,1.17,1.56,1.56,0,0,1-.56.79,2.59,2.59,0,0,1-1.06.44,8.61,8.61,0,0,1-1.67.14H247.53V29.23h5.69V20.48h6.21l6.38,8.75h6.66Z" fill="#1e1d1e"/><path d="M289.78,19.52v9.71H284.1V19.52L273.89,5.46h6.38L287,15l6.66-9.57H300Z" fill="#1e1d1e"/><rect x="134.94" y="5.46" width="21.34" height="5.07" rx="2.53" fill="#1e1d1e"/><rect x="134.94" y="14.45" width="17.36" height="5.07" rx="2.53" fill="#1e1d1e"/><rect x="134.94" y="24.16" width="21.56" height="5.07" rx="2.53" fill="#1e1d1e"/></g></g></g></svg>